<?xml version="1.0" encoding="utf-8"?>
<!-- Generator: Adobe Illustrator 27.9.1, SVG Export Plug-In . SVG Version: 6.00 Build 0)  -->
<svg version="1.1" id="Layer_1" xmlns="http://www.w3.org/2000/svg" xmlns:xlink="http://www.w3.org/1999/xlink" x="0px" y="0px"
	 viewBox="0 0 910.1 607.2" style="enable-background:new 0 0 910.1 607.2;" xml:space="preserve">
<style type="text/css">
	.st0{fill:#CAC2D3;}
	.st1{fill:#FACE6D;}
	.st2{fill:#AABBA7;}
	.st3{fill:#BDD0C0;}
	.st4{fill:#90AFCF;}
	.st5{fill:#F8AF9C;}
	.st6{fill:#F18468;}
	.st7{fill:#FCF7EF;}
	.st8{fill:#FCC2B8;}
	.st9{fill:#C5BBD0;}
	.st10{fill:#3F5875;}
	.st11{fill:#A5CEC8;}
	.st12{fill:#FBC3A6;}
	.st13{fill:#85B4BA;}
	.st14{fill:#F6A162;}
	.st15{fill:#FCD5CE;}
	.st16{fill:url(#SVGID_1_);}
</style>
<g>
	<g>
		<path class="st0" d="M167.2,605.7c-4.2-27.3,33.5-17.5,41.4-36.6c3.3-7.6,8.4-13.5,16-17c29.2-13,46,31.5,27.6,48.9
			C230.9,613.2,193.9,602.2,167.2,605.7z"/>
		<path class="st1" d="M868.6,0c1.8,24.1,26.9,16.2,31.4,36c5,19-18.7,36.4-33.9,20.2c-5.6-6.3-11.8-11.7-20.3-13.4
			C826.7,37.1,818.4,18.5,824,0C838.8,0,853.7,0,868.6,0z"/>
		<path class="st2" d="M0.8,545.7c6.8,1.5,14.6,6.2,20.6,0.5c21.5-19,47.4,10.5,36.3,29.8c-20.4,32.1-27.8,3.8-47.7,3.7
			C-7.3,586.6,3.7,556.1,0.8,545.7z"/>
		<path class="st3" d="M203.2,0c-0.6,45.9-66.4,43.4-69.5,0C156.9,0,180,0,203.2,0z"/>
		<path class="st4" d="M36.1,591.2c13.7-0.6,23.8-13.2,24.9-26.1c14.4,6,36.8,14.7,25.2,35.5c-9.7,11.9-34.2,2.1-49.3,5.2
			C35.6,600.9,36,596,36.1,591.2z"/>
		<path class="st3" d="M376.4,605.7c-7.9-9.8-13.8-37.5,6.4-21.7c1.4,1.6,2.6,1.6,3.1-0.9c1.5-7.9-0.4-22.8,10.2-24.1
			c11.8,4.5,4.6,19.8,4.1,28.7c20.9-12.4,21,5,9.6,17.9C398.7,605.7,387.5,605.7,376.4,605.7z"/>
		<path class="st5" d="M324.9,0c-3.8,32-65.2,36.3-64.3,0C282.1,0,303.5,0,324.9,0z"/>
		<path class="st4" d="M652.5,571.3c13.9,8,33,13.7,28.2,34.4c-16.8-3.2-46.3,6.6-56.7-4.2C639.3,598.3,652.5,590.1,652.5,571.3z"/>
		<path class="st6" d="M507.7,591.3c9.2-7.9,19.9-28.9,33.3-13.7C559.7,611.1,468.6,617,507.7,591.3z"/>
		<path class="st5" d="M884,605.7c0.1-12.9-9.4-17.9-18.8-24.3C854.4,534.7,936,613.8,884,605.7z"/>
		<path class="st7" d="M36.1,591.2c5.6,23-17.4,12.3-33.1,14.6c-1.8,0-2.2-0.4-2.2-2.2C2.4,593-4.7,579,10,579.7
			C21.3,575.4,25,591.5,36.1,591.2z"/>
		<path class="st8" d="M507.7,591.3c-21.2,18.6-2.3,12.1-23,4.5C428.1,633.9,477.6,548.5,507.7,591.3z"/>
		<path class="st9" d="M0.8,171.6c26.4-0.6,22.1,38.6,0,37.8C0.8,196.8,0.8,184.2,0.8,171.6z"/>
		<path class="st10" d="M706.5,605.7c0.7-22.3,32.7-22,34.3,0C729.4,605.7,717.9,605.7,706.5,605.7z"/>
		<path class="st7" d="M474.1,605.7c2.5-12.7,17.1-12,22-1.6C493.5,608.3,480.3,604.5,474.1,605.7z"/>
		<path class="st1" d="M673.8,287.8c0.1-30.7,31.8-30,50.9-14c23.2,5,23.3-21.6,14.2-35.8c-1.9-9,2.6-18.9,10.6-23.3
			c38.1-19.3,52.4,38.6,31.9,62.7c-11.3,16.6-40.3,8.3-41.9,34.2C729.4,363.1,667.9,330.5,673.8,287.8z"/>
		<path class="st8" d="M813.1,591.3c-34.6,1.9-45.5-46.8-80-26.9c-7.2,4.6-14.9,6.3-22.7,0.7c-16.6-13.2,2.9-39.4,19.3-35.7
			c19.9,1.5,21.7-32,46.9-18.7c19.2,9.5,17.9,32.4,45.1,27.6C851.8,544.4,839.4,592.6,813.1,591.3z"/>
		<path class="st11" d="M252.1,359.5c1.5,13.9-8,27.5-22.5,23.9c-20.5-4-19.8,35.8-43.2,21.5c-14.8-6.7-10.4-23.2-14-35.9
			c-7.5-13.9-40.7-1.3-27.4-29c20.8-33.9,47.4,17.5,66.4-4.4C228.3,309,256.2,335.4,252.1,359.5z"/>
		<path class="st9" d="M433,313.2c27.6-0.8,33.3,26,37.2,46.8c8.7,14.1,35.5,24.2,20.9,44.4c-27.8,33.1-42.2-21.5-67-26.3
			C386.6,370.2,393.7,312.7,433,313.2z"/>
		<path class="st12" d="M352.5,269.1c-5.5,23.8-38.3,46.1-6.6,68.3c8.3,5.7,14.1,13,13.4,23.7c-0.2,15.5-20.9,24.3-31.4,13
			c-10.5-10.4-5.6-40.6-28.6-32.3c-32.1,11.8-38-44.6-4.9-45.7c27.4,0.4,16.1-28.2,29.9-41.2C335.3,244.7,353.2,255.1,352.5,269.1z"
			/>
		<path class="st1" d="M417.8,451.3c66.8,9.5,14.4,45.6,32.9,65.3c20.9,3.8,30.6,28.2,10,40.2c-16.8,10.4-40.8,1-44-18.6
			c-3.3-15.7,16.9-34.6-3.5-44.6C354.7,506.7,370.1,448.9,417.8,451.3z"/>
		<path class="st5" d="M41.1,170.8c-0.3-38,54.2-15.7,43.8-58.5c-0.9-3.6-0.6-7.4,1-10.7c7.7-16.1,35-5.8,36.3,12.6
			c0.1,0.7,0.1,1.5,0.3,2.2c3.3,19.7-27.6,26.2-18.1,47.2c0.3,0.6,0.6,1.3,0.8,1.9C121.5,215.5,40.7,218.9,41.1,170.8z"/>
		<path class="st8" d="M657.6,117.2c-1.5-25.3,26-18.6,36.5-33.7c14.1-19.9,45.2-6.3,47.7,15.9c0.9,4.5,3.5,8.5,7.6,10.9
			c18.8,9.6,14.6,40.4-6.2,44c-20.9,5.1-19.5-18.5-32.6-26.2c-10.6-5.5-16.9,6.7-25.9,9.9C670.2,142.7,656.7,130.4,657.6,117.2z"/>
		<path class="st0" d="M908.8,186.4c4.7,17.9-13.9,28.7-8.9,46.2c5.2,19.1-15.2,37.4-31,23.9c-5.2-8-13.7-8.8-21.8-11.9
			c-36.1-32.8,18.3-37.4,16.3-62.9C863.4,146.6,918.9,149.8,908.8,186.4z"/>
		<path class="st6" d="M558.4,17.1c22.9-0.2,43.8,25.9,31,47.1c-8.3,21.1,18.4,45.1-13.3,61.2c-20.6,8.7-31.6-14.8-24.6-31.9
			c2.5-13.4-0.2-24.7-11-33.9C523.1,44.5,536.6,15.5,558.4,17.1z"/>
		<path class="st10" d="M258.4,115.5c1.8,19-21.7,24.1-26.4,40.4c-4.8,16.9-21.2,21.2-33.9,9c-10.5-11-40.9,1.2-36.8-18.6
			c1-5.2,3.9-9.7,7.9-13.1C193.2,113,252,65.4,258.4,115.5z"/>
		<path class="st6" d="M108.9,315.2c2.3,24.6-31,21.6-32.6,44.2c-4.7,30.6-49.1,26.1-56.7-0.6c-11.5-42.7,38.3-21.9,45.1-51
			C71.5,278.8,109.7,288.6,108.9,315.2z"/>
		<path class="st13" d="M576,264.2c-27,1.1-19.9-34.3-36.7-46.9c-13.7-7.3-41.5-3.7-33-28.5c23.7-38.1,61.8-22.6,65.6,20.2
			c7.3,12.8,30,13.2,28.4,31C600.4,253.3,589.3,264.3,576,264.2z"/>
		<path class="st3" d="M416.7,221.4c0.7,32.6-45.2,38.1-47.9,3.8c-3.4-10.5-10.9-16.4-21.4-19.4c-23.3-6.3-21.3-38.9-2.6-49.4
			c20.7-13.4,33.1,11.5,36.8,28.6C390.6,201.1,419.1,196.9,416.7,221.4z"/>
		<path class="st14" d="M666.8,457.6c5.6,70.6-84.2,56.7-48.7,6.7c14.4-6.1,22.6-24.2,8-34.6C568.8,401.4,668.5,372.8,666.8,457.6z"
			/>
		<path class="st11" d="M418.2,82.2c-2-24.5,23.4-23.4,25.3-44.5c2.3-13.3,13.4-23.7,27.7-22.5c49.2,17.3,4.9,38.9,8.8,55.6
			c5.3,17.9-9.5,18.7-21,26.3C445.6,115.7,419.1,100.3,418.2,82.2z"/>
		<path class="st11" d="M518.1,477c26.3-1.7,19.3,31.4,36.2,42.1c14.2,4,36,3.5,28.4,27.3c-18.2,30-55-4.4-74.4-17.1
			C486,516.8,490.7,476.7,518.1,477z"/>
		<path class="st13" d="M224.5,489.6c-1.2-29.9,38.6-32.2,50.6-9.2c7.5,14.3,32.7,4.7,35.4,22.7
			C318.6,548.3,219.1,520.8,224.5,489.6z"/>
		<path class="st9" d="M792.5,433.8c0.9,30.4-36.5,33.7-47.2,9.2c-17.7-21.4-26.2,3.9-39.6,2.6c-13.7-15.3,10.2-42,27.9-45
			c15.8-4.4,24.8,10.6,38.8,13.2C783.6,415.5,793.2,424.7,792.5,433.8z"/>
		<path class="st4" d="M614,368.7c-53.3,0.7-53.2-73.5-9.2-46.6c3.6,4.3,7.2,8.6,13.7,8.3C675.2,293.4,666.9,373.8,614,368.7z"/>
		<path class="st11" d="M66.6,462.5c-22.4-0.2-38.2-10.8-50.9-27.1c-16.3-13.2-11.6-47.7,13.5-32.7c10.8,9.8,13.7,28.2,31.8,27.1
			C108,404.5,113,463.1,66.6,462.5z"/>
		<path class="st9" d="M48.8,66.2C23.1,69.5-7.1,40.1,21.3,19.8C66-4.4,114.5,58.1,48.8,66.2z"/>
		<path class="st2" d="M652.5,571.3c0.2,25.9-29.6,38.5-46.6,20.4C582,555.1,644.8,516.2,652.5,571.3z"/>
		<path class="st15" d="M315.5,442.2c0.2-11.5-18.2-9.6-18.4-22.7c-3.1-7.8,6.4-13.9,11.7-7.1c5.5,2.9,4,11.5,8.9,13.8
			c2.2-0.1,2.1-2,2.2-3.5c-0.5-8.7,16-29.6,21.3-15.6c4.6,16.7-36.8,33.1,2,27.9c12.4,4.2-3.1,20.9-11.3,22.1
			c-9.3,1.2-2.3,9.5-6.6,13.5c-2.5,1-4.6-1.7-4.8-3.2c-1-8.4-7.1-9.6-13.7-11c-8.3-0.1-22.4-17.5-9.9-20.6
			C304.4,432.4,316.5,454.6,315.5,442.2z M321.5,444.2c-1.2,14.2,14.8-4.5,2.7-4C321,439.9,321.6,442.3,321.5,444.2z"/>
		<path class="st0" d="M620.7,181.4c4.4-11.1-2.9-23.6,5-34.6c8.1-16.3,18.5-0.9,14.2,10.9c-0.8,9.4-27.6,45.4-2,22.8
			c30.6-23.2,26.3,15.6-0.7,17.6c-7.5-2.6-21.8,12.9-20.8,3.4c4.6-16.5-23.3-17.5-23.6-36C596.7,141.5,615.4,173.6,620.7,181.4z"/>
		<path class="st3" d="M869.4,362.7c-0.3,9.2-16.5,35.7,5.4,24.5c25.4-3.2-0.2,30.5-15.4,23.5c-32.6-4.4,5.3-42.9-17.5-44.6
			C805.7,357.4,871.3,327,869.4,362.7z"/>
		<path class="st5" d="M161.2,455.3c4.9,21.9-40.5,55.3-35.2,16.8c12.2-11.4,10.5-24.1,4.2-38C136.7,402.6,166,434.3,161.2,455.3z"
			/>
		<path class="st15" d="M335.2,99.8c0.1-14.8,16.3-13.5,22.5-3c14,14.4,17.8-16,31.1-11.5C417.6,115.9,344.1,153.3,335.2,99.8z"/>
		<path class="st8" d="M104.7,535.4c-27.7,3-45.4-44.2-13-48.9c15.3-0.7,10.7,19.5,24.5,21.7C132.2,514.4,119.6,537.3,104.7,535.4z"
			/>
		<path class="st3" d="M812.1,98.7c-31.2,1-26.7-43.9,1.1-43.9C843.2,54.7,839.6,99.7,812.1,98.7z"/>
		<path class="st5" d="M849.6,472.4c-0.4-28.7,41.5-26,41.2,0.9C890.4,502,849,500.9,849.6,472.4z"/>
		<path class="st3" d="M393.1,433.3c-30.4-0.2-26.4-41.5-0.2-42C420.3,390.6,420.3,433.6,393.1,433.3z"/>
		<path class="st15" d="M634,13.7c19.5-1.4,40.6,25.9,23.7,40c-17.3,9.4-11.6-22.7-28.7-15.4C602.8,47,611.8,9.2,634,13.7z"/>
		<path class="st5" d="M353.2,507.8c-8.7,26.5,2.7,24.9,13.6,42.7c-6,24.6-36.6-7.7-34.3-22.4C327.6,514.5,345.5,482.4,353.2,507.8z
			"/>
		<path class="st3" d="M82.3,255c0.4,11.3-17.1,5-20.1,15.2c-8.3,20.8-27.9,10.9-12.7-7.2c10.7-10.9-23.8-46.2,5.4-36.9
			c5.1,5,8.6,11,9.9,18C66.2,252.3,82.7,244.1,82.3,255z"/>
		<path class="st3" d="M908.9,330.1c0.4,13.4-22.1,15.6-24.8,2.8c-2.3-5.8-0.4-12.5-8.6-8c-28.9,6.2-11.6-50.8-3.6-21.7
			c-3.8,23,15.8-6.2,23.1,0c11.1,4.9-13.4,32,7.2,22.3C908.9,322.7,908.9,322.7,908.9,330.1z"/>
		<path class="st15" d="M178.3,270.4c0.8-18.7,31.6-12.9,38.6,0.6c15.3,12.4-3,44.9-13.5,20.1C204.6,272.1,178,287.4,178.3,270.4z"
			/>
		<path class="st0" d="M783.7,30.2c-0.9,11.6-10.7,28.4-24.1,22.3C731,36.9,779.4-7.7,783.7,30.2z"/>
		<path class="st12" d="M519.5,256.5c23.5-1.7,14.3,25.5,29.7,28.3c8.4,0.2,9.9,11.1,2.6,15.1c-4.2,3.3-6.9-0.3-10.6-2.1
			c-10.6-1.4-9.8-11.9-12.3-19.7c-3.6-10.9-14.5,1.1-20-6.3C503,264.9,511.3,254.8,519.5,256.5z"/>
		<path class="st13" d="M475.9,170.7c3.4,10.6-10.5,19.4-10.9,5.1c3.2-9.9-6.6-26-16.6-15.5c-7.5,5.9,0.4,20.4-8.9,23.1
			c-3.3,0.3-5.8-1.6-6.1-4.8C425.5,142.8,476.6,129.9,475.9,170.7z"/>
		<path class="st13" d="M896,125.5c1.1,10-9.9,11.2-11.1,3.1c-2.4-17-23.1-16.1-29.5-3.5c-0.8,8-10.9,21.1-14,7.2
			C842.3,100.8,890.7,92.2,896,125.5z"/>
		<path class="st11" d="M195.5,215.3c0-9.2,7.6-18.6,16.4-20.4C250.9,195.8,201.1,254.9,195.5,215.3z"/>
		<path class="st12" d="M500.5,123.5c-5.8,0.9-16.2-2.3-13.1-10.1c4.3-8,16.9,2.3,24.4-2.8c11.1-2.8,10.9,11.3,1.4,12.4
			c-6.9,5.6,7.5,4.1,10.6,5.9c7.5,2.9,2.6,13-4.2,10.9c-5.3-1.8-9.6-0.2-13.8,3.2c-9.6,6.2-12.4-7.5-3.8-11.4
			C507.4,127.1,510.6,122.2,500.5,123.5z"/>
		<path class="st13" d="M312,60.3c8.1-47.6,71.1-8.8,42.9,1.3c-6.5-5.2-8.1-15.1-18.5-12.9c-10.2-0.3-11,11.6-16.4,17.4
			C315.6,68.1,311.9,65.4,312,60.3z"/>
		<path class="st1" d="M90.8,392.9c-1-32.6,46.7-27.1,40.8,2.2c-9.4,13.8-10.1-6.5-14.4-11.2c-6.2-6.4-15.4,1.4-15.3,9.2
			C101.3,403.5,90.5,403.6,90.8,392.9z"/>
		<path class="st1" d="M834.3,509c2.4,7.6-9.8,12.6-11.1,3.6c2.2-13.9-12.2-25.8-24.6-17.5c-3.1,2.1-7.3,3.2-9.6-0.9
			C791,467,839.5,484,834.3,509z"/>
		<path class="st10" d="M483.4,286.5c0.8,6.3-7.1,11.8-12.3,6.5c-6-5.9-10.4,5.2-16.8,1.4C435.1,272.3,483.7,256.2,483.4,286.5z"/>
		<path class="st9" d="M283.8,187.9c-8.2-36.2-40.1-13.4-33.5,15.1c-3,34.8,50.9,52.9,63.4,18.4
			C321.6,195.8,294.2,200.1,283.8,187.9z M278.5,202.6c1.7,3.4,5.2,6.4,9.4,9.1C283.7,209.1,280.2,206,278.5,202.6z"/>
		<path class="st12" d="M791.5,313.1c20.7-3.7,26.9,43.1,9.3,23.3c-1-5-3.2-11-9.2-11.3c-7.1-1.2-11.1,5.8-12.4,11.9
			C759.6,355.7,770.3,308.1,791.5,313.1z"/>
		<path class="st1" d="M136.3,253.3c-15,4.1-31.7-22.8-10.2-16.4c21.4,13.7,15.6-11.2,27.4-15.3C169.2,227.8,150,256.4,136.3,253.3z
			"/>
		<path class="st3" d="M811.1,173.9c-16,8.1-3.4,11.3-10.1,20c-15.5,9.8-5.1-24.6-22-12.5c-2.3,2.1-5,3.2-7.5,0.5
			c-6-11.2,13.4-19.8,21.1-10.3c2.4,2,4.1,1.9,5.8-0.9C803,159.4,817.2,160.4,811.1,173.9z"/>
		<path class="st11" d="M240.8,38.7c2.8,30.8-45.2,33.3-37.1,8.5c8-4.2,16.4,12.6,22.9,1c3.5-4.4,1.7-10.2,2.9-15.3
			C233,23.4,242.4,31.2,240.8,38.7z"/>
		<path class="st13" d="M301.9,562.8c25.2-2.2,24.5,44.6,9.4,21.3c-1.3-6.9-5.2-10.3-10.9-9.3c-4.9,0.9-7.4,4.6-8.5,9.1
			C275.8,604.1,277.6,560.7,301.9,562.8z"/>
		<path class="st5" d="M155.5,98.7c-24.1,2.5-29.4-42.9-5.4-14.7c6.7,4.3,13.6,0.6,16.8-5.9C189.7,65.1,173.5,103.5,155.5,98.7z"/>
		<path class="st13" d="M730.5,196.6c3.1,9.7-13.6,18.7-12.2,4.9c1.1-3.4,1.7-7-0.6-10.3c-6.7-11.3-16.8,4.6-24.3,0
			C687.5,167.5,734.7,171.3,730.5,196.6z"/>
		<path class="st6" d="M261.6,419.2c-9.4,49-67.1-4-32.6,3.9c8.3,7.5,17.6,6,20.9-3.4C249.8,410.4,262.8,408.9,261.6,419.2z"/>
		<path class="st2" d="M519.8,383.8c-2.2-10.4,10.9-33.8,14-13.1c-4.3,12.2-2.1,24.7,9.5,31.8C548.6,427.9,514.9,397.6,519.8,383.8z
			"/>
		<path class="st1" d="M782.5,389.6c-11.6,2.6-22.3-22.8-4.6-18c7.2,4.1,11.1-10.3,18.1-8.4C809.5,370.1,796.5,390.7,782.5,389.6z"
			/>
		<path class="st3" d="M896.6,535.6c-1.6,14.7-8.6,3.2-14.2,9.5c-16.4,10-22.9-18.3-0.1-8.8c6.1-1-1.3-7.5-4.5-7.2
			C857.1,516.2,895.1,511.2,896.6,535.6z"/>
		<path class="st11" d="M177.4,497.9c8.2,7.3,21.7,2.4,18,8.4c-5.3,9.6,17.8,26.6,1.5,33c-9.6-3-5-22.6-19.4-28.8
			C172.1,508,170.2,498.7,177.4,497.9z"/>
		<path class="st10" d="M48.8,500.2c-1.2,18.2-22.9,10.9-27.2-1.5c-3.9-6.9,5.8-12.6,9.6-5.6c2.8,5.9,8.9,8,3.6-0.2
			C32.3,476.5,50.5,491.4,48.8,500.2z"/>
		<path class="st3" d="M633.7,291c1.7,6.7-9.6,8.4-10,1.2c-0.7-2.9-2-5.5-5.5-5.6c-6.7,0.4-8.9,20.5-16.3,6.6
			C599.6,272.3,633.6,267.5,633.7,291z"/>
		<path class="st3" d="M269.1,74.4c-0.1-16.7,23.2-15.9,23.2,0C292.3,89.8,268.6,90.9,269.1,74.4z"/>
		<path class="st1" d="M383,13.8c10.2,1.3,33.3,4.5,30.3,17.8c-9.4,6.4-20.7-11-33-6.8C372.6,23.8,376.1,12.2,383,13.8z"/>
		<path class="st1" d="M166.2,553.6c2.4,8.6-8.6,19.1-11.5,7.6c1.2-8.6-0.7-16.6-3.6-24.6C155.2,515.7,168,544.8,166.2,553.6z"/>
		<path class="st9" d="M819.7,287.2c0.4-11.7,17.4-17.2,20.3-3.2C837,299.5,823.1,310.2,819.7,287.2z"/>
		<path class="st13" d="M285,375.9c8.3-0.6,13.5,16.3,2,14.2c-5.9-1.2-1.8,9.8-9.3,8.8C264.5,396.4,272.8,374.1,285,375.9z"/>
		<path class="st13" d="M689.5,376.4c0,8.9-9.3,29.6-16.6,13.7c-3-6.6,6-8.5,4.9-13.4C672.1,361.9,691.8,360.9,689.5,376.4z"/>
		<path class="st2" d="M543.7,373.9c-1.8-9.1,12.7-20.1,12.2-5.4c-6.4,9.5,8.1,14.9,3.4,22.8C551,398.8,543.4,383.1,543.7,373.9z"/>
		<path class="st1" d="M383.2,33.5c8.4,0.4,27.8,7.8,21.7,18.3c-8,5.2-13.1-10.4-22.9-7.7C373.9,44.8,375.5,32,383.2,33.5z"/>
		<path class="st13" d="M152.7,290.4c0.5,12.3-19,12-18.1-0.5C134.7,277,153.1,276.8,152.7,290.4z"/>
		<path class="st1" d="M796.8,129.6c-7.5-0.5-25.2-9.3-17-18.4c8-4.4,9.7,10.6,18.9,8.3C806.2,119.3,804.2,130.8,796.8,129.6z"/>
		<path class="st5" d="M414.9,147.3c0,12.2-18.3,12.5-18.4,0.1C396.7,134.4,414.9,134.8,414.9,147.3z"/>
		<path class="st9" d="M685.1,530.8c0.3,13-18.1,12.2-17.2-0.7C667.6,518.9,686.3,518.5,685.1,530.8z"/>
		<path class="st10" d="M365.9,523.5c0.5-11.6,16.7-10.3,16.3,0.8C381.8,535.7,365.2,534.7,365.9,523.5z"/>
		<path class="st5" d="M709.2,25.2c0.4,5.8-4.6,7.8-7.1,12.2C678,52.6,702.2,3.7,709.2,25.2z"/>
		<path class="st6" d="M518.1,332.7c-10.4,31.1-18.9-33.2-1.8-11.8C517.1,324.8,517.5,328.8,518.1,332.7z"/>
		<path class="st1" d="M504.9,78.7c-0.7-11.5,16.8-10.8,16.2,0.1C521,89.7,504.6,90.5,504.9,78.7z"/>
		<path class="st10" d="M716.2,54.7c-14.1-0.9,2.2-22.3,9.6-17.9C733.5,43.1,721.5,52,716.2,54.7z"/>
		<path class="st1" d="M141.5,188.6c-0.3,4.2-2.3,7.9-4.4,11.4C116.7,210.8,135.3,166,141.5,188.6z"/>
		<path class="st1" d="M831.4,437.5c-9-0.2-8.5-16.5,1.1-16C843.2,422.3,841.5,438.3,831.4,437.5z"/>
		<path class="st13" d="M296.4,133c8.7-1.2,10.1,19.6,3.2,19.1C291.3,153.9,289.1,134.1,296.4,133z"/>
		<path class="st13" d="M292.5,120.2c-1.1-15,13.7-8.1,11.1,3.6C303.2,135,289.7,130.1,292.5,120.2z"/>
		<path class="st2" d="M24.8,264.3c-9.4-0.1-8-15.9,0.7-15.5C35.4,248.8,33.8,264.6,24.8,264.3z"/>
		<path class="st1" d="M163.6,189.8c-0.4,3.8-2.2,6.9-4.8,9.6C138.9,207.3,159.7,166.8,163.6,189.8z"/>
		<path class="st13" d="M709.9,371.2c1.8,8.3-8.9,17.5-11.9,7C694.8,368.5,708,357.2,709.9,371.2z"/>
		<path class="st11" d="M577,447.2c-0.1-9.9,13.1-14.9,13.7-3C591.1,453.6,577.1,458.7,577,447.2z"/>
		<path class="st13" d="M260.3,257c-0.3,7-10.4,11.3-16.3,8.7C234.8,258.1,258.8,247.3,260.3,257z"/>
		<path class="st11" d="M565.9,434.4c-0.1,5.3-3.6,9.2-8.2,9.1C541.9,439.6,564.4,415.2,565.9,434.4z"/>
		<path class="st4" d="M195.5,463.4c-9.5,0.5-8.8-15.4,0.3-14.7C205.2,448.5,205.7,463.8,195.5,463.4z"/>
		<path class="st13" d="M260,284.2c-15.8-2.6,6.7-20.4,12-10.8C275.4,280.7,264.7,282.9,260,284.2z"/>
		<path class="st6" d="M103,50.6c0.5-14.2,14.7-6.2,11.2,4.6C111.9,65.2,101,59,103,50.6z"/>
		<path class="st6" d="M124.2,46.4c-0.5-17.1,14.2-5.9,10.7,5.3C131.8,61.1,122.2,53.4,124.2,46.4z"/>
		<path class="st11" d="M553.4,471c-10.6,0.2-4-16.8,2.7-16.2C565.1,455.8,561.3,471.8,553.4,471z"/>
		<path class="st0" d="M731.4,371.7c0.1-10,13.9-9.3,14.4-0.4C745.7,380.8,730.8,382.1,731.4,371.7z"/>
		<path class="st0" d="M723.6,503.2c0.5,9.8-13.5,10.6-14.5,1.3C708.3,495,723.8,494,723.6,503.2z"/>
		<path class="st5" d="M29.2,298.5c0.8,9.8-13.2,11.9-13.8,1.9C14.7,290.6,28.9,288.1,29.2,298.5z"/>
		<path class="st8" d="M884.9,427.8c0.8-10.7,15.2-7.4,14.6,1.6C897.5,437.6,884.6,437.3,884.9,427.8z"/>
		<path class="st13" d="M723.6,465.9c-0.3-9.4,14.8-9.2,13.9,0.4C737.4,475.6,723,475.9,723.6,465.9z"/>
		<path class="st3" d="M818.9,202.5c0,3.3-3.6,8.8-6.5,9.9C796,213,815.4,181.6,818.9,202.5z"/>
		<path class="st11" d="M570.2,479c-0.5-9.4,13.1-14.3,12.9-2.7C583.1,484.9,570.2,490.2,570.2,479z"/>
		<path class="st11" d="M189.5,490.5c2-20.3,22,5.5,6.3,8.8C190.9,499.4,189.1,494.4,189.5,490.5z"/>
		<path class="st6" d="M486.2,335.1c-2.3-9,10.1-12.6,10.3-1.4C499.5,345.9,484,348.3,486.2,335.1z"/>
		<path class="st9" d="M617.3,100.8c-0.5-9.7,14.1-9.6,13.7-0.1C631.5,110.3,616.9,110.5,617.3,100.8z"/>
		<path class="st13" d="M487.8,447.3c-0.3-10.8,13.7-9.7,13.7-0.1C501.6,455.5,486.8,456.9,487.8,447.3z"/>
		<path class="st3" d="M819.7,171.9c6.7-4.1,14.7,0.2,10,8C824.1,192.2,813,181.2,819.7,171.9z"/>
		<path class="st3" d="M457.5,224.7c-10.4,0-8.6-12.8,0.7-12.8C468.6,211.5,467.4,225.3,457.5,224.7z"/>
		<path class="st13" d="M464.6,446.8c-0.6-9.9,13.5-10.1,13-0.5C478.3,455.7,464,456.7,464.6,446.8z"/>
		<path class="st2" d="M54.8,409c0-9.7,13.4-8.9,13.5,0.4C68.3,417.7,53.8,418.7,54.8,409z"/>
		<path class="st9" d="M624.8,82.5c-9.6,0.7-8.2-14.6,0.5-13.8C634.1,68.7,633.9,83,624.8,82.5z"/>
		<path class="st8" d="M183,312.4c-9,0.2-8-14.8,1.2-13.8C192.6,298.9,192.1,313.1,183,312.4z"/>
		<path class="st2" d="M108.8,569.8c-9.3,0.3-7.7-14.7,0.4-14.6C117.6,555.1,117.2,570,108.8,569.8z"/>
		<path class="st6" d="M368.6,297.4c1,6.3-10.3,13.7-11.8,4C355.1,292.7,369,283.9,368.6,297.4z"/>
		<path class="st13" d="M29,116.9c-0.1,8.3-12.2,10.1-12.7,1C15.9,108.4,28.8,107.1,29,116.9z"/>
		<path class="st3" d="M49.6,95.6c-0.2,8.2-12.1,10.1-12.7,1.1C36.6,87.1,49.4,85.4,49.6,95.6z"/>
		<path class="st5" d="M133.2,560.3c-9.2,0.6-7.3-13.8,0.6-13.6C141.5,546.8,142,561.2,133.2,560.3z"/>
		<path class="st2" d="M135.5,578.8c0.5,8.9-12.3,9.8-12,0.9C123.5,570.2,135.6,568.4,135.5,578.8z"/>
		<path class="st15" d="M439.8,238.9c-0.3-9.5,13.2-9.3,12.8,0.2C452.5,247.1,439.1,247.7,439.8,238.9z"/>
		<path class="st11" d="M26.2,92.4c-0.2,8.3-12.6,9.7-12.5,0.4C13.7,83.3,25.7,82.8,26.2,92.4z"/>
		<path class="st15" d="M467.9,245.4c-9,0.3-6.3-14.4,0.7-13.7C476.9,231.8,476.7,245.7,467.9,245.4z"/>
		<path class="st13" d="M51.4,122.3c0.4,9.1-12.2,9.7-11.9,0.8C39.9,114.2,51.4,112.2,51.4,122.3z"/>
		<path class="st3" d="M659.3,242.5c0.5,15.6-15,3.7-8.2-6C655.3,229.1,660.7,237.3,659.3,242.5z"/>
		<path class="st14" d="M378.4,284.9c-0.5-8.4,10.9-12.6,11.6-2.7C390.6,290.8,379.4,294.1,378.4,284.9z"/>
		<path class="st14" d="M790.2,141c0.5,8.4-12.8,6.9-12.5-0.5C777.9,131.4,789.8,133.9,790.2,141z"/>
		<path class="st3" d="M643.1,241.8c0.8,12.5-10.6,9.9-9.2-0.3C633.1,232.1,645.2,232.9,643.1,241.8z"/>
		<path class="st3" d="M675.6,241.1c0.2,4.4,0.2,7.6-4.2,8.5C657.6,248,673.8,222.6,675.6,241.1z"/>
		<path class="st14" d="M382.6,315.8c-8.5,3.3-6.5-12.5-0.1-13.2C392.5,301.5,382.7,311.2,382.6,315.8z"/>
		<path class="st0" d="M819.7,171.9c-2.1,7.6-11.4,2-6.8-4.6C815.6,168.1,818.4,168.9,819.7,171.9z"/>
		<path class="st15" d="M382.6,315.8c0.7-3.7,2.3-6.9,4.8-9.7C388.5,312.3,387.6,314.3,382.6,315.8z"/>
		<path class="st7" d="M321.5,444.2c0.1-1.9-0.5-4.3,2.7-4C336.3,439.7,320.3,458.4,321.5,444.2z"/>
	</g>
</g>
<radialGradient id="SVGID_1_" cx="445.2354" cy="287.951" r="439.61" gradientUnits="userSpaceOnUse">
	<stop  offset="8.205130e-03" style="stop-color:#FFFFFF"/>
	<stop  offset="0.8598" style="stop-color:#FFFFFF;stop-opacity:0.1413"/>
	<stop  offset="1" style="stop-color:#FFFFFF;stop-opacity:0"/>
</radialGradient>
<rect x="0.8" class="st16" width="908.1" height="607.2"/>
</svg>
