<?xml version="1.0" encoding="utf-8"?>
<!-- Generator: Adobe Illustrator 27.9.1, SVG Export Plug-In . SVG Version: 6.00 Build 0)  -->
<svg version="1.1" id="Layer_1" xmlns="http://www.w3.org/2000/svg" xmlns:xlink="http://www.w3.org/1999/xlink" x="0px" y="0px"
	 viewBox="0 0 500 500" style="enable-background:new 0 0 500 500;" xml:space="preserve">
<style type="text/css">
	.st0{fill:#5593CE;}
	.st1{fill:#F58A21;}
	.st2{fill:#FCFBFB;}
	.st3{fill:#FECF3F;}
	.st4{fill:#F37769;}
	.st5{fill:#3E2A15;}
	.st6{fill:#FBBC1F;}
	.st7{fill:#FED653;}
	.st8{fill:#473219;}
	.st9{fill:#F69B84;}
	.st10{fill:#77D1F3;}
	.st11{fill:#61A143;}
	.st12{fill:#84C2EA;}
	.st13{fill:#F59892;}
	.st14{fill:#412F19;}
	.st15{fill:#FCFBFA;}
	.st16{fill:#E45E39;}
	.st17{fill:#C45234;}
	.st18{fill:#C45235;}
	.st19{fill:#F26C57;}
	.st20{fill:#382917;}
	.st21{fill:#FDFCFB;}
	.st22{fill:#EC8524;}
	.st23{fill:#F8B032;}
	.st24{fill:#F59B28;}
	.st25{fill:#F5856B;}
	.st26{fill:#3C2916;}
	.st27{fill:#FBFAF9;}
	.st28{fill:#67BDC6;}
	.st29{fill:#B1DFE5;}
	.st30{fill:#9DD5DD;}
	.st31{fill:#8BCBD5;}
	.st32{fill:#152732;}
	.st33{fill:#215D6B;}
	.st34{fill:#4C74B9;}
	.st35{fill:#7DA9DA;}
	.st36{fill:#121D2B;}
	.st37{fill:#8C9CCF;}
	.st38{fill:#F3F2F3;}
	.st39{fill:#B54C33;}
	.st40{fill:#D67140;}
	.st41{fill:#E88F53;}
	.st42{fill:#F8AD71;}
	.st43{fill:#28201B;}
	.st44{fill:#FCC330;}
	.st45{fill:#FDDC65;}
	.st46{fill:#F7A280;}
	.st47{fill:#4B331B;}
	.st48{fill:#EFD1B6;}
	.st49{fill:#F8E1C7;}
	.st50{fill:#C4A998;}
	.st51{fill:#B8A395;}
	.st52{fill:#8F7A6F;}
	.st53{fill:#162430;}
	.st54{fill:#FFFFFF;}
	.st55{fill:#939696;}
	.st56{fill:#FDFCFC;}
	.st57{fill:#B7B8B8;}
	.st58{fill:#929595;}
	.st59{fill:#F7F5F4;}
	.st60{fill:#939595;}
	.st61{fill:#949697;}
	.st62{fill:#D9D9D9;}
	.st63{fill:#261D12;}
	.st64{fill:#251E14;}
	.st65{fill:#F07F7D;}
	.st66{fill:#F3F1F0;}
	.st67{fill:#F0EEED;}
	.st68{fill:#F58E4E;}
	.st69{fill:#F8AE5E;}
	.st70{fill:#F9E1C0;}
	.st71{fill:#FAC087;}
	.st72{fill:#3C2613;}
	.st73{fill:#FBF9F9;}
</style>
<g>
	<path id="silhouette_00000022526818060241474240000013940856064591789975_" class="st68" d="M450.1,499.9
		C391,493.6,345,456,298.8,423c-23.3,3.8-46.2,4.1-69.1,0C137.5,407.8,66.9,320.9,66.1,227.2c-0.3-15,2.1-34.2,6.8-50.5
		C49.7,141.9,20,96.5,10.5,53.8C-0.9,5.9,35.5-10,74.7,6c33.1,12.5,61,32.7,88.6,53.6c81.4-51,197.6-28.3,257.4,45.3
		c54.7,62.6,57.4,163.6,10.5,231.6C459.8,375.6,533.6,491.8,450.1,499.9z M377.3,393.3c20.2,8.5,26.4,10.7,17-13.4
		C388.7,384.9,383.1,389.1,377.3,393.3z M106.6,89.9c-0.9,4.7,1.5,11.9,3.1,16.5c3.7-4.4,7.8-9,12-13.2
		C117.3,91.5,111.4,88.9,106.6,89.9z"/>
	<g>
		<path class="st7" d="M473.3,435c-2.9-9.6-6.8-18.9-11.1-28c-9.8-20.5-22-39.5-35.1-58.1c-2.8-4-5.4-8.1-8.7-11.7
			c1.3-2,2.5-4,3.8-6c5.2-6.9,9.1-14.5,12.8-22.2c0.8-1.7,2.1-3.2,2.1-5.3c0.6-1.2,1.2-2.3,1.8-3.5c6.5-15.1,10.7-30.9,13.1-47.2
			c1.6-10.3,2.4-20.7,1.6-31.2c0.4-0.7,0.3-1.5,0.3-2.3c-0.5-15.5-3.2-30.8-7.5-45.7c-0.2-0.7-0.6-1.2-0.9-1.9
			c-1.1-5.5-3.4-10.6-5.6-15.6c-1.5-3.4-2.6-7-4.9-9.9c-0.2-0.5-0.2-1-0.5-1.5c-5.5-12.3-13.5-23-22-33.3
			C399.9,96,385,83,367.9,72.5c-9.8-6.1-20.1-11.2-30.8-15.5c-4.7-1.9-9.4-4.1-14.5-4.9c-9.2-3.3-18.6-5.6-28.2-6.9
			c-13.2-2.4-26.5-3.3-39.9-2.4c-22.4,0.6-43.7,5.6-64.1,14.3c-9.7,4.2-18.8,9.6-27.7,15.1c-7.1-5.4-14.1-10.9-21.4-16.1
			c-7.5-5.4-15-10.9-22.9-15.8C103.2,31,88.1,21.7,71.2,15.8c-10.5-3.7-21.2-6.4-32.5-5C29.3,12,22,18.5,20,27.7
			c-1.7,8-1.2,15.9,0.6,23.8c3.4,15.4,9.2,29.9,16,44.2c8.8,18.3,19.2,35.6,30.1,52.7c5.8,9,11.8,17.9,17.7,26.9c0,0,0,0,0,0
			c-2.4,6.2-3.7,12.6-4.8,19.1c-0.2,0.7-0.5,1.3-0.6,2c-1.6,10.2-2.7,20.4-2.5,30.7c0.2,9,0.6,17.9,2.6,26.8c0,0.3-0.1,0.7,0.4,0.9
			c-0.7,1.7,0.1,3.3,0.4,4.8c3.3,16.6,8.5,32.6,15.8,47.9c14.1,29.5,34,54.2,60.8,73.4c22.7,16.3,47.7,27.1,75.2,32
			c23.3,4.1,46.4,3.5,69.5-0.7c0.8,0.5,1.8,0.9,2.5,1.5c7.6,5.9,15.4,11.6,23.2,17.3c9.3,6.7,18.7,13.4,28.5,19.4
			c16.6,10.2,33.4,20.2,51.4,27.9c11.1,4.7,22.4,8.8,34.3,10.7c7.5,1.2,15.1,1.3,22.2-1.6c9.4-3.8,13.4-11.6,14.4-21.2
			C478.6,455.3,476.4,445.1,473.3,435z M124.4,105.3c-0.6,0.6-1.1,1.4-1.6,2.1c0.2,0.4,0.5,0.9,0.7,1.4c-0.2-0.5-0.4-0.9-0.7-1.4v0
			c0,0,0,0,0,0c-3.9,3.7-6.9,8-10.1,12.2c-1.7,2.3-3.3,4.7-4.9,7c0.2,0.6,0.4,1.2,0.6,1.8c-0.2-0.6-0.4-1.2-0.6-1.8
			c-2.5-2.8-3.4-6.3-4.9-9.6c-3.2-7.3-5.9-14.7-6.8-22.7c-1.3-11.9,6.1-16.7,17-14.7c9.4,1.7,17.7,5.9,25.8,10.9
			C134,95.5,129.2,100.4,124.4,105.3z M391.3,409c-6.7-1-12.8-3.8-19-6.6c-5.3-2.4-10.1-5.4-15.2-8.3c-2.9-1.8-5.8-3.5-8.8-5.3
			c-6.5-3.8-12.7-8.1-18.7-12.5c6.1,4.4,12.3,8.7,18.7,12.5c1.3-1,2.7-0.6,4-0.3c-1.3-0.3-2.7-0.7-4,0.3c2.9,1.8,5.8,3.5,8.8,5.3
			c1.7-1.6,4-2.2,5.6-3.9c4.3-1.9,7.8-4.9,11.6-7.6c8.1-5.8,15.6-12.4,22.6-19.5c1.6,0.9,2.2,2.5,2.9,4c4.1,8.2,7.4,16.6,8.8,25.6
			C410.7,406,403.4,410.9,391.3,409z"/>
		<g>
			<g>
				<path class="st69" d="M453.7,221.8c0.9,10.5,0,20.8-1.6,31.2c-2.5,16.3-6.6,32.1-13.1,47.2c-0.5,1.2-1.2,2.3-1.8,3.5
					c-0.8-0.6-1.8-0.7-2.8-0.6c-8.4,0.1-16.7-0.7-25.1-1.8c-12.9-1.7-25.5-4.7-38-8.5c-7.6-2.3-15-5.1-22.4-8
					c-6.8-2.7-13.4-5.9-20.1-9c-1-0.5-1.8-1.2-2-2.3c0.4-0.9,0.8-1.8,1.1-2.7c2.8-7.4,0.7-15.6-5.3-20.6c-6-5-14.3-5.7-21.1-1.7
					c-3.2,1.9-5.4,4.7-7.3,7.8c-6.8-3.9-13.4-8.2-19.7-12.8c-1.5-1.1-2.6-1-3.8,0.2c1.4-2.1,1.6-4-0.6-5.8
					c-7.7-6.5-15.4-12.9-23.1-19.5c-1.6-1.4-3.3-2.1-5.3-1.3c-2.1-1.8-4.2-3.4-6.3-5.3c-5.3-4.8-10.6-9.7-16-14.6
					c1.3-0.9,2.7-1.7,3.8-2.8c6.6-5.6,8.1-14.9,3.8-22.6c-4.1-7.4-13.1-11-21.3-8.5c-4.6,1.4-7.9,4.4-10.6,8.3
					c-0.9-0.6-1.8-1.1-2.5-2c-3.5-4.4-7.2-8.7-10.6-13.2c-8.3-10.8-15.9-22.1-22.7-33.9c-5.6-9.7-10.3-19.7-14.2-30.1
					c-0.6-1.7-0.9-3.6-2.3-5c2.3-2.1,4.7-4.2,7-6.3c2.5-1.9,5.2-3.6,7.4-5.8c2-0.6,3.7-1.7,5.1-3.3c9-5.5,18-10.9,27.7-15.1
					c20.4-8.7,41.8-13.7,64.1-14.3c-1,2.1-1.1,4.4-1.2,6.7c-0.4,11.6,4.3,21.8,9.4,31.8c4.2,8.2,9.3,15.8,14.7,23.3
					c8.4,11.7,17.6,22.6,27.7,32.9c15,15.3,30.9,29.4,48.3,42c9.2,6.6,18.7,12.8,28.3,18.7c9.5,5.7,19.6,10.6,30,14.7
					c10.1,3.9,20.4,7.1,31.2,8.3C446.5,221.4,450.1,221.6,453.7,221.8z"/>
				<path class="st70" d="M162.6,72.2c-1.4,1.6-3,2.7-5.1,3.3c-1.4-2.5-4.1-3.5-6.2-5.2c-7.6-6.1-15.7-11.5-23.9-16.7
					c-12.4-7.8-24.9-15.4-38.8-20.3c-8.6-3.1-17.2-5.4-26.4-4.4c-8.9,0.9-14.8,5.7-17.2,14.3c-2.1,7.9-0.9,15.7,1,23.4
					C50,82.3,56.7,97,64,111.4c7.4,14.6,15.7,28.7,24.5,42.5c8.4,13.1,17.2,26,26.4,38.6c7.5,10.3,15,20.6,22.7,30.7
					c8.1,10.6,16.6,20.9,25.2,31.2c11.9,14.2,24.1,28.1,36.7,41.6c7.4,7.9,14.8,15.7,22.4,23.4c10.2,10.5,20.8,20.7,31.6,30.6
					c11.7,10.7,23.5,21.4,35.8,31.6c7.8,6.5,15.8,12.7,23.8,19c7.4,5.9,15.2,11.2,23,16.6c10.4,7.3,21,14.2,31.8,20.8
					c9.8,6,20.2,11.1,30.8,15.6c10.7,4.6,21.6,8,33.3,8.3c13.4,0.3,22.2-6.3,23.7-18.7c0.8-6.6-0.2-13-1.7-19.3
					c-2.8-12.2-7.8-23.7-13.3-35.1c-5.9-12.2-12.7-23.9-19.8-35.4c-2.2-3.5-3.9-7.3-6.9-10.4c1.3-2.2,2.8-4.1,4.5-6
					c3.3,3.6,5.9,7.8,8.7,11.7c13.1,18.5,25.3,37.6,35.1,58.1c4.3,9.1,8.2,18.4,11.1,28c3.1,10.1,5.3,20.3,4.3,30.9
					c-0.9,9.6-5,17.4-14.4,21.2c-7.1,2.9-14.7,2.9-22.2,1.6c-11.9-1.9-23.2-6-34.3-10.7c-18.1-7.6-34.8-17.7-51.4-27.9
					c-9.8-6-19.2-12.7-28.5-19.4c-7.8-5.6-15.6-11.3-23.2-17.3c-0.8-0.6-1.7-1-2.5-1.5c-0.1-1.2-1.2-1.7-2-2.3
					c-8.2-6.3-16.2-12.9-24.1-19.6c-4.8-4.1-9.7-8.2-14.6-12.3c-0.2-0.3-0.4-0.8-0.8-1c-5.9-5.4-11.9-10.8-17.7-16.2
					c-8.7-8.1-17.3-16.4-25.6-24.9c-15.3-15.4-30.2-31.2-44.6-47.4c-27-30.4-51.6-62.6-75-95.8c-4.1-5.8-7.7-11.9-12.3-17.3
					c-5.9-8.9-11.9-17.8-17.7-26.9c-10.9-17.1-21.3-34.4-30.1-52.7c-6.8-14.2-12.6-28.8-16-44.2c-1.8-7.9-2.3-15.8-0.6-23.8
					c2-9.2,9.4-15.7,18.8-16.9c11.3-1.4,22,1.3,32.5,5c16.9,5.9,32,15.2,47.1,24.5c7.9,4.8,15.4,10.3,22.9,15.8
					C148.5,61.3,155.5,66.8,162.6,72.2z"/>
				<path class="st69" d="M418.4,337.2c-1.6,1.9-3.2,3.9-4.5,6c-2.3,2.6-4.5,5.3-6.5,8.2c-3.7,3.8-7.2,7.6-10.5,11.8
					c-7,7.1-14.5,13.6-22.6,19.5c-3.7,2.7-7.3,5.7-11.6,7.6c-2.9-1.2-6-1.2-9-1.4c-1.7-0.1-3.6-1.3-5.3,0.1
					c-8.7-5.1-16.7-11-24.8-16.9c-13.5-9.8-26.4-20.4-39-31.3c-26.1-22.7-50.8-46.8-73.8-72.5c-20.1-22.4-39.4-45.4-57.4-69.5
					c-14.1-18.9-27.5-38.3-39.1-58.9c-2.4-4.3-5.2-8.5-6.5-13.3c1.6-2.3,3.2-4.7,4.9-7c3.2-4.2,6.2-8.5,10.1-12.2
					c1.2,2.3,2.1,4.7,3,7c5.2,12.7,11.2,25.1,17.9,37.2c9.7,17.5,21.2,33.7,33.3,49.5c11.7,15.2,24.8,29.3,39,42.3
					c10.1,9.3,20.7,18.2,31.7,26.4c7.1,5.4,14.5,10.5,22,15.3c9.2,5.8,18.6,11.5,28.6,16c2.6,1.2,4.9,3.2,7.9,3.6
					c0.9,0.5,1.7,1,2.6,1.5c0.6,0.3,1.1,0.8,1.8,0.4l0,0c4,2.1,8.2,3.8,12.3,5.4c13.1,5.2,26.4,9.4,40.2,12.5
					c16.1,3.7,32.4,5.9,48.8,6.2c3.4,0.1,6.9-0.6,10.3,0.4C421,333.2,419.7,335.2,418.4,337.2z"/>
				<path class="st68" d="M453.7,221.8c-3.6-0.3-7.2-0.4-10.8-0.8c-10.8-1.2-21-4.4-31.2-8.3c-10.4-4-20.5-8.9-30-14.7
					c-9.7-5.8-19.2-12-28.3-18.7c-17.4-12.6-33.4-26.7-48.3-42c-10-10.2-19.3-21.2-27.7-32.9c-5.4-7.5-10.5-15.1-14.7-23.3
					c-5.1-10-9.8-20.2-9.4-31.8c0.1-2.3,0.2-4.5,1.2-6.7c13.4-0.9,26.7,0,39.9,2.4c0.3,3.9,0.4,7.9,1.7,11.7
					c2.4,6.8,5.8,13.1,9.7,19.1c10.7,16.5,23.8,31,38.2,44.4c11.2,10.4,22.9,20,35.7,28.4c11.2,7.3,22.8,14.2,35.4,18.9
					c7.5,2.8,15.1,5.2,23.1,5.5c2.5,0.1,5.1,0.5,7.3-1.1c0.3,0.6,0.7,1.2,0.9,1.9c4.4,15,7,30.2,7.5,45.7
					C454,220.3,454.1,221.1,453.7,221.8z"/>
				<path class="st68" d="M260.4,377.9c4.9,4.1,9.7,8.2,14.6,12.3c7.9,6.7,15.9,13.3,24.1,19.6c0.8,0.6,1.9,1,2,2.3
					c-23.1,4.2-46.2,4.9-69.5,0.7c-27.5-4.9-52.5-15.6-75.2-32c-26.7-19.2-46.6-44-60.8-73.4c-7.3-15.3-12.5-31.3-15.8-47.9
					c-0.3-1.6-1.1-3.2-0.4-4.8c2.5,2.6,4.4,5.8,6.7,8.6c11,13.6,22.9,26.2,35.9,37.9c13.4,12.1,27.7,23.1,42.8,33
					c8.5,5.6,17.1,11.1,26.2,15.7c8.5,4.2,16.9,8.5,25.6,12.3c9.4,4.1,18.9,8,28.6,11.1C250.3,374.9,255.2,376.9,260.4,377.9z"/>
				<path class="st71" d="M260.4,377.9c-5.2-1-10.1-3-15.1-4.6c-9.8-3.1-19.2-7-28.6-11.1c-8.7-3.8-17.1-8.1-25.6-12.3
					c-9.2-4.6-17.7-10.1-26.2-15.7c-15.1-9.9-29.3-21-42.8-33c-13-11.7-25-24.3-35.9-37.9c-2.3-2.8-4.2-5.9-6.7-8.6c0,0,0,0,0,0
					c-0.1-0.3-0.3-0.6-0.4-0.9c-2-8.8-2.4-17.8-2.6-26.8c-0.2-10.3,0.9-20.5,2.5-30.7c0.1-0.7,0.4-1.3,0.6-2
					c0.5,0.3,0.9,0.8,1.2,1.3c3.9,6.5,7.8,13,11.9,19.5c5.2,8.2,10.8,16.2,16.7,24c10.5,14.1,22.1,27.2,34.4,39.7
					c10.6,10.8,21.8,21,33.6,30.4c6.8,5.4,13.7,10.6,20.8,15.5c3.6,2.5,7.6,4.5,11.1,7.3c2,1.6,4.2,3.2,6.9,3.7
					c8.3,8.5,16.9,16.7,25.6,24.9c5.9,5.5,11.8,10.8,17.7,16.2C259.9,377.1,260.1,377.5,260.4,377.9z"/>
				<path class="st71" d="M445.5,171.9c-2.2,1.6-4.9,1.3-7.3,1.1c-8-0.4-15.7-2.7-23.1-5.5c-12.6-4.8-24.2-11.6-35.4-18.9
					c-12.7-8.3-24.5-18-35.7-28.4c-14.4-13.4-27.5-27.9-38.2-44.4c-3.9-6-7.3-12.3-9.7-19.1c-1.4-3.8-1.5-7.7-1.7-11.7
					c9.6,1.3,19.1,3.7,28.2,6.9c-0.6,1.7-0.5,3.4,0,5.2c2.6,9.4,8.4,17.1,14.3,24.6c8.7,11.1,18.7,20.9,29.4,30.2
					c8.7,7.6,18.1,14.5,27.8,20.7c5.1,3.3,10.4,6.2,15.9,8.6c6,2.6,12.1,5.1,18.7,5.6c2.1,0.2,4.4,0.6,6.4-0.7
					c2.3,3,3.4,6.6,4.9,9.9C442.2,161.4,444.5,166.4,445.5,171.9z"/>
				<path class="st71" d="M422.2,331.2c-3.4-1-6.8-0.3-10.3-0.4c-16.5-0.4-32.7-2.5-48.8-6.2c-13.7-3.2-27.1-7.3-40.2-12.5
					c-4.2-1.7-8.4-3.3-12.3-5.4c0.5-0.3,1,0,1.5,0c7.3,0.8,13.3-4.9,11.2-12.9c-1.4-5.4-5.1-8.7-9.4-11.6c5.4-1.3,9.8-4,12.9-8.7
					c0.3,1.1,1,1.8,2,2.3c6.6,3.1,13.2,6.3,20.1,9c7.4,2.9,14.8,5.6,22.4,8c12.5,3.8,25.1,6.8,38,8.5c8.3,1.1,16.7,1.9,25.1,1.8
					c1,0,2,0,2.8,0.6c0,2-1.3,3.6-2.1,5.3C431.3,316.7,427.5,324.4,422.2,331.2z"/>
				<path class="st70" d="M435.1,146.4c-2,1.3-4.2,0.9-6.4,0.7c-6.6-0.6-12.7-3-18.7-5.6c-5.5-2.4-10.8-5.4-15.9-8.6
					c-9.8-6.3-19.1-13.1-27.8-20.7c-10.6-9.3-20.7-19.1-29.4-30.2c-5.9-7.5-11.7-15.2-14.3-24.6c-0.5-1.7-0.6-3.5,0-5.2
					c5.1,0.9,9.7,3,14.5,4.9c10.7,4.3,21,9.4,30.8,15.5c17.1,10.6,32,23.5,44.7,39.1c8.5,10.4,16.4,21.1,22,33.3
					C434.8,145.3,434.9,145.9,435.1,146.4z"/>
				<path class="st69" d="M216.3,335.8c-2.7-0.5-5-2.1-6.9-3.7c-3.5-2.8-7.4-4.8-11.1-7.3c-7.2-4.9-14-10.2-20.8-15.5
					c-11.9-9.4-23-19.6-33.6-30.4c-12.3-12.5-23.9-25.6-34.4-39.7c-5.8-7.8-11.4-15.8-16.7-24c-4.1-6.4-8-13-11.9-19.5
					c-0.3-0.6-0.7-1-1.2-1.3c1.1-6.5,2.4-13,4.8-19.1c4.5,5.5,8.2,11.6,12.3,17.3c23.4,33.2,48,65.4,75,95.8
					C186.1,304.6,200.9,320.4,216.3,335.8z"/>
				<path class="st68" d="M79.1,253.8c0.1,0.3,0.3,0.6,0.4,0.9C79,254.6,79.1,254.2,79.1,253.8z"/>
				<path class="st71" d="M407.4,351.4c2-2.9,4.2-5.6,6.5-8.2c2.9,3,4.7,6.9,6.9,10.4c7.1,11.5,14,23.2,19.8,35.4
					c5.4,11.3,10.4,22.8,13.3,35.1c1.5,6.4,2.5,12.8,1.7,19.3c-1.4,12.5-10.3,19.1-23.7,18.7c-11.7-0.3-22.6-3.8-33.3-8.3
					c-10.6-4.6-20.9-9.6-30.8-15.6c-10.8-6.6-21.4-13.5-31.8-20.8c-7.7-5.5-15.5-10.8-23-16.6c-8-6.3-16-12.5-23.8-19
					c-12.2-10.2-24-20.8-35.8-31.6c-10.8-9.9-21.4-20.1-31.6-30.6c-7.5-7.7-15-15.5-22.4-23.4c-12.7-13.5-24.8-27.4-36.7-41.6
					c-8.6-10.2-17.1-20.6-25.2-31.2c-7.7-10.1-15.2-20.4-22.7-30.7c-9.2-12.6-18-25.5-26.4-38.6C79.7,140.1,71.4,126,64,111.4
					C56.7,97,50,82.3,46.1,66.6c-1.9-7.7-3.1-15.6-1-23.4c2.3-8.6,8.2-13.4,17.2-14.3c9.2-0.9,17.9,1.4,26.4,4.4
					c13.9,5,26.4,12.6,38.8,20.3c8.2,5.2,16.3,10.6,23.9,16.7c2.1,1.7,4.8,2.6,6.2,5.2c-2.2,2.2-4.9,3.9-7.5,5.8
					c-5.6-3.9-11.1-7.9-16.8-11.6c-5.9-3.8-12.2-6.9-18.6-9.8c-7.4-3.3-15-6.1-23.2-5.8c-7.8,0.3-12.8,3.1-15.1,10.7
					c-2.1,6.9-0.8,13.8,0.7,20.5c2.7,11.7,7.5,22.8,12.6,33.6c6.5,13.6,14,26.8,21.9,39.7c6.4,10.5,13.3,20.5,20.1,30.6
					c3.6,5.3,7.3,10.4,11.1,15.5c11.5,15.3,23.2,30.4,35.6,45c14.9,17.8,30.5,35,46.7,51.6c13.1,13.5,26.6,26.7,40.7,39.2
					c17.6,15.6,35.6,30.7,54.7,44.4c10.4,7.4,21.1,14.3,31.7,21.3c4.3,2.8,8.9,5.1,13.5,7.5c6.5,3.3,12.8,6.8,19.6,9.4
					c9.1,3.6,18.3,6.6,28.2,6.5c10.7-0.1,17.5-6.9,17.2-17.5c-0.3-10.6-3.7-20.4-7.6-30.1C418.8,371.6,413.2,361.4,407.4,351.4z"/>
				<path class="st70" d="M407.4,351.4c5.8,10,11.3,20.2,15.7,30.9c3.9,9.6,7.3,19.5,7.6,30.1c0.3,10.6-6.5,17.4-17.2,17.5
					c-10,0.1-19.1-3-28.2-6.5c-6.8-2.6-13.1-6.1-19.6-9.4c-4.6-2.4-9.2-4.7-13.5-7.5c-10.6-7-21.4-13.8-31.7-21.3
					c-19.1-13.7-37.1-28.8-54.7-44.4c-14.1-12.5-27.5-25.7-40.7-39.2c-16.2-16.7-31.7-33.9-46.7-51.6c-12.3-14.6-24.1-29.7-35.6-45
					c-3.8-5.1-7.6-10.3-11.1-15.5c-6.9-10.1-13.8-20.2-20.1-30.6c-7.9-12.9-15.4-26.1-21.9-39.7c-5.2-10.8-10-21.9-12.6-33.6
					c-1.5-6.8-2.9-13.7-0.7-20.5c2.4-7.6,7.3-10.4,15.1-10.7c8.2-0.3,15.8,2.5,23.2,5.8c6.4,2.9,12.7,5.9,18.6,9.8
					c5.7,3.7,11.2,7.7,16.8,11.6c-2.3,2.1-4.7,4.2-7,6.3c-1.7,0.6-2.5,2.4-4.3,3c-8.1-4.9-16.4-9.1-25.8-10.9
					c-10.9-2-18.2,2.7-17,14.7c0.9,8,3.6,15.4,6.8,22.7c1.4,3.3,2.4,6.8,4.9,9.6c1.4,4.8,4.1,9,6.5,13.3
					c11.6,20.5,25,39.9,39.1,58.9c17.9,24.1,37.3,47.1,57.4,69.5c23.1,25.7,47.7,49.8,73.8,72.5c12.6,10.9,25.5,21.5,39,31.3
					c8.1,5.9,16.2,11.8,24.8,16.9c2.9,1.8,5.8,3.5,8.8,5.3c5,2.8,9.9,5.9,15.2,8.3c6.1,2.8,12.3,5.6,19,6.6
					c12.1,1.8,19.4-3.1,17.4-16.3c-1.4-9.1-4.7-17.5-8.8-25.6c-0.7-1.5-1.3-3.1-2.9-4C400.2,359,403.8,355.2,407.4,351.4z"/>
				<path class="st71" d="M138.8,90.5c1.7-0.6,2.5-2.4,4.3-3c1.3,1.4,1.6,3.3,2.3,5c3.8,10.5,8.6,20.5,14.2,30.1
					c6.8,11.8,14.4,23.1,22.7,33.9c3.4,4.5,7.1,8.8,10.6,13.2c0.7,0.9,1.6,1.4,2.5,2c0,0-0.1,0.1-0.1,0.1c-0.3,0.5-0.8,1-0.6,1.8
					c-0.8,2.1-1.3,4.2-1.6,6.4c-1,0.1-1.3-0.8-1.8-1.3c-2.4-2.3-4.9-4.3-8.2-5.1c-4.5-1.1-8.8-1-11.9,2.9c-2.9,3.7-2.9,7.8-0.9,12.1
					c1.9,4.1,5,7.1,9.1,8.9c5.5,2.5,12.9,2.5,16-4.6c0.2-0.6,0.7-1,1-1.5c6.4,7.7,13.7,9.5,23.4,5.9c5.3,4.9,10.6,9.8,16,14.6
					c2,1.8,4.2,3.5,6.3,5.3c-3.7,3.9-6.7,8.2-8,13.6c-0.1,0.9-0.3,1.7-0.4,2.6c-1.3,8,2.1,14.2,8.7,18.4c5.4,3.4,11.5,3.7,17.4,0.7
					c4.8-1.7,8.1-5.1,11.3-8.7c1.2-1.2,2.3-1.3,3.8-0.2c6.3,4.7,12.9,8.9,19.7,12.8c0,0.3,0,0.5-0.1,0.8
					c-3.4,10.2-0.6,17.7,8.7,23.4c0.3,0.9-0.5,0.9-0.9,1.2c-4.3,2.6-6,6.9-4.8,11.6c1.3,5.2,4.5,8.9,9.1,11.4
					c-3-0.4-5.3-2.4-7.9-3.6c-10-4.5-19.3-10.2-28.6-16c-7.6-4.7-14.9-9.9-22-15.3c-11-8.3-21.6-17.1-31.7-26.4
					c-14.2-13.1-27.3-27.1-39-42.3c-12.1-15.8-23.6-32.1-33.3-49.5c-6.7-12.1-12.7-24.4-17.9-37.2c-1-2.4-1.8-4.8-3-7
					c0.5-0.7,1-1.5,1.6-2.1C129.2,100.4,134,95.5,138.8,90.5z"/>
				<path class="st72" d="M302.9,280.5c-9.3-5.7-12.1-13.1-8.7-23.4c0.1-0.2,0.1-0.5,0.1-0.8c1.9-3.1,4.1-5.9,7.3-7.8
					c6.8-4,15.1-3.3,21.1,1.7c6,5,8.1,13.2,5.3,20.6c-0.3,0.9-0.7,1.8-1.1,2.7c-3.1,4.7-7.4,7.5-12.9,8.7
					C310.4,280.4,306.6,280.7,302.9,280.5z M313.7,250.4c-3.4-2-7.8-0.9-9.7,2.5c-2,3.5-0.9,8,2.5,9.9c3.5,2,7.8,0.8,9.8-2.8
					C318.3,256.6,317.1,252.4,313.7,250.4z"/>
				<path class="st72" d="M219.6,197.3c-9.7,3.6-17,1.7-23.4-5.9c-0.1-4-1.3-7.8-3.2-11.3c0.3-2.2,0.8-4.3,1.6-6.4
					c0.4-0.5,0.8-1,0.6-1.8c0,0,0.1-0.1,0.1-0.1c2.7-3.8,6-6.9,10.6-8.3c8.2-2.5,17.2,1.1,21.3,8.5c4.3,7.6,2.7,17-3.8,22.6
					C222.3,195.6,220.9,196.4,219.6,197.3z M207.1,179.8c3.3,1.9,7.7,0.8,9.7-2.6c2-3.3,0.7-7.9-2.7-9.9c-3.3-1.9-7.7-0.8-9.7,2.6
					C202.5,173.3,203.7,177.7,207.1,179.8z"/>
				<path class="st72" d="M233.8,230.8c1.3-5.3,4.4-9.6,8-13.6c2.1-0.7,3.7,0,5.3,1.3c7.7,6.5,15.4,13,23.1,19.5
					c2.2,1.8,2,3.7,0.6,5.8c-3.2,3.6-6.6,7-11.3,8.7c-1.6-8.5-6.1-14.8-13.7-19C242,231.3,237.9,231.2,233.8,230.8z"/>
				<path class="st68" d="M302.9,280.5c3.8,0.1,7.6-0.1,11.1,1.7c4.3,2.9,8,6.2,9.4,11.6c2.1,8-3.9,13.7-11.2,12.9
					c-0.5-0.1-1-0.4-1.5,0c0,0,0,0,0,0c-0.5-0.4-1.1-0.7-1.8-0.4c-0.9-0.5-1.7-1-2.6-1.5c-4.7-2.5-7.8-6.2-9.1-11.4
					c-1.2-4.8,0.5-9.1,4.8-11.6C302.4,281.5,303.2,281.4,302.9,280.5z"/>
				<path class="st71" d="M362.8,390.3c-1.5,1.8-3.9,2.4-5.6,3.9c-2.9-1.8-5.8-3.5-8.8-5.3c1.7-1.3,3.6-0.2,5.3-0.1
					C356.8,389,359.9,389,362.8,390.3z"/>
				<path class="st71" d="M308.9,306.2c0.7-0.3,1.2,0,1.8,0.4C309.9,307,309.4,306.5,308.9,306.2z"/>
				<path class="st68" d="M193,180.1c1.9,3.6,3.1,7.3,3.2,11.3c-0.3,0.5-0.7,1-1,1.5c-3.1,7.1-10.4,7.1-16,4.6
					c-4-1.8-7.1-4.8-9.1-8.9c-2-4.3-2-8.5,0.9-12.1c3.1-3.8,7.4-3.9,11.9-2.9c3.3,0.8,5.8,2.8,8.2,5.1
					C191.7,179.3,192,180.2,193,180.1z"/>
				<path class="st68" d="M233.8,230.8c4.1,0.4,8.2,0.5,12,2.6c7.6,4.2,12.1,10.6,13.7,19c-5.9,3-12,2.7-17.4-0.7
					c-6.6-4.2-10-10.3-8.7-18.4C233.5,232.5,233.7,231.6,233.8,230.8z"/>
				<path class="st69" d="M195.3,171.9c0.2,0.7-0.2,1.2-0.6,1.8C194.4,172.9,194.9,172.5,195.3,171.9z"/>
				<path class="st73" d="M313.7,250.4c3.4,2,4.6,6.2,2.7,9.6c-2,3.5-6.4,4.8-9.8,2.8c-3.4-2-4.6-6.5-2.5-9.9
					C305.9,249.5,310.2,248.5,313.7,250.4z"/>
				<path class="st73" d="M207.1,179.8c-3.5-2-4.7-6.5-2.7-9.9c2-3.4,6.4-4.5,9.7-2.6c3.4,2,4.7,6.6,2.7,9.9
					C214.8,180.5,210.4,181.7,207.1,179.8z"/>
			</g>
		</g>
		<path class="st68" d="M170.9,67.1c0,0-33.8,21.7-39.4,30.9s-9.8-4.8-9.8-4.8s36.8-30.9,43.9-34.9"/>
		<path class="st68" d="M422.2,331.2c0,0-24.8,31-30.5,37.1c-5.8,6,0,12.6,0,12.6s39.6-43.2,41.2-46.7"/>
	</g>
</g>
</svg>
