<?xml version="1.0" encoding="utf-8"?>
<!-- Generator: Adobe Illustrator 27.9.1, SVG Export Plug-In . SVG Version: 6.00 Build 0)  -->
<svg version="1.1" id="Layer_1" xmlns="http://www.w3.org/2000/svg" xmlns:xlink="http://www.w3.org/1999/xlink" x="0px" y="0px"
	 viewBox="0 0 500 500" style="enable-background:new 0 0 500 500;" xml:space="preserve">
<style type="text/css">
	.st0{fill:#5593CE;}
	.st1{fill:#77D1F3;}
	.st2{fill:#61A143;}
	.st3{fill:#84C2EA;}
	.st4{fill:#F59892;}
	.st5{fill:#412F19;}
	.st6{fill:#FCFBFA;}
</style>
<path class="st0" d="M497.3,235.7c-1.2-21.7-5.3-42.8-12.1-63.4c-9.6-29.3-24.1-56.1-42.7-80.7c-15.6-20.6-34-38.2-55.5-52.5
	C350.5,14.9,310.1,2.8,266.6,0.4c-13.1-0.7-26.1-0.4-39.2,0.8c-17.6,1.6-35,4.7-51.9,10c-42,13-77.9,35.8-107.7,68.2
	c-22.9,24.9-40,53.3-51.4,85.1C6.5,192.1,1.9,220.7,2.3,251c-0.3,15.2,1.1,31.1,3.9,46.9c5.4,30.6,16.3,59.2,32.5,85.7
	c19.4,31.6,45,57.2,76.5,76.8c39.4,24.5,82.3,37.5,128.6,39.4c13.5,0.6,27-0.3,40.4-2.2c26.5-3.6,51.9-11.2,75.9-23
	c19.9-9.8,38.4-21.6,54.8-36.7c6.3-5.8,12.7-11.4,18.6-17.7c17-18.4,30.8-38.9,41.2-61.8C492.5,319.4,499.6,278.5,497.3,235.7z"/>
<g>
	<g>
		<path class="st1" d="M486.9,219.7c-4.4,3.2-9.1,3-14.1,1.8c-1.7-0.4-3.5-1.1-5.2-1.2c-6.2-0.7-10.3,4.4-8.3,10.4
			c1.2,3.8,3.9,6.3,7,8.6c3.6,2.7,7.2,5.5,9.8,9.2c7.9,11.5,7,23.1,0.6,34.9c-2.2,4-5.1,7.4-7.9,10.9c-6.1,7.7-9.5,16.6-9.8,26.4
			c-0.5,13.9-3.1,27.2-9.2,39.8c-6.1,12.5-14,23.6-23.9,33.3c-6.9,6.8-13.9,13.6-22.4,18.6c-5.7,3.4-11.6,6.1-18.5,5.1
			c-6.8-1-11.9-6.4-13-13.2c-0.9-6.2,1.1-11.8,3-17.4c3.5-10.1,3.6-19.9-2-29.3c-1.7-2.9-3.8-5.5-5.6-8.3c-5-7.8-8-16.3-7.6-25.7
			c0.2-4,1.2-7.9,2.4-11.7c-9.1,3.6-18.4,4.2-27.7,0.8c-10.1-3.7-16.4-12.3-15.9-22.6c0.4-8.2,5-14.1,11.8-18.4
			c10.9-6.9,26.8-6.1,36.8,1.9c1.7,1.4,3.2,3.1,4.7,4.6c5.7-10.1,9.5-20.7,6.5-32.5c-2.1-8.5-7.6-14.2-15.2-18.3
			c-5.3-2.8-11.1-4.8-16.1-8.4c-5.8-4.2-10.2-9.4-12-16.5c-2.3-9.4,1.5-19.6,9.5-25.3c12.6-9,26-8.9,39.7-3
			c4.4,1.9,8.6,4.4,12.8,6.6c5,2.5,10.1,3.6,15.6,2c7.8-2.3,12.1-11.2,9.2-19.1c-2.9-7.8-11.6-11.3-19.1-7.7
			c-2.5,1.2-4.8,2.8-7.6,3.2c-6.6,0.8-10.9-2.5-14.1-7.8c-2-3.3-3.7-6.9-6.1-10c-9.4-12.2-22.6-9.2-30.2,0.8
			c-2.4,3.1-3.7,6.7-5.1,10.3c-3.5,9.6-13.2,14.9-23.3,13.3c-9.7-1.5-16.3-6.7-19.3-16.1c-1.2-3.6-1.3-7.4,0.1-11.1
			c1.9-4.9,5.7-7.4,10.8-8c1.6-0.2,3.1-0.4,4.5-0.9c3.7-1.2,5.8-4,6-7.8c0.1-1.6-0.1-3.3-0.4-4.9c-2.2-10.6,1.6-18.9,9.9-25.4
			c4.4-3.5,9.6-5.5,14.8-7.6c2.1-0.9,4.2-1.8,6-3.3c3.2-2.8,4.8-6.1,3.6-10.5c-1.2-4.5-1.9-9,0-13.5c2.7-6.4,7.9-9.6,14.6-10.5
			c4.5-0.6,8.9,0.1,13.3,1.3c1.1,0.3,2.2,0.5,3.3,0.7c-0.9-2.1-3-2.6-4.7-3.7c-14.6-9.6-30.3-17-46.7-22.7
			c-13.6-4.8-27.6-8-41.9-10.2c-9-1.4-18.1-2.4-27.2-2.7c-15.7-0.5-31.3,0.1-46.8,2.3c-13.9,2-27.5,5-40.9,9.2
			c-17.6,5.6-34.2,13.2-50,22.8c-8,4.9-15.9,10-23,16.1c3.4-0.6,6.6-1.7,10.1-1.6c3.7,0.1,7.2,1,10,3.4c4.9,4.2,10.3,4.4,16,2.2
			c6-2.3,11.7-5.5,17.8-7.6c10.3-3.5,20.6-4.5,31.2-1.3c12.9,3.9,23.1,15.8,24.4,29.1c0.9,9.1-2.9,16.3-9.8,21.9
			c-5.3,4.2-11.1,7.8-16.4,12c-6.3,5-11.1,11.1-12.4,19.4c-0.4,2.3-0.5,4.6-0.3,6.8c1,12.3-5.3,19.9-15.6,25
			c-6.6,3.3-13.8,5.2-20.3,8.6c-7.3,3.8-13.7,8.6-17.7,16c-1.6,3-2.5,6.2-2.8,9.6c-0.5,5.4-3.7,9.3-8.3,9.9
			c-2.5,0.3-4.8-0.4-6.7-1.9c-12.8-9.7-30.5-1.9-32.9,15.8c-0.8,6.1-0.1,11.9,3.7,17.1c2.9,4,6.9,5.8,11.7,6.1c1.1,0.1,2.3,0,3.4,0
			c9.2,0,14,5.9,12.2,14.9c-0.3,1.6-0.8,3.2-1,4.8c-1.2,6.8,2,13,8,15.5c3.6,1.5,7.2,1.1,10.8-0.1c3.5-1.1,6.9-2.7,10.6-2.6
			c7.4-16.1,29.3-18.5,41.9-12.3c9.7,4.8,15.3,14.9,13.4,25.1c-0.8,4.5-3.1,8.4-6.5,11.5c-0.6,0.6-1.1,1.2-1.7,1.7
			c3.6,4.3,8.8,6.1,13.7,8.4c12.3,5.6,20.9,14.6,24.1,27.9c2.9,12.3-0.4,23.4-7.4,33.7c-2.7,4-6.1,7.5-9.1,11.2
			c-5.2,6.4-9.2,13.4-8.6,22.1c0.4,5.8,2.4,11.1,5.2,16.2c1.8,3.3,3.8,6.5,5,10.1c3.9,11.3-2.8,21.4-14.8,22.3
			c-12.2,0.9-22.9-3.5-32.7-10.4c-12.2-8.7-18.9-21-22.3-35.3c-1.3-5.6-2.6-11.3-4.2-16.9c-3.3-11.5-10.1-20-20.5-25.7
			c-7.1-3.9-13.7-8.3-18.7-14.8c-9.2-12.1-10.4-25.2-4.7-39.1c1.6-3.9,4-7.6,4.9-11.7c2.4-11.1-2.1-19.6-10.6-26.4
			c-4.1-3.3-9-5.3-13.6-7.7c-15.5-8.3-23.3-21.2-23.4-38.7c-0.1-8.3,0.4-16.7-1.3-24.9c-1.3-6.3-3.4-12.3-7-17.7
			c-3.4-5-5.8-10.4-6.9-16.4c-0.3,0.6-0.6,1.1-0.8,1.8c-6.1,20-9.6,40.4-10.4,61.2c-0.5,13.6-0.3,27.2,1.3,40.8
			c1.5,12.6,3.6,24.9,6.8,37.2c6.4,24.2,16.4,46.8,30.1,67.7c9.7,15,21.2,28.5,34.1,40.9c8.6,8.2,17.9,15.7,27.7,22.4
			c16,10.9,33,19.8,51,26.8c18.7,7.3,37.9,12.5,57.9,15c12.3,1.5,24.6,2.5,37,2c8.5-0.3,16.9-0.9,25.3-2c14.4-1.9,28.5-5.2,42.3-9.7
			c16-5.2,31.2-12,45.8-20.4c20.6-11.8,38.9-26.5,55.2-43.7c9.9-10.5,18.7-21.8,26.4-34c9.5-15,17.1-30.8,22.9-47.6
			c5-14.6,8.5-29.6,10.9-44.8c1.5-9.8,2.4-19.6,2.8-29.4C489.2,246.1,488.7,232.9,486.9,219.7z"/>
		<path class="st2" d="M175.3,308.8c3.6,4.3,8.8,6.1,13.7,8.4c12.3,5.6,20.9,14.6,24.1,27.9c2.9,12.3-0.4,23.4-7.4,33.7
			c-2.7,4-6.1,7.5-9.1,11.2c-5.2,6.4-9.2,13.4-8.6,22.1c0.4,5.8,2.4,11.1,5.2,16.2c1.8,3.3,3.8,6.5,5,10.1
			c3.9,11.3-2.8,21.4-14.8,22.3c-12.2,0.9-22.9-3.5-32.7-10.4c-12.2-8.7-18.9-21-22.3-35.3c-1.3-5.6-2.6-11.3-4.2-16.9
			c-3.3-11.5-10.1-20-20.5-25.7c-7.1-3.9-13.7-8.3-18.7-14.8c-9.2-12.1-10.4-25.2-4.7-39.1c1.6-3.9,4-7.6,4.9-11.7
			c2.4-11.1-2.1-19.6-10.6-26.4c-4.1-3.3-9-5.3-13.6-7.7c-15.5-8.3-23.3-21.2-23.4-38.7c-0.1-8.3,0.4-16.7-1.3-24.9
			c-1.3-6.3-3.4-12.3-7-17.7c-3.4-5-5.8-10.4-6.9-16.4c2.1-8.3,5.5-16.2,9-24c9.1-20.5,20.7-39.5,35-56.7
			c10.1-12.1,21.2-23.1,33.5-32.9c0.8-0.6,1.6-1.1,2.4-1.6c3.4-0.6,6.6-1.7,10.1-1.6c3.7,0.1,7.2,1,10,3.4c4.9,4.2,10.3,4.4,16,2.2
			c6-2.3,11.7-5.5,17.8-7.6c10.3-3.5,20.6-4.5,31.2-1.3c12.9,3.9,23.1,15.8,24.4,29.1c0.9,9.1-2.9,16.3-9.8,21.9
			c-5.3,4.2-11.1,7.8-16.4,12c-6.3,5-11.1,11.1-12.4,19.4c-0.4,2.3-0.5,4.6-0.3,6.8c1,12.3-5.3,19.9-15.6,25
			c-6.6,3.3-13.8,5.2-20.3,8.6c-7.3,3.8-13.7,8.6-17.7,16c-1.6,3-2.5,6.2-2.8,9.6c-0.5,5.4-3.7,9.3-8.3,9.9
			c-2.5,0.3-4.8-0.4-6.7-1.9c-12.8-9.7-30.5-1.9-32.9,15.8c-0.8,6.1-0.1,11.9,3.7,17.1c2.9,4,6.9,5.8,11.7,6.1c1.1,0.1,2.3,0,3.4,0
			c9.2,0,14,5.9,12.2,14.9c-0.3,1.6-0.8,3.2-1,4.8c-1.2,6.8,2,13,8,15.5c3.6,1.5,7.2,1.1,10.8-0.1c3.5-1.1,6.9-2.7,10.6-2.6
			c-0.1,0.5-0.3,0.9-0.4,1.4c-3.3,9.1-0.5,18.7,7.2,24.5c7.6,5.7,16.3,7.1,25.5,6.1C165.9,314.1,170.8,311.8,175.3,308.8z"/>
		<path class="st2" d="M486.9,219.7c-4.4,3.2-9.1,3-14.1,1.8c-1.7-0.4-3.5-1.1-5.2-1.2c-6.2-0.7-10.3,4.4-8.3,10.4
			c1.2,3.8,3.9,6.3,7,8.6c3.6,2.7,7.2,5.5,9.8,9.2c7.9,11.5,7,23.1,0.6,34.9c-2.2,4-5.1,7.4-7.9,10.9c-6.1,7.7-9.5,16.6-9.8,26.4
			c-0.5,13.9-3.1,27.2-9.2,39.8c-6.1,12.5-14,23.6-23.9,33.3c-6.9,6.8-13.9,13.6-22.4,18.6c-5.7,3.4-11.6,6.1-18.5,5.1
			c-6.8-1-11.9-6.4-13-13.2c-0.9-6.2,1.1-11.8,3-17.4c3.5-10.1,3.6-19.9-2-29.3c-1.7-2.9-3.8-5.5-5.6-8.3c-5-7.8-8-16.3-7.6-25.7
			c0.2-4,1.2-7.9,2.4-11.7c0.8-0.5,1.5-1,2.3-1.4c7.8-4.9,12.1-11.6,11.5-21.1c-0.3-4.1-2.1-7.6-4.1-11.1
			c5.7-10.1,9.5-20.7,6.5-32.5c-2.1-8.5-7.6-14.2-15.2-18.3c-5.3-2.8-11.1-4.8-16.1-8.4c-5.8-4.2-10.2-9.4-12-16.5
			c-2.3-9.4,1.5-19.6,9.5-25.3c12.6-9,26-8.9,39.7-3c4.4,1.9,8.6,4.4,12.8,6.6c5,2.5,10.1,3.6,15.6,2c7.8-2.3,12.1-11.2,9.2-19.1
			c-2.9-7.8-11.6-11.3-19.1-7.7c-2.5,1.2-4.8,2.8-7.6,3.2c-6.6,0.8-10.9-2.5-14.1-7.8c-2-3.3-3.7-6.9-6.1-10
			c-9.4-12.2-22.6-9.2-30.2,0.8c-2.4,3.1-3.7,6.7-5.1,10.3c-3.5,9.6-13.2,14.9-23.3,13.3c-9.7-1.5-16.3-6.7-19.3-16.1
			c-1.2-3.6-1.3-7.4,0.1-11.1c1.9-4.9,5.7-7.4,10.8-8c1.6-0.2,3.1-0.4,4.5-0.9c3.7-1.2,5.8-4,6-7.8c0.1-1.6-0.1-3.3-0.4-4.9
			c-2.2-10.6,1.6-18.9,9.9-25.4c4.4-3.5,9.6-5.5,14.8-7.6c2.1-0.9,4.2-1.8,6-3.3c3.2-2.8,4.8-6.1,3.6-10.5c-1.2-4.5-1.9-9,0-13.5
			c2.7-6.4,7.9-9.6,14.6-10.5c4.5-0.6,8.9,0.1,13.3,1.3c1.1,0.3,2.2,0.5,3.3,0.7l0.1-0.1c0.1,0.5,0.6,0.5,1,0.6
			c5.3,2.5,9.7,6.4,14.2,10c9.3,7.5,17.9,15.8,25.8,24.7c12.8,14.5,23.6,30.4,32.9,47.4c13.6,24.7,23.1,50.9,27.8,78.8
			C486,213.3,486.7,216.5,486.9,219.7z"/>
		<path class="st3" d="M384.7,49.1c-0.4-0.2-0.9-0.1-1-0.6C384.3,48.4,384.6,48.5,384.7,49.1z"/>
		<path class="st4" d="M371.9,278.4c2,3.5,3.8,7,4.1,11.1c0.6,9.5-3.7,16.2-11.5,21.1c-0.8,0.5-1.5,1-2.3,1.4
			c-9.1,3.6-18.4,4.2-27.7,0.8c-10.1-3.7-16.4-12.3-15.9-22.6c0.4-8.2,5-14.1,11.8-18.4c10.9-6.9,26.8-6.1,36.8,1.9
			C368.9,275.2,370.3,276.9,371.9,278.4z M337.2,299.2c1-0.1,2.1-0.5,2.7-1.6c1.9-3.8,3.8-7.6,5.4-11.5c0.7-1.6-0.1-3.1-1.7-3.8
			c-1.5-0.6-3.1-0.3-3.8,1.2c-1.9,3.9-3.7,7.8-5.4,11.8C333.5,297.2,335,299.2,337.2,299.2z M352.9,299.3c1.3,0,2.2-1.1,2.8-2.4
			c1.6-3.5,3.2-6.9,4.8-10.4c0.7-1.6,0.3-3.1-1.3-3.9c-1.8-0.9-3.3-0.4-4.2,1.3c-1.9,3.8-3.7,7.6-5.4,11.5
			C348.8,297.3,350.4,299.3,352.9,299.3z"/>
		<path class="st5" d="M281.5,274.3c-0.1,9.5-1.1,17.8-6.2,25.1c-7.3,10.3-17.5,13.9-29.4,12.2c-11.7-1.7-19.4-8.7-23.3-19.9
			c-3-8.5-2.7-17.4-1.8-26.1c0.3-3.4,3.7-5.6,7.2-4.9c15.3,3.1,30.5,3,45.9,0c3.6-0.7,6.9,1.9,7.2,5.6
			C281.2,269.2,281.3,272.2,281.5,274.3z M252.3,277.7c-9.3,0-15.4,3.5-18.3,9.3c-1,2.3-0.9,4.2,0.5,6.2c7,11,26.1,10.8,32.8-0.5
			c1.1-1.9,1.4-3.7,0.2-5.7C264,280.5,258.1,278,252.3,277.7z"/>
		<path class="st5" d="M156.5,239.2c0.1-13.8,11.1-24.5,24.8-24.2c13.5,0.1,24.2,11.3,24.1,24.9c-0.1,13-11.4,24-24.6,23.9
			C167.5,263.7,156.4,252.6,156.5,239.2z M165.1,231.2c0,4.3,3.7,8,7.8,8.2c4.4,0.1,8.2-3.8,8.2-8.2c0-4.3-3.8-7.9-8-7.9
			C168.6,223.2,165.1,226.7,165.1,231.2z"/>
		<path class="st2" d="M330.3,64.6c-0.1,6.9-4.5,11.3-12.2,11.6c-3.6,0.1-6.7,1.1-9.6,3.1c-3.8,2.5-7.8,3.7-12,1.3
			c-4.1-2.4-5.4-6.6-5.2-11c0.2-5.4,1.3-10.8,5.2-14.9c4.8-5.1,10.8-6.5,17.6-6c5.3,0.4,9.8,2.2,13.1,6.6
			C329.3,58,330.3,61.1,330.3,64.6z"/>
		<path class="st6" d="M337.2,299.2c-2.2,0-3.7-2-2.9-4c1.7-4,3.5-7.9,5.4-11.8c0.8-1.5,2.4-1.8,3.8-1.2c1.6,0.7,2.4,2.2,1.7,3.8
			c-1.7,3.9-3.5,7.7-5.4,11.5C339.3,298.7,338.2,299.1,337.2,299.2z"/>
		<path class="st6" d="M352.9,299.3c-2.5,0.1-4.1-1.9-3.2-4c1.6-3.9,3.4-7.7,5.4-11.5c0.8-1.6,2.4-2.2,4.2-1.3
			c1.7,0.9,2,2.3,1.3,3.9c-1.5,3.5-3.1,7-4.8,10.4C355.1,298.2,354.2,299.2,352.9,299.3z"/>
		<path class="st4" d="M252.3,277.7c5.8,0.2,11.7,2.7,15.3,9.4c1.1,2,0.9,3.9-0.2,5.7c-6.8,11.2-25.8,11.5-32.8,0.5
			c-1.4-2-1.5-4-0.5-6.2C236.8,281.3,243,277.9,252.3,277.7z"/>
		<path class="st6" d="M165.1,231.2c0-4.4,3.5-7.9,7.9-7.9c4.3,0,8,3.7,8,7.9c0,4.4-3.8,8.3-8.2,8.2
			C168.7,239.2,165.1,235.4,165.1,231.2z"/>
	</g>
</g>
<path class="st5" d="M327.5,231.8c-12.2,0-23.2,5.3-30.9,13.6c-2.8,3.1-2.4,7.9,0.9,10.4l0,0c2.9,2.3,7.1,1.9,9.6-0.8
	c5.1-5.5,12.4-9,20.4-9c7.5,0,14.3,3,19.3,7.8c2.5,2.5,6.5,2.5,9.3,0.3l0,0c3.3-2.6,3.6-7.6,0.6-10.5
	C349.1,236.3,338.9,231.8,327.5,231.8z"/>
<path class="st4" d="M175.3,308.8c-4.5,3-9.4,5.3-14.9,5.9c-9.2,1.1-17.9-0.3-25.5-6.1c-7.7-5.8-10.4-15.4-7.2-24.5
	c0.2-0.5,0.3-0.9,0.4-1.4c7.4-16.1,29.3-18.5,41.9-12.3c9.7,4.8,15.3,14.9,13.4,25.1c-0.8,4.5-3.1,8.4-6.5,11.5
	C176.5,307.6,175.9,308.2,175.3,308.8z M144.9,299.2c1-0.1,2.1-0.6,2.6-1.7c1.8-3.8,3.6-7.6,5.3-11.5c0.8-1.7-0.1-3.1-1.7-3.8
	c-1.5-0.6-3.1-0.4-3.9,1.4c-1.8,3.8-3.6,7.7-5.3,11.5C141,297.2,142.6,299.3,144.9,299.2z M168.3,285.4c-0.1-1.8-0.9-2.9-2.5-3.2
	c-1.7-0.4-2.8,0.5-3.5,2c-1.6,3.4-3.2,6.8-4.8,10.2c-0.9,1.9-0.9,3.5,1.1,4.6c1.6,0.9,3.3,0.1,4.3-2c1.6-3.3,3.2-6.6,4.7-9.9
	C168,286.5,168.2,285.8,168.3,285.4z"/>
<path class="st6" d="M144.9,299.2c-2.3,0.1-3.9-2-3-4c1.7-3.9,3.5-7.7,5.3-11.5c0.8-1.8,2.4-2,3.9-1.4c1.6,0.6,2.5,2,1.7,3.8
	c-1.7,3.9-3.5,7.7-5.3,11.5C147,298.6,145.9,299.1,144.9,299.2z"/>
<path class="st6" d="M168.3,285.4c-0.1,0.4-0.3,1-0.6,1.6c-1.5,3.3-3.1,6.7-4.7,9.9c-1,2.1-2.7,2.8-4.3,2c-2-1.1-2-2.7-1.1-4.6
	c1.6-3.4,3.1-6.8,4.8-10.2c0.7-1.5,1.8-2.3,3.5-2C167.4,282.6,168.2,283.6,168.3,285.4z"/>
</svg>
