<?xml version="1.0" encoding="utf-8"?>
<!-- Generator: Adobe Illustrator 27.9.1, SVG Export Plug-In . SVG Version: 6.00 Build 0)  -->
<svg version="1.1" id="Layer_1" xmlns="http://www.w3.org/2000/svg" xmlns:xlink="http://www.w3.org/1999/xlink" x="0px" y="0px"
	 viewBox="0 0 500 500" style="enable-background:new 0 0 500 500;" xml:space="preserve">
<style type="text/css">
	.st0{fill:#5593CE;}
	.st1{fill:#F58A21;}
	.st2{fill:#FCFBFB;}
	.st3{fill:#FECF3F;}
	.st4{fill:#F37769;}
	.st5{fill:#3E2A15;}
	.st6{fill:#FBBC1F;}
	.st7{fill:#FED653;}
	.st8{fill:#473219;}
	.st9{fill:#F69B84;}
	.st10{fill:#77D1F3;}
	.st11{fill:#61A143;}
	.st12{fill:#84C2EA;}
	.st13{fill:#F59892;}
	.st14{fill:#412F19;}
	.st15{fill:#FCFBFA;}
	.st16{fill:#E45E39;}
	.st17{fill:#C45234;}
	.st18{fill:#C45235;}
	.st19{fill:#F26C57;}
	.st20{fill:#382917;}
	.st21{fill:#FDFCFB;}
	.st22{fill:#EC8524;}
	.st23{fill:#F8B032;}
	.st24{fill:#F59B28;}
	.st25{fill:#F5856B;}
	.st26{fill:#3C2916;}
	.st27{fill:#FBFAF9;}
	.st28{fill:#67BDC6;}
	.st29{fill:#B1DFE5;}
	.st30{fill:#9DD5DD;}
	.st31{fill:#8BCBD5;}
	.st32{fill:#152732;}
	.st33{fill:#215D6B;}
	.st34{fill:#4C74B9;}
	.st35{fill:#7DA9DA;}
	.st36{fill:#121D2B;}
	.st37{fill:#8C9CCF;}
	.st38{fill:#F3F2F3;}
	.st39{fill:#B54C33;}
	.st40{fill:#D67140;}
	.st41{fill:#E88F53;}
	.st42{fill:#F8AD71;}
	.st43{fill:#28201B;}
	.st44{fill:#FCC330;}
	.st45{fill:#FDDC65;}
	.st46{fill:#F7A280;}
	.st47{fill:#4B331B;}
	.st48{fill:#EFD1B6;}
	.st49{fill:#F8E1C7;}
	.st50{fill:#C4A998;}
	.st51{fill:#B8A395;}
	.st52{fill:#8F7A6F;}
	.st53{fill:#162430;}
	.st54{fill:#FFFFFF;}
	.st55{fill:#939696;}
	.st56{fill:#FDFCFC;}
	.st57{fill:#B7B8B8;}
	.st58{fill:#929595;}
	.st59{fill:#F7F5F4;}
	.st60{fill:#939595;}
	.st61{fill:#949697;}
	.st62{fill:#D9D9D9;}
	.st63{fill:#261D12;}
	.st64{fill:#251E14;}
	.st65{fill:#F07F7D;}
	.st66{fill:#F3F1F0;}
	.st67{fill:#F0EEED;}
	.st68{fill:#F58E4E;}
	.st69{fill:#F8AE5E;}
	.st70{fill:#F9E1C0;}
	.st71{fill:#FAC087;}
	.st72{fill:#3C2613;}
	.st73{fill:#FBF9F9;}
</style>
<g>
	<g>
		<g>
			<path class="st34" d="M480.6,203.9c2.6,9.3,3.6,18.9,4.4,28.4c1.6,20.1,1,40.2-2.6,60.1c-3.9,21.8-10.1,42.9-19.8,62.9
				c-0.4-0.7-1-0.7-1.7-0.7c-6.7-0.2-13.4,0-20.1,1c-18,2.7-35,8.9-51.8,15.5c-27.8,10.8-56.4,19-86.4,20.8
				c-18.5,1.1-37.1,0.4-55.4-2.7c-19.3-3.2-38.5-7.1-58-9.2c-16.5-1.7-33-2.4-49.5-1.2c-17.9,1.2-35.4,4.2-52.5,9.4
				c-9.3,2.9-18.6,6.1-27.4,10.5c-22.1-27.5-36.8-58.6-45.2-92.7c-2-8.3-3.7-16.6-4.6-25.1c0.7,0,1.3,0.1,2-0.1
				c15.4-3.6,31-3.7,46.5-1.6c14.2,1.9,28,5.4,41.6,10c3.7,1.2,7.4,2.9,11.4,2.9c0,0-0.2,0.1-0.2,0.1c0.2,0.2,0.5,0.4,0.7,0.6
				c6.3,6.5,13.7,11.2,22.4,14.1c16.2,5.4,32.9,7.6,49.9,5.7c10.1-1.1,19.2-4.9,26.6-12.1c9.2-9,15-19.9,19.1-31.8
				c0.6-1.7,1.3-2.8,3.2-3.2c10-1.9,19.9-2,29.9,0.2c1.8,0.4,2.6,1.2,3.2,2.8c2.8,7.3,6.7,14,11.4,20.3c8.2,11,18.8,18.4,32.6,20.7
				c18.9,3.2,37.4,1.7,55.4-4.8c13.3-4.8,22.3-14.1,27.1-27.4c1.7-4.9,3-9.8,3.6-15c0.4-3.1,1.2-5.8,4.1-7.7
				c2.5-1.6,4.3-4.1,5.9-6.6c0.9,0.1,1.4-0.5,2-1c13.4-9.2,26.8-18.6,40.4-27.5C458.5,213,469.1,207.6,480.6,203.9z M121.7,342.2
				c8.2,0,12.2-0.9,17.7-4.5c7.1-4.8,8.7-13.3,2.4-19.6c-8.1-8.1-25.6-9.2-36-2.3c-8.6,5.7-8.7,16.1-0.1,22
				C110.6,341.3,116.3,342.6,121.7,342.2z M371.9,311.3c-5.1-0.2-9.8,1.4-14.3,3.7c-10,5-10.8,16.5-1.6,22.8
				c9.1,6.2,23.9,6.4,33.2,0.3c9.2-6.1,8.9-17-0.6-22.7C383.4,312.2,377.7,311.6,371.9,311.3z M247.7,337.5
				c10.4-0.3,19.7-3.6,27.1-11.4c2.6-2.8,2.9-5.5,0.8-7.5c-2.1-1.9-4.5-1.4-7.1,1.4c-3.7,3.9-8.3,6.7-13.6,7.7
				c-11,2.1-20.9,0.3-28.6-8.4c-1.7-1.9-3.8-2.3-5.9-0.9c-2.1,1.3-2.4,3.4-1.4,5.5c0.5,1.2,1.5,2.2,2.4,3.1
				C228.4,334.1,237.3,337.4,247.7,337.5z"/>
			<path class="st34" d="M40.3,131.3c11-19.7,24.9-37.2,41.1-52.8c26.8-25.9,58.2-44.2,93.8-55.4c18.7-5.9,37.9-9.2,57.5-10.2
				C289,10.1,340,25.1,386,57.1c21.7,15.1,40.3,33.3,55.1,55.2c-4.9,1.4-9.7,3-14.6,4.3c-38.1,10.1-76.2,20.2-114.7,29
				c-22.6,5.2-45.5,8-68.6,9.1c-12,0.6-24,1.2-36,0.4c-9.7-0.7-19.4-0.8-29-1.4c-15.6-1-31.1-2.7-46.6-4.9
				c-25.1-3.5-49.9-8.2-74.6-13.8C51.5,133.7,46,131.8,40.3,131.3z M201.2,133.3c6.5-0.2,11.3-0.2,16-0.6
				c12.3-1.1,24.2-3.6,35.7-8.1c14.4-5.6,26.9-13.8,34.8-27.5c5.9-10.4,7.9-21.4,1.8-32.5c-4.5-8.2-12.1-12.6-20.6-15.6
				c-16.4-5.9-33.1-5.9-49.8-1.6c-9.2,2.4-18,6-24.6,13.4c-3.5,3.9-5.2,8.3-4.8,13.5c0.1,1.2,0.5,2.5,1.9,2.8c1.5,0.3,1.7-1,2.2-2
				c2-3.8,5.3-6.4,9.1-8.4c10.3-5.5,21.4-6.7,32.8-5.7c6.2,0.5,12.2,2,17.5,5.6c7.5,5,9.1,12.7,4.1,20.2c-2.9,4.3-6.8,7.7-11.3,10.5
				c-15,9.2-31.7,13-49.1,14c-14.8,0.8-29.6,0.3-44.1-3.2c-14.1-3.4-27.5-8.2-38.8-17.5c-1.1-0.9-2-3.1-3.7-1.7
				c-1.5,1.2,0.2,2.8,0.6,4.1c0.1,0.3,0.3,0.6,0.4,0.9c6.3,12.4,17.2,19.9,29.1,25.7C159.9,129.4,181.1,133.1,201.2,133.3z
				 M187.6,96c-4.4-1.7-8.6-2.7-12.2-5c-8.7-5.4-12.1-11.7-8.7-21.9c1.5-4.6,4.6-8.3,8-11.5c8-7.4,17.3-12.7,27.4-16.9
				c3.2-1.3,6.4-2.6,9.8-3.9c-1.1-1.2-2.2-0.9-3.1-0.8c-12.2,1.3-24.2,3.4-35.7,7.8c-9.4,3.7-18.1,8.4-25.2,15.8
				c-11,11.5-8.6,25.5,5.6,32.7c8.6,4.3,17.9,5,27.3,5.1C182.8,97.5,185.2,97.6,187.6,96z M332,76c0.1-5.4-3.4-9-8.7-9.1
				c-4.9-0.1-9.1,4.1-9.2,8.8c0,4.9,3.9,8.8,8.7,8.9C328.1,84.7,331.9,81.1,332,76z M346.9,97.6c3.4,0,6.8-3.4,6.8-6.8
				c0-3.7-3.3-6.9-6.9-6.9c-3.6,0-6.7,3.3-6.6,6.8C340.3,94.2,343.6,97.6,346.9,97.6z"/>
			<path class="st34" d="M454,132.9c8.5,15,15.7,30.5,20.5,47.1c-13.5,4.2-25.5,11.2-37,19.2c-11.3,7.9-22.4,16.2-33.7,24.3
				c-4.9,3.5-9.9,6.8-14.8,10.2c-16.2,1.1-32.3,2.1-48.5,3.4c-19.6,1.6-39.1,3.4-58.6,5.3c-6.3,0.6-12.5,1.8-16.4,7.7
				c-0.7,1-1.8,0.6-2.8,0.6c-9.8-0.8-19.6-0.7-29.4-0.1c-1.1,0.1-2.1,0.2-2.9-0.9c-3.4-4.9-8.5-6.7-14.1-7.5
				c-11-1.5-22.1-2.3-33.2-3.2c-13.9-1.1-27.7-2.1-41.6-3c-15.1-0.9-30.1-2.2-45.3-2.3c-5.6-0.1-9.1,4.2-8.5,9.8
				c0.5,4.5,2.8,8.2,6.4,10.7c3.9,2.7,5.1,6.3,5.2,10.6c-8.2-2.6-16.3-5.3-24.5-7.6c-20.3-5.7-40.9-8.1-62-5c-2.5,0.4-4.8,0.8-4.8,4
				c-0.7-22.4,2.3-44.4,8.1-66.1c3.5-13,7.7-25.7,13.6-37.8c0.7,1,1.9,1.1,2.9,1.3c12.5,2.9,24.9,5.6,37.4,8.6
				c39.8,9.6,79.4,20.3,120.1,26.1c14.9,2.1,29.9,4.1,45,4.7c11.9,0.5,23.7,1.2,35.7,0.4c11.4-0.8,22.9-1.3,34.2-2.8
				c21-2.8,41.6-7.5,61.9-13.7c29.7-9.2,57.4-22.6,83.2-39.8C451.6,136,453.8,135.3,454,132.9z M315.5,231.7
				c0.3-0.1,0.8-0.1,1.2-0.3c13.1-4.1,26.4-7.5,39.8-10.9c2.7-0.7,4-2.4,3.3-5.1c-0.7-2.6-2.7-3.7-5.3-3.1c-4.1,0.9-8.1,2-12.2,3
				c-9.3,2.2-18.5,5-27.6,7.7c-2.5,0.7-3.7,2.3-3.5,4.8C311.3,230.3,313.1,231.3,315.5,231.7z M139.7,212.2
				c-2.4,0.1-4.1,1.2-4.5,3.6c-0.4,2.4,0.7,4.1,3,4.7c4.1,1.1,8.3,1.9,12.4,3c9,2.4,18,4.9,27.1,7.2c3.2,0.8,5.7-0.4,6.2-3.2
				c0.5-3-1.3-4.3-3.9-5.1c-10.3-2.9-20.5-5.9-30.9-8.2C145.9,213.6,142.7,212.9,139.7,212.2z"/>
			<path class="st34" d="M187.5,482.9c-18.2-4.5-35.3-11.6-51.8-20.5c-18.9-10.2-36.1-22.7-51.8-37.3c-1-0.9-1.8-1.9-2.7-2.9
				c3.6-1.1,7.1-2.2,10.7-3.3c13.1-3.9,26.6-6.5,40.2-7.7c10.3-0.9,20.7-1.5,31-1.3c10.4,0.2,20.9,0.5,31.3,1.7
				c10.5,1.2,21,2.3,31.5,3.7c12.9,1.6,25.7,3.5,38.7,4.3c8.8,0.5,17.6,0.5,26.4,0.1c7.9-0.4,15.8-1.2,23.7-2.3
				c21.7-3.2,42.4-10.2,62.7-18.2c22.5-8.7,45.1-16.6,69.7-16.5c-11.5,18.2-25.5,34.2-41.7,48.4c-6.2,5.4-12.5,10.7-19.4,15.3
				c-1.1-1.3-2.7-1.4-4.2-1.8c-8.1-2.1-16.4-3.4-24.8-3.9c-20.3-1.2-40.3,1.4-59.8,7c-18.5,5.3-35.9,13.4-53.6,20.8
				c-17.4,7.2-35.3,12.5-54.3,13.5C188.8,482.2,187.9,482.1,187.5,482.9z"/>
			<path class="st35" d="M454,132.9c-0.1,2.4-2.4,3.1-3.9,4.1c-25.8,17.1-53.5,30.6-83.2,39.8c-20.2,6.2-40.8,10.9-61.9,13.7
				c-11.4,1.5-22.8,2-34.2,2.8c-11.9,0.8-23.8,0-35.7-0.4c-15.1-0.6-30-2.6-45-4.7c-40.7-5.8-80.3-16.5-120.1-26.1
				c-12.4-3-24.9-5.7-37.4-8.6c-1-0.2-2.2-0.3-2.9-1.3c2.9-7.3,6.6-14.1,10.6-20.8c5.7,0.4,11.2,2.4,16.7,3.6
				c24.7,5.6,49.6,10.3,74.6,13.8c15.5,2.2,31,3.9,46.6,4.9c9.7,0.6,19.4,0.7,29,1.4c12.1,0.8,24,0.2,36-0.4
				c23.1-1.1,46-3.9,68.6-9.1c38.4-8.8,76.6-18.9,114.7-29c4.9-1.3,9.7-2.9,14.6-4.3C446,118.9,450.3,125.7,454,132.9z"/>
			<path class="st35" d="M447.2,382.8c-24.6-0.1-47.2,7.8-69.7,16.5c-20.4,7.9-41,14.9-62.7,18.2c-7.8,1.2-15.7,2-23.7,2.3
				c-8.8,0.4-17.6,0.4-26.4-0.1c-13-0.7-25.8-2.6-38.7-4.3c-10.5-1.3-21-2.4-31.5-3.7c-10.4-1.2-20.9-1.5-31.3-1.7
				c-10.3-0.2-20.7,0.4-31,1.3c-13.6,1.2-27.1,3.7-40.2,7.7c-3.6,1.1-7.2,2.2-10.7,3.3c-7.9-7.2-15.1-15.1-21.6-23.6
				c8.8-4.4,18-7.6,27.4-10.5c17.1-5.3,34.7-8.2,52.5-9.4c16.6-1.1,33-0.5,49.5,1.2c19.5,2,38.7,5.9,58,9.2
				c18.3,3.1,36.9,3.8,55.4,2.7c30-1.8,58.5-9.9,86.4-20.8c16.8-6.6,33.8-12.8,51.8-15.5c6.7-1,13.4-1.1,20.1-1
				c0.7,0,1.3,0.1,1.7,0.7C458.2,364.9,453.2,374.1,447.2,382.8z"/>
			<path class="st35" d="M187.5,482.9c0.4-0.8,1.3-0.7,2-0.8c19-1.1,36.9-6.3,54.3-13.5c17.7-7.3,35.1-15.5,53.6-20.8
				c19.6-5.6,39.5-8.3,59.8-7c8.3,0.5,16.6,1.8,24.8,3.9c1.4,0.4,3.1,0.5,4.2,1.8c-8.7,6.2-17.7,11.9-27.4,16.5
				c-5.6-0.4-11.2-1.2-16.8-1.2c-12,0-23.9,1.6-35.6,4.3c-19.7,4.5-38.5,11.9-57.2,19.2c-5.4,2.1-10.5,5.3-16.6,4.7
				c-14.2-0.4-28-3-41.8-6.2C189.6,483.6,188.6,483.2,187.5,482.9z"/>
			<path class="st35" d="M7.9,256.1c0-3.2,2.3-3.6,4.8-4c21-3.2,41.6-0.7,62,5c8.2,2.3,16.4,5.1,24.5,7.6c2.2,10,5.7,19.3,12.2,27.4
				c-4.1,0-7.7-1.7-11.4-2.9c-13.6-4.5-27.4-8.1-41.6-10c-15.6-2.1-31.1-2-46.5,1.6c-0.6,0.1-1.3,0.1-2,0.1
				c-0.9-5.4-1.4-10.8-1.5-16.2c0-2.2,0.6-4.5-0.4-6.7C8,257.4,7.9,256.7,7.9,256.1z"/>
			<path class="st35" d="M389,233.7c5-3.4,10-6.7,14.8-10.2c11.2-8.1,22.3-16.3,33.7-24.3c11.5-8,23.5-15.1,37-19.2
				c2.6,7.9,4.9,15.8,6.1,24c-11.4,3.6-22,9.1-31.9,15.6c-13.6,9-26.9,18.3-40.4,27.5c-0.6,0.4-1.2,1-2,1c0.3-1.1,0.6-2.1,0.8-3.2
				c1.6-6.9-1.9-11.3-9.1-11.3C394.9,233.7,391.9,233.7,389,233.7z"/>
			<path class="st34" d="M232.4,490c6.2,0.7,11.3-2.6,16.6-4.7c18.8-7.3,37.5-14.7,57.2-19.2c11.7-2.7,23.6-4.3,35.6-4.3
				c5.6,0,11.2,0.8,16.8,1.2c-16.4,9.1-33.9,15.6-52,20.4c-23.8,6.2-48.1,8.1-72.7,7C233.5,490.4,233,490.1,232.4,490z"/>
			<path class="st34" d="M8,258c1,2.2,0.4,4.5,0.4,6.7C7.6,262.5,8.1,260.2,8,258z"/>
			<path class="st36" d="M389,233.7c3,0,6-0.1,8.9-0.1c7.2,0,10.8,4.3,9.1,11.3c-0.2,1.1-0.5,2.1-0.8,3.2c-1.6,2.5-3.4,5-5.9,6.6
				c-2.9,1.9-3.8,4.5-4.1,7.7c-0.6,5.1-1.9,10.1-3.6,15c-4.7,13.3-13.7,22.6-27.1,27.4c-18,6.5-36.5,8-55.4,4.8
				c-13.8-2.4-24.4-9.7-32.6-20.7c-4.7-6.3-8.6-13-11.4-20.3c-0.6-1.6-1.4-2.4-3.2-2.8c-10-2.2-19.9-2.1-29.9-0.2
				c-1.9,0.4-2.6,1.5-3.2,3.2c-4.2,11.9-9.9,22.9-19.1,31.8c-7.4,7.2-16.4,11-26.6,12.1c-17,1.9-33.7-0.3-49.9-5.7
				c-8.6-2.9-16.1-7.6-22.4-14.1c-0.2-0.2-0.5-0.4-0.7-0.6c0,0,0.2-0.1,0.2-0.1c-6.5-8.1-10-17.4-12.2-27.4
				c-0.1-4.3-1.3-7.9-5.2-10.6c-3.6-2.5-5.9-6.1-6.4-10.7c-0.7-5.5,2.9-9.8,8.5-9.8c15.1,0.2,30.2,1.4,45.3,2.3
				c13.9,0.9,27.7,2,41.6,3c11.1,0.8,22.2,1.7,33.2,3.2c5.6,0.7,10.7,2.6,14.1,7.5c0.8,1.1,1.8,1,2.9,0.9c9.8-0.7,19.6-0.7,29.4,0.1
				c0.9,0.1,2.1,0.5,2.8-0.6c3.9-5.9,10.1-7.1,16.4-7.7c19.5-1.9,39.1-3.7,58.6-5.3C356.6,235.8,372.8,234.8,389,233.7z
				 M331.8,252.5c-0.2-2-1.4-2.8-3.6-2.7c-3.7,0.3-7.5,0.7-11.2,0.8c-2.2,0.1-3.8,0.9-5,2.7c-5.9,8.4-11.8,16.9-17.7,25.3
				c-1.1,1.6-1.8,3.2-0.2,4.7c1.7,1.5,3.4,1.1,5-0.3c10.4-9.2,20.7-18.4,31.1-27.6C331,254.7,331.8,253.9,331.8,252.5z M139.3,247.9
				c-2.1-0.3-4,0.2-5.2,2c-5.6,8-11.2,15.9-16.7,23.9c-1.1,1.6-1.5,3.3,0,4.7c1.6,1.5,3.4,1.2,5-0.2c2-1.7,4-3.4,6-5.1
				c7.4-6.2,14.8-12.4,22.2-18.6c1.2-1,2.7-2.2,2-4.1c-0.6-1.9-2.4-2-4.1-2.1C145.4,248.2,142.4,248.1,139.3,247.9z"/>
			<path class="st37" d="M121.7,342.2c-5.4,0.4-11-0.9-16.1-4.5c-8.5-5.9-8.5-16.3,0.1-22c10.5-6.9,27.9-5.8,36,2.3
				c6.3,6.3,4.7,14.8-2.4,19.6C133.8,341.3,129.8,342.2,121.7,342.2z"/>
			<path class="st37" d="M371.9,311.3c5.8,0.3,11.6,0.9,16.8,4.1c9.5,5.7,9.8,16.6,0.6,22.7c-9.3,6.1-24.1,5.9-33.2-0.3
				c-9.2-6.3-8.4-17.8,1.6-22.8C362.1,312.7,366.7,311,371.9,311.3z"/>
			<path class="st36" d="M247.7,337.5c-10.4-0.2-19.2-3.5-26.5-10.6c-0.9-0.9-1.9-1.9-2.4-3.1c-1-2.1-0.6-4.2,1.4-5.5
				c2.1-1.3,4.2-1,5.9,0.9c7.8,8.8,17.7,10.5,28.6,8.4c5.3-1,9.9-3.7,13.6-7.7c2.6-2.8,5-3.3,7.1-1.4c2.2,1.9,1.9,4.7-0.8,7.5
				C267.3,333.9,258.1,337.3,247.7,337.5z"/>
			<path class="st35" d="M111.2,292.1c0.2,0.2,0.5,0.4,0.7,0.6C111.7,292.5,111.4,292.3,111.2,292.1z"/>
			<path class="st35" d="M201.2,133.3c-20.1-0.2-41.3-3.9-61-13.5c-12-5.9-22.9-13.3-29.1-25.7c-0.1-0.3-0.4-0.6-0.4-0.9
				c-0.3-1.4-2.1-3-0.6-4.1c1.7-1.3,2.6,0.8,3.7,1.7c11.3,9.3,24.8,14.1,38.8,17.5c14.5,3.5,29.3,4,44.1,3.2c17.3-1,34-4.8,49.1-14
				c4.5-2.7,8.4-6.1,11.3-10.5c5-7.5,3.4-15.2-4.1-20.2c-5.3-3.6-11.3-5-17.5-5.6c-11.4-1-22.5,0.2-32.8,5.7c-3.7,2-7,4.6-9.1,8.4
				c-0.5,1-0.7,2.3-2.2,2c-1.4-0.3-1.8-1.6-1.9-2.8c-0.4-5.2,1.4-9.6,4.8-13.5c6.6-7.4,15.4-11,24.6-13.4
				c16.7-4.4,33.4-4.3,49.8,1.6c8.4,3,16.1,7.4,20.6,15.6c6.1,11.1,4.2,22.1-1.8,32.5c-7.8,13.7-20.4,21.8-34.8,27.5
				c-11.4,4.5-23.4,6.9-35.7,8.1C212.4,133.1,207.7,133.1,201.2,133.3z"/>
			<path class="st35" d="M187.6,96c-2.4,1.5-4.8,1.5-6.8,1.5c-9.4-0.1-18.7-0.7-27.3-5.1c-14.2-7.1-16.6-21.2-5.6-32.7
				c7.1-7.4,15.8-12.2,25.2-15.8c11.5-4.5,23.5-6.5,35.7-7.8c0.9-0.1,2-0.4,3.1,0.8c-3.4,1.4-6.6,2.6-9.8,3.9
				c-10,4.2-19.4,9.5-27.4,16.9c-3.4,3.2-6.5,6.9-8,11.5c-3.4,10.2,0,16.4,8.7,21.9C178.9,93.3,183.2,94.4,187.6,96z"/>
			<path class="st35" d="M332,76c-0.1,5.1-3.8,8.7-9.1,8.7c-4.8-0.1-8.7-4-8.7-8.9c0-4.8,4.3-8.9,9.2-8.8C328.6,67,332,70.6,332,76z
				"/>
			<path class="st35" d="M346.9,97.6c-3.3,0-6.6-3.3-6.7-6.8c-0.1-3.5,3.1-6.8,6.6-6.8c3.7,0,7,3.2,6.9,6.9
				C353.7,94.2,350.3,97.5,346.9,97.6z"/>
			<path class="st36" d="M315.5,231.7c-2.4-0.4-4.2-1.4-4.4-3.9c-0.2-2.5,1-4.1,3.5-4.8c9.2-2.7,18.3-5.5,27.6-7.7
				c4.1-1,8.1-2.1,12.2-3c2.7-0.6,4.6,0.5,5.3,3.1c0.7,2.7-0.7,4.4-3.3,5.1c-13.3,3.4-26.7,6.7-39.8,10.9
				C316.3,231.6,315.8,231.6,315.5,231.7z"/>
			<path class="st36" d="M139.7,212.2c3.1,0.7,6.2,1.4,9.3,2.1c10.4,2.4,20.7,5.3,30.9,8.2c2.7,0.8,4.4,2.1,3.9,5.1
				c-0.5,2.8-3,4-6.2,3.2c-9-2.4-18-4.9-27.1-7.2c-4.1-1.1-8.3-1.9-12.4-3c-2.4-0.6-3.5-2.3-3-4.7
				C135.6,213.4,137.3,212.3,139.7,212.2z"/>
			<path class="st38" d="M331.8,252.5c0,1.4-0.8,2.2-1.6,2.9c-10.3,9.2-20.7,18.4-31.1,27.6c-1.6,1.4-3.4,1.8-5,0.3
				c-1.7-1.5-0.9-3.1,0.2-4.7c5.9-8.4,11.8-16.9,17.7-25.3c1.2-1.7,2.8-2.6,5-2.7c3.7-0.1,7.5-0.5,11.2-0.8
				C330.4,249.7,331.6,250.6,331.8,252.5z"/>
			<path class="st38" d="M139.3,247.9c3.1,0.2,6.2,0.3,9.2,0.5c1.7,0.1,3.4,0.2,4.1,2.1c0.7,2-0.8,3.1-2,4.1
				c-7.4,6.2-14.8,12.4-22.2,18.6c-2,1.7-4,3.4-6,5.1c-1.6,1.4-3.4,1.7-5,0.2c-1.5-1.4-1.1-3.2,0-4.7c5.6-8,11.1-16,16.7-23.9
				C135.3,248.1,137.2,247.6,139.3,247.9z"/>
		</g>
	</g>
</g>
</svg>
