<?xml version="1.0" encoding="utf-8"?>
<!-- Generator: Adobe Illustrator 27.9.1, SVG Export Plug-In . SVG Version: 6.00 Build 0)  -->
<svg version="1.1" id="Layer_1" xmlns="http://www.w3.org/2000/svg" xmlns:xlink="http://www.w3.org/1999/xlink" x="0px" y="0px"
	 viewBox="0 0 500 500" style="enable-background:new 0 0 500 500;" xml:space="preserve">
<style type="text/css">
	.st0{fill:#5593CE;}
	.st1{fill:#F58A21;}
	.st2{fill:#FCFBFB;}
	.st3{fill:#FECF3F;}
	.st4{fill:#F37769;}
	.st5{fill:#3E2A15;}
	.st6{fill:#FBBC1F;}
	.st7{fill:#FED653;}
	.st8{fill:#473219;}
	.st9{fill:#F69B84;}
	.st10{fill:#77D1F3;}
	.st11{fill:#61A143;}
	.st12{fill:#84C2EA;}
	.st13{fill:#F59892;}
	.st14{fill:#412F19;}
	.st15{fill:#FCFBFA;}
	.st16{fill:#E45E39;}
	.st17{fill:#C45234;}
	.st18{fill:#C45235;}
	.st19{fill:#F26C57;}
	.st20{fill:#382917;}
	.st21{fill:#FDFCFB;}
	.st22{fill:#EC8524;}
	.st23{fill:#F8B032;}
	.st24{fill:#F59B28;}
	.st25{fill:#F5856B;}
	.st26{fill:#3C2916;}
	.st27{fill:#FBFAF9;}
	.st28{fill:#67BDC6;}
	.st29{fill:#B1DFE5;}
	.st30{fill:#9DD5DD;}
	.st31{fill:#8BCBD5;}
	.st32{fill:#152732;}
	.st33{fill:#215D6B;}
	.st34{fill:#4C74B9;}
	.st35{fill:#7DA9DA;}
	.st36{fill:#121D2B;}
	.st37{fill:#8C9CCF;}
	.st38{fill:#F3F2F3;}
	.st39{fill:#B54C33;}
	.st40{fill:#D67140;}
	.st41{fill:#E88F53;}
	.st42{fill:#F8AD71;}
	.st43{fill:#28201B;}
	.st44{fill:#FCC330;}
	.st45{fill:#FDDC65;}
	.st46{fill:#F7A280;}
	.st47{fill:#4B331B;}
	.st48{fill:#EFD1B6;}
	.st49{fill:#F8E1C7;}
	.st50{fill:#C4A998;}
	.st51{fill:#B8A395;}
	.st52{fill:#8F7A6F;}
	.st53{fill:#162430;}
	.st54{fill:#FFFFFF;}
	.st55{fill:#939696;}
	.st56{fill:#FDFCFC;}
	.st57{fill:#B7B8B8;}
	.st58{fill:#929595;}
	.st59{fill:#F7F5F4;}
	.st60{fill:#939595;}
	.st61{fill:#949697;}
	.st62{fill:#D9D9D9;}
	.st63{fill:#261D12;}
	.st64{fill:#251E14;}
	.st65{fill:#F07F7D;}
	.st66{fill:#F3F1F0;}
	.st67{fill:#F0EEED;}
	.st68{fill:#F58E4E;}
	.st69{fill:#F8AE5E;}
	.st70{fill:#F9E1C0;}
	.st71{fill:#FAC087;}
	.st72{fill:#3C2613;}
	.st73{fill:#FBF9F9;}
</style>
<g>
	<circle id="silhouette_00000035495376265412884540000002245002687224642477_" class="st28" cx="253.9" cy="249" r="249"/>
	<g>
		<g>
			<path class="st29" d="M476.2,173.5c3.5,9.9,6.1,20,8.2,30.3c4.4,22.2,5.6,44.6,3.6,67.1c-1.8,20.6-6.3,40.7-13.1,60.3
				c-0.2,0.5-0.4,0.9-0.7,1.3c-1.2-0.1-2.2,0.4-3.1,1c-3.1,2.1-6.5,3.6-10,5.1c-16.2,7.3-32.9,13-50.1,17.5
				c-17.3,4.5-35,7.5-52.8,9.5c-12.1,1.4-24.3,2.1-36.4,2.4c-9.8,0.3-19.6-0.4-29.4-0.9c-5.4-0.3-10.7-0.7-16-1.2
				c-9.6-1.1-19.1-2.1-28.6-3.7c-12.3-2.1-24.4-4.6-36.5-7.6c-12.1-3-24-6.6-35.7-10.7c-4.3-1.5-8.8-2.6-12.9-4.8
				c0.1-0.3,0.2-0.7,0.4-0.9c4.9-5.2,2.8-13.1-2.8-16.9c-6.3-4.3-13.1-5.3-20.4-4.4c-5.1,0.7-9.7,2.7-12,7.7c-1,0.1-1.8-0.2-2.7-0.6
				c-10.1-4.8-20.1-9.9-29.8-15.4c-16-9.2-31.3-19.3-45.9-30.4c-11.8-9-23.3-18.4-33.2-29.5c-0.4-0.4-0.7-1.2-1.8-0.9
				c0,1,0.1,2,0,2.9c-0.2,2.3,0.6,4.6-0.5,6.9c-0.8-8.2-0.5-16.5,0.2-24.7c1.6-19.7,5.3-39,11.7-57.8c7.1-20.9,16.6-40.7,29.3-59
				c10.6,5.5,21.9,9.3,33.3,12.8c12.4,3.8,25,7.2,37.8,10.2c9.1,2.1,18.2,4.5,27.4,6.4c13.7,2.8,27.4,5.5,41.1,8
				c13.7,2.6,27.5,5.2,41.2,7.5c24.5,4.1,49,8.4,73.6,12.3c17.5,2.8,35,5.5,52.5,7.9c2.5,0.3,5.3,0,7.6,1.6c-0.3,0.5-0.6,1-1,1.4
				c-3.1,3.8-6.2,7.6-9.3,11.3c-1.4,1.7-1.9,3.6-0.9,5.6c1,2,2.9,2.1,4.9,1.9c7.4-0.6,14.8-1.1,22.2-1.6c1.9-0.1,3.2-1.1,3.6-3
				c0.5-2.6-1.3-4.3-4.3-4.1c-5.4,0.4-10.8,0.7-16.9,1.2c3.8-4.5,7.1-8.5,10.4-12.5c8.2,0.7,16.4,1.7,24.6,1.9
				c13,0.3,26.1,0.4,39-1.3C454,182,465.6,179.4,476.2,173.5z M231.4,348c3,1.4,6,2.1,9.2,0.5c6.1-3.3,8.8-8.7,7.7-15.4
				c-1.4-8.4-9.9-12.8-16.7-8.9C223.6,328.8,221.5,342.8,231.4,348z M331.3,358.5c5.4,0,8.6-0.8,13.1-3c7.4-3.8,8.8-12.2,2.8-17.9
				c-7.3-7.1-23.6-7.6-31.4-1c-4.9,4.2-5.3,11.8-0.7,16.3C319.6,357.1,325.2,358.5,331.3,358.5z M167.5,314.5c9.6,0,17-1.8,23.5-6.2
				c2.9-2,3.6-5.3,1.9-7.9c-1.8-2.6-5-3.1-8.1-1.1c-2.3,1.5-4.7,2.8-7.4,3.4c-11.7,2.4-22,0.5-30.3-8.6c-1.6-1.8-3.7-2.4-6-1.5
				c-2.2,0.9-3.3,2.6-3.4,4.8c-0.1,1.7,0.8,3.2,2,4.5C147.5,310.5,157.6,314.1,167.5,314.5z M316.7,327.4c8.7,0,16.3-2.1,23.1-6.7
				c3.1-2.1,3.9-5.3,2-8c-1.8-2.6-5-3-8.1-0.8c-10.8,7.6-29.8,5.5-37.4-3.8c-1.6-1.9-4.5-2.3-6.5-1.2c-2.2,1.1-3.2,3.7-2.5,6.2
				c0.4,1.4,1.2,2.4,2.2,3.3C297,324.1,306.4,327.2,316.7,327.4z M323.4,222c1.5-1.8,2.6-3,3.6-4.2c3.1-3.7,6.2-7.3,9.2-11
				c1.2-1.4,1.5-3,0.6-4.6c-0.9-1.5-2.4-1.7-4-1.6c-1.6,0.1-3.2,0.2-4.9,0.3c-3.7,0.2-7.5,0.4-11.2,0.8c-1.9,0.2-3,1.3-2.8,3.2
				c0.2,1.9,1.3,2.8,3.3,2.7c1.3-0.1,2.6-0.2,3.8-0.2c2.4-0.2,4.8-0.4,7.5-0.2c-4.2,5.1-8.2,9.9-12.2,14.7c-1.1,1.4-1.8,2.8-0.9,4.6
				c0.9,1.7,2.5,1.7,4.2,1.6c5.2-0.4,10.4-0.8,15.6-1.1c2.5-0.2,3.8-1.3,3.6-3.3c-0.3-2.2-1.8-2.8-3.9-2.6
				C331.3,221.4,327.7,221.7,323.4,222z M286.6,244.1c0.6-0.9,0.9-1.3,1.2-1.7c3.1-3.8,6.2-7.5,9.3-11.3c1-1.3,1.4-2.7,0.5-4.2
				c-0.8-1.4-2.1-1.5-3.6-1.4c-4.3,0.3-8.7,0.6-13.1,0.8c-2,0.1-3.1,0.9-3,2.9c0.1,1.9,1.5,2.4,3.2,2.3c2.8-0.1,5.7,0,8.7,0
				c-0.6,0.8-1.2,1.6-1.8,2.3c-2.8,3.4-5.8,6.7-8.4,10.3c-0.9,1.3-1.3,2.5-0.6,4c0.7,1.4,2,1.6,3.5,1.5c4.6-0.3,9.2-0.6,13.8-0.9
				c1.8-0.1,3-1,2.9-2.8c-0.1-1.9-1.4-2.5-3.2-2.4C293.1,243.7,290.1,243.9,286.6,244.1z"/>
			<path class="st28" d="M449,383c-6.6,10.6-14.5,20.3-23,29.6c-5.5,6-11,11.8-17.3,17c-0.3,0.2-0.5,0.4-0.8,0.6c0,0,0.1,0,0.1,0
				c-1.3,0-2.6-0.2-3.8,0.1c-12.4,2.9-25,4.5-37.6,6c-10.6,1.3-21.2,1.8-31.8,2.2c-11.5,0.5-23-0.1-34.5-0.8
				c-10.4-0.6-20.7-1.4-31.1-2.6c-12.6-1.4-25.2-3.2-37.6-5.7c-13.7-2.7-27.4-5.6-40.9-9.3c-20-5.4-39.7-11.7-59.1-19.1
				c-18.7-7.1-37-15.3-54.4-25c-12.9-7.2-25.5-14.8-37.2-23.9c-1.5-1.1-2.7-2.9-4.9-2.9c0,0,0.1,0,0.1,0c-0.1-0.2-0.3-0.4-0.4-0.6
				c-3.2-7.6-6.4-15.2-9-23.1c-4.5-13.4-7.5-27.1-9.8-41c1.2-0.1,1.8,0.8,2.5,1.5c2.4,2.4,4.6,5,7.1,7.2
				c11.1,9.9,22.8,19.1,35.3,27.3c21.4,14,43.9,26.1,67.6,36c22,9.2,44.4,16.9,67.5,22.8c21.7,5.5,43.6,9.3,66,11.4
				c13.5,1.3,27.1,1.8,40.6,2.3c8.9,0.3,17.8,0,26.6-0.2c11.6-0.3,23.2-0.8,34.8-1.2c5.8-0.2,11.6-0.6,17.4-1.1
				c8.5-0.7,17-1.5,25.4-2.4c8.6-0.9,17.1-1.8,25.7-2.8C438.1,384.6,443.5,383.7,449,383z"/>
			<path class="st30" d="M120.4,50.5C131,43,142.4,37,154.2,31.8c33.3-14.9,68.4-21.9,105-20.4c44.6,1.8,85.9,14.5,123.4,38.3
				c13.7,8.7,25.8,19.4,37.2,30.9c-5.4,4.5-12,6.7-18.5,8.9c-17.9,6-36.4,7.7-55.2,8.1c-10.4,0.2-20.8-0.1-31.2-0.8
				c-7-0.5-13.9-1-20.9-1.8c-11.9-1.3-23.8-3.3-35.6-5.4C232.5,84.9,207,78.7,181.9,71c-16.3-5-32.6-10.1-48.8-15.4
				C128.8,54.2,124.2,53.2,120.4,50.5z"/>
			<path class="st29" d="M120.4,50.5c3.8,2.7,8.4,3.7,12.7,5.2c16.2,5.3,32.5,10.4,48.8,15.4c25.1,7.7,50.6,13.9,76.5,18.5
				c11.8,2.1,23.7,4,35.6,5.4c6.9,0.8,13.9,1.2,20.9,1.8c10.4,0.8,20.8,1.1,31.2,0.8c18.7-0.4,37.3-2.2,55.2-8.1
				c6.5-2.2,13.1-4.3,18.5-8.9c6.9,6.5,13.2,13.6,19,21.1c5,6.4,9.8,12.9,13.8,20c-0.1,0.9-0.7,1.2-1.4,1.7
				c-6.6,4.7-14,7.7-21.6,10.1c-20.4,6.6-41.6,9-63,9.6c-12.5,0.4-25.1-0.4-37.6-1.4c-9-0.7-18-1.7-26.9-2.7
				c-10.7-1.2-21.3-2.7-31.9-4.5c-16.4-2.7-32.8-5.4-49.1-8.6c-16.7-3.2-33.3-6.7-49.8-10.6c-26.3-6.2-52.5-12.8-77.9-22.1
				c-5.1-1.9-10.3-3.6-14.9-6.5c8.9-10.2,19-19.3,29.8-27.5C112.2,56,116.2,53,120.4,50.5z"/>
			<path class="st30" d="M78.5,86.6c4.6,2.9,9.8,4.7,14.9,6.5c25.4,9.3,51.6,15.9,77.9,22.1c16.5,3.9,33.1,7.4,49.8,10.6
				c16.3,3.2,32.7,5.9,49.1,8.6c10.6,1.7,21.2,3.3,31.9,4.5c9,1,17.9,2,26.9,2.7c12.5,1,25,1.7,37.6,1.4c21.4-0.6,42.5-3,63-9.6
				c7.6-2.5,15.1-5.4,21.6-10.1c0.6-0.4,1.3-0.8,1.4-1.7c6.1,9.4,11,19.5,15.4,29.7c3.1,7.3,6.1,14.6,8.2,22.2
				c-10.6,5.9-22.3,8.5-34.3,10.1c-13,1.7-26,1.7-39,1.3c-8.2-0.2-16.4-1.2-24.6-1.9c2.6-3.3,5.4-6.6,7.9-10.1
				c2-2.9,0.1-6.5-3.4-6.3c-7.8,0.4-15.5,0.9-23.2,1.5c-2,0.2-3.3,1.9-3,4c0.3,2.1,1.5,3.1,3.7,3c2-0.1,4.1-0.2,6.1-0.4
				c3.3-0.2,6.5-0.4,10.5-0.7c-2.7,3.3-5,5.9-7.2,8.6c-2.3-1.6-5.1-1.2-7.6-1.6c-17.5-2.4-35-5.1-52.5-7.9
				c-24.6-3.9-49-8.3-73.6-12.3c-13.8-2.3-27.5-4.9-41.2-7.5c-13.7-2.6-27.5-5.2-41.1-8c-9.2-1.9-18.3-4.3-27.4-6.4
				c-12.7-2.9-25.3-6.3-37.8-10.2c-11.4-3.5-22.7-7.3-33.3-12.8C61.9,105.5,69.7,95.7,78.5,86.6z"/>
			<path class="st30" d="M449,383c-5.5,0.8-11,1.6-16.5,2.2c-8.5,1-17.1,1.9-25.7,2.8c-8.5,0.9-17,1.7-25.4,2.4
				c-5.8,0.5-11.6,0.9-17.4,1.1c-11.6,0.4-23.2,0.9-34.8,1.2c-8.9,0.2-17.8,0.5-26.6,0.2c-13.5-0.4-27.1-1-40.6-2.3
				c-22.3-2.1-44.3-5.9-66-11.4c-23.1-5.8-45.6-13.6-67.5-22.8c-23.7-9.9-46.2-22-67.6-36c-12.5-8.2-24.2-17.4-35.3-27.3
				c-2.5-2.2-4.7-4.8-7.1-7.2c-0.7-0.7-1.4-1.5-2.5-1.5c-1.1-9-2.3-17.9-2.3-27c1.1-2.2,0.3-4.6,0.5-6.9c0.1-1,0-2,0-2.9
				c1.1-0.3,1.4,0.4,1.8,0.9c9.9,11.1,21.4,20.5,33.2,29.5c14.6,11.2,29.9,21.3,45.9,30.4c9.7,5.6,19.7,10.6,29.8,15.4
				c0.9,0.4,1.8,0.6,2.7,0.6c-1.9,4.9-0.8,9.2,3.1,12.7c5.9,5.4,13.1,6.7,20.8,6.1c4.1-0.3,7.6-2.1,11-4.3c4,2.2,8.5,3.4,12.9,4.8
				c11.8,4,23.7,7.7,35.7,10.7c12.1,3,24.2,5.5,36.5,7.6c9.5,1.6,19.1,2.7,28.6,3.7c5.3,0.6,10.7,1,16,1.2
				c9.8,0.5,19.6,1.1,29.4,0.9c12.2-0.3,24.3-1,36.4-2.4c17.8-2,35.4-5,52.8-9.5c17.2-4.4,34-10.1,50.1-17.5c3.4-1.5,6.9-3,10-5.1
				c0.9-0.6,1.9-1.1,3.1-1c-2.3,7.8-5.7,15.3-9.3,22.6C460.3,364.8,455.2,374.2,449,383z"/>
			<path class="st31" d="M35.2,349.1c2.2,0,3.4,1.8,4.9,2.9c11.6,9.1,24.3,16.7,37.2,23.9c17.4,9.7,35.7,17.9,54.4,25
				c19.3,7.4,39.1,13.7,59.1,19.1c13.5,3.7,27.2,6.5,40.9,9.3c12.4,2.5,25,4.3,37.6,5.7c10.3,1.2,20.7,2,31.1,2.6
				c11.5,0.7,23,1.3,34.5,0.8c10.6-0.4,21.3-1,31.8-2.2c12.6-1.5,25.2-3,37.6-6c1.2-0.3,2.5-0.1,3.8-0.1
				c-13.2,11.6-27.5,21.7-43.2,29.9c-0.2-0.1-0.3,0-0.4,0.2c0,0,0,0,0,0c-2.1,0-4.3-0.4-6.4,0c-7.3,1.2-14.6,1.6-21.9,1.7
				c-13.4,0.2-26.8,0.6-40.2-0.3c-9.5-0.6-19-1.2-28.5-2c-9.4-0.8-18.8-1.9-28.2-3.3c-18-2.7-36-6.1-53.7-10.3
				c-21.4-5.1-42.6-11.1-63.3-18.5c-15.2-5.5-30-11.9-44.5-19.2c-1.3-0.7-2.7-1.1-4.1-1.2c-9.5-10.4-17.8-21.7-25.2-33.5
				C43.5,365.6,39.1,357.5,35.2,349.1z"/>
			<path class="st30" d="M73.7,407c1.5,0.2,2.8,0.6,4.1,1.2c14.5,7.2,29.2,13.7,44.5,19.2c20.7,7.4,41.8,13.5,63.3,18.5
				c17.8,4.2,35.7,7.6,53.7,10.3c9.3,1.4,18.7,2.4,28.2,3.3c9.5,0.8,19,1.4,28.5,2c13.4,0.8,26.8,0.5,40.2,0.3
				c7.3-0.1,14.6-0.6,21.9-1.7c2.1-0.3,4.3,0,6.4,0c-13.7,7.5-28,13.4-42.9,18.1c-23.7,7.4-48,11.1-72.9,10.6
				c-49.2-1-93.3-16.7-133.1-44.5c-14.6-10.2-27.9-22-40-35C74.9,408.6,74.3,407.8,73.7,407z"/>
			<path class="st31" d="M34.9,348.5c0.1,0.2,0.3,0.4,0.4,0.6C35.2,348.9,35,348.7,34.9,348.5z"/>
			<path class="st31" d="M407.9,430.1c0.3-0.2,0.5-0.4,0.8-0.6C408.5,429.7,408.2,429.9,407.9,430.1z"/>
			<path class="st30" d="M364.4,460.1c0-0.2,0.1-0.3,0.4-0.2C364.7,460.1,364.6,460.1,364.4,460.1z"/>
			<path class="st31" d="M162.6,339c-3.4,2.2-6.9,4-11,4.3c-7.7,0.6-15-0.7-20.8-6.1c-3.9-3.5-4.9-7.8-3.1-12.7
				c2.3-5,6.9-7.1,12-7.7c7.3-1,14.1,0.1,20.4,4.4c5.6,3.8,7.7,11.7,2.8,16.9C162.8,338.3,162.7,338.7,162.6,339z"/>
			<path class="st31" d="M331.3,358.5c-6.1,0-11.7-1.4-16.1-5.7c-4.6-4.5-4.2-12.1,0.7-16.3c7.8-6.6,24-6.1,31.4,1
				c5.9,5.7,4.6,14.2-2.8,17.9C339.9,357.8,336.7,358.5,331.3,358.5z"/>
			<path class="st32" d="M167.5,314.5c-9.9-0.3-20-4-27.8-12.7c-1.2-1.3-2.1-2.7-2-4.5c0.1-2.2,1.2-4,3.4-4.8c2.3-0.9,4.4-0.3,6,1.5
				c8.3,9.1,18.6,11,30.3,8.6c2.7-0.6,5.1-1.9,7.4-3.4c3.1-2,6.3-1.5,8.1,1.1c1.7,2.5,1,5.9-1.9,7.9
				C184.4,312.7,177.1,314.5,167.5,314.5z"/>
			<path class="st32" d="M316.7,327.4c-10.2-0.3-19.7-3.3-27.2-11c-1-1-1.8-2-2.2-3.3c-0.7-2.5,0.3-5.1,2.5-6.2
				c2.1-1.1,5-0.7,6.5,1.2c7.6,9.3,26.5,11.4,37.4,3.8c3.1-2.2,6.3-1.8,8.1,0.8c1.9,2.7,1.1,5.9-2,8
				C333,325.3,325.4,327.4,316.7,327.4z"/>
			<path class="st33" d="M369.6,182.7c2.2-2.7,4.5-5.4,7.2-8.6c-4,0.3-7.2,0.5-10.5,0.7c-2,0.1-4.1,0.3-6.1,0.4
				c-2.1,0.1-3.4-1-3.7-3c-0.3-2,0.9-3.8,3-4c7.7-0.6,15.5-1.2,23.2-1.5c3.6-0.2,5.5,3.4,3.4,6.3c-2.5,3.5-5.2,6.7-7.9,10.1
				c-3.3,4-6.7,7.9-10.4,12.5c6.1-0.4,11.5-0.8,16.9-1.2c3-0.2,4.8,1.5,4.3,4.1c-0.4,1.9-1.7,2.8-3.6,3c-7.4,0.5-14.8,1-22.2,1.6
				c-2,0.1-3.9,0.1-4.9-1.9c-1-2-0.4-3.9,0.9-5.6c3.1-3.8,6.2-7.6,9.3-11.3C368.9,183.7,369.2,183.2,369.6,182.7z"/>
			<path class="st33" d="M323.4,222c4.3-0.3,7.9-0.6,11.6-0.9c2.1-0.2,3.6,0.3,3.9,2.6c0.2,1.9-1.1,3.1-3.6,3.3
				c-5.2,0.4-10.4,0.7-15.6,1.1c-1.7,0.1-3.3,0.1-4.2-1.6c-0.9-1.8-0.2-3.2,0.9-4.6c4-4.8,7.9-9.6,12.2-14.7c-2.7-0.3-5.1,0-7.5,0.2
				c-1.3,0.1-2.6,0.2-3.8,0.2c-2,0.1-3.1-0.8-3.3-2.7c-0.2-1.9,0.9-3,2.8-3.2c3.7-0.3,7.5-0.5,11.2-0.8c1.6-0.1,3.2-0.2,4.9-0.3
				c1.6-0.1,3.1,0.1,4,1.6c0.9,1.7,0.6,3.2-0.6,4.6c-3.1,3.7-6.2,7.3-9.2,11C326,219.1,324.9,220.3,323.4,222z"/>
			<path class="st32" d="M231.4,348c-9.8-5.2-7.8-19.2,0.2-23.8c6.9-4,15.3,0.5,16.7,8.9c1.1,6.7-1.6,12.1-7.7,15.4
				c-2-0.5-0.1-1.1,0.1-1.3c2.2-2.6,2.2-6.5-0.2-8.8c-2.4-2.4-6.1-2.5-8.8-0.3c-2.7,2.3-3,5.8-0.9,8.7
				C231.1,347.2,231.8,347.4,231.4,348z"/>
			<path class="st33" d="M286.6,244.1c3.5-0.2,6.5-0.4,9.5-0.6c1.8-0.1,3.1,0.5,3.2,2.4c0.1,1.8-1.1,2.7-2.9,2.8
				c-4.6,0.3-9.2,0.6-13.8,0.9c-1.4,0.1-2.8-0.1-3.5-1.5c-0.7-1.4-0.3-2.7,0.6-4c2.6-3.6,5.6-6.9,8.4-10.3c0.6-0.8,1.2-1.5,1.8-2.3
				c-3,0-5.8,0-8.7,0c-1.8,0-3.1-0.4-3.2-2.3c-0.1-2,1.1-2.8,3-2.9c4.4-0.2,8.7-0.5,13.1-0.8c1.4-0.1,2.8,0,3.6,1.4
				c0.9,1.5,0.5,2.9-0.5,4.2c-3.1,3.8-6.2,7.5-9.3,11.3C287.5,242.8,287.2,243.2,286.6,244.1z"/>
			<path class="st28" d="M231.4,348c0.4-0.6-0.3-0.8-0.5-1.2c-2.2-2.9-1.8-6.4,0.9-8.7c2.6-2.2,6.4-2.1,8.8,0.3
				c2.4,2.3,2.4,6.2,0.2,8.8c-0.2,0.2-2.1,0.8-0.1,1.3C237.4,350.2,234.4,349.5,231.4,348z"/>
		</g>
	</g>
</g>
</svg>
