<?xml version="1.0" encoding="utf-8"?>
<!-- Generator: Adobe Illustrator 27.9.1, SVG Export Plug-In . SVG Version: 6.00 Build 0)  -->
<svg version="1.1" id="Layer_1" xmlns="http://www.w3.org/2000/svg" xmlns:xlink="http://www.w3.org/1999/xlink" x="0px" y="0px"
	 viewBox="0 0 500 500" style="enable-background:new 0 0 500 500;" xml:space="preserve">
<style type="text/css">
	.st0{fill:#5593CE;}
	.st1{fill:#F58A21;}
	.st2{fill:#FCFBFB;}
	.st3{fill:#FECF3F;}
	.st4{fill:#F37769;}
	.st5{fill:#3E2A15;}
	.st6{fill:#FBBC1F;}
	.st7{fill:#FED653;}
	.st8{fill:#473219;}
	.st9{fill:#F69B84;}
	.st10{fill:#77D1F3;}
	.st11{fill:#61A143;}
	.st12{fill:#84C2EA;}
	.st13{fill:#F59892;}
	.st14{fill:#412F19;}
	.st15{fill:#FCFBFA;}
	.st16{fill:#E45E39;}
	.st17{fill:#C45234;}
	.st18{fill:#C45235;}
	.st19{fill:#F26C57;}
	.st20{fill:#382917;}
	.st21{fill:#FDFCFB;}
	.st22{fill:#EC8524;}
	.st23{fill:#F8B032;}
	.st24{fill:#F59B28;}
	.st25{fill:#F5856B;}
	.st26{fill:#3C2916;}
	.st27{fill:#FBFAF9;}
	.st28{fill:#67BDC6;}
	.st29{fill:#B1DFE5;}
	.st30{fill:#9DD5DD;}
	.st31{fill:#8BCBD5;}
	.st32{fill:#152732;}
	.st33{fill:#215D6B;}
	.st34{fill:#4C74B9;}
	.st35{fill:#7DA9DA;}
	.st36{fill:#121D2B;}
	.st37{fill:#8C9CCF;}
	.st38{fill:#F3F2F3;}
	.st39{fill:#B54C33;}
	.st40{fill:#D67140;}
	.st41{fill:#E88F53;}
	.st42{fill:#F8AD71;}
	.st43{fill:#28201B;}
	.st44{fill:#FCC330;}
	.st45{fill:#FDDC65;}
	.st46{fill:#F7A280;}
	.st47{fill:#4B331B;}
	.st48{fill:#EFD1B6;}
	.st49{fill:#F8E1C7;}
	.st50{fill:#C4A998;}
	.st51{fill:#B8A395;}
	.st52{fill:#8F7A6F;}
	.st53{fill:#162430;}
	.st54{fill:#FFFFFF;}
	.st55{fill:#939696;}
	.st56{fill:#FDFCFC;}
	.st57{fill:#B7B8B8;}
	.st58{fill:#929595;}
	.st59{fill:#F7F5F4;}
	.st60{fill:#939595;}
	.st61{fill:#949697;}
	.st62{fill:#D9D9D9;}
	.st63{fill:#261D12;}
	.st64{fill:#251E14;}
	.st65{fill:#F07F7D;}
	.st66{fill:#F3F1F0;}
	.st67{fill:#F0EEED;}
	.st68{fill:#F58E4E;}
	.st69{fill:#F8AE5E;}
	.st70{fill:#F9E1C0;}
	.st71{fill:#FAC087;}
	.st72{fill:#3C2613;}
	.st73{fill:#FBF9F9;}
</style>
<g>
	<path class="st48" d="M16.5,180.8c8.1-29.4,21.8-56.1,40.2-80.4c24.5-32.4,54.6-57.9,91.1-75.7c34.8-17,71.6-26,110.4-24.5
		c60.3,2.3,112.8,24.1,156.5,66c42,40.3,67.2,89.5,76.1,146.9c8.1,52.4-0.6,102.4-23.6,150.1c-0.5,0.9-1.1,1.8-1.6,2.7
		c-3.4-1.9-7.2-1.6-10.9-1.6c-6.6,0-11.3-4.1-12.7-10.6c-1.1-5.4-2.9-11-8-13.7c-7.2-3.8-7.6-9.7-6.7-16.3
		c0.9-6.1-3.1-14.8-8.1-18.1c-4.7-3.1-8.5-6.9-9.6-13c-0.9-5.2,0-10.3-0.2-15.5c-0.4-16.6-15.9-31.8-33.1-32.2
		c-6.4-0.2-12.3,1.8-18.1,4.2c-6,2.5-12,3.2-18.2,0.4c-2.1-0.9-4.2-2-6.6-2.5c-5.4-1.1-10.9-0.6-16.3-0.6
		c-15.6,0.2-29.9-10.3-33.1-25.5c-2.2-10.2-8.4-17.2-19-19.7c-8-1.9-13.8-6.6-17.9-13.9c-3.3-5.9-8.3-10.3-14.4-13.7
		c-7.5-4.2-15.4-5.1-23.6-4.7c-11.9,0.6-21.6,5.8-29.1,14.8c-4.8,5.7-9.9,10.5-17.7,11.2c-3.5,0.3-7.1,0.3-10.6,0.2
		c-3.7-0.1-7.3,0.7-10.7,2.1c-11.2,4.8-18.5,12.9-20.1,25.3c-1.2,9.9-4.8,17.9-14.7,21.9c-4.3,1.8-7.1,5.4-8.8,9.7
		c-4-5.7-9.4-9.4-15.9-11.8c-2.4-0.9-4.6-2.3-6.5-4.1c-7.7-7.4-8.6-17.3-2.5-27.8c1.9-3.3,3.8-6.5,4.6-10.3c1.5-7.2-1.3-14.9-6.8-18
		c-5.8-3.3-13.4-1.9-18.8,3.3c-2,2-3.9,4.1-6,6c-6,5.5-15.8,3.6-19.3-3.6c-1.8-3.7-4.2-6.3-8.6-6C16.8,182,16.8,181.3,16.5,180.8z
		 M96.8,92.2c-15.4,0-29.3,12.8-31.1,28.1c-1.8,15.6,10.4,26,24.5,25.1c10.2-0.6,18.1-5.7,24-13.8c3.6-5,6.1-10.7,5.9-16.7
		C119.8,100.5,108.9,91.3,96.8,92.2z M443.7,251.4c12.5,0.8,25-11,25.2-25.8c0.1-12.5-8.5-21.4-21.4-21.7
		c-14.3-0.3-25.5,12.3-25.8,27.1C421.5,241.5,430.6,252.3,443.7,251.4z M183.6,73.1c0-7.1-4-12.4-10.8-14.3
		c-8.7-2.3-18.2,1.3-23.2,8.9c-4.8,7.5-4.1,16,1.9,21.2c4.5,3.8,9.7,4.2,15.3,3.3C174.2,91.1,184.5,82.6,183.6,73.1z M428,139.8
		c-5.8,0-10.7,4.3-10.5,10.1c0.2,6.5,3.1,10,10.5,10.3c5.4,0.2,9.8-4.6,9.8-10.4C437.8,143.7,434.1,139.8,428,139.8z M166.5,155.2
		c0-5.4-3.9-8.8-9.9-9c-6.9-0.3-10.8,4.8-11.2,11c-0.2,4.3,4.8,8.8,9.4,8.8C161,166.1,166.4,161.1,166.5,155.2z M435.5,274.7
		c-4.4-0.1-8.1,3.4-8.3,7.9c-0.1,3.8,3.5,7.4,7.8,7.7c3.9,0.2,7.8-3.7,7.8-8C442.9,278.3,439.5,274.9,435.5,274.7z M407.1,104.3
		c-4.2,0-7.5,3.4-7.6,7.7c0,3.7,4.3,7.9,8.2,7.8c3.5,0,7.3-3.9,7.3-7.4C415.1,107.8,411.6,104.3,407.1,104.3z"/>
	<path class="st49" d="M454.7,364.2c-6.6,0-11.3-4.1-12.7-10.6c-1.1-5.4-2.9-11-8-13.7c-7.2-3.8-7.6-9.7-6.7-16.3
		c0.9-6.1-3.1-14.8-8.1-18.1c-4.7-3.1-8.5-6.9-9.6-13c-0.9-5.2,0-10.3-0.2-15.5c-0.4-16.6-15.9-31.8-33.1-32.2
		c-6.4-0.2-12.3,1.8-18.1,4.2c-6,2.5-12,3.2-18.2,0.4c-2.1-0.9-4.2-2-6.6-2.5c-5.4-1.1-10.9-0.6-16.3-0.6
		c-15.6,0.2-29.9-10.3-33.1-25.5c-2.2-10.2-8.4-17.2-19-19.7c-8-1.9-13.8-6.6-17.9-13.9c-3.3-5.9-8.3-10.3-14.4-13.7
		c-7.5-4.2-15.4-5.1-23.6-4.7c-11.9,0.6-21.6,5.8-29.1,14.8c-4.8,5.7-9.9,10.5-17.7,11.2c-3.5,0.3-7.1,0.3-10.6,0.2
		c-3.7-0.1-7.3,0.7-10.7,2.1c-11.2,4.8-18.5,12.9-20.1,25.3c-1.2,9.9-4.8,17.9-14.7,21.9c-4.3,1.8-7.1,5.4-8.8,9.7
		c1.2,3.3,2.6,6.6,3,10.1c0.8,7.5-1.8,13.6-6.9,19c-6.3,6.7-9.8,14.5-7.3,23.9c1.7,6.5,5.8,11.4,11.7,14.5
		c12.3,6.3,15.4,17.4,11.6,29.2c-4.7,14.9,3.4,33.2,17.5,40.8c6.5,3.5,13.3,5.4,20.7,5.2c7.1-0.2,14.2-0.8,21.1,1.8
		c7.6,2.8,12.8,7.8,15,15.7c2.9,10.4,10,13.9,20,9.5c12.5-5.4,22.2,0.8,25.8,9.2c1.1,2.5,1.5,5.2,1.8,7.9
		c1.3,12.1,8.8,18.8,19.3,23.3c5.8,2.5,12.1,3.3,18.1,5c7.7,2.2,15,5.2,20.3,11.5c3.3,3.9,5.2,8.3,2.3,13.3c-1.1,2,0,2.2,1.5,2.2
		c6.8-1,13.5-2.7,20-4.5c53.7-15.3,97.3-45.3,130.7-90.1c8.4-11.3,16.2-23,21.9-36C462.2,364,458.4,364.2,454.7,364.2z"/>
	<path class="st50" d="M97.6,254.3c1.2,3.3,2.6,6.6,3,10.1c0.8,7.5-1.8,13.6-6.9,19c-6.3,6.7-9.8,14.5-7.3,23.9
		c1.7,6.5,5.8,11.4,11.7,14.5c12.3,6.3,15.4,17.4,11.6,29.2c-4.7,14.9,3.4,33.2,17.5,40.8c6.5,3.5,13.3,5.4,20.7,5.2
		c7.1-0.2,14.2-0.8,21.1,1.8c7.6,2.8,12.8,7.8,15,15.7c2.9,10.4,10,13.9,20,9.5c12.5-5.4,22.2,0.8,25.8,9.2c1.1,2.5,1.5,5.2,1.8,7.9
		c1.3,12.1,8.8,18.8,19.3,23.3c5.8,2.5,12.1,3.3,18.1,5c7.7,2.2,15,5.2,20.3,11.5c3.3,3.9,5.2,8.3,2.3,13.3c-1.1,2,0,2.2,1.5,2.2
		c-6.2,1.7-12.6,2.2-18.9,2.7c-74.9,5.9-138.9-18.3-192.6-70.2c-39.1-37.8-62.4-84.2-71.7-137.7c-6.5-37.1-4.1-73.7,6.3-109.9
		c0.1-0.2,0.3-0.4,0.4-0.6c0.2,0.5,0.2,1.2,1.1,1.1c4.5-0.3,6.9,2.3,8.6,6c3.5,7.3,13.2,9.1,19.3,3.6c2.1-1.9,4-4,6-6
		c5.5-5.3,13.1-6.6,18.8-3.3c5.5,3.1,8.3,10.8,6.8,18c-0.8,3.8-2.6,7-4.6,10.3c-6.2,10.5-5.2,20.4,2.5,27.8c1.9,1.8,4.2,3.3,6.5,4.1
		C88.2,244.8,93.6,248.6,97.6,254.3z M40.6,281.9c6.3,0,10.7-4.4,12.1-12.1c1.4-7.9-3.7-17.7-13.8-16.5c-5.8,0.7-10.9,7.1-10.9,14.5
		C28,276,33.4,282,40.6,281.9z M107.1,423.3c6.6,1,11.5-6.9,10.2-12.6c-1.6-7.1-6.1-11.6-12.7-14.1c-5.7-2.1-12.1,1.4-13.5,7.3
		C88.9,413.1,97.2,423.2,107.1,423.3z"/>
	<path class="st51" d="M96.8,92.2c12.1-0.8,23,8.3,23.4,22.6c0.2,6.1-2.3,11.8-5.9,16.7c-6,8.2-13.8,13.2-24,13.8
		c-14.1,0.8-26.3-9.6-24.5-25.1C67.4,104.9,81.4,92.2,96.8,92.2z"/>
	<path class="st51" d="M443.7,251.4c-13.1,1-22.1-9.8-22-20.4c0.2-14.7,11.5-27.3,25.8-27.1c12.9,0.2,21.5,9.1,21.4,21.7
		C468.7,240.3,456.2,252.2,443.7,251.4z"/>
	<path class="st51" d="M183.6,73.1c0.9,9.4-9.5,18-16.8,19.1c-5.6,0.9-10.8,0.5-15.3-3.3c-6-5.1-6.7-13.7-1.9-21.2
		c4.9-7.6,14.4-11.3,23.2-8.9C179.6,60.7,183.7,66,183.6,73.1z"/>
	<path class="st51" d="M428,139.8c6,0,9.8,3.9,9.8,10.1c0,5.7-4.4,10.6-9.8,10.4c-7.3-0.3-10.2-3.8-10.5-10.3
		C417.4,144.2,422.2,139.8,428,139.8z"/>
	<path class="st51" d="M166.5,155.2c0,5.9-5.4,10.9-11.7,10.8c-4.6-0.1-9.6-4.6-9.4-8.8c0.3-6.2,4.2-11.3,11.2-11
		C162.6,146.4,166.5,149.8,166.5,155.2z"/>
	<path class="st51" d="M435.5,274.7c4,0.1,7.3,3.6,7.3,7.6c0,4.2-3.9,8.2-7.8,8c-4.2-0.2-7.9-3.8-7.8-7.7
		C427.4,278.2,431.1,274.6,435.5,274.7z"/>
	<path class="st51" d="M407.1,104.3c4.5-0.1,8,3.5,7.9,8.1c0,3.5-3.8,7.3-7.3,7.4c-3.9,0.1-8.2-4.1-8.2-7.8
		C399.6,107.7,402.9,104.4,407.1,104.3z"/>
	<path class="st51" d="M162.3,351.4c6.3,3.9,13.2,5.3,20.6,5.3c-1.8,1.1-3.9,0-5.8,0.6c0,0.3,0,0.6,0.1,0.7c7.3,7.8,2.6,15.4-4.9,18
		c-9.2,3.2-18.2,2-26.5-2.9c-3.8-2.2-5.9-5.8-5.3-10.5c0.6-4.9,4.5-7,8.4-8.8c3-1.4,6.4-1.6,9.7-1.7
		C159.7,352.2,161.2,352.8,162.3,351.4z"/>
	<path class="st51" d="M344.1,365.7c3.1-0.7,6.2-1.4,9.3-2.1c2.2,1.5,4.6,0.5,6.9,0.6c5.6,0.4,10.6,2.2,14.6,6.2
		c4.4,4.4,3.9,10.6-1,14.4c-8.1,6.3-25.3,5.8-32.9-0.9c-4.7-4.2-4.3-12,0.9-16.2C342.5,367.1,343.7,366.9,344.1,365.7z"/>
	<path class="st51" d="M352.5,431.8c0-6.9,5.2-13.4,12.3-15.6c6.9-2.1,14.2,0.1,17.7,5.3c3.2,4.8,2.7,10-1.5,15.7
		c-6.2,8.4-19.1,9.7-25.8,2.6C353,437.5,352.5,435.9,352.5,431.8z"/>
	<path class="st51" d="M422.2,386.4c0.1-4.8,3.4-8,8.1-7.9c3.9,0.1,6.8,2.9,6.8,6.7c0,4-4.3,8.2-8.2,8.2
		C424.6,393.3,422.1,390.7,422.2,386.4z"/>
	<path class="st52" d="M40.6,281.9c-7.3,0-12.6-6-12.6-14.1c0-7.4,5.1-13.8,10.9-14.5c10-1.1,15.2,8.6,13.8,16.5
		C51.4,277.5,46.9,281.9,40.6,281.9z"/>
	<path class="st52" d="M107.1,423.3c-9.9-0.1-18.2-10.2-16-19.4c1.4-5.8,7.8-9.4,13.5-7.3c6.6,2.5,11,6.9,12.7,14.1
		C118.6,416.4,113.7,424.3,107.1,423.3z"/>
	<path class="st53" d="M175.4,333.4c-0.2,2.1-1.3,3.4-3.2,3.4c-2,0.1-3.5-0.8-3.6-3c-0.1-2.2,1.3-3.3,3.2-3.5
		C174,330.2,174.9,331.8,175.4,333.4z"/>
	<path class="st53" d="M333.2,345.7c-2.2-0.1-3.6-1.2-3.7-3.2c-0.1-2.2,1.3-3.6,3.5-3.6c2.2-0.1,3.6,1.3,3.5,3.5
		C336.4,344.4,335,345.5,333.2,345.7z"/>
	<g>
		<path class="st53" d="M103.9,316.9c-31.4-21.2-29-68.4,2.5-87c17.7-10.5,40-9.3,56.9,3.2c16.7,12.4,24,34.7,18.3,55.6
			c-5.3,19.3-21.8,33.5-42.1,36.1c-0.9,0.1-1.9,0.3-2.8,0.5C125,325.4,113.9,323.1,103.9,316.9z M162.5,263.4
			c-0.1-9.2-7.9-16.7-17.2-16.5c-9.6,0.2-17.1,7.9-16.9,17.4c0.2,9,7.8,16.4,16.8,16.3C154.7,280.6,162.7,272.6,162.5,263.4z
			 M124.7,288.2c-0.8-2.6-2.2-5.1-5.7-4.9c-3.1,0.3-5.3,2.1-5.2,5.5c0.2,3.5,2.6,5,5.8,4.8C122.7,293.6,124.3,291.6,124.7,288.2z"/>
		<path class="st53" d="M393.6,339.7c-28.3,1.5-47.9-16.2-53.6-37.1c-5.6-20.2,0.9-41.6,17.2-54.4c17.1-13.4,35.7-15.5,55-5.4
			c19.6,10.3,28.9,27.5,27.6,49.3c-1.3,20.6-12.5,35.5-31.4,44.2C403.4,337.4,398.5,338.5,393.6,339.7z M418.8,277.7
			c0-9.3-7.6-16.9-16.9-17c-8.9-0.1-17.4,8.6-17.2,17.6c0.2,8.9,7.9,16.6,16.7,16.7C410.8,295,418.8,287,418.8,277.7z M376.2,307.8
			c2.9-0.4,5.2-2.1,5.3-5.3c0.1-3.5-2.2-5.7-5.7-5.6c-3.4,0.1-5.7,2.3-5.5,5.8C370.5,305.9,372.7,307.7,376.2,307.8z"/>
		<path class="st53" d="M257.5,325.7c13.6,0.8,25,8,32.4,21.4c3,5.4,1.9,10.5-2.4,12.9c-4.5,2.5-9.2,1.1-12.5-3.9
			c-9.9-14.7-26.6-15.9-38.8-2.7c-3.8,4.1-9.2,4.9-13.1,1.9c-3.7-2.8-4-7.8-0.4-12.6C231.1,331.9,241.8,325.7,257.5,325.7z"/>
		<path class="st53" d="M118.8,205.5c-3.8-0.3-7.8,0.7-8.3-3.8c-0.5-4.2,2.9-5,6.3-5.7c13.6-2.7,25.4-8.8,35.4-18.4
			c2.7-2.6,5.7-5.3,9.2-2.1c3.8,3.4,1.4,6.9-1.2,9.8C148.9,197.7,134.5,203.7,118.8,205.5z"/>
		<path class="st53" d="M410.6,221.3c-15.6-2.1-29.2-8.1-40.1-19.7c-1-1.1-1.8-2.4-2.6-3.7c-1.7-2.7-2-5.4,0.4-7.7
			c2.7-2.4,5.2-1,7.5,1c0.6,0.5,1.1,1.1,1.6,1.6c9,9.2,19.8,15.5,32.2,18.9c0.9,0.3,1.8,0.5,2.7,0.7c2.8,0.7,5,1.9,4.9,5.2
			C417.1,220.1,414.9,221.3,410.6,221.3z"/>
		<path class="st54" d="M162.5,263.4c0.1,9.2-7.9,17.1-17.3,17.2c-9,0.1-16.6-7.3-16.8-16.3c-0.2-9.5,7.3-17.3,16.9-17.4
			C154.6,246.8,162.4,254.3,162.5,263.4z"/>
		<path class="st54" d="M418.8,277.7c0,9.3-8,17.2-17.3,17.2c-8.8,0-16.5-7.7-16.7-16.7c-0.2-9,8.3-17.7,17.2-17.6
			C411.2,260.8,418.8,268.5,418.8,277.7z"/>
	</g>
</g>
</svg>
