<?xml version="1.0" encoding="utf-8"?>
<!-- Generator: Adobe Illustrator 27.9.1, SVG Export Plug-In . SVG Version: 6.00 Build 0)  -->
<svg version="1.1" xmlns="http://www.w3.org/2000/svg" xmlns:xlink="http://www.w3.org/1999/xlink" x="0px" y="0px"
	 viewBox="0 0 285.3 200" style="enable-background:new 0 0 285.3 200;" xml:space="preserve">
<style type="text/css">
	.st0{fill:#F59B28;}
	.st1{fill:#B54C33;}
	.st2{fill:#FFFFFF;}
	.st3{fill:#EDCA9F;}
	.st4{fill:#F9E1C0;}
	.st5{fill:#FBDE84;}
	.st6{fill:#0C0C0C;}
	.st7{fill:#F05979;}
	.st8{fill:#719190;}
	.st9{fill:#FFFFFF;stroke:#000000;stroke-miterlimit:10;}
	.st10{fill:#B7B8B8;}
	.st11{fill:#5BA0A5;}
	.st12{fill:#B1DFE5;}
	.st13{fill:#E45E39;}
	.st14{fill:#FBFAF9;}
	.st15{fill:#8BCBD5;}
	.st16{fill:#121C2B;}
	.st17{fill:#FBF9F9;}
	.st18{fill:#0D1117;}
	.st19{fill:#4AA146;}
	.st20{fill:#C96E43;}
	.st21{fill:#4C74B9;}
	.st22{fill:#FED653;}
</style>
<g id="Layer_1">
	<path class="st0" d="M421.9,86.9c-0.2,2.2-0.3,4.5-0.3,6.8c0,8.1,1.8,16.4,4.4,23.9h-70L421.9,86.9z"/>
	<path class="st1" d="M544.6,0.5h-92.9c-22.9,0-41.5,18.6-41.5,41.5v51.1h175.9V42C586.1,19.1,567.5,0.5,544.6,0.5z"/>
	<path class="st0" d="M640.4,117.5h-73.7c2.8-7.5,4.2-15.8,4.2-23.9c0-2.3-0.1-4.5-0.4-6.8L640.4,117.5z"/>
	<path class="st2" d="M571.8,70.4V69V39c0-0.8,0.1-1.6,0.4-2.3l3.9-12.1c1.8-5.5-3.1-10.9-8.8-9.6l-20.8,4.7c-0.5,0.1-1,0.2-1.6,0.2
		l-48.8,0.6l-48.8-0.6c-0.5,0-1-0.1-1.6-0.2L424.9,15c-5.7-1.3-10.6,4.1-8.8,9.6l3.9,12.1c0.2,0.7,0.4,1.5,0.4,2.3v30v1.4v30
		c0,0.8-0.1,1.6-0.4,2.3l-3.9,12.1c-1.8,5.5,3.1,10.9,8.8,9.6l20.8-4.7c0.5-0.1,1-0.2,1.6-0.2l48.8-0.6l48.8,0.6
		c0.5,0,1,0.1,1.6,0.2l20.8,4.7c5.7,1.3,10.6-4.1,8.8-9.6l-3.9-12.1c-0.2-0.7-0.4-1.5-0.4-2.3V70.4z"/>
	<circle class="st3" cx="441.7" cy="80.5" r="12.1"/>
	<circle class="st3" cx="554.6" cy="80.5" r="12.1"/>
	<path class="st4" d="M547.9,117.5c6.9-9.8,10.9-21.8,10.9-34.7c0-33.5-27.2-60.6-60.6-60.6s-60.6,27.2-60.6,60.6
		c0,12.9,4,24.8,10.9,34.7H547.9z"/>
	<path class="st5" d="M640.4,117.5H356v24.9c0,31.8,25.8,57.6,57.6,57.6h169.2c31.8,0,57.6-25.8,57.6-57.6V117.5z"/>
	<g>
		<line x1="406" y1="84.9" x2="406.5" y2="85.7"/>
		<line x1="356" y1="117.9" x2="355.5" y2="117"/>
	</g>
	<circle class="st6" cx="474.7" cy="76.7" r="6.8"/>
	<circle class="st6" cx="521.6" cy="76.7" r="6.8"/>
	<ellipse class="st7" cx="470.5" cy="90.5" rx="6.7" ry="2"/>
	<ellipse class="st7" cx="524.3" cy="90.5" rx="6.7" ry="2"/>
	<path class="st8" d="M253.7,113.3c-26.1-12-66.2-19.6-111.1-19.6s-84.9,7.7-111.1,19.6H0v41.3h1.7c10.7,25.2,69.7,44.5,140.9,44.5
		s130.2-19.3,140.9-44.5h1.7v-41.3H253.7z"/>
	<g>
		<g>
			<circle class="st9" cx="41.7" cy="158.6" r="17.4"/>
			<circle class="st9" cx="243.6" cy="158.6" r="17.4"/>
		</g>
	</g>
	<g>
		<ellipse class="st10" cx="142.6" cy="113.8" rx="142.6" ry="29.2"/>
		<path d="M142.6,143.5c-38.1,0-74-3-101-8.6c-27.2-5.6-42.2-13.1-42.2-21.1c0-8.1,15-15.6,42.2-21.1c27-5.5,62.8-8.6,101-8.6
			s74,3,101,8.6c27.2,5.6,42.2,13.1,42.2,21.1c0,8.1-15,15.6-42.2,21.1C216.6,140.5,180.8,143.5,142.6,143.5z M142.6,85.1
			c-38.1,0-73.9,3-100.8,8.5C15.6,99,0.5,106.4,0.5,113.8c0,7.4,15.1,14.8,41.4,20.2c26.9,5.5,62.7,8.5,100.8,8.5s73.9-3,100.8-8.5
			c26.3-5.4,41.4-12.7,41.4-20.2c0-7.4-15.1-14.8-41.4-20.2C216.5,88.1,180.7,85.1,142.6,85.1z"/>
	</g>
	<path class="st11" d="M142.6,84.6c-34.8,0-62.4,1.4-87.1,5.7l-4.4,22.4c0,21.3,56.1,27.4,89.3,27.6h4.5h0
		c33.1-0.2,89.2-6.3,89.2-27.6l-5-22.1C204.4,86.3,177.5,84.6,142.6,84.6z"/>
	<g>
		<path class="st12" d="M144.9,135.2h-4.4c-47.3-0.3-84.3-10.2-84.3-22.6V68.1C56.2,31.1,95,1,142.6,1c23.1,0,44.8,7,61.1,19.6
			c16.4,12.7,25.4,29.6,25.4,47.5v44.5C229.1,125,192.1,134.9,144.9,135.2z"/>
	</g>
	<circle class="st1" cx="498.1" cy="154" r="40.2"/>
	<path class="st13" d="M505.7,16.5c0,0,9.6,2.7,3.5,10.8c-4.3,5.6-11.9,3.4-16.1,1.6c-0.9-0.7-1.9-1.2-3-1.6c0,0,0,0,0,0l0,0
		c-0.9-0.3-1.9-0.4-3-0.4c-5.5,0-10,4.5-10,10c0,5.5,3.3,10.3,10,10c0,0,28.6,3.8,33.5-15.2S510.7,13.4,505.7,16.5z"/>
	<path class="st6" d="M497.3,111.3L497.3,111.3c-5.7,0-10.3-4.6-10.3-10.3v-6h20.6v6C507.6,106.7,503,111.3,497.3,111.3z"/>
	<rect x="490.1" y="95" class="st14" width="6" height="6"/>
	<g>
		<g>
			<path class="st15" d="M829.9,1110.6c0.1,0.1,0.1,0.2,0.2,0.3C830,1110.8,830,1110.7,829.9,1110.6z"/>
		</g>
	</g>
	<circle class="st3" cx="770.5" cy="76.8" r="10.2"/>
	<circle class="st3" cx="894" cy="76.8" r="10.2"/>
	<path class="st4" d="M880.9,117.5c6.9-9.8,10.9-21.8,10.9-34.7c0-33.5-27.2-60.6-60.6-60.6c-33.5,0-60.6,27.2-60.6,60.6
		c0,12.9,4,24.8,10.9,34.7H880.9z"/>
	<path class="st16" d="M831.1,84.6c-22.6,0-42,13.7-50.3,33.3h8.5H802h4.9c5.5-7.5,14.3-12.3,24.2-12.3c9.9,0,18.8,4.8,24.2,12.3
		h4.9H873h8.5C873.2,98.3,853.8,84.6,831.1,84.6z"/>
	<path class="st13" d="M831.1,22.2c-25.7,0-47.6,15.9-56.4,38.4c1.1-1.3,29.4-34.7,62.7-21c20.1,8.3,35.8,12.4,44.5,10.1
		C871.2,33.2,852.4,22.2,831.1,22.2z"/>
	<path class="st10" d="M918.6-0.2h-175c-9.5,0-17.5,7.2-18.5,16.7l-12.4,121.3h236.8L937.2,16.6C936.2,7.1,928.2-0.2,918.6-0.2z
		 M725.8,117.9l19.1-98.1h172.5l19.1,98.1H725.8z"/>
	<path class="st10" d="M973.8,158.9c0-21.6-9.6-39.3-21.8-40.9v-0.1H712v0c-13,0.1-23.5,18.5-23.5,41.1S699,199.9,712,200v0h239.9
		v-0.1C964.2,198.3,973.8,180.6,973.8,158.9z"/>
	<path class="st17" d="M965.3,135.8c-3.4-7.8-8.4-13.1-13.9-13.8l-0.7-0.1H712.6l-0.5,0c-6,0.1-11.5,5.6-15.1,13.9H965.3z"/>
	<g>
		<path class="st18" d="M945.2,139.5H718c-10.7,0-19.5,8.7-19.5,19.5v0c0,10.7,8.7,19.5,19.5,19.5h227.2c10.7,0,19.5-8.7,19.5-19.5
			v0C964.6,148.2,955.9,139.5,945.2,139.5z"/>
		<circle class="st9" cx="730.2" cy="158.6" r="17.4"/>
		<circle class="st9" cx="932.1" cy="158.6" r="17.4"/>
	</g>
	<path class="st1" d="M831.1,113.3c-22.5,0-40.7,18.3-40.7,40.7c0,22.5,18.3,40.7,40.7,40.7s40.7-18.3,40.7-40.7
		C871.9,131.6,853.6,113.3,831.1,113.3z"/>
	<circle class="st3" cx="875.5" cy="87.1" r="2.5"/>
	<circle class="st3" cx="874.4" cy="96.2" r="2.5"/>
	<circle class="st3" cx="885.8" cy="81" r="2.5"/>
	<circle class="st3" cx="824.1" cy="55.6" r="2.5"/>
	<circle class="st3" cx="836.8" cy="51.3" r="2.5"/>
	<circle class="st3" cx="882.5" cy="98.7" r="2.5"/>
	<circle class="st3" cx="782.8" cy="87.7" r="2.5"/>
	<circle class="st3" cx="791.4" cy="94.7" r="2.5"/>
	<circle class="st3" cx="780.3" cy="107.4" r="2.5"/>
	<circle class="st3" cx="781.3" cy="97.5" r="2.5"/>
	<circle class="st3" cx="776.9" cy="79.4" r="2.5"/>
	<g>
		<rect x="753.6" y="169.3" class="st10" width="30.6" height="2.2"/>
		<rect x="753.6" y="160.2" class="st10" width="30.6" height="2.2"/>
		<rect x="753.6" y="151.1" class="st10" width="30.6" height="2.2"/>
	</g>
	<g>
		<rect x="876.5" y="169.3" class="st10" width="30.6" height="2.2"/>
		<rect x="876.5" y="160.2" class="st10" width="30.6" height="2.2"/>
		<rect x="876.5" y="151.1" class="st10" width="30.6" height="2.2"/>
	</g>
	<g>
		<rect x="710.3" y="187.5" class="st18" width="83.7" height="5"/>
		<rect x="868.3" y="187.5" class="st18" width="83.7" height="5"/>
	</g>
	<g>
		<polygon class="st17" points="716.7,98.7 714.8,117.9 725.8,117.9 729.6,98.7 		"/>
		<polygon class="st17" points="932.7,98.7 936.5,117.9 947.5,117.9 945.5,98.7 		"/>
	</g>
	<path class="st17" d="M759.3,24.7L748,41.4C748,41.4,761.6,33.3,759.3,24.7z"/>
	<path class="st17" d="M769.4,28l-15.6,23.3C753.8,51.3,772.7,40,769.4,28z"/>
	<path class="st19" d="M202.9,83.3c0-33.3-27-60.2-60.2-60.2h0c-33.3,0-60.2,27-60.2,60.2v45.7c15,3.8,35.4,6.3,58,6.4h4.4
		c22.6-0.1,43-2.6,58-6.4V83.3z"/>
	<g>
		<g>
			<circle class="st6" cx="141.8" cy="64.2" r="27"/>
			<circle class="st2" cx="126.3" cy="55" r="5.4"/>
			<circle class="st2" cx="134.2" cy="69.2" r="3.6"/>
		</g>
		<path class="st6" d="M141.8,111.2L141.8,111.2c-7.4,0-13.3-6-13.3-13.3v-0.5h26.7v0.5C155.1,105.2,149.1,111.2,141.8,111.2z"/>
	</g>
	<path class="st2" d="M225,113.3c0.1-0.2,0.1-0.4,0.1-0.6c-0.5,0.2-1,0.4-1.7,0.6H225z"/>
	<g>
		<path class="st2" d="M63.8,68.1v9c0-22.8,15.8-42.8,39.5-53.9v-9C79.7,25.3,63.8,45.3,63.8,68.1z"/>
		<path class="st2" d="M112.7,19.5c3-1,6.1-1.9,9.2-2.7v-9c-3.2,0.8-6.2,1.7-9.2,2.7V19.5z"/>
	</g>
	<circle class="st6" cx="807.7" cy="76.7" r="6.8"/>
	<circle class="st6" cx="854.6" cy="76.7" r="6.8"/>
	<ellipse class="st7" cx="803.5" cy="90.5" rx="6.7" ry="2"/>
	<g>
		<path class="st17" d="M1323.9,117.5h-271.5c-3.8,0-6.9,3.1-6.9,6.9v0c0,41.7,33.8,75.6,75.6,75.6h134.1
			c41.7,0,75.6-33.8,75.6-75.6v0C1330.8,120.6,1327.7,117.5,1323.9,117.5z"/>
		<circle class="st1" cx="1087.2" cy="158.6" r="17.4"/>
		<circle cx="1126" cy="158.6" r="8.8"/>
		<circle cx="1246.3" cy="158.6" r="8.8"/>
		<circle class="st1" cx="1289.1" cy="158.6" r="17.4"/>
		<path class="st4" d="M1237.9,117.5c6.9-9.8,10.9-21.8,10.9-34.7c0-33.5-27.2-60.6-60.6-60.6s-60.6,27.2-60.6,60.6
			c0,12.9,4,24.8,10.9,34.7H1237.9z"/>
		<path class="st1" d="M1188.1,113.3c-22.5,0-40.7,18.3-40.7,40.7c0,22.5,18.3,40.7,40.7,40.7s40.7-18.3,40.7-40.7
			C1228.9,131.6,1210.6,113.3,1188.1,113.3z"/>
		<path class="st20" d="M1188.1,22.2c-33.5,0-60.6,27.2-60.6,60.6c0,7.5,1.4,14.7,3.9,21.4c5.4-6.9,11-16.7,12.9-29.1
			c3.8-24.7,39.8-27.1,43.6-27.3c3.7,0.2,39.8,2.7,43.6,27.3c2,12.7,7.8,22.7,13.3,29.6c2.6-6.8,4.1-14.2,4.1-21.9
			C1248.8,49.4,1221.6,22.2,1188.1,22.2z"/>
		<polyline class="st20" points="1175.2,47.9 1217.6,69.9 1202.9,44.1 		"/>
		<circle cx="1161" cy="82.3" r="7.8"/>
		<circle cx="1204.2" cy="82.3" r="7.8"/>
		<path class="st19" d="M1235.6,45.1c-2-2.5-4.2-4.8-6.5-7h-81.9c-2.4,2.2-4.5,4.5-6.5,7H1235.6z"/>
		<rect x="1173.3" y="103.7" width="26" height="5.2"/>
		<path class="st21" d="M1162.1,38.1c0,0-20.2-12.6-13.7-24.6s9.3-13.5,9.3-13.5s-7,8.9,4.3,19.1s3.7,19.1,3.7,19.1"/>
		<path class="st22" d="M1162.5,35.9c0,0-5.9-21.2,6-25.4s14.8-3.4,14.8-3.4s-10.4,1.7-8.9,15.7c1.4,14-9.4,15.3-9.4,15.3"/>
	</g>
	<circle cx="79.3" cy="164.1" r="7.1"/>
	<ellipse cx="11" cy="146.4" rx="4.5" ry="6.3"/>
	<ellipse cx="271.3" cy="146.4" rx="4.5" ry="6.3"/>
	<circle cx="198.9" cy="164.1" r="7.1"/>
	<g>
		<path d="M142.6,114.3c-21.9,0-39.7,17.8-39.7,39.7c0,21.9,17.8,39.7,39.7,39.7s39.7-17.8,39.7-39.7
			C182.4,132.1,164.6,114.3,142.6,114.3z"/>
	</g>
</g>
<g id="Layer_2">
</g>
</svg>
