<?xml version="1.0" encoding="utf-8"?>
<!-- Generator: Adobe Illustrator 27.9.1, SVG Export Plug-In . SVG Version: 6.00 Build 0)  -->
<svg version="1.1" xmlns="http://www.w3.org/2000/svg" xmlns:xlink="http://www.w3.org/1999/xlink" x="0px" y="0px"
	 viewBox="0 0 285.3 200" style="enable-background:new 0 0 285.3 200;" xml:space="preserve">
<style type="text/css">
	.st0{fill:#F59B28;}
	.st1{fill:#B54C33;}
	.st2{fill:#FFFFFF;}
	.st3{fill:#EDCA9F;}
	.st4{fill:#F9E1C0;}
	.st5{fill:#FBDE84;}
	.st6{fill:#0C0C0C;}
	.st7{fill:#F05979;}
	.st8{fill:#719190;}
	.st9{fill:#FFFFFF;stroke:#000000;stroke-miterlimit:10;}
	.st10{fill:#B7B8B8;}
	.st11{fill:#5BA0A5;}
	.st12{fill:#B1DFE5;}
	.st13{fill:#E45E39;}
	.st14{fill:#FBFAF9;}
	.st15{fill:#8BCBD5;}
	.st16{fill:#121C2B;}
	.st17{fill:#FBF9F9;}
	.st18{fill:#0D1117;}
	.st19{fill:#4AA146;}
	.st20{fill:#C96E43;}
	.st21{fill:#4C74B9;}
	.st22{fill:#FED653;}
</style>
<g id="Layer_1">
	<path class="st8" d="M253.7,113.3c-26.1-12-66.2-19.6-111.1-19.6s-84.9,7.7-111.1,19.6H0v41.3h1.7c10.7,25.2,69.7,44.5,140.9,44.5
		s130.2-19.3,140.9-44.5h1.7v-41.3H253.7z"/>
	<g>
		<g>
			<circle class="st9" cx="41.7" cy="158.6" r="17.4"/>
			<circle class="st9" cx="243.6" cy="158.6" r="17.4"/>
		</g>
	</g>
	<g>
		<ellipse class="st10" cx="142.6" cy="113.8" rx="142.6" ry="29.2"/>
		<path d="M142.6,143.5c-38.1,0-74-3-101-8.6c-27.2-5.6-42.2-13.1-42.2-21.1c0-8.1,15-15.6,42.2-21.1c27-5.5,62.8-8.6,101-8.6
			s74,3,101,8.6c27.2,5.6,42.2,13.1,42.2,21.1c0,8.1-15,15.6-42.2,21.1C216.6,140.5,180.8,143.5,142.6,143.5z M142.6,85.1
			c-38.1,0-73.9,3-100.8,8.5C15.6,99,0.5,106.4,0.5,113.8c0,7.4,15.1,14.8,41.4,20.2c26.9,5.5,62.7,8.5,100.8,8.5s73.9-3,100.8-8.5
			c26.3-5.4,41.4-12.7,41.4-20.2c0-7.4-15.1-14.8-41.4-20.2C216.5,88.1,180.7,85.1,142.6,85.1z"/>
	</g>
	<path class="st11" d="M142.6,84.6c-34.8,0-62.4,1.4-87.1,5.7l-4.4,22.4c0,21.3,56.1,27.4,89.3,27.6h4.5h0
		c33.1-0.2,89.2-6.3,89.2-27.6l-5-22.1C204.4,86.3,177.5,84.6,142.6,84.6z"/>
	<g>
		<path class="st12" d="M144.9,135.2h-4.4c-47.3-0.3-84.3-10.2-84.3-22.6V68.1C56.2,31.1,95,1,142.6,1c23.1,0,44.8,7,61.1,19.6
			c16.4,12.7,25.4,29.6,25.4,47.5v44.5C229.1,125,192.1,134.9,144.9,135.2z"/>
	</g>
	<path class="st19" d="M202.9,83.3c0-33.3-27-60.2-60.2-60.2h0c-33.3,0-60.2,27-60.2,60.2v45.7c15,3.8,35.4,6.3,58,6.4h4.4
		c22.6-0.1,43-2.6,58-6.4V83.3z"/>
	<g>
		<g>
			<circle class="st6" cx="141.8" cy="64.2" r="27"/>
			<circle class="st2" cx="126.3" cy="55" r="5.4"/>
			<circle class="st2" cx="134.2" cy="69.2" r="3.6"/>
		</g>
		<path class="st6" d="M141.8,111.2L141.8,111.2c-7.4,0-13.3-6-13.3-13.3v-0.5h26.7v0.5C155.1,105.2,149.1,111.2,141.8,111.2z"/>
	</g>
	<path class="st2" d="M225,113.3c0.1-0.2,0.1-0.4,0.1-0.6c-0.5,0.2-1,0.4-1.7,0.6H225z"/>
	<g>
		<path class="st2" d="M63.8,68.1v9c0-22.8,15.8-42.8,39.5-53.9v-9C79.7,25.3,63.8,45.3,63.8,68.1z"/>
		<path class="st2" d="M112.7,19.5c3-1,6.1-1.9,9.2-2.7v-9c-3.2,0.8-6.2,1.7-9.2,2.7V19.5z"/>
	</g>
	<circle cx="79.3" cy="164.1" r="7.1"/>
	<ellipse cx="11" cy="146.4" rx="4.5" ry="6.3"/>
	<ellipse cx="271.3" cy="146.4" rx="4.5" ry="6.3"/>
	<circle cx="198.9" cy="164.1" r="7.1"/>
	<g>
		<path d="M142.6,114.3c-21.9,0-39.7,17.8-39.7,39.7c0,21.9,17.8,39.7,39.7,39.7s39.7-17.8,39.7-39.7
			C182.4,132.1,164.6,114.3,142.6,114.3z"/>
	</g>
</g>
<g id="Layer_2">
</g>
</svg>
