<?xml version="1.0" encoding="utf-8"?>
<!-- Generator: Adobe Illustrator 27.9.1, SVG Export Plug-In . SVG Version: 6.00 Build 0)  -->
<svg version="1.1" xmlns="http://www.w3.org/2000/svg" xmlns:xlink="http://www.w3.org/1999/xlink" x="0px" y="0px"
	 viewBox="0 0 285.3 200" style="enable-background:new 0 0 285.3 200;" xml:space="preserve">
<style type="text/css">
	.st0{fill:#F59B28;}
	.st1{fill:#B54C33;}
	.st2{fill:#FFFFFF;}
	.st3{fill:#EDCA9F;}
	.st4{fill:#F9E1C0;}
	.st5{fill:#FBDE84;}
	.st6{fill:#0C0C0C;}
	.st7{fill:#F05979;}
	.st8{fill:#719190;}
	.st9{fill:#FFFFFF;stroke:#000000;stroke-miterlimit:10;}
	.st10{fill:#B7B8B8;}
	.st11{fill:#5BA0A5;}
	.st12{fill:#B1DFE5;}
	.st13{fill:#E45E39;}
	.st14{fill:#FBFAF9;}
	.st15{fill:#8BCBD5;}
	.st16{fill:#121C2B;}
	.st17{fill:#FBF9F9;}
	.st18{fill:#0D1117;}
	.st19{fill:#4AA146;}
	.st20{fill:#C96E43;}
	.st21{fill:#4C74B9;}
	.st22{fill:#FED653;}
</style>
<g id="Layer_1">
	<g>
		<path class="st17" d="M278.4,117.5H6.9c-3.8,0-6.9,3.1-6.9,6.9v0C0,166.2,33.8,200,75.6,200h134.1c41.7,0,75.6-33.8,75.6-75.6v0
			C285.3,120.6,282.2,117.5,278.4,117.5z"/>
		<circle class="st1" cx="41.7" cy="158.6" r="17.4"/>
		<circle cx="80.5" cy="158.6" r="8.8"/>
		<circle cx="200.8" cy="158.6" r="8.8"/>
		<circle class="st1" cx="243.6" cy="158.6" r="17.4"/>
		<path class="st4" d="M192.4,117.5c6.9-9.8,10.9-21.8,10.9-34.7c0-33.5-27.2-60.6-60.6-60.6C109.1,22.2,82,49.4,82,82.9
			c0,12.9,4,24.8,10.9,34.7H192.4z"/>
		<path class="st1" d="M142.6,113.3c-22.5,0-40.7,18.3-40.7,40.7c0,22.5,18.3,40.7,40.7,40.7s40.7-18.3,40.7-40.7
			C183.4,131.6,165.1,113.3,142.6,113.3z"/>
		<path class="st20" d="M142.6,22.2C109.1,22.2,82,49.4,82,82.9c0,7.5,1.4,14.7,3.9,21.4c5.4-6.9,11-16.7,12.9-29.1
			c3.8-24.7,39.8-27.1,43.6-27.3c3.7,0.2,39.8,2.7,43.6,27.3c2,12.7,7.8,22.7,13.3,29.6c2.6-6.8,4.1-14.2,4.1-21.9
			C203.3,49.4,176.1,22.2,142.6,22.2z"/>
		<polyline class="st20" points="129.7,47.9 172.1,69.9 157.4,44.1 		"/>
		<circle cx="115.5" cy="82.3" r="7.8"/>
		<circle cx="158.7" cy="82.3" r="7.8"/>
		<path class="st19" d="M190.1,45.1c-2-2.5-4.2-4.8-6.5-7h-81.9c-2.4,2.2-4.5,4.5-6.5,7H190.1z"/>
		<rect x="127.8" y="103.7" width="26" height="5.2"/>
		<path class="st21" d="M116.6,38.1c0,0-20.2-12.6-13.7-24.6S112.3,0,112.3,0s-7,8.9,4.3,19.1s3.7,19.1,3.7,19.1"/>
		<path class="st22" d="M117,35.9c0,0-5.9-21.2,6-25.4s14.8-3.4,14.8-3.4s-10.4,1.7-8.9,15.7c1.4,14-9.4,15.3-9.4,15.3"/>
	</g>
</g>
<g id="Layer_2">
</g>
</svg>
