<?xml version="1.0" encoding="utf-8"?>
<!-- Generator: Adobe Illustrator 27.9.1, SVG Export Plug-In . SVG Version: 6.00 Build 0)  -->
<svg version="1.1" xmlns="http://www.w3.org/2000/svg" xmlns:xlink="http://www.w3.org/1999/xlink" x="0px" y="0px"
	 viewBox="0 0 285.3 200" style="enable-background:new 0 0 285.3 200;" xml:space="preserve">
<style type="text/css">
	.st0{fill:#F59B28;}
	.st1{fill:#B54C33;}
	.st2{fill:#FFFFFF;}
	.st3{fill:#EDCA9F;}
	.st4{fill:#F9E1C0;}
	.st5{fill:#FBDE84;}
	.st6{fill:#0C0C0C;}
	.st7{fill:#F05979;}
	.st8{fill:#719190;}
	.st9{fill:#FFFFFF;stroke:#000000;stroke-miterlimit:10;}
	.st10{fill:#B7B8B8;}
	.st11{fill:#5BA0A5;}
	.st12{fill:#B1DFE5;}
	.st13{fill:#E45E39;}
	.st14{fill:#FBFAF9;}
	.st15{fill:#8BCBD5;}
	.st16{fill:#121C2B;}
	.st17{fill:#FBF9F9;}
	.st18{fill:#0D1117;}
	.st19{fill:#4AA146;}
	.st20{fill:#C96E43;}
	.st21{fill:#4C74B9;}
	.st22{fill:#FED653;}
</style>
<g id="Layer_1">
	<circle class="st3" cx="82" cy="76.8" r="10.2"/>
	<circle class="st3" cx="205.5" cy="76.8" r="10.2"/>
	<path class="st4" d="M192.4,117.5c6.9-9.8,10.9-21.8,10.9-34.7c0-33.5-27.2-60.6-60.6-60.6C109.1,22.2,82,49.4,82,82.9
		c0,12.9,4,24.8,10.9,34.7H192.4z"/>
	<path class="st16" d="M142.6,84.6c-22.6,0-42,13.7-50.3,33.3h8.5h12.7h4.9c5.5-7.5,14.3-12.3,24.2-12.3c9.9,0,18.8,4.8,24.2,12.3
		h4.9h12.7h8.5C184.7,98.3,165.3,84.6,142.6,84.6z"/>
	<path class="st13" d="M142.6,22.2c-25.7,0-47.6,15.9-56.4,38.4c1.1-1.3,29.4-34.7,62.7-21c20.1,8.3,35.8,12.4,44.5,10.1
		C182.7,33.2,163.9,22.2,142.6,22.2z"/>
	<path class="st10" d="M230.1-0.2h-175c-9.5,0-17.5,7.2-18.5,16.7L24.2,137.9H261L248.7,16.6C247.7,7.1,239.7-0.2,230.1-0.2z
		 M37.3,117.9l19.1-98.1h172.5l19.1,98.1H37.3z"/>
	<path class="st10" d="M285.3,158.9c0-21.6-9.6-39.3-21.8-40.9v-0.1H23.5v0C10.5,118,0,136.3,0,158.9s10.5,40.9,23.5,41.1v0h239.9
		v-0.1C275.7,198.3,285.3,180.6,285.3,158.9z"/>
	<path class="st17" d="M276.8,135.8c-3.4-7.8-8.4-13.1-13.9-13.8l-0.7-0.1H24.1l-0.5,0c-6,0.1-11.5,5.6-15.1,13.9H276.8z"/>
	<g>
		<path class="st18" d="M256.7,139.5H29.5c-10.7,0-19.5,8.7-19.5,19.5v0c0,10.7,8.7,19.5,19.5,19.5h227.2c10.7,0,19.5-8.7,19.5-19.5
			v0C276.1,148.2,267.4,139.5,256.7,139.5z"/>
		<circle class="st9" cx="41.7" cy="158.6" r="17.4"/>
		<circle class="st9" cx="243.6" cy="158.6" r="17.4"/>
	</g>
	<path class="st1" d="M142.6,113.3c-22.5,0-40.7,18.3-40.7,40.7c0,22.5,18.3,40.7,40.7,40.7s40.7-18.3,40.7-40.7
		C183.4,131.6,165.1,113.3,142.6,113.3z"/>
	<circle class="st3" cx="187" cy="87.1" r="2.5"/>
	<circle class="st3" cx="185.9" cy="96.2" r="2.5"/>
	<circle class="st3" cx="197.3" cy="81" r="2.5"/>
	<circle class="st3" cx="135.6" cy="55.6" r="2.5"/>
	<circle class="st3" cx="148.3" cy="51.3" r="2.5"/>
	<circle class="st3" cx="194" cy="98.7" r="2.5"/>
	<circle class="st3" cx="94.3" cy="87.7" r="2.5"/>
	<circle class="st3" cx="102.9" cy="94.7" r="2.5"/>
	<circle class="st3" cx="91.8" cy="107.4" r="2.5"/>
	<circle class="st3" cx="92.8" cy="97.5" r="2.5"/>
	<circle class="st3" cx="88.4" cy="79.4" r="2.5"/>
	<g>
		<rect x="65.1" y="169.3" class="st10" width="30.6" height="2.2"/>
		<rect x="65.1" y="160.2" class="st10" width="30.6" height="2.2"/>
		<rect x="65.1" y="151.1" class="st10" width="30.6" height="2.2"/>
	</g>
	<g>
		<rect x="188" y="169.3" class="st10" width="30.6" height="2.2"/>
		<rect x="188" y="160.2" class="st10" width="30.6" height="2.2"/>
		<rect x="188" y="151.1" class="st10" width="30.6" height="2.2"/>
	</g>
	<g>
		<rect x="21.8" y="187.5" class="st18" width="83.7" height="5"/>
		<rect x="179.8" y="187.5" class="st18" width="83.7" height="5"/>
	</g>
	<g>
		<polygon class="st17" points="28.2,98.7 26.3,117.9 37.3,117.9 41.1,98.7 		"/>
		<polygon class="st17" points="244.2,98.7 248,117.9 259,117.9 257,98.7 		"/>
	</g>
	<path class="st17" d="M70.8,24.7L59.5,41.4C59.5,41.4,73.1,33.3,70.8,24.7z"/>
	<path class="st17" d="M80.9,28L65.3,51.3C65.3,51.3,84.2,40,80.9,28z"/>
	<circle class="st6" cx="119.2" cy="76.7" r="6.8"/>
	<circle class="st6" cx="166.1" cy="76.7" r="6.8"/>
	<ellipse class="st7" cx="115" cy="90.5" rx="6.7" ry="2"/>
</g>
<g id="Layer_2">
</g>
</svg>
