<?xml version="1.0" encoding="utf-8"?>
<!-- Generator: Adobe Illustrator 27.9.1, SVG Export Plug-In . SVG Version: 6.00 Build 0)  -->
<svg version="1.1" id="Layer_1" xmlns="http://www.w3.org/2000/svg" xmlns:xlink="http://www.w3.org/1999/xlink" x="0px" y="0px"
	 viewBox="0 0 911.2 1256.4" style="enable-background:new 0 0 911.2 1256.4;" xml:space="preserve">
<style type="text/css">
	.st0{fill:#EC8524;}
	.st1{fill:#8BCBD5;}
	.st2{fill:#FED653;}
	.st3{fill:#1F2F3D;}
	.st4{opacity:0.34;}
	.st5{fill:#F58A21;}
	.st6{fill:#D67140;}
	.st7{fill:#C96E43;}
	.st8{fill:#E88F53;}
	.st9{fill:#B54C33;}
	.st10{fill:#F8AE5E;}
	.st11{fill:#FDFCFB;}
	.st12{fill:#F37769;}
	.st13{fill:#F58E4E;}
	.st14{fill:#F9E1C0;}
	.st15{fill:#FAC087;}
	.st16{fill:#FBF9F9;}
	.st17{fill:#4167A0;}
	.st18{fill:#4C74B9;}
	.st19{fill:#7DA9DA;}
	.st20{opacity:0.15;fill:#7DA9DA;enable-background:new    ;}
	.st21{fill:#67BDC6;}
	.st22{fill:#B1DFE5;}
	.st23{fill:#9DD5DD;}
	.st24{fill:#8FD5DC;}
	.st25{fill:#45A4C1;}
	.st26{fill:#77D1F3;}
	.st27{fill:#4AA146;}
	.st28{fill:#FCFBFA;}
	.st29{fill:#FFFFFF;}
	.st30{fill:#F8B032;}
	.st31{fill:#F59B28;}
	.st32{fill:#FBFAF9;}
	.st33{fill:#C45234;}
	.st34{fill:#E45E39;}
	.st35{fill:#939696;}
	.st36{fill:#B7B8B8;}
	.st37{fill:#F05979;}
	.st38{fill:#B7B8B8;stroke:#121C2B;stroke-width:6;stroke-linecap:round;stroke-linejoin:round;stroke-miterlimit:10;}
	.st39{fill:#FBDE84;}
	.st40{fill:#FDC478;}
	.st41{fill:#D88360;}
	.st42{fill:#FFD552;}
	.st43{fill:#ECA228;}
	.st44{fill:#F5C02B;}
	.st45{fill:#D29F2A;}
</style>
<path class="st0" d="M1847.9,109.1L1847.9,109.1c0-0.4,0-0.7,0-1.1C1847.9,108.3,1847.9,108.7,1847.9,109.1z"/>
<g>
	<g>
		<path class="st1" d="M326.4,608.8c0.1,0.1,0.1,0.2,0.2,0.3C326.5,609,326.5,608.9,326.4,608.8z"/>
	</g>
</g>
<g id="sun">
	<path id="silhouette_00000141455030173033219790000013122658012096336806_" class="st0" d="M665.7,1221.2c-6.9-6.3,1.8-26-3.2-33.4
		c-5.3-7.6-26.6-6.7-29.9-15.2c-3.3-8.6,13.1-22.4,11.7-31.4c-1.3-9.1-21.1-17.5-20.4-26.6c0.7-9.1,21.5-14.5,24.1-23.3
		c2.6-8.7-11.5-24.8-6.9-32.8c4.5-7.8,25.6-3.6,31.9-10.4s0.7-27.6,8-32.6c7.6-5.3,24.8,7.6,33.2,4.4c8.6-3.3,12.4-24.5,21.4-25.8
		c9.1-1.3,19,17.7,28.1,18.3s21.6-16.7,30.5-14c8.7,2.6,9.2,24.1,17.3,28.7c7.8,4.5,26.6-5.7,33.5,0.7c6.9,6.3-1.8,26,3.2,33.4
		c5.3,7.6,26.6,6.7,29.9,15.2c3.3,8.6-13.1,22.4-11.7,31.4c1.3,9.1,21.1,17.5,20.4,26.6c-0.7,9.1-21.5,14.5-24.1,23.3
		c-2.6,8.7,11.5,24.8,6.9,32.8c-4.5,7.8-25.6,3.6-31.9,10.4c-6.3,6.9-0.7,27.6-8,32.6c-7.6,5.3-24.8-7.6-33.2-4.4
		c-8.6,3.3-12.4,24.5-21.4,25.8c-9.1,1.3-19-17.7-28.1-18.3c-9.1-0.7-21.6,16.7-30.5,14c-8.7-2.6-9.2-24.1-17.3-28.7
		C691.5,1217.4,672.6,1227.5,665.7,1221.2z"/>
	<g>
		<circle class="st2" cx="755.4" cy="1124.5" r="91.9"/>
		<g>
			<g>
				<path class="st3" d="M810,1158c-5.9,0-11.9-0.5-17.7-2.4c-9.2-2.8-16.1-8.4-20.8-16.7c-3.4-6.1-5.5-12.7-6.5-19.5
					c-0.3-2.1-1.3-3.4-3.4-4.1c-4.5-1.2-8.8-1.3-13.2,0.4c-1.6,0.7-2.2,1.7-2.5,3.4c-1.2,7.3-3.3,14.2-7.3,20.6
					c-5.5,9-13.6,14.2-23.7,16.7c-4.5,1.1-9.1,1.5-13.7,1.6c-3.3,0-6.5-0.5-9.6-1.1c-4.9-0.8-9.2-2.8-13.5-5.3
					c-9.9-6.9-14.1-17.1-16.9-28.2c0-0.1,0-0.1,0-0.3c-0.4-3.7-2.2-5.9-6.1-6.6c-2.5-0.5-3.7-2.1-4-4.6s-0.3-5-0.1-7.5
					c0.1-2.1,1.5-3.6,3.4-4.2c8.3-3,17-5.3,25.7-6.9c5.8-1.1,11.7-1.6,17.7-2c9.6-0.5,19.1,0.3,28.5,2.5c5.4,1.3,10.7,3,15,6.6
					c1.1,0.8,2.1,1.8,2.9,2.9c0.5,0.7,1.1,0.8,1.8,0.7c6.3-1.5,12.7-1.3,19,0c0.7,0.1,1.2,0.1,1.7-0.5c2.9-4,7.1-5.9,11.6-7.5
					c6.5-2.4,13.2-3.6,19.9-4.2c4.1-0.4,8.2-0.7,12.3-0.5c12.5,0.4,24.8,2.4,36.8,5.9c2.9,0.9,5.8,1.7,8.6,2.8
					c3.2,1.1,4.1,2.4,4,5.7c0,2.4,0.1,4.7-0.3,7c-0.4,1.8-1.3,3.2-3.2,3.7c-0.7,0.1-1.2,0.5-1.8,0.7c-3,0.7-4.4,2.6-5,5.5
					c-0.9,4.5-2.5,8.8-4.5,13.1c-2.6,5.8-6.1,11.1-11.3,14.9c-0.3,0.3-0.5,0.4-0.7,0.8c-1.2,0.1-1.8,1.1-2.9,1.6
					C824,1156.3,817.1,1157.8,810,1158z M808.2,1097.1c-9,0.1-17.7,0.9-26,3.8c-7.8,2.8-11.3,7.8-11.3,16.1c0,3.6,0.7,7,1.6,10.4
					c3.7,12.4,11.5,20.6,24.3,23.5c6.2,1.5,12.4,1.6,18.7,0.7c7.4-1.2,14-4,19-9.8c6.3-7.5,9.1-16.4,9.2-26
					c0-8.7-3.3-12.8-11.6-15.4C824.3,1097.8,816.1,1097.2,808.2,1097.1z M702.8,1097.1c-9.9,0.1-18.7,1.5-24.5,3.3
					c-7.3,2.4-10.7,6.7-11.2,14.4c-0.4,5.8,0.8,11.2,2.8,16.6c3.8,10.3,10.9,17,21.8,19.5c7.8,1.7,15.6,1.7,23.2-0.4
					c5.4-1.5,10.3-3.8,14.2-7.8c7.8-7.9,11.1-17.5,10.7-28.5c-0.1-4.7-2.4-8.7-6.6-11.2c-1.7-0.9-3.3-1.8-5.1-2.4
					C719.2,1097.8,710.2,1097.1,702.8,1097.1z M658.9,1105.9c-0.1,0-0.7,0-1.2,0.1c-1.1,0.3-1.8,0.8-1.8,2c0,1.2,0.7,1.8,1.8,2.1
					c0.5,0.1,1.2,0.1,1.8,0.1c2.2,0,3.2-0.8,3.2-2.1C662.6,1106.6,661.4,1105.8,658.9,1105.9z M851.4,1110.2c0.5,0,1.1,0,1.6-0.1
					c1.2-0.1,1.7-0.8,1.8-1.8c0.1-1.1-0.4-1.8-1.6-2.1c-0.7-0.1-1.3-0.3-2.1-0.3c-2.1,0-3.3,0.8-3.2,2.2
					C848.3,1109.5,849.2,1110.2,851.4,1110.2z"/>
			</g>
			<g>
				<g>
					<path class="st3" d="M832,1100.3c-7.8-2.5-16-3-24-3.2c-9,0.1-17.7,0.9-26,3.8c-7.8,2.8-11.3,7.8-11.3,16.1
						c0,3.6,0.7,7,1.6,10.4c3.7,12.4,11.5,20.6,24.3,23.5c6.2,1.5,12.4,1.6,18.7,0.7c7.4-1.2,14-4,19-9.8c6.3-7.5,9.1-16.4,9.2-26
						C843.6,1107,840.3,1102.9,832,1100.3z"/>
				</g>
				<g>
					<path class="st3" d="M733.1,1103c-1.7-0.9-3.3-1.8-5.1-2.4c-8.7-2.8-17.8-3.6-25.2-3.6c-9.9,0.1-18.7,1.5-24.5,3.3
						c-7.3,2.4-10.7,6.7-11.2,14.4c-0.4,5.8,0.8,11.2,2.8,16.6c3.8,10.3,10.9,17,21.8,19.5c7.8,1.7,15.6,1.7,23.2-0.4
						c5.4-1.5,10.3-3.8,14.2-7.8c7.8-7.9,11.1-17.5,10.7-28.5C739.6,1109.4,737.5,1105.5,733.1,1103z"/>
				</g>
			</g>
		</g>
		<g>
			<path class="st3" d="M780.3,1161.7c0,5.9-3,10.8-8.2,12.8c-5.7,2.2-11.9,0.8-15.7-3.8c-0.9-1.1-1.3-1.1-2.2,0
				c-4.1,4.7-11.1,6.1-16.6,3.4c-5.4-2.6-8.2-8.3-7-14.4c0.4-2.1,1.6-3.2,3.3-2.8c1.7,0.3,2.4,1.6,2,3.8c-0.7,4,0.8,7.1,4.1,8.7
				c3.4,1.7,7.6,0.8,10.4-2c1.1-1.2,2-2.5,2.4-4s1.2-2.4,2.8-2.4c1.6,0,2.2,1.1,2.6,2.5c1.3,4.5,5.3,7.1,10,6.6
				c4.4-0.5,7.5-4.6,6.9-9c0-0.4-0.1-0.8-0.3-1.3c-0.1-1.6,0.5-2.6,2.1-2.9c1.6-0.3,2.6,0.4,3,1.8
				C780.3,1159.7,780.3,1160.8,780.3,1161.7z"/>
		</g>
		<g class="st4">
			<path class="st5" d="M801.8,1149.1c3.3,0.4,6.6,0.5,10,0.3l-9.4-49.5c-3.3,0.3-6.5,0.5-9.8,1.2L801.8,1149.1z"/>
			<path class="st5" d="M817.3,1148.5c1.5-0.3,2.8-0.7,4.1-1.2l-9-47.5c-1.5-0.1-2.9-0.1-4.4-0.1L817.3,1148.5z"/>
			<path class="st5" d="M714.1,1147.9l-9.1-48.1c-0.8,0-1.7,0-2.5,0c-0.7,0-1.2,0-1.7,0l9.2,49.1c1.2-0.3,2.2-0.4,3.4-0.8
				C713.8,1148,713.9,1147.9,714.1,1147.9z"/>
			<path class="st5" d="M694.4,1148.8c3.3,0.7,6.7,0.8,10,0.7L695,1100c-3.6,0.3-6.9,0.8-9.6,1.3L694.4,1148.8z"/>
		</g>
	</g>
</g>
<g id="jupiter">
	<circle id="silhouette_00000010992566078423341930000011651578718305695889_" class="st6" cx="444.9" cy="1124.5" r="131.9"/>
	<g>
		<g>
			<path class="st7" d="M339.9,1197.3c-7.5-10.2-12.9-21.4-16.6-33.4c-1.3-4.1-2.2-8.2-3.2-12.3c0-0.3,0-0.5,0-0.8
				c2.2-0.3,4.5-0.5,6.7-0.8c3.3-0.5,6.6-1.3,9.9-1.5c6.3-0.4,12.4,0.8,18.3,2.8c4.6,1.5,8.8,3.8,13.2,5.9
				c8.6,4.4,17.7,6.5,27.2,7.3c5.8,0.5,11.5,0.4,17.3,0.3c2.8,0,5.7-0.3,8.4-0.7c4-0.5,7.8-1.1,11.7-1.7c1.7-0.3,3.4,0,5-1.2
				c6.5,3.2,12,2,16.4-3.6c1.1,0.7,2,0,2.9-0.3c4.5-1.2,9-2.5,13.3-4c6.1-2,12.1-3.8,18.3-5.5c0.4-0.1,0.8-0.1,0.9-0.7
				c1.2,0,2.5-0.1,3.7-0.5c0.5-0.1,1.1-0.3,0.9,0.7c-0.5,4.4,0.8,6.9,4.7,8.8c5.5,2.6,11.1,2.4,16.4-0.7c4.2-2.4,5.3-7.3,2.2-10.8
				c-0.8-0.9-1.7-1.6-2.6-2.5c3.7-0.9,7.4-1.7,11.2-1.8c5-0.3,10,0.4,14.9,1.7c4.4,1.1,8.7,1.8,13.2,2.1c5.9,0.4,11.5-0.9,17-2.6
				c-0.7,6.9-2.1,13.5-4,19.9c-1.7,5.8-3.7,11.6-6.5,17.1c-4.4-0.3-8.7-0.8-13.1-0.8c-6.2-0.1-12.4,0-18.6,0.5
				c-5.8,0.5-11.6,1.2-17.3,2.2c-9.6,1.7-19,4.1-28.5,6.3c-6.5,1.5-12.9,2.5-19.4,3.3c-5,0.7-10,0.5-15.2,0.9c-4,0.3-8,0-12,0.3
				c-2.9,0.3-5.9,0.7-8.8,1.2c-6.7,1.1-13.1,3.2-19.5,5.1c-7.9,2.4-16,4.4-24.3,4.7c-7.6,0.4-15.3,0.3-22.8-0.9
				c-6.5-0.9-12.8-2.2-19-4C341.6,1197.5,340.8,1196.9,339.9,1197.3z M359.4,1165.4c-5.5-0.1-9.6,1.2-12.9,2.8
				c-4.9,2.5-7.5,7.3-5.3,13.2c1.3,3.3,3.7,5.7,6.3,7.8c4.4,3.4,9.2,5.8,14.4,7.5c7.3,2.4,14.6,3.6,22.2,2.6
				c3.4-0.4,6.9-1.3,9.8-3.3c3.2-2.1,5.3-4.9,5-8.8c-0.3-4-2.5-7-5.3-9.6c-3.6-3.2-7.6-5.5-12-7.4
				C374.7,1167.3,367.6,1165.4,359.4,1165.4z"/>
			<path class="st8" d="M567.6,1092.1c1.7,5.4,2.6,10.9,3.3,16.6c-0.5-0.3-1.1-0.3-1.6-0.3c-6.5-0.1-12.8,0.8-19.1,2.2
				c-7,1.7-13.8,4.2-20.7,6.2c-7.4,2.1-14.9,3.7-22.4,4.6c-0.7-2.4-1.5-4.6-2.9-6.6c-4.7-7.1-14.8-8.4-21.2-2.8
				c-2.6,2.4-4.2,5.3-5.1,8.6c-2.2-0.5-4.5-0.9-6.7-1.6c-4.4-1.2-8.6-2.5-12.9-3.8c-6.1-1.8-12.1-3.3-18.6-3.7
				c-4.5-0.3-8.8-0.1-13.2,0.3c-4.4,0.3-8.7,0.8-13.1,1.5c-2,0.3-4,0-5.8,0.8c-1.1-1.2-2.1-2.4-3.4-3.2c-6.2-3.8-13.1-2.9-18.6,2.6
				c-0.4-0.4-0.9-0.4-1.3-0.5c-6.5-1.6-12.7-4-18.7-6.9c-5-2.4-10.2-4.7-15.4-6.3c-4.7-1.5-9.5-2.2-14.4-2.5c-3.4-0.1-7-0.1-10.4,0
				c-1.5,0-2.9,0.1-4.4,0.5c0.5-4.2,1.8-8.2,3-12.1c2.1-6.9,4.9-13.3,8.3-19.6c0.7,0,1.2,0.1,1.7,0.3c5.8,1.5,11.7,2.9,17.5,4.4
				c11.2,2.6,22.5,4.9,34,6.9c8.4,1.5,17,2.4,25.6,3.2c6.6,0.5,13.2,0.9,19.6,1.2c5.4,0.3,10.8,0.5,16.2,0.9
				c5.3,0.4,10.4,0.9,15.7,1.5c7.8,0.8,15.3,2.2,22.9,3.7c9.4,1.8,18.6,4.1,28.1,5.7c6.7,1.2,13.6,2,20.4,2.2
				c7.3,0.3,14.5-0.1,21.8-1.2C559.7,1093.8,563.7,1093.1,567.6,1092.1z M394.5,1095.9c-1.1,0-2.1,0.1-3.2,0.4
				c-2.5,0.5-4.7,1.7-6.5,3.4c-1.1,1.1-1.1,2.2-0.1,3.2c0.8,0.9,2,0.9,3,0.1c3-2.5,6.5-2.9,10-2.1c1.5,0.4,2.5-0.3,2.9-1.5
				c0.4-1.2-0.3-2.2-1.5-2.9C397.8,1096.2,396.2,1095.9,394.5,1095.9z M493.9,1095.9c-1.2,0-2.6,0.1-4.1,0.8c-1.3,0.5-2,1.7-1.6,2.9
				c0.4,1.2,1.5,1.7,3,1.3c3.6-0.8,6.9-0.5,9.8,2c1.5,1.2,3.4,0.7,3.7-1.2c0.1-1.1-0.3-1.8-1.1-2.5
				C500.9,1097,497.7,1095.9,493.9,1095.9z"/>
			<path class="st9" d="M339.9,1197.3c0.9-0.4,1.8,0.1,2.6,0.4c6.2,1.7,12.5,3,19,4c7.5,1.1,15.2,1.2,22.8,0.9
				c8.3-0.4,16.4-2.2,24.3-4.7c6.5-2,12.8-4.1,19.5-5.1c2.9-0.5,5.8-0.9,8.8-1.2c4-0.4,8,0,12-0.3c5-0.3,10.2-0.3,15.2-0.9
				c6.5-0.8,13.1-1.8,19.4-3.3c9.5-2.2,18.9-4.6,28.5-6.3c5.7-1.1,11.5-1.7,17.3-2.2c6.2-0.5,12.4-0.7,18.6-0.5
				c4.4,0.1,8.7,0.5,13.1,0.8c-2.2,5.5-5.3,10.5-8.6,15.6c-4.2,6.5-9,12.4-14.5,17.8c-0.8,0.1-1.5,0.3-2.2,0.4
				c-14.4,3.3-28.7,6.1-43.4,7.9c-10,1.2-19.9,1.6-30.1,1.2c-9.1-0.4-18.2-1.6-27.2-2.9c-10.4-1.5-21-2.2-31.4-2.5
				c-9.2-0.3-18.5,0-27.7-0.4c-4.9-0.3-9.8-0.7-14.6-1.3c-2.5-0.3-4.9-1.1-7.5-1.2c-2.4-2-4.4-4.4-6.3-6.6
				C344.6,1203.8,342.1,1200.7,339.9,1197.3z"/>
			<path class="st10" d="M567.6,1092.1c-4,0.9-7.9,1.7-11.9,2.4c-7.3,1.2-14.5,1.5-21.8,1.2c-6.9-0.3-13.7-1.1-20.4-2.2
				c-9.4-1.7-18.7-3.8-28.1-5.7c-7.6-1.5-15.3-2.9-22.9-3.7c-5.1-0.5-10.4-1.2-15.7-1.5c-5.4-0.4-10.8-0.7-16.2-0.9
				c-6.6-0.3-13.2-0.7-19.6-1.2c-8.6-0.8-17.1-1.7-25.6-3.2c-11.5-1.8-22.7-4.1-34-6.9c-5.9-1.5-11.7-2.9-17.5-4.4
				c-0.5-0.1-1.2-0.3-1.7-0.3c3.8-7.8,8.4-15,14-21.8c0.4,0.4,0.9,0.5,1.5,0.5c3.3,0.7,6.7,1.2,10,2c13.6,3.2,27.2,6.3,40.7,9.6
				c13.5,3.2,27.2,5.1,40.9,6.3c5.5,0.5,11.2,0.9,16.7,1.2c7.5,0.4,14.9,0.9,22.4,1.5c5.1,0.4,10.4,0.9,15.6,1.6
				c9.4,1.3,18.7,2.8,28.1,4.1c8.6,1.3,17.1,1.7,25.7,1.1c1.3-0.1,2.6-0.3,4-0.4c2.8-0.4,5.5-0.7,8.2-1.1c1.8,3,2.9,6.3,4.1,9.6
				C565.5,1084.2,566.8,1088,567.6,1092.1z"/>
			<path class="st10" d="M507.1,1121.5c7.6-0.9,15-2.5,22.4-4.6c7-2,13.7-4.6,20.7-6.2c6.2-1.5,12.7-2.5,19.1-2.2
				c0.5,0,1.1,0,1.6,0.3c0.8,3.3,0.9,6.6,1.2,10c0.4,7.3,0.3,14.5-0.5,21.8c0,0.4-0.1,0.9-0.3,1.3c-5.5,1.7-11.2,3-17,2.6
				c-4.5-0.3-8.8-1.1-13.2-2.1c-4.9-1.2-9.8-1.8-14.9-1.7c-3.7,0.1-7.4,0.9-11.2,1.8c0.9,0.9,1.8,1.6,2.6,2.5
				c2.9,3.6,2,8.4-2.2,10.8c-5.3,3-10.8,3.3-16.4,0.7c-4-1.8-5.4-4.4-4.7-8.8c0.1-0.9-0.4-0.9-0.9-0.7c-1.2,0.4-2.4,0.5-3.7,0.5
				s-2.6,0-3.8-0.1c-4-0.1-7.8-0.7-11.6-1.5c-7.1-1.3-13.7-4.1-20.7-5.7c-0.5-0.7-1.1-1.5-1.6-2.1c-2.6-2.9-5.8-4.4-9.8-3.6
				c-2.2,0.4-4,1.7-5.5,3.3c-3.4-0.4-6.9-0.1-10.2,0.1c-3.4,0.1-7,0.7-10.4,1.1c-2.8,0.3-5.5,0.7-8.3,0.8c-1.8,0.1-3.8,0.3-5.7,0
				c4.1-1.8,6.7-5,8.2-9.1c2.1-5.9,1.2-11.6-2.5-16.7c1.8-0.8,3.8-0.5,5.8-0.8c4.4-0.5,8.7-1.2,13.1-1.5c4.4-0.3,8.7-0.5,13.2-0.3
				c6.3,0.4,12.5,1.8,18.6,3.7c4.4,1.3,8.6,2.6,12.9,3.8c2.2,0.7,4.5,1.1,6.7,1.6c-0.7,3.2-0.5,6.3,0.4,9.5
				c2,6.2,7.3,10.5,13.6,10.8c5.9,0.3,11.5-3.3,14.1-9.1C507.4,1128.5,507.5,1125.1,507.1,1121.5z"/>
			<path class="st7" d="M560,1070.7c-2.8,0.4-5.5,0.7-8.2,1.1c-1.3,0.1-2.6,0.4-4,0.4c-8.6,0.7-17.3,0.1-25.7-1.1
				c-9.4-1.3-18.7-2.9-28.1-4.1c-5.1-0.7-10.3-1.2-15.6-1.6c-7.5-0.7-14.9-1.1-22.4-1.5c-5.5-0.3-11.2-0.7-16.7-1.2
				c-13.7-1.2-27.4-3-40.9-6.3c-13.6-3.3-27.2-6.5-40.7-9.6c-3.3-0.8-6.7-1.3-10-2c-0.5-0.1-1.1-0.1-1.5-0.5
				c3.4-4.4,7-8.4,11.1-12.1c5.8,0.5,11.6,1.6,17.3,2.8c6.7,1.5,13.2,3.3,19.8,5.4c10.2,3.3,20.4,6.7,30.9,9.2
				c11.5,2.6,23.1,4.2,34.9,4.7c4.9,0.3,9.8,0.3,14.6,0.3c11.9,0.1,23.7-0.3,35.6,0.3c1.6,0.1,3.2,0.1,4.7,0.4
				c4.7,0.5,9.6,0.9,14.4,1.7c5.5,0.9,11.1,1.7,16.5,2.5c3.2,0.5,6.3,1.2,9.5,1.3C557,1064.1,558.8,1067.2,560,1070.7z"/>
			<path class="st8" d="M401.9,1139.8c1.8,0.3,3.8,0.1,5.7,0c2.8-0.1,5.5-0.5,8.3-0.8c3.4-0.4,7-0.9,10.4-1.1
				c3.4-0.1,6.7-0.5,10.2-0.1c-2.2,2.9-3.7,6.1-4.1,9.8c-0.5,5.4,0.3,10.4,5.3,13.7c-1.5,1.1-3.3,0.8-5,1.2
				c-3.8,0.7-7.8,1.3-11.7,1.7c-2.8,0.4-5.7,0.7-8.4,0.7c-5.8,0.1-11.5,0.3-17.3-0.3c-9.5-0.9-18.6-3-27.2-7.3
				c-4.4-2.1-8.6-4.5-13.2-5.9c-5.9-2-12.1-3.2-18.3-2.8c-3.3,0.3-6.6,0.9-9.9,1.5c-2.2,0.4-4.5,0.5-6.7,0.8
				c-1.2-4.6-1.7-9.4-2.1-14.2c-0.4-4.2-0.7-8.6-0.4-12.9c0.4,0,0.8-0.1,1.2-0.1c3.4-0.5,6.9-1.2,10.3-1.3c3.3-0.1,6.6-0.4,9.9-0.1
				c3,0.3,5.9,0.7,9,1.2c6.6,1.3,12.8,4,18.7,7.1c4.7,2.5,9.8,4.9,14.9,6.5c2,0.7,4,1.5,6.2,1.1
				C392.1,1141.1,396.9,1141.9,401.9,1139.8z M382.9,1158c2.5,0.3,5-0.5,7.4-1.6c2.6-1.3,4.9-3,5.1-6.3c0.4-3.7-1.6-6.1-4.6-7.8
				c-1.8-1.1-4-1.6-6.1-1.7c-4.7-0.4-9.4,0.4-12.8,4.1c-3.2,3.3-2,7.8,0.7,9.9C375.4,1157,378.8,1158.2,382.9,1158z"/>
			<path class="st10" d="M353.7,1213.4c2.5,0.1,5,0.9,7.5,1.2c4.9,0.7,9.8,1.2,14.6,1.3c9.2,0.4,18.5,0.1,27.7,0.4
				c10.5,0.3,21,1.1,31.4,2.5c9.1,1.2,18.1,2.4,27.2,2.9c10,0.4,20,0,30.1-1.2c14.6-1.8,29-4.7,43.4-7.9c0.7-0.1,1.5-0.3,2.2-0.4
				c-6.5,7-13.8,12.9-21.8,18.1c-3.4,2.2-6.9,4.4-10.4,6.2c-0.3-0.3-0.4-0.3-0.5,0l0,0c-0.8,0-1.7,0-2.5,0.1c-2.4,0.4-4.6,0.8-7,1.1
				c-4.4,0.4-8.7,0.7-12.9,1.3c-5.1,0.7-10.3,1.6-15.4,2.1c-6.2,0.7-12.3,0.3-18.3-0.8c-6.6-1.2-12.9-3.4-19.1-5.9
				c-10.4-4.2-21.2-6.7-32.4-7.1c-9.5-0.4-19,0.3-28.4-0.7C363.5,1222.5,358.4,1218.3,353.7,1213.4z"/>
			<path class="st9" d="M555.2,1060.8c-3.2-0.1-6.3-0.8-9.5-1.3c-5.5-0.8-11.1-1.7-16.5-2.5c-4.7-0.8-9.6-1.2-14.4-1.7
				c-1.6-0.1-3.2-0.3-4.7-0.4c-11.9-0.7-23.7-0.1-35.6-0.3c-4.9,0-9.8,0-14.6-0.3c-11.7-0.7-23.3-2.1-34.9-4.7
				c-10.5-2.4-20.7-5.8-30.9-9.2c-6.5-2.1-13.1-4-19.8-5.4c-5.7-1.2-11.5-2.2-17.3-2.8c3.7-3.7,7.6-7.1,11.9-10.2
				c2.4,0.4,4.7,0.5,7.1,1.1c9.9,1.8,19.8,4,29.4,7c12.4,3.8,24.7,7.4,37.5,9.4c5.4,0.9,10.8,1.7,16.2,2.1c4.9,0.4,9.8,0.7,14.6,0.7
				c10.9,0.1,21.9,0,32.7,0.4c0.3,0,0.5,0,0.8,0c5.1,0.5,10.3,0.5,15.4,1.2c4.1,0.5,8.2,0.9,12.4,1.3c3.6,0.4,7,1.2,10.5,1.3
				C549.4,1050.9,552.7,1055.7,555.2,1060.8z"/>
			<path class="st10" d="M384.5,1012.3c3.6-2.1,7.5-3.7,11.3-5.3c11.5-4.6,23.3-7.4,35.5-9.1c0.4,0,0.9,0,1.3,0
				c4.7,1.8,9.4,4,14,6.2c7.9,3.8,16.1,6.7,24.5,9c6.9,1.7,13.8,3,21,4c6.2,0.8,12.4,1.5,18.7,1.5c0.4,0,0.9,0.1,1.3,0.1
				c1.5,0,2.9,0.4,4.4-0.3c6.1,4,11.7,8.4,16.7,13.6c-5.1,0.4-10.2,0.4-15.3,0.4c-10.7-0.1-21.5,0.3-32.2-0.3
				c-6.7-0.3-13.3-0.8-20-1.5c-6.2-0.7-12.4-1.6-18.5-2.9c-9.4-2-18.6-4.7-27.7-7.3c-7.8-2.2-15.4-4.4-23.3-5.9
				C392.4,1013.8,388.4,1013.1,384.5,1012.3z"/>
			<path class="st7" d="M384.5,1012.3c3.8,0.7,7.8,1.3,11.6,2.1c7.9,1.6,15.6,3.8,23.3,5.9c9.2,2.6,18.3,5.4,27.7,7.3
				c6.1,1.2,12.3,2.2,18.5,2.9c6.6,0.7,13.3,1.2,20,1.5c10.7,0.5,21.5,0.1,32.2,0.3c5.1,0,10.3,0,15.3-0.4
				c4.7,4.4,8.8,9.2,12.7,14.4c-3.6-0.1-7-0.9-10.5-1.3c-4.1-0.4-8.3-0.9-12.4-1.3c-5.1-0.7-10.3-0.7-15.4-1.2c-0.3,0-0.5,0-0.8,0
				c-10.9-0.4-21.9-0.3-32.7-0.4c-4.9,0-9.8-0.3-14.6-0.7c-5.4-0.4-10.8-1.3-16.2-2.1c-12.8-2.1-25.2-5.7-37.5-9.4
				c-9.6-2.9-19.5-5.1-29.4-7c-2.4-0.4-4.7-0.7-7.1-1.1C373.9,1018.2,378.9,1014.9,384.5,1012.3z"/>
			<path class="st10" d="M387.6,1138.2c-2.1,0.4-4.2-0.4-6.2-1.1c-5.1-1.7-10.2-4-14.9-6.5c-5.9-3.2-12-5.8-18.7-7.1
				c-2.9-0.5-5.9-0.9-9-1.2c-3.3-0.4-6.6,0-9.9,0.1c-3.4,0.1-6.9,0.8-10.3,1.3c-0.4,0-0.8,0.1-1.2,0.1c-0.1-6.7,0.8-13.5,2-20.2
				c0.4-2,0.5-4.1,1.3-6.1c1.5-0.4,2.9-0.5,4.4-0.5c3.4-0.1,7-0.1,10.4,0c4.9,0.3,9.8,1.1,14.4,2.5c5.4,1.6,10.4,4,15.4,6.3
				c6.1,2.9,12.3,5.3,18.7,6.9c0.5,0.1,0.9,0.1,1.3,0.5c-2.5,3.2-4.1,6.7-4.2,10.8C381.2,1129.9,383.4,1134.6,387.6,1138.2z"/>
			<path class="st8" d="M369,1226.5c9.5,0.9,19,0.3,28.4,0.7c11.2,0.4,22,2.9,32.4,7.1c6.2,2.5,12.5,4.7,19.1,5.9
				c6.1,1.2,12.1,1.5,18.3,0.8c5.1-0.5,10.3-1.5,15.4-2.1c4.4-0.5,8.7-0.8,12.9-1.3c2.4-0.3,4.7-0.7,7-1.1c0.8-0.1,1.7-0.1,2.5-0.1
				c-0.3,0.7-0.9,0.8-1.5,1.1c-12.4,6.3-25.5,10.9-39.3,13.1c-15.7,2.4-31.3,1.8-46.8-1.7c-17.4-4-33.2-11.3-47.7-21.5
				C369.7,1227,369.3,1226.7,369,1226.5z"/>
			<path class="st8" d="M516.5,1018.4c-1.5,0.7-2.9,0.3-4.4,0.3c-0.4,0-0.9-0.1-1.3-0.1c-6.3,0-12.5-0.7-18.7-1.5
				c-7.1-0.9-14-2.2-21-4c-8.4-2.1-16.6-5.1-24.5-9c-4.6-2.2-9.2-4.4-14-6.2c7.9-1.1,15.8-1.1,23.7-0.4c10.9,0.9,21.6,3.3,32,6.9
				C498.4,1007.8,507.8,1012.4,516.5,1018.4z"/>
			<path class="st8" d="M505.1,1236.5c0.1-0.3,0.4-0.4,0.5,0C505.5,1236.5,505.3,1236.5,505.1,1236.5z"/>
			<path class="st9" d="M359.4,1165.4c8.2,0,15.3,1.8,22.3,4.7c4.4,1.8,8.4,4.2,12,7.4c2.9,2.6,5,5.7,5.3,9.6c0.3,4-1.8,6.7-5,8.8
				c-2.9,2-6.3,2.9-9.8,3.3c-7.6,0.9-15-0.3-22.2-2.6c-5.3-1.7-10.2-4.1-14.4-7.5c-2.6-2.1-5-4.5-6.3-7.8
				c-2.4-5.8,0.3-10.5,5.3-13.2C349.8,1166.6,353.9,1165.3,359.4,1165.4z M363.8,1172c-3.2-0.1-6.2,0.3-9,1.6
				c-3.7,1.7-5.9,5.4-3,9.6c1.2,1.8,2.6,3.3,4.5,4.5c7,4.6,14.8,6.7,23.1,5.7c2.4-0.3,4.6-0.9,6.6-2.4c2.5-1.8,3.3-4.5,2.1-7.1
				c-0.8-1.7-1.8-3.2-3.3-4.4C378.5,1174.6,371.7,1172,363.8,1172z"/>
			<g>
				<path class="st3" d="M437.7,1161.3c-4.9-3.4-5.8-8.3-5.3-13.7c0.4-3.6,1.7-6.9,4.1-9.8c1.6-1.5,3.3-2.8,5.5-3.3
					c4-0.8,7.1,0.7,9.8,3.6c0.5,0.7,1.1,1.5,1.6,2.1c2.9,5.7,3.7,11.6,0.7,17.5C449.6,1163.3,444.2,1164.6,437.7,1161.3z
					 M436.6,1151.6c-0.3,0.5,0.1,1.1,0.3,1.6c1.1,3.8,3.8,5.8,7.8,5.5c3.8-0.3,6.3-2.6,6.9-6.5c0.4-3.7-0.3-7.1-2.4-10.2
					c-2.2-3.3-5.7-4.1-8.4-2c-1.5,1.1-2.4,2.5-3,4.1C437,1146.6,436.4,1149.1,436.6,1151.6z"/>
			</g>
			<path class="st8" d="M454.1,1157.8c3-5.9,2.2-11.7-0.7-17.5c7,1.7,13.7,4.4,20.7,5.7c3.8,0.7,7.6,1.2,11.6,1.5
				c1.3,0,2.6,0,3.8,0.1c-0.1,0.5-0.5,0.5-0.9,0.7c-6.2,1.6-12.3,3.6-18.3,5.5c-4.5,1.5-8.8,2.6-13.3,4
				C456.1,1157.8,455.2,1158.4,454.1,1157.8z"/>
			<g>
				<path class="st3" d="M507.1,1121.5c0.4,3.6,0.3,7-1.2,10.3c-2.6,5.8-8.2,9.5-14.1,9.1c-6.2-0.4-11.6-4.6-13.6-10.8
					c-1.1-3.2-1.1-6.3-0.4-9.5c1.1-3.3,2.5-6.2,5.1-8.6c6.5-5.7,16.5-4.4,21.2,2.8C505.7,1117,506.6,1119.1,507.1,1121.5z
					 M496.6,1124.8c3,0,5.5-2.4,5.5-5.4c0-2.9-2.4-5.3-5.3-5.4c-2.9,0-5.4,2.4-5.4,5.3C491.3,1122.3,493.7,1124.8,496.6,1124.8z"/>
			</g>
			<g>
				<path class="st3" d="M387.6,1138.2c-4.2-3.7-6.5-8.3-6.3-13.8c0.1-4.1,1.6-7.6,4.2-10.8c5.5-5.5,12.4-6.5,18.6-2.6
					c1.3,0.8,2.4,2,3.4,3.2c3.7,5.1,4.6,10.7,2.5,16.7c-1.5,4.1-4.2,7.3-8.2,9.1C396.9,1141.9,392.1,1141.1,387.6,1138.2z
					 M400.4,1124.8c3,0,5.4-2.5,5.4-5.4c0-2.9-2.4-5.3-5.3-5.3c-3,0-5.4,2.4-5.4,5.5C395.2,1122.4,397.5,1124.8,400.4,1124.8z"/>
			</g>
			<g>
				<path class="st3" d="M394.5,1095.9c1.7-0.1,3.3,0.1,4.7,0.8c1.3,0.5,1.8,1.7,1.5,2.9s-1.5,1.7-2.9,1.5c-3.7-0.9-7.1-0.4-10,2.1
					c-1.1,0.9-2.2,0.8-3-0.1c-0.8-0.9-0.9-2.2,0.1-3.2c1.8-1.8,4-2.9,6.5-3.4C392.4,1096,393.4,1095.9,394.5,1095.9z"/>
			</g>
			<g>
				<path class="st3" d="M493.9,1095.9c4,0,7,1.1,9.6,3.4c0.8,0.7,1.2,1.5,1.1,2.5c-0.3,1.7-2.2,2.4-3.7,1.2c-2.9-2.5-6.2-2.8-9.8-2
					c-1.6,0.4-2.6-0.1-3-1.3c-0.4-1.2,0.3-2.4,1.6-2.9C491.2,1096.2,492.7,1095.9,493.9,1095.9z"/>
			</g>
			<path class="st10" d="M382.9,1158c-4.1,0.1-7.4-1.1-10.3-3.4c-2.6-2.1-3.8-6.6-0.7-9.9c3.6-3.7,8-4.6,12.8-4.1
				c2.1,0.1,4.2,0.7,6.1,1.7c3,1.7,5,4.1,4.6,7.8c-0.3,3.2-2.5,5-5.1,6.3C387.8,1157.6,385.3,1158.3,382.9,1158z"/>
			<path class="st7" d="M363.8,1172c7.8,0.1,14.8,2.6,21,7.5c1.5,1.2,2.5,2.6,3.3,4.4c1.2,2.8,0.4,5.4-2.1,7.1
				c-2,1.5-4.2,2.1-6.6,2.4c-8.4,1.1-16.1-1.2-23.1-5.7c-1.8-1.2-3.3-2.6-4.5-4.5c-2.9-4.4-0.7-8,3-9.6
				C357.6,1172.3,360.6,1171.9,363.8,1172z"/>
			<path class="st8" d="M451.6,1152.1c-0.5,3.8-3.2,6.3-6.9,6.5c-4,0.3-6.7-1.7-7.8-5.5c-0.1-0.5-0.5-0.9-0.3-1.6
				c0.5,0,0.8-0.4,1.1-0.8c2.1-2.2,4.6-3.2,7.6-2.8C448,1148.4,450.3,1149.5,451.6,1152.1z"/>
			<path class="st9" d="M451.6,1152.1c-1.2-2.6-3.6-3.7-6.2-4.1c-3-0.4-5.5,0.7-7.6,2.8c-0.3,0.3-0.5,0.8-1.1,0.8
				c-0.3-2.5,0.4-5,1.2-7.4c0.5-1.7,1.6-3,3-4.1c2.8-2.1,6.2-1.3,8.4,2C451.2,1145,452,1148.5,451.6,1152.1z"/>
			<path class="st11" d="M496.6,1124.8c-2.9,0-5.1-2.5-5.1-5.4c0-3,2.5-5.4,5.4-5.3c2.9,0,5.3,2.5,5.3,5.4
				C502.1,1122.4,499.6,1124.8,496.6,1124.8z"/>
			<path class="st11" d="M400.4,1124.8c-2.9,0-5.4-2.4-5.4-5.1c0-3,2.4-5.5,5.4-5.5c2.9,0,5.3,2.4,5.3,5.3
				C405.8,1122.3,403.5,1124.8,400.4,1124.8z"/>
		</g>
	</g>
	<ellipse class="st12" cx="382.4" cy="1149.5" rx="13.8" ry="9.2"/>
	<ellipse class="st12" cx="507.2" cy="1149.5" rx="13.8" ry="9.2"/>
</g>
<g id="saturn">
	<g id="silhouette_00000045604605388794502030000003200853432667977380_">
		<path id="silhouette_00000059291564125123745980000007256473140039892125_" class="st13" d="M249.7,1235.6
			c-0.4-25.3-16.2-47.2-29-64.7l-1.1-1.5l0.9-1.5c10.9-17.7,16.5-38.2,15.6-58.2v-0.1c0.1-28.6-13.8-55.6-38.4-74.4
			c-19.4-14.6-43-22.7-66.6-22.7c-18.1,0-35.3,4.7-49.8,13.7l-1.7,0.9l-1.5-1.1c-26.1-19.3-46-29-59.3-29c-5.5,0-9.9,1.6-13.3,5
			c-18.9,18.6,16.1,70.3,27.3,85.6l0.8,1.1l-0.3,1.2c-3.6,13.5-4,27.6-1.2,39.7v0.1v0.1c3.6,25.3,18.1,49.2,39.6,65.7
			c18.1,13.7,39.8,21.2,61.3,21.2c5.9,0,11.9-0.5,17.5-1.7l1.1-0.3l0.9,0.7c1.2,0.9,2.6,1.8,4.1,2.9c24.3,17.1,52,35.5,71.7,35.5
			c3.2,0,6.1-0.5,8.6-1.5c4.5-1.7,10.3-5.7,12.7-15.3l0.1-0.7L249.7,1235.6z M59.9,1051.3c-0.3,0.3-0.5,0.7-0.8,1.1
			c0.3,0.5,0.5,1.2,0.8,1.8c-0.3-0.7-0.5-1.2-0.8-1.8l0,0l0,0c-2,2-3.6,4.2-5.1,6.3c-0.9,1.2-1.7,2.4-2.5,3.7
			c0.4,1.2,0.9,2.4,1.6,3.6c-0.7-1.1-1.2-2.2-1.6-3.6l0,0l0,0c-1.3-1.5-1.8-3.3-2.5-4.9c-1.7-3.7-3.2-7.5-3.6-11.6
			c-0.7-6.2,3-8.6,8.7-7.6c4.9,0.8,9.2,3,13.3,5.5C64.8,1046.2,62.3,1048.8,59.9,1051.3z M199.2,1206.8c-3.4-0.5-6.6-1.8-9.8-3.3
			c-2.8-1.2-5.3-2.8-7.9-4.2c0.9-0.8,2.1-1.2,2.9-2.1c2.2-1.1,4-2.6,5.9-4c4.1-3,8-6.5,11.6-10.2c0.8,0.4,1.2,1.3,1.6,2
			c2.1,4.2,4,8.6,4.6,13.2C209.2,1205.1,205.5,1207.7,199.2,1206.8z"/>
		<path class="st14" d="M184.8,1197.3"/>
	</g>
	<g>
		<path class="st10" d="M212.8,1169.6c-0.8,0.9-1.6,2-2.2,3.2c-1.2,1.3-2.4,2.8-3.3,4.2c-1.8,2-3.7,4-5.4,6.2
			c-3.6,3.7-7.4,7.1-11.6,10.2c-2,1.5-3.7,3-5.9,4c-1.5-0.7-3.2-0.7-4.6-0.7c-0.9,0-1.8-0.7-2.8,0c-4.5-2.6-8.7-5.7-12.9-8.6
			c-7-5-13.7-10.4-20.3-16c-13.6-11.6-26.5-23.9-38.5-37.1c-10.5-11.5-20.6-23.2-29.9-35.6c-7.4-9.8-14.4-19.6-20.4-30.2
			c-1.3-2.2-2.8-4.4-3.4-6.9c0.8-1.2,1.6-2.5,2.5-3.7c1.6-2.2,3.2-4.5,5.1-6.3c0.7,1.2,1.1,2.4,1.6,3.6c2.8,6.6,5.9,12.9,9.4,19.1
			c5.1,9,11.1,17.3,17.4,25.5c6.1,7.8,12.9,15,20.3,21.6c5.3,4.7,10.8,9.2,16.5,13.5c3.7,2.8,7.5,5.4,11.5,7.8
			c4.7,2.9,9.6,5.8,14.8,8.2c1.3,0.7,2.5,1.6,4.1,1.8c0.4,0.3,0.9,0.5,1.3,0.8c0.3,0.1,0.5,0.4,0.9,0.3l0,0c2.1,1.1,4.2,1.8,6.5,2.8
			c6.7,2.6,13.7,4.7,20.8,6.3c8.3,1.8,16.7,2.9,25.2,3c1.7,0,3.6-0.4,5.3,0.1C214.1,1167.5,213.4,1168.6,212.8,1169.6z"/>
		<g>
			<g>
				<path class="st10" d="M79.5,1034.1c-0.7,0.8-1.6,1.5-2.6,1.7c-0.8-1.3-2.1-1.7-3.2-2.6c-4-3.2-8.2-5.9-12.4-8.4
					c-6.5-4-12.9-7.8-20.2-10.3c-4.5-1.6-9-2.6-13.7-2.1c-4.6,0.5-7.6,3-8.8,7.5c-1.1,4.1-0.4,8.2,0.7,12.1c2.1,8,5.7,15.7,9.5,23.1
					c4,7.5,8.3,14.8,12.9,21.8c4.4,6.7,9,13.3,13.8,19.8c4,5.3,7.9,10.5,11.9,15.7c4.2,5.4,8.7,10.7,13.2,16
					c6.2,7.3,12.5,14.4,19.1,21.4c3.8,4.1,7.8,8,11.6,12c5.4,5.4,10.8,10.5,16.5,15.7c6.1,5.5,12.3,10.9,18.6,16.1
					c4.1,3.3,8.2,6.5,12.4,9.6c3.8,3,7.9,5.7,12,8.4c5.4,3.7,10.9,7.3,16.5,10.5c5.1,3,10.4,5.7,16,7.9c5.5,2.4,11.2,4.1,17.3,4.1
					c6.9,0.1,11.5-3.3,12.1-9.8c0.4-3.4-0.1-6.7-0.9-10c-1.6-6.3-4.2-12.3-7-18.1c-3-6.2-6.7-12.3-10.4-18.2
					c-1.2-1.8-2.1-3.8-3.6-5.3c0.7-1.2,1.5-2.1,2.2-3.2c1.7,1.8,3,4,4.5,6.1c6.9,9.5,13.3,19.3,18.5,29.8c2.2,4.6,4.4,9.5,5.9,14.4
					c1.6,5.1,2.9,10.4,2.4,16c-0.4,5-2.5,9-7.3,11.1c-3.7,1.6-7.5,1.6-11.5,0.9c-6.2-0.9-12-2.9-17.8-5.3c-9.4-3.8-18.1-9-26.6-14.1
					c-5.1-3-10-6.5-14.8-9.9c-4.1-2.9-8-5.8-12-8.8c-0.4-0.3-0.9-0.5-1.3-0.8c-0.1-0.7-0.7-0.9-1.1-1.2c-4.2-3.2-8.4-6.6-12.5-10
					c-2.5-2.1-5-4.2-7.6-6.3c-0.1-0.1-0.3-0.4-0.4-0.5c-3-2.8-6.2-5.5-9.2-8.3c-4.5-4.1-9-8.3-13.3-12.7c-8-7.9-15.7-16-23.2-24.3
					c-14.1-15.6-26.9-32-39.2-49.1c-2.1-2.9-4.1-6.1-6.5-8.8c-3-4.6-6.2-9.1-9.2-13.7c-5.7-8.7-11.2-17.7-15.8-27
					c-3.6-7.3-6.6-14.8-8.4-22.7c-0.9-4.1-1.3-8.2-0.4-12.3c0.9-4.7,4.7-8.2,9.6-8.8c5.8-0.8,11.3,0.5,16.7,2.4
					c8.7,2.9,16.6,7.6,24.4,12.4c4.1,2.5,8,5.3,11.9,8C72.1,1028.5,75.8,1031.3,79.5,1034.1z"/>
				<path class="st7" d="M230.5,1109.9c-1.8-0.1-3.7-0.1-5.5-0.4c-5.5-0.5-10.9-2.1-16.1-4.1c-5.4-2-10.5-4.5-15.6-7.4
					c-5-2.9-9.9-6.1-14.8-9.5c-9.1-6.5-17.4-13.6-25.2-21.4c-5.3-5.3-10-10.8-14.5-16.9c-2.8-3.8-5.5-7.8-7.6-12
					c-2.6-5.1-5.1-10.4-5-16.4c0-1.2,0.1-2.4,0.5-3.4c6.9-0.5,13.7-0.1,20.6,1.1c0.1,2,0.3,4.1,0.9,6.1c1.3,3.4,3,6.7,5.1,9.8
					c5.7,8.4,12.4,15.8,19.9,22.7c5.8,5.3,12,10.2,18.6,14.5c5.8,3.7,11.9,7.3,18.3,9.6c3.8,1.5,7.8,2.6,12,2.8
					c1.3,0,2.6,0.3,3.8-0.7c0.1,0.3,0.4,0.7,0.5,0.9c2.4,7.6,3.7,15.6,4.1,23.6C230.6,1109.1,230.7,1109.5,230.5,1109.9z"/>
				<path class="st7" d="M131.5,1191.4c2.5,2.1,5,4.2,7.6,6.3c4.1,3.4,8.3,6.7,12.5,10c0.4,0.3,0.9,0.5,1.1,1.2
					c-11.9,2.2-23.9,2.8-35.9,0.8c-14.2-2.4-27.2-7.8-38.9-16.1c-13.8-9.8-24.3-22.4-31.8-37.6c-3.8-7.9-6.6-16.1-8.4-24.7
					c-0.1-0.8-0.5-1.6-0.3-2.5c1.3,1.3,2.2,2.9,3.4,4.4c5.7,7,12,13.5,18.7,19.4c7,6.2,14.4,11.7,22.3,16.9
					c4.4,2.9,8.8,5.7,13.6,7.9c4.4,2.1,8.7,4.4,13.3,6.2c4.9,2.1,9.8,4.1,14.8,5.5C126.3,1189.9,128.8,1191,131.5,1191.4z"/>
				<path class="st15" d="M131.5,1191.4c-2.6-0.5-5.3-1.5-7.8-2.2c-5-1.6-10-3.6-14.8-5.5c-4.5-2-8.8-4.1-13.3-6.2
					c-4.7-2.4-9.2-5.1-13.6-7.9c-7.8-5-15.3-10.7-22.3-16.9c-6.7-5.9-13.1-12.4-18.7-19.4c-1.2-1.5-2.2-3-3.4-4.4l0,0
					c-0.1-0.1-0.1-0.3-0.3-0.4c-1.1-4.5-1.3-9.2-1.5-13.8c-0.1-5.3,0.4-10.5,1.2-15.8c0-0.4,0.1-0.7,0.3-1.1
					c0.3,0.1,0.5,0.4,0.7,0.7c2.1,3.3,4.1,6.7,6.2,10c2.8,4.2,5.7,8.3,8.7,12.3c5.5,7.3,11.5,14,17.9,20.3
					c5.5,5.5,11.3,10.7,17.5,15.6c3.6,2.8,7.1,5.4,10.8,7.9c1.8,1.3,4,2.2,5.8,3.7c1.1,0.8,2.2,1.6,3.6,1.8
					c4.4,4.4,8.8,8.6,13.3,12.7c3,2.8,6.2,5.5,9.2,8.3C131.3,1191,131.4,1191.3,131.5,1191.4z"/>
				<path class="st15" d="M226,1084.2c-1.2,0.9-2.5,0.7-3.8,0.7c-4.1-0.1-8-1.3-12-2.8c-6.6-2.4-12.5-5.8-18.3-9.6
					c-6.6-4.2-12.8-9.1-18.6-14.5c-7.5-6.9-14.4-14.2-19.9-22.7c-2.1-3-3.8-6.3-5.1-9.8c-0.7-2-0.8-4-0.9-6.1
					c5,0.7,9.9,1.8,14.6,3.4c-0.3,0.9-0.3,1.7,0,2.6c1.3,4.9,4.4,8.7,7.5,12.7c4.6,5.7,9.8,10.7,15.3,15.4c4.5,4,9.4,7.4,14.5,10.5
					c2.6,1.7,5.4,3.2,8.3,4.4c3.2,1.3,6.3,2.5,9.6,2.8c1.1,0.1,2.2,0.3,3.3-0.4c1.2,1.6,1.8,3.4,2.5,5.1
					C224.3,1078.8,225.4,1081.3,226,1084.2z"/>
				<path class="st15" d="M214.8,1166.5c-1.7-0.5-3.6-0.1-5.3-0.1c-8.6-0.1-16.9-1.2-25.2-3c-7.1-1.6-14-3.7-20.8-6.3
					c-2.1-0.8-4.4-1.7-6.5-2.8c0.3-0.1,0.5,0,0.8,0c3.8,0.4,6.9-2.6,5.7-6.7c-0.8-2.8-2.6-4.5-4.9-5.9c2.8-0.7,5-2.1,6.6-4.6
					c0.1,0.5,0.5,0.9,1.1,1.2c3.4,1.6,6.9,3.2,10.4,4.5c3.8,1.5,7.6,2.8,11.6,4c6.5,2,12.9,3.4,19.6,4.2c4.4,0.5,8.6,0.9,12.9,0.8
					c0.5,0,1.1,0,1.5,0.3c0,1.1-0.7,1.8-1.1,2.8C219.4,1158.9,217.4,1162.9,214.8,1166.5z"/>
				<path class="st14" d="M220.4,1071c-1.1,0.7-2.2,0.5-3.3,0.4c-3.4-0.3-6.6-1.5-9.6-2.8c-2.9-1.2-5.7-2.8-8.3-4.4
					c-5-3.2-9.9-6.7-14.5-10.5c-5.5-4.7-10.8-9.8-15.3-15.4c-3-3.8-6.1-7.8-7.5-12.7c-0.3-0.9-0.3-1.8,0-2.6c2.6,0.4,5,1.6,7.5,2.5
					c5.5,2.1,10.9,4.7,16,7.8c8.8,5.4,16.6,12,23.3,19.9c4.5,5.3,8.6,10.8,11.5,17.1C220.3,1070.5,220.4,1070.7,220.4,1071z"/>
				<path class="st7" d="M108.5,1169.9c-1.5-0.3-2.5-1.1-3.6-1.8c-1.8-1.5-3.8-2.5-5.8-3.7c-3.7-2.5-7.3-5.1-10.8-7.9
					c-6.2-4.7-12-10-17.5-15.6c-6.5-6.3-12.5-13.1-17.9-20.3c-3-4-5.9-8-8.7-12.3c-2.1-3.3-4.2-6.6-6.2-10c-0.1-0.3-0.4-0.5-0.7-0.7
					c0.5-3.4,1.2-6.7,2.4-9.9c2.4,2.8,4.2,5.9,6.5,8.8c12.3,17,25.2,33.5,39.2,49.1C92.8,1153.9,100.6,1162,108.5,1169.9z"/>
				<path class="st7" d="M37.3,1128.2c0.1,0.1,0.1,0.3,0.3,0.4C37.3,1128.6,37.3,1128.5,37.3,1128.2z"/>
				<path class="st15" d="M207.2,1177c1.1-1.5,2.1-2.9,3.3-4.2c1.6,1.6,2.5,3.6,3.6,5.3c3.7,5.9,7.4,11.9,10.4,18.2
					c2.9,5.8,5.5,11.7,7,18.1c0.8,3.3,1.3,6.6,0.9,10c-0.7,6.5-5.3,9.9-12.1,9.8c-6.1-0.1-11.7-1.8-17.3-4.1
					c-5.5-2.2-10.8-4.9-16-7.9c-5.7-3.3-11.1-6.9-16.5-10.5c-4-2.8-8-5.5-12-8.4c-4.1-3.2-8.3-6.3-12.4-9.6
					c-6.3-5.1-12.5-10.7-18.6-16.1c-5.7-5-11.2-10.3-16.5-15.7c-4-4-7.8-7.9-11.6-12c-6.6-6.9-12.9-14-19.1-21.4
					c-4.5-5.3-9-10.5-13.2-16c-4.1-5.1-7.9-10.4-11.9-15.7c-4.7-6.5-9.4-13.1-13.8-19.8c-4.6-7.1-9-14.4-12.9-21.8
					c-3.8-7.4-7.4-14.9-9.5-23.1c-1.1-4-1.7-8-0.7-12.1c1.2-4.5,4.2-7,8.8-7.5c4.7-0.5,9.2,0.7,13.7,2.1c7.1,2.5,13.7,6.3,20.2,10.3
					c4.2,2.6,8.4,5.4,12.4,8.4c1.1,0.9,2.5,1.3,3.2,2.6c-0.9,1.1-2.4,2-3.7,2.9c-2.9-2-5.8-4-8.7-5.9c-3-2-6.3-3.6-9.6-4.9
					c-3.8-1.7-7.8-3-12-2.9c-4.1,0.1-6.6,1.7-7.8,5.5c-1.1,3.6-0.4,7.1,0.5,10.5c1.5,6.1,4,11.7,6.7,17.3c3.4,7,7.4,13.7,11.5,20.4
					c3.3,5.4,7,10.5,10.5,15.7c1.8,2.8,3.8,5.4,5.8,7.9c5.9,7.8,12.1,15.6,18.6,23.1c7.8,9.1,16,17.9,24.4,26.4
					c6.9,6.9,13.8,13.7,21.2,20c9.1,7.9,18.5,15.7,28.5,22.7c5.4,3.8,10.9,7.3,16.5,10.8c2.2,1.5,4.6,2.6,7,3.8
					c3.3,1.7,6.6,3.4,10.2,4.7c4.7,1.8,9.5,3.3,14.6,3.3c5.5-0.1,9-3.7,8.8-9.1c-0.3-5.4-2-10.5-4.1-15.4
					C213.2,1187.3,210.3,1182.2,207.2,1177z"/>
				<path class="st14" d="M233,1213.9c-1.6-6.7-4.5-13.1-7.1-18.3c-3.4-6.9-7.4-13.5-10.5-18.3c-0.3-0.5-0.5-0.9-0.9-1.5
					c-0.8-1.5-1.7-2.9-2.9-4.1l-0.1-0.3c-0.3,0.4-0.5,0.8-0.8,1.2c-1.2,1.3-2.4,2.8-3.3,4.2c-0.3,0.4-0.7,0.7-0.9,1.1
					c2.6,4.5,5.7,9.8,7.9,15.4c2,4.6,3.8,9.8,4,15c0.1,2.2-0.5,4.2-1.8,5.5c-1.3,1.5-3.3,2.1-5.7,2.2h-0.4c-5,0-9.6-1.6-13.7-3.2
					c-3-1.2-5.9-2.6-8.7-4.1l-1.8-0.9c-2.1-1.1-4.4-2.2-6.5-3.6l-3.3-2.1c-4.4-2.8-8.8-5.7-13.2-8.7c-8.6-6.1-17.3-12.9-28.4-22.5
					c-6.5-5.5-13.2-11.9-21.1-19.9c-8.3-8.3-16.5-17.3-24.3-26.4c-5.8-6.9-11.9-14.4-18.6-22.9c-2.2-2.9-4.1-5.5-5.8-7.9l-0.8-1.2
					c-3.3-4.7-6.6-9.5-9.6-14.5c-4.9-7.9-8.4-14.2-11.5-20.3c-2.6-5.3-5.1-10.9-6.6-17c-0.8-3.4-1.5-6.7-0.5-9.9
					c0.9-3.2,2.8-4.5,6.6-4.6c0.3,0,0.5,0,0.8,0c3.7,0,7.4,1.3,10.7,2.8c2.6,1.2,6.2,2.8,9.5,4.9c2,1.3,4.1,2.6,6.1,4.1
					c0.8,0.5,1.6,1.1,2.4,1.6c0.4-0.3,0.7-0.7,1.1-0.9c1.3-1.1,2.6-1.8,3.8-3c0.4-0.1,0.8-0.3,1.2-0.5v-0.1
					c-0.7-1.2-1.7-1.8-2.5-2.4c-0.4-0.3-0.7-0.4-0.9-0.7c-3.4-2.8-7.4-5.4-12.5-8.6c-6.6-4.1-13.1-7.9-20.4-10.4
					c-3.3-1.2-7.4-2.4-11.7-2.4c-0.8,0-1.7,0-2.5,0.1c-5.1,0.5-8.6,3.4-9.9,8.4c-1.2,4.5-0.4,9,0.7,12.8c2.2,8.7,6.1,16.6,9.6,23.3
					c3.7,7,7.9,14.1,12.9,21.9c4.2,6.5,8.8,13.2,13.8,19.9c4.2,5.7,8,10.8,11.9,15.8c4.5,5.8,9.2,11.3,13.2,16
					c6.7,7.9,13.1,14.9,19.3,21.4c3.7,4,7.6,7.9,11.7,12c5.1,5.1,10.7,10.4,16.5,15.7c5.8,5.3,12.1,10.8,18.7,16.2
					c3.3,2.6,6.6,5.3,9.9,7.8l2.5,2c3.2,2.5,6.6,4.7,9.9,7l2.1,1.5c5,3.4,10.4,6.9,16.6,10.5c4.7,2.8,10,5.4,16.1,8
					c6.9,2.9,12.3,4.1,17.7,4.2h0.4c7.5,0,12.4-4.1,13.1-10.9C234.3,1220.4,233.6,1216.7,233,1213.9z"/>
				<path class="st10" d="M230.5,1109.9c0.5,5.4,0.1,10.8-0.7,16.1c-1.2,8.4-3.3,16.6-6.6,24.4c-0.3,0.7-0.5,1.2-0.9,1.8
					c-0.4-0.3-0.9-0.3-1.5-0.3c-4.4,0.1-8.7-0.3-12.9-0.8c-6.7-0.8-13.2-2.2-19.6-4.2c-4-1.2-7.8-2.5-11.6-4c-3.6-1.3-7-3-10.4-4.5
					c-0.5-0.3-0.9-0.5-1.1-1.2c0.1-0.4,0.4-0.9,0.5-1.3c1.5-3.8,0.3-8-2.8-10.7c-3.2-2.5-7.4-2.9-10.9-0.8c-1.7,0.9-2.8,2.5-3.7,4.1
					c-3.6-2-7-4.1-10.2-6.5c-0.8-0.5-1.3-0.5-2,0.1c0.8-1.1,0.8-2.1-0.4-3c-4-3.3-8-6.6-12-9.9c-0.8-0.7-1.7-1.1-2.8-0.7
					c-1.1-0.9-2.2-1.7-3.3-2.6c-2.8-2.5-5.5-5-8.3-7.5c0.7-0.5,1.3-0.9,2-1.5c3.3-2.9,4.1-7.8,1.8-11.6c-2-4-6.7-5.8-10.9-4.5
					c-2.4,0.8-4.1,2.4-5.4,4.4c-0.4-0.3-0.9-0.5-1.3-1.1c-1.8-2.2-3.8-4.5-5.5-6.7c-4.4-5.5-8.3-11.3-11.9-17.4
					c-2.9-5-5.4-10.2-7.5-15.4c-0.4-0.9-0.5-1.8-1.2-2.5c1.2-1.1,2.4-2.1,3.6-3.3c1.3-1.1,2.6-1.8,3.8-3c1.1-0.3,1.8-0.9,2.6-1.7
					c4.6-2.9,9.2-5.7,14.2-7.9c10.5-4.6,21.5-7.3,33-7.8c-0.5,1.1-0.5,2.2-0.5,3.4c-0.1,5.9,2.4,11.2,5,16.4c2.2,4.2,4.9,8.2,7.6,12
					c4.4,5.9,9.2,11.6,14.5,16.9c7.8,7.8,16.1,15,25.2,21.4c4.7,3.4,9.8,6.6,14.8,9.5c5,2.9,10.2,5.4,15.6,7.4
					c5.3,2,10.5,3.6,16.1,4.1C226.8,1109.6,228.6,1109.8,230.5,1109.9z"/>
				<path class="st15" d="M67.3,1043.7c0.9-0.3,1.3-1.3,2.2-1.6c0.7,0.7,0.9,1.7,1.2,2.5c2,5.4,4.5,10.5,7.5,15.4
					c3.6,6.1,7.5,11.9,11.9,17.4c1.8,2.2,3.7,4.5,5.5,6.7c0.4,0.4,0.8,0.7,1.3,1.1h-0.1c-0.1,0.3-0.4,0.5-0.3,0.9
					c-0.4,1.1-0.7,2.1-0.8,3.3c-0.5,0.1-0.7-0.4-0.9-0.7c-1.3-1.2-2.5-2.2-4.2-2.6c-2.4-0.5-4.6-0.4-6.1,1.6
					c-1.5,1.8-1.5,4.1-0.4,6.2c1.1,2.1,2.6,3.6,4.7,4.6c2.9,1.3,6.6,1.2,8.2-2.5c0.1-0.3,0.4-0.5,0.5-0.8c3.3,4,7.1,4.9,12.1,2.9
					c2.8,2.5,5.5,5,8.3,7.5c1.1,0.9,2.1,1.8,3.3,2.6c-1.8,2.1-3.4,4.4-4.1,7.1c0,0.4-0.1,0.9-0.1,1.3c-0.7,4.1,1.2,7.3,4.6,9.4
					c2.8,1.7,5.9,1.8,9,0.3c2.5-0.9,4.2-2.6,5.8-4.5c0.7-0.7,1.2-0.7,2-0.1c3.3,2.4,6.7,4.5,10.2,6.5c0,0.1,0,0.3,0,0.4
					c-1.7,5.3-0.3,9.1,4.6,12c0.1,0.5-0.3,0.5-0.5,0.7c-2.2,1.3-3,3.6-2.4,6.1c0.7,2.6,2.4,4.6,4.7,5.8c-1.6-0.1-2.8-1.2-4.1-1.8
					c-5.1-2.2-10-5.1-14.8-8.2c-4-2.4-7.8-5-11.5-7.8c-5.7-4.2-11.2-8.7-16.5-13.5c-7.8-6.3-14.6-13.5-20.8-21.4
					c-6.3-8-12.4-16.5-17.4-25.5c-3.6-6.2-6.7-12.5-9.4-19.1c-0.5-1.2-0.9-2.5-1.6-3.6c0.3-0.4,0.5-0.8,0.8-1.1
					C62.3,1048.8,64.8,1046.2,67.3,1043.7z"/>
				<g>
					<path class="st3" d="M152.9,1140.9c-4.9-2.9-6.3-6.7-4.6-12c0-0.1,0-0.3,0-0.4c0.9-1.6,2.1-3,3.7-4.1c3.6-2.1,7.8-1.8,10.9,0.8
						c3.2,2.5,4.2,6.7,2.8,10.7c-0.1,0.5-0.4,0.9-0.5,1.3c-1.6,2.4-3.8,3.8-6.6,4.6C156.9,1140.9,154.9,1141,152.9,1140.9z
						 M158.3,1125.3c-1.8-1.1-4-0.4-5,1.3c-1.1,1.8-0.4,4.1,1.3,5.1c1.8,1.1,4.1,0.4,5-1.5C160.7,1128.5,160.2,1126.4,158.3,1125.3z
						"/>
				</g>
				<g>
					<path class="st3" d="M109.5,1098.4c-5,1.8-8.7,0.9-12.1-2.9c-0.1-2.1-0.7-4-1.7-5.8c0.1-1.2,0.4-2.2,0.8-3.3
						c0.3-0.3,0.4-0.5,0.3-0.9h0.1c1.3-2,3-3.6,5.4-4.4c4.2-1.3,8.8,0.5,11.1,4.2c2.2,4,1.5,8.7-1.8,11.6
						C110.8,1097.5,110.2,1097.9,109.5,1098.4z M102.9,1089.5c1.7,0.9,4,0.4,5-1.3c1.1-1.7,0.4-4.1-1.5-5.1c-1.7-0.9-4-0.4-5,1.3
						C100.6,1086,101.2,1088.4,102.9,1089.5z"/>
				</g>
				<g>
					<path class="st3" d="M117,1115.6c0.7-2.8,2.2-5,4.1-7.1c1.1-0.4,2,0,2.8,0.7c4,3.3,8,6.6,12,9.9c1.2,0.9,1.1,1.8,0.4,3
						c-1.7,1.8-3.4,3.7-5.8,4.5c-0.8-4.4-3.2-7.6-7.1-9.8C121.3,1115.8,119.2,1115.8,117,1115.6z"/>
				</g>
				<path class="st7" d="M152.9,1140.9c2,0,4-0.1,5.7,0.8c2.2,1.5,4.1,3.2,4.9,5.9c1.1,4.1-2,7.1-5.7,6.7c-0.3,0-0.5-0.1-0.8,0l0,0
					c-0.3-0.1-0.5-0.4-0.9-0.3c-0.4-0.3-0.9-0.5-1.3-0.8c-2.4-1.3-4.1-3.2-4.7-5.8c-0.7-2.5,0.3-4.7,2.4-6.1
					C152.6,1141.4,153,1141.4,152.9,1140.9z"/>
				<path class="st15" d="M184.4,1197.3c-0.8,0.9-2,1.2-2.9,2.1c-1.5-0.9-3-1.8-4.5-2.6c0.9-0.7,1.8-0.1,2.8,0
					C181.3,1196.7,182.8,1196.7,184.4,1197.3z"/>
				<path class="st15" d="M156.1,1154.2c0.4-0.1,0.7,0,0.9,0.3C156.7,1154.6,156.5,1154.3,156.1,1154.2z"/>
				<path class="st7" d="M95.7,1089.6c1.1,1.8,1.6,3.7,1.7,5.8c-0.1,0.3-0.4,0.5-0.5,0.8c-1.6,3.7-5.4,3.7-8.2,2.5
					c-2.1-0.9-3.7-2.4-4.7-4.6c-1.1-2.2-1.1-4.4,0.4-6.2c1.6-2,3.8-2.1,6.1-1.6c1.7,0.4,3,1.5,4.2,2.6
					C95,1089.2,95.2,1089.7,95.7,1089.6z"/>
				<path class="st7" d="M117,1115.6c2.1,0.3,4.2,0.3,6.2,1.3c4,2.1,6.3,5.4,7.1,9.8c-3,1.6-6.2,1.5-9-0.3c-3.4-2.1-5.1-5.3-4.6-9.4
					C116.9,1116.5,116.9,1116.1,117,1115.6z"/>
				<path class="st10" d="M96.9,1085.4c0.1,0.4-0.1,0.7-0.3,0.9C96.3,1085.9,96.6,1085.8,96.9,1085.4z"/>
				<path class="st16" d="M158.3,1125.3c1.7,1.1,2.4,3.2,1.5,5c-1.1,1.8-3.3,2.5-5,1.5c-1.7-1.1-2.4-3.3-1.3-5.1
					C154.4,1124.9,156.6,1124.4,158.3,1125.3z"/>
				<path class="st16" d="M102.9,1089.5c-1.8-1.1-2.4-3.3-1.5-5.1c1.1-1.7,3.3-2.4,5-1.3s2.5,3.4,1.5,5.1
					C107,1089.7,104.6,1090.4,102.9,1089.5z"/>
			</g>
		</g>
	</g>
</g>
<g id="neptune">
	<circle id="silhouette_00000044883222519598698650000008971953887063009973_" class="st17" cx="764.6" cy="771.9" r="131.9"/>
	<g>
		<path class="st18" d="M890.4,771.9c0,19.4-4.4,37.8-12.3,54.2c-2.5,5.1-5.4,10.2-8.4,15c-8.7,13.2-19.8,24.5-32.6,33.6
			c-0.5,0.4-1.1,0.8-1.6,1.1c-1.1,0.8-2.2,1.6-3.4,2.2c-0.7,0.4-1.3,0.8-2,1.2c-1.2,0.8-2.5,1.5-3.8,2.2
			c-18.2,10.3-39.3,16.2-61.7,16.2c-2.5,0-5-0.1-7.4-0.3l0,0c-8-0.5-16-1.7-23.6-3.7c-21.9-5.5-41.4-16.9-57.1-32.2
			c-0.1-0.1-0.1-0.1-0.3-0.3c-4-3.8-7.6-8-11.1-12.4c-0.1-0.3-0.3-0.4-0.4-0.7c-13.5-17.4-22.4-38.5-25.1-61.6
			c-0.5-4.9-0.9-9.8-0.9-14.6v-0.1c0-18.6,4.1-36.3,11.3-52.2c1.7-3.8,3.6-7.4,5.7-10.9c21.8-37.5,62.4-62.6,108.8-62.6
			C834.1,646.1,890.4,702.4,890.4,771.9z"/>
		<g>
			<path class="st19" d="M872.8,709.1c-31.9,24.7-75.7,33.6-115.8,31.6c-36.4-2.1-71.9-12.5-106.9-21.1c1.7-3.8,3.6-7.4,5.7-10.9
				c85.6,20,126.9,14.4,210.3-10.4C868.6,701.8,871,705.3,872.8,709.1z"/>
			<path class="st19" d="M878.1,826.1c-2.5,5.1-5.4,10.2-8.4,15c-24.7,0.7-45.6,15.6-69.8,18.6c-9,1.3-17.9,1.7-27,1.2
				c-32-3.2-65.1-10-96.5,0.5c-4-3.8-7.6-8-11.1-12.4c-0.1-0.3-0.3-0.4-0.4-0.7c65.1-28.1,105.9,16.7,174.9-13.7
				C851.7,830.3,865.2,824.7,878.1,826.1z"/>
			<path class="st19" d="M691.6,793.1c-16.9-4.9-34.3-10-52-6.3c-0.5-4.9-0.9-9.8-0.9-14.6c0.3,0,0.4-0.1,0.7-0.1
				c15.7-2.5,31,1.6,45.8,6.6C686.4,784,688.2,788.9,691.6,793.1z"/>
			<path class="st19" d="M838.4,762.4c15-9.5,28.1-22.7,45.2-28.4c1.3,4.1,2.6,8.3,3.2,12.7c-14.8,4.6-26.4,15.6-39.3,23.3
				C850.3,762.3,844.3,761.9,838.4,762.4z"/>
			<path class="st19" d="M739.1,709.4c-14.4,0.3-44.8-6.6-48.3-23.3c0.9-0.7,1.5,0.4,2,0.9c12.3,9.6,28.7,11.7,43.8,10.9
				c11.3-0.9,24.5-3.4,31.9-12.9c5.4-7.8-4.5-13.6-11.3-13.6c-7.6-0.5-17.5,0.4-22.2,7.4c-0.3,0.5-0.4,1.2-1.2,1.1
				c-0.7-0.1-0.9-0.9-1.1-1.5c-0.4-8.3,8.8-12.5,15.6-14.2C806.5,653.5,797.5,710.9,739.1,709.4z"/>
			<path class="st19" d="M731.9,689.6c-11.5,4-33.5-5.4-21-19.1c7-7.5,24-13.2,33.9-12.1c-7.1,2.8-14.1,5.7-19.6,10.9
				C715.8,678.2,720.5,687,731.9,689.6z"/>
		</g>
		<path class="st19" d="M837.7,874.1C837.7,874.1,837.9,874.1,837.7,874.1c-15.2-5.1-32.3-3-47.6,1.1c-19,5.8-36.7,16.2-56.3,18.7
			c7.5,1.8,15.3,3,23.2,3.6l0,0c0.4,0,0.8,0,1.2,0c1.8-0.4,3.7-1.1,5.4-2c18.7-7.4,38.6-14.9,59.2-12.3l0,0c0,0,0.1,0,0.1-0.1
			L837.7,874.1z"/>
		<g>
			<g>
				<g>
					<path class="st3" d="M693.3,735.8c19.5-0.9,38.5,2.1,57.2,7.1c7.4,2,15,2,22.4,0c18.9-5.1,38-8.2,57.5-7.5
						c11.3,0.4,22.7,1.7,34,2.6c2.4,0.1,4.7,0.1,6.9,0.8c1.2,0.4,2.5,2,2.6,3c0.3,4.5,0.4,9-0.1,13.3c-0.4,3.2-1.1,6.6-4.9,7.9
						c-0.7,0.3-1.1,1.7-1.3,2.6c-1.6,6.2-3,12.4-4.9,18.6c-3.7,12.3-12.3,19.4-24.8,22c-11.7,2.5-23.5,2.8-35.2,0.4
						c-11.9-2.4-19.9-9.5-24.8-20.2c-3-6.5-5.3-13.3-7.6-20c-2-5.7-5.1-7.5-10.9-6.1c-3.3,0.8-4.1,3.6-5,6.2
						c-2.4,6.5-4.6,13.1-7.4,19.3c-6.1,13.7-17,20.6-31.8,21.9c-10.7,1.1-21.1,0.5-31.5-1.8c-13.6-3.2-22-11.3-24.9-24.9
						c-1.2-5.5-2.4-10.9-3.6-16.5c-0.1-0.7-0.4-1.5-0.8-1.7c-4.4-2-4.5-6.1-5-9.9c-0.4-3.7-0.4-7.4-0.5-11.1c-0.1-2.5,1.3-3.7,3.7-4
						c7.3-0.8,14.5-1.8,21.8-2.2C680.8,735.5,687.1,735.8,693.3,735.8z"/>
				</g>
			</g>
		</g>
		<g>
			<g>
				<path class="st3" d="M743.2,842.6c-7.9-3.7-12.9-10.8-14.1-20.6c-0.5-4,1.5-6.7,4.6-7.1c3.3-0.4,5.7,1.6,6.5,5.4
					c2.4,11.1,11.9,15.8,22.3,11.1c3.3-1.5,6.7-0.7,8.2,2c1.5,2.5,0.5,5.5-2.8,7.5C760.5,845.4,752.6,846.4,743.2,842.6z"/>
			</g>
		</g>
		<g>
			<path class="st3" d="M751.5,751.7c0,0-4.9,17.9-9.9,30.5c-0.8,2.1-1.7,4.1-2.8,5.8c-1.8,3.3-4.2,5.9-8.2,7.9
				c-2.6,1.3-5.9,2.5-10.3,3.2c-3,0.5-6.5,0.9-10.5,1.1c-2.8,0.1-5.8,0.1-9.1,0.1c-2.5,0-5-0.1-7.9-0.3c-2.6-0.1-5.1-0.5-7.4-1.1
				c-30.1-7.6-27-53.5-27-53.5s1.3-1.3,7.9-2.4c3.3-0.5,7.9-1.1,14.4-1.2c2.8-0.1,5.7-0.1,9.1-0.1c2.2,0,4.7,0,7.3,0.1
				c1.2,0,2.5,0,3.7,0.1c4.1,0.1,8,0.4,11.7,0.8c4.1,0.4,7.9,0.9,11.3,1.5C741.6,747.4,751.5,751.7,751.5,751.7z"/>
		</g>
		<path class="st20" d="M700.9,800.4c-2.5,0-5-0.1-7.9-0.3c-2.6-0.1-5.1-0.5-7.4-1.1l-19.1-55.8c3.3-0.5,7.9-1.1,14.4-1.2
			L700.9,800.4z"/>
		<path class="st20" d="M720.5,799.2c-3,0.5-6.5,0.9-10.5,1.1l-20-58.3c2.2,0,4.7,0,7.3,0.1c1.2,0,2.5,0,3.7,0.1L720.5,799.2z"/>
		<path class="st20" d="M827.1,800.4c-2.5,0-5-0.1-7.9-0.3c-2.6-0.1-5.1-0.5-7.4-1.1l-19.1-55.8c3.3-0.5,7.9-1.1,14.4-1.2
			L827.1,800.4z"/>
		<path class="st20" d="M846.7,799.2c-3,0.5-6.5,0.9-10.5,1.1l-20-58.3c2.2,0,4.7,0,7.3,0.1c1.2,0,2.5,0,3.7,0.1L846.7,799.2z"/>
	</g>
</g>
<g id="uranus">
	<circle id="silhouette_00000019657942165686431040000001550822613683278756_" class="st21" cx="458" cy="771.9" r="131.9"/>
	<g>
		<circle class="st22" cx="458" cy="771.9" r="125.8"/>
		<g>
			<g>
				<path class="st3" d="M395.5,805.7L395.5,805.7c-8.7,0-16.4-3.8-20.3-10.4c-1.2-1.8-0.5-4.4,1.3-5.4c1.8-1.2,4.4-0.5,5.4,1.3
					c2.5,4.1,7.6,6.6,13.5,6.6c5.8,0,11.1-2.5,13.5-6.6c1.2-1.8,3.6-2.5,5.4-1.3c1.8,1.2,2.5,3.6,1.3,5.4
					C411.8,801.8,404.3,805.7,395.5,805.7z"/>
			</g>
		</g>
		<g>
			<g>
				<path class="st3" d="M486.7,814.1L486.7,814.1c-8.7,0-16.4-3.8-20.3-10.4c-1.2-1.8-0.5-4.4,1.3-5.4c1.8-1.2,4.4-0.5,5.4,1.3
					c2.5,4.1,7.6,6.6,13.5,6.6c5.8,0,11.1-2.5,13.5-6.6c1.2-1.8,3.6-2.5,5.4-1.3s2.5,3.6,1.3,5.4
					C503.1,810.3,495.4,814.1,486.7,814.1z"/>
			</g>
		</g>
		<path class="st23" d="M563.1,841c-144.3,4.6-205.5-29.5-229.6-51.4c5.4,38.6,28.5,71.7,60.7,90.7c34.8,7,73.7,9.2,107.5,9.6
			C526.9,880.4,548.4,863.2,563.1,841z"/>
		<path class="st24" d="M399.8,660.4c29.7,13.8,93.8,38.4,147.3,22.8c-22.8-22.8-54.3-37.1-89.1-37.1
			C437,646.1,417.2,651.3,399.8,660.4z"/>
		<path class="st21" d="M552.6,854.6c-115.8,5.4-181.2-20.2-212.4-38.4c4.6,12.1,10.9,23.5,18.9,33.5c30.7,13.2,82.7,28.4,162.1,31
			C533.1,873.7,543.7,864.9,552.6,854.6z"/>
		<path class="st24" d="M581.1,746.2c-2.5-12.1-6.9-23.7-12.5-34.3c-88.7,10.8-152.2-17-187.4-39.6c-9.8,7.5-18.3,16.5-25.5,26.5
			C431.1,736.8,524.7,745,581.1,746.2z"/>
		<g>
			<ellipse class="st3" cx="439.5" cy="831.5" rx="6.1" ry="7.8"/>
		</g>
		<ellipse class="st21" cx="439.5" cy="833.2" rx="4" ry="5.1"/>
		<g>
			<g>
				<path class="st3" d="M472.3,749.4l-5.9,6.6c0.8,0.1,7-0.4,7.5,0.4c0.9,0.9,0.1,2.4-1.2,2.1h-8.8c-5.7-1.2,4.5-7.8,5.4-10.3
					c-1.5-0.4-8.6,1.2-6.5-2C464.9,745.9,477.7,744.5,472.3,749.4z"/>
			</g>
		</g>
		<g>
			<g>
				<path class="st3" d="M504.2,731.4l-9.2,10.4c1.3,0.3,10.8-0.5,11.7,0.5c1.5,1.3,0.3,3.6-1.8,3.4h-13.7c-8.8-1.8,7.1-12.3,8.4-16
					c-2.1-0.5-13.3,2-10-3.2C492.6,726,512.6,723.6,504.2,731.4z"/>
			</g>
		</g>
		<g>
			<g>
				<path class="st3" d="M539.1,706.4l-11.7,13.1c1.7,0.3,13.7-0.7,14.8,0.7c1.7,1.7,0.3,4.6-2.2,4.2h-17.3
					c-11.2-2.2,9-15.4,10.7-20.2c-2.8-0.7-16.9,2.4-12.7-4C524.3,699.5,549.5,696.5,539.1,706.4z"/>
			</g>
		</g>
		<ellipse class="st1" cx="492.1" cy="832.4" rx="17.8" ry="7.3"/>
		
			<ellipse transform="matrix(0.1626 -0.9867 0.9867 0.1626 -485.9781 1068.1443)" class="st1" cx="386.3" cy="820.4" rx="7.3" ry="17.8"/>
	</g>
</g>
<g id="earth">
	<circle id="silhouette_00000041296516116017988670000013559545380727220869_" class="st25" cx="158" cy="771.9" r="131.9"/>
	<g>
		<g>
			<g>
				<path class="st26" d="M283.8,771.9c0,69.5-56.3,125.8-125.8,125.8S32.2,841.4,32.2,771.9c0-14,2.2-27.3,6.5-39.8
					c8.6-25.8,25.5-48,47.3-63.3c20.4-14.2,45.2-22.7,72-22.7c22.2,0,43,5.7,61.1,15.8l0,0c33.4,18.5,57.4,51.8,63.3,91l0,0
					C283.2,759.1,283.8,765.5,283.8,771.9z"/>
				<path class="st27" d="M133.8,836.7c-3.8,5.4-9.9,10.2-9.2,17.4c1.1,9.2,14,22.4-2.4,25.5c-18.6,1.1-28.7-16.6-31-32.8
					c-6.6-21-35.7-14.5-20.4-47.9c3-19.6-26.4-14.9-25.1-38.1c1.6-12.1-3.3-18.9-7.1-28.7c8.6-25.8,25.5-48,47.3-63.3
					c4.4,1.1,7.6,4.9,12.8,2.8c13.1-8.3,36-8.6,38.5,10.5c1.5,14.9-22.5,16-20.4,31.5c1.2,18.5-28.5,13.1-29.7,31
					c-0.3,2.9-2,4.9-4.4,5.1c-1.3,0.1-2.5-0.3-3.6-0.9c-6.7-5.1-16-1.1-17.3,8.3c-2.2,19,18.3,5.8,16.2,19.9
					c-1.3,4.1-0.5,9,3.7,10.7c3.8,1.7,7.4-1.5,11.2-1.3c-5.7,14.4,14.8,21.6,24.7,13.7c1.8,2.2,4.6,3.2,7.1,4.4
					C137.9,809.4,142.3,825.8,133.8,836.7z"/>
				<path class="st27" d="M272,762.8c8,5,10.4,15,5.4,23.1c-12.3,12.5-7.1,26.1-14.1,40.5c-6.7,12.1-18.9,29.1-33.9,29.9
					c-15.6-4.4,1.8-21.9-6.3-31.4c-5.3-6.9-9-15.4-5.7-24c6.7-3.2,9.5-11.3,5.1-17.7c9.1-15.6,2.1-24.8-12.9-31
					c-7.8-4.7-9.1-16.5-1.3-21.9c8.8-6.7,19-3.3,27.6,1.8c6.2,4.1,16-1.1,13.1-9c-7.9-13.8-15,9.1-24.7-11.7
					c-4.9-6.3-11.9-4.9-15.8,0.4c-3,6.2-6.2,14.1-14.9,12.4c-11.1-0.8-15.8-18.5-2-18.9c9.8-6.6-8.8-14.1,19-25.7
					c4.4-3.2-0.3-8.3,1.8-12.5c1.3-3.2,3.7-4.7,6.5-5.3l0,0c33.4,18.5,57.4,51.8,63.3,91l0,0c-3,1.8-6.3,0.5-9.5-0.1
					C266.1,752.4,267.7,760.6,272,762.8z"/>
				<path class="st27" d="M199.1,672.1c0,3.6-2.4,5.9-6.3,6.1c-4.2-0.3-7.3,4.7-11.3,2.2c-4.5-2.9-3-10,0-13.6
					C186.6,661,199.2,663.1,199.1,672.1z"/>
				<g>
					<g>
						<path class="st3" d="M110.2,751.3c0-7.8,6.3-14,14.1-13.8c7.6,0.1,13.8,6.5,13.7,14.1c-0.1,7.4-6.5,13.6-14,13.6
							C116.4,765.2,110.2,758.9,110.2,751.3z M115.1,746.7c0,2.5,2.1,4.6,4.5,4.6c2.5,0,4.6-2.1,4.6-4.6c0-2.4-2.1-4.5-4.6-4.5
							C117.1,742.2,115.1,744.2,115.1,746.7z"/>
					</g>
					<path class="st28" d="M115.1,746.7c0-2.5,2-4.5,4.5-4.5c2.5,0,4.5,2.1,4.6,4.5c0,2.5-2.1,4.7-4.6,4.6
						C117.1,751.2,115.1,749.1,115.1,746.7z"/>
				</g>
				<g>
					<g>
						<path class="st3" d="M204.8,762.4c-1.5,0-2.9-0.8-3.6-2.2c-1.5-3-4.4-4.9-7.8-4.9c-3.4,0-6.3,1.8-7.8,4.9
							c-0.9,2-3.3,2.8-5.3,1.8c-2-0.9-2.8-3.3-1.8-5.3c2.8-5.7,8.4-9.2,14.9-9.2c6.3,0,12.1,3.6,14.9,9.2c0.9,2,0.1,4.4-1.8,5.3
							C205.8,762.3,205.3,762.4,204.8,762.4z"/>
					</g>
				</g>
				<g>
					<path class="st3" d="M174.2,780.9c0,5-0.7,9.5-3.3,13.3c-3.8,5.4-9.2,7.4-15.6,6.5c-6.2-0.9-10.3-4.6-12.3-10.5
						c-1.6-4.5-1.5-9.2-0.9-13.8c0.1-1.8,2-3,3.8-2.6c8.2,1.6,16.2,1.6,24.3,0c2-0.4,3.7,1.1,3.8,2.9
						C174,778.1,174.2,779.7,174.2,780.9z M158.8,782.7c-5,0-8.2,1.8-9.6,5c-0.5,1.2-0.5,2.2,0.3,3.3c3.7,5.8,13.8,5.7,17.4-0.3
						c0.7-1.1,0.7-2,0.1-3C164.9,784.2,161.8,782.9,158.8,782.7z"/>
				</g>
				<path class="st12" d="M158.8,782.7c3,0.1,6.2,1.5,8.2,5c0.5,1.1,0.5,2-0.1,3c-3.6,5.9-13.7,6.1-17.4,0.3
					c-0.7-1.1-0.8-2.1-0.3-3.3C150.6,784.6,153.7,782.7,158.8,782.7z"/>
			</g>
			<path class="st29" d="M178.1,876.5c-12.1-7.9-33.2-4.2-29.8-0.5c3.4,3.7,3.7,7.4-3.7,14.2c-3.8,3.6-12.7,3.7-20.2,3
				c9.4,2.5,19.1,4.1,29.3,4.4c1.3,0,2.6,0.1,4.1,0.1l0,0c1.3,0,2.8,0,4.1-0.1c22.5-0.7,43.6-7.4,61.7-18.5c-1.1,0.4-2.1,0.9-3,1.3
				C204.2,887.6,190.3,884.5,178.1,876.5z"/>
			<path class="st29" d="M195.1,874.6c0,0,7.8,3.4,16.4,0s1.1-9.2-6.1-9.6c-7-0.4-10.7,5.3-16.1,2.5
				C183.9,864.7,190,874.4,195.1,874.6z"/>
			<path class="st29" d="M201.5,653.9c-0.3-0.1-0.5-0.3-0.8-0.4c-13.3-4.9-27.7-7.5-42.7-7.5c-14.6,0-28.6,2.5-41.7,7.1
				c-0.1,0.1-0.4,0.1-0.5,0.3c0.1,0.3,2.2,7.5,16.1,2.1c14.1-5.4,22.4,1.1,21.1,8c-1.3,6.9,12-1.6,18.6-6.5
				C177.1,653,195.5,655.7,201.5,653.9z"/>
		</g>
		<ellipse class="st12" cx="120.8" cy="784.8" rx="8.3" ry="3.6"/>
		<ellipse class="st12" cx="193.4" cy="784.8" rx="8.3" ry="3.6"/>
	</g>
</g>
<g id="venus">
	<circle id="silhouette_00000121259761701455554030000002324505878406042540_" class="st0" cx="771.6" cy="460.9" r="131.9"/>
	<g>
		<path id="a" class="st30" d="M896.9,460.9c0,2.1,0,4.1-0.1,6.2c-0.5,10-2.1,19.6-4.7,28.7c-0.8,2.9-1.7,5.8-2.8,8.6
			c-1.2,3.3-2.5,6.5-4.1,9.6c-2.8,6.1-6.1,11.7-9.8,17.1c-22.5,33.1-60.5,55-103.6,55c-34.2,0-65-13.6-87.7-35.7
			c-1.6-1.5-3-3-4.5-4.6c-5.7-6.2-10.8-12.9-15.2-20c-7.9-12.9-13.5-27.4-16.1-43c-1.2-7.1-1.8-14.4-1.8-21.8c0-13.3,2.1-26,5.9-38
			c2.6-8.3,6.1-16.1,10.3-23.5c2.1-3.7,4.4-7.3,6.7-10.7c3.3-4.6,6.9-9.1,10.7-13.2c7.4-7.9,15.8-14.9,24.9-20.7
			c19.3-12.1,42.2-19.3,66.7-19.3c38.2,0,72.5,17.1,95.5,44.2c11.7,13.7,20.4,30.1,25.3,47.9c1.1,4,2,7.9,2.6,11.9
			C896.2,446.7,896.9,453.7,896.9,460.9z"/>
		<path class="st31" d="M891.9,495.9c-0.8,2.9-1.7,5.8-2.8,8.6c-1.2,3.3-2.5,6.5-4.1,9.6c-7.6,1.6-16.1,3.4-23.6,6.5
			c-26.2,10.3-42.6,22.5-65.8,24.8c-23.2,2.2-52-10.3-67.4-8.4c-12.1,1.5-36.3,6.7-48.9,9c-5.7-6.2-10.8-12.9-15.2-20
			c-7.9-12.9-13.5-27.4-16.1-43c0,0,57.1-12,88.2,13.1c31.1,25.1,51,19.8,70.3,10C822.7,497.8,866.4,491.4,891.9,495.9z"/>
		<path class="st0" d="M889.1,504.4c-3.6,9.5-8.2,18.6-13.8,26.8c-7.8-0.1-15.6,1.2-22.2,5c-23.6,13.7-50.2,29.5-108.5,12.3
			c-23.2-6.9-44-4-60.7,1.8c-7.5-7.4-14.1-15.7-19.5-24.7c10.9-1.2,24.7-2.1,40.6-2c43.8,0.4,56.3,28.4,91.9,9.8
			C819.1,522,860.9,511,889.1,504.4z"/>
		<path class="st31" d="M867.1,379.9c-33,5.9-79.6,4-112.2-13.2c-18.7-9.9-35.7-12.5-49.8-11.7c19.3-12.1,42.2-19.3,66.7-19.3
			C809.9,335.6,844.1,352.8,867.1,379.9z"/>
		<path class="st31" d="M896.9,460.9c0,2.1,0,4.1-0.1,6.2c-19.3-0.8-44.6-4.4-66.6-15.4c-19.9-10-36.5-19.4-55.4-21.1
			c-21.4-2-45.1,4.4-71.6,2.8c-23.3-1.5-40-5.9-51-10.4c2.6-8.3,6.1-16.1,10.3-23.5c2.1-3.7,4.4-7.3,6.7-10.7
			c0.5-0.7,1.1-1.5,1.6-2.1c0.5-0.8,1.2-1.6,1.7-2.4c0.9-1.2,1.8-2.4,2.8-3.6c0.5-0.7,1.2-1.3,1.7-2.1c0.1-0.1,0.3-0.3,0.4-0.5
			c0.8-0.9,1.6-1.8,2.4-2.6c10,8.4,26.6,19.8,67.3,15.2c68.6,4.9,83.2,12.3,119.2,31c0.5,0.3,1.2,0.7,1.7,0.9
			c7.8,4,16.1,5.5,24.4,5.3c1.1,4,2,7.9,2.6,11.9C896.2,446.7,896.9,453.7,896.9,460.9z"/>
		<path class="st0" d="M895.1,439.7c-15.3,0.1-36.5-2-64.7-9.9c-65.9-18.5-79.8-17.7-124-12.5c-15.4,1.8-27.4-16.1-37.2-28.6
			c0.5-0.7,1.1-1.5,1.6-2.1c0.5-0.8,1.2-1.6,1.7-2.4c0.9-1.2,1.8-2.4,2.8-3.6c0.5-0.7,1.2-1.3,1.7-2.1c0.1-0.1,0.3-0.3,0.4-0.5
			c0.8-0.9,1.6-1.8,2.4-2.6c10,8.4,26.6,19.8,67.3,15.2c68.3-7.9,83.1,11.9,119.2,31c0.5,0.3,1.2,0.7,1.7,0.9
			c7.8,4,16.1,5.5,24.4,5.3C893.5,431.6,894.4,435.7,895.1,439.7z"/>
		<g>
			<g>
				<g>
					<g>
						<path class="st3" d="M731.9,468.4c-8.7,0-15.4-6.1-15.8-14.1c0-1.1-0.5-1.3-1.5-1.6c-2.6-0.7-4.6-2-5.8-4.5
							c-0.5-1.2-0.7-2.4,0.7-3c1.2-0.7,2.1-0.1,2.9,0.9c0.5,0.8,1.3,1.5,2.4,1.8c1.7,0.7,3.3-0.4,3.3-2.1c0-0.7-0.7-0.7-1.1-0.8
							c-2.2-1.1-3.8-2.8-4.4-5.1c-0.3-1.2-0.3-2.2,1.1-2.9c1.3-0.5,2.1,0.1,2.8,1.2c0.8,1.5,2,2.2,3.4,2.8c1.2,0.4,2.2,0.3,3.3-0.4
							c5.4-3.4,12.1-3.2,17.3,0.5c4.9,3.6,7.3,9.9,5.7,15.8c-1.5,5.8-6.5,10.3-12.8,11.2C732.9,468.4,732.1,468.4,731.9,468.4z
							 M735,454.8c2.9,0,5.3-2.2,5.4-5.1c0-2.9-2.2-5.3-5.1-5.4c-2.9-0.1-5.5,2.4-5.5,5.3C729.7,452.5,731.9,454.8,735,454.8z"/>
					</g>
					<path class="st32" d="M735,454.8c-2.9,0-5.3-2.4-5.3-5.3c0-2.8,2.6-5.3,5.5-5.3c2.9,0.1,5.1,2.5,5.1,5.4
						C740.2,452.6,737.9,454.8,735,454.8z"/>
				</g>
			</g>
			<g>
				<g>
					<g>
						<path class="st3" d="M809.7,468.4c-6.2-0.9-11.2-5.3-12.8-11.2c-1.5-5.9,0.8-12.3,5.7-15.8c5.1-3.7,12-4,17.3-0.5
							c1.1,0.7,2.1,0.8,3.3,0.4c1.6-0.5,2.8-1.5,3.4-2.8c0.7-1.2,1.5-1.8,2.8-1.2c1.2,0.5,1.3,1.7,1.1,2.9c-0.7,2.4-2.1,4.1-4.4,5.1
							c-0.4,0.1-1.1,0-1.1,0.8c0.1,1.7,1.6,2.8,3.3,2.1c0.9-0.4,1.7-0.9,2.4-1.8c0.7-1.1,1.6-1.6,2.9-0.9c1.3,0.8,1.2,2,0.7,3
							c-1.2,2.5-3.2,3.8-5.8,4.5c-0.9,0.3-1.3,0.4-1.5,1.6c-0.4,8-7,14.2-15.8,14.1C811.2,468.4,810.4,468.4,809.7,468.4z
							 M813.6,449.6c0-2.8-2.6-5.3-5.5-5.3c-2.9,0.1-5.1,2.5-5.1,5.4s2.4,5.1,5.4,5.1C811.3,454.8,813.6,452.5,813.6,449.6z"/>
					</g>
					<path class="st32" d="M808.3,454.8c2.9,0,5.3-2.4,5.3-5.3c0-2.8-2.6-5.3-5.5-5.3c-2.9,0.1-5.1,2.5-5.1,5.4
						C803,452.6,805.4,454.8,808.3,454.8z"/>
				</g>
			</g>
		</g>
		<g>
			<ellipse class="st12" cx="705.7" cy="492.7" rx="14.8" ry="5.8"/>
		</g>
		<g>
			<ellipse class="st12" cx="838.5" cy="492.7" rx="14.8" ry="5.8"/>
		</g>
		<path class="st0" d="M771.6,586.2c25.2,0,48.8-7.5,68.4-20.3c-20.2-2.9-45.6-2.9-76.6,1.3c-29.4,4.1-53.8-2-72.1-10.2
			C713.1,575.2,741,586.2,771.6,586.2z"/>
		<g>
			<g>
				<path class="st3" d="M771.6,497.6c-7.8,0-14.8-5.1-16.9-12.7c-0.5-1.7,0.5-3.6,2.2-4.1c1.7-0.5,3.6,0.5,4.1,2.2
					c1.3,4.6,5.7,7.9,10.5,7.9c4.9,0,9.2-3.3,10.5-7.9c0.5-1.7,2.4-2.8,4.1-2.2s2.8,2.4,2.2,4.1
					C786.4,492.3,779.4,497.6,771.6,497.6z"/>
			</g>
		</g>
	</g>
</g>
<g id="mars">
	<circle id="silhouette_00000145035168365637093990000011652294304819983772_" class="st33" cx="461.1" cy="460.9" r="131.9"/>
	<g>
		<circle class="st34" cx="461.1" cy="460.9" r="125.3"/>
		<g>
			<path class="st33" d="M522.9,375.3c-3.8,7.4,0,17.4,17.1,17.7c17.1,0.3,15.4,14.1,35.7,17.5c-6.1-13.8-14.6-26.4-25.1-37.1
				c-1.2-0.4-2.2-0.7-3.2-1.2c-4.1-1.8-8.6-2.8-13.1-2.2C529.6,370.5,524.8,371.8,522.9,375.3z"/>
			<path class="st33" d="M491.9,571.9c-30.3-4.2-28.9,1.1-23.9-16.7c4.9-17.8-17.7-21.6-38.1-19c-20.4,2.6-31.8-1.2-19.3-11.5
				c12.5-10.3,14.6-19.9-9-25.3c-14.6-3.4-28.5,3.6-37.1,9.4c-5.1,3.4-9.1,8.3-11.9,13.8l0,0c9.5,17,22.9,31.6,39,42.6
				c19.9,13.3,43.8,21,69.5,21c16.5,0,32.2-3.2,46.5-9C504.5,575,499.4,573,491.9,571.9z"/>
			<path class="st33" d="M388.8,389.8c23.6-7.8,6.1-13.2,30.1-11.6c24,1.6,19.8-14.4,34.9-17.8c15.3-3.6,29.7,5.9,33.5-11.7
				c0.9-4.2,0.7-7.5-0.4-10.3c-8.4-1.7-17.1-2.8-26-2.8c-28.5,0-54.9,9.5-76,25.6c-7.9,6.2-15,13.2-21.2,21
				C365.6,386.9,371,395.8,388.8,389.8z"/>
			<path class="st33" d="M357.4,493.1c1.5-19.1,3.6-26.6,20.3-35.2c16.9-8.4,0.7-39.4-26.8-24.7c-5.3,2.9-9.6,6.1-13.1,9.4
				c-0.9,5.9-1.3,12.1-1.3,18.3c0,14.6,2.5,28.6,7,41.7C348.8,504.7,356.5,505.5,357.4,493.1z"/>
			<path class="st33" d="M579.6,420.3c-3.2,2.8-5.9,6.6-7.6,12c-8.4,25.2-20,16.4-24.5,29.9c-3.4,10.4,16.5,25.8,35.9,26.1
				c2-8.8,3-18.1,3-27.4C586.3,446.7,584,433.1,579.6,420.3z"/>
			<path class="st33" d="M573.6,516.2c-4-1.3-8.8-2.4-15.2-2.9c-39.8-3.6-46.7,9.6-34.4,23.3c9.4,10.4,18.3,9.4,21.1,17.4
				C556.8,543.3,566.6,530.5,573.6,516.2z"/>
		</g>
		<g>
			<g>
				<g>
					<path class="st3" d="M497.9,462.2l44.6-7.9c4.7-0.8,8-5.4,7.1-10.3l0,0c-0.8-4.7-5.4-8-10.3-7.1l-44.6,7.9
						c-4.7,0.8-8,5.4-7.1,10.3l0,0C488.5,459.9,493.1,463,497.9,462.2z"/>
				</g>
				<g>
					<circle class="st3" cx="511.4" cy="464.3" r="20.8"/>
				</g>
				<circle class="st29" cx="504.2" cy="460.4" r="5.9"/>
			</g>
			<g>
				<g>
					<path class="st3" d="M424.3,462.2l-44.6-7.9c-4.7-0.8-8-5.4-7.1-10.3l0,0c0.8-4.7,5.4-8,10.3-7.1l44.6,7.9
						c4.7,0.8,8,5.4,7.1,10.3l0,0C433.6,459.9,429,463,424.3,462.2z"/>
				</g>
				<g>
					<circle class="st3" cx="410.7" cy="464.3" r="20.8"/>
				</g>
				<circle class="st29" cx="417.9" cy="460.4" r="5.9"/>
			</g>
		</g>
		<g>
			<g>
				<g>
					<path class="st3" d="M480.7,518.1c-1.8,0-3.7-0.8-5-2.2c-2-2.4-4.4-4.1-7-5.4c-4.7-2.2-10.2-2.2-15-0.3
						c-2.8,1.2-5.4,3.2-7.5,5.5c-2.4,2.8-6.6,3-9.4,0.7c-2.8-2.4-3-6.6-0.7-9.4c3.4-4,7.6-7,12.1-9c4-1.7,8.2-2.6,12.5-2.6
						c4.6,0,9.1,1.1,13.3,3c4.4,2,8.2,4.9,11.3,8.7c2.4,2.8,2.1,6.9-0.7,9.4C483.9,517.6,482.3,518.1,480.7,518.1z"/>
				</g>
			</g>
		</g>
		<ellipse class="st33" cx="397.9" cy="417.1" rx="7.9" ry="5.8"/>
		<path class="st33" d="M485.6,383.4c0,0-13.6-2.5-20,7.1c-6.6,9.6,0.1,15.7,17.1,15.4s22,7.3,30.9,5.3
			C522.3,409.2,502.3,380.9,485.6,383.4z"/>
		<ellipse transform="matrix(0.3124 -0.95 0.95 0.3124 -165.4452 840.334)" class="st12" cx="497.7" cy="534.5" rx="7" ry="9.8"/>
		<circle class="st12" cx="373.6" cy="410.5" r="9.8"/>
		<ellipse class="st12" cx="501.7" cy="561.3" rx="9.8" ry="6.3"/>
	</g>
</g>
<g id="mercury">
	<circle id="silhouette_00000000906264000097898030000003824536720730880918_" class="st35" cx="154.5" cy="460.9" r="131.9"/>
	<g>
		<circle class="st36" cx="154.5" cy="460.9" r="125.3"/>
		<path class="st35" d="M219.1,353.6c0.3,0.4,28.9,36.7-7.3,41.5c-36.3,5-74.5,19-46.4,47.1s39.6-6.2,65.7,22.4
			c15.7,17.3,34.4,19.5,46.8,18.5c1.3-7.3,2-14.6,2-22.2C279.7,415.4,255.4,375.5,219.1,353.6z"/>
		<path class="st35" d="M263.9,400l-98.2,9.2c0,0-23.6,14-5.4,37.7c18.2,23.7,38.9,14.4,72.7,33.9s37.5,27.8,37.5,27.8l0,0
			c6.1-14.6,9.4-30.7,9.4-47.6C279.7,438.8,273.9,418.1,263.9,400z"/>
		<g>
			<path class="st35" d="M249,518.5c-5,4.2,6.2,6.7-16,7.6c-22,0.9-46.7,12.7-21.2,26.6c7.5,4.1,16,7.1,24.3,9.4
				c14-12.7,25.1-28.4,32.2-46.2C260,516,251.4,516.6,249,518.5z"/>
			<path class="st35" d="M61.8,376.8c2.4,3.6,6.2,6.1,12.4,5.8c19.8-1.1-9.1-15.2,30.5-15.3c34.2-0.1,27.3-18.9,16.2-26.9
				C97.8,346.7,77.3,359.5,61.8,376.8z"/>
			<path class="st35" d="M79.6,543.6c25.3-5.9,23.2-14.2,12.4-23.6c-10.8-9.4-2.5-11.2,6.3-17.1c8.7-5.9,13.7-32.8-30.6-21.6
				c-20.7,5.3-27.8,18.1-29.5,30.3c6.5,16.2,16.5,30.5,29.1,42.1C68.8,549,72.5,545.3,79.6,543.6z"/>
		</g>
		<g>
			<g>
				<g>
					<path class="st3" d="M150,484.8c-8.3,0-16.4-1.8-24-5.4c-7.9-3.7-14.9-9-20.8-15.8c-1.5-1.6-1.3-4.1,0.4-5.5
						c1.7-1.5,4.1-1.3,5.5,0.4c5.3,6.1,11.3,10.7,18.2,13.8c6.6,3,13.6,4.6,20.7,4.6c6.7,0,13.2-1.3,19.4-4.1
						c7.3-3.2,14-8.2,19.5-14.5c1.5-1.6,4-1.8,5.5-0.4c1.6,1.5,1.8,4,0.4,5.5c-6.3,7.3-14,12.9-22.3,16.5
						C165.3,483.2,157.8,484.8,150,484.8z"/>
				</g>
			</g>
		</g>
		<g>
			<g>
				<g>
					<path class="st3" d="M150,486.1c-8.6,0-16.7-1.8-24.7-5.5c-8-3.7-15.2-9.2-21.2-16.2c-1.8-2.2-1.7-5.5,0.5-7.4
						c2.2-2,5.5-1.7,7.4,0.5c5.1,5.9,11.1,10.4,17.8,13.6c6.5,3,13.2,4.5,20.2,4.5c6.5,0,12.9-1.3,18.9-4c7.1-3,13.7-7.9,19-14.1
						c1.8-2.2,5.3-2.4,7.4-0.5c2.2,2,2.4,5.3,0.5,7.4c-6.5,7.4-14.2,13.2-22.8,16.9C165.7,484.5,157.9,486.1,150,486.1z"/>
				</g>
			</g>
		</g>
		<g>
			<path class="st37" d="M174.7,478.3c-1.5,12.3-7.5,19.9-13.1,24.4c-5.3,4.4-14.5,4.4-19.8,0c-5.5-4.6-11.7-12.4-13.1-24.8l2.6-0.1
				c6.9,3.2,14.5,5,22.4,5C161.1,482.7,168.1,481.1,174.7,478.3z"/>
			<path class="st3" d="M151.7,511.3c-4.7,0-9.6-1.5-13.3-4.5c-5.9-4.9-13.5-13.8-15-28.4c-0.1-1.5,0.3-2.9,1.2-4
				c0.9-1.1,2.2-1.7,3.7-1.8l2.6-0.1c0.9,0,1.7,0.1,2.5,0.5c6.5,3,13.2,4.5,20.2,4.5c6.5,0,12.9-1.3,18.9-4c1.7-0.8,3.7-0.5,5.3,0.7
				c1.6,1.2,2.4,3,2.1,4.9c-1.7,14.2-9.1,23.1-14.9,27.8C161.2,509.8,156.5,511.3,151.7,511.3z M135.6,485c1.8,5.4,5,9.9,9.5,13.6
				c3.4,2.8,9.8,2.8,13.1,0c4.1-3.4,7.1-7.5,9-12.3c-4.5,1.1-9,1.6-13.6,1.6C147.5,487.9,141.4,487,135.6,485z"/>
		</g>
		<g>
			<g>
				<path class="st3" d="M84.8,437.8c-0.5,0-1.2-0.1-1.7-0.3c-2.8-0.9-4.2-4-3.3-6.7c3.3-9.8,11.7-16.7,21.9-18.1
					c10.3-1.3,20.2,3.2,25.8,11.7c1.6,2.4,0.9,5.7-1.5,7.3c-2.4,1.6-5.7,0.9-7.3-1.5c-3.6-5.3-9.4-7.9-15.7-7.1s-11.3,4.9-13.3,10.9
					C89.1,436.4,87.1,437.8,84.8,437.8z"/>
			</g>
		</g>
		<g>
			<g>
				<path class="st3" d="M213.9,437.8c-2.2,0-4.2-1.5-5-3.6c-2-6.1-7-10.2-13.3-10.9c-6.3-0.8-12.1,1.8-15.7,7.1
					c-1.6,2.4-4.9,3-7.3,1.5c-2.4-1.6-3-4.9-1.5-7.3c5.7-8.6,15.7-13.1,25.8-11.7c10.3,1.3,18.6,8.3,21.9,18.1
					c0.9,2.8-0.5,5.8-3.3,6.7C215.1,437.7,214.6,437.8,213.9,437.8z"/>
			</g>
		</g>
		
			<ellipse transform="matrix(0.3534 -0.9355 0.9355 0.3534 -449.9188 479.2135)" class="st35" cx="121.7" cy="565.1" rx="10.2" ry="16.5"/>
		
			<ellipse transform="matrix(0.3534 -0.9355 0.9355 0.3534 -222.4506 404.2263)" class="st35" cx="181.2" cy="363" rx="5" ry="8.2"/>
		<path class="st38" d="M33.2,429.4"/>
		<path class="st35" d="M59.7,403.2c-0.8,0-1.5,0.1-2.1,0.1c5.7,0.9,10,5.8,10,11.7c0,6.6-5.4,12-12,12c-4.1,0-7.8-2.1-9.9-5.3
			c1.7,6.1,7.4,10.5,14,10.5c8,0,14.6-6.6,14.6-14.6C74.3,409.7,67.8,403.2,59.7,403.2z"/>
		<path class="st35" d="M139.2,369.7c-0.8-0.3-1.5-0.5-2.2-0.7c5.3,3,7.6,9.5,5.4,15.4c-2.5,6.5-9.8,9.8-16.2,7.4
			c-4.1-1.6-6.9-4.9-7.8-8.8c-0.5,6.6,3.4,13.1,9.9,15.6c7.9,3,16.9-1.1,19.9-9C151.2,381.5,147.2,372.6,139.2,369.7z"/>
		<path class="st35" d="M180.8,540.3c-0.7-0.3-1.3-0.4-2-0.5c4.7,2.8,7,8.6,5,14c-2.2,5.9-8.8,9-14.8,6.7c-3.7-1.5-6.2-4.5-7.1-8
			c-0.4,6.1,3,11.9,9,14.1c7.3,2.8,15.3-0.9,18.1-8.2C191.8,551.1,188.1,543.1,180.8,540.3z"/>
	</g>
</g>
<g id="pluto">
	<circle id="silhouette" class="st7" cx="779.3" cy="131.9" r="131.9"/>
	<g>
		<g>
			<g>
				<circle class="st39" cx="779.3" cy="131.6" r="126.3"/>
				<path class="st40" d="M653,131.6c0,14.4,2.4,28.2,6.9,41c0.1-8.8,38.9-23.7,68.7-10.9c26.8,11.3-9.4,14,17.4,24
					c26.8,10,56.2-33.6,82.2-39.3c26-5.7,26.8-0.9,35.2,16c5.5,10.9,19.6,17.1,33,16.7c5.9-14.6,9.2-30.7,9.2-47.5
					c0-41.5-20-78.5-51-101.4L765.6,6.1C702.3,12.8,653,66.5,653,131.6z"/>
				<path class="st40" d="M779.3,239.2c-46.8,0-88.2-22.5-114.2-57.4c20.3,42.7,63.8,72.3,114.2,72.3s93.9-29.5,114.2-72.3
					C867.6,216.7,826.1,239.2,779.3,239.2z"/>
				<g>
					<path class="st7" d="M780,100.4c0,0,18.7-47.3,66.9-42.1c29.4,3.2,43.3,14.1,50,26C878.1,37.7,832.5,5,779.3,5
						c-70,0-126.7,56.7-126.7,126.7c0,8.8,0.9,17.4,2.6,25.7c0-0.3,0.3-52.5,35.5-49.7c35.3,2.8,27.2,23.6,57.5,23.1
						C761.7,130.7,770.2,116.2,780,100.4L780,100.4z"/>
					<path class="st7" d="M901.1,97.6C901.1,97.6,901.1,97.7,901.1,97.6C901.1,97.7,901.1,97.6,901.1,97.6z"/>
				</g>
				<g>
					<g>
						<circle class="st3" cx="824.2" cy="116.1" r="21.5"/>
					</g>
					<g>
						<circle class="st29" cx="830.2" cy="110.5" r="6.6"/>
						<circle class="st29" cx="817.2" cy="126.1" r="3.7"/>
					</g>
				</g>
				<g>
					<g>
						<path class="st3" d="M780,172.3c-7.8,0.4-14.8-3-19.9-10.3c-2.1-2.9-1.7-5.9,0.7-7.5c2.5-1.7,5.1-1.2,7.4,1.5
							c6.6,7.8,16.2,7.5,22.4-0.8c2-2.6,5-3.4,7.4-1.8c2.2,1.5,2.8,4.2,0.9,7.3C794.8,167.1,789,171.2,780,172.3z"/>
					</g>
				</g>
				
					<ellipse transform="matrix(0.4549 -0.8905 0.8905 0.4549 334.5866 876.1783)" class="st7" cx="883" cy="164.8" rx="17" ry="7.9"/>
				
					<ellipse transform="matrix(0.7498 -0.6617 0.6617 0.7498 73.6747 619.7956)" class="st40" cx="856.3" cy="212.5" rx="13.1" ry="8.4"/>
				
					<ellipse transform="matrix(0.7498 -0.6617 0.6617 0.7498 66.4326 605.296)" class="st40" cx="833.5" cy="214.8" rx="6.3" ry="4.1"/>
				
					<ellipse transform="matrix(0.7504 -0.661 0.661 0.7504 144.5588 480.8238)" class="st41" cx="708.9" cy="49" rx="32.3" ry="11.9"/>
				<ellipse class="st12" cx="732" cy="162.1" rx="14.1" ry="6.6"/>
				<ellipse class="st12" cx="821.9" cy="162.1" rx="14.1" ry="6.6"/>
			</g>
			
				<ellipse transform="matrix(0.9387 -0.3448 0.3448 0.9387 -15.6107 240.116)" class="st39" cx="667.3" cy="163.9" rx="5.9" ry="12"/>
			
				<ellipse transform="matrix(0.9387 -0.3448 0.3448 0.9387 -8.8504 241.6835)" class="st39" cx="675" cy="145.7" rx="3.8" ry="7.8"/>
			
				<ellipse transform="matrix(0.9387 -0.3448 0.3448 0.9387 -18.1742 244.9317)" class="st40" cx="679.5" cy="173.6" rx="3" ry="6.2"/>
		</g>
	</g>
</g>
<g id="star">
	<path id="silhouette_00000163764267449768246800000004986896889111371175_" class="st30" d="M284.4,85.9c-15.7-3.3-31.6-5.5-47.5-8
		c-7.9-1.1-17.3-1.2-20.7-10C207,52.4,191.6,0.3,172.9,0.2c-18.7,0.1-34.2,52.2-43.4,67.6c-3.4,8.8-12.8,9-20.7,10
		c-15.8,2.6-31.8,4.7-47.5,8c-47.2,8.4,0.9,49.5,16.1,66.7c6.6,8,17.7,14.2,15.7,26.2c-2.4,22-7.5,44-7.5,66.2
		c4.9,48.7,61.3-12.1,87.4-13.6c26.1,1.5,82.5,62.2,87.4,13.6c-0.1-22.3-5.1-44.2-7.5-66.2c-2-12,9.2-18.2,15.7-26.2
		C283.4,135.3,331.6,94.3,284.4,85.9z"/>
	<g>
		<path class="st2" d="M245.3,257.2c-19.1-1.1-52.7-31.9-72.1-32.4c-20.4-3.2-80.6,57.2-81.1,19.8c0.1-21.9,5.1-43.3,7.5-65
			c1.8-12.3-5.9-19.9-12.1-26c-55.6-59.1-56.8-58.2,22.3-69.4c21.9-0.5,26.2-12.3,34.8-33c5-12,18.1-43.3,28.5-44.6
			c1.6,0,6.1,1.3,13.3,13.3c38.6,77.1,13.1,55.9,96.9,72.3c40.1,5.1-13.5,46.3-24.9,61.3c-16.9,12.8-12.1,29.8-9,48.8
			C249.6,214.6,261.1,255.5,245.3,257.2z"/>
		<g>
			<path class="st29" d="M109.4,89.6c21.9-0.5,26.2-12.3,34.8-33c5-12,18.1-43.3,28.5-44.6c1.6,0,6.1,1.3,13.3,13.3
				c38.6,77.1,13.1,55.9,96.9,72.3c8.8,1.2,13.2,4.1,14.4,8c1.6-6.7-1.8-11.7-14.4-13.3c-84-16.4-58.3,4.9-96.9-72.3
				c-7.3-12-11.7-13.3-13.3-13.3c-10.4,1.3-23.5,32.6-28.5,44.6c-8.6,20.7-12.8,32.4-34.8,33c-46.3,6.6-65,9-61.6,21.6
				C51,97.6,70.4,95.1,109.4,89.6z"/>
			<path class="st29" d="M246.2,181.2c-0.5,8.2,1.5,17,3,26.5c0.3,6.7,4,22.3,4.5,35.1c0.7-13.5-4.1-32.7-4.5-40.4
				C247.9,194.9,246.5,187.8,246.2,181.2z"/>
			<path class="st29" d="M99.6,178.5c0,0.4,0,0.8-0.1,1.1c-2.4,21.8-7.3,43.1-7.5,65c0,0.7,0,1.2,0.1,1.7c0.7-20.7,5.1-41,7.4-61.6
				C99.8,182.5,99.8,180.4,99.6,178.5z"/>
		</g>
		<g>
			<g>
				<path class="st3" d="M111.2,121.7c-0.4,0-0.8-0.1-1.3-0.3c-2.1-0.7-3.2-2.9-2.5-5c2.6-7.6,9.2-13.2,17.3-14.2
					c8-1.1,15.8,2.5,20.3,9.2c1.2,1.8,0.7,4.2-1.1,5.5c-1.8,1.2-4.2,0.7-5.5-1.1c-2.9-4.4-7.6-6.5-12.7-5.8c-5.1,0.7-9.1,4-10.8,8.8
					C114.3,120.7,112.9,121.7,111.2,121.7z"/>
			</g>
		</g>
		<g>
			<g>
				<path class="st3" d="M224.6,121.7c-1.7,0-3.2-1.1-3.7-2.6c-1.6-4.9-5.7-8.2-10.8-8.8c-5.1-0.7-9.9,1.5-12.7,5.8
					c-1.2,1.8-3.7,2.4-5.5,1.1c-1.8-1.2-2.4-3.7-1.1-5.5c4.5-6.7,12.3-10.3,20.3-9.2c8,1.1,14.6,6.5,17.3,14.2
					c0.7,2.1-0.4,4.4-2.5,5C225.4,121.6,225,121.7,224.6,121.7z"/>
			</g>
		</g>
		<path class="st12" d="M229.4,146.9c-5-3.2-11.9-3.7-17.9-1.5c-3.6,1.3-5.9,3.4-5.9,5.7c0,3,1.6,4.9,4.5,6.3
			c5.4,2.5,13.5,2.5,18.9-0.7C233.5,154.1,233.8,149.8,229.4,146.9z"/>
		<path class="st12" d="M132.7,146.9c-5-3.2-11.9-3.7-17.9-1.5c-3.6,1.3-5.9,3.4-5.9,5.7c0,3,1.6,4.9,4.5,6.3
			c5.4,2.5,13.5,2.5,18.9-0.7C136.9,154.1,137.1,149.8,132.7,146.9z"/>
		<g>
			<g>
				<g>
					<path class="st3" d="M158.9,169.4c-10.4,0-16.4-6.6-16.4-18.2c0-2.2,1.7-4,4-4c2.2,0,4,1.7,4,4c0,9.1,4.2,10.3,8.4,10.3
						c4.6,0,8.4-3.8,8.4-8.4c0-2.2,1.7-4,4-4c2.2,0,4,1.7,4,4C175.1,162.1,167.9,169.4,158.9,169.4z"/>
				</g>
			</g>
			<g>
				<g>
					<path class="st3" d="M183.6,169.4c-9,0-16.4-7.3-16.4-16.4c0-2.2,1.7-4,4-4s4,1.7,4,4c0,4.6,3.8,8.4,8.4,8.4
						c4.5,0,8.4-5.7,8.4-10.3c0-2.2,1.7-4,4-4s4,1.7,4,4C199.8,159.7,192.8,169.4,183.6,169.4z"/>
				</g>
			</g>
		</g>
	</g>
</g>
<g>
	<g>
		<circle class="st42" cx="464.1" cy="143.7" r="121.6"/>
		<g>
			<g>
				<polygon class="st42" points="412.6,126.8 412.6,126.8 412.6,126.8 412.6,126.8 412.6,126.8 412.7,126.8 412.7,126.8 
					412.6,126.8 				"/>
				<path class="st42" d="M535.7,45.3L535.7,45.3L535.7,45.3z"/>
				<path class="st42" d="M452.5,62.7L452.5,62.7L452.5,62.7z"/>
				<path class="st42" d="M493.5,102.4L493.5,102.4L493.5,102.4z"/>
			</g>
			<path class="st43" d="M363.3,211.4c1,0.1,1.5,0.9,2.2,1.3c5.4,3.8,11.1,7.1,17.1,9.9c2.7,1.2,5.4,2.4,8.1,3.4
				c2.8,1.1,5.7,2,8.7,2.9c3.7,1.1,7.4,2.1,11.2,2.8s7.6,1.5,11.5,1.7c1.6,0.1,3.3,0.5,4.9,0.4c0.5,0,0.6,0.2,0.7,0.7
				c0.4,3.5,1.7,6.7,4.4,9.2c3.1,2.8,6.7,4,10.9,3.5c5.4-0.7,9-3.8,11.1-8.7c0.6-1.6,1-3.2,0.9-4.9c-0.1-1,0.2-1.3,1.1-1.3
				c3.7-0.5,7.1-1.3,10.6-2.3c4-1.1,7.9-2.4,11.8-4c0.1,0,0.2-0.1,0.2-0.1c1.3-0.5,1.3-0.5,1.5,1c0.9,7.1,4.3,12.5,10.5,15.7
				c5.2,2.8,10.9,3.1,16.5,0.5c6.3-3.1,10.1-7.9,11.1-14.9c1-6.3-0.9-11.8-5.4-16.5c-0.9-1-1.8-2-3.1-2.6c-0.6-0.4-0.6-0.6-0.1-1.1
				c0.7-0.7,1.6-1.3,2.3-2.1c0.4-0.4,0.7-0.1,1.1,0c2.9,1.5,6.1,2.4,9.3,3.3c4.2,1,8.3,1,12.5,0.6c5.1-0.5,9.9-2.1,14.4-4.5
				c4-2.2,7.6-5,10.6-8.4c3.4-3.9,6.1-8.2,7.9-12.9c1.2-3.2,2-6.6,2.4-10c0.9-7.8-0.6-15.1-4-22.1c-1.7-3.5-3.9-6.8-6.7-9.8
				c-1.7-1.7-3.4-3.3-5.4-4.8c-0.5-0.4-0.6-0.6-0.5-1.2c0.6-3.2,1.2-6.2,1.5-9.4c0.2-2.1,0.4-4.3,0.5-6.3c0-0.7,0.2-1.1,1-1.5
				c5.1-2.1,8.2-5.7,8.9-11.2c1-6.8-3.7-13.1-9.6-14.5c-1.8-0.5-2.1-1.2-2.3-2.7c-0.9-4.9-2.1-9.6-3.5-14.4
				c-2.1-6.3-4.4-12.6-7.6-18.4c-1.8-3.5-3.8-7-6-10.3c-0.4-0.5-0.7-1.1-0.7-1.7c1.1,0.2,1.8,1.2,2.7,1.7c0.1,0.2,0.4,0.4,0.6,0.5
				c1.8,1.5,3.7,3.1,5.6,4.5c0.6,0.7,1.2,1.2,2,1.7c1.5,1.3,2.8,2.7,4.3,4.2c0.7,0.7,1.3,1.5,2.1,2.2c1.3,1.6,2.7,3.1,4.2,4.5
				c0.5,0.6,1,1.1,1.5,1.7c1.6,2,3.2,4,4.8,6c0,0.1,0,0.1,0.1,0.1c2.9,4,5.6,8.3,8.1,12.7c1.1,2.1,2.2,4.2,3.3,6.2
				c0.1,0.6,0.4,1.2,0.7,1.7c0.6,1.6,1.2,3.1,2,4.5c0.7,2.1,1.6,4.2,2.3,6.2c0.4,1.2,0.7,2.3,1.1,3.5c0.9,2.9,1.7,6,2.6,8.9
				c0.5,2.2,0.9,4.3,1.3,6.5c0.4,2.1,0.6,4.2,1,6.2c0.2,2.1,0.4,4.2,0.6,6.2c0.1,2.1,0.1,4.2,0.2,6.2c0,2.1,0,4.2,0,6.2
				c-0.1,2.1-0.2,4.2-0.4,6.2c-0.4,2.1-0.6,4.3-0.7,6.5c-0.4,2.1-0.7,4.2-1,6.2c-0.5,2.1-0.9,4.2-1.3,6.2c-1.1,4.2-2.3,8.3-3.8,12.5
				c-0.9,2.1-1.7,4.2-2.6,6.2c-0.5,1-0.9,2-1.3,2.9c-0.4,0.5-0.6,1-0.7,1.6c-0.4,0.6-0.7,1.3-1.1,2c-1.1,2.1-2.2,4.2-3.3,6.2
				c-0.4,0.5-0.7,0.9-0.9,1.5c-1,1.6-2,3.2-2.9,4.8c-2.9,4.3-6.1,8.4-9.3,12.5c0,0.1-0.1,0.1-0.1,0.2c-1.8,2.1-3.7,4-5.6,6.1
				c-0.2,0.1-0.5,0.4-0.6,0.6c-2,1.8-4,3.8-6,5.6c-0.1,0.1-0.1,0.1-0.2,0.2c-2.1,1.7-4.2,3.4-6.2,5c-0.5,0.2-1,0.5-1.2,1
				c-1.6,1.2-3.3,2.3-4.9,3.5c-1.3,0.9-2.6,1.7-3.9,2.4c-0.4,0.1-0.7,0.4-1.1,0.6c-0.5,0.2-1,0.5-1.5,0.9c-2.1,1.1-4.2,2.3-6.2,3.4
				c-1,0.4-1.8,0.9-2.8,1.3c-0.1,0.1-0.2,0.1-0.4,0.2c-1.1,0.4-2.1,0.9-3.1,1.3c-2.1,0.9-4.2,1.7-6.2,2.6c-4.2,1.5-8.3,2.7-12.5,3.9
				c-2.1,0.5-4.3,1-6.3,1.5c-2.1,0.2-4.2,0.6-6.2,1.2c-2,0.2-3.9,0.2-5.7,0.6c-0.4-0.1-0.9,0-1.2,0.2c-2-0.1-3.8,0.1-5.6,0.2
				c-2.2,0-4.4,0-6.6,0c-2,0-4-0.1-6-0.1c-2.1-0.4-4.2-0.5-6.2-0.6c-2.2-0.2-4.3-0.6-6.5-0.9c-2.1-0.4-4.2-0.9-6.2-1.2
				c-2.1-0.5-4.2-1.1-6.2-1.6c-0.9-0.4-1.8-0.6-2.8-0.9c-1.6-0.2-2.9-1-4.5-1.3c-0.7-0.5-1.6-0.9-2.6-0.9c-0.9-0.5-1.8-0.9-2.8-1.1
				c-0.1-0.1-0.1-0.2-0.2-0.4c-2-0.9-4-1.7-6-2.6c-0.1,0-0.2-0.1-0.5-0.1c-1.8-1.2-3.8-2.1-5.9-3.1c-0.1,0-0.1,0-0.2-0.1
				c-0.9-0.5-1.7-1-2.6-1.5c-0.5-0.4-1.1-0.7-1.7-1c-0.7-0.4-1.5-0.9-2.1-1.2c-0.5-0.5-1.1-0.7-1.7-1.1c-0.5-0.5-1.1-0.9-1.7-1.2
				l-0.1-0.1c-0.6-0.6-1.5-1.1-2.2-1.5c-0.7-0.6-1.6-1.1-2.3-1.7c-0.6-0.6-1.3-1.1-2.1-1.6c-0.4-0.4-0.7-0.7-1.3-1
				c-1.5-1.2-2.9-2.4-4.4-3.7c-0.6-0.7-1.2-1.3-2.1-1.8c-0.7-0.7-1.6-1.6-2.3-2.3c-2.8-2.6-5.2-5.5-7.8-8.2
				c-0.6-0.9-1.2-1.7-2.1-2.4c-0.9-1.3-2-2.6-2.9-3.8C365.5,214.6,364.4,213,363.3,211.4z"/>
			<path class="st43" d="M535.7,45.3h-0.1l0.1-0.1C535.7,45.2,535.7,45.2,535.7,45.3L535.7,45.3z"/>
			<path class="st44" d="M509.2,215c2.2,2.1,3.5,4.6,4,7.6c0.6,3.7-0.1,7.2-2.3,10.4c-3.1,4.4-7.3,6.6-12.7,6.2
				c-3.3-0.2-6.2-1.5-8.5-3.8c0-0.2,0-0.5-0.1-0.7c-2.6-4-2.7-8.3-0.9-12.7c2.2-5.5,7-8.5,12.7-8.9c2.6-0.1,5,0.6,7.2,1.8
				C508.8,215.1,508.9,215.4,509.2,215z"/>
			<path class="st44" d="M388.8,100.1l-0.1-0.1c0-0.4,0-0.6-0.2-1c-1.6-2.6-2-5.4-1.7-8.3c0.2-4.3,2.3-7.6,5.6-10
				c4.4-3.2,9.3-3.7,14.4-1.5c0.6,0.2,1,0.9,1.7,0.9c2.2,2.1,3.3,4.6,3.8,7.4c0.6,3.7-0.1,7.1-2.3,10c-2.4,3.4-5.6,5.6-10,6.1
				c-4,0.5-7.4-0.9-10.6-3.2c-0.1-0.1-0.1-0.2-0.2-0.4C389,100.2,388.9,100.1,388.8,100.1z"/>
			<path class="st44" d="M453.6,46.7c1.7,1.7,2.8,3.8,3.4,6.1c2,7.1-1.6,14.3-8.3,16.8c-3.3,1.3-6.7,1.3-10-0.1
				c-1.5-0.6-2.8-1.5-4-2.4c-0.2-0.1-0.4-0.4-0.4-0.6c0-0.2,0-0.4-0.2-0.5l0,0c-0.6-1.7-1.3-3.3-1.6-5.1c-0.7-5.6,1.2-10,5.6-13.3
				c4.6-3.5,9.8-3.5,15-1C453.2,46.9,453.4,47,453.6,46.7z"/>
			<path class="st44" d="M446.9,227.7c2.2,2,2.9,4.4,2.6,7.2c-0.6,4-2.9,6.3-6.8,7.2c-3.1,0.6-5.6-0.4-7.8-2.6c0.4-0.2,0-0.5,0-0.7
				c-0.4-1-0.9-2.1-0.9-3.2c0-3.2,1.3-5.6,3.9-7.4c1.8-1.3,4-1.7,6.2-1.3C445.1,227,445.8,227.7,446.9,227.7z"/>
			<path class="st44" d="M456.1,111c2.3,2.7,2.9,6.7,0.9,9.9c-2.4,3.9-6.5,5.2-10.7,3.5c-0.7-0.2-1.5-0.6-2-1.2
				c0.2-0.4-0.1-0.1-0.2-0.2l0,0c-0.1-0.1-0.1-0.1-0.2-0.2l0,0c0-0.2-0.1-0.5-0.2-0.9c-0.7-1.5-1.1-2.9-1-4.5
				c0.2-2.4,1.2-4.3,3.1-5.9c2.1-1.8,4.4-2.3,7-2c1.1,0.1,2.1,1,3.2,1.1l0,0C455.9,110.8,455.8,111.1,456.1,111z"/>
			<path class="st44" d="M493.3,122.6c2.4,2.7,2.7,7,0.6,10c-2.9,4.5-9.2,5.1-12.9,1.6c0-0.2,0-0.4-0.2-0.5l0,0
				c0-0.5-0.5-0.7-0.5-1.1c-0.9-3.7-0.5-7.7,3.3-10.3c1.7-1.1,3.7-1.5,5.7-1.3c1.3,0.1,2.3,0.7,3.5,1.1l0,0c0.1,0.1,0.1,0.1,0.2,0.2
				l0,0C493.2,122.4,493.3,122.6,493.3,122.6z"/>
			<path class="st44" d="M394.6,192c2.3,2.4,3.1,5.5,2.1,8.5c-1,3.2-3.3,5.2-6.6,5.7c-2.8,0.5-5.4-0.2-7.4-2.3
				c0.4-0.4,0-0.6-0.1-0.9c-1-1.7-1.1-3.5-0.7-5.6c1-5.4,7.6-8.4,12.2-5.7C394.2,192,394.4,192.4,394.6,192z"/>
			<path class="st44" d="M557.9,100.1c2.2,2.3,2.9,5,2,7.9c-1.5,4.8-5.1,6.8-9.9,6.1c-1.7-0.2-3.3-1.1-4.4-2.4c0.4-0.2,0-0.5,0-0.7
				c-0.6-1.7-1-3.3-0.6-5.2c1-5,5.9-8.1,10.9-6.5c0.6,0.2,1.2,0.7,1.8,0.7l0,0C557.8,99.9,557.9,100,557.9,100.1z"/>
			<path class="st43" d="M509.2,215c-0.2,0.4-0.4,0.1-0.6,0c-2.3-1.2-4.6-2.1-7.2-1.8c-5.9,0.4-10.5,3.4-12.7,8.9
				c-1.7,4.4-1.6,8.7,0.9,12.7c0.1,0.2,0.1,0.5,0.1,0.7c-2.8-2.7-4.4-5.9-4.5-9.8c-0.2-6,2.4-10.3,7.4-13.1
				c4.9-2.8,10.7-2.3,15.4,1.3C508.4,214.3,508.9,214.5,509.2,215z"/>
			<path class="st43" d="M408.4,80.1c-0.7,0.1-1.1-0.6-1.7-0.9c-5-2.2-10-1.7-14.4,1.5c-3.3,2.4-5.4,5.7-5.6,10
				c-0.2,2.9,0.2,5.7,1.7,8.3c0.1,0.2,0.2,0.6,0.2,1c-5.5-4.9-6.3-14.5,0-20.4C394.2,74.3,403.6,74.5,408.4,80.1z"/>
			<path class="st43" d="M453.6,46.7c-0.1,0.2-0.4,0.1-0.5,0c-5.1-2.7-10.3-2.7-15,1c-4.3,3.3-6.3,7.7-5.6,13.3
				c0.2,1.8,1,3.4,1.6,5.1c-1.3-0.6-2-2-2.4-3.2c-2.2-4.8-2-9.5,1-14c3.8-5.7,11.1-7.8,17.3-4.9C451.2,44.5,452.5,45.5,453.6,46.7z"
				/>
			<path class="st43" d="M455.9,110.7c-1.1-0.1-2.1-1-3.2-1.1c-2.7-0.4-5,0.2-7,2c-1.8,1.6-2.9,3.5-3.1,5.9c-0.1,1.6,0.2,3.1,1,4.5
				c0.1,0.2,0.2,0.5,0.2,0.9c-2.9-2.3-3.8-7.1-1.8-10.3c2.4-4,6.5-5.5,10.9-3.9C454.1,109,455.1,109.7,455.9,110.7z"/>
			<path class="st43" d="M492.9,122.2c-1.2-0.4-2.2-1-3.5-1.1c-2.1-0.1-4,0.2-5.7,1.3c-3.9,2.6-4.3,6.6-3.3,10.3
				c0.1,0.4,0.6,0.6,0.5,1.1c-1.1-0.6-1.6-1.7-2.1-2.7c-1.3-3.5,0-7.9,3.2-10c3.5-2.3,7.8-2.1,10.7,0.7
				C492.8,121.8,492.8,122,492.9,122.2z"/>
			<path class="st43" d="M394.6,192c-0.4,0.4-0.5,0-0.7-0.1c-4.6-2.7-11.2,0.5-12.2,5.7c-0.4,2-0.1,3.8,0.7,5.6
				c0.1,0.2,0.5,0.5,0.1,0.9c-3.5-3.3-3.5-8.7-0.2-12.1C385.9,188.5,391.3,188.6,394.6,192z"/>
			<path class="st43" d="M557.6,99.9c-0.7,0-1.2-0.5-1.8-0.7c-4.9-1.6-9.9,1.5-10.9,6.5c-0.4,1.8,0,3.5,0.6,5.2
				c0.1,0.2,0.4,0.5,0,0.7c-2.9-3.1-3.2-8.1-0.5-11.1c3.1-3.5,7.8-4.3,11.5-1.7C557,99,557.4,99.4,557.6,99.9z"/>
			<path class="st43" d="M446.9,227.7c-1,0-1.8-0.7-2.8-0.9c-2.3-0.4-4.4,0.1-6.2,1.3c-2.6,1.8-3.8,4.3-3.9,7.4
				c0,1.1,0.5,2.2,0.9,3.2c0.1,0.2,0.4,0.5,0,0.7c-2.7-2.6-3.1-7.3-0.9-10.6C437,224.5,443.5,223.9,446.9,227.7z"/>
			<path class="st45" d="M461.4,108c-0.4,0.1-0.1-0.1-0.2-0.2C461.2,107.8,461.3,107.9,461.4,108z"/>
			<path class="st45" d="M449.3,120c0.1,0,0.4-0.1,0.2,0.2C449.5,120.1,449.5,120.1,449.3,120z"/>
			<path class="st45" d="M493.5,102.4c0.1,0,0.4-0.1,0.2,0.2C493.7,102.5,493.7,102.5,493.5,102.4z"/>
			<path class="st45" d="M480.8,133.8c0.2,0.1,0.2,0.2,0.2,0.5C481,134,480.8,133.9,480.8,133.8z"/>
			<path class="st45" d="M452.5,62.7c0.2,0.1,0.2,0.2,0.2,0.5C452.6,63.1,452.5,63,452.5,62.7z"/>
			<path class="st45" d="M528.6,65.9c-0.1-0.1-0.1-0.1-0.2-0.2C528.3,65.8,528.5,65.9,528.6,65.9z"/>
			<path class="st45" d="M528.7,65.9c-0.1,0.1-0.1,0.1-0.2,0C528.6,65.9,528.7,65.9,528.7,65.9z"/>
			<path class="st45" d="M493.3,122.6c-0.1-0.1-0.1-0.1-0.2-0.2C493.2,122.4,493.3,122.6,493.3,122.6z"/>
			<path class="st45" d="M388.8,100.1c0.1,0.1,0.1,0.1,0.2,0.2C389,100.2,388.9,100.1,388.8,100.1z"/>
			<path class="st45" d="M493.2,122.3c-0.1-0.1-0.1-0.1-0.2-0.2C492.9,122.2,493.1,122.3,493.2,122.3z"/>
			<path class="st45" d="M557.9,100.1c-0.1-0.1-0.1-0.1-0.2-0.2C557.8,99.9,557.9,100,557.9,100.1z"/>
			<path class="st45" d="M449.1,119.8c0.1,0.1,0.1,0.1,0.2,0.2C449.3,120,449.2,119.9,449.1,119.8z"/>
		</g>
		<path class="st44" d="M520.3,57.6c3.4,4,5.6,8.5,6.2,13.8c0.6,5-0.1,9.9-2.4,14.4c-1.6,3.2-3.7,5.9-6.3,8.2
			c-3.1,2.7-6.5,4.4-10.4,5.4c-2.9,0.7-5.9,0.9-8.9,0.6c-3.8-0.4-7.2-1.6-10.4-3.5c-1-0.6-2-1.2-2.8-2.1c0.2-0.4-0.1-0.1-0.2-0.2
			l0,0c0-0.4-0.1-0.6-0.2-0.9c-0.7-1.3-1.6-2.7-2.3-4.3c-2.3-5.2-2.8-10.5-1.6-16.1c1.5-6.5,5-11.6,10.5-15.4
			c3.3-2.3,7-3.5,10.9-4.2c4-0.6,7.8-0.1,11.6,1.2c2.1,0.7,3.9,1.8,5.9,2.8l0,0c0.1,0.1,0.1,0.1,0.2,0.2l0,0
			C520,57.7,520.2,57.7,520.3,57.6z"/>
		<path class="st43" d="M519.8,57.4c-2-1-3.8-2.1-5.9-2.8c-3.8-1.3-7.7-1.8-11.6-1.2c-3.9,0.6-7.6,1.8-10.9,4.2
			c-5.5,3.8-9,8.9-10.5,15.4c-1.2,5.5-0.7,10.9,1.6,16.1c0.6,1.5,1.5,2.8,2.3,4.3c0.1,0.2,0.4,0.5,0.2,0.9
			c-4.5-3.9-7.4-8.9-8.5-14.8c-1.3-7.4,0.4-14.2,4.9-20.1c4.5-5.9,10.5-9.3,17.9-9.9c7.8-0.7,14.3,2,19.9,7.3
			C519.5,56.8,519.8,57,519.8,57.4z"/>
	</g>
	<g id="moon_00000162328344837480381110000012664812338770287287_">
		<g>
			<g>
				<g id="moon">
					<g>
						<g>
							<path class="st3" d="M470.7,198.1c-3.9,1.6-8.1,2.3-12.5,1.9c-9.8-1-18-7.3-21.6-16.7c-0.9-2.6,0.4-5.4,2.8-6.2
								c2.6-0.9,5.2,0.4,6.2,2.8c2.3,5.9,7.2,9.8,13.6,10.4c6.2,0.6,12-2.2,15.3-7.6c1.3-2.3,4.3-3,6.7-1.5c2.3,1.3,3,4.3,1.5,6.7
								C479.7,192.6,475.6,196.1,470.7,198.1z"/>
						</g>
					</g>
					<path class="st12" d="M415.8,157.2c-5.5-3.5-13.2-4.2-19.8-1.6c-4,1.4-6.6,3.7-6.6,6.3c0,3.4,1.8,5.5,5,6.9
						c6,2.9,15,2.7,20.9-0.6C420.5,165.1,420.8,160.4,415.8,157.2z"/>
					<path class="st12" d="M517.9,160.9c-5.5-3.5-13.2-4.2-19.8-1.6c-4,1.4-6.6,3.7-6.6,6.3c0,3.4,1.8,5.5,5,6.9
						c6,2.9,15,2.7,20.9-0.6C522.6,168.7,522.9,164.1,517.9,160.9z"/>
				</g>
				<path class="st30" d="M456.4,234c5,2.4,8.9,6,10.3,9.3c0-0.2,0.2-0.3,0.2-0.3c2.1-4.3-2.7-10.9-10.5-14.5
					c-7.7-3.5-15.8-3.1-17.9,1.4c-0.6,1.6-0.6,3.4,0.2,5.3C441.1,230.9,448.8,230.4,456.4,234z"/>
				<path class="st30" d="M510.2,210.4c5,2.4,8.9,6,10.3,9.3c0-0.2,0.2-0.3,0.2-0.3c2.1-4.3-2.7-10.9-10.5-14.5
					c-7.7-3.5-15.8-3.1-17.9,1.4c-0.6,1.6-0.6,3.4,0.2,5.3C494.7,207.4,502.5,206.9,510.2,210.4z"/>
			</g>
			<circle class="st29" cx="479.4" cy="30.3" r="6"/>
		</g>
	</g>
	<g>
		<g>
			<circle class="st3" cx="513.4" cy="121" r="26.2"/>
		</g>
		<g>
			<circle class="st29" cx="520.8" cy="114.2" r="8.1"/>
			<circle class="st29" cx="504.9" cy="133.2" r="4.5"/>
		</g>
	</g>
	<g>
		<g>
			<circle class="st3" cx="420.9" cy="121" r="26.2"/>
		</g>
		<g>
			<circle class="st29" cx="428.3" cy="114.2" r="8.1"/>
			<circle class="st29" cx="412.4" cy="133.2" r="4.5"/>
		</g>
	</g>
</g>
</svg>
