<?xml version="1.0" encoding="utf-8"?>
<!-- Generator: Adobe Illustrator 27.9.1, SVG Export Plug-In . SVG Version: 6.00 Build 0)  -->
<svg version="1.1" id="Layer_1" xmlns="http://www.w3.org/2000/svg" xmlns:xlink="http://www.w3.org/1999/xlink" x="0px" y="0px"
	 viewBox="0 0 200 200" style="enable-background:new 0 0 200 200;" xml:space="preserve">
<style type="text/css">
	.st0{fill:#8BCBD5;}
	.st1{fill:#EC8524;}
	.st2{fill:#FED653;}
	.st3{fill:#1F2F3D;}
	.st4{opacity:0.34;}
	.st5{fill:#F58A21;}
	.st6{fill:#D67140;}
	.st7{fill:#C96E43;}
	.st8{fill:#E88F53;}
	.st9{fill:#B54C33;}
	.st10{fill:#F8AE5E;}
	.st11{fill:#FDFCFB;}
	.st12{fill:#F37769;}
	.st13{fill:#F58E4E;}
	.st14{fill:#F9E1C0;}
	.st15{fill:#FAC087;}
	.st16{fill:#FBF9F9;}
	.st17{fill:#4167A0;}
	.st18{fill:#4C74B9;}
	.st19{fill:#7DA9DA;}
	.st20{opacity:0.15;fill:#7DA9DA;}
	.st21{fill:#67BDC6;}
	.st22{fill:#B1DFE5;}
	.st23{fill:#9DD5DD;}
	.st24{fill:#8FD5DC;}
	.st25{fill:#45A4C1;}
	.st26{fill:#77D1F3;}
	.st27{fill:#4AA146;}
	.st28{fill:#FCFBFA;}
	.st29{fill:#FFFFFF;}
	.st30{fill:#F8B032;}
	.st31{fill:#F59B28;}
	.st32{fill:#FBFAF9;}
	.st33{fill:#C45234;}
	.st34{fill:#E45E39;}
	.st35{fill:#939696;}
	.st36{fill:#B7B8B8;}
	.st37{fill:#F05979;}
	.st38{fill:#B7B8B8;stroke:#121C2B;stroke-width:6;stroke-linecap:round;stroke-linejoin:round;stroke-miterlimit:10;}
	.st39{fill:#FBDE84;}
	.st40{fill:#FDC478;}
	.st41{fill:#D88360;}
</style>
<g>
	<g>
		<path class="st0" d="M-387.7,486.9c0.1,0.1,0.1,0.2,0.2,0.3C-387.6,487.1-387.6,487-387.7,486.9z"/>
	</g>
</g>
<path class="st1" d="M682.3-185.4L682.3-185.4c0-0.3,0-0.5,0-0.8C682.3-186,682.3-185.7,682.3-185.4z"/>
<g id="sun">
	<path id="silhouette_00000141455030173033219790000013122658012096336806_" class="st1" d="M507.5,173.3
		c-5.2-4.8,1.4-19.7-2.4-25.3c-4-5.8-20.2-5.1-22.7-11.5c-2.5-6.5,9.9-17,8.9-23.8c-1-6.9-16-13.3-15.5-20.2
		c0.5-6.9,16.3-11,18.3-17.7c2-6.6-8.7-18.8-5.2-24.9c3.4-5.9,19.4-2.7,24.2-7.9c4.8-5.2,0.5-20.9,6.1-24.7c5.8-4,18.8,5.8,25.2,3.3
		c6.5-2.5,9.4-18.6,16.2-19.6c6.9-1,14.4,13.4,21.3,13.9c6.9,0.5,16.4-12.7,23.1-10.6c6.6,2,7,18.3,13.1,21.8
		c5.9,3.4,20.2-4.3,25.4,0.5c5.2,4.8-1.4,19.7,2.4,25.3c4,5.8,20.2,5.1,22.7,11.5c2.5,6.5-9.9,17-8.9,23.8c1,6.9,16,13.3,15.5,20.2
		c-0.5,6.9-16.3,11-18.3,17.7c-2,6.6,8.7,18.8,5.2,24.9c-3.4,5.9-19.4,2.7-24.2,7.9c-4.8,5.2-0.5,20.9-6.1,24.7
		c-5.8,4-18.8-5.8-25.2-3.3c-6.5,2.5-9.4,18.6-16.2,19.6c-6.9,1-14.4-13.4-21.3-13.9c-6.9-0.5-16.4,12.7-23.1,10.6
		c-6.6-2-7-18.3-13.1-21.8C527,170.4,512.7,178.1,507.5,173.3z"/>
	<g>
		<circle class="st2" cx="575.5" cy="100" r="69.7"/>
		<g>
			<g>
				<path class="st3" d="M616.9,125.4c-4.5,0-9-0.4-13.4-1.8c-7-2.1-12.2-6.4-15.8-12.7c-2.6-4.6-4.2-9.6-4.9-14.8
					c-0.2-1.6-1-2.6-2.6-3.1c-3.4-0.9-6.7-1-10,0.3c-1.2,0.5-1.7,1.3-1.9,2.6c-0.9,5.5-2.5,10.8-5.5,15.6
					c-4.2,6.8-10.3,10.8-18,12.7c-3.4,0.8-6.9,1.1-10.4,1.2c-2.5,0-4.9-0.4-7.3-0.8c-3.7-0.6-7-2.1-10.2-4
					c-7.5-5.2-10.7-13-12.8-21.4c0-0.1,0-0.1,0-0.2c-0.3-2.8-1.7-4.5-4.6-5c-1.9-0.4-2.8-1.6-3-3.5c-0.2-1.9-0.2-3.8-0.1-5.7
					c0.1-1.6,1.1-2.7,2.6-3.2c6.3-2.3,12.9-4,19.5-5.2c4.4-0.8,8.9-1.2,13.4-1.5c7.3-0.4,14.5,0.2,21.6,1.9c4.1,1,8.1,2.3,11.4,5
					c0.8,0.6,1.6,1.4,2.2,2.2c0.4,0.5,0.8,0.6,1.4,0.5c4.8-1.1,9.6-1,14.4,0c0.5,0.1,0.9,0.1,1.3-0.4c2.2-3,5.4-4.5,8.8-5.7
					c4.9-1.8,10-2.7,15.1-3.2c3.1-0.3,6.2-0.5,9.3-0.4c9.5,0.3,18.8,1.8,27.9,4.5c2.2,0.7,4.4,1.3,6.5,2.1c2.4,0.8,3.1,1.8,3,4.3
					c0,1.8,0.1,3.6-0.2,5.3c-0.3,1.4-1,2.4-2.4,2.8c-0.5,0.1-0.9,0.4-1.4,0.5c-2.3,0.5-3.3,2-3.8,4.2c-0.7,3.4-1.9,6.7-3.4,9.9
					c-2,4.4-4.6,8.4-8.6,11.3c-0.2,0.2-0.4,0.3-0.5,0.6c-0.9,0.1-1.4,0.8-2.2,1.2C627.5,124.1,622.3,125.2,616.9,125.4z M615.5,79.2
					c-6.8,0.1-13.4,0.7-19.7,2.9c-5.9,2.1-8.6,5.9-8.6,12.2c0,2.7,0.5,5.3,1.2,7.9c2.8,9.4,8.7,15.6,18.4,17.8
					c4.7,1.1,9.4,1.2,14.2,0.5c5.6-0.9,10.6-3,14.4-7.4c4.8-5.7,6.9-12.4,7-19.7c0-6.6-2.5-9.7-8.8-11.7
					C627.7,79.7,621.5,79.3,615.5,79.2z M535.6,79.2c-7.5,0.1-14.2,1.1-18.6,2.5c-5.5,1.8-8.1,5.1-8.5,10.9
					c-0.3,4.4,0.6,8.5,2.1,12.6c2.9,7.8,8.3,12.9,16.5,14.8c5.9,1.3,11.8,1.3,17.6-0.3c4.1-1.1,7.8-2.9,10.8-5.9
					c5.9-6,8.4-13.3,8.1-21.6c-0.1-3.6-1.8-6.6-5-8.5c-1.3-0.7-2.5-1.4-3.9-1.8C548,79.7,541.2,79.2,535.6,79.2z M502.3,85.9
					c-0.1,0-0.5,0-0.9,0.1c-0.8,0.2-1.4,0.6-1.4,1.5c0,0.9,0.5,1.4,1.4,1.6c0.4,0.1,0.9,0.1,1.4,0.1c1.7,0,2.4-0.6,2.4-1.6
					C505.1,86.4,504.2,85.8,502.3,85.9z M648.3,89.1c0.4,0,0.8,0,1.2-0.1c0.9-0.1,1.3-0.6,1.4-1.4c0.1-0.8-0.3-1.4-1.2-1.6
					c-0.5-0.1-1-0.2-1.6-0.2c-1.6,0-2.5,0.6-2.4,1.7C645.9,88.6,646.6,89.1,648.3,89.1z"/>
			</g>
			<g>
				<g>
					<path class="st3" d="M633.6,81.6c-5.9-1.9-12.1-2.3-18.2-2.4c-6.8,0.1-13.4,0.7-19.7,2.9c-5.9,2.1-8.6,5.9-8.6,12.2
						c0,2.7,0.5,5.3,1.2,7.9c2.8,9.4,8.7,15.6,18.4,17.8c4.7,1.1,9.4,1.2,14.2,0.5c5.6-0.9,10.6-3,14.4-7.4c4.8-5.7,6.9-12.4,7-19.7
						C642.4,86.7,639.9,83.6,633.6,81.6z"/>
				</g>
				<g>
					<path class="st3" d="M558.6,83.7c-1.3-0.7-2.5-1.4-3.9-1.8c-6.6-2.1-13.5-2.7-19.1-2.7c-7.5,0.1-14.2,1.1-18.6,2.5
						c-5.5,1.8-8.1,5.1-8.5,10.9c-0.3,4.4,0.6,8.5,2.1,12.6c2.9,7.8,8.3,12.9,16.5,14.8c5.9,1.3,11.8,1.3,17.6-0.3
						c4.1-1.1,7.8-2.9,10.8-5.9c5.9-6,8.4-13.3,8.1-21.6C563.5,88.5,561.9,85.6,558.6,83.7z"/>
				</g>
			</g>
		</g>
		<g>
			<path class="st3" d="M594.4,128.2c0,4.5-2.3,8.2-6.2,9.7c-4.3,1.7-9,0.6-11.9-2.9c-0.7-0.8-1-0.8-1.7,0
				c-3.1,3.6-8.4,4.6-12.6,2.6c-4.1-2-6.2-6.3-5.3-10.9c0.3-1.6,1.2-2.4,2.5-2.1c1.3,0.2,1.8,1.2,1.5,2.9c-0.5,3,0.6,5.4,3.1,6.6
				c2.6,1.3,5.8,0.6,7.9-1.5c0.8-0.9,1.5-1.9,1.8-3c0.3-1.1,0.9-1.8,2.1-1.8c1.2,0,1.7,0.8,2,1.9c1,3.4,4,5.4,7.6,5
				c3.3-0.4,5.7-3.5,5.2-6.8c0-0.3-0.1-0.6-0.2-1c-0.1-1.2,0.4-2,1.6-2.2c1.2-0.2,2,0.3,2.3,1.4
				C594.4,126.7,594.4,127.5,594.4,128.2z"/>
		</g>
		<g class="st4">
			<path class="st5" d="M610.7,118.6c2.5,0.3,5,0.4,7.6,0.2l-7.1-37.5c-2.5,0.2-4.9,0.4-7.4,0.9L610.7,118.6z"/>
			<path class="st5" d="M622.4,118.2c1.1-0.2,2.1-0.5,3.1-0.9l-6.8-36c-1.1-0.1-2.2-0.1-3.3-0.1L622.4,118.2z"/>
			<path class="st5" d="M544.2,117.7l-6.9-36.5c-0.6,0-1.3,0-1.9,0c-0.5,0-0.9,0-1.3,0l7,37.2c0.9-0.2,1.7-0.3,2.6-0.6
				C543.9,117.8,544,117.7,544.2,117.7z"/>
			<path class="st5" d="M529.2,118.4c2.5,0.5,5.1,0.6,7.6,0.5l-7.1-37.5c-2.7,0.2-5.2,0.6-7.3,1L529.2,118.4z"/>
		</g>
	</g>
</g>
<g id="jupiter">
	<circle id="silhouette_00000010992566078423341930000011651578718305695889_" class="st6" cx="340" cy="100" r="100"/>
	<g>
		<g>
			<path class="st7" d="M260.4,155.2c-5.7-7.7-9.8-16.2-12.6-25.3c-1-3.1-1.7-6.2-2.4-9.3c0-0.2,0-0.4,0-0.6
				c1.7-0.2,3.4-0.4,5.1-0.6c2.5-0.4,5-1,7.5-1.1c4.8-0.3,9.4,0.6,13.9,2.1c3.5,1.1,6.7,2.9,10,4.5c6.5,3.3,13.4,4.9,20.6,5.5
				c4.4,0.4,8.7,0.3,13.1,0.2c2.1,0,4.3-0.2,6.4-0.5c3-0.4,5.9-0.8,8.9-1.3c1.3-0.2,2.6,0,3.8-0.9c4.9,2.4,9.1,1.5,12.4-2.7
				c0.8,0.5,1.5,0,2.2-0.2c3.4-0.9,6.8-1.9,10.1-3c4.6-1.5,9.2-2.9,13.9-4.2c0.3-0.1,0.6-0.1,0.7-0.5c0.9,0,1.9-0.1,2.8-0.4
				c0.4-0.1,0.8-0.2,0.7,0.5c-0.4,3.3,0.6,5.2,3.6,6.7c4.2,2,8.4,1.8,12.4-0.5c3.2-1.8,4-5.5,1.7-8.2c-0.6-0.7-1.3-1.2-2-1.9
				c2.8-0.7,5.6-1.3,8.5-1.4c3.8-0.2,7.6,0.3,11.3,1.3c3.3,0.8,6.6,1.4,10,1.6c4.5,0.3,8.7-0.7,12.9-2c-0.5,5.2-1.6,10.2-3,15.1
				c-1.3,4.4-2.8,8.8-4.9,13c-3.3-0.2-6.6-0.6-9.9-0.6c-4.7-0.1-9.4,0-14.1,0.4c-4.4,0.4-8.8,0.9-13.1,1.7
				c-7.3,1.3-14.4,3.1-21.6,4.8c-4.9,1.1-9.8,1.9-14.7,2.5c-3.8,0.5-7.6,0.4-11.5,0.7c-3,0.2-6.1,0-9.1,0.2
				c-2.2,0.2-4.5,0.5-6.7,0.9c-5.1,0.8-9.9,2.4-14.8,3.9c-6,1.8-12.1,3.3-18.4,3.6c-5.8,0.3-11.6,0.2-17.3-0.7
				c-4.9-0.7-9.7-1.7-14.4-3C261.7,155.3,261.1,154.9,260.4,155.2z M275.2,131c-4.2-0.1-7.3,0.9-9.8,2.1c-3.7,1.9-5.7,5.5-4,10
				c1,2.5,2.8,4.3,4.8,5.9c3.3,2.6,7,4.4,10.9,5.7c5.5,1.8,11.1,2.7,16.8,2c2.6-0.3,5.2-1,7.4-2.5c2.4-1.6,4-3.7,3.8-6.7
				c-0.2-3-1.9-5.3-4-7.3c-2.7-2.4-5.8-4.2-9.1-5.6C286.8,132.4,281.4,131,275.2,131z"/>
			<path class="st8" d="M433.1,75.4c1.3,4.1,2,8.3,2.5,12.6c-0.4-0.2-0.8-0.2-1.2-0.2c-4.9-0.1-9.7,0.6-14.5,1.7
				c-5.3,1.3-10.5,3.2-15.7,4.7c-5.6,1.6-11.3,2.8-17,3.5c-0.5-1.8-1.1-3.5-2.2-5c-3.6-5.4-11.2-6.4-16.1-2.1c-2,1.8-3.2,4-3.9,6.5
				c-1.7-0.4-3.4-0.7-5.1-1.2c-3.3-0.9-6.5-1.9-9.8-2.9c-4.6-1.4-9.2-2.5-14.1-2.8c-3.4-0.2-6.7-0.1-10,0.2
				c-3.3,0.2-6.6,0.6-9.9,1.1c-1.5,0.2-3,0-4.4,0.6c-0.8-0.9-1.6-1.8-2.6-2.4c-4.7-2.9-9.9-2.2-14.1,2c-0.3-0.3-0.7-0.3-1-0.4
				c-4.9-1.2-9.6-3-14.2-5.2c-3.8-1.8-7.7-3.6-11.7-4.8c-3.6-1.1-7.2-1.7-10.9-1.9c-2.6-0.1-5.3-0.1-7.9,0c-1.1,0-2.2,0.1-3.3,0.4
				c0.4-3.2,1.4-6.2,2.3-9.2c1.6-5.2,3.7-10.1,6.3-14.9c0.5,0,0.9,0.1,1.3,0.2c4.4,1.1,8.9,2.2,13.3,3.3c8.5,2,17.1,3.7,25.8,5.2
				c6.4,1.1,12.9,1.8,19.4,2.4c5,0.4,10,0.7,14.9,0.9c4.1,0.2,8.2,0.4,12.3,0.7c4,0.3,7.9,0.7,11.9,1.1c5.9,0.6,11.6,1.7,17.4,2.8
				c7.1,1.4,14.1,3.1,21.3,4.3c5.1,0.9,10.3,1.5,15.5,1.7c5.5,0.2,11-0.1,16.5-0.9C427.1,76.7,430.1,76.2,433.1,75.4z M301.8,78.3
				c-0.8,0-1.6,0.1-2.4,0.3c-1.9,0.4-3.6,1.3-4.9,2.6c-0.8,0.8-0.8,1.7-0.1,2.4c0.6,0.7,1.5,0.7,2.3,0.1c2.3-1.9,4.9-2.2,7.6-1.6
				c1.1,0.3,1.9-0.2,2.2-1.1c0.3-0.9-0.2-1.7-1.1-2.2C304.3,78.5,303.1,78.3,301.8,78.3z M377.2,78.3c-0.9,0-2,0.1-3.1,0.6
				c-1,0.4-1.5,1.3-1.2,2.2c0.3,0.9,1.1,1.3,2.3,1c2.7-0.6,5.2-0.4,7.4,1.5c1.1,0.9,2.6,0.5,2.8-0.9c0.1-0.8-0.2-1.4-0.8-1.9
				C382.5,79.1,380.1,78.3,377.2,78.3z"/>
			<path class="st9" d="M260.4,155.2c0.7-0.3,1.4,0.1,2,0.3c4.7,1.3,9.5,2.3,14.4,3c5.7,0.8,11.5,0.9,17.3,0.7
				c6.3-0.3,12.4-1.7,18.4-3.6c4.9-1.5,9.7-3.1,14.8-3.9c2.2-0.4,4.4-0.7,6.7-0.9c3-0.3,6.1,0,9.1-0.2c3.8-0.2,7.7-0.2,11.5-0.7
				c4.9-0.6,9.9-1.4,14.7-2.5c7.2-1.7,14.3-3.5,21.6-4.8c4.3-0.8,8.7-1.3,13.1-1.7c4.7-0.4,9.4-0.5,14.1-0.4
				c3.3,0.1,6.6,0.4,9.9,0.6c-1.7,4.2-4,8-6.5,11.8c-3.2,4.9-6.8,9.4-11,13.5c-0.6,0.1-1.1,0.2-1.7,0.3c-10.9,2.5-21.8,4.6-32.9,6
				c-7.6,0.9-15.1,1.2-22.8,0.9c-6.9-0.3-13.8-1.2-20.6-2.2c-7.9-1.1-15.9-1.7-23.8-1.9c-7-0.2-14,0-21-0.3c-3.7-0.2-7.4-0.5-11.1-1
				c-1.9-0.2-3.7-0.8-5.7-0.9c-1.8-1.5-3.3-3.3-4.8-5C264,160.1,262.1,157.8,260.4,155.2z"/>
			<path class="st10" d="M433.1,75.4c-3,0.7-6,1.3-9,1.8c-5.5,0.9-11,1.1-16.5,0.9c-5.2-0.2-10.4-0.8-15.5-1.7
				c-7.1-1.3-14.2-2.9-21.3-4.3c-5.8-1.1-11.6-2.2-17.4-2.8c-3.9-0.4-7.9-0.9-11.9-1.1c-4.1-0.3-8.2-0.5-12.3-0.7
				c-5-0.2-10-0.5-14.9-0.9c-6.5-0.6-13-1.3-19.4-2.4c-8.7-1.4-17.2-3.1-25.8-5.2c-4.5-1.1-8.9-2.2-13.3-3.3
				c-0.4-0.1-0.9-0.2-1.3-0.2c2.9-5.9,6.4-11.4,10.6-16.5c0.3,0.3,0.7,0.4,1.1,0.4c2.5,0.5,5.1,0.9,7.6,1.5
				c10.3,2.4,20.6,4.8,30.9,7.3c10.2,2.4,20.6,3.9,31,4.8c4.2,0.4,8.5,0.7,12.7,0.9c5.7,0.3,11.3,0.7,17,1.1
				c3.9,0.3,7.9,0.7,11.8,1.2c7.1,1,14.2,2.1,21.3,3.1c6.5,1,13,1.3,19.5,0.8c1-0.1,2-0.2,3-0.3c2.1-0.3,4.2-0.5,6.2-0.8
				c1.4,2.3,2.2,4.8,3.1,7.3C431.5,69.4,432.5,72.3,433.1,75.4z"/>
			<path class="st10" d="M387.2,97.7c5.8-0.7,11.4-1.9,17-3.5c5.3-1.5,10.4-3.5,15.7-4.7c4.7-1.1,9.6-1.9,14.5-1.7
				c0.4,0,0.8,0,1.2,0.2c0.6,2.5,0.7,5,0.9,7.6c0.3,5.5,0.2,11-0.4,16.5c0,0.3-0.1,0.7-0.2,1c-4.2,1.3-8.5,2.3-12.9,2
				c-3.4-0.2-6.7-0.8-10-1.6c-3.7-0.9-7.4-1.4-11.3-1.3c-2.8,0.1-5.6,0.7-8.5,1.4c0.7,0.7,1.4,1.2,2,1.9c2.2,2.7,1.5,6.4-1.7,8.2
				c-4,2.3-8.2,2.5-12.4,0.5c-3-1.4-4.1-3.3-3.6-6.7c0.1-0.7-0.3-0.7-0.7-0.5c-0.9,0.3-1.8,0.4-2.8,0.4c-1,0-2,0-2.9-0.1
				c-3-0.1-5.9-0.5-8.8-1.1c-5.4-1-10.4-3.1-15.7-4.3c-0.4-0.5-0.8-1.1-1.2-1.6c-2-2.2-4.4-3.3-7.4-2.7c-1.7,0.3-3,1.3-4.2,2.5
				c-2.6-0.3-5.2-0.1-7.7,0.1c-2.6,0.1-5.3,0.5-7.9,0.8c-2.1,0.2-4.2,0.5-6.3,0.6c-1.4,0.1-2.9,0.2-4.3,0c3.1-1.4,5.1-3.8,6.2-6.9
				c1.6-4.5,0.9-8.8-1.9-12.7c1.4-0.6,2.9-0.4,4.4-0.6c3.3-0.4,6.6-0.9,9.9-1.1c3.3-0.2,6.6-0.4,10-0.2c4.8,0.3,9.5,1.4,14.1,2.8
				c3.3,1,6.5,2,9.8,2.9c1.7,0.5,3.4,0.8,5.1,1.2c-0.5,2.4-0.4,4.8,0.3,7.2c1.5,4.7,5.5,8,10.3,8.2c4.5,0.2,8.7-2.5,10.7-6.9
				C387.4,103,387.5,100.4,387.2,97.7z"/>
			<path class="st7" d="M427.3,59.2c-2.1,0.3-4.2,0.5-6.2,0.8c-1,0.1-2,0.3-3,0.3c-6.5,0.5-13.1,0.1-19.5-0.8
				c-7.1-1-14.2-2.2-21.3-3.1c-3.9-0.5-7.8-0.9-11.8-1.2c-5.7-0.5-11.3-0.8-17-1.1c-4.2-0.2-8.5-0.5-12.7-0.9
				c-10.4-0.9-20.8-2.3-31-4.8c-10.3-2.5-20.6-4.9-30.9-7.3c-2.5-0.6-5.1-1-7.6-1.5c-0.4-0.1-0.8-0.1-1.1-0.4
				c2.6-3.3,5.3-6.4,8.4-9.2c4.4,0.4,8.8,1.2,13.1,2.1c5.1,1.1,10,2.5,15,4.1c7.7,2.5,15.5,5.1,23.4,7c8.7,2,17.5,3.2,26.5,3.6
				c3.7,0.2,7.4,0.2,11.1,0.2c9,0.1,18-0.2,27,0.2c1.2,0.1,2.4,0.1,3.6,0.3c3.6,0.4,7.3,0.7,10.9,1.3c4.2,0.7,8.4,1.3,12.5,1.9
				c2.4,0.4,4.8,0.9,7.2,1C425,54.2,426.4,56.5,427.3,59.2z"/>
			<path class="st8" d="M307.4,111.6c1.4,0.2,2.9,0.1,4.3,0c2.1-0.1,4.2-0.4,6.3-0.6c2.6-0.3,5.3-0.7,7.9-0.8
				c2.6-0.1,5.1-0.4,7.7-0.1c-1.7,2.2-2.8,4.6-3.1,7.4c-0.4,4.1,0.2,7.9,4,10.4c-1.1,0.8-2.5,0.6-3.8,0.9c-2.9,0.5-5.9,1-8.9,1.3
				c-2.1,0.3-4.3,0.5-6.4,0.5c-4.4,0.1-8.7,0.2-13.1-0.2c-7.2-0.7-14.1-2.3-20.6-5.5c-3.3-1.6-6.5-3.4-10-4.5
				c-4.5-1.5-9.2-2.4-13.9-2.1c-2.5,0.2-5,0.7-7.5,1.1c-1.7,0.3-3.4,0.4-5.1,0.6c-0.9-3.5-1.3-7.1-1.6-10.8
				c-0.3-3.2-0.5-6.5-0.3-9.8c0.3,0,0.6-0.1,0.9-0.1c2.6-0.4,5.2-0.9,7.8-1c2.5-0.1,5-0.3,7.5-0.1c2.3,0.2,4.5,0.5,6.8,0.9
				c5,1,9.7,3,14.2,5.4c3.6,1.9,7.4,3.7,11.3,4.9c1.5,0.5,3,1.1,4.7,0.8C300,112.6,303.6,113.2,307.4,111.6z M293,125.4
				c1.9,0.2,3.8-0.4,5.6-1.2c2-1,3.7-2.3,3.9-4.8c0.3-2.8-1.2-4.6-3.5-5.9c-1.4-0.8-3-1.2-4.6-1.3c-3.6-0.3-7.1,0.3-9.7,3.1
				c-2.4,2.5-1.5,5.9,0.5,7.5C287.3,124.6,289.9,125.5,293,125.4z"/>
			<path class="st10" d="M270.9,167.4c1.9,0.1,3.8,0.7,5.7,0.9c3.7,0.5,7.4,0.9,11.1,1c7,0.3,14,0.1,21,0.3c8,0.2,15.9,0.8,23.8,1.9
				c6.9,0.9,13.7,1.8,20.6,2.2c7.6,0.3,15.2,0,22.8-0.9c11.1-1.4,22-3.6,32.9-6c0.5-0.1,1.1-0.2,1.7-0.3
				c-4.9,5.3-10.5,9.8-16.5,13.7c-2.6,1.7-5.2,3.3-7.9,4.7c-0.2-0.2-0.3-0.2-0.4,0c0,0,0,0,0,0c-0.6,0-1.3,0-1.9,0.1
				c-1.8,0.3-3.5,0.6-5.3,0.8c-3.3,0.3-6.6,0.5-9.8,1c-3.9,0.5-7.8,1.2-11.7,1.6c-4.7,0.5-9.3,0.2-13.9-0.6c-5-0.9-9.8-2.6-14.5-4.5
				c-7.9-3.2-16.1-5.1-24.6-5.4c-7.2-0.3-14.4,0.2-21.5-0.5C278.3,174.3,274.4,171.1,270.9,167.4z"/>
			<path class="st9" d="M423.7,51.7c-2.4-0.1-4.8-0.6-7.2-1c-4.2-0.6-8.4-1.3-12.5-1.9c-3.6-0.6-7.3-0.9-10.9-1.3
				c-1.2-0.1-2.4-0.2-3.6-0.3c-9-0.5-18-0.1-27-0.2c-3.7,0-7.4,0-11.1-0.2c-8.9-0.5-17.7-1.6-26.5-3.6c-8-1.8-15.7-4.4-23.4-7
				c-4.9-1.6-9.9-3-15-4.1c-4.3-0.9-8.7-1.7-13.1-2.1c2.8-2.8,5.8-5.4,9-7.7c1.8,0.3,3.6,0.4,5.4,0.8c7.5,1.4,15,3,22.3,5.3
				c9.4,2.9,18.7,5.6,28.4,7.1c4.1,0.7,8.2,1.3,12.3,1.6c3.7,0.3,7.4,0.5,11.1,0.5c8.3,0.1,16.6,0,24.8,0.3c0.2,0,0.4,0,0.6,0
				c3.9,0.4,7.8,0.4,11.7,0.9c3.1,0.4,6.2,0.7,9.4,1c2.7,0.3,5.3,0.9,8,1C419.3,44.2,421.8,47.8,423.7,51.7z"/>
			<path class="st10" d="M294.2,14.9c2.7-1.6,5.7-2.8,8.6-4c8.7-3.5,17.7-5.6,26.9-6.9c0.3,0,0.7,0,1,0c3.6,1.4,7.1,3,10.6,4.7
				c6,2.9,12.2,5.1,18.6,6.8c5.2,1.3,10.5,2.3,15.9,3c4.7,0.6,9.4,1.1,14.2,1.1c0.3,0,0.7,0.1,1,0.1c1.1,0,2.2,0.3,3.3-0.2
				c4.6,3,8.9,6.4,12.7,10.3c-3.9,0.3-7.7,0.3-11.6,0.3c-8.1-0.1-16.3,0.2-24.4-0.2c-5.1-0.2-10.1-0.6-15.2-1.1
				c-4.7-0.5-9.4-1.2-14-2.2c-7.1-1.5-14.1-3.6-21-5.5c-5.9-1.7-11.7-3.3-17.7-4.5C300.2,16,297.2,15.5,294.2,14.9z"/>
			<path class="st7" d="M294.2,14.9c2.9,0.5,5.9,1,8.8,1.6c6,1.2,11.8,2.9,17.7,4.5c7,2,13.9,4.1,21,5.5c4.6,0.9,9.3,1.7,14,2.2
				c5,0.5,10.1,0.9,15.2,1.1c8.1,0.4,16.3,0.1,24.4,0.2c3.9,0,7.8,0,11.6-0.3c3.6,3.3,6.7,7,9.6,10.9c-2.7-0.1-5.3-0.7-8-1
				c-3.1-0.3-6.3-0.7-9.4-1c-3.9-0.5-7.8-0.5-11.7-0.9c-0.2,0-0.4,0-0.6,0c-8.3-0.3-16.6-0.2-24.8-0.3c-3.7,0-7.4-0.2-11.1-0.5
				c-4.1-0.3-8.2-1-12.3-1.6c-9.7-1.6-19.1-4.3-28.4-7.1c-7.3-2.2-14.8-3.9-22.3-5.3c-1.8-0.3-3.6-0.5-5.4-0.8
				C286.2,19.4,290,16.9,294.2,14.9z"/>
			<path class="st10" d="M296.6,110.4c-1.6,0.3-3.2-0.3-4.7-0.8c-3.9-1.3-7.7-3-11.3-4.9c-4.5-2.4-9.1-4.4-14.2-5.4
				c-2.2-0.4-4.5-0.7-6.8-0.9c-2.5-0.3-5,0-7.5,0.1c-2.6,0.1-5.2,0.6-7.8,1c-0.3,0-0.6,0.1-0.9,0.1c-0.1-5.1,0.6-10.2,1.5-15.3
				c0.3-1.5,0.4-3.1,1-4.6c1.1-0.3,2.2-0.4,3.3-0.4c2.6-0.1,5.3-0.1,7.9,0c3.7,0.2,7.4,0.8,10.9,1.9c4.1,1.2,7.9,3,11.7,4.8
				c4.6,2.2,9.3,4,14.2,5.2c0.4,0.1,0.7,0.1,1,0.4c-1.9,2.4-3.1,5.1-3.2,8.2C291.7,104.1,293.4,107.6,296.6,110.4z"/>
			<path class="st8" d="M282.5,177.3c7.2,0.7,14.4,0.2,21.5,0.5c8.5,0.3,16.7,2.2,24.6,5.4c4.7,1.9,9.5,3.6,14.5,4.5
				c4.6,0.9,9.2,1.1,13.9,0.6c3.9-0.4,7.8-1.1,11.7-1.6c3.3-0.4,6.6-0.6,9.8-1c1.8-0.2,3.6-0.5,5.3-0.8c0.6-0.1,1.3-0.1,1.9-0.1
				c-0.2,0.5-0.7,0.6-1.1,0.8c-9.4,4.8-19.3,8.3-29.8,9.9c-11.9,1.8-23.7,1.4-35.5-1.3c-13.2-3-25.2-8.6-36.2-16.3
				C283,177.7,282.7,177.5,282.5,177.3z"/>
			<path class="st8" d="M394.3,19.5c-1.1,0.5-2.2,0.2-3.3,0.2c-0.3,0-0.7-0.1-1-0.1c-4.8,0-9.5-0.5-14.2-1.1
				c-5.4-0.7-10.6-1.7-15.9-3c-6.4-1.6-12.6-3.9-18.6-6.8c-3.5-1.7-7-3.3-10.6-4.7c6-0.8,12-0.8,18-0.3c8.3,0.7,16.4,2.5,24.3,5.2
				C380.6,11.5,387.7,15,394.3,19.5z"/>
			<path class="st8" d="M385.7,184.9c0.1-0.2,0.3-0.3,0.4,0C386,184.9,385.8,184.9,385.7,184.9z"/>
			<path class="st9" d="M275.2,131c6.2,0,11.6,1.4,16.9,3.6c3.3,1.4,6.4,3.2,9.1,5.6c2.2,2,3.8,4.3,4,7.3c0.2,3-1.4,5.1-3.8,6.7
				c-2.2,1.5-4.8,2.2-7.4,2.5c-5.8,0.7-11.4-0.2-16.8-2c-4-1.3-7.7-3.1-10.9-5.7c-2-1.6-3.8-3.4-4.8-5.9c-1.8-4.4,0.2-8,4-10
				C267.9,131.9,271,130.9,275.2,131z M278.5,136c-2.4-0.1-4.7,0.2-6.8,1.2c-2.8,1.3-4.5,4.1-2.3,7.3c0.9,1.4,2,2.5,3.4,3.4
				c5.3,3.5,11.2,5.1,17.5,4.3c1.8-0.2,3.5-0.7,5-1.8c1.9-1.4,2.5-3.4,1.6-5.4c-0.6-1.3-1.4-2.4-2.5-3.3
				C289.7,138,284.5,136,278.5,136z"/>
			<g>
				<path class="st3" d="M334.6,127.9c-3.7-2.6-4.4-6.3-4-10.4c0.3-2.7,1.3-5.2,3.1-7.4c1.2-1.1,2.5-2.1,4.2-2.5
					c3-0.6,5.4,0.5,7.4,2.7c0.4,0.5,0.8,1.1,1.2,1.6c2.2,4.3,2.8,8.8,0.5,13.3C343.6,129.4,339.5,130.4,334.6,127.9z M333.7,120.5
					c-0.2,0.4,0.1,0.8,0.2,1.2c0.8,2.9,2.9,4.4,5.9,4.2c2.9-0.2,4.8-2,5.2-4.9c0.3-2.8-0.2-5.4-1.8-7.7c-1.7-2.5-4.3-3.1-6.4-1.5
					c-1.1,0.8-1.8,1.9-2.3,3.1C334,116.7,333.6,118.6,333.7,120.5z"/>
			</g>
			<path class="st8" d="M347,125.2c2.3-4.5,1.7-8.9-0.5-13.3c5.3,1.3,10.4,3.3,15.7,4.3c2.9,0.5,5.8,0.9,8.8,1.1c1,0,2,0,2.9,0.1
				c-0.1,0.4-0.4,0.4-0.7,0.5c-4.7,1.2-9.3,2.7-13.9,4.2c-3.4,1.1-6.7,2-10.1,3C348.5,125.2,347.8,125.7,347,125.2z"/>
			<g>
				<path class="st3" d="M387.2,97.7c0.3,2.7,0.2,5.3-0.9,7.8c-2,4.4-6.2,7.2-10.7,6.9c-4.7-0.3-8.8-3.5-10.3-8.2
					c-0.8-2.4-0.8-4.8-0.3-7.2c0.8-2.5,1.9-4.7,3.9-6.5c4.9-4.3,12.5-3.3,16.1,2.1C386.1,94.3,386.8,95.9,387.2,97.7z M379.2,100.2
					c2.3,0,4.2-1.8,4.2-4.1c0-2.2-1.8-4-4-4.1c-2.2,0-4.1,1.8-4.1,4C375.2,98.3,377,100.2,379.2,100.2z"/>
			</g>
			<g>
				<path class="st3" d="M296.6,110.4c-3.2-2.8-4.9-6.3-4.8-10.5c0.1-3.1,1.2-5.8,3.2-8.2c4.2-4.2,9.4-4.9,14.1-2
					c1,0.6,1.8,1.5,2.6,2.4c2.8,3.9,3.5,8.1,1.9,12.7c-1.1,3.1-3.2,5.5-6.2,6.9C303.6,113.2,300,112.6,296.6,110.4z M306.3,100.2
					c2.3,0,4.1-1.9,4.1-4.1c0-2.2-1.8-4-4-4c-2.3,0-4.1,1.8-4.1,4.2C302.3,98.4,304.1,100.2,306.3,100.2z"/>
			</g>
			<g>
				<path class="st3" d="M301.8,78.3c1.3-0.1,2.5,0.1,3.6,0.6c1,0.4,1.4,1.3,1.1,2.2c-0.3,0.9-1.1,1.3-2.2,1.1
					c-2.8-0.7-5.4-0.3-7.6,1.6c-0.8,0.7-1.7,0.6-2.3-0.1c-0.6-0.7-0.7-1.7,0.1-2.4c1.4-1.4,3-2.2,4.9-2.6
					C300.2,78.4,301,78.3,301.8,78.3z"/>
			</g>
			<g>
				<path class="st3" d="M377.2,78.3c3,0,5.3,0.8,7.3,2.6c0.6,0.5,0.9,1.1,0.8,1.9c-0.2,1.3-1.7,1.8-2.8,0.9
					c-2.2-1.9-4.7-2.1-7.4-1.5c-1.2,0.3-2-0.1-2.3-1c-0.3-0.9,0.2-1.8,1.2-2.2C375.1,78.5,376.3,78.3,377.2,78.3z"/>
			</g>
			<path class="st10" d="M293,125.4c-3.1,0.1-5.6-0.8-7.8-2.6c-2-1.6-2.9-5-0.5-7.5c2.7-2.8,6.1-3.5,9.7-3.1
				c1.6,0.1,3.2,0.5,4.6,1.3c2.3,1.3,3.8,3.1,3.5,5.9c-0.2,2.4-1.9,3.8-3.9,4.8C296.7,125.1,294.8,125.6,293,125.4z"/>
			<path class="st7" d="M278.5,136c5.9,0.1,11.2,2,15.9,5.7c1.1,0.9,1.9,2,2.5,3.3c0.9,2.1,0.3,4.1-1.6,5.4c-1.5,1.1-3.2,1.6-5,1.8
				c-6.4,0.8-12.2-0.9-17.5-4.3c-1.4-0.9-2.5-2-3.4-3.4c-2.2-3.3-0.5-6.1,2.3-7.3C273.8,136.2,276.1,135.9,278.5,136z"/>
			<path class="st8" d="M345.1,120.9c-0.4,2.9-2.4,4.8-5.2,4.9c-3,0.2-5.1-1.3-5.9-4.2c-0.1-0.4-0.4-0.7-0.2-1.2
				c0.4,0,0.6-0.3,0.8-0.6c1.6-1.7,3.5-2.4,5.8-2.1C342.4,118.1,344.1,118.9,345.1,120.9z"/>
			<path class="st9" d="M345.1,120.9c-0.9-2-2.7-2.8-4.7-3.1c-2.3-0.3-4.2,0.5-5.8,2.1c-0.2,0.2-0.4,0.6-0.8,0.6
				c-0.2-1.9,0.3-3.8,0.9-5.6c0.4-1.3,1.2-2.3,2.3-3.1c2.1-1.6,4.7-1,6.4,1.5C344.8,115.5,345.4,118.2,345.1,120.9z"/>
			<path class="st11" d="M379.2,100.2c-2.2,0-3.9-1.9-3.9-4.1c0-2.3,1.9-4.1,4.1-4c2.2,0,4,1.9,4,4.1
				C383.4,98.4,381.5,100.2,379.2,100.2z"/>
			<path class="st11" d="M306.3,100.2c-2.2,0-4.1-1.8-4.1-3.9c0-2.3,1.8-4.2,4.1-4.2c2.2,0,4,1.8,4,4
				C310.4,98.3,308.6,100.2,306.3,100.2z"/>
		</g>
	</g>
	<ellipse class="st12" cx="292.6" cy="118.9" rx="10.5" ry="7"/>
	<ellipse class="st12" cx="387.3" cy="118.9" rx="10.5" ry="7"/>
</g>
<g id="saturn">
	<g id="silhouette_00000045604605388794502030000003200853432667977380_">
		<path id="silhouette_00000059291564125123745980000007256473140039892125_" class="st13" d="M192,184.2
			c-0.3-19.2-12.3-35.8-22-49.1l-0.8-1.1l0.7-1.1c8.3-13.4,12.5-29,11.8-44.1l0-0.1c0.1-21.7-10.5-42.2-29.1-56.4
			c-14.7-11.1-32.6-17.2-50.5-17.2c-13.7,0-26.8,3.6-37.8,10.4L63,26.2l-1.1-0.8c-19.8-14.6-34.9-22-45-22c-4.2,0-7.5,1.2-10.1,3.8
			C-7.5,21.3,19,60.5,27.5,72.1l0.6,0.8l-0.2,0.9c-2.7,10.2-3,20.9-0.9,30.1l0,0.1l0,0.1c2.7,19.2,13.7,37.3,30,49.8
			c13.7,10.4,30.2,16.1,46.5,16.1c4.5,0,9-0.4,13.3-1.3l0.8-0.2l0.7,0.5c0.9,0.7,2,1.4,3.1,2.2c18.4,13,39.4,26.9,54.4,26.9
			c2.4,0,4.6-0.4,6.5-1.1c3.4-1.3,7.8-4.3,9.6-11.6l0.1-0.5L192,184.2z M48.1,44.5c-0.2,0.2-0.4,0.5-0.6,0.8
			c0.2,0.4,0.4,0.9,0.6,1.4c-0.2-0.5-0.4-0.9-0.6-1.4v0v0c-1.5,1.5-2.7,3.2-3.9,4.8c-0.7,0.9-1.3,1.8-1.9,2.8
			c0.3,0.9,0.7,1.8,1.2,2.7c-0.5-0.8-0.9-1.7-1.2-2.7v0v0c-1-1.1-1.4-2.5-1.9-3.7c-1.3-2.8-2.4-5.7-2.7-8.8
			c-0.5-4.7,2.3-6.5,6.6-5.8c3.7,0.6,7,2.3,10.1,4.2C51.8,40.6,49.9,42.6,48.1,44.5z M153.7,162.4c-2.6-0.4-5-1.4-7.4-2.5
			c-2.1-0.9-4-2.1-6-3.2c0.7-0.6,1.6-0.9,2.2-1.6c1.7-0.8,3-2,4.5-3c3.1-2.3,6.1-4.9,8.8-7.7c0.6,0.3,0.9,1,1.2,1.5
			c1.6,3.2,3,6.5,3.5,10C161.3,161.1,158.5,163.1,153.7,162.4z"/>
		<path class="st14" d="M142.8,155.2"/>
	</g>
	<g>
		<path class="st10" d="M164,134.2c-0.6,0.7-1.2,1.5-1.7,2.4c-0.9,1-1.8,2.1-2.5,3.2c-1.4,1.5-2.8,3-4.1,4.7
			c-2.7,2.8-5.6,5.4-8.8,7.7c-1.5,1.1-2.8,2.3-4.5,3c-1.1-0.5-2.4-0.5-3.5-0.5c-0.7,0-1.4-0.5-2.1,0c-3.4-2-6.6-4.3-9.8-6.5
			c-5.3-3.8-10.4-7.9-15.4-12.1c-10.3-8.8-20.1-18.1-29.2-28.1c-8-8.7-15.6-17.6-22.7-27c-5.6-7.4-10.9-14.9-15.5-22.9
			c-1-1.7-2.1-3.3-2.6-5.2c0.6-0.9,1.2-1.9,1.9-2.8c1.2-1.7,2.4-3.4,3.9-4.8c0.5,0.9,0.8,1.8,1.2,2.7c2.1,5,4.5,9.8,7.1,14.5
			c3.9,6.8,8.4,13.1,13.2,19.3c4.6,5.9,9.8,11.4,15.4,16.4c4,3.6,8.2,7,12.5,10.2c2.8,2.1,5.7,4.1,8.7,5.9c3.6,2.2,7.3,4.4,11.2,6.2
			c1,0.5,1.9,1.2,3.1,1.4c0.3,0.2,0.7,0.4,1,0.6c0.2,0.1,0.4,0.3,0.7,0.2l0,0c1.6,0.8,3.2,1.4,4.9,2.1c5.1,2,10.4,3.6,15.8,4.8
			c6.3,1.4,12.7,2.2,19.1,2.3c1.3,0,2.7-0.3,4,0.1C165,132.6,164.5,133.4,164,134.2z"/>
		<g>
			<g>
				<path class="st10" d="M62.9,31.4c-0.5,0.6-1.2,1.1-2,1.3c-0.6-1-1.6-1.3-2.4-2c-3-2.4-6.2-4.5-9.4-6.4c-4.9-3-9.8-5.9-15.3-7.8
					c-3.4-1.2-6.8-2-10.4-1.6c-3.5,0.4-5.8,2.3-6.7,5.7c-0.8,3.1-0.3,6.2,0.5,9.2c1.6,6.1,4.3,11.9,7.2,17.5
					c3,5.7,6.3,11.2,9.8,16.5c3.3,5.1,6.8,10.1,10.5,15c3,4,6,8,9,11.9c3.2,4.1,6.6,8.1,10,12.1c4.7,5.5,9.5,10.9,14.5,16.2
					c2.9,3.1,5.9,6.1,8.8,9.1c4.1,4.1,8.2,8,12.5,11.9c4.6,4.2,9.3,8.3,14.1,12.2c3.1,2.5,6.2,4.9,9.4,7.3c2.9,2.3,6,4.3,9.1,6.4
					c4.1,2.8,8.3,5.5,12.5,8c3.9,2.3,7.9,4.3,12.1,6c4.2,1.8,8.5,3.1,13.1,3.1c5.2,0.1,8.7-2.5,9.2-7.4c0.3-2.6-0.1-5.1-0.7-7.6
					c-1.2-4.8-3.2-9.3-5.3-13.7c-2.3-4.7-5.1-9.3-7.9-13.8c-0.9-1.4-1.6-2.9-2.7-4c0.5-0.9,1.1-1.6,1.7-2.4c1.3,1.4,2.3,3,3.4,4.6
					c5.2,7.2,10.1,14.6,14,22.6c1.7,3.5,3.3,7.2,4.5,10.9c1.2,3.9,2.2,7.9,1.8,12.1c-0.3,3.8-1.9,6.8-5.5,8.4
					c-2.8,1.2-5.7,1.2-8.7,0.7c-4.7-0.7-9.1-2.2-13.5-4c-7.1-2.9-13.7-6.8-20.2-10.7c-3.9-2.3-7.6-4.9-11.2-7.5
					c-3.1-2.2-6.1-4.4-9.1-6.7c-0.3-0.2-0.7-0.4-1-0.6c-0.1-0.5-0.5-0.7-0.8-0.9c-3.2-2.4-6.4-5-9.5-7.6c-1.9-1.6-3.8-3.2-5.8-4.8
					c-0.1-0.1-0.2-0.3-0.3-0.4c-2.3-2.1-4.7-4.2-7-6.3c-3.4-3.1-6.8-6.3-10.1-9.6c-6.1-6-11.9-12.1-17.6-18.4
					c-10.7-11.8-20.4-24.3-29.7-37.2c-1.6-2.2-3.1-4.6-4.9-6.7c-2.3-3.5-4.7-6.9-7-10.4c-4.3-6.6-8.5-13.4-12-20.5
					c-2.7-5.5-5-11.2-6.4-17.2c-0.7-3.1-1-6.2-0.3-9.3c0.7-3.6,3.6-6.2,7.3-6.7c4.4-0.6,8.6,0.4,12.7,1.8c6.6,2.2,12.6,5.8,18.5,9.4
					c3.1,1.9,6.1,4,9,6.1C57.3,27.2,60.1,29.3,62.9,31.4z"/>
				<path class="st7" d="M177.4,88.9c-1.4-0.1-2.8-0.1-4.2-0.3c-4.2-0.4-8.3-1.6-12.2-3.1c-4.1-1.5-8-3.4-11.8-5.6
					c-3.8-2.2-7.5-4.6-11.2-7.2c-6.9-4.9-13.2-10.3-19.1-16.2c-4-4-7.6-8.2-11-12.8c-2.1-2.9-4.2-5.9-5.8-9.1
					c-2-3.9-3.9-7.9-3.8-12.4c0-0.9,0.1-1.8,0.4-2.6c5.2-0.4,10.4-0.1,15.6,0.8c0.1,1.5,0.2,3.1,0.7,4.6c1,2.6,2.3,5.1,3.9,7.4
					c4.3,6.4,9.4,12,15.1,17.2c4.4,4,9.1,7.7,14.1,11c4.4,2.8,9,5.5,13.9,7.3c2.9,1.1,5.9,2,9.1,2.1c1,0,2,0.2,2.9-0.5
					c0.1,0.2,0.3,0.5,0.4,0.7c1.8,5.8,2.8,11.8,3.1,17.9C177.5,88.3,177.6,88.6,177.4,88.9z"/>
				<path class="st7" d="M102.4,150.7c1.9,1.6,3.8,3.2,5.8,4.8c3.1,2.6,6.3,5.1,9.5,7.6c0.3,0.2,0.7,0.4,0.8,0.9
					c-9,1.7-18.1,2.1-27.2,0.6c-10.8-1.8-20.6-5.9-29.5-12.2c-10.5-7.4-18.4-17-24.1-28.5c-2.9-6-5-12.2-6.4-18.7
					c-0.1-0.6-0.4-1.2-0.2-1.9c1,1,1.7,2.2,2.6,3.3c4.3,5.3,9.1,10.2,14.2,14.7c5.3,4.7,10.9,8.9,16.9,12.8c3.3,2.2,6.7,4.3,10.3,6
					c3.3,1.6,6.6,3.3,10.1,4.7c3.7,1.6,7.4,3.1,11.2,4.2C98.4,149.6,100.3,150.4,102.4,150.7z"/>
				<path class="st15" d="M102.4,150.7c-2-0.4-4-1.1-5.9-1.7c-3.8-1.2-7.6-2.7-11.2-4.2c-3.4-1.5-6.7-3.1-10.1-4.7
					c-3.6-1.8-7-3.9-10.3-6c-5.9-3.8-11.6-8.1-16.9-12.8c-5.1-4.5-9.9-9.4-14.2-14.7c-0.9-1.1-1.7-2.3-2.6-3.3c0,0,0,0,0,0
					c-0.1-0.1-0.1-0.2-0.2-0.3c-0.8-3.4-1-7-1.1-10.5c-0.1-4,0.3-8,0.9-12c0-0.3,0.1-0.5,0.2-0.8c0.2,0.1,0.4,0.3,0.5,0.5
					c1.6,2.5,3.1,5.1,4.7,7.6c2.1,3.2,4.3,6.3,6.6,9.3c4.2,5.5,8.7,10.6,13.6,15.4c4.2,4.2,8.6,8.1,13.3,11.8c2.7,2.1,5.4,4.1,8.2,6
					c1.4,1,3,1.7,4.4,2.8c0.8,0.6,1.7,1.2,2.7,1.4c3.3,3.3,6.7,6.5,10.1,9.6c2.3,2.1,4.7,4.2,7,6.3
					C102.2,150.4,102.3,150.6,102.4,150.7z"/>
				<path class="st15" d="M174,69.4c-0.9,0.7-1.9,0.5-2.9,0.5c-3.1-0.1-6.1-1-9.1-2.1c-5-1.8-9.5-4.4-13.9-7.3
					c-5-3.2-9.7-6.9-14.1-11c-5.7-5.2-10.9-10.8-15.1-17.2c-1.6-2.3-2.9-4.8-3.9-7.4c-0.5-1.5-0.6-3-0.7-4.6
					c3.8,0.5,7.5,1.4,11.1,2.6c-0.2,0.7-0.2,1.3,0,2c1,3.7,3.3,6.6,5.7,9.6c3.5,4.3,7.4,8.1,11.6,11.7c3.4,3,7.1,5.6,11,8
					c2,1.3,4.1,2.4,6.3,3.3c2.4,1,4.8,1.9,7.3,2.1c0.8,0.1,1.7,0.2,2.5-0.3c0.9,1.2,1.4,2.6,1.9,3.9C172.7,65.3,173.6,67.2,174,69.4
					z"/>
				<path class="st15" d="M165.5,131.8c-1.3-0.4-2.7-0.1-4-0.1c-6.5-0.1-12.8-0.9-19.1-2.3c-5.4-1.2-10.6-2.8-15.8-4.8
					c-1.6-0.6-3.3-1.3-4.9-2.1c0.2-0.1,0.4,0,0.6,0c2.9,0.3,5.2-2,4.3-5.1c-0.6-2.1-2-3.4-3.7-4.5c2.1-0.5,3.8-1.6,5-3.5
					c0.1,0.4,0.4,0.7,0.8,0.9c2.6,1.2,5.2,2.4,7.9,3.4c2.9,1.1,5.8,2.1,8.8,3c4.9,1.5,9.8,2.6,14.9,3.2c3.3,0.4,6.5,0.7,9.8,0.6
					c0.4,0,0.8,0,1.1,0.2c0,0.8-0.5,1.4-0.8,2.1C169,126.1,167.5,129.1,165.5,131.8z"/>
				<path class="st14" d="M169.8,59.4c-0.8,0.5-1.7,0.4-2.5,0.3c-2.6-0.2-5-1.1-7.3-2.1c-2.2-0.9-4.3-2.1-6.3-3.3
					c-3.8-2.4-7.5-5.1-11-8c-4.2-3.6-8.2-7.4-11.6-11.7c-2.3-2.9-4.6-5.9-5.7-9.6c-0.2-0.7-0.2-1.4,0-2c2,0.3,3.8,1.2,5.7,1.9
					c4.2,1.6,8.3,3.6,12.1,5.9c6.7,4.1,12.6,9.1,17.7,15.1c3.4,4,6.5,8.2,8.7,13C169.7,59,169.8,59.2,169.8,59.4z"/>
				<path class="st7" d="M84.9,134.4c-1.1-0.2-1.9-0.8-2.7-1.4c-1.4-1.1-2.9-1.9-4.4-2.8c-2.8-1.9-5.5-3.9-8.2-6
					c-4.7-3.6-9.1-7.6-13.3-11.8c-4.9-4.8-9.5-9.9-13.6-15.4c-2.3-3-4.5-6.1-6.6-9.3c-1.6-2.5-3.2-5-4.7-7.6
					c-0.1-0.2-0.3-0.4-0.5-0.5c0.4-2.6,0.9-5.1,1.8-7.5c1.8,2.1,3.2,4.5,4.9,6.7c9.3,12.9,19.1,25.4,29.7,37.2
					C73,122.3,78.9,128.4,84.9,134.4z"/>
				<path class="st7" d="M30.9,102.8c0.1,0.1,0.1,0.2,0.2,0.3C30.9,103.1,30.9,103,30.9,102.8z"/>
				<path class="st15" d="M159.8,139.8c0.8-1.1,1.6-2.2,2.5-3.2c1.2,1.2,1.9,2.7,2.7,4c2.8,4.5,5.6,9,7.9,13.8
					c2.2,4.4,4.2,8.9,5.3,13.7c0.6,2.5,1,5,0.7,7.6c-0.5,4.9-4,7.5-9.2,7.4c-4.6-0.1-8.9-1.4-13.1-3.1c-4.2-1.7-8.2-3.7-12.1-6
					c-4.3-2.5-8.4-5.2-12.5-8c-3-2.1-6.1-4.2-9.1-6.4c-3.1-2.4-6.3-4.8-9.4-7.3c-4.8-3.9-9.5-8.1-14.1-12.2
					c-4.3-3.8-8.5-7.8-12.5-11.9c-3-3-5.9-6-8.8-9.1c-5-5.2-9.8-10.6-14.5-16.2c-3.4-4-6.8-8-10-12.1c-3.1-3.9-6-7.9-9-11.9
					c-3.6-4.9-7.1-9.9-10.5-15c-3.5-5.4-6.8-10.9-9.8-16.5c-2.9-5.6-5.6-11.3-7.2-17.5c-0.8-3-1.3-6.1-0.5-9.2
					c0.9-3.4,3.2-5.3,6.7-5.7c3.6-0.4,7,0.5,10.4,1.6c5.4,1.9,10.4,4.8,15.3,7.8c3.2,2,6.4,4.1,9.4,6.4c0.8,0.7,1.9,1,2.4,2
					C60.1,33.6,59,34.3,58,35c-2.2-1.5-4.4-3-6.6-4.5c-2.3-1.5-4.8-2.7-7.3-3.7c-2.9-1.3-5.9-2.3-9.1-2.2c-3.1,0.1-5,1.3-5.9,4.2
					c-0.8,2.7-0.3,5.4,0.4,8c1.1,4.6,3,8.9,5.1,13.1c2.6,5.3,5.6,10.4,8.7,15.5c2.5,4.1,5.3,8,8,11.9c1.4,2.1,2.9,4.1,4.4,6
					c4.5,5.9,9.2,11.8,14.1,17.5c5.9,6.9,12.1,13.6,18.5,20c5.2,5.2,10.5,10.4,16.1,15.2c6.9,6,14,11.9,21.6,17.2
					c4.1,2.9,8.3,5.5,12.5,8.2c1.7,1.1,3.5,2,5.3,2.9c2.5,1.3,5,2.6,7.7,3.6c3.6,1.4,7.2,2.5,11.1,2.5c4.2-0.1,6.8-2.8,6.7-6.9
					c-0.2-4.1-1.5-8-3.1-11.7C164.3,147.6,162.1,143.7,159.8,139.8z"/>
				<path class="st14" d="M179.3,167.8c-1.2-5.1-3.4-9.9-5.4-13.9c-2.6-5.2-5.6-10.2-8-13.9c-0.2-0.4-0.4-0.7-0.7-1.1
					c-0.6-1.1-1.3-2.2-2.2-3.1l-0.1-0.2c-0.2,0.3-0.4,0.6-0.6,0.9c-0.9,1-1.8,2.1-2.5,3.2c-0.2,0.3-0.5,0.5-0.7,0.8
					c2,3.4,4.3,7.4,6,11.7c1.5,3.5,2.9,7.4,3,11.4c0.1,1.7-0.4,3.2-1.4,4.2c-1,1.1-2.5,1.6-4.3,1.7l-0.3,0c-3.8,0-7.3-1.2-10.4-2.4
					c-2.3-0.9-4.5-2-6.6-3.1l-1.4-0.7c-1.6-0.8-3.3-1.7-4.9-2.7l-2.5-1.6c-3.3-2.1-6.7-4.3-10-6.6c-6.5-4.6-13.1-9.8-21.5-17.1
					c-4.9-4.2-10-9-16-15.1c-6.3-6.3-12.5-13.1-18.4-20c-4.4-5.2-9-10.9-14.1-17.4c-1.7-2.2-3.1-4.2-4.4-6l-0.6-0.9
					c-2.5-3.6-5-7.2-7.3-11c-3.7-6-6.4-10.8-8.7-15.4c-2-4-3.9-8.3-5-12.9c-0.6-2.6-1.1-5.1-0.4-7.5c0.7-2.4,2.1-3.4,5-3.5
					c0.2,0,0.4,0,0.6,0c2.8,0,5.6,1,8.1,2.1c2,0.9,4.7,2.1,7.2,3.7c1.5,1,3.1,2,4.6,3.1c0.6,0.4,1.2,0.8,1.8,1.2
					c0.3-0.2,0.5-0.5,0.8-0.7c1-0.8,2-1.4,2.9-2.3c0.3-0.1,0.6-0.2,0.9-0.4l0-0.1c-0.5-0.9-1.3-1.4-1.9-1.8
					c-0.3-0.2-0.5-0.3-0.7-0.5c-2.6-2.1-5.6-4.1-9.5-6.5c-5-3.1-9.9-6-15.5-7.9c-2.5-0.9-5.6-1.8-8.9-1.8c-0.6,0-1.3,0-1.9,0.1
					c-3.9,0.4-6.5,2.6-7.5,6.4c-0.9,3.4-0.3,6.8,0.5,9.7c1.7,6.6,4.6,12.6,7.3,17.7c2.8,5.3,6,10.7,9.8,16.6
					c3.2,4.9,6.7,10,10.5,15.1c3.2,4.3,6.1,8.2,9,12c3.4,4.4,7,8.6,10,12.1c5.1,6,9.9,11.3,14.6,16.2c2.8,3,5.8,6,8.9,9.1
					c3.9,3.9,8.1,7.9,12.5,11.9c4.4,4,9.2,8.2,14.2,12.3c2.5,2,5,4,7.5,5.9l1.9,1.5c2.4,1.9,5,3.6,7.5,5.3l1.6,1.1
					c3.8,2.6,7.9,5.2,12.6,8c3.6,2.1,7.6,4.1,12.2,6.1c5.2,2.2,9.3,3.1,13.4,3.2l0.3,0c5.7,0,9.4-3.1,9.9-8.3
					C180.3,172.7,179.8,169.9,179.3,167.8z"/>
				<path class="st10" d="M177.4,88.9c0.4,4.1,0.1,8.2-0.5,12.2c-0.9,6.4-2.5,12.6-5,18.5c-0.2,0.5-0.4,0.9-0.7,1.4
					c-0.3-0.2-0.7-0.2-1.1-0.2c-3.3,0.1-6.6-0.2-9.8-0.6c-5.1-0.6-10-1.7-14.9-3.2c-3-0.9-5.9-1.9-8.8-3c-2.7-1-5.3-2.3-7.9-3.4
					c-0.4-0.2-0.7-0.4-0.8-0.9c0.1-0.3,0.3-0.7,0.4-1c1.1-2.9,0.2-6.1-2.1-8.1c-2.4-1.9-5.6-2.2-8.3-0.6c-1.3,0.7-2.1,1.9-2.8,3.1
					c-2.7-1.5-5.3-3.1-7.7-4.9c-0.6-0.4-1-0.4-1.5,0.1c0.6-0.8,0.6-1.6-0.3-2.3c-3-2.5-6.1-5-9.1-7.5c-0.6-0.5-1.3-0.8-2.1-0.5
					c-0.8-0.7-1.7-1.3-2.5-2c-2.1-1.9-4.2-3.8-6.3-5.7c0.5-0.4,1-0.7,1.5-1.1c2.5-2.2,3.1-5.9,1.4-8.8C87,67.4,83.4,66,80.2,67
					c-1.8,0.6-3.1,1.8-4.1,3.3c-0.3-0.2-0.7-0.4-1-0.8c-1.4-1.7-2.9-3.4-4.2-5.1c-3.3-4.2-6.3-8.6-9-13.2c-2.2-3.8-4.1-7.7-5.7-11.7
					c-0.3-0.7-0.4-1.4-0.9-1.9c0.9-0.8,1.8-1.6,2.7-2.5c1-0.8,2-1.4,2.9-2.3c0.8-0.2,1.4-0.7,2-1.3c3.5-2.2,7-4.3,10.8-6
					c8-3.5,16.3-5.5,25-5.9c-0.4,0.8-0.4,1.7-0.4,2.6c-0.1,4.5,1.8,8.5,3.8,12.4c1.7,3.2,3.7,6.2,5.8,9.1c3.3,4.5,7,8.8,11,12.8
					c5.9,5.9,12.2,11.4,19.1,16.2c3.6,2.6,7.4,5,11.2,7.2c3.8,2.2,7.7,4.1,11.8,5.6c4,1.5,8,2.7,12.2,3.1
					C174.6,88.7,176,88.8,177.4,88.9z"/>
				<path class="st15" d="M53.7,38.7c0.7-0.2,1-1,1.7-1.2c0.5,0.5,0.7,1.3,0.9,1.9c1.5,4.1,3.4,8,5.7,11.7c2.7,4.6,5.7,9,9,13.2
					c1.4,1.7,2.8,3.4,4.2,5.1c0.3,0.3,0.6,0.5,1,0.8c0,0-0.1,0-0.1,0c-0.1,0.2-0.3,0.4-0.2,0.7c-0.3,0.8-0.5,1.6-0.6,2.5
					c-0.4,0.1-0.5-0.3-0.7-0.5c-1-0.9-1.9-1.7-3.2-2c-1.8-0.4-3.5-0.3-4.6,1.2c-1.1,1.4-1.1,3.1-0.3,4.7c0.8,1.6,2,2.7,3.6,3.5
					c2.2,1,5,0.9,6.2-1.9c0.1-0.2,0.3-0.4,0.4-0.6c2.5,3,5.4,3.7,9.2,2.2c2.1,1.9,4.2,3.8,6.3,5.7c0.8,0.7,1.6,1.4,2.5,2
					c-1.4,1.6-2.6,3.3-3.1,5.4c0,0.3-0.1,0.7-0.1,1c-0.5,3.1,0.9,5.5,3.5,7.1c2.1,1.3,4.5,1.4,6.8,0.2c1.9-0.7,3.2-2,4.4-3.4
					c0.5-0.5,0.9-0.5,1.5-0.1c2.5,1.8,5.1,3.4,7.7,4.9c0,0.1,0,0.2,0,0.3c-1.3,4-0.2,6.9,3.5,9.1c0.1,0.4-0.2,0.4-0.4,0.5
					c-1.7,1-2.3,2.7-1.8,4.6c0.5,2,1.8,3.5,3.6,4.4c-1.2-0.1-2.1-0.9-3.1-1.4c-3.9-1.7-7.6-3.9-11.2-6.2c-3-1.8-5.9-3.8-8.7-5.9
					c-4.3-3.2-8.5-6.6-12.5-10.2C78.9,93.2,73.7,87.8,69,81.8c-4.8-6.1-9.4-12.5-13.2-19.3c-2.7-4.7-5.1-9.5-7.1-14.5
					c-0.4-0.9-0.7-1.9-1.2-2.7c0.2-0.3,0.4-0.6,0.6-0.8C49.9,42.6,51.8,40.6,53.7,38.7z"/>
				<g>
					<path class="st3" d="M118.6,112.4c-3.7-2.2-4.8-5.1-3.5-9.1c0-0.1,0-0.2,0-0.3c0.7-1.2,1.6-2.3,2.8-3.1
						c2.7-1.6,5.9-1.4,8.3,0.6c2.4,1.9,3.2,5.1,2.1,8.1c-0.1,0.4-0.3,0.7-0.4,1c-1.2,1.8-2.9,2.9-5,3.5
						C121.6,112.4,120.1,112.5,118.6,112.4z M122.7,100.6c-1.4-0.8-3-0.3-3.8,1c-0.8,1.4-0.3,3.1,1,3.9c1.4,0.8,3.1,0.3,3.8-1.1
						C124.5,103,124.1,101.4,122.7,100.6z"/>
				</g>
				<g>
					<path class="st3" d="M85.7,80.2c-3.8,1.4-6.6,0.7-9.2-2.2c-0.1-1.6-0.5-3-1.3-4.4c0.1-0.9,0.3-1.7,0.6-2.5
						c0.2-0.2,0.3-0.4,0.2-0.7c0,0,0.1,0,0.1,0c1-1.5,2.3-2.7,4.1-3.3c3.2-1,6.7,0.4,8.4,3.2c1.7,3,1.1,6.6-1.4,8.8
						C86.7,79.5,86.2,79.8,85.7,80.2z M80.7,73.4c1.3,0.7,3,0.3,3.8-1c0.8-1.3,0.3-3.1-1.1-3.9c-1.3-0.7-3-0.3-3.8,1
						C78.9,70.8,79.4,72.6,80.7,73.4z"/>
				</g>
				<g>
					<path class="st3" d="M91.4,93.2c0.5-2.1,1.7-3.8,3.1-5.4c0.8-0.3,1.5,0,2.1,0.5c3,2.5,6.1,5,9.1,7.5c0.9,0.7,0.8,1.4,0.3,2.3
						c-1.3,1.4-2.6,2.8-4.4,3.4c-0.6-3.3-2.4-5.8-5.4-7.4C94.6,93.4,93,93.4,91.4,93.2z"/>
				</g>
				<path class="st7" d="M118.6,112.4c1.5,0,3-0.1,4.3,0.6c1.7,1.1,3.1,2.4,3.7,4.5c0.8,3.1-1.5,5.4-4.3,5.1c-0.2,0-0.4-0.1-0.6,0
					c0,0,0,0,0,0c-0.2-0.1-0.4-0.3-0.7-0.2c-0.3-0.2-0.7-0.4-1-0.6c-1.8-1-3.1-2.4-3.6-4.4c-0.5-1.9,0.2-3.6,1.8-4.6
					C118.4,112.8,118.7,112.8,118.6,112.4z"/>
				<path class="st15" d="M142.5,155.2c-0.6,0.7-1.5,0.9-2.2,1.6c-1.1-0.7-2.3-1.4-3.4-2c0.7-0.5,1.4-0.1,2.1,0
					C140.1,154.7,141.3,154.7,142.5,155.2z"/>
				<path class="st15" d="M121,122.5c0.3-0.1,0.5,0,0.7,0.2C121.5,122.8,121.3,122.6,121,122.5z"/>
				<path class="st7" d="M75.2,73.5c0.8,1.4,1.2,2.8,1.3,4.4c-0.1,0.2-0.3,0.4-0.4,0.6c-1.2,2.8-4.1,2.8-6.2,1.9
					c-1.6-0.7-2.8-1.8-3.6-3.5c-0.8-1.7-0.8-3.3,0.3-4.7c1.2-1.5,2.9-1.6,4.6-1.2c1.3,0.3,2.3,1.1,3.2,2
					C74.7,73.2,74.8,73.6,75.2,73.5z"/>
				<path class="st7" d="M91.4,93.2c1.6,0.2,3.2,0.2,4.7,1c3,1.6,4.8,4.1,5.4,7.4c-2.3,1.2-4.7,1.1-6.8-0.2c-2.6-1.6-3.9-4-3.5-7.1
					C91.3,93.9,91.3,93.6,91.4,93.2z"/>
				<path class="st10" d="M76.1,70.3c0.1,0.3-0.1,0.5-0.2,0.7C75.7,70.7,75.9,70.6,76.1,70.3z"/>
				<path class="st16" d="M122.7,100.6c1.3,0.8,1.8,2.4,1.1,3.8c-0.8,1.4-2.5,1.9-3.8,1.1c-1.3-0.8-1.8-2.5-1-3.9
					C119.7,100.3,121.4,99.9,122.7,100.6z"/>
				<path class="st16" d="M80.7,73.4c-1.4-0.8-1.8-2.5-1.1-3.9c0.8-1.3,2.5-1.8,3.8-1c1.3,0.8,1.9,2.6,1.1,3.9
					C83.8,73.6,82,74.1,80.7,73.4z"/>
			</g>
		</g>
	</g>
</g>
<g id="neptune">
	<circle id="silhouette_00000044883222519598698650000008971953887063009973_" class="st17" cx="-128" cy="100" r="100"/>
	<g>
		<path class="st18" d="M-32.6,100c0,14.7-3.3,28.7-9.3,41.1c-1.9,3.9-4.1,7.7-6.4,11.4c-6.6,10-15,18.6-24.7,25.5
			c-0.4,0.3-0.8,0.6-1.2,0.8c-0.8,0.6-1.7,1.2-2.6,1.7c-0.5,0.3-1,0.6-1.5,0.9c-0.9,0.6-1.9,1.1-2.9,1.7
			c-13.8,7.8-29.8,12.3-46.8,12.3c-1.9,0-3.8-0.1-5.6-0.2c0,0,0,0,0,0c-6.1-0.4-12.1-1.3-17.9-2.8c-16.6-4.2-31.4-12.8-43.3-24.4
			c-0.1-0.1-0.1-0.1-0.2-0.2c-3-2.9-5.8-6.1-8.4-9.4c-0.1-0.2-0.2-0.3-0.3-0.5c-10.2-13.2-17-29.2-19-46.7
			c-0.4-3.7-0.7-7.4-0.7-11.1V100c0-14.1,3.1-27.5,8.6-39.6c1.3-2.9,2.7-5.6,4.3-8.3C-194,23.7-163.2,4.6-128,4.6
			C-75.3,4.6-32.6,47.3-32.6,100z"/>
		<g>
			<path class="st19" d="M-45.9,52.4c-24.2,18.7-57.4,25.5-87.8,24c-27.6-1.6-54.5-9.5-81.1-16c1.3-2.9,2.7-5.6,4.3-8.3
				c64.9,15.2,96.2,10.9,159.5-7.9C-49.1,46.8-47.3,49.5-45.9,52.4z"/>
			<path class="st19" d="M-41.9,141.1c-1.9,3.9-4.1,7.7-6.4,11.4c-18.7,0.5-34.6,11.8-52.9,14.1c-6.8,1-13.6,1.3-20.5,0.9
				c-24.3-2.4-49.4-7.6-73.2,0.4c-3-2.9-5.8-6.1-8.4-9.4c-0.1-0.2-0.2-0.3-0.3-0.5c49.4-21.3,80.3,12.7,132.6-10.4
				C-61.9,144.3-51.7,140-41.9,141.1z"/>
			<path class="st19" d="M-183.3,116.1c-12.8-3.7-26-7.6-39.4-4.8c-0.4-3.7-0.7-7.4-0.7-11.1c0.2,0,0.3-0.1,0.5-0.1
				c11.9-1.9,23.5,1.2,34.7,5C-187.3,109.2-185.9,112.9-183.3,116.1z"/>
			<path class="st19" d="M-72,92.8c11.4-7.2,21.3-17.2,34.3-21.5c1,3.1,2,6.3,2.4,9.6c-11.2,3.5-20,11.8-29.8,17.7
				C-63,92.7-67.5,92.4-72,92.8z"/>
			<path class="st19" d="M-147.3,52.6c-10.9,0.2-34-5-36.6-17.7c0.7-0.5,1.1,0.3,1.5,0.7c9.3,7.3,21.8,8.9,33.2,8.3
				c8.6-0.7,18.6-2.6,24.2-9.8c4.1-5.9-3.4-10.3-8.6-10.3c-5.8-0.4-13.3,0.3-16.8,5.6c-0.2,0.4-0.3,0.9-0.9,0.8
				c-0.5-0.1-0.7-0.7-0.8-1.1c-0.3-6.3,6.7-9.5,11.8-10.8C-96.2,10.2-103,53.7-147.3,52.6z"/>
			<path class="st19" d="M-152.8,37.6c-8.7,3-25.4-4.1-15.9-14.5c5.3-5.7,18.2-10,25.7-9.2c-5.4,2.1-10.7,4.3-14.9,8.3
				C-165,28.9-161.4,35.6-152.8,37.6z"/>
		</g>
		<path class="st19" d="M-72.5,177.5C-72.5,177.5-72.4,177.5-72.5,177.5c-11.5-3.9-24.5-2.3-36.1,0.8c-14.4,4.4-27.8,12.3-42.7,14.2
			c5.7,1.4,11.6,2.3,17.6,2.7c0,0,0,0,0,0c0.3,0,0.6,0,0.9,0c1.4-0.3,2.8-0.8,4.1-1.5c14.2-5.6,29.3-11.3,44.9-9.3h0
			c0,0,0.1,0,0.1-0.1L-72.5,177.5z"/>
		<g>
			<g>
				<g>
					<path class="st3" d="M-182,72.6c14.8-0.7,29.2,1.6,43.4,5.4c5.6,1.5,11.4,1.5,17,0c14.3-3.9,28.8-6.2,43.6-5.7
						c8.6,0.3,17.2,1.3,25.8,2c1.8,0.1,3.6,0.1,5.2,0.6c0.9,0.3,1.9,1.5,2,2.3c0.2,3.4,0.3,6.8-0.1,10.1c-0.3,2.4-0.8,5-3.7,6
						c-0.5,0.2-0.8,1.3-1,2c-1.2,4.7-2.3,9.4-3.7,14.1c-2.8,9.3-9.3,14.7-18.8,16.7c-8.9,1.9-17.8,2.1-26.7,0.3
						c-9-1.8-15.1-7.2-18.8-15.3c-2.3-4.9-4-10.1-5.8-15.2c-1.5-4.3-3.9-5.7-8.3-4.6c-2.5,0.6-3.1,2.7-3.8,4.7
						c-1.8,4.9-3.5,9.9-5.6,14.6c-4.6,10.4-12.9,15.6-24.1,16.6c-8.1,0.8-16,0.4-23.9-1.4c-10.3-2.4-16.7-8.6-18.9-18.9
						c-0.9-4.2-1.8-8.3-2.7-12.5c-0.1-0.5-0.3-1.1-0.6-1.3c-3.3-1.5-3.4-4.6-3.8-7.5c-0.3-2.8-0.3-5.6-0.4-8.4c-0.1-1.9,1-2.8,2.8-3
						c5.5-0.6,11-1.4,16.5-1.7C-191.5,72.4-186.7,72.6-182,72.6z"/>
				</g>
			</g>
		</g>
		<g>
			<g>
				<path class="st3" d="M-144.2,153.6c-6-2.8-9.8-8.2-10.7-15.6c-0.4-3,1.1-5.1,3.5-5.4c2.5-0.3,4.3,1.2,4.9,4.1
					c1.8,8.4,9,12,16.9,8.4c2.5-1.1,5.1-0.5,6.2,1.5c1.1,1.9,0.4,4.2-2.1,5.7C-131.1,155.7-137.1,156.5-144.2,153.6z"/>
			</g>
		</g>
		<g>
			<path class="st3" d="M-137.9,84.7c0,0-3.7,13.6-7.5,23.1c-0.6,1.6-1.3,3.1-2.1,4.4c-1.4,2.5-3.2,4.5-6.2,6c-2,1-4.5,1.9-7.8,2.4
				c-2.3,0.4-4.9,0.7-8,0.8c-2.1,0.1-4.4,0.1-6.9,0.1c-1.9,0-3.8-0.1-6-0.2c-2-0.1-3.9-0.4-5.6-0.8c-22.8-5.8-20.5-40.6-20.5-40.6
				s1-1,6-1.8c2.5-0.4,6-0.8,10.9-0.9c2.1-0.1,4.3-0.1,6.9-0.1c1.7,0,3.6,0,5.5,0.1c0.9,0,1.9,0,2.8,0.1c3.1,0.1,6.1,0.3,8.9,0.6
				c3.1,0.3,6,0.7,8.6,1.1C-145.4,81.4-137.9,84.7-137.9,84.7z"/>
		</g>
		<path class="st20" d="M-176.3,121.6c-1.9,0-3.8-0.1-6-0.2c-2-0.1-3.9-0.4-5.6-0.8l-14.5-42.3c2.5-0.4,6-0.8,10.9-0.9L-176.3,121.6
			z"/>
		<path class="st20" d="M-161.4,120.7c-2.3,0.4-4.9,0.7-8,0.8l-15.2-44.2c1.7,0,3.6,0,5.5,0.1c0.9,0,1.9,0,2.8,0.1L-161.4,120.7z"/>
		<path class="st20" d="M-80.6,121.6c-1.9,0-3.8-0.1-6-0.2c-2-0.1-3.9-0.4-5.6-0.8l-14.5-42.3c2.5-0.4,6-0.8,10.9-0.9L-80.6,121.6z"
			/>
		<path class="st20" d="M-65.7,120.7c-2.3,0.4-4.9,0.7-8,0.8l-15.2-44.2c1.7,0,3.6,0,5.5,0.1c0.9,0,1.9,0,2.8,0.1L-65.7,120.7z"/>
	</g>
</g>
<g id="uranus">
	<circle id="silhouette_00000019657942165686431040000001550822613683278756_" class="st21" cx="-360.5" cy="100" r="100"/>
	<g>
		<circle class="st22" cx="-360.5" cy="100" r="95.4"/>
		<g>
			<g>
				<path class="st3" d="M-407.9,125.6C-407.9,125.6-407.9,125.6-407.9,125.6c-6.6,0-12.4-2.9-15.4-7.9c-0.9-1.4-0.4-3.3,1-4.1
					c1.4-0.9,3.3-0.4,4.1,1c1.9,3.1,5.8,5,10.2,5c4.4,0,8.4-1.9,10.2-5c0.9-1.4,2.7-1.9,4.1-1c1.4,0.9,1.9,2.7,1,4.1
					C-395.5,122.7-401.2,125.6-407.9,125.6z"/>
			</g>
		</g>
		<g>
			<g>
				<path class="st3" d="M-338.7,132C-338.7,132-338.7,132-338.7,132c-6.6,0-12.4-2.9-15.4-7.9c-0.9-1.4-0.4-3.3,1-4.1
					c1.4-0.9,3.3-0.4,4.1,1c1.9,3.1,5.8,5,10.2,5c4.4,0,8.4-1.9,10.2-5c0.9-1.4,2.7-1.9,4.1-1c1.4,0.9,1.9,2.7,1,4.1
					C-326.3,129.1-332.1,132-338.7,132z"/>
			</g>
		</g>
		<path class="st23" d="M-280.8,152.4c-109.4,3.5-155.8-22.4-174.1-39c4.1,29.3,21.6,54.4,46,68.8c26.4,5.3,55.9,7,81.5,7.3
			C-308.2,182.3-291.9,169.2-280.8,152.4z"/>
		<path class="st24" d="M-404.6,15.4c22.5,10.5,71.1,29.1,111.7,17.3c-17.3-17.3-41.2-28.1-67.6-28.1
			C-376.4,4.6-391.4,8.5-404.6,15.4z"/>
		<path class="st21" d="M-288.7,162.7c-87.8,4.1-137.4-15.3-161.1-29.1c3.5,9.2,8.3,17.8,14.3,25.4c23.3,10,62.7,21.5,122.9,23.5
			C-303.5,177.2-295.5,170.5-288.7,162.7z"/>
		<path class="st24" d="M-267.1,80.5c-1.9-9.2-5.2-18-9.5-26c-67.3,8.2-115.4-12.9-142.1-30c-7.4,5.7-13.9,12.5-19.3,20.1
			C-380.9,73.4-309.9,79.6-267.1,80.5z"/>
		<g>
			<ellipse class="st3" cx="-374.5" cy="145.2" rx="4.6" ry="5.9"/>
		</g>
		<ellipse class="st21" cx="-374.5" cy="146.5" rx="3" ry="3.9"/>
		<g>
			<g>
				<path class="st3" d="M-349.6,82.9l-4.5,5c0.6,0.1,5.3-0.3,5.7,0.3c0.7,0.7,0.1,1.8-0.9,1.6c0,0-6.7,0-6.7,0
					c-4.3-0.9,3.4-5.9,4.1-7.8c-1.1-0.3-6.5,0.9-4.9-1.5C-355.2,80.3-345.5,79.2-349.6,82.9z"/>
			</g>
		</g>
		<g>
			<g>
				<path class="st3" d="M-325.4,69.3l-7,7.9c1,0.2,8.2-0.4,8.9,0.4c1.1,1,0.2,2.7-1.4,2.6c0,0-10.4,0-10.4,0
					c-6.7-1.4,5.4-9.3,6.4-12.1c-1.6-0.4-10.1,1.5-7.6-2.4C-334.2,65.2-319.1,63.4-325.4,69.3z"/>
			</g>
		</g>
		<g>
			<g>
				<path class="st3" d="M-299,50.3l-8.9,9.9c1.3,0.2,10.4-0.5,11.2,0.5c1.3,1.3,0.2,3.5-1.7,3.2c0,0-13.1,0-13.1,0
					c-8.5-1.7,6.8-11.7,8.1-15.3c-2.1-0.5-12.8,1.8-9.6-3C-310.2,45.1-291.1,42.8-299,50.3z"/>
			</g>
		</g>
		<ellipse class="st0" cx="-334.6" cy="145.9" rx="13.5" ry="5.5"/>
		
			<ellipse transform="matrix(0.1626 -0.9867 0.9867 0.1626 -482.2801 -294.7564)" class="st0" cx="-414.8" cy="136.7" rx="5.5" ry="13.5"/>
	</g>
</g>
<g id="earth">
	<circle id="silhouette_00000041296516116017988670000013559545380727220869_" class="st25" cx="-588" cy="100" r="100"/>
	<g>
		<g>
			<g>
				<path class="st26" d="M-492.6,100c0,52.7-42.7,95.4-95.4,95.4s-95.4-42.7-95.4-95.4c0-10.6,1.7-20.7,4.9-30.2
					c6.5-19.6,19.3-36.4,35.9-48C-627.1,11-608.3,4.6-588,4.6c16.8,0,32.6,4.3,46.3,12h0c25.3,14,43.5,39.3,48,69v0
					C-493,90.3-492.6,95.1-492.6,100z"/>
				<path class="st27" d="M-606.3,149.1c-2.9,4.1-7.5,7.7-7,13.2c0.8,7,10.6,17-1.8,19.3c-14.1,0.8-21.8-12.6-23.5-24.9
					c-5-15.9-27.1-11-15.5-36.3c2.3-14.9-20-11.3-19-28.9c1.2-9.2-2.5-14.3-5.4-21.8c6.5-19.6,19.3-36.4,35.9-48
					c3.3,0.8,5.8,3.7,9.7,2.1c9.9-6.3,27.3-6.5,29.2,8c1.1,11.3-17.1,12.1-15.5,23.9c0.9,14-21.6,9.9-22.5,23.5
					c-0.2,2.2-1.5,3.7-3.3,3.9c-1,0.1-1.9-0.2-2.7-0.7c-5.1-3.9-12.1-0.8-13.1,6.3c-1.7,14.4,13.9,4.4,12.3,15.1
					c-1,3.1-0.4,6.8,2.8,8.1c2.9,1.3,5.6-1.1,8.5-1c-4.3,10.9,11.2,16.4,18.7,10.4c1.4,1.7,3.5,2.4,5.4,3.3
					C-603.2,128.4-599.9,140.9-606.3,149.1z"/>
				<path class="st27" d="M-501.5,93.1c6.1,3.8,7.9,11.4,4.1,17.5c-9.3,9.5-5.4,19.8-10.7,30.7c-5.1,9.2-14.3,22.1-25.7,22.7
					c-11.8-3.3,1.4-16.6-4.8-23.8c-4-5.2-6.8-11.7-4.3-18.2c5.1-2.4,7.2-8.6,3.9-13.4c6.9-11.8,1.6-18.8-9.8-23.5
					c-5.9-3.6-6.9-12.5-1-16.6c6.7-5.1,14.4-2.5,20.9,1.4c4.7,3.1,12.1-0.8,9.9-6.8c-6-10.5-11.4,6.9-18.7-8.9
					c-3.7-4.8-9-3.7-12,0.3c-2.3,4.7-4.7,10.7-11.3,9.4c-8.4-0.6-12-14-1.5-14.3c7.4-5-6.7-10.7,14.4-19.5c3.3-2.4-0.2-6.3,1.4-9.5
					c1-2.4,2.8-3.6,4.9-4h0c25.3,14,43.5,39.3,48,69v0c-2.3,1.4-4.8,0.4-7.2-0.1C-506,85.2-504.8,91.4-501.5,93.1z"/>
				<path class="st27" d="M-556.8,24.3c0,2.7-1.8,4.5-4.8,4.6c-3.2-0.2-5.5,3.6-8.6,1.7c-3.4-2.2-2.3-7.6,0-10.3
					C-566.3,15.9-556.7,17.5-556.8,24.3z"/>
				<g>
					<g>
						<path class="st3" d="M-624.2,84.4c0-5.9,4.8-10.6,10.7-10.5c5.8,0.1,10.5,4.9,10.4,10.7c-0.1,5.6-4.9,10.3-10.6,10.3
							C-619.5,94.9-624.2,90.1-624.2,84.4z M-620.5,80.9c0,1.9,1.6,3.5,3.4,3.5c1.9,0,3.5-1.6,3.5-3.5c0-1.8-1.6-3.4-3.5-3.4
							C-619,77.5-620.5,79-620.5,80.9z"/>
					</g>
					<path class="st28" d="M-620.5,80.9c0-1.9,1.5-3.4,3.4-3.4c1.9,0,3.4,1.6,3.5,3.4c0,1.9-1.6,3.6-3.5,3.5
						C-619,84.3-620.5,82.7-620.5,80.9z"/>
				</g>
				<g>
					<g>
						<path class="st3" d="M-552.5,92.8c-1.1,0-2.2-0.6-2.7-1.7c-1.1-2.3-3.3-3.7-5.9-3.7c-2.6,0-4.8,1.4-5.9,3.7
							c-0.7,1.5-2.5,2.1-4,1.4c-1.5-0.7-2.1-2.5-1.4-4c2.1-4.3,6.4-7,11.3-7c4.8,0,9.2,2.7,11.3,7c0.7,1.5,0.1,3.3-1.4,4
							C-551.7,92.7-552.1,92.8-552.5,92.8z"/>
					</g>
				</g>
				<g>
					<path class="st3" d="M-575.7,106.8c0,3.8-0.5,7.2-2.5,10.1c-2.9,4.1-7,5.6-11.8,4.9c-4.7-0.7-7.8-3.5-9.3-8
						c-1.2-3.4-1.1-7-0.7-10.5c0.1-1.4,1.5-2.3,2.9-2c6.2,1.2,12.3,1.2,18.4,0c1.5-0.3,2.8,0.8,2.9,2.2
						C-575.8,104.7-575.7,105.9-575.7,106.8z M-587.4,108.2c-3.8,0-6.2,1.4-7.3,3.8c-0.4,0.9-0.4,1.7,0.2,2.5
						c2.8,4.4,10.5,4.3,13.2-0.2c0.5-0.8,0.5-1.5,0.1-2.3C-582.7,109.3-585.1,108.3-587.4,108.2z"/>
				</g>
				<path class="st12" d="M-587.4,108.2c2.3,0.1,4.7,1.1,6.2,3.8c0.4,0.8,0.4,1.5-0.1,2.3c-2.7,4.5-10.4,4.6-13.2,0.2
					c-0.5-0.8-0.6-1.6-0.2-2.5C-593.6,109.6-591.2,108.2-587.4,108.2z"/>
			</g>
			<path class="st29" d="M-572.7,179.3c-9.2-6-25.2-3.2-22.6-0.4c2.6,2.8,2.8,5.6-2.8,10.8c-2.9,2.7-9.6,2.8-15.3,2.3
				c7.1,1.9,14.5,3.1,22.2,3.3c1,0,2,0.1,3.1,0.1h0c1,0,2.1,0,3.1-0.1c17.1-0.5,33.1-5.6,46.8-14c-0.8,0.3-1.6,0.7-2.3,1
				C-552.9,187.7-563.5,185.4-572.7,179.3z"/>
			<path class="st29" d="M-559.8,177.9c0,0,5.9,2.6,12.4,0c6.5-2.6,0.8-7-4.6-7.3c-5.3-0.3-8.1,4-12.2,1.9S-563.7,177.7-559.8,177.9
				z"/>
			<path class="st29" d="M-555,10.5c-0.2-0.1-0.4-0.2-0.6-0.3c-10.1-3.7-21-5.7-32.4-5.7c-11.1,0-21.7,1.9-31.6,5.4
				c-0.1,0.1-0.3,0.1-0.4,0.2c0.1,0.2,1.7,5.7,12.2,1.6c10.7-4.1,17,0.8,16,6.1c-1,5.2,9.1-1.2,14.1-4.9
				C-573.5,9.8-559.5,11.9-555,10.5z"/>
		</g>
		<ellipse class="st12" cx="-616.2" cy="109.8" rx="6.3" ry="2.7"/>
		<ellipse class="st12" cx="-561.1" cy="109.8" rx="6.3" ry="2.7"/>
	</g>
</g>
<g id="venus">
	<circle id="silhouette_00000121259761701455554030000002324505878406042540_" class="st1" cx="575.5" cy="-168.1" r="100"/>
	<g>
		<path id="a" class="st30" d="M670.5-168.1c0,1.6,0,3.1-0.1,4.7c-0.4,7.6-1.6,14.9-3.6,21.8c-0.6,2.2-1.3,4.4-2.1,6.5
			c-0.9,2.5-1.9,4.9-3.1,7.3c-2.1,4.6-4.6,8.9-7.4,13c-17.1,25.1-45.9,41.7-78.6,41.7c-25.9,0-49.3-10.3-66.5-27.1
			c-1.2-1.1-2.3-2.3-3.4-3.5c-4.3-4.7-8.2-9.8-11.5-15.2c-6-9.8-10.2-20.8-12.2-32.6c-0.9-5.4-1.4-10.9-1.4-16.5
			c0-10.1,1.6-19.7,4.5-28.8c2-6.3,4.6-12.2,7.8-17.8c1.6-2.8,3.3-5.5,5.1-8.1c2.5-3.5,5.2-6.9,8.1-10c5.6-6,12-11.3,18.9-15.7
			c14.6-9.2,32-14.6,50.6-14.6c29,0,55,13,72.4,33.5c8.9,10.4,15.5,22.8,19.2,36.3c0.8,3,1.5,6,2,9
			C670-178.9,670.5-173.6,670.5-168.1z"/>
		<path class="st31" d="M666.7-141.6c-0.6,2.2-1.3,4.4-2.1,6.5c-0.9,2.5-1.9,4.9-3.1,7.3c-5.8,1.2-12.2,2.6-17.9,4.9
			c-19.9,7.8-32.3,17.1-49.9,18.8c-17.6,1.7-39.4-7.8-51.1-6.4c-9.2,1.1-27.5,5.1-37.1,6.8c-4.3-4.7-8.2-9.8-11.5-15.2
			c-6-9.8-10.2-20.8-12.2-32.6c0,0,43.3-9.1,66.9,9.9s38.7,15,53.3,7.6C614.2-140.1,647.4-145,666.7-141.6z"/>
		<path class="st1" d="M664.6-135.1c-2.7,7.2-6.2,14.1-10.5,20.3c-5.9-0.1-11.8,0.9-16.8,3.8c-17.9,10.4-38.1,22.4-82.3,9.3
			c-17.6-5.2-33.4-3-46,1.4c-5.7-5.6-10.7-11.9-14.8-18.7c8.3-0.9,18.7-1.6,30.8-1.5c33.2,0.3,42.7,21.5,69.7,7.4
			C611.5-121.8,643.2-130.1,664.6-135.1z"/>
		<path class="st31" d="M647.9-229.5c-25,4.5-60.4,3-85.1-10c-14.2-7.5-27.1-9.5-37.8-8.9c14.6-9.2,32-14.6,50.6-14.6
			C604.5-263.1,630.5-250.1,647.9-229.5z"/>
		<path class="st31" d="M670.5-168.1c0,1.6,0,3.1-0.1,4.7c-14.6-0.6-33.8-3.3-50.5-11.7c-15.1-7.6-27.7-14.7-42-16
			c-16.2-1.5-34.2,3.3-54.3,2.1c-17.7-1.1-30.3-4.5-38.7-7.9c2-6.3,4.6-12.2,7.8-17.8c1.6-2.8,3.3-5.5,5.1-8.1
			c0.4-0.5,0.8-1.1,1.2-1.6c0.4-0.6,0.9-1.2,1.3-1.8c0.7-0.9,1.4-1.8,2.1-2.7c0.4-0.5,0.9-1,1.3-1.6c0.1-0.1,0.2-0.2,0.3-0.4
			c0.6-0.7,1.2-1.4,1.8-2c7.6,6.4,20.2,15,51,11.5c52,3.7,63.1,9.3,90.4,23.5c0.4,0.2,0.9,0.5,1.3,0.7c5.9,3,12.2,4.2,18.5,4
			c0.8,3,1.5,6,2,9C670-178.9,670.5-173.6,670.5-168.1z"/>
		<path class="st1" d="M669.1-184.2c-11.6,0.1-27.7-1.5-49.1-7.5c-50-14-60.5-13.4-94-9.5c-11.7,1.4-20.8-12.2-28.2-21.7
			c0.4-0.5,0.8-1.1,1.2-1.6c0.4-0.6,0.9-1.2,1.3-1.8c0.7-0.9,1.4-1.8,2.1-2.7c0.4-0.5,0.9-1,1.3-1.6c0.1-0.1,0.2-0.2,0.3-0.4
			c0.6-0.7,1.2-1.4,1.8-2c7.6,6.4,20.2,15,51,11.5c51.8-6,63,9,90.4,23.5c0.4,0.2,0.9,0.5,1.3,0.7c5.9,3,12.2,4.2,18.5,4
			C667.9-190.3,668.6-187.2,669.1-184.2z"/>
		<g>
			<g>
				<g>
					<g>
						<path class="st3" d="M545.4-162.4c-6.6,0-11.7-4.6-12-10.7c0-0.8-0.4-1-1.1-1.2c-2-0.5-3.5-1.5-4.4-3.4
							c-0.4-0.9-0.5-1.8,0.5-2.3c0.9-0.5,1.6-0.1,2.2,0.7c0.4,0.6,1,1.1,1.8,1.4c1.3,0.5,2.5-0.3,2.5-1.6c0-0.5-0.5-0.5-0.8-0.6
							c-1.7-0.8-2.9-2.1-3.3-3.9c-0.2-0.9-0.2-1.7,0.8-2.2c1-0.4,1.6,0.1,2.1,0.9c0.6,1.1,1.5,1.7,2.6,2.1c0.9,0.3,1.7,0.2,2.5-0.3
							c4.1-2.6,9.2-2.4,13.1,0.4c3.7,2.7,5.5,7.5,4.3,12c-1.1,4.4-4.9,7.8-9.7,8.5C546.1-162.4,545.5-162.4,545.4-162.4z
							 M547.7-172.7c2.2,0,4-1.7,4.1-3.9c0-2.2-1.7-4-3.9-4.1c-2.2-0.1-4.2,1.8-4.2,4C543.7-174.5,545.4-172.7,547.7-172.7z"/>
					</g>
					<path class="st32" d="M547.7-172.7c-2.2,0-4-1.8-4-4c0-2.1,2-4,4.2-4c2.2,0.1,3.9,1.9,3.9,4.1
						C551.7-174.4,549.9-172.7,547.7-172.7z"/>
				</g>
			</g>
			<g>
				<g>
					<g>
						<path class="st3" d="M604.4-162.4c-4.7-0.7-8.5-4-9.7-8.5c-1.1-4.5,0.6-9.3,4.3-12c3.9-2.8,9.1-3,13.1-0.4
							c0.8,0.5,1.6,0.6,2.5,0.3c1.2-0.4,2.1-1.1,2.6-2.1c0.5-0.9,1.1-1.4,2.1-0.9c0.9,0.4,1,1.3,0.8,2.2c-0.5,1.8-1.6,3.1-3.3,3.9
							c-0.3,0.1-0.8,0-0.8,0.6c0.1,1.3,1.2,2.1,2.5,1.6c0.7-0.3,1.3-0.7,1.8-1.4c0.5-0.8,1.2-1.2,2.2-0.7c1,0.6,0.9,1.5,0.5,2.3
							c-0.9,1.9-2.4,2.9-4.4,3.4c-0.7,0.2-1,0.3-1.1,1.2c-0.3,6.1-5.3,10.8-12,10.7C605.5-162.4,604.9-162.4,604.4-162.4z
							 M607.3-176.7c0-2.1-2-4-4.2-4c-2.2,0.1-3.9,1.9-3.9,4.1c0,2.2,1.8,3.9,4.1,3.9C605.6-172.7,607.3-174.5,607.3-176.7z"/>
					</g>
					<path class="st32" d="M603.3-172.7c2.2,0,4-1.8,4-4c0-2.1-2-4-4.2-4c-2.2,0.1-3.9,1.9-3.9,4.1
						C599.3-174.4,601.1-172.7,603.3-172.7z"/>
				</g>
			</g>
		</g>
		<g>
			<ellipse class="st12" cx="525.5" cy="-144" rx="11.2" ry="4.4"/>
		</g>
		<g>
			<ellipse class="st12" cx="626.2" cy="-144" rx="11.2" ry="4.4"/>
		</g>
		<path class="st1" d="M575.5-73.1c19.1,0,37-5.7,51.9-15.4c-15.3-2.2-34.6-2.2-58.1,1c-22.3,3.1-40.8-1.5-54.7-7.7
			C531.1-81.4,552.3-73.1,575.5-73.1z"/>
		<g>
			<g>
				<path class="st3" d="M575.5-140.3c-5.9,0-11.2-3.9-12.8-9.6c-0.4-1.3,0.4-2.7,1.7-3.1c1.3-0.4,2.7,0.4,3.1,1.7c1,3.5,4.3,6,8,6
					s7-2.5,8-6c0.4-1.3,1.8-2.1,3.1-1.7c1.3,0.4,2.1,1.8,1.7,3.1C586.7-144.3,581.4-140.3,575.5-140.3z"/>
			</g>
		</g>
	</g>
</g>
<g id="mars">
	<circle id="silhouette_00000145035168365637093990000011652294304819983772_" class="st33" cx="340" cy="-168.1" r="100"/>
	<g>
		<circle class="st34" cx="340" cy="-168.1" r="95"/>
		<g>
			<path class="st33" d="M386.9-233c-2.9,5.6,0,13.2,13,13.4c13,0.2,11.7,10.7,27.1,13.3c-4.6-10.5-11.1-20-19-28.1
				c-0.9-0.3-1.7-0.5-2.4-0.9c-3.1-1.4-6.5-2.1-9.9-1.7C392-236.7,388.3-235.7,386.9-233z"/>
			<path class="st33" d="M363.4-83.9c-23-3.2-21.9,0.8-18.1-12.7c3.7-13.5-13.4-16.4-28.9-14.4c-15.5,2-24.1-0.9-14.6-8.7
				c9.5-7.8,11.1-15.1-6.8-19.2c-11.1-2.6-21.6,2.7-28.1,7.1c-3.9,2.6-6.9,6.3-9,10.5v0c7.2,12.9,17.4,24,29.6,32.3
				c15.1,10.1,33.2,15.9,52.7,15.9c12.5,0,24.4-2.4,35.3-6.8C372.9-81.6,369.1-83.1,363.4-83.9z"/>
			<path class="st33" d="M285.2-222c17.9-5.9,4.6-10,22.8-8.8c18.2,1.2,15-10.9,26.5-13.5c11.6-2.7,22.5,4.5,25.4-8.9
				c0.7-3.2,0.5-5.7-0.3-7.8c-6.4-1.3-13-2.1-19.7-2.1c-21.6,0-41.6,7.2-57.6,19.4c-6,4.7-11.4,10-16.1,15.9
				C267.6-224.2,271.7-217.5,285.2-222z"/>
			<path class="st33" d="M261.4-143.7c1.1-14.5,2.7-20.2,15.4-26.7c12.8-6.4,0.5-29.9-20.3-18.7c-4,2.2-7.3,4.6-9.9,7.1
				c-0.7,4.5-1,9.2-1,13.9c0,11.1,1.9,21.7,5.3,31.6C254.9-134.9,260.7-134.3,261.4-143.7z"/>
			<path class="st33" d="M429.9-198.9c-2.4,2.1-4.5,5-5.8,9.1c-6.4,19.1-15.2,12.4-18.6,22.7c-2.6,7.9,12.5,19.6,27.2,19.8
				c1.5-6.7,2.3-13.7,2.3-20.8C435-178.9,433.2-189.2,429.9-198.9z"/>
			<path class="st33" d="M425.3-126.2c-3-1-6.7-1.8-11.5-2.2c-30.2-2.7-35.4,7.3-26.1,17.7c7.1,7.9,13.9,7.1,16,13.2
				C412.6-105.6,420-115.3,425.3-126.2z"/>
		</g>
		<g>
			<g>
				<g>
					<path class="st3" d="M367.9-167.1l33.8-6c3.6-0.6,6.1-4.1,5.4-7.8v0c-0.6-3.6-4.1-6.1-7.8-5.4l-33.8,6
						c-3.6,0.6-6.1,4.1-5.4,7.8v0C360.8-168.9,364.3-166.5,367.9-167.1z"/>
				</g>
				<g>
					<circle class="st3" cx="378.2" cy="-165.5" r="15.8"/>
				</g>
				<circle class="st29" cx="372.7" cy="-168.5" r="4.5"/>
			</g>
			<g>
				<g>
					<path class="st3" d="M312.1-167.1l-33.8-6c-3.6-0.6-6.1-4.1-5.4-7.8v0c0.6-3.6,4.1-6.1,7.8-5.4l33.8,6c3.6,0.6,6.1,4.1,5.4,7.8
						v0C319.2-168.9,315.7-166.5,312.1-167.1z"/>
				</g>
				<g>
					<circle class="st3" cx="301.8" cy="-165.5" r="15.8"/>
				</g>
				<circle class="st29" cx="307.3" cy="-168.5" r="4.5"/>
			</g>
		</g>
		<g>
			<g>
				<g>
					<path class="st3" d="M354.9-124.7c-1.4,0-2.8-0.6-3.8-1.7c-1.5-1.8-3.3-3.1-5.3-4.1c-3.6-1.7-7.7-1.7-11.4-0.2
						c-2.1,0.9-4.1,2.4-5.7,4.2c-1.8,2.1-5,2.3-7.1,0.5c-2.1-1.8-2.3-5-0.5-7.1c2.6-3,5.8-5.3,9.2-6.8c3-1.3,6.2-2,9.5-2
						c3.5,0,6.9,0.8,10.1,2.3c3.3,1.5,6.2,3.7,8.6,6.6c1.8,2.1,1.6,5.2-0.5,7.1C357.3-125.1,356.1-124.7,354.9-124.7z"/>
				</g>
			</g>
		</g>
		<ellipse class="st33" cx="292.1" cy="-201.3" rx="6" ry="4.4"/>
		<path class="st33" d="M358.6-226.9c0,0-10.3-1.9-15.2,5.4c-5,7.3,0.1,11.9,13,11.7c12.9-0.2,16.7,5.5,23.4,4
			C386.4-207.3,371.3-228.8,358.6-226.9z"/>
		
			<ellipse transform="matrix(0.3124 -0.95 0.95 0.3124 359.5984 272.1563)" class="st12" cx="367.8" cy="-112.3" rx="5.3" ry="7.4"/>
		<circle class="st12" cx="273.7" cy="-206.3" r="7.4"/>
		<ellipse class="st12" cx="370.8" cy="-92" rx="7.4" ry="4.8"/>
	</g>
</g>
<g id="mercury">
	<circle id="silhouette_00000000906264000097898030000003824536720730880918_" class="st35" cx="107.5" cy="-168.1" r="100"/>
	<g>
		<circle class="st36" cx="107.5" cy="-168.1" r="95"/>
		<path class="st35" d="M156.5-249.5c0.2,0.3,21.9,27.8-5.5,31.5c-27.5,3.8-56.5,14.4-35.2,35.7s30-4.7,49.8,17
			c11.9,13.1,26.1,14.8,35.5,14c1-5.5,1.5-11.1,1.5-16.8C202.5-202.6,184-232.9,156.5-249.5z"/>
		<path class="st35" d="M190.5-214.3l-74.5,7c0,0-17.9,10.6-4.1,28.6s29.5,10.9,55.1,25.7s28.4,21.1,28.4,21.1s0,0,0,0
			c4.6-11.1,7.1-23.3,7.1-36.1C202.5-184.9,198.1-200.6,190.5-214.3z"/>
		<g>
			<path class="st35" d="M179.2-124.4c-3.8,3.2,4.7,5.1-12.1,5.8c-16.7,0.7-35.4,9.6-16.1,20.2c5.7,3.1,12.1,5.4,18.4,7.1
				c10.6-9.6,19-21.5,24.4-35C187.5-126.3,181-125.9,179.2-124.4z"/>
			<path class="st35" d="M37.2-231.9c1.8,2.7,4.7,4.6,9.4,4.4c15-0.8-6.9-11.5,23.1-11.6c25.9-0.1,20.7-14.3,12.3-20.4
				C64.5-254.7,49-245,37.2-231.9z"/>
			<path class="st35" d="M50.7-105.4c19.2-4.5,17.6-10.8,9.4-17.9c-8.2-7.1-1.9-8.5,4.8-13c6.6-4.5,10.4-24.9-23.2-16.4
				c-15.7,4-21.1,13.7-22.4,23c4.9,12.3,12.5,23.1,22.1,31.9C42.5-101.3,45.3-104.1,50.7-105.4z"/>
		</g>
		<g>
			<g>
				<g>
					<path class="st3" d="M104.1-150c-6.3,0-12.4-1.4-18.2-4.1c-6-2.8-11.3-6.8-15.8-12c-1.1-1.2-1-3.1,0.3-4.2
						c1.3-1.1,3.1-1,4.2,0.3c4,4.6,8.6,8.1,13.8,10.5c5,2.3,10.3,3.5,15.7,3.5c5.1,0,10-1,14.7-3.1c5.5-2.4,10.6-6.2,14.8-11
						c1.1-1.2,3-1.4,4.2-0.3c1.2,1.1,1.4,3,0.3,4.2c-4.8,5.5-10.6,9.8-16.9,12.5C115.7-151.2,110-150,104.1-150z"/>
				</g>
			</g>
		</g>
		<g>
			<g>
				<g>
					<path class="st3" d="M104.1-149c-6.5,0-12.7-1.4-18.7-4.2c-6.1-2.8-11.5-7-16.1-12.3c-1.4-1.7-1.3-4.2,0.4-5.6
						c1.7-1.5,4.2-1.3,5.6,0.4c3.9,4.5,8.4,7.9,13.5,10.3c4.9,2.3,10,3.4,15.3,3.4c4.9,0,9.8-1,14.3-3c5.4-2.3,10.4-6,14.4-10.7
						c1.4-1.7,4-1.8,5.6-0.4c1.7,1.5,1.8,4,0.4,5.6c-4.9,5.6-10.8,10-17.3,12.8C116-150.2,110.1-149,104.1-149z"/>
				</g>
			</g>
		</g>
		<g>
			<path class="st37" d="M122.8-154.9c-1.1,9.3-5.7,15.1-9.9,18.5c-4,3.3-11,3.3-15,0c-4.2-3.5-8.9-9.4-9.9-18.8l2-0.1
				c5.2,2.4,11,3.8,17,3.8C112.5-151.6,117.8-152.8,122.8-154.9z"/>
			<path class="st3" d="M105.4-129.9c-3.6,0-7.3-1.1-10.1-3.4c-4.5-3.7-10.2-10.5-11.4-21.5c-0.1-1.1,0.2-2.2,0.9-3
				c0.7-0.8,1.7-1.3,2.8-1.4l2-0.1c0.7,0,1.3,0.1,1.9,0.4c4.9,2.3,10,3.4,15.3,3.4c4.9,0,9.8-1,14.3-3c1.3-0.6,2.8-0.4,4,0.5
				c1.2,0.9,1.8,2.3,1.6,3.7c-1.3,10.8-6.9,17.5-11.3,21.1C112.6-131,109-129.9,105.4-129.9z M93.2-149.8c1.4,4.1,3.8,7.5,7.2,10.3
				c2.6,2.1,7.4,2.1,9.9,0c3.1-2.6,5.4-5.7,6.8-9.3c-3.4,0.8-6.8,1.2-10.3,1.2C102.2-147.6,97.6-148.3,93.2-149.8z"/>
		</g>
		<g>
			<g>
				<path class="st3" d="M54.7-185.6c-0.4,0-0.9-0.1-1.3-0.2c-2.1-0.7-3.2-3-2.5-5.1c2.5-7.4,8.9-12.7,16.6-13.7
					c7.8-1,15.3,2.4,19.6,8.9c1.2,1.8,0.7,4.3-1.1,5.5c-1.8,1.2-4.3,0.7-5.5-1.1c-2.7-4-7.1-6-11.9-5.4c-4.8,0.6-8.6,3.7-10.1,8.3
					C57.9-186.7,56.4-185.6,54.7-185.6z"/>
			</g>
		</g>
		<g>
			<g>
				<path class="st3" d="M152.6-185.6c-1.7,0-3.2-1.1-3.8-2.7c-1.5-4.6-5.3-7.7-10.1-8.3c-4.8-0.6-9.2,1.4-11.9,5.4
					c-1.2,1.8-3.7,2.3-5.5,1.1c-1.8-1.2-2.3-3.7-1.1-5.5c4.3-6.5,11.9-9.9,19.6-8.9c7.8,1,14.1,6.3,16.6,13.7
					c0.7,2.1-0.4,4.4-2.5,5.1C153.5-185.7,153.1-185.6,152.6-185.6z"/>
			</g>
		</g>
		
			<ellipse transform="matrix(0.3534 -0.9355 0.9355 0.3534 136.8004 19.6399)" class="st35" cx="82.6" cy="-89.1" rx="7.7" ry="12.5"/>
		
			<ellipse transform="matrix(0.3534 -0.9355 0.9355 0.3534 309.2588 -37.1453)" class="st35" cx="127.8" cy="-242.3" rx="3.8" ry="6.2"/>
		<path class="st38" d="M15.5-192"/>
		<path class="st35" d="M35.6-211.9c-0.6,0-1.1,0.1-1.6,0.1c4.3,0.7,7.6,4.4,7.6,8.9c0,5-4.1,9.1-9.1,9.1c-3.1,0-5.9-1.6-7.5-4
			c1.3,4.6,5.6,8,10.6,8c6.1,0,11.1-5,11.1-11.1C46.7-206.9,41.8-211.9,35.6-211.9z"/>
		<path class="st35" d="M95.9-237.3c-0.6-0.2-1.1-0.4-1.7-0.5c4,2.3,5.8,7.2,4.1,11.7c-1.9,4.9-7.4,7.4-12.3,5.6
			c-3.1-1.2-5.2-3.7-5.9-6.7c-0.4,5,2.6,9.9,7.5,11.8c6,2.3,12.8-0.8,15.1-6.8C105-228.3,102-235.1,95.9-237.3z"/>
		<path class="st35" d="M127.5-107.9c-0.5-0.2-1-0.3-1.5-0.4c3.6,2.1,5.3,6.5,3.8,10.6c-1.7,4.5-6.7,6.8-11.2,5.1
			c-2.8-1.1-4.7-3.4-5.4-6.1c-0.3,4.6,2.3,9,6.8,10.7c5.5,2.1,11.6-0.7,13.7-6.2C135.8-99.7,133-105.8,127.5-107.9z"/>
	</g>
</g>
<g id="pluto">
	<circle id="silhouette" class="st7" cx="-128" cy="-168.1" r="100"/>
	<g>
		<g>
			<g>
				<circle class="st39" cx="-128" cy="-168.3" r="95.8"/>
				<path class="st40" d="M-223.8-168.3c0,10.9,1.8,21.4,5.2,31.1c0.1-6.7,29.5-18,52.1-8.3c20.3,8.6-7.1,10.6,13.2,18.2
					s42.6-25.5,62.3-29.8c19.7-4.3,20.3-0.7,26.7,12.1c4.2,8.3,14.9,13,25,12.7c4.5-11.1,7-23.3,7-36c0-31.5-15.2-59.5-38.7-76.9
					l-67.4-18.3C-186.4-258.4-223.8-217.7-223.8-168.3z"/>
				<path class="st40" d="M-128-86.7c-35.5,0-66.9-17.1-86.6-43.5c15.4,32.4,48.4,54.8,86.6,54.8s71.2-22.4,86.6-54.8
					C-61.1-103.8-92.5-86.7-128-86.7z"/>
				<g>
					<path class="st7" d="M-127.5-192c0,0,14.2-35.9,50.7-31.9c22.3,2.4,32.8,10.7,37.9,19.7c-14.2-35.3-48.8-60.1-89.1-60.1
						c-53.1,0-96.1,43-96.1,96.1c0,6.7,0.7,13.2,2,19.5c0-0.2,0.2-39.8,26.9-37.7c26.8,2.1,20.6,17.9,43.6,17.5
						C-141.4-169-134.9-180-127.5-192L-127.5-192z"/>
					<path class="st7" d="M-35.7-194.1C-35.7-194.1-35.7-194-35.7-194.1C-35.7-194-35.7-194.1-35.7-194.1z"/>
				</g>
				<g>
					<g>
						<circle class="st3" cx="-94" cy="-180.1" r="16.3"/>
					</g>
					<g>
						<circle class="st29" cx="-89.4" cy="-184.3" r="5"/>
						<circle class="st29" cx="-99.3" cy="-172.5" r="2.8"/>
					</g>
				</g>
				<g>
					<g>
						<path class="st3" d="M-127.5-137.5c-5.9,0.3-11.2-2.3-15.1-7.8c-1.6-2.2-1.3-4.5,0.5-5.7c1.9-1.3,3.9-0.9,5.6,1.1
							c5,5.9,12.3,5.7,17-0.6c1.5-2,3.8-2.6,5.6-1.4c1.7,1.1,2.1,3.2,0.7,5.5C-116.3-141.4-120.7-138.3-127.5-137.5z"/>
					</g>
				</g>
				
					<ellipse transform="matrix(0.4549 -0.8905 0.8905 0.4549 100.6227 -122.0226)" class="st7" cx="-49.4" cy="-143.2" rx="12.9" ry="6"/>
				
					<ellipse transform="matrix(0.7498 -0.6617 0.6617 0.7498 53.3846 -72.8183)" class="st40" cx="-69.6" cy="-107" rx="9.9" ry="6.4"/>
				
					<ellipse transform="matrix(0.7498 -0.6617 0.6617 0.7498 47.8807 -83.8516)" class="st40" cx="-86.9" cy="-105.2" rx="4.8" ry="3.1"/>
				
					<ellipse transform="matrix(0.7504 -0.661 0.661 0.7504 107.4157 -177.5247)" class="st41" cx="-181.4" cy="-231" rx="24.5" ry="9"/>
				<ellipse class="st12" cx="-163.9" cy="-145.2" rx="10.7" ry="5"/>
				<ellipse class="st12" cx="-95.7" cy="-145.2" rx="10.7" ry="5"/>
			</g>
			
				<ellipse transform="matrix(0.9387 -0.3448 0.3448 0.9387 36.528 -82.2579)" class="st39" cx="-213" cy="-143.8" rx="4.5" ry="9.1"/>
			
				<ellipse transform="matrix(0.9387 -0.3448 0.3448 0.9387 41.653 -81.0878)" class="st39" cx="-207.1" cy="-157.6" rx="2.9" ry="5.9"/>
			
				<ellipse transform="matrix(0.9387 -0.3448 0.3448 0.9387 34.5757 -78.6126)" class="st40" cx="-203.7" cy="-136.5" rx="2.3" ry="4.7"/>
		</g>
	</g>
</g>
<g id="moon_00000162328344837480381110000012664812338770287287_">
	<path id="silhouette_00000014625252754040217170000013890471749151864988_" class="st30" d="M-296.1-105.6c-1.3-1.5-3.1-1.7-5-1.5
		c-3.6,0.3-7.2,0.5-10.8,0.4c-12.3-0.4-23.7-3.8-34.2-10.2c-24.1-14.7-35.5-41.8-32.3-68.1c1.1-8.6,3.7-16.7,7.7-24.4
		c4.2-8.1,9.7-15.2,16.4-21.3c9-8.2,19.4-13.8,30.9-17.5c1.4-0.4,2.7-0.8,3.9-1.7c2.4-1.7,2.8-4.6,1-6.9c-1.1-1.3-2.4-2.2-3.9-2.8
		c-12-5.5-24.5-8.4-36.3-8.5c-9.6-0.2-17.6,0.8-25.6,2.8c-15.1,3.8-28.8,10.6-40.7,20.7c-10.8,9.1-19.4,19.9-25.4,32.6
		c-7.5,15.8-10.8,32.5-9.7,50c0.5,9,2.3,17.8,5.1,26.3c5.2,15.6,13.8,29.1,25.5,40.6c11.6,11.4,25.1,19.5,40.7,23.9
		c11.2,3.2,22.7,4,34.3,2.8c8.5-0.9,16.7-3.1,24.5-6.4c11.4-4.9,21.7-11.5,30.5-20.3c1.4-1.4,2.8-2.8,3.7-4.6
		C-294.8-101.7-294.9-104.1-296.1-105.6z"/>
	<g>
		<g>
			<g id="moon">
				<path class="st2" d="M-364.8-72.8c-7.7,0-15.4-1.1-22.8-3.1C-402-80-415-87.6-426.1-98.6c-11.2-11-19.3-24-24.2-38.6
					c-2.7-8.2-4.4-16.6-4.9-25c-1-16.5,2.1-32.5,9.3-47.6c5.5-11.6,13.6-22.1,24.2-31c11-9.4,24.1-16,38.7-19.6
					c7.2-1.8,14.3-2.6,22.4-2.6c0.6,0,1.3,0,1.9,0c11.2,0.1,23.1,2.9,34.3,8c0.9,0.4,1.5,0.8,1.9,1.2c-0.5,0.3-1.3,0.5-2,0.8
					l-0.3,0.1c-12.6,4-23.6,10.2-32.7,18.5c-7.1,6.5-13,14.1-17.5,22.7c-4.3,8.3-7.1,17-8.2,26.1c-3.7,29.2,9.9,57.8,34.6,72.9
					c11.2,6.8,23.5,10.5,36.7,11c0.7,0,1.5,0,2.2,0c3.4,0,6.7-0.3,9.2-0.5c0.1,0,0.3,0,0.4,0c0,0,0,0,0,0c-0.6,1.2-1.7,2.3-2.9,3.5
					c-8,8.1-17.5,14.4-28.9,19.3c-7.5,3.2-15.3,5.2-23.1,6.1C-358.4-73-361.6-72.8-364.8-72.8C-364.8-72.8-364.8-72.8-364.8-72.8z"
					/>
				<g>
					<path class="st29" d="M-380.5-153.6c4.7,18.5,16.3,34.9,32.9,45.1c11.2,6.8,23.5,10.5,36.7,11c0.7,0,1.5,0,2.2,0
						c1.5,0,3-0.1,4.5-0.1c0.4-0.3,0.7-0.7,1.1-1c1.2-1.2,2.3-2.3,2.9-3.5c0,0,0,0,0,0c-0.1,0-0.3,0-0.4,0c-2.5,0.2-5.8,0.5-9.2,0.5
						c-0.7,0-1.5,0-2.2,0c-13.1-0.4-25.5-4.1-36.7-11C-364.1-122.1-375.2-136.8-380.5-153.6z"/>
					<path class="st29" d="M-454-158c-1-16.5,2.1-32.5,9.3-47.6c5.5-11.6,13.6-22.1,24.2-31c11-9.4,24.1-16,38.7-19.6
						c7.2-1.8,14.3-2.6,22.4-2.6c0.6,0,1.3,0,1.9,0c10.1,0.1,20.7,2.4,30.9,6.6c0.6-0.2,1.2-0.4,1.9-0.6l0.3-0.1
						c0.8-0.2,1.5-0.5,2-0.8c-0.4-0.4-1.1-0.8-1.9-1.2c-11.3-5.1-23.1-7.9-34.3-8c-0.7,0-1.3,0-1.9,0c-8.1,0-15.2,0.8-22.4,2.6
						c-14.6,3.7-27.6,10.3-38.7,19.6c-10.5,8.9-18.6,19.3-24.2,31c-7.1,15.1-10.3,31.1-9.3,47.6c0.5,7.5,1.8,15,4.1,22.4
						C-452.7-145.8-453.7-151.9-454-158z"/>
				</g>
				<g>
					<g>
						<path class="st3" d="M-424.2-188.2c-1.3,0-2.4-0.8-2.8-2c-1.2-3.7-4.3-6.2-8.2-6.7c-3.9-0.5-7.5,1.1-9.6,4.4
							c-0.9,1.4-2.8,1.8-4.2,0.8c-1.4-0.9-1.8-2.8-0.8-4.2c3.4-5.1,9.3-7.8,15.4-7c6.1,0.8,11.1,4.9,13.1,10.8
							c0.5,1.6-0.3,3.3-1.9,3.8C-423.6-188.2-423.9-188.2-424.2-188.2z"/>
					</g>
				</g>
				<g>
					<g>
						<path class="st3" d="M-387.9-184.7c-1.3,0-2.4-0.8-2.8-2c-1.2-3.7-4.3-6.2-8.2-6.7c-3.9-0.5-7.5,1.1-9.6,4.4
							c-0.9,1.4-2.8,1.8-4.2,0.8c-1.4-0.9-1.8-2.8-0.8-4.2c3.4-5.1,9.3-7.8,15.4-7c6.1,0.8,11.1,4.9,13.1,10.8
							c0.5,1.6-0.3,3.3-1.9,3.8C-387.3-184.7-387.6-184.7-387.9-184.7z"/>
					</g>
				</g>
				<g>
					<g>
						<path class="st3" d="M-411.2-150.1c-2.6,0-5.2-0.6-7.6-1.9c-5.4-2.9-8.6-8.5-8.4-14.7c0.1-1.7,1.5-3,3.1-2.9
							c1.7,0.1,2.9,1.5,2.9,3.1c-0.1,3.9,1.8,7.3,5.3,9.2c3.4,1.8,7.4,1.6,10.6-0.7c1.3-1,3.2-0.7,4.2,0.7c1,1.3,0.7,3.2-0.7,4.2
							C-404.7-151.1-407.9-150.1-411.2-150.1z"/>
					</g>
				</g>
				<path class="st12" d="M-435.7-162.1c-3.4-2.2-8.2-2.6-12.3-1c-2.5,0.9-4.1,2.3-4.1,3.9c0,2.1,1.1,3.4,3.1,4.3
					c3.7,1.8,9.3,1.7,13-0.4C-432.8-157.2-432.6-160.1-435.7-162.1z"/>
			</g>
			
				<ellipse transform="matrix(0.4208 -0.9072 0.9072 0.4208 -146.5214 -397.9836)" class="st30" cx="-384.9" cy="-84.3" rx="3.1" ry="5.6"/>
			<path class="st30" d="M-418-116.7c3.1,1.5,5.5,3.7,6.4,5.8c0-0.1,0.1-0.2,0.1-0.2c1.3-2.7-1.7-6.8-6.5-9s-9.8-1.9-11.1,0.9
				c-0.4,1-0.4,2.1,0.1,3.3C-427.5-118.6-422.7-118.9-418-116.7z"/>
			<path class="st30" d="M-384.6-131.3c3.1,1.5,5.5,3.7,6.4,5.8c0-0.1,0.1-0.2,0.1-0.2c1.3-2.7-1.7-6.8-6.5-9s-9.8-1.9-11.1,0.9
				c-0.4,1-0.4,2.1,0.1,3.3C-394.2-133.2-389.4-133.5-384.6-131.3z"/>
		</g>
		<circle class="st29" cx="-396.9" cy="-251.2" r="3.7"/>
		<circle class="st29" cx="-403.7" cy="-243.2" r="3.7"/>
	</g>
</g>
<g id="star">
	<path id="silhouette_00000163764267449768246800000004986896889111371175_" class="st30" d="M-503.3-203c-11.9-2.5-24-4.2-36-6.1
		c-6-0.8-13.1-0.9-15.7-7.6c-7-11.7-18.7-51.2-32.9-51.3c-14.2,0.1-25.9,39.6-32.9,51.3c-2.6,6.7-9.7,6.8-15.7,7.6
		c-12,2-24.1,3.6-36,6.1c-35.8,6.4,0.7,37.5,12.2,50.6c5,6.1,13.4,10.8,11.9,19.9c-1.8,16.7-5.7,33.4-5.7,50.2
		c3.7,36.9,46.5-9.2,66.3-10.3c19.8,1.1,62.6,47.2,66.3,10.3c-0.1-16.9-3.9-33.5-5.7-50.2c-1.5-9.1,7-13.8,11.9-19.9
		C-504.1-165.5-467.5-196.6-503.3-203z"/>
	<g>
		<path class="st2" d="M-533-73.1c-14.5-0.8-40-24.2-54.7-24.6c-15.5-2.4-61.1,43.4-61.5,15c0.1-16.6,3.9-32.8,5.7-49.3
			c1.4-9.3-4.5-15.1-9.2-19.7c-42.2-44.8-43.1-44.1,16.9-52.6c16.6-0.4,19.9-9.3,26.4-25c3.8-9.1,13.7-32.8,21.6-33.8
			c1.2,0,4.6,1,10.1,10.1c29.3,58.5,9.9,42.4,73.5,54.8c30.4,3.9-10.2,35.1-18.9,46.5c-12.8,9.7-9.2,22.6-6.8,37
			C-529.7-105.4-521-74.4-533-73.1z"/>
		<g>
			<path class="st29" d="M-636-200.2c16.6-0.4,19.9-9.3,26.4-25c3.8-9.1,13.7-32.8,21.6-33.8c1.2,0,4.6,1,10.1,10.1
				c29.3,58.5,9.9,42.4,73.5,54.8c6.7,0.9,10,3.1,10.9,6.1c1.2-5.1-1.4-8.9-10.9-10.1c-63.7-12.4-44.2,3.7-73.5-54.8
				c-5.5-9.1-8.9-10.1-10.1-10.1c-7.9,1-17.8,24.7-21.6,33.8c-6.5,15.7-9.7,24.6-26.4,25c-35.1,5-49.3,6.8-46.7,16.4
				C-680.3-194.1-665.6-196-636-200.2z"/>
			<path class="st29" d="M-532.3-130.7c-0.4,6.2,1.1,12.9,2.3,20.1c0.2,5.1,3,16.9,3.4,26.6c0.5-10.2-3.1-24.8-3.4-30.6
				C-531-120.3-532.1-125.7-532.3-130.7z"/>
			<path class="st29" d="M-643.5-132.8c0,0.3,0,0.6-0.1,0.8c-1.8,16.5-5.5,32.7-5.7,49.3c0,0.5,0,0.9,0.1,1.3
				c0.5-15.7,3.9-31.1,5.6-46.7C-643.3-129.7-643.3-131.3-643.5-132.8z"/>
		</g>
		<g>
			<g>
				<path class="st3" d="M-634.7-175.8c-0.3,0-0.6-0.1-1-0.2c-1.6-0.5-2.4-2.2-1.9-3.8c2-5.8,7-10,13.1-10.8c6.1-0.8,12,1.9,15.4,7
					c0.9,1.4,0.5,3.2-0.8,4.2c-1.4,0.9-3.2,0.5-4.2-0.8c-2.2-3.3-5.8-4.9-9.6-4.4c-3.9,0.5-6.9,3-8.2,6.7
					C-632.3-176.6-633.4-175.8-634.7-175.8z"/>
			</g>
		</g>
		<g>
			<g>
				<path class="st3" d="M-548.7-175.8c-1.3,0-2.4-0.8-2.8-2c-1.2-3.7-4.3-6.2-8.2-6.7c-3.9-0.5-7.5,1.1-9.6,4.4
					c-0.9,1.4-2.8,1.8-4.2,0.8c-1.4-0.9-1.8-2.8-0.8-4.2c3.4-5.1,9.3-7.8,15.4-7c6.1,0.8,11.1,4.9,13.1,10.8
					c0.5,1.6-0.3,3.3-1.9,3.8C-548.1-175.9-548.4-175.8-548.7-175.8z"/>
			</g>
		</g>
		<path class="st12" d="M-545-156.7c-3.8-2.4-9-2.8-13.6-1.1c-2.7,1-4.5,2.6-4.5,4.3c0,2.3,1.2,3.7,3.4,4.8
			c4.1,1.9,10.2,1.9,14.3-0.5C-541.9-151.3-541.7-154.5-545-156.7z"/>
		<path class="st12" d="M-618.4-156.7c-3.8-2.4-9-2.8-13.6-1.1c-2.7,1-4.5,2.6-4.5,4.3c0,2.3,1.2,3.7,3.4,4.8
			c4.1,1.9,10.2,1.9,14.3-0.5C-615.2-151.3-615-154.5-618.4-156.7z"/>
		<g>
			<g>
				<g>
					<path class="st3" d="M-598.5-139.7c-7.9,0-12.4-5-12.4-13.8c0-1.7,1.3-3,3-3s3,1.3,3,3c0,6.9,3.2,7.8,6.4,7.8
						c3.5,0,6.4-2.9,6.4-6.4c0-1.7,1.3-3,3-3s3,1.3,3,3C-586.2-145.2-591.7-139.7-598.5-139.7z"/>
				</g>
			</g>
			<g>
				<g>
					<path class="st3" d="M-579.8-139.7c-6.8,0-12.4-5.5-12.4-12.4c0-1.7,1.3-3,3-3s3,1.3,3,3c0,3.5,2.9,6.4,6.4,6.4
						c3.4,0,6.4-4.3,6.4-7.8c0-1.7,1.3-3,3-3s3,1.3,3,3C-567.5-147-572.8-139.7-579.8-139.7z"/>
				</g>
			</g>
		</g>
	</g>
</g>
</svg>
