<?xml version="1.0" encoding="utf-8"?>
<!-- Generator: Adobe Illustrator 27.9.1, SVG Export Plug-In . SVG Version: 6.00 Build 0)  -->
<svg version="1.1" xmlns="http://www.w3.org/2000/svg" xmlns:xlink="http://www.w3.org/1999/xlink" x="0px" y="0px"
	 viewBox="0 0 285.3 200" style="enable-background:new 0 0 285.3 200;" xml:space="preserve">
<style type="text/css">
	.st0{fill:#FFFFFF;stroke:#000000;stroke-miterlimit:10;}
	.st1{fill:#EC8524;}
	.st2{fill:none;stroke:#000000;stroke-miterlimit:10;}
	.st3{fill:#0C0C0C;}
	.st4{fill:#171624;}
	.st5{fill:#FFFFFF;}
	.st6{fill:#211D12;}
	.st7{fill:#DC5B37;}
</style>
<g id="Layer_1">
	<path class="st0" d="M266.6,200H20.4c-10.3,0-18.6-8.3-18.6-18.6v-46.2h283.5v46.2C285.3,191.7,276.9,200,266.6,200z"/>
	<path class="st0" d="M-862.8,113.3c-26.1-12-66.2-19.6-111.1-19.6s-84.9,7.7-111.1,19.6h-31.6v41.3h1.7
		c10.7,25.2,69.7,44.5,140.9,44.5s130.2-19.3,140.9-44.5h1.7v-41.3H-862.8z"/>
	<ellipse class="st0" cx="-973.9" cy="113.8" rx="142.6" ry="29.2"/>
	<path class="st0" d="M-887.9,67.4v45c0,12.2-37.3,22-83.8,22.3h-4.4c-46.5-0.3-83.8-10.2-83.8-22.3v-45c0-37.2,38.5-67.4,86-67.4
		c23.7,0,45.2,7.5,60.8,19.7C-897.5,31.9-887.9,48.8-887.9,67.4z"/>
	<path class="st1" d="M222.8,376.7L222.8,376.7c0-0.3,0-0.5,0-0.8C222.8,376.1,222.8,376.4,222.8,376.7z"/>
	<rect x="-1383.2" y="26.3" class="st0" width="110.7" height="142.5"/>
	<circle class="st0" cx="-951.2" cy="300.8" r="36"/>
	<ellipse class="st0" cx="-1095.5" cy="155" rx="7.6" ry="12"/>
	<ellipse class="st0" cx="-855.2" cy="155" rx="7.6" ry="12"/>
	<circle class="st0" cx="-618.4" cy="93.6" r="93.7"/>
	<path class="st0" d="M-544.7,70.4V69V39c0-0.8,0.1-1.6,0.4-2.3l3.9-12.1c1.8-5.5-3.1-10.9-8.8-9.6l-20.8,4.7
		c-0.5,0.1-1,0.2-1.6,0.2l-48.8,0.6l-48.8-0.6c-0.5,0-1-0.1-1.6-0.2l-20.8-4.7c-5.7-1.3-10.6,4.1-8.8,9.6l3.9,12.1
		c0.2,0.7,0.4,1.5,0.4,2.3v30v1.4v30c0,0.8-0.1,1.6-0.4,2.3l-3.9,12.1c-1.8,5.5,3.1,10.9,8.8,9.6l20.8-4.7c0.5-0.1,1-0.2,1.6-0.2
		l48.8-0.6l48.8,0.6c0.5,0,1,0.1,1.6,0.2l20.8,4.7c5.7,1.3,10.6-4.1,8.8-9.6l-3.9-12.1c-0.2-0.7-0.4-1.5-0.4-2.3V70.4z"/>
	<path class="st0" d="M-476.1,117.5H-761v24.8c0,31.8,25.8,57.6,57.6,57.6h169.6c31.8,0,57.6-25.8,57.6-57.6V117.5z"/>
	<circle class="st0" cx="-689.3" cy="165.2" r="16"/>
	<circle class="st0" cx="-554.3" cy="165.2" r="16"/>
	<circle class="st0" cx="-620.6" cy="160.1" r="34.2"/>
	<line class="st2" x1="-761" y1="125.9" x2="-718.4" y2="94.9"/>
	<line class="st2" x1="-518.3" y1="96.4" x2="-476.1" y2="125.9"/>
	<circle class="st0" cx="-674.8" cy="93.6" r="12.1"/>
	<circle class="st0" cx="-561.9" cy="93.6" r="12.1"/>
	<path class="st0" d="M-566.5,117.9c4.5-8.3,7-17.8,7-27.8c0-32.5-26.3-58.8-58.8-58.8c-32.5,0-58.8,26.3-58.8,58.8
		c0,10.1,2.5,19.5,7,27.8H-566.5z"/>
	<circle class="st3" cx="-641.8" cy="91" r="6.8"/>
	<circle class="st3" cx="-594.9" cy="91" r="6.8"/>
	<path class="st3" d="M-629.5,110.1L-629.5,110.1c0,1.3,1.1,2.4,2.4,2.4h15.8c1.3,0,2.4-1.1,2.4-2.4l0,0c0-1.3-1.1-2.4-2.4-2.4
		h-15.8C-628.4,107.6-629.5,108.7-629.5,110.1z"/>
	<g>
		<rect x="-1148.8" class="st0" width="29.2" height="20"/>
		<rect x="-1148.8" y="20" class="st0" width="29.2" height="20"/>
		<rect x="-1148.8" y="40" class="st0" width="29.2" height="20"/>
		<rect x="-1148.8" y="60" class="st0" width="29.2" height="20"/>
		<rect x="-1148.8" y="80" class="st0" width="29.2" height="20"/>
		<rect x="-1148.8" y="100" class="st0" width="29.2" height="20"/>
		<rect x="-1148.8" y="120" class="st0" width="29.2" height="20"/>
		<rect x="-1148.8" y="140" class="st0" width="29.2" height="20"/>
		<rect x="-1148.8" y="160" class="st0" width="29.2" height="20"/>
		<rect x="-1148.8" y="180" class="st0" width="29.2" height="20"/>
	</g>
	<ellipse class="st3" cx="-646" cy="104.8" rx="6.7" ry="2"/>
	<ellipse class="st3" cx="-592.2" cy="104.8" rx="6.7" ry="2"/>
	<circle class="st0" cx="-1044.8" cy="165.2" r="16"/>
	<circle class="st0" cx="-909.8" cy="165.2" r="16"/>
	<path class="st0" d="M-973.9,30L-973.9,30c-38.7,0-70,31.3-70,70v0c0,9.6,1.9,18.8,5.5,27.2c15.3,4.5,37.5,7.4,62.3,7.6h4.4
		c24.8-0.2,47-3.1,62.3-7.6c3.5-8.4,5.5-17.5,5.5-27.2v0C-903.9,61.3-935.2,30-973.9,30z"/>
	<circle class="st0" cx="-976.1" cy="160.1" r="34.2"/>
	<path class="st0" d="M-238.4,117.9c4.5-8.3,8.5-17.9,7-27.8c-4.8-31.2-37.5-55.8-58.8-58.8c-32.2-4.6-58.8,26.3-58.8,58.8
		c0,10.1,2.5,19.5,7,27.8H-238.4z"/>
	<circle class="st3" cx="-308.8" cy="91" r="6.8"/>
	<circle class="st3" cx="-261.9" cy="91" r="6.8"/>
	<path class="st0" d="M-181-0.2h-208.6l-14.1,138.1H-167L-181-0.2z M-381.6,117.9l10-98.1h172.5l10,98.1H-381.6z"/>
	<path class="st0" d="M-142.7,158.9c0-21.6-9.6-39.3-21.8-40.9v-0.1h-239.9v0c-13,0.1-23.5,18.5-23.5,41.1s10.5,40.9,23.5,41.1v0
		h239.9v-0.1C-152.3,198.3-142.7,180.6-142.7,158.9z"/>
	<circle class="st0" cx="-356.3" cy="165.2" r="16"/>
	<circle class="st0" cx="-221.3" cy="165.2" r="16"/>
	<circle class="st0" cx="-287.6" cy="160.1" r="34.2"/>
	<path class="st0" d="M-290.2,104.6c10.7,0,20.3,5.2,26.1,13.3h19c-7.4-17.6-24.9-29.9-45.2-29.9s-37.7,12.3-45.2,29.9h19
		C-310.5,109.8-301,104.6-290.2,104.6z"/>
	
		<image style="overflow:visible;" width="532" height="646" xlink:href="A71CB6F3.jpg"  transform="matrix(1 0 0 1 -1369.1055 494.8333)">
	</image>
	<rect x="-1298.6" y="621.5" class="st4" width="392" height="81.3"/>
	<ellipse class="st0" cx="143.5" cy="135.2" rx="141.8" ry="46.1"/>
	<ellipse class="st0" cx="143.5" cy="128.8" rx="79.4" ry="25.8"/>
	<circle class="st0" cx="143.5" cy="89.1" r="62.9"/>
	<path d="M173.3,86.9c0,15.9-12.9,28.9-28.9,28.9s-28.9-12.9-28.9-28.9c0-3.8,0.7-7.5,2.1-10.9c2.6-6.3,7.3-11.5,13.3-14.7
		c4-2.1,8.6-3.3,13.4-3.3C160.3,58.1,173.3,71,173.3,86.9z"/>
	<path class="st0" d="M133.9,69.2c0,5.5-4.4,9.9-9.9,9.9c-2.4,0-4.6-0.8-6.3-2.2c2.6-6.3,7.3-11.5,13.3-14.7
		C132.8,64,133.9,66.5,133.9,69.2z"/>
	<circle class="st0" cx="136.6" cy="90.6" r="6.9"/>
	<g>
		<g>
			<line class="st5" x1="143.5" y1="30.2" x2="143.5" y2="54.2"/>
			<rect x="143" y="30.2" class="st6" width="1" height="24"/>
		</g>
		<g>
			<line class="st5" x1="143.5" y1="121.1" x2="143.5" y2="145.1"/>
			<rect x="143" y="121.1" class="st6" width="1" height="24"/>
		</g>
	</g>
	<g>
		<g>
			<line class="st5" x1="86.1" y1="87.7" x2="110.1" y2="87.7"/>
			<rect x="86.1" y="87.1" class="st6" width="24" height="1"/>
		</g>
		<g>
			<line class="st5" x1="177" y1="87.7" x2="201" y2="87.7"/>
			<rect x="177" y="87.1" class="st6" width="24" height="1"/>
		</g>
	</g>
	<g>
		<g>
			<line class="st5" x1="86.1" y1="87.7" x2="110.1" y2="87.7"/>
			<rect x="86.1" y="87.1" class="st6" width="24" height="1"/>
		</g>
		<g>
			<line class="st5" x1="177" y1="87.7" x2="201" y2="87.7"/>
			<rect x="177" y="87.1" class="st6" width="24" height="1"/>
		</g>
	</g>
	<g>
		<g>
			<line class="st5" x1="102.9" y1="128.3" x2="119.9" y2="111.3"/>
			
				<rect x="99.4" y="119.3" transform="matrix(0.7071 -0.7071 0.7071 0.7071 -52.0724 113.8566)" class="st6" width="24" height="1"/>
		</g>
		<g>
			<line class="st5" x1="167.2" y1="64" x2="184.1" y2="47.1"/>
			<rect x="163.7" y="55" transform="matrix(0.7071 -0.7071 0.7071 0.7071 12.1861 140.4733)" class="st6" width="24" height="1"/>
		</g>
	</g>
	<g>
		<g>
			<line class="st5" x1="143.5" y1="145.1" x2="143.5" y2="121.1"/>
			<rect x="143" y="121.1" class="st6" width="1" height="24"/>
		</g>
		<g>
			<line class="st5" x1="143.5" y1="54.2" x2="143.5" y2="30.2"/>
			<rect x="143" y="30.2" class="st6" width="1" height="24"/>
		</g>
	</g>
	<g>
		<g>
			<line class="st5" x1="184.1" y1="128.3" x2="167.2" y2="111.3"/>
			
				<rect x="175.2" y="107.8" transform="matrix(0.7071 -0.7071 0.7071 0.7071 -33.2515 159.2942)" class="st6" width="1" height="24"/>
		</g>
		<g>
			<line class="st5" x1="119.9" y1="64" x2="102.9" y2="47.1"/>
			<rect x="110.9" y="43.5" transform="matrix(0.7071 -0.7071 0.7071 0.7071 -6.6348 95.0357)" class="st6" width="1" height="24"/>
		</g>
	</g>
</g>
<g id="Layer_2">
	<ellipse class="st0" cx="-1171.2" cy="682.8" rx="2" ry="3.2"/>
	<circle class="st0" cx="-1221.4" cy="685.5" r="4.2"/>
	<circle class="st0" cx="-1185.7" cy="685.5" r="4.2"/>
	<g>
		<path class="st0" d="M-1139.8,672c-6.9-3.2-17.5-5.2-29.4-5.2s-22.5,2-29.4,5.2h-8.4v10.9h0.5c2.8,6.7,18.5,11.8,37.3,11.8
			c18.9,0,34.5-5.1,37.3-11.8h0.5V672H-1139.8z"/>
		<ellipse class="st0" cx="-1169.2" cy="672.1" rx="37.8" ry="7.7"/>
		<path class="st0" d="M-1146.5,659.8v11.9c0,3.2-9.9,5.8-22.2,5.9h-1.2c-12.3-0.1-22.2-2.7-22.2-5.9v-11.9
			c0-9.9,10.2-17.8,22.8-17.8c6.3,0,12,2,16.1,5.2C-1149,650.4-1146.5,654.9-1146.5,659.8z"/>
		<path class="st0" d="M-1169.2,649.9L-1169.2,649.9c-10.2,0-18.5,8.3-18.5,18.5v0c0,2.6,0.5,5,1.4,7.2c4.1,1.2,9.9,2,16.5,2h1.2
			c6.6,0,12.4-0.8,16.5-2c0.9-2.2,1.4-4.6,1.4-7.2v0C-1150.7,658.2-1159,649.9-1169.2,649.9z"/>
		<circle class="st0" cx="-1169.8" cy="684.4" r="9"/>
	</g>
	<circle class="st7" cx="-1169.8" cy="686.3" r="11"/>
</g>
</svg>
