<?xml version="1.0" encoding="utf-8"?>
<!-- Generator: Adobe Illustrator 27.9.1, SVG Export Plug-In . SVG Version: 6.00 Build 0)  -->
<svg version="1.1" id="Layer_1" xmlns="http://www.w3.org/2000/svg" xmlns:xlink="http://www.w3.org/1999/xlink" x="0px" y="0px"
	 viewBox="0 0 200 200" style="enable-background:new 0 0 200 200;" xml:space="preserve">
<style type="text/css">
	.st0{fill:#67BDC6;}
	.st1{fill:#B1DFE5;}
	.st2{fill:#9DD5DD;}
	.st3{fill:#8FD5DC;}
	.st4{fill:#8BCBD5;}
</style>
<circle id="silhouette_00000154393411146829071190000012336362567337085360_" class="st0" cx="100" cy="100" r="100"/>
<g>
	<circle class="st1" cx="100" cy="100" r="95.4"/>
	<path class="st2" d="M179.7,152.4C70.2,156,23.9,130.1,5.6,113.4c4.1,29.3,21.6,54.4,46,68.8c26.4,5.3,55.9,7,81.5,7.3
		C152.3,182.3,168.6,169.2,179.7,152.4z"/>
	<path class="st3" d="M55.9,15.4C78.4,25.9,127,44.5,167.6,32.7C150.3,15.4,126.4,4.6,100,4.6C84.1,4.6,69.1,8.5,55.9,15.4z"/>
	<path class="st0" d="M171.8,162.7C84,166.8,34.4,147.4,10.7,133.6c3.5,9.2,8.3,17.8,14.3,25.4c23.3,10,62.7,21.5,122.9,23.5
		C157,177.2,165,170.5,171.8,162.7z"/>
	<path class="st3" d="M193.4,80.5c-1.9-9.2-5.2-18-9.5-26c-67.3,8.2-115.4-12.9-142.1-30c-7.5,5.7-14,12.5-19.4,20.1
		C79.6,73.4,150.6,79.6,193.4,80.5z"/>
</g>
<ellipse class="st4" cx="125.9" cy="145.9" rx="13.5" ry="5.5"/>
<ellipse transform="matrix(0.1626 -0.9867 0.9867 0.1626 -96.6214 159.6074)" class="st4" cx="45.7" cy="136.7" rx="5.5" ry="13.5"/>
</svg>
