<?xml version="1.0" encoding="utf-8"?>
<!-- Generator: Adobe Illustrator 27.9.1, SVG Export Plug-In . SVG Version: 6.00 Build 0)  -->
<svg version="1.1" id="Layer_1" xmlns="http://www.w3.org/2000/svg" xmlns:xlink="http://www.w3.org/1999/xlink" x="0px" y="0px"
	 viewBox="0 0 200 200" style="enable-background:new 0 0 200 200;" xml:space="preserve">
<style type="text/css">
	.st0{fill:#EC8524;}
	.st1{fill:#FED653;}
	.st2{fill:#1F2F3D;}
	.st3{fill:#F58A21;}
</style>
<g>
	<g>
		<g>
			<path class="st2" d="M183.1,73.7c-8.4-2.7-17.3-3.3-26-3.4c-9.7,0.1-19.2,1-28.2,4.1c-8.4,3-12.3,8.4-12.3,17.5
				c0,3.9,0.7,7.6,1.7,11.3c4,13.4,12.4,22.3,26.3,25.5c6.7,1.6,13.4,1.7,20.3,0.7c8-1.3,15.2-4.3,20.6-10.6
				c6.9-8.2,9.9-17.7,10-28.2C195.7,81,192.1,76.6,183.1,73.7z"/>
		</g>
		<g>
			<path class="st2" d="M75.8,76.7c-1.9-1-3.6-2-5.6-2.6c-9.4-3-19.3-3.9-27.3-3.9c-10.7,0.1-20.3,1.6-26.6,3.6
				C8.4,76.4,4.7,81.1,4.2,89.4c-0.4,6.3,0.9,12.2,3,18c4.1,11.2,11.9,18.5,23.6,21.2c8.4,1.9,16.9,1.9,25.2-0.4
				c5.9-1.6,11.2-4.1,15.4-8.4c8.4-8.6,12-19,11.6-30.9C82.8,83.6,80.5,79.4,75.8,76.7z"/>
		</g>
	</g>
</g>
<g>
	<path class="st3" d="M150.4,126.6c3.6,0.4,7.2,0.6,10.9,0.3l-10.2-53.6c-3.6,0.3-7,0.6-10.6,1.3L150.4,126.6z"/>
	<path class="st3" d="M167.1,126.1c1.6-0.3,3-0.7,4.4-1.3l-9.7-51.5c-1.6-0.1-3.1-0.1-4.7-0.1L167.1,126.1z"/>
	<path class="st3" d="M55.2,125.3l-9.9-52.2c-0.9,0-1.9,0-2.7,0c-0.7,0-1.3,0-1.9,0l10,53.2c1.3-0.3,2.4-0.4,3.7-0.9
		C54.8,125.5,54.9,125.3,55.2,125.3z"/>
	<path class="st3" d="M33.8,126.3c3.6,0.7,7.3,0.9,10.9,0.7L34.5,73.4c-3.9,0.3-7.4,0.9-10.4,1.4L33.8,126.3z"/>
</g>
<path class="st2" d="M124.8,149.5H75.2c-1.7,0-3.1,1.4-3.1,3.1c0,1.7,1.4,3.1,3.1,3.1h49.5c1.7,0,3.1-1.4,3.1-3.1
	C127.8,150.9,126.5,149.5,124.8,149.5z"/>
</svg>
