<?xml version="1.0" encoding="utf-8"?>
<!-- Generator: Adobe Illustrator 27.9.1, SVG Export Plug-In . SVG Version: 6.00 Build 0)  -->
<svg version="1.1" id="Layer_1" xmlns="http://www.w3.org/2000/svg" xmlns:xlink="http://www.w3.org/1999/xlink" x="0px" y="0px"
	 viewBox="0 0 200 200" style="enable-background:new 0 0 200 200;" xml:space="preserve">
<style type="text/css">
	.st0{fill:#8BCBD5;}
	.st1{fill:#EC8524;}
	.st2{fill:#FED653;}
	.st3{fill:#1F2F3D;}
	.st4{opacity:0.34;}
	.st5{fill:#F58A21;}
	.st6{fill:#D67140;}
	.st7{fill:#C96E43;}
	.st8{fill:#E88F53;}
	.st9{fill:#B54C33;}
	.st10{fill:#F8AE5E;}
	.st11{fill:#FDFCFB;}
	.st12{fill:#F37769;}
	.st13{fill:#F58E4E;}
	.st14{fill:#F9E1C0;}
	.st15{fill:#FAC087;}
	.st16{fill:#FBF9F9;}
	.st17{fill:#4167A0;}
	.st18{fill:#4C74B9;}
	.st19{fill:#7DA9DA;}
	.st20{opacity:0.15;fill:#7DA9DA;}
	.st21{fill:#67BDC6;}
	.st22{fill:#B1DFE5;}
	.st23{fill:#9DD5DD;}
	.st24{fill:#8FD5DC;}
	.st25{fill:#45A4C1;}
	.st26{fill:#77D1F3;}
	.st27{fill:#4AA146;}
	.st28{fill:#FCFBFA;}
	.st29{fill:#FFFFFF;}
	.st30{fill:#F8B032;}
	.st31{fill:#F59B28;}
	.st32{fill:#FBFAF9;}
	.st33{fill:#C45234;}
	.st34{fill:#E45E39;}
	.st35{fill:#939696;}
	.st36{fill:#B7B8B8;}
	.st37{fill:#F05979;}
	.st38{fill:#B7B8B8;stroke:#121C2B;stroke-width:6;stroke-linecap:round;stroke-linejoin:round;stroke-miterlimit:10;}
	.st39{fill:#FBDE84;}
	.st40{fill:#FDC478;}
	.st41{fill:#D88360;}
</style>
<g id="neptune">
	<circle id="silhouette_00000044883222519598698650000008971953887063009973_" class="st17" cx="100" cy="100" r="100"/>
	<g>
		<path class="st18" d="M195.4,100c0,14.7-3.3,28.7-9.3,41.1c-1.9,3.9-4.1,7.7-6.4,11.4c-6.6,10-15,18.6-24.7,25.5
			c-0.4,0.3-0.8,0.6-1.2,0.8c-0.8,0.6-1.7,1.2-2.6,1.7c-0.5,0.3-1,0.6-1.5,0.9c-0.9,0.6-1.9,1.1-2.9,1.7
			c-13.8,7.8-29.8,12.3-46.8,12.3c-1.9,0-3.8-0.1-5.6-0.2c0,0,0,0,0,0c-6.1-0.4-12.1-1.3-17.9-2.8c-16.6-4.2-31.4-12.8-43.3-24.4
			c-0.1-0.1-0.1-0.1-0.2-0.2c-3-2.9-5.8-6.1-8.4-9.4c-0.1-0.2-0.2-0.3-0.3-0.5c-10.2-13.2-17-29.2-19-46.7
			c-0.4-3.7-0.7-7.4-0.7-11.1V100c0-14.1,3.1-27.5,8.6-39.6c1.3-2.9,2.7-5.6,4.3-8.3C34,23.7,64.8,4.6,100,4.6
			C152.7,4.6,195.4,47.3,195.4,100z"/>
		<g>
			<path class="st19" d="M182.1,52.4c-24.2,18.7-57.4,25.5-87.8,24c-27.6-1.6-54.5-9.5-81.1-16c1.3-2.9,2.7-5.6,4.3-8.3
				c64.9,15.2,96.2,10.9,159.5-7.9C178.9,46.8,180.7,49.5,182.1,52.4z"/>
			<path class="st19" d="M186.1,141.1c-1.9,3.9-4.1,7.7-6.4,11.4c-18.7,0.5-34.6,11.8-52.9,14.1c-6.8,1-13.6,1.3-20.5,0.9
				c-24.3-2.4-49.4-7.6-73.2,0.4c-3-2.9-5.8-6.1-8.4-9.4c-0.1-0.2-0.2-0.3-0.3-0.5c49.4-21.3,80.3,12.7,132.6-10.4
				C166.1,144.3,176.3,140,186.1,141.1z"/>
			<path class="st19" d="M44.7,116.1c-12.8-3.7-26-7.6-39.4-4.8c-0.4-3.7-0.7-7.4-0.7-11.1c0.2,0,0.3-0.1,0.5-0.1
				c11.9-1.9,23.5,1.2,34.7,5C40.7,109.2,42.1,112.9,44.7,116.1z"/>
			<path class="st19" d="M156,92.8c11.4-7.2,21.3-17.2,34.3-21.5c1,3.1,2,6.3,2.4,9.6c-11.2,3.5-20,11.8-29.8,17.7
				C165,92.7,160.5,92.4,156,92.8z"/>
			<path class="st19" d="M80.7,52.6c-10.9,0.2-34-5-36.6-17.7c0.7-0.5,1.1,0.3,1.5,0.7c9.3,7.3,21.8,8.9,33.2,8.3
				c8.6-0.7,18.6-2.6,24.2-9.8c4.1-5.9-3.4-10.3-8.6-10.3c-5.8-0.4-13.3,0.3-16.8,5.6c-0.2,0.4-0.3,0.9-0.9,0.8
				C76.2,30,76.1,29.5,76,29c-0.3-6.3,6.7-9.5,11.8-10.8C131.8,10.2,125,53.7,80.7,52.6z"/>
			<path class="st19" d="M75.2,37.6c-8.7,3-25.4-4.1-15.9-14.5c5.3-5.7,18.2-10,25.7-9.2c-5.4,2.1-10.7,4.3-14.9,8.3
				C63,28.9,66.6,35.6,75.2,37.6z"/>
		</g>
		<path class="st19" d="M155.5,177.5C155.5,177.5,155.6,177.5,155.5,177.5c-11.5-3.9-24.5-2.3-36.1,0.8
			c-14.4,4.4-27.8,12.3-42.7,14.2c5.7,1.4,11.6,2.3,17.6,2.7c0,0,0,0,0,0c0.3,0,0.6,0,0.9,0c1.4-0.3,2.8-0.8,4.1-1.5
			c14.2-5.6,29.3-11.3,44.9-9.3h0c0,0,0.1,0,0.1-0.1L155.5,177.5z"/>
		<g>
			<g>
				<g>
					<path class="st3" d="M46,72.6c14.8-0.7,29.2,1.6,43.4,5.4c5.6,1.5,11.4,1.5,17,0c14.3-3.9,28.8-6.2,43.6-5.7
						c8.6,0.3,17.2,1.3,25.8,2c1.8,0.1,3.6,0.1,5.2,0.6c0.9,0.3,1.9,1.5,2,2.3c0.2,3.4,0.3,6.8-0.1,10.1c-0.3,2.4-0.8,5-3.7,6
						c-0.5,0.2-0.8,1.3-1,2c-1.2,4.7-2.3,9.4-3.7,14.1c-2.8,9.3-9.3,14.7-18.8,16.7c-8.9,1.9-17.8,2.1-26.7,0.3
						c-9-1.8-15.1-7.2-18.8-15.3c-2.3-4.9-4-10.1-5.8-15.2c-1.5-4.3-3.9-5.7-8.3-4.6c-2.5,0.6-3.1,2.7-3.8,4.7
						c-1.8,4.9-3.5,9.9-5.6,14.6c-4.6,10.4-12.9,15.6-24.1,16.6c-8.1,0.8-16,0.4-23.9-1.4c-10.3-2.4-16.7-8.6-18.9-18.9
						c-0.9-4.2-1.8-8.3-2.7-12.5c-0.1-0.5-0.3-1.1-0.6-1.3c-3.3-1.5-3.4-4.6-3.8-7.5c-0.3-2.8-0.3-5.6-0.4-8.4c-0.1-1.9,1-2.8,2.8-3
						c5.5-0.6,11-1.4,16.5-1.7C36.5,72.4,41.3,72.6,46,72.6z"/>
				</g>
			</g>
		</g>
		<g>
			<g>
				<path class="st3" d="M83.8,153.6c-6-2.8-9.8-8.2-10.7-15.6c-0.4-3,1.1-5.1,3.5-5.4c2.5-0.3,4.3,1.2,4.9,4.1
					c1.8,8.4,9,12,16.9,8.4c2.5-1.1,5.1-0.5,6.2,1.5c1.1,1.9,0.4,4.2-2.1,5.7C96.9,155.7,90.9,156.5,83.8,153.6z"/>
			</g>
		</g>
		<g>
			<path class="st3" d="M90.1,84.7c0,0-3.7,13.6-7.5,23.1c-0.6,1.6-1.3,3.1-2.1,4.4c-1.4,2.5-3.2,4.5-6.2,6c-2,1-4.5,1.9-7.8,2.4
				c-2.3,0.4-4.9,0.7-8,0.8c-2.1,0.1-4.4,0.1-6.9,0.1c-1.9,0-3.8-0.1-6-0.2c-2-0.1-3.9-0.4-5.6-0.8c-22.8-5.8-20.5-40.6-20.5-40.6
				s1-1,6-1.8c2.5-0.4,6-0.8,10.9-0.9c2.1-0.1,4.3-0.1,6.9-0.1c1.7,0,3.6,0,5.5,0.1c0.9,0,1.9,0,2.8,0.1c3.1,0.1,6.1,0.3,8.9,0.6
				c3.1,0.3,6,0.7,8.6,1.1C82.6,81.4,90.1,84.7,90.1,84.7z"/>
		</g>
		<path class="st20" d="M51.7,121.6c-1.9,0-3.8-0.1-6-0.2c-2-0.1-3.9-0.4-5.6-0.8L25.6,78.3c2.5-0.4,6-0.8,10.9-0.9L51.7,121.6z"/>
		<path class="st20" d="M66.6,120.7c-2.3,0.4-4.9,0.7-8,0.8L43.4,77.3c1.7,0,3.6,0,5.5,0.1c0.9,0,1.9,0,2.8,0.1L66.6,120.7z"/>
		<path class="st20" d="M147.4,121.6c-1.9,0-3.8-0.1-6-0.2c-2-0.1-3.9-0.4-5.6-0.8l-14.5-42.3c2.5-0.4,6-0.8,10.9-0.9L147.4,121.6z"
			/>
		<path class="st20" d="M162.3,120.7c-2.3,0.4-4.9,0.7-8,0.8l-15.2-44.2c1.7,0,3.6,0,5.5,0.1c0.9,0,1.9,0,2.8,0.1L162.3,120.7z"/>
	</g>
</g>
</svg>
