<?xml version="1.0" encoding="utf-8"?>
<!-- Generator: Adobe Illustrator 27.9.1, SVG Export Plug-In . SVG Version: 6.00 Build 0)  -->
<svg version="1.1" id="Layer_1" xmlns="http://www.w3.org/2000/svg" xmlns:xlink="http://www.w3.org/1999/xlink" x="0px" y="0px"
	 viewBox="0 0 200 200" style="enable-background:new 0 0 200 200;" xml:space="preserve">
<style type="text/css">
	.st0{fill:#8BCBD5;}
	.st1{fill:#EC8524;}
	.st2{fill:#FED653;}
	.st3{fill:#1F2F3D;}
	.st4{opacity:0.34;}
	.st5{fill:#F58A21;}
	.st6{fill:#D67140;}
	.st7{fill:#C96E43;}
	.st8{fill:#E88F53;}
	.st9{fill:#B54C33;}
	.st10{fill:#F8AE5E;}
	.st11{fill:#FDFCFB;}
	.st12{fill:#F37769;}
	.st13{fill:#F58E4E;}
	.st14{fill:#F9E1C0;}
	.st15{fill:#FAC087;}
	.st16{fill:#FBF9F9;}
	.st17{fill:#4167A0;}
	.st18{fill:#4C74B9;}
	.st19{fill:#7DA9DA;}
	.st20{opacity:0.15;fill:#7DA9DA;}
	.st21{fill:#67BDC6;}
	.st22{fill:#B1DFE5;}
	.st23{fill:#9DD5DD;}
	.st24{fill:#8FD5DC;}
	.st25{fill:#45A4C1;}
	.st26{fill:#77D1F3;}
	.st27{fill:#4AA146;}
	.st28{fill:#FCFBFA;}
	.st29{fill:#FFFFFF;}
	.st30{fill:#F8B032;}
	.st31{fill:#F59B28;}
	.st32{fill:#FBFAF9;}
	.st33{fill:#C45234;}
	.st34{fill:#E45E39;}
	.st35{fill:#939696;}
	.st36{fill:#B7B8B8;}
	.st37{fill:#F05979;}
	.st38{fill:#B7B8B8;stroke:#121C2B;stroke-width:6;stroke-linecap:round;stroke-linejoin:round;stroke-miterlimit:10;}
	.st39{fill:#FBDE84;}
	.st40{fill:#FDC478;}
	.st41{fill:#D88360;}
</style>
<g id="mars">
	<circle id="silhouette_00000145035168365637093990000011652294304819983772_" class="st33" cx="100" cy="100" r="100"/>
	<g>
		<circle class="st34" cx="100" cy="100" r="95"/>
		<g>
			<path class="st33" d="M146.9,35.1c-2.9,5.6,0,13.2,13,13.4c13,0.2,11.7,10.7,27.1,13.3c-4.6-10.5-11.1-20-19-28.1
				c-0.9-0.3-1.7-0.5-2.4-0.9c-3.1-1.4-6.5-2.1-9.9-1.7C152,31.4,148.3,32.4,146.9,35.1z"/>
			<path class="st33" d="M123.4,184.2c-23-3.2-21.9,0.8-18.1-12.7c3.7-13.5-13.4-16.4-28.9-14.4c-15.5,2-24.1-0.9-14.6-8.7
				c9.5-7.8,11.1-15.1-6.8-19.2c-11.1-2.6-21.6,2.7-28.1,7.1c-3.9,2.6-6.9,6.3-9,10.5l0,0c7.2,12.9,17.4,24,29.6,32.3
				C62.4,189.1,80.5,195,100,195c12.5,0,24.4-2.4,35.3-6.8C132.9,186.4,129.1,185,123.4,184.2z"/>
			<path class="st33" d="M45.2,46.1c17.9-5.9,4.6-10,22.8-8.8s15-10.9,26.5-13.5c11.6-2.7,22.5,4.5,25.4-8.9
				c0.7-3.2,0.5-5.7-0.3-7.8C113.4,5.7,106.8,5,100,5c-21.6,0-41.6,7.2-57.6,19.4c-6,4.7-11.4,10-16.1,15.9
				C27.6,43.9,31.7,50.6,45.2,46.1z"/>
			<path class="st33" d="M21.4,124.4c1.1-14.5,2.7-20.2,15.4-26.7c12.8-6.4,0.5-29.9-20.3-18.7c-4,2.2-7.3,4.6-9.9,7.1
				c-0.7,4.5-1,9.2-1,13.9c0,11.1,1.9,21.7,5.3,31.6C14.9,133.2,20.7,133.8,21.4,124.4z"/>
			<path class="st33" d="M189.9,69.2c-2.4,2.1-4.5,5-5.8,9.1c-6.4,19.1-15.2,12.4-18.6,22.7c-2.6,7.9,12.5,19.6,27.2,19.8
				c1.5-6.7,2.3-13.7,2.3-20.8C195,89.2,193.2,78.8,189.9,69.2z"/>
			<path class="st33" d="M185.3,141.8c-3-1-6.7-1.8-11.5-2.2c-30.2-2.7-35.4,7.3-26.1,17.7c7.1,7.9,13.9,7.1,16,13.2
				C172.6,162.4,180,152.7,185.3,141.8z"/>
		</g>
		<g>
			<g>
				<g>
					<path class="st3" d="M127.9,101l33.8-6c3.6-0.6,6.1-4.1,5.4-7.8v0c-0.6-3.6-4.1-6.1-7.8-5.4l-33.8,6c-3.6,0.6-6.1,4.1-5.4,7.8
						v0C120.8,99.2,124.3,101.6,127.9,101z"/>
				</g>
				<g>
					<circle class="st3" cx="138.2" cy="102.5" r="15.8"/>
				</g>
				<circle class="st29" cx="132.7" cy="99.6" r="4.5"/>
			</g>
			<g>
				<g>
					<path class="st3" d="M72.1,101l-33.8-6c-3.6-0.6-6.1-4.1-5.4-7.8l0,0c0.6-3.6,4.1-6.1,7.8-5.4l33.8,6c3.6,0.6,6.1,4.1,5.4,7.8
						v0C79.2,99.2,75.7,101.6,72.1,101z"/>
				</g>
				<g>
					<circle class="st3" cx="61.8" cy="102.5" r="15.8"/>
				</g>
				<circle class="st29" cx="67.3" cy="99.6" r="4.5"/>
			</g>
		</g>
		<g>
			<g>
				<g>
					<path class="st3" d="M114.9,143.3c-1.4,0-2.8-0.6-3.8-1.7c-1.5-1.8-3.3-3.1-5.3-4.1c-3.6-1.7-7.7-1.7-11.4-0.2
						c-2.1,0.9-4.1,2.4-5.7,4.2c-1.8,2.1-5,2.3-7.1,0.5c-2.1-1.8-2.3-5-0.5-7.1c2.6-3,5.8-5.3,9.2-6.8c3-1.3,6.2-2,9.5-2
						c3.5,0,6.9,0.8,10.1,2.3c3.3,1.5,6.2,3.7,8.6,6.6c1.8,2.1,1.6,5.2-0.5,7.1C117.3,142.9,116.1,143.3,114.9,143.3z"/>
				</g>
			</g>
		</g>
		<ellipse class="st33" cx="52.1" cy="66.7" rx="6" ry="4.4"/>
		<path class="st33" d="M118.6,41.2c0,0-10.3-1.9-15.2,5.4s0.1,11.9,13,11.7c12.9-0.2,16.7,5.5,23.4,4
			C146.4,60.8,131.3,39.3,118.6,41.2z"/>
		<ellipse transform="matrix(0.3124 -0.95 0.95 0.3124 -60.0906 228.4993)" class="st12" cx="127.8" cy="155.8" rx="5.3" ry="7.4"/>
		<circle class="st12" cx="33.7" cy="61.7" r="7.4"/>
		<ellipse class="st12" cx="130.8" cy="176.1" rx="7.4" ry="4.8"/>
	</g>
</g>
</svg>
