<?xml version="1.0" encoding="utf-8"?>
<!-- Generator: Adobe Illustrator 27.9.1, SVG Export Plug-In . SVG Version: 6.00 Build 0)  -->
<svg version="1.1" id="Layer_1" xmlns="http://www.w3.org/2000/svg" xmlns:xlink="http://www.w3.org/1999/xlink" x="0px" y="0px"
	 viewBox="0 0 200 200" style="enable-background:new 0 0 200 200;" xml:space="preserve">
<style type="text/css">
	.st0{fill:#141317;}
	.st1{fill:#FED653;}
	.st2{fill:#EDA229;}
	.st3{fill:#F7C22D;}
	.st4{fill:#D4A01C;}
	.st5{fill:#FAFAFA;}
	.st6{fill:#FFFFFF;}
</style>
<g>
	<circle class="st1" cx="99.8" cy="100" r="99.6"/>
	<g>
		<g>
			<polygon class="st1" points="57.6,86.2 57.6,86.2 57.6,86.2 57.6,86.2 57.6,86.2 57.7,86.2 57.7,86.2 57.6,86.2 57.6,86.2 			"/>
			<polygon class="st1" points="158.4,19.4 158.4,19.4 158.4,19.4 			"/>
			<polygon class="st1" points="90.3,33.7 90.3,33.7 90.3,33.7 			"/>
			<polygon class="st1" points="123.9,66.2 123.9,66.2 123.9,66.2 			"/>
		</g>
		<path class="st2" d="M17.2,155.5c0.8,0.1,1.2,0.7,1.8,1.1c4.4,3.1,9.1,5.8,14,8.1c2.2,1,4.4,2,6.6,2.8c2.3,0.9,4.7,1.6,7.1,2.4
			c3,0.9,6.1,1.7,9.2,2.3c3.1,0.6,6.2,1.2,9.4,1.4c1.3,0.1,2.7,0.4,4,0.3c0.4,0,0.5,0.2,0.6,0.6c0.3,2.9,1.4,5.5,3.6,7.5
			c2.5,2.3,5.5,3.3,8.9,2.9c4.4-0.6,7.4-3.1,9.1-7.1c0.5-1.3,0.8-2.6,0.7-4c-0.1-0.8,0.2-1.1,0.9-1.1c3-0.4,5.8-1.1,8.7-1.9
			c3.3-0.9,6.5-2,9.7-3.3c0.1,0,0.2-0.1,0.2-0.1c1.1-0.4,1.1-0.4,1.2,0.8c0.7,5.8,3.5,10.2,8.6,12.9c4.3,2.3,8.9,2.5,13.5,0.4
			c5.2-2.5,8.3-6.5,9.1-12.2c0.8-5.2-0.7-9.7-4.4-13.5c-0.7-0.8-1.5-1.6-2.5-2.1c-0.5-0.3-0.5-0.5-0.1-0.9c0.6-0.6,1.3-1.1,1.9-1.7
			c0.3-0.3,0.6-0.1,0.9,0c2.4,1.2,5,2,7.6,2.7c3.4,0.8,6.8,0.8,10.2,0.5c4.2-0.4,8.1-1.7,11.8-3.7c3.3-1.8,6.2-4.1,8.7-6.9
			c2.8-3.2,5-6.7,6.5-10.6c1-2.6,1.6-5.4,2-8.2c0.7-6.4-0.5-12.4-3.3-18.1c-1.4-2.9-3.2-5.6-5.5-8c-1.4-1.4-2.8-2.7-4.4-3.9
			c-0.4-0.3-0.5-0.5-0.4-1c0.5-2.6,1-5.1,1.2-7.7c0.2-1.7,0.3-3.5,0.4-5.2c0-0.6,0.2-0.9,0.8-1.2c4.2-1.7,6.7-4.7,7.3-9.2
			c0.8-5.6-3-10.7-7.9-11.9c-1.5-0.4-1.7-1-1.9-2.2c-0.7-4-1.7-7.9-2.9-11.8c-1.7-5.2-3.6-10.3-6.2-15.1c-1.5-2.9-3.1-5.7-4.9-8.4
			c-0.3-0.4-0.6-0.9-0.6-1.4c0.9,0.2,1.5,1,2.2,1.4c0.1,0.2,0.3,0.3,0.5,0.4c1.5,1.2,3,2.5,4.6,3.7c0.5,0.6,1,1,1.6,1.4
			c1.2,1.1,2.3,2.2,3.5,3.4c0.6,0.6,1.1,1.2,1.7,1.8c1.1,1.3,2.2,2.5,3.4,3.7c0.4,0.5,0.8,0.9,1.2,1.4c1.3,1.6,2.6,3.3,3.9,4.9
			c0,0.1,0,0.1,0.1,0.1c2.4,3.3,4.6,6.8,6.6,10.4c0.9,1.7,1.8,3.4,2.7,5.1c0.1,0.5,0.3,1,0.6,1.4c0.5,1.3,1,2.5,1.6,3.7
			c0.6,1.7,1.3,3.4,1.9,5.1c0.3,1,0.6,1.9,0.9,2.9c0.7,2.4,1.4,4.9,2.1,7.3c0.4,1.8,0.7,3.5,1.1,5.3c0.3,1.7,0.5,3.4,0.8,5.1
			c0.2,1.7,0.3,3.4,0.5,5.1c0.1,1.7,0.1,3.4,0.2,5.1c0,1.7,0,3.4,0,5.1c-0.1,1.7-0.2,3.4-0.3,5.1c-0.3,1.7-0.5,3.5-0.6,5.3
			c-0.3,1.7-0.6,3.4-0.8,5.1c-0.4,1.7-0.7,3.4-1.1,5.1c-0.9,3.4-1.9,6.8-3.1,10.2c-0.7,1.7-1.4,3.4-2.1,5.1
			c-0.4,0.8-0.7,1.6-1.1,2.4c-0.3,0.4-0.5,0.8-0.6,1.3c-0.3,0.5-0.6,1.1-0.9,1.6c-0.9,1.7-1.8,3.4-2.7,5.1c-0.3,0.4-0.6,0.7-0.7,1.2
			c-0.8,1.3-1.6,2.6-2.4,3.9c-2.4,3.5-5,6.9-7.6,10.2c0,0.1-0.1,0.1-0.1,0.2c-1.5,1.7-3,3.3-4.6,5c-0.2,0.1-0.4,0.3-0.5,0.5
			c-1.6,1.5-3.3,3.1-4.9,4.6c-0.1,0.1-0.1,0.1-0.2,0.2c-1.7,1.4-3.4,2.8-5.1,4.1c-0.4,0.2-0.8,0.4-1,0.8c-1.3,1-2.7,1.9-4,2.9
			c-1.1,0.7-2.1,1.4-3.2,2c-0.3,0.1-0.6,0.3-0.9,0.5c-0.4,0.2-0.8,0.4-1.2,0.7c-1.7,0.9-3.4,1.9-5.1,2.8c-0.8,0.3-1.5,0.7-2.3,1.1
			c-0.1,0.1-0.2,0.1-0.3,0.2c-0.9,0.3-1.7,0.7-2.5,1.1c-1.7,0.7-3.4,1.4-5.1,2.1c-3.4,1.2-6.8,2.2-10.2,3.2
			c-1.7,0.4-3.5,0.8-5.2,1.2c-1.7,0.2-3.4,0.5-5.1,1c-1.6,0.2-3.2,0.2-4.7,0.5c-0.3-0.1-0.7,0-1,0.2c-1.6-0.1-3.1,0.1-4.6,0.2
			c-1.8,0-3.6,0-5.4,0c-1.6,0-3.3-0.1-4.9-0.1c-1.7-0.3-3.4-0.4-5.1-0.5c-1.8-0.2-3.5-0.5-5.3-0.7c-1.7-0.3-3.4-0.7-5.1-1
			c-1.7-0.4-3.4-0.9-5.1-1.3c-0.7-0.3-1.5-0.5-2.3-0.7c-1.3-0.2-2.4-0.8-3.7-1.1c-0.6-0.4-1.3-0.7-2.1-0.7c-0.7-0.4-1.5-0.7-2.3-0.9
			c-0.1-0.1-0.1-0.2-0.2-0.3c-1.6-0.7-3.3-1.4-4.9-2.1c-0.1,0-0.2-0.1-0.4-0.1c-1.5-1-3.1-1.7-4.8-2.5c-0.1,0-0.1,0-0.2-0.1
			c-0.7-0.4-1.4-0.8-2.1-1.2c-0.4-0.3-0.9-0.6-1.4-0.8c-0.6-0.3-1.2-0.7-1.7-1c-0.4-0.4-0.9-0.6-1.4-0.9c-0.4-0.4-0.9-0.7-1.4-1
			c0,0-0.1-0.1-0.1-0.1c-0.5-0.5-1.2-0.9-1.8-1.2c-0.6-0.5-1.3-0.9-1.9-1.4c-0.5-0.5-1.1-0.9-1.7-1.3c-0.3-0.3-0.6-0.6-1.1-0.8
			c-1.2-1-2.4-2-3.6-3c-0.5-0.6-1-1.1-1.7-1.5c-0.6-0.6-1.3-1.3-1.9-1.9c-2.3-2.1-4.3-4.5-6.4-6.7c-0.5-0.7-1-1.4-1.7-2
			c-0.7-1.1-1.6-2.1-2.4-3.1C19,158.1,18.1,156.8,17.2,155.5z"/>
		<path class="st2" d="M158.4,19.4c0,0-0.1,0-0.1,0c0,0,0.1-0.1,0.1-0.1C158.4,19.3,158.4,19.3,158.4,19.4
			C158.4,19.4,158.4,19.4,158.4,19.4z"/>
		<path class="st3" d="M136.7,158.4c1.8,1.7,2.9,3.8,3.3,6.2c0.5,3-0.1,5.9-1.9,8.5c-2.5,3.6-6,5.4-10.4,5.1c-2.7-0.2-5.1-1.2-7-3.1
			c0-0.2,0-0.4-0.1-0.6c-2.1-3.3-2.2-6.8-0.7-10.4c1.8-4.5,5.7-7,10.4-7.3c2.1-0.1,4.1,0.5,5.9,1.5
			C136.4,158.5,136.5,158.7,136.7,158.4z"/>
		<path class="st3" d="M38.1,64.3c0,0-0.1-0.1-0.1-0.1c0-0.3,0-0.5-0.2-0.8c-1.3-2.1-1.6-4.4-1.4-6.8c0.2-3.5,1.9-6.2,4.6-8.2
			c3.6-2.6,7.6-3,11.8-1.2c0.5,0.2,0.8,0.7,1.4,0.7c1.8,1.7,2.7,3.8,3.1,6.1c0.5,3-0.1,5.8-1.9,8.2c-2,2.8-4.6,4.6-8.2,5
			c-3.3,0.4-6.1-0.7-8.7-2.6c-0.1-0.1-0.1-0.2-0.2-0.3C38.3,64.4,38.2,64.3,38.1,64.3z"/>
		<path class="st3" d="M91.2,20.6c1.4,1.4,2.3,3.1,2.8,5c1.6,5.8-1.3,11.7-6.8,13.8c-2.7,1.1-5.5,1.1-8.2-0.1
			c-1.2-0.5-2.3-1.2-3.3-2c-0.2-0.1-0.3-0.3-0.3-0.5c0-0.2,0-0.3-0.2-0.4c0,0,0,0,0,0c-0.5-1.4-1.1-2.7-1.3-4.2
			c-0.6-4.6,1-8.2,4.6-10.9c3.8-2.9,8-2.9,12.3-0.8C90.9,20.7,91,20.8,91.2,20.6z"/>
		<path class="st3" d="M85.7,168.8c1.8,1.6,2.4,3.6,2.1,5.9c-0.5,3.3-2.4,5.2-5.6,5.9c-2.5,0.5-4.6-0.3-6.4-2.1c0.3-0.2,0-0.4,0-0.6
			c-0.3-0.8-0.7-1.7-0.7-2.6c0-2.6,1.1-4.6,3.2-6.1c1.5-1.1,3.3-1.4,5.1-1.1C84.2,168.2,84.8,168.8,85.7,168.8z"/>
		<path class="st3" d="M93.2,73.2c1.9,2.2,2.4,5.5,0.7,8.1c-2,3.2-5.3,4.3-8.8,2.9c-0.6-0.2-1.2-0.5-1.6-1c0.2-0.3-0.1-0.1-0.2-0.2
			c0,0,0,0,0,0c-0.1-0.1-0.1-0.1-0.2-0.2c0,0,0,0,0,0c0-0.2-0.1-0.4-0.2-0.7c-0.6-1.2-0.9-2.4-0.8-3.7c0.2-2,1-3.5,2.5-4.8
			c1.7-1.5,3.6-1.9,5.7-1.6c0.9,0.1,1.7,0.8,2.6,0.9c0,0,0,0,0,0C93.1,73.1,93,73.3,93.2,73.2z"/>
		<path class="st3" d="M123.7,82.7c2,2.2,2.2,5.7,0.5,8.2c-2.4,3.7-7.5,4.2-10.6,1.3c0-0.2,0-0.3-0.2-0.4l0,0c0-0.4-0.4-0.6-0.4-0.9
			c-0.7-3-0.4-6.3,2.7-8.4c1.4-0.9,3-1.2,4.7-1.1c1.1,0.1,1.9,0.6,2.9,0.9c0,0,0,0,0,0c0.1,0.1,0.1,0.1,0.2,0.2c0,0,0,0,0,0
			C123.6,82.6,123.7,82.7,123.7,82.7z"/>
		<path class="st3" d="M42.9,139.6c1.9,2,2.5,4.5,1.7,7c-0.8,2.6-2.7,4.3-5.4,4.7c-2.3,0.4-4.4-0.2-6.1-1.9c0.3-0.3,0-0.5-0.1-0.7
			c-0.8-1.4-0.9-2.9-0.6-4.6c0.8-4.4,6.2-6.9,10-4.7C42.5,139.6,42.7,139.9,42.9,139.6z"/>
		<path class="st3" d="M176.6,64.3c1.8,1.9,2.4,4.1,1.6,6.5c-1.2,3.9-4.2,5.6-8.1,5c-1.4-0.2-2.7-0.9-3.6-2c0.3-0.2,0-0.4,0-0.6
			c-0.5-1.4-0.8-2.7-0.5-4.3c0.8-4.1,4.8-6.6,8.9-5.3c0.5,0.2,1,0.6,1.5,0.6c0,0,0,0,0,0C176.5,64.1,176.6,64.2,176.6,64.3z"/>
		<path class="st2" d="M136.7,158.4c-0.2,0.3-0.3,0.1-0.5,0c-1.9-1-3.8-1.7-5.9-1.5c-4.8,0.3-8.6,2.8-10.4,7.3
			c-1.4,3.6-1.3,7.1,0.7,10.4c0.1,0.2,0.1,0.4,0.1,0.6c-2.3-2.2-3.6-4.8-3.7-8c-0.2-4.9,2-8.4,6.1-10.7c4-2.3,8.8-1.9,12.6,1.1
			C136.1,157.8,136.5,158,136.7,158.4z"/>
		<path class="st2" d="M54.2,47.9c-0.6,0.1-0.9-0.5-1.4-0.7c-4.1-1.8-8.2-1.4-11.8,1.2c-2.7,2-4.4,4.7-4.6,8.2
			c-0.2,2.4,0.2,4.7,1.4,6.8c0.1,0.2,0.2,0.5,0.2,0.8c-4.5-4-5.2-11.9,0-16.7C42.5,43.2,50.2,43.3,54.2,47.9z"/>
		<path class="st2" d="M91.2,20.6c-0.1,0.2-0.3,0.1-0.4,0c-4.2-2.2-8.4-2.2-12.3,0.8c-3.5,2.7-5.2,6.3-4.6,10.9
			c0.2,1.5,0.8,2.8,1.3,4.2c-1.1-0.5-1.6-1.6-2-2.6c-1.8-3.9-1.6-7.8,0.8-11.5c3.1-4.7,9.1-6.4,14.2-4
			C89.2,18.8,90.3,19.6,91.2,20.6z"/>
		<path class="st2" d="M93.1,73c-0.9-0.1-1.7-0.8-2.6-0.9c-2.2-0.3-4.1,0.2-5.7,1.6c-1.5,1.3-2.4,2.9-2.5,4.8
			c-0.1,1.3,0.2,2.5,0.8,3.7c0.1,0.2,0.2,0.4,0.2,0.7c-2.4-1.9-3.1-5.8-1.5-8.4c2-3.3,5.3-4.5,8.9-3.2C91.6,71.6,92.4,72.2,93.1,73z
			"/>
		<path class="st2" d="M123.4,82.4c-1-0.3-1.8-0.8-2.9-0.9c-1.7-0.1-3.3,0.2-4.7,1.1c-3.2,2.1-3.5,5.4-2.7,8.4
			c0.1,0.3,0.5,0.5,0.4,0.9c-0.9-0.5-1.3-1.4-1.7-2.2c-1.1-2.9,0-6.5,2.6-8.2c2.9-1.9,6.4-1.7,8.8,0.6
			C123.3,82.1,123.3,82.2,123.4,82.4z"/>
		<path class="st2" d="M42.9,139.6c-0.3,0.3-0.4,0-0.6-0.1c-3.8-2.2-9.2,0.4-10,4.7c-0.3,1.6-0.1,3.1,0.6,4.6
			c0.1,0.2,0.4,0.4,0.1,0.7c-2.9-2.7-2.9-7.1-0.2-9.9C35.7,136.7,40.2,136.8,42.9,139.6z"/>
		<path class="st2" d="M176.4,64.1c-0.6,0-1-0.4-1.5-0.6c-4-1.3-8.1,1.2-8.9,5.3c-0.3,1.5,0,2.9,0.5,4.3c0.1,0.2,0.3,0.4,0,0.6
			c-2.4-2.5-2.6-6.6-0.4-9.1c2.5-2.9,6.4-3.5,9.4-1.4C175.9,63.4,176.2,63.7,176.4,64.1z"/>
		<path class="st2" d="M85.7,168.8c-0.8,0-1.5-0.6-2.3-0.7c-1.9-0.3-3.6,0.1-5.1,1.1c-2.1,1.5-3.1,3.5-3.2,6.1
			c0,0.9,0.4,1.8,0.7,2.6c0.1,0.2,0.3,0.4,0,0.6c-2.2-2.1-2.5-6-0.7-8.7C77.6,166.2,82.9,165.7,85.7,168.8z"/>
		<path class="st4" d="M97.6,70.8c-0.3,0.1-0.1-0.1-0.2-0.2C97.4,70.6,97.5,70.7,97.6,70.8z"/>
		<path class="st4" d="M87.7,80.6c0.1,0,0.3-0.1,0.2,0.2C87.8,80.7,87.8,80.7,87.7,80.6z"/>
		<path class="st4" d="M123.9,66.2c0.1,0,0.3-0.1,0.2,0.2C124,66.3,124,66.3,123.9,66.2z"/>
		<path class="st4" d="M113.5,91.9c0.2,0.1,0.2,0.2,0.2,0.4C113.6,92.1,113.5,92,113.5,91.9z"/>
		<path class="st4" d="M90.3,33.7c0.2,0.1,0.2,0.2,0.2,0.4C90.4,34,90.3,33.9,90.3,33.7z"/>
		<path class="st4" d="M152.6,36.3c-0.1-0.1-0.1-0.1-0.2-0.2C152.4,36.2,152.5,36.3,152.6,36.3z"/>
		<path class="st4" d="M152.7,36.3c-0.1,0.1-0.1,0.1-0.2,0C152.6,36.3,152.7,36.3,152.7,36.3z"/>
		<path class="st4" d="M123.7,82.7c-0.1-0.1-0.1-0.1-0.2-0.2C123.6,82.6,123.7,82.7,123.7,82.7z"/>
		<path class="st4" d="M38.1,64.3c0.1,0.1,0.1,0.1,0.2,0.2C38.3,64.4,38.2,64.3,38.1,64.3z"/>
		<path class="st4" d="M123.6,82.5c-0.1-0.1-0.1-0.1-0.2-0.2C123.4,82.4,123.5,82.5,123.6,82.5z"/>
		<path class="st4" d="M176.6,64.3c-0.1-0.1-0.1-0.1-0.2-0.2C176.5,64.1,176.6,64.2,176.6,64.3z"/>
		<path class="st4" d="M87.5,80.4c0.1,0.1,0.1,0.1,0.2,0.2C87.7,80.6,87.6,80.5,87.5,80.4z"/>
	</g>
	<path class="st3" d="M145.8,29.5c2.8,3.3,4.6,7,5.1,11.3c0.5,4.1-0.1,8.1-2,11.8c-1.3,2.6-3,4.8-5.2,6.7c-2.5,2.2-5.3,3.6-8.5,4.4
		c-2.4,0.6-4.8,0.7-7.3,0.5c-3.1-0.3-5.9-1.3-8.5-2.9c-0.8-0.5-1.6-1-2.3-1.7c0.2-0.3-0.1-0.1-0.2-0.2c0,0,0,0,0,0
		c0-0.3-0.1-0.5-0.2-0.7c-0.6-1.1-1.3-2.2-1.9-3.5c-1.9-4.3-2.3-8.6-1.3-13.2c1.2-5.3,4.1-9.5,8.6-12.6c2.7-1.9,5.7-2.9,8.9-3.4
		c3.3-0.5,6.4-0.1,9.5,1c1.7,0.6,3.2,1.5,4.8,2.3c0,0,0,0,0,0c0.1,0.1,0.1,0.1,0.2,0.2c0,0,0,0,0,0
		C145.6,29.6,145.7,29.6,145.8,29.5z"/>
	<path class="st2" d="M145.4,29.3c-1.6-0.8-3.1-1.7-4.8-2.3c-3.1-1.1-6.3-1.5-9.5-1c-3.2,0.5-6.2,1.5-8.9,3.4
		c-4.5,3.1-7.4,7.3-8.6,12.6c-1,4.5-0.6,8.9,1.3,13.2c0.5,1.2,1.2,2.3,1.9,3.5c0.1,0.2,0.3,0.4,0.2,0.7c-3.7-3.2-6.1-7.3-7-12.1
		c-1.1-6.1,0.3-11.6,4-16.5c3.7-4.8,8.6-7.6,14.7-8.1c6.4-0.6,11.7,1.6,16.3,6C145.2,28.8,145.4,29,145.4,29.3z"/>
</g>
</svg>
