<?xml version="1.0" encoding="utf-8"?>
<!-- Generator: Adobe Illustrator 27.9.1, SVG Export Plug-In . SVG Version: 6.00 Build 0)  -->
<svg version="1.1" id="Layer_1" xmlns="http://www.w3.org/2000/svg" xmlns:xlink="http://www.w3.org/1999/xlink" x="0px" y="0px"
	 viewBox="0 0 200 200" style="enable-background:new 0 0 200 200;" xml:space="preserve">
<style type="text/css">
	.st0{fill:#8BCBD5;}
	.st1{fill:#EC8524;}
	.st2{fill:#FED653;}
	.st3{fill:#1F2F3D;}
	.st4{opacity:0.34;}
	.st5{fill:#F58A21;}
	.st6{fill:#D67140;}
	.st7{fill:#C96E43;}
	.st8{fill:#E88F53;}
	.st9{fill:#B54C33;}
	.st10{fill:#F8AE5E;}
	.st11{fill:#FDFCFB;}
	.st12{fill:#F37769;}
	.st13{fill:#F58E4E;}
	.st14{fill:#F9E1C0;}
	.st15{fill:#FAC087;}
	.st16{fill:#FBF9F9;}
	.st17{fill:#4167A0;}
	.st18{fill:#4C74B9;}
	.st19{fill:#7DA9DA;}
	.st20{opacity:0.15;fill:#7DA9DA;}
	.st21{fill:#67BDC6;}
	.st22{fill:#B1DFE5;}
	.st23{fill:#9DD5DD;}
	.st24{fill:#8FD5DC;}
	.st25{fill:#45A4C1;}
	.st26{fill:#77D1F3;}
	.st27{fill:#4AA146;}
	.st28{fill:#FCFBFA;}
	.st29{fill:#FFFFFF;}
	.st30{fill:#F8B032;}
	.st31{fill:#F59B28;}
	.st32{fill:#FBFAF9;}
	.st33{fill:#C45234;}
	.st34{fill:#E45E39;}
	.st35{fill:#939696;}
	.st36{fill:#B7B8B8;}
	.st37{fill:#F05979;}
	.st38{fill:#B7B8B8;stroke:#121C2B;stroke-width:6;stroke-linecap:round;stroke-linejoin:round;stroke-miterlimit:10;}
	.st39{fill:#FBDE84;}
	.st40{fill:#FDC478;}
	.st41{fill:#D88360;}
</style>
<g id="moon_00000162328344837480381110000012664812338770287287_">
	<path id="silhouette_00000014625252754040217170000013890471749151864988_" class="st30" d="M164.4,162.5c-1.3-1.5-3.1-1.7-5-1.5
		c-3.6,0.3-7.2,0.5-10.8,0.4c-12.3-0.4-23.7-3.8-34.2-10.2c-24.1-14.7-35.5-41.8-32.3-68.1c1.1-8.6,3.7-16.7,7.7-24.4
		c4.2-8.1,9.7-15.2,16.4-21.3c9-8.2,19.4-13.8,30.9-17.5c1.4-0.4,2.7-0.8,3.9-1.7c2.4-1.7,2.8-4.6,1-6.9c-1.1-1.3-2.4-2.2-3.9-2.8
		c-12-5.5-24.5-8.4-36.3-8.5c-9.6-0.2-17.6,0.8-25.6,2.8C61,6.6,47.4,13.4,35.5,23.5C24.7,32.6,16.1,43.4,10,56.1
		C2.5,72-0.8,88.6,0.3,106.2c0.5,9,2.3,17.8,5.1,26.3c5.2,15.6,13.8,29.1,25.5,40.6c11.6,11.4,25.1,19.5,40.7,23.9
		c11.2,3.2,22.7,4,34.3,2.8c8.5-0.9,16.7-3.1,24.5-6.4c11.4-4.9,21.7-11.5,30.5-20.3c1.4-1.4,2.8-2.8,3.7-4.6
		C165.7,166.3,165.6,163.9,164.4,162.5z"/>
	<g>
		<g>
			<g id="moon">
				<path class="st2" d="M95.7,195.2c-7.7,0-15.4-1.1-22.8-3.1c-14.4-4.1-27.4-11.7-38.5-22.6c-11.2-11-19.3-24-24.2-38.6
					c-2.7-8.2-4.4-16.6-4.9-25c-1-16.5,2.1-32.5,9.3-47.6c5.5-11.6,13.6-22.1,24.2-31c11-9.4,24.1-16,38.7-19.6
					C84.6,5.8,91.7,5,99.7,5c0.6,0,1.3,0,1.9,0c11.2,0.1,23.1,2.9,34.3,8c0.9,0.4,1.5,0.8,1.9,1.2c-0.5,0.3-1.3,0.5-2,0.8l-0.3,0.1
					c-12.6,4-23.6,10.2-32.7,18.5c-7.1,6.5-13,14.1-17.5,22.7c-4.3,8.3-7.1,17-8.2,26.1c-3.7,29.2,9.9,57.8,34.6,72.9
					c11.2,6.8,23.5,10.5,36.7,11c0.7,0,1.5,0,2.2,0c3.4,0,6.7-0.3,9.2-0.5c0.1,0,0.3,0,0.4,0c0,0,0,0,0,0c-0.6,1.2-1.7,2.3-2.9,3.5
					c-8,8.1-17.5,14.4-28.9,19.3c-7.5,3.2-15.3,5.2-23.1,6.1C102.1,195.1,98.9,195.2,95.7,195.2C95.7,195.2,95.7,195.2,95.7,195.2z"
					/>
				<g>
					<path class="st29" d="M80,114.5c4.7,18.5,16.3,34.9,32.9,45.1c11.2,6.8,23.5,10.5,36.7,11c0.7,0,1.5,0,2.2,0
						c1.5,0,3-0.1,4.5-0.1c0.4-0.3,0.7-0.7,1.1-1c1.2-1.2,2.3-2.3,2.9-3.5c0,0,0,0,0,0c-0.1,0-0.3,0-0.4,0c-2.5,0.2-5.8,0.5-9.2,0.5
						c-0.7,0-1.5,0-2.2,0c-13.1-0.4-25.5-4.1-36.7-11C96.4,146,85.3,131.3,80,114.5z"/>
					<path class="st29" d="M6.5,110c-1-16.5,2.1-32.5,9.3-47.6c5.5-11.6,13.6-22.1,24.2-31c11-9.4,24.1-16,38.7-19.6
						c7.2-1.8,14.3-2.6,22.4-2.6c0.6,0,1.3,0,1.9,0c10.1,0.1,20.7,2.4,30.9,6.6c0.6-0.2,1.2-0.4,1.9-0.6l0.3-0.1
						c0.8-0.2,1.5-0.5,2-0.8c-0.4-0.4-1.1-0.8-1.9-1.2c-11.3-5.1-23.1-7.9-34.3-8c-0.7,0-1.3,0-1.9,0c-8.1,0-15.2,0.8-22.4,2.6
						c-14.6,3.7-27.6,10.3-38.7,19.6c-10.5,8.9-18.6,19.3-24.2,31C7.4,73.3,4.3,89.3,5.3,105.9c0.5,7.5,1.8,15,4.1,22.4
						C7.8,122.2,6.8,116.1,6.5,110z"/>
				</g>
				<g>
					<g>
						<path class="st3" d="M36.3,79.9c-1.3,0-2.4-0.8-2.8-2c-1.2-3.7-4.3-6.2-8.2-6.7c-3.9-0.5-7.5,1.1-9.6,4.4
							c-0.9,1.4-2.8,1.8-4.2,0.8c-1.4-0.9-1.8-2.8-0.8-4.2c3.4-5.1,9.3-7.8,15.4-7c6.1,0.8,11.1,4.9,13.1,10.8
							c0.5,1.6-0.3,3.3-1.9,3.8C36.9,79.8,36.6,79.9,36.3,79.9z"/>
					</g>
				</g>
				<g>
					<g>
						<path class="st3" d="M72.6,83.4c-1.3,0-2.4-0.8-2.8-2c-1.2-3.7-4.3-6.2-8.2-6.7c-3.9-0.5-7.5,1.1-9.6,4.4
							c-0.9,1.4-2.8,1.8-4.2,0.8c-1.4-0.9-1.8-2.8-0.8-4.2c3.4-5.1,9.3-7.8,15.4-7c6.1,0.8,11.1,4.9,13.1,10.8
							c0.5,1.6-0.3,3.3-1.9,3.8C73.2,83.3,72.9,83.4,72.6,83.4z"/>
					</g>
				</g>
				<g>
					<g>
						<path class="st3" d="M49.3,118c-2.6,0-5.2-0.6-7.6-1.9c-5.4-2.9-8.6-8.5-8.4-14.7c0.1-1.7,1.5-3,3.1-2.9
							c1.7,0.1,2.9,1.5,2.9,3.1c-0.1,3.9,1.8,7.3,5.3,9.2c3.4,1.8,7.4,1.6,10.6-0.7c1.3-1,3.2-0.7,4.2,0.7c1,1.3,0.7,3.2-0.7,4.2
							C55.8,117,52.6,118,49.3,118z"/>
					</g>
				</g>
				<path class="st12" d="M24.8,106c-3.4-2.2-8.2-2.6-12.3-1c-2.5,0.9-4.1,2.3-4.1,3.9c0,2.1,1.1,3.4,3.1,4.3
					c3.7,1.8,9.3,1.7,13-0.4C27.7,110.9,27.9,107.9,24.8,106z"/>
			</g>
			
				<ellipse transform="matrix(0.4208 -0.9072 0.9072 0.4208 -122.9735 175.0291)" class="st30" cx="75.6" cy="183.8" rx="3.1" ry="5.6"/>
			<path class="st30" d="M42.5,151.4c3.1,1.5,5.5,3.7,6.4,5.8c0-0.1,0.1-0.2,0.1-0.2c1.3-2.7-1.7-6.8-6.5-9s-9.8-1.9-11.1,0.9
				c-0.4,1-0.4,2.1,0.1,3.3C33,149.5,37.8,149.2,42.5,151.4z"/>
			<path class="st30" d="M75.9,136.7c3.1,1.5,5.5,3.7,6.4,5.8c0-0.1,0.1-0.2,0.1-0.2c1.3-2.7-1.7-6.8-6.5-9s-9.8-1.9-11.1,0.9
				c-0.4,1-0.4,2.1,0.1,3.3C66.3,134.9,71.1,134.6,75.9,136.7z"/>
		</g>
		<circle class="st29" cx="63.6" cy="16.8" r="3.7"/>
		<circle class="st29" cx="56.8" cy="24.9" r="3.7"/>
	</g>
</g>
</svg>
