<?xml version="1.0" encoding="utf-8"?>
<!-- Generator: Adobe Illustrator 27.9.1, SVG Export Plug-In . SVG Version: 6.00 Build 0)  -->
<svg version="1.1" id="Layer_1" xmlns="http://www.w3.org/2000/svg" xmlns:xlink="http://www.w3.org/1999/xlink" x="0px" y="0px"
	 viewBox="0 0 200 200" style="enable-background:new 0 0 200 200;" xml:space="preserve">
<style type="text/css">
	.st0{fill:#F8AE5E;}
	.st1{fill:#F9E1C0;}
	.st2{fill:#F58E4E;}
	.st3{fill:#1F2F3D;}
	.st4{fill:#C96E43;}
	.st5{fill:#FBF9F9;}
	.st6{fill:#FAC087;}
</style>
<g>
	<g>
		<path class="st3" d="M136.7,104.9c-5.7,1.4-9.6-0.3-12.2-5.4c-0.1-0.1-0.2-0.2-0.3-0.3c-0.5-1.8-0.7-3.8-0.3-5.7
			c1.1-4.2,4.3-7,8.6-7.4c4.2-0.5,8,1.8,9.8,5.8c0.3,0.5,0.4,1,0.6,1.4c0.6,2.9,0,5.6-1.4,8.2C139.6,102,138.3,103.6,136.7,104.9z
			 M129.3,89.6c-2.1,0.6-3.2,2.6-2.7,4.6c0.6,2.1,2.7,3.3,4.7,2.8c2.1-0.6,3.3-2.7,2.6-4.7C133.4,90.2,131.4,89,129.3,89.6z"/>
	</g>
	<g>
		<path class="st3" d="M73.9,105.6c-2.3,5-5.7,7-11,6.8c-1.6-1.4-3.4-2.4-5.5-3c-0.8-1-1.4-1.9-1.8-3c0-0.4-0.1-0.7-0.5-0.9l0.1-0.1
			c-0.5-2.4-0.4-4.8,0.8-7.1c2.1-4.1,6.9-6.1,11.2-5c4.5,1.3,7.4,5.3,7.1,9.8C74.2,104,74,104.7,73.9,105.6z M62.5,103.9
			c1.9-0.6,3.2-2.6,2.7-4.6s-2.7-3.3-4.8-2.7c-1.9,0.6-3.2,2.6-2.7,4.6C58.2,103.1,60.5,104.4,62.5,103.9z"/>
	</g>
	<g>
		<path class="st3" d="M110.3,110.3c1.5,2.5,2,5.3,2.2,8.2c-0.5,1.1-1.4,1.4-2.5,1.5c-5.3,0.5-10.7,1.1-16,1.5
			c-1.5,0.2-2.1-0.6-2.5-1.9c-0.1-2.6-0.2-5.2,1-7.5c3.8,2.6,7.9,3.3,12.4,1.9C107,113.2,108.5,111.6,110.3,110.3z"/>
	</g>
	<path class="st4" d="M136.7,104.9c1.4-1.4,2.8-3,4.7-3.6c2.7-0.6,5.3-0.7,7.9,0.8c3.8,2.2,3.8,6.7,0.8,9.1
		c-0.2,0.2-0.5,0.3-0.6,0.6l0,0c-0.3,0.1-0.7,0.1-0.9,0.5c-0.5,0.1-1.1,0.3-1.5,0.4c-2.7,0.8-5.3,0.7-7.7-0.8
		c-2.3-1.4-3.3-3.7-2.7-6.2C136.9,105.5,137.2,105.2,136.7,104.9z"/>
	<path class="st4" d="M57.3,109.3c2.1,0.6,3.9,1.5,5.5,3c0.1,0.3,0.1,0.7,0.2,1c1.5,3.9-1.3,6.7-4.2,7.8c-2.2,0.9-4.4,1-6.9,0.1
		c-2.4-0.9-4-2.4-4.2-4.8c-0.3-2.6,1.3-4.3,3.3-5.6c1.5-1,3.3-1.2,5-1.2C56.5,109.5,57,109.8,57.3,109.3z"/>
	<path class="st3" d="M110.3,110.3c-1.7,1.4-3.3,2.9-5.5,3.6c-4.4,1.4-8.6,0.7-12.4-1.9c1.1-3.4,3.5-5.6,6.8-6.4
		c4.1-1,7.6,0.1,10.2,3.5C109.7,109.5,110,109.8,110.3,110.3z"/>
	<path class="st5" d="M129.3,89.6c2-0.5,4.1,0.6,4.7,2.6c0.6,2.1-0.6,4.2-2.6,4.7c-2,0.5-4.2-0.7-4.7-2.8
		C126.1,92.2,127.4,90.2,129.3,89.6z"/>
	<path class="st5" d="M62.5,103.9c-2.1,0.6-4.2-0.7-4.8-2.7c-0.5-2,0.7-4.2,2.7-4.6c2-0.5,4.3,0.7,4.8,2.7
		C65.7,101.1,64.4,103.3,62.5,103.9z"/>
</g>
</svg>
