<?xml version="1.0" encoding="utf-8"?>
<!-- Generator: Adobe Illustrator 27.9.1, SVG Export Plug-In . SVG Version: 6.00 Build 0)  -->
<svg version="1.1" id="Layer_1" xmlns="http://www.w3.org/2000/svg" xmlns:xlink="http://www.w3.org/1999/xlink" x="0px" y="0px"
	 viewBox="0 0 200 200" style="enable-background:new 0 0 200 200;" xml:space="preserve">
<style type="text/css">
	.st0{fill:#B54C33;}
	.st1{fill:#C96E43;}
	.st2{fill:#E88F53;}
	.st3{fill:#F8AE5E;}
	.st4{fill:#1F2F3D;}
	.st5{fill:#FFFFFF;}
</style>
<g>
	<g>
		<path class="st4" d="M127.3,117.7c-8.9-5.1-19.3-5.2-28-1.4c-8.7-3.8-19.1-3.7-28,1.4c-9,5.1-14.4,14-15.5,23.5
			c8.7,3.9,19.2,3.8,28.1-1.3c8.6-4.9,14-13.3,15.4-22.4c1.4,9.1,6.7,17.5,15.4,22.4c9,5.1,19.4,5.3,28.1,1.3
			C141.7,131.7,136.2,122.8,127.3,117.7z"/>
	</g>
	<g>
		<g>
			<path class="st4" d="M81,86.6c0,2-1.4,3.7-3.3,4.1c-0.3,0.1-0.6,0.1-0.9,0.1H50.3c-0.3,0-0.6,0-0.9-0.1c-0.8-0.2-1.5-0.6-2.1-1.1
				c-0.8-0.8-1.2-1.8-1.2-3c0-2.3,1.9-4.2,4.2-4.2h26.4c1.2,0,2.2,0.5,3,1.2C80.5,84.3,81,85.4,81,86.6z"/>
			<g>
				<path class="st4" d="M75.3,90.8c0,6.7-5.4,12.1-12.1,12.1s-12.1-5.4-12.1-12.1c0-3.3,1.3-6.3,3.5-8.5h17.2
					C74,84.5,75.3,87.5,75.3,90.8z"/>
				<circle class="st5" cx="69.3" cy="93.3" r="2.7"/>
			</g>
		</g>
		<g>
			<path class="st4" d="M154,86.6c0,2-1.4,3.7-3.3,4.1c-0.3,0.1-0.6,0.1-0.9,0.1h-26.4c-0.3,0-0.6,0-0.9-0.1
				c-0.8-0.2-1.5-0.6-2.1-1.1c-0.8-0.8-1.2-1.8-1.2-3c0-2.3,1.9-4.2,4.2-4.2h26.4c1.2,0,2.2,0.5,3,1.2C153.5,84.3,154,85.4,154,86.6
				z"/>
			<path class="st4" d="M148.3,90.8c0,6.7-5.4,12.1-12.1,12.1s-12.1-5.4-12.1-12.1c0-3.3,1.3-6.3,3.5-8.5h17.3
				C147,84.5,148.3,87.5,148.3,90.8z"/>
			<circle class="st5" cx="142.9" cy="93.3" r="2.7"/>
		</g>
	</g>
</g>
</svg>
