<?xml version="1.0" encoding="utf-8"?>
<!-- Generator: Adobe Illustrator 27.9.1, SVG Export Plug-In . SVG Version: 6.00 Build 0)  -->
<svg version="1.1" id="Layer_1" xmlns="http://www.w3.org/2000/svg" xmlns:xlink="http://www.w3.org/1999/xlink" x="0px" y="0px"
	 viewBox="0 0 200 200" style="enable-background:new 0 0 200 200;" xml:space="preserve">
<style type="text/css">
	.st0{fill:#8BCBD5;}
	.st1{fill:#EC8524;}
	.st2{fill:#FED653;}
	.st3{fill:#1F2F3D;}
	.st4{opacity:0.34;}
	.st5{fill:#F58A21;}
	.st6{fill:#D67140;}
	.st7{fill:#C96E43;}
	.st8{fill:#E88F53;}
	.st9{fill:#B54C33;}
	.st10{fill:#F8AE5E;}
	.st11{fill:#FDFCFB;}
	.st12{fill:#F37769;}
	.st13{fill:#F58E4E;}
	.st14{fill:#F9E1C0;}
	.st15{fill:#FAC087;}
	.st16{fill:#FBF9F9;}
	.st17{fill:#4167A0;}
	.st18{fill:#4C74B9;}
	.st19{fill:#7DA9DA;}
	.st20{opacity:0.15;fill:#7DA9DA;}
	.st21{fill:#67BDC6;}
	.st22{fill:#B1DFE5;}
	.st23{fill:#9DD5DD;}
	.st24{fill:#8FD5DC;}
	.st25{fill:#45A4C1;}
	.st26{fill:#77D1F3;}
	.st27{fill:#4AA146;}
	.st28{fill:#FCFBFA;}
	.st29{fill:#FFFFFF;}
	.st30{fill:#F8B032;}
	.st31{fill:#F59B28;}
	.st32{fill:#FBFAF9;}
	.st33{fill:#C45234;}
	.st34{fill:#E45E39;}
	.st35{fill:#939696;}
	.st36{fill:#B7B8B8;}
	.st37{fill:#F05979;}
	.st38{fill:#B7B8B8;stroke:#121C2B;stroke-width:6;stroke-linecap:round;stroke-linejoin:round;stroke-miterlimit:10;}
	.st39{fill:#FBDE84;}
	.st40{fill:#FDC478;}
	.st41{fill:#D88360;}
</style>
<g id="sun">
	<path id="silhouette_00000141455030173033219790000013122658012096336806_" class="st1" d="M32,173.3c-5.2-4.8,1.4-19.7-2.4-25.3
		c-4-5.8-20.2-5.1-22.7-11.5c-2.5-6.5,9.9-17,8.9-23.8c-1-6.9-16-13.3-15.5-20.2c0.5-6.9,16.3-11,18.3-17.7c2-6.6-8.7-18.8-5.2-24.9
		c3.4-5.9,19.4-2.7,24.2-7.9c4.8-5.2,0.5-20.9,6.1-24.7c5.8-4,18.8,5.8,25.2,3.3c6.5-2.5,9.4-18.6,16.2-19.6
		c6.9-1,14.4,13.4,21.3,13.9c6.9,0.5,16.4-12.7,23.1-10.6c6.6,2,7,18.3,13.1,21.8c5.9,3.4,20.2-4.3,25.4,0.5
		c5.2,4.8-1.4,19.7,2.4,25.3c4,5.8,20.2,5.1,22.7,11.5c2.5,6.5-9.9,17-8.9,23.8c1,6.9,16,13.3,15.5,20.2c-0.5,6.9-16.3,11-18.3,17.7
		c-2,6.6,8.7,18.8,5.2,24.9c-3.4,5.9-19.4,2.7-24.2,7.9c-4.8,5.2-0.5,20.9-6.1,24.7c-5.8,4-18.8-5.8-25.2-3.3
		c-6.5,2.5-9.4,18.6-16.2,19.6c-6.9,1-14.4-13.4-21.3-13.9c-6.9-0.5-16.4,12.7-23.1,10.6c-6.6-2-7-18.3-13.1-21.8
		C51.5,170.4,37.2,178.1,32,173.3z"/>
	<g>
		<circle class="st2" cx="100" cy="100" r="69.7"/>
		<g>
			<g>
				<path class="st3" d="M141.4,125.4c-4.5,0-9-0.4-13.4-1.8c-7-2.1-12.2-6.4-15.8-12.7c-2.6-4.6-4.2-9.6-4.9-14.8
					c-0.2-1.6-1-2.6-2.6-3.1c-3.4-0.9-6.7-1-10,0.3c-1.2,0.5-1.7,1.3-1.9,2.6c-0.9,5.5-2.5,10.8-5.5,15.6
					c-4.2,6.8-10.3,10.8-18,12.7c-3.4,0.8-6.9,1.1-10.4,1.2c-2.5,0-4.9-0.4-7.3-0.8c-3.7-0.6-7-2.1-10.2-4
					c-7.5-5.2-10.7-13-12.8-21.4c0-0.1,0-0.1,0-0.2c-0.3-2.8-1.7-4.5-4.6-5c-1.9-0.4-2.8-1.6-3-3.5c-0.2-1.9-0.2-3.8-0.1-5.7
					c0.1-1.6,1.1-2.7,2.6-3.2c6.3-2.3,12.9-4,19.5-5.2c4.4-0.8,8.9-1.2,13.4-1.5c7.3-0.4,14.5,0.2,21.6,1.9c4.1,1,8.1,2.3,11.4,5
					c0.8,0.6,1.6,1.4,2.2,2.2c0.4,0.5,0.8,0.6,1.4,0.5c4.8-1.1,9.6-1,14.4,0c0.5,0.1,0.9,0.1,1.3-0.4c2.2-3,5.4-4.5,8.8-5.7
					c4.9-1.8,10-2.7,15.1-3.2c3.1-0.3,6.2-0.5,9.3-0.4c9.5,0.3,18.8,1.8,27.9,4.5c2.2,0.7,4.4,1.3,6.5,2.1c2.4,0.8,3.1,1.8,3,4.3
					c0,1.8,0.1,3.6-0.2,5.3c-0.3,1.4-1,2.4-2.4,2.8c-0.5,0.1-0.9,0.4-1.4,0.5c-2.3,0.5-3.3,2-3.8,4.2c-0.7,3.4-1.9,6.7-3.4,9.9
					c-2,4.4-4.6,8.4-8.6,11.3c-0.2,0.2-0.4,0.3-0.5,0.6c-0.9,0.1-1.4,0.8-2.2,1.2C152,124.1,146.8,125.2,141.4,125.4z M140,79.2
					c-6.8,0.1-13.4,0.7-19.7,2.9c-5.9,2.1-8.6,5.9-8.6,12.2c0,2.7,0.5,5.3,1.2,7.9c2.8,9.4,8.7,15.6,18.4,17.8
					c4.7,1.1,9.4,1.2,14.2,0.5c5.6-0.9,10.6-3,14.4-7.4c4.8-5.7,6.9-12.4,7-19.7c0-6.6-2.5-9.7-8.8-11.7
					C152.2,79.7,146,79.3,140,79.2z M60.1,79.2c-7.5,0.1-14.2,1.1-18.6,2.5c-5.5,1.8-8.1,5.1-8.5,10.9c-0.3,4.4,0.6,8.5,2.1,12.6
					c2.9,7.8,8.3,12.9,16.5,14.8c5.9,1.3,11.8,1.3,17.6-0.3c4.1-1.1,7.8-2.9,10.8-5.9c5.9-6,8.4-13.3,8.1-21.6
					c-0.1-3.6-1.8-6.6-5-8.5c-1.3-0.7-2.5-1.4-3.9-1.8C72.5,79.7,65.7,79.2,60.1,79.2z M26.8,85.9c-0.1,0-0.5,0-0.9,0.1
					c-0.8,0.2-1.4,0.6-1.4,1.5c0,0.9,0.5,1.4,1.4,1.6c0.4,0.1,0.9,0.1,1.4,0.1c1.7,0,2.4-0.6,2.4-1.6C29.6,86.4,28.7,85.8,26.8,85.9
					z M172.8,89.1c0.4,0,0.8,0,1.2-0.1c0.9-0.1,1.3-0.6,1.4-1.4c0.1-0.8-0.3-1.4-1.2-1.6c-0.5-0.1-1-0.2-1.6-0.2
					c-1.6,0-2.5,0.6-2.4,1.7C170.4,88.6,171.1,89.1,172.8,89.1z"/>
			</g>
			<g>
				<g>
					<path class="st3" d="M158.1,81.6c-5.9-1.9-12.1-2.3-18.2-2.4c-6.8,0.1-13.4,0.7-19.7,2.9c-5.9,2.1-8.6,5.9-8.6,12.2
						c0,2.7,0.5,5.3,1.2,7.9c2.8,9.4,8.7,15.6,18.4,17.8c4.7,1.1,9.4,1.2,14.2,0.5c5.6-0.9,10.6-3,14.4-7.4c4.8-5.7,6.9-12.4,7-19.7
						C166.9,86.7,164.4,83.6,158.1,81.6z"/>
				</g>
				<g>
					<path class="st3" d="M83.1,83.7c-1.3-0.7-2.5-1.4-3.9-1.8c-6.6-2.1-13.5-2.7-19.1-2.7c-7.5,0.1-14.2,1.1-18.6,2.5
						c-5.5,1.8-8.1,5.1-8.5,10.9c-0.3,4.4,0.6,8.5,2.1,12.6c2.9,7.8,8.3,12.9,16.5,14.8c5.9,1.3,11.8,1.3,17.6-0.3
						c4.1-1.1,7.8-2.9,10.8-5.9c5.9-6,8.4-13.3,8.1-21.6C88,88.5,86.4,85.6,83.1,83.7z"/>
				</g>
			</g>
		</g>
		<g>
			<path class="st3" d="M118.9,128.2c0,4.5-2.3,8.2-6.2,9.7c-4.3,1.7-9,0.6-11.9-2.9c-0.7-0.8-1-0.8-1.7,0
				c-3.1,3.6-8.4,4.6-12.6,2.6c-4.1-2-6.2-6.3-5.3-10.9c0.3-1.6,1.2-2.4,2.5-2.1c1.3,0.2,1.8,1.2,1.5,2.9c-0.5,3,0.6,5.4,3.1,6.6
				c2.6,1.3,5.8,0.6,7.9-1.5c0.8-0.9,1.5-1.9,1.8-3c0.3-1.1,0.9-1.8,2.1-1.8c1.2,0,1.7,0.8,2,1.9c1,3.4,4,5.4,7.6,5
				c3.3-0.4,5.7-3.5,5.2-6.8c0-0.3-0.1-0.6-0.2-1c-0.1-1.2,0.4-2,1.6-2.2c1.2-0.2,2,0.3,2.3,1.4
				C118.9,126.7,118.9,127.5,118.9,128.2z"/>
		</g>
		<g class="st4">
			<path class="st5" d="M135.2,118.6c2.5,0.3,5,0.4,7.6,0.2l-7.1-37.5c-2.5,0.2-4.9,0.4-7.4,0.9L135.2,118.6z"/>
			<path class="st5" d="M146.9,118.2c1.1-0.2,2.1-0.5,3.1-0.9l-6.8-36c-1.1-0.1-2.2-0.1-3.3-0.1L146.9,118.2z"/>
			<path class="st5" d="M68.7,117.7l-6.9-36.5c-0.6,0-1.3,0-1.9,0c-0.5,0-0.9,0-1.3,0l7,37.2c0.9-0.2,1.7-0.3,2.6-0.6
				C68.4,117.8,68.5,117.7,68.7,117.7z"/>
			<path class="st5" d="M53.7,118.4c2.5,0.5,5.1,0.6,7.6,0.5l-7.1-37.5c-2.7,0.2-5.2,0.6-7.3,1L53.7,118.4z"/>
		</g>
	</g>
</g>
</svg>
