<?xml version="1.0" encoding="utf-8"?>
<!-- Generator: Adobe Illustrator 27.9.1, SVG Export Plug-In . SVG Version: 6.00 Build 0)  -->
<svg version="1.1" id="Layer_1" xmlns="http://www.w3.org/2000/svg" xmlns:xlink="http://www.w3.org/1999/xlink" x="0px" y="0px"
	 viewBox="0 0 200 200" style="enable-background:new 0 0 200 200;" xml:space="preserve">
<style type="text/css">
	.st0{fill:#C96E43;}
	.st1{fill:#B54C33;}
	.st2{fill:#E88F53;}
	.st3{fill:#F8AE5E;}
</style>
<circle class="st0" cx="100" cy="100" r="100"/>
<path class="st0" d="M62.8,10.9C71.5,7.5,80.5,5.3,89.7,4c0.3,0,0.7,0,1,0c6-0.8,12-0.8,18-0.3c8.3,0.7,16.4,2.5,24.3,5.2
	c7.6,2.6,14.7,6.1,21.3,10.6c4.6,3,8.8,6.3,12.6,10.2c-3.8,0.3-7.7,0.3-11.6,0.3c-8.1-0.1-16.3,0.2-24.4-0.2
	c-5.1-0.2-10.2-0.6-15.2-1.1c-4.7-0.5-9.4-1.3-14-2.2c-2.5-0.5-5-1.1-7.4-1.7c-0.5-0.1-0.9-0.2-1.4-0.4c-4.1-1.1-8.1-2.3-12.1-3.4
	c-6-1.6-11.8-3.3-17.8-4.5c-2.9-0.6-5.9-1.1-8.8-1.6C56.9,13.3,59.9,12.1,62.8,10.9z"/>
<path class="st0" d="M42.4,22.3c1.8,0.3,3.6,0.4,5.4,0.8c7.5,1.4,15,3,22.3,5.3c9.4,2.9,18.7,5.6,28.4,7.1c4.1,0.7,8.2,1.3,12.3,1.6
	c3.7,0.3,7.4,0.5,11.1,0.5c8.3,0.1,16.6,0,24.8,0.3c0.2,0,0.4,0,0.6,0c3.9,0.4,7.8,0.4,11.7,0.9c3.1,0.4,6.2,0.7,9.4,1
	c2.7,0.3,5.3,0.9,8,1c2.9,3.4,5.4,7,7.3,10.9l0,0c-2.4-0.1-4.8-0.6-7.2-1c-4.2-0.6-8.4-1.3-12.5-1.9c-3.6-0.6-7.3-0.9-10.9-1.3
	c-1.2-0.1-2.4-0.2-3.6-0.3c-0.3,0-0.6,0-0.8,0c-7.2-0.4-14.4-0.2-21.6-0.2c-1.2,0-2.3,0-3.5,0c-0.3,0-0.7,0-1,0
	c-3.7,0-7.4,0-11.1-0.2c-0.4,0-0.8-0.1-1.2-0.1c-5.5-0.3-10.9-0.9-16.3-1.8c-3-0.5-6-1.1-9-1.7c-8-1.8-15.7-4.4-23.4-7
	c-4.9-1.6-9.9-3-15-4.1c-4.2-0.9-8.6-1.7-12.9-2.1c-0.1,0-0.1,0-0.2,0C36.2,27.2,39.2,24.6,42.4,22.3z"/>
<path class="st0" d="M154,180.2c-2.6,1.7-5.2,3.3-7.9,4.7c-0.1,0-0.3,0-0.4,0c0,0,0,0-0.1,0c-0.2,0.4-0.7,0.5-1,0.7
	c-9.4,4.8-19.3,8.3-29.8,9.9c-11.9,1.8-23.7,1.4-35.5-1.3c-13.2-3-25.2-8.6-36.2-16.3c-0.1-0.2-0.3-0.3-0.5-0.5h-0.1
	c-4.2-3.1-8.1-6.3-11.6-10c1.9,0.1,3.8,0.7,5.7,0.9c3.7,0.5,7.4,0.9,11.1,1c7,0.3,14,0.1,21,0.3c8,0.2,15.9,0.8,23.8,1.9
	c6.9,0.9,13.7,1.8,20.6,2.2c7.6,0.3,15.2,0,22.8-0.9c11.1-1.4,22-3.6,32.9-6c0.5-0.1,1.1-0.2,1.7-0.3
	C165.6,171.8,160,176.3,154,180.2z"/>
<path class="st0" d="M181.5,152.9c-3.2,4.9-6.8,9.4-11,13.5c-0.6,0.1-1.1,0.2-1.7,0.3c-10.9,2.5-21.8,4.6-32.9,6
	c-7.6,0.9-15.1,1.2-22.8,0.9c-6.9-0.3-13.8-1.2-20.6-2.2c-7.9-1.1-15.9-1.7-23.8-1.9c-7-0.2-14,0-21-0.3c-3.7-0.2-7.4-0.5-11.1-1
	c-1.9-0.2-3.7-0.8-5.7-0.9c-1.8-1.5-3.3-3.3-4.8-5c-2.1-2.2-4-4.5-5.7-7.1c0.2-0.1,0.3-0.1,0.5-0.1c0.5,0,1,0.3,1.5,0.4l0,0
	c2.1,0.6,4.3,1.1,6.5,1.6c0.4,0.1,0.8,0.2,1.2,0.3c2.2,0.4,4.4,0.8,6.7,1.2l0,0c5.7,0.8,11.5,0.9,17.3,0.7l0,0
	c6.3-0.3,12.4-1.7,18.4-3.6c1.2-0.4,2.4-0.8,3.7-1.1c1.8-0.6,3.7-1.1,5.5-1.6c0.6-0.2,1.2-0.3,1.9-0.5c1.2-0.3,2.5-0.5,3.8-0.7l0,0
	c2.2-0.4,4.4-0.7,6.7-0.9c3-0.3,6.1,0,9.1-0.2c3.8-0.2,7.7-0.2,11.5-0.7c4.9-0.6,9.9-1.4,14.7-2.5c2.7-0.6,5.4-1.3,8.1-1.9
	s5.4-1.3,8.1-1.8c1.8-0.4,3.6-0.7,5.4-1.1c3.2-0.6,6.5-1,9.8-1.4c1.1-0.1,2.2-0.2,3.3-0.3c1.8-0.2,3.5-0.3,5.3-0.3
	c1.8-0.1,3.5-0.1,5.3-0.1c1.2,0,2.4,0,3.5,0c3.3,0.1,6.6,0.4,9.9,0.6C186.3,145.3,184,149.1,181.5,152.9z"/>
<path class="st0" d="M61.4,154.2c-2.2,1.5-4.8,2.2-7.4,2.5c-1.5,0.2-2.9,0.3-4.3,0.2c-4.3,0-8.4-0.9-12.5-2.2
	c-4-1.3-7.7-3.1-10.9-5.7c-2-1.6-3.8-3.4-4.8-5.9c-1.8-4.4,0.2-8,4-10c2.4-1.2,5.5-2.2,9.7-2.1c6.2,0,11.6,1.4,16.9,3.6
	c3.3,1.4,6.4,3.2,9.1,5.6c2.2,2,3.8,4.3,4,7.3S63.8,152.6,61.4,154.2z"/>
<path class="st0" d="M195.9,113.1L195.9,113.1c-4.2,1.3-8.5,2.3-12.9,2c-3.4-0.2-6.7-0.8-10-1.6c-3.7-0.9-7.4-1.4-11.3-1.3
	c-2.6,0.1-5.2,0.6-7.8,1.2l0,0c-0.2,0-0.4,0.1-0.6,0.1c-4.3,1-10.9,2.5-15.8,3.6l0,0c-0.1,0-0.3,0.1-0.4,0.1c-3.5,0.8-6,1.4-6,1.4
	v-0.2c-4,1.1-7.9,2.3-11.8,3.6c-3.4,1.1-6.7,2-10.1,3c-0.2,0-0.4,0.1-0.6,0.2s-0.5,0.1-0.7,0.2c-0.1,0-0.2,0-0.3,0
	c-0.3,0.1-0.6,0.1-0.8,0.2c-3.7,0.8-8.4,1.8-11.8,2.4c-0.2,0-0.4,0.1-0.6,0.1c-0.1,0-0.2,0-0.3,0.1c-0.9,0.4-1.8,0.4-2.8,0.5
	c-0.3,0.1-0.5,0.1-0.5,0.1c-0.7,0.1-1.4,0.2-2,0.3c-1.9,0.3-3.7,0.6-5.6,0.8c-0.4,0-0.8,0.1-1.2,0.1c-2.1,0.3-4.3,0.5-6.4,0.5
	s-4.3,0.1-6.4,0.1c-2.2,0-4.5-0.1-6.7-0.3c-0.6-0.1-1.1-0.1-1.7-0.2c-4-0.5-8-1.3-11.8-2.5c-2.4-0.8-4.8-1.7-7.2-2.9
	c-3.3-1.6-6.5-3.4-10-4.5c-3.9-1.3-7.9-2.1-12-2.2c-0.6,0-1.3,0-1.9,0.1c-0.2,0-0.5,0.1-0.7,0.1c-1,0.1-2.1,0.2-3.1,0.4
	c-1.2,0.2-2.4,0.4-3.6,0.6c-0.2,0-0.5,0.1-0.7,0.1c-0.9,0.1-1.7,0.2-2.6,0.3c-0.6,0.1-1.2,0.1-1.8,0.2c-0.9-3.5-1.3-7.1-1.6-10.8
	c-0.3-3.2-0.5-6.5-0.3-9.8h0.1c-0.1-5,0.6-10.1,1.5-15.1c0.3-1.5,0.4-3.1,1-4.6h0.1c0.4-3.2,1.4-6.1,2.3-9.1
	c1.6-5.2,3.7-10.1,6.3-14.9c0.5,0,0.9,0.1,1.3,0.2c4.4,1.1,8.9,2.2,13.3,3.3c8.5,2,17.1,3.7,25.8,5.2c6.4,1.1,12.9,1.8,19.4,2.4
	c5,0.4,10,0.7,14.9,0.9c4.1,0.2,8.2,0.4,12.3,0.7c4,0.3,7.9,0.7,11.9,1.1c5.9,0.6,11.6,1.7,17.4,2.8c7.1,1.4,14.1,3.1,21.3,4.3
	c5.1,0.9,10.3,1.5,15.5,1.7c5.5,0.2,11-0.1,16.5-0.9c2.9-0.7,5.9-1.2,8.9-2c-3,0.7-6,1.3-9,1.8c-5.5,0.9-11,1.1-16.5,0.9
	c-5.2-0.2-10.4-0.8-15.5-1.7c-7.1-1.3-14.2-2.9-21.3-4.3c-5.8-1.1-11.6-2.2-17.4-2.8c-3.9-0.4-7.9-0.9-11.9-1.1
	c-4.1-0.3-8.2-0.5-12.3-0.7c-5-0.2-10-0.5-14.9-0.9c-6.5-0.6-13-1.3-19.4-2.4c-8.7-1.4-17.2-3.1-25.8-5.2c-4.5-1.1-8.9-2.2-13.3-3.3
	c-0.4-0.1-0.9-0.2-1.3-0.2c2.9-5.9,6.4-11.4,10.6-16.5c0,0,0.1,0.1,0.2,0.1c0,0,0,0-0.1,0.1c0.3,0.3,0.7,0.3,1.1,0.4
	c2.5,0.5,5.1,0.9,7.6,1.5c10.3,2.4,20.6,4.8,30.9,7.3c10.2,2.5,20.6,3.9,31,4.8c4.2,0.4,8.5,0.7,12.7,0.9c5.7,0.3,11.3,0.6,17,1.1
	c4,0.3,7.9,0.7,11.8,1.2c7.1,0.9,14.2,2.1,21.3,3.1c6.4,0.9,13,1.3,19.5,0.8c1,0,2-0.2,3-0.3c2-0.3,4.1-0.5,6.2-0.8c0,0,0,0,0-0.1
	c1.3,2.3,2.1,4.7,3,7.2c1.2,3.1,2.2,6,2.8,9.1c1.3,4.1,2,8.3,2.5,12.6c-0.1-0.1-0.2-0.1-0.3-0.1c0.1,0,0.2,0.1,0.3,0.1
	c0.6,2.5,0.7,5,0.9,7.6c0.3,5.5,0.2,11-0.4,16.5C196.1,112.4,196,112.8,195.9,113.1z"/>
<g>
	<path class="st1" d="M164,140.9c-1.1,0.1-2.2,0.2-3.3,0.3c-3.3,0.3-6.6,0.8-9.8,1.4c-1.8,0.3-3.6,0.7-5.4,1.1
		c-5.4,1.1-10.8,2.5-16.2,3.7c-4.8,1.1-9.8,1.9-14.7,2.5c-3.8,0.5-7.7,0.5-11.5,0.7c-3,0.2-6.1,0-9.1,0.2c-2.2,0.2-4.5,0.5-6.7,0.9
		l0,0c-1.3,0.2-2.5,0.5-3.8,0.7c-0.6,0.1-1.2,0.3-1.9,0.5c-1.8,0.5-3.7,1-5.5,1.6c-1.2,0.4-2.4,0.8-3.7,1.1
		c-6,1.9-12.1,3.3-18.4,3.6l0,0c-5.8,0.3-11.6,0.2-17.3-0.7l0,0c-2.3-0.3-4.5-0.7-6.7-1.2c-0.4-0.1-0.8-0.2-1.2-0.3
		c-2.2-0.5-4.3-1-6.5-1.6l0,0c-0.5-0.1-1-0.4-1.5-0.4c-0.2,0-0.3,0-0.5,0.1c1.7,2.6,3.6,4.9,5.7,7.1c1.5,1.7,3,3.5,4.8,5
		c2,0.1,3.8,0.7,5.7,0.9c3.7,0.5,7.4,0.8,11.1,1c7,0.3,14,0.1,21,0.3c7.9,0.2,15.9,0.8,23.8,1.9c6.8,1,13.7,1.9,20.6,2.2
		c7.7,0.3,15.2,0,22.8-0.9c11.1-1.4,22-3.5,32.9-6c0.6-0.1,1.1-0.2,1.7-0.3c4.2-4.1,7.8-8.6,11-13.5c2.5-3.8,4.8-7.6,6.5-11.8
		c-3.3-0.2-6.6-0.5-9.9-0.6c-1.2,0-2.4,0-3.5,0C171,140.5,167.5,140.6,164,140.9z"/>
	<path class="st1" d="M28.9,157.1c0.4,0.1,0.8,0.2,1.2,0.3C29.7,157.3,29.3,157.2,28.9,157.1z"/>
	<path class="st1" d="M20.9,155.1c0.5,0,1,0.3,1.5,0.4C21.9,155.3,21.4,155.1,20.9,155.1z"/>
	<path class="st1" d="M94,150.8c3-0.2,6.1,0,9.1-0.2C100.1,150.8,97,150.5,94,150.8z"/>
	<path class="st1" d="M54.1,159.2c-5.8,0.2-11.6,0.1-17.3-0.7C42.5,159.4,48.3,159.5,54.1,159.2z"/>
	<path class="st1" d="M87.3,151.7c2.2-0.4,4.5-0.7,6.7-0.9C91.7,151,89.5,151.3,87.3,151.7z"/>
	<path class="st1" d="M46.7,32.1c5.1,1.1,10,2.5,15,4.1c7.7,2.5,15.5,5.1,23.4,7c2.9,0.7,5.8,1.2,8.8,1.7c5.4,0.9,10.9,1.5,16.3,1.8
		c0.5,0,0.9,0.1,1.4,0.1c3.7,0.2,7.4,0.2,11.1,0.2c0.3,0,0.5,0,0.8,0c8.4,0.1,16.8-0.3,25.1,0.2c0.3,0,0.7,0,1,0
		c1.2,0.1,2.4,0.1,3.6,0.3c3.6,0.4,7.3,0.7,10.9,1.3c4.2,0.7,8.4,1.3,12.5,1.9c2.3,0.4,4.7,0.9,7,1c-1.9-3.9-4.4-7.5-7.3-10.9
		c-2.7-0.1-5.3-0.7-8-1c-3.2-0.3-6.3-0.6-9.4-1c-3.9-0.5-7.8-0.5-11.7-0.9c-0.2,0-0.4,0-0.6,0c-8.2-0.3-16.5-0.2-24.8-0.3
		c-3.7,0-7.4-0.2-11.1-0.5c-4.1-0.3-8.2-0.9-12.3-1.6c-9.7-1.5-19-4.2-28.4-7.1c-7.3-2.3-14.8-3.9-22.3-5.3
		c-1.8-0.4-3.6-0.5-5.4-0.8c-3.2,2.3-6.2,4.9-9,7.7c0.1,0,0.1,0,0.2,0l0,0C38,30.4,42.4,31.2,46.7,32.1z"/>
	<path class="st1" d="M111.6,46.8c-0.5,0-0.9-0.1-1.4-0.1c0.4,0,0.8,0.1,1.2,0.1c3.7,0.2,7.4,0.2,11.1,0.2c0.3,0,0.7,0,1,0
		c-0.3,0-0.5,0-0.8,0C119,47,115.3,47,111.6,46.8z"/>
	<path class="st1" d="M164.2,48.8c-3.6-0.6-7.3-0.9-10.9-1.3c-1.2-0.2-2.4-0.2-3.6-0.3c-0.3,0-0.7,0-1,0c0.3,0,0.6,0,0.8,0
		c1.2,0.1,2.4,0.2,3.6,0.3c3.6,0.4,7.3,0.7,10.9,1.3c4.1,0.6,8.3,1.3,12.5,1.9c2.4,0.4,4.8,0.9,7.2,1l0,0c-2.3-0.1-4.7-0.6-7-1
		C172.6,50.1,168.4,49.5,164.2,48.8z"/>
	<path class="st1" d="M61.5,36.2c7.7,2.6,15.4,5.2,23.4,7c3,0.7,6,1.2,9,1.7c-2.9-0.5-5.9-1.1-8.8-1.7c-7.9-1.9-15.7-4.5-23.4-7
		c-5-1.6-9.9-3-15-4.1c-4.3-0.9-8.7-1.7-13.1-2.1l0,0c4.3,0.4,8.7,1.2,12.9,2.1C51.6,33.2,56.6,34.6,61.5,36.2z"/>
	<path class="st1" d="M61.3,154.2c2.4-1.6,4-3.7,3.8-6.7c-0.2-3-1.9-5.3-4-7.3c-2.7-2.4-5.8-4.2-9.1-5.6c-5.2-2.2-10.6-3.6-16.8-3.6
		c-4.2-0.1-7.3,0.9-9.7,2.1c-3.8,2-5.8,5.6-4,10c1,2.5,2.8,4.3,4.8,5.9c3.2,2.6,6.9,4.4,10.9,5.7s8.2,2.2,12.5,2.2
		c1.4,0,2.8-0.1,4.2-0.2C56.5,156.4,59.1,155.7,61.3,154.2z M47.7,152.4c-0.6,0-1.1,0-1.6,0c-0.3,0-0.7,0-1-0.1
		c-0.3,0-0.7-0.1-1-0.1c-0.6-0.1-1.1-0.2-1.7-0.3c-0.1,0-0.2,0-0.3-0.1c-2.8-0.6-5.5-1.7-8-3.2c-0.4-0.3-0.9-0.5-1.3-0.8
		c-1.4-0.9-2.5-2-3.4-3.4c-0.7-1-1-2-1-2.9c0-2,1.4-3.6,3.3-4.4c2.1-1,4.4-1.3,6.8-1.2c6,0,11.2,2,15.9,5.7c1.1,0.9,1.9,2,2.5,3.3
		c0.2,0.5,0.4,1,0.4,1.5c0.1,1.5-0.6,2.9-2,3.9c-1.5,1.1-3.2,1.6-5,1.8c-0.7,0.1-1.4,0.1-2.1,0.2C48,152.4,47.9,152.4,47.7,152.4z"
		/>
	<path class="st1" d="M61.2,140.2c-2.7-2.4-5.8-4.2-9.1-5.6c-5.3-2.2-10.7-3.6-16.9-3.6c6.2,0,11.6,1.4,16.8,3.6
		c3.3,1.4,6.4,3.2,9.1,5.6c2.1,2,3.8,4.3,4,7.3s-1.4,5.1-3.8,6.7c-2.2,1.5-4.8,2.2-7.4,2.5c-1.4,0.2-2.8,0.2-4.2,0.2
		c1.4,0,2.9-0.1,4.3-0.2c2.6-0.3,5.2-1,7.4-2.5c2.4-1.6,4-3.7,3.8-6.7S63.4,142.2,61.2,140.2z"/>
	<g>
		<path class="st0" d="M99.3,110.3c2.5,0.3,5,0.8,7.2,1.4c-0.1-0.1-0.1-0.2-0.2-0.2C104.3,110.9,101.7,110.5,99.3,110.3z"/>
		<path class="st0" d="M115.3,114.4L115.3,114.4L115.3,114.4c2.3,0.7,4.6,1.4,6.9,1.8c0.2,0,0.5,0.1,0.7,0.1c-0.2,0-0.4-0.1-0.6-0.1
			C119.9,115.8,117.6,115.1,115.3,114.4z"/>
		<path class="st0" d="M131,117.3L131,117.3L131,117.3c0,0-0.1,0-0.2,0C130.8,117.3,130.9,117.3,131,117.3z"/>
		<path class="st0" d="M152,97c1.2-0.2,2.3-0.4,3.5-0.6h0.1c-1.1,0.2-2.3,0.4-3.4,0.6C152.1,97,152,97,152,97z"/>
		<path class="st0" d="M125.1,96.7c3,0.4,7.8,0.9,13.2,1C133.4,97.6,128.6,97.1,125.1,96.7L125.1,96.7z"/>
		<path class="st0" d="M55.9,90.8c2.5,0.2,5.7,0.4,9.3,0.5C61.2,91.1,57.6,90.9,55.9,90.8C56,90.8,56,90.8,55.9,90.8z"/>
		<path class="st0" d="M158.6,95.6c1.9-0.4,3.7-0.9,5.6-1.4C162.3,94.7,160.4,95.2,158.6,95.6C158.6,95.7,158.6,95.6,158.6,95.6z"/>
		<path class="st0" d="M86.5,110.2c1.7-0.1,3.4-0.2,5.1-0.2l0,0c0.1,0,0.2,0,0.2,0C90.1,109.9,88.3,110,86.5,110.2z"/>
		<path class="st0" d="M119.9,15.5c5.2,1.3,10.5,2.3,15.9,3C130.4,17.8,125.2,16.8,119.9,15.5z"/>
		<path class="st0" d="M56.9,145c-0.6-1.3-1.4-2.4-2.5-3.3c-4.7-3.7-9.9-5.7-15.9-5.7c-2.4-0.1-4.7,0.2-6.8,1.2
			c-1.9,0.8-3.3,2.4-3.3,4.4c0,0.9,0.3,1.9,1,2.9c0.9,1.4,2,2.5,3.4,3.4c0.4,0.3,0.9,0.5,1.3,0.8c2.6,1.5,5.2,2.6,8,3.2
			c0.1,0,0.2,0,0.3,0.1c0.6,0.1,1.1,0.2,1.7,0.3c0.3,0,0.7,0.1,1,0.1s0.7,0.1,1,0.1c0.5,0,1.1,0,1.6,0c0.1,0,0.3,0,0.4,0
			c0.7,0,1.4-0.1,2.1-0.2c1.8-0.2,3.5-0.7,5-1.8c1.4-1,2.1-2.3,2-3.9C57.3,146,57.1,145.5,56.9,145z"/>
	</g>
	<g>
		<path class="st2" d="M193.1,75.4c-3,0.8-6,1.3-8.9,2c-5.5,0.8-11,1.1-16.5,0.9c-5.2-0.2-10.4-0.8-15.5-1.7
			c-7.2-1.2-14.2-2.9-21.3-4.3c-5.8-1.1-11.5-2.2-17.4-2.8c-4-0.4-7.9-0.8-11.9-1.1c-4.1-0.3-8.2-0.5-12.3-0.7
			c-4.9-0.2-9.9-0.5-14.9-0.9c-6.5-0.6-13-1.3-19.4-2.4c-8.7-1.5-17.3-3.2-25.8-5.2c-4.4-1.1-8.9-2.2-13.3-3.3
			c-0.4-0.1-0.8-0.2-1.3-0.2c-2.6,4.8-4.7,9.7-6.3,14.9c-0.9,3-1.9,5.9-2.3,9.1c1.1-0.3,2.1-0.4,3.2-0.4c2.6-0.1,5.3-0.1,7.9,0
			c3.7,0.2,7.4,0.8,10.9,1.9c4.1,1.2,7.9,3,11.7,4.8c3.7,1.8,7.4,3.2,11.3,4.4c0.4,0,1.9,0.2,4.1,0.4l0,0l0,0c0.3,0,0.5,0,0.8,0.1
			l0,0c1.6,0.1,5.3,0.3,9.3,0.5c1.9,0.1,3.9,0.1,5.8,0.1c2.4,0,4.7,0,6.4-0.2c0.7-0.1,1.3-0.1,1.8-0.2h0.1c0.1,0,0.2-0.1,0.3-0.1
			c1-0.1,2.1-0.2,3.1-0.3c0.2,0,0.3,0,0.4,0c1-0.1,2-0.2,3-0.3c3.3-0.2,6.6-0.4,10-0.2c4.8,0.3,9.5,1.4,14.1,2.8
			c3.2,1,6.4,2,9.6,2.9V96c0,0,0.5,0.1,1.4,0.2c0.3,0.1,0.6,0.1,0.8,0.2c0.2,0,1.3,0.2,3,0.4v-0.1c3.5,0.4,8.3,0.9,13.2,1.1
			c3,0.1,6,0.1,8.8-0.1c0.3,0,0.7-0.1,1-0.1l0,0c1.2-0.1,2.4-0.3,3.5-0.5l0,0c0.1,0,0.2,0,0.3-0.1h0.1c1.1-0.2,2.3-0.4,3.4-0.6
			c0.3-0.1,0.6-0.2,0.9-0.2c0.8-0.2,1.5-0.4,2-0.4c1.9-0.4,3.8-0.9,5.7-1.5c1.3-0.4,2.5-0.8,3.8-1.2c4-1.3,7.9-2.6,11.9-3.5
			c4.7-1.1,9.6-1.9,14.5-1.7c0.2,0,0.4,0,0.6,0c0.2,0,0.4,0.1,0.6,0.2C195.1,83.7,194.4,79.5,193.1,75.4z"/>
		<path class="st2" d="M60.9,130c0.6,0.1,1.1,0.1,1.7,0.2c2.3,0.2,4.5,0.3,6.7,0.3c2.1,0,4.2,0,6.4-0.1c2.1,0,4.3-0.2,6.4-0.5
			c0.4,0,0.8-0.1,1.2-0.1c1.9-0.2,3.8-0.5,5.6-0.8c0.7-0.1,1.4-0.2,2-0.3l0,0c0.1,0,0.2,0,0.5-0.1c1-0.1,1.9-0.1,2.8-0.5
			c0.1,0,0.2,0,0.3-0.1c0.2,0,0.4-0.1,0.6-0.1c3.4-0.6,8.2-1.6,11.8-2.4c0.3-0.1,0.6-0.1,0.8-0.2c0.1,0,0.2,0,0.3,0
			c0.2,0,0.5-0.1,0.7-0.2s0.4-0.1,0.6-0.2c3.4-1,6.7-1.9,10.1-3c3.9-1.3,7.8-2.5,11.8-3.6l0,0v-1.1c0,0,0,0-0.1,0s-0.2,0-0.2,0
			c-2.7-0.2-5.3-0.5-7.8-1c-0.2,0-0.5-0.1-0.7-0.1c-2.3-0.4-4.6-1.1-6.9-1.8l0,0l0,0c-0.3-0.1-2.6-1-6-1.9c-0.3,0-0.7-0.1-1.1-0.3
			c-0.6-0.2-1.2-0.3-1.8-0.5c-2.2-0.5-4.6-1-7.2-1.4c-2.1-0.2-4.1-0.3-5.4-0.3c-0.8,0-1.3,0-1.4,0c-0.2,0-0.4,0-0.6,0
			c-0.1,0-0.2,0-0.2,0l0,0c-1.7,0-3.4,0.1-5.1,0.2c-0.2,0-0.4,0-0.6,0c-2.6,0.1-5.3,0.5-7.9,0.8c-1.3,0.1-2.6,0.3-3.9,0.4l0,0
			l-0.1,0.1c0,0-12,4-21.6-1.8c-0.2-0.1-0.3-0.1-0.5-0.2c-3.9-1.3-7.7-3-11.3-4.9c-4.5-2.4-9.1-4.4-14.2-5.4
			c-2.2-0.4-4.5-0.7-6.8-0.9c-2.5-0.3-5,0-7.5,0.1c-2.6,0.1-5.2,0.6-7.8,1c-0.3,0-0.6,0.1-0.9,0.1c0-0.1,0-0.1,0-0.2H3.5
			c-0.2,3.3,0,6.6,0.3,9.8c0.3,3.7,0.7,7.3,1.6,10.8c0.6-0.1,1.2-0.1,1.8-0.2c0.9-0.1,1.7-0.2,2.6-0.3c0.2,0,0.5-0.1,0.7-0.1
			c1.2-0.2,2.4-0.4,3.6-0.6c1-0.2,2.1-0.3,3.1-0.4c0.2,0,0.5-0.1,0.7-0.1c0.6,0,1.3-0.1,1.9-0.1c4.1,0,8.1,0.9,12,2.2
			c3.5,1.1,6.7,2.9,10,4.5c2.3,1.1,4.7,2.1,7.2,2.9C53,128.8,56.9,129.5,60.9,130z"/>
		<path class="st2" d="M143.8,184.9c-1.7,0.3-3.5,0.6-5.3,0.8c-3.2,0.4-6.5,0.6-9.8,1c-3.9,0.5-7.8,1.2-11.7,1.6
			c-4.7,0.5-9.3,0.3-13.9-0.6c-5-0.9-9.8-2.6-14.5-4.5c-7.9-3.2-16.1-5.1-24.6-5.4c-7.1-0.3-14.3,0.2-21.5-0.5l0.1,0.1
			c0.2,0.2,0.4,0.3,0.5,0.5c11,7.7,23,13.3,36.2,16.3c11.8,2.7,23.6,3.1,35.5,1.3c10.5-1.6,20.4-5.1,29.8-9.9c0.4-0.2,0.8-0.3,1-0.7
			c0,0,0-0.1,0.1-0.1C145.1,184.8,144.4,184.8,143.8,184.9z"/>
		<path class="st2" d="M119.9,15.5c5.3,1.3,10.5,2.3,15.9,3c4.7,0.6,9.4,1.1,14.2,1.1c0.3,0,0.7,0.1,1,0.1s0.5,0,0.8,0s0.6,0,0.8,0
			c0.5,0,1.1,0,1.6-0.3c-6.6-4.5-13.7-8-21.3-10.6c-7.9-2.7-16-4.5-24.3-5.2c-6-0.5-12-0.5-18,0.3c3.6,1.4,7.1,3,10.6,4.7
			C107.3,11.6,113.5,13.9,119.9,15.5z"/>
		<path class="st2" d="M145.8,184.8l-0.1,0.1c0.1,0,0.3,0,0.4,0C146,184.7,145.9,184.7,145.8,184.8z"/>
	</g>
	<g>
		<path class="st3" d="M29.1,59c8.6,2.1,17.1,3.8,25.8,5.2c6.4,1.1,12.9,1.8,19.4,2.4c4.9,0.4,9.9,0.7,14.9,0.9
			c4.1,0.2,8.2,0.4,12.3,0.7c4,0.2,8,0.7,11.9,1.1c5.8,0.6,11.6,1.7,17.4,2.8c7.1,1.4,14.2,3,21.3,4.3c5.1,0.9,10.3,1.5,15.5,1.7
			c5.5,0.2,11,0,16.5-0.9c3-0.5,6-1.1,9-1.8c-0.6-3.1-1.6-6-2.8-9.1c-0.9-2.4-1.7-4.9-3-7.2c0,0,0,0,0,0.1c-2.1,0.3-4.2,0.5-6.2,0.8
			c-1,0.1-2,0.3-3,0.3c-6.5,0.5-13.1,0.1-19.5-0.8c-7.1-1-14.2-2.2-21.3-3.1c-3.9-0.5-7.8-0.9-11.8-1.2c-5.7-0.5-11.3-0.8-17-1.1
			c-4.2-0.2-8.5-0.5-12.7-0.9c-10.4-0.9-20.8-2.3-31-4.8c-10.3-2.5-20.6-4.9-30.9-7.3c-2.5-0.6-5.1-1-7.6-1.5
			c-0.4-0.1-0.8-0.1-1.1-0.4c0,0,0,0,0.1-0.1c-0.1,0-0.1-0.1-0.2-0.1c-4.2,5.1-7.7,10.6-10.6,16.5c0.4,0,0.9,0.1,1.3,0.2
			C20.2,56.8,24.6,57.9,29.1,59z"/>
		<path class="st3" d="M196.5,95.6c-0.2-2.6-0.3-5.1-0.9-7.6c-0.2-0.1-0.4-0.1-0.6-0.2c-0.2,0-0.4,0-0.6,0
			c-4.9-0.2-9.8,0.6-14.5,1.7c-4,0.9-7.9,2.3-11.9,3.5c-1.3,0.4-2.5,0.8-3.8,1.2c-1.9,0.5-3.7,1-5.6,1.4h-0.1
			c-0.5,0.1-1.2,0.2-2,0.4c-0.3,0.1-0.6,0.2-0.9,0.2h-0.1c-1.1,0.2-2.3,0.4-3.5,0.6c-0.1,0-0.2,0.1-0.3,0.1l0,0
			c-1.1,0.2-2.3,0.4-3.5,0.5l0,0c-0.3,0-0.6,0.1-1,0.1c-2.8,0.2-5.8,0.2-8.8,0.1c-5.4-0.1-10.3-0.6-13.2-1c-1.7-0.2-2.8-0.4-3-0.4
			c-0.3-0.1-0.6-0.1-0.8-0.2c-0.9-0.1-1.4-0.2-1.4-0.2v-0.1c-3.2-0.9-6.4-1.9-9.6-2.9c-4.6-1.4-9.3-2.5-14.1-2.8
			c-3.4-0.2-6.7,0-10,0.2c-1,0.1-2,0.2-3,0.3c-0.1,0-0.3,0-0.4,0c-1,0.1-2,0.2-3.1,0.3c-0.1,0-0.2,0.1-0.3,0.1h-0.1
			c-0.5,0.1-1.1,0.2-1.8,0.2c-1.7,0.1-4,0.2-6.4,0.2c-1.9,0-3.9-0.1-5.8-0.1c-3.6-0.1-6.8-0.3-9.3-0.5c-0.3,0-0.6,0-0.8-0.1l0,0l0,0
			c-2.3-0.2-3.8-0.3-4.1-0.4c-3.9-1.1-7.6-2.6-11.3-4.4c-3.8-1.8-7.6-3.6-11.7-4.8c-3.5-1.1-7.2-1.7-10.9-1.9
			c-2.6-0.1-5.3-0.1-7.9,0c-1.1,0-2.1,0.1-3.2,0.4H6.1c-0.6,1.5-0.7,3.1-1,4.6c-0.9,5-1.6,10.1-1.5,15.1c0,0.1,0,0.1,0,0.2
			c0.3,0,0.6-0.1,0.9-0.1c2.6-0.4,5.2-0.9,7.8-1c2.5-0.1,5-0.4,7.5-0.1c2.3,0.2,4.6,0.5,6.8,0.9c5.1,1,9.7,3,14.2,5.4
			c3.6,1.9,7.4,3.6,11.3,4.9c0.2,0.1,0.3,0.1,0.5,0.2c9.6,5.8,21.6,1.8,21.6,1.8l0.1-0.1l0,0c1.3-0.1,2.6-0.3,3.9-0.4
			c2.6-0.3,5.3-0.7,7.9-0.8c0.2,0,0.4,0,0.6,0c1.8-0.1,3.5-0.3,5.4-0.2c0.2,0,0.4,0,0.6,0c0.1,0,0.6,0,1.4,0c1.3,0,3.2,0.1,5.4,0.3
			c2.4,0.2,5,0.6,7,1.1c0.1,0.1,0.1,0.2,0.2,0.2c0.6,0.1,1.2,0.3,1.8,0.5c0.4,0.2,0.8,0.3,1.1,0.3c3.4,1,5.7,1.8,6,1.9
			c2.3,0.7,4.6,1.4,7,1.8c0.2,0,0.4,0.1,0.6,0.1c2.6,0.4,5.2,0.8,7.8,1c0.1,0,0.2,0,0.3,0l0,0v1.1l0,0v0.2c0,0,2.5-0.6,6-1.4
			c0.1,0,0.3-0.1,0.4-0.1l0,0c4.9-1.1,11.5-2.6,15.8-3.6c0.2,0,0.4-0.1,0.6-0.1l0,0c2.7-0.6,5.2-1.2,7.8-1.2
			c3.9-0.1,7.6,0.4,11.3,1.3c3.3,0.8,6.6,1.4,10,1.6c4.4,0.3,8.7-0.7,12.9-2l0,0c0.1-0.3,0.2-0.7,0.2-1
			C196.7,106.6,196.8,101.1,196.5,95.6z"/>
		<path class="st3" d="M135.9,172.8c-7.6,0.9-15.2,1.2-22.8,0.9c-6.9-0.4-13.7-1.3-20.6-2.2c-7.9-1.1-15.8-1.7-23.8-1.9
			c-7-0.2-14,0-21-0.3c-3.7-0.1-7.4-0.5-11.1-1c-1.9-0.2-3.8-0.8-5.7-0.9c3.5,3.7,7.4,6.9,11.6,10h0.1l-0.1-0.1
			c7.2,0.7,14.4,0.2,21.5,0.5c8.5,0.3,16.7,2.2,24.6,5.4c4.7,1.9,9.5,3.6,14.5,4.5c4.6,0.9,9.2,1.1,13.9,0.6
			c3.9-0.4,7.8-1.1,11.7-1.6c3.3-0.4,6.6-0.6,9.8-1c1.8-0.2,3.6-0.5,5.3-0.8c0.6-0.1,1.3-0.1,1.9-0.1c0,0,0,0.1-0.1,0.1
			c0,0,0,0,0.1,0c0-0.1,0.1-0.1,0.1-0.1c0.1-0.1,0.2-0.1,0.3,0.1c2.7-1.4,5.3-3,7.9-4.7c6-3.9,11.6-8.4,16.5-13.7
			c-0.6,0.1-1.2,0.2-1.7,0.3C157.9,169.2,147,171.4,135.9,172.8z"/>
		<path class="st3" d="M80.7,21c4.1,1.2,8.1,2.4,12.1,3.4c0.5,0.1,0.9,0.2,1.4,0.4c2.5,0.6,4.9,1.2,7.4,1.7c4.6,0.9,9.3,1.7,14,2.2
			c5,0.5,10.1,0.9,15.2,1.1c8.1,0.4,16.3,0.1,24.4,0.2c3.9,0,7.8,0,11.6-0.3c-3.8-3.9-8-7.2-12.6-10.2c-0.5,0.2-1.1,0.3-1.6,0.3
			c-0.3,0-0.6,0-0.8,0c-0.3,0-0.5,0-0.8,0s-0.7-0.1-1-0.1c-4.8,0-9.5-0.5-14.2-1.1c-5.4-0.7-10.7-1.7-15.9-3
			c-6.4-1.6-12.6-3.9-18.6-6.8C97.8,7,94.3,5.4,90.7,4c-0.3,0-0.7,0-1,0c-9.2,1.3-18.2,3.5-26.9,6.9c-2.9,1.2-5.9,2.4-8.6,4
			c2.9,0.5,5.9,1,8.8,1.6C69,17.7,74.8,19.4,80.7,21z"/>
	</g>
</g>
<g>
	<circle class="st1" cx="125.8" cy="118" r="1.7"/>
	<circle class="st1" cx="132.1" cy="118" r="1.7"/>
	<circle class="st1" cx="138.5" cy="118" r="1.7"/>
	<circle class="st1" cx="144.8" cy="118" r="1.7"/>
	<circle class="st1" cx="129.1" cy="121.9" r="1.7"/>
	<circle class="st1" cx="135.5" cy="121.9" r="1.7"/>
	<circle class="st1" cx="141.8" cy="121.9" r="1.7"/>
</g>
<g>
	<circle class="st1" cx="52.8" cy="118" r="1.7"/>
	<circle class="st1" cx="59.1" cy="118" r="1.7"/>
	<circle class="st1" cx="65.5" cy="118" r="1.7"/>
	<circle class="st1" cx="71.8" cy="118" r="1.7"/>
	<circle class="st1" cx="56.1" cy="121.9" r="1.7"/>
	<circle class="st1" cx="62.5" cy="121.9" r="1.7"/>
	<circle class="st1" cx="68.8" cy="121.9" r="1.7"/>
</g>
</svg>
