<?xml version="1.0" encoding="utf-8"?>
<!-- Generator: Adobe Illustrator 27.9.1, SVG Export Plug-In . SVG Version: 6.00 Build 0)  -->
<svg version="1.1" id="Layer_1" xmlns="http://www.w3.org/2000/svg" xmlns:xlink="http://www.w3.org/1999/xlink" x="0px" y="0px"
	 viewBox="0 0 200 200" style="enable-background:new 0 0 200 200;" xml:space="preserve">
<style type="text/css">
	.st0{fill:#67BDC6;}
	.st1{fill:#B1DFE5;}
	.st2{fill:#9DD5DD;}
	.st3{fill:#8FD5DC;}
	.st4{fill:#8BCBD5;}
	.st5{fill:#1F2F3D;}
	.st6{fill:#FFFFFF;}
</style>
<g>
	<g>
		<path class="st5" d="M52.6,125.6L52.6,125.6c-6.6,0-12.4-2.9-15.4-7.9c-0.9-1.4-0.4-3.3,1-4.1c1.4-0.9,3.3-0.4,4.1,1
			c1.9,3.1,5.8,5,10.2,5s8.4-1.9,10.2-5c0.9-1.4,2.7-1.9,4.1-1s1.9,2.7,1,4.1C65,122.7,59.3,125.6,52.6,125.6z"/>
	</g>
</g>
<g>
	<g>
		<path class="st5" d="M121.8,132L121.8,132c-6.6,0-12.4-2.9-15.4-7.9c-0.9-1.4-0.4-3.3,1-4.1c1.4-0.9,3.3-0.4,4.1,1
			c1.9,3.1,5.8,5,10.2,5c4.4,0,8.4-1.9,10.2-5c0.9-1.4,2.7-1.9,4.1-1c1.4,0.9,1.9,2.7,1,4.1C134.2,129.1,128.4,132,121.8,132z"/>
	</g>
</g>
<g>
	<ellipse class="st5" cx="86" cy="145.2" rx="4.6" ry="5.9"/>
</g>
<ellipse class="st0" cx="86" cy="146.5" rx="3" ry="3.9"/>
<g>
	<g>
		<path class="st5" d="M110.9,82.9l-4.5,5c0.6,0.1,5.3-0.3,5.7,0.3c0.7,0.7,0.1,1.8-0.9,1.6h-6.7c-4.3-0.9,3.4-5.9,4.1-7.8
			c-1.1-0.3-6.5,0.9-4.9-1.5C105.3,80.3,115,79.2,110.9,82.9z"/>
	</g>
</g>
<g>
	<g>
		<path class="st5" d="M135.1,69.3l-7,7.9c1,0.2,8.2-0.4,8.9,0.4c1.1,1,0.2,2.7-1.4,2.6h-10.4c-6.7-1.4,5.4-9.3,6.4-12.1
			c-1.6-0.4-10.1,1.5-7.6-2.4C126.3,65.2,141.4,63.4,135.1,69.3z"/>
	</g>
</g>
<g>
	<g>
		<path class="st5" d="M161.5,50.3l-8.9,9.9c1.3,0.2,10.4-0.5,11.2,0.5c1.3,1.3,0.2,3.5-1.7,3.2H149c-8.5-1.7,6.8-11.7,8.1-15.3
			c-2.1-0.5-12.8,1.8-9.6-3C150.3,45.1,169.4,42.8,161.5,50.3z"/>
	</g>
</g>
<ellipse class="st4" cx="125.9" cy="145.9" rx="13.5" ry="5.5"/>
<ellipse transform="matrix(0.1626 -0.9867 0.9867 0.1626 -96.6911 159.5757)" class="st4" cx="45.7" cy="136.8" rx="5.5" ry="13.5"/>
</svg>
