<?xml version="1.0" encoding="utf-8"?>
<!-- Generator: Adobe Illustrator 27.9.1, SVG Export Plug-In . SVG Version: 6.00 Build 0)  -->
<svg version="1.1" id="Layer_1" xmlns="http://www.w3.org/2000/svg" xmlns:xlink="http://www.w3.org/1999/xlink" x="0px" y="0px"
	 viewBox="0 0 200 200" style="enable-background:new 0 0 200 200;" xml:space="preserve">
<style type="text/css">
	.st0{fill:#8BCBD5;}
	.st1{fill:#EC8524;}
	.st2{fill:#FED653;}
	.st3{fill:#1F2F3D;}
	.st4{opacity:0.34;}
	.st5{fill:#F58A21;}
	.st6{fill:#D67140;}
	.st7{fill:#C96E43;}
	.st8{fill:#E88F53;}
	.st9{fill:#B54C33;}
	.st10{fill:#F8AE5E;}
	.st11{fill:#FDFCFB;}
	.st12{fill:#F37769;}
	.st13{fill:#F58E4E;}
	.st14{fill:#F9E1C0;}
	.st15{fill:#FAC087;}
	.st16{fill:#FBF9F9;}
	.st17{fill:#4167A0;}
	.st18{fill:#4C74B9;}
	.st19{fill:#7DA9DA;}
	.st20{opacity:0.15;fill:#7DA9DA;}
	.st21{fill:#67BDC6;}
	.st22{fill:#B1DFE5;}
	.st23{fill:#9DD5DD;}
	.st24{fill:#8FD5DC;}
	.st25{fill:#45A4C1;}
	.st26{fill:#77D1F3;}
	.st27{fill:#4AA146;}
	.st28{fill:#FCFBFA;}
	.st29{fill:#FFFFFF;}
	.st30{fill:#F8B032;}
	.st31{fill:#F59B28;}
	.st32{fill:#FBFAF9;}
	.st33{fill:#C45234;}
	.st34{fill:#E45E39;}
	.st35{fill:#939696;}
	.st36{fill:#B7B8B8;}
	.st37{fill:#F05979;}
	.st38{fill:#B7B8B8;stroke:#121C2B;stroke-width:6;stroke-linecap:round;stroke-linejoin:round;stroke-miterlimit:10;}
	.st39{fill:#FBDE84;}
	.st40{fill:#FDC478;}
	.st41{fill:#D88360;}
</style>
<g id="star">
	<path id="silhouette_00000163764267449768246800000004986896889111371175_" class="st30" d="M184.7,65c-11.9-2.5-24-4.2-36-6.1
		c-6-0.8-13.1-0.9-15.7-7.6c-7-11.7-18.7-51.2-32.9-51.3C85.8,0.1,74.1,39.6,67,51.3c-2.6,6.7-9.7,6.8-15.7,7.6
		c-12,2-24.1,3.6-36,6.1c-35.8,6.4,0.7,37.5,12.2,50.6c5,6.1,13.4,10.8,11.9,19.9c-1.8,16.7-5.7,33.4-5.7,50.2
		c3.7,36.9,46.5-9.2,66.3-10.3c19.8,1.1,62.6,47.2,66.3,10.3c-0.1-16.9-3.9-33.5-5.7-50.2c-1.5-9.1,7-13.8,11.9-19.9
		C183.9,102.5,220.5,71.4,184.7,65z"/>
	<g>
		<path class="st2" d="M155,195c-14.5-0.8-40-24.2-54.7-24.6c-15.5-2.4-61.1,43.4-61.5,15c0.1-16.6,3.9-32.8,5.7-49.3
			c1.4-9.3-4.5-15.1-9.2-19.7C-7,71.7-8,72.4,52,63.9c16.6-0.4,19.9-9.3,26.4-25C82.2,29.7,92.1,6.1,100,5.1c1.2,0,4.6,1,10.1,10.1
			c29.3,58.5,9.9,42.4,73.5,54.8c30.4,3.9-10.2,35.1-18.9,46.5c-12.8,9.7-9.2,22.6-6.8,37C158.3,162.7,167,193.7,155,195z"/>
		<g>
			<path class="st29" d="M52,67.8c16.6-0.4,19.9-9.3,26.4-25C82.2,33.7,92.1,10.1,100,9c1.2,0,4.6,1,10.1,10.1
				c29.3,58.5,9.9,42.4,73.5,54.8c6.7,0.9,10,3.1,10.9,6.1c1.2-5.1-1.4-8.9-10.9-10.1c-63.7-12.4-44.2,3.7-73.5-54.8
				c-5.5-9.1-8.9-10.1-10.1-10.1c-7.9,1-17.8,24.7-21.6,33.8c-6.5,15.7-9.7,24.6-26.4,25c-35.1,5-49.3,6.8-46.7,16.4
				C7.7,74,22.4,72,52,67.8z"/>
			<path class="st29" d="M155.7,137.3c-0.4,6.2,1.1,12.9,2.3,20.1c0.2,5.1,3,16.9,3.4,26.6c0.5-10.2-3.1-24.8-3.4-30.6
				C157,147.8,155.9,142.4,155.7,137.3z"/>
			<path class="st29" d="M44.5,135.3c0,0.3,0,0.6-0.1,0.8c-1.8,16.5-5.5,32.7-5.7,49.3c0,0.5,0,0.9,0.1,1.3
				c0.5-15.7,3.9-31.1,5.6-46.7C44.7,138.4,44.7,136.8,44.5,135.3z"/>
		</g>
		<g>
			<g>
				<path class="st3" d="M53.3,92.3c-0.3,0-0.6-0.1-1-0.2c-1.6-0.5-2.4-2.2-1.9-3.8c2-5.8,7-10,13.1-10.8c6.1-0.8,12,1.9,15.4,7
					c0.9,1.4,0.5,3.2-0.8,4.2c-1.4,0.9-3.2,0.5-4.2-0.8c-2.2-3.3-5.8-4.9-9.6-4.4c-3.9,0.5-6.9,3-8.2,6.7
					C55.7,91.5,54.6,92.3,53.3,92.3z"/>
			</g>
		</g>
		<g>
			<g>
				<path class="st3" d="M139.3,92.3c-1.3,0-2.4-0.8-2.8-2c-1.2-3.7-4.3-6.2-8.2-6.7c-3.9-0.5-7.5,1.1-9.6,4.4
					c-0.9,1.4-2.8,1.8-4.2,0.8c-1.4-0.9-1.8-2.8-0.8-4.2c3.4-5.1,9.3-7.8,15.4-7c6.1,0.8,11.1,4.9,13.1,10.8
					c0.5,1.6-0.3,3.3-1.9,3.8C139.9,92.2,139.6,92.3,139.3,92.3z"/>
			</g>
		</g>
		<path class="st12" d="M143,111.4c-3.8-2.4-9-2.8-13.6-1.1c-2.7,1-4.5,2.6-4.5,4.3c0,2.3,1.2,3.7,3.4,4.8
			c4.1,1.9,10.2,1.9,14.3-0.5C146.1,116.8,146.3,113.5,143,111.4z"/>
		<path class="st12" d="M69.6,111.4c-3.8-2.4-9-2.8-13.6-1.1c-2.7,1-4.5,2.6-4.5,4.3c0,2.3,1.2,3.7,3.4,4.8
			c4.1,1.9,10.2,1.9,14.3-0.5C72.8,116.8,73,113.5,69.6,111.4z"/>
		<g>
			<g>
				<g>
					<path class="st3" d="M89.5,128.4c-7.9,0-12.4-5-12.4-13.8c0-1.7,1.3-3,3-3s3,1.3,3,3c0,6.9,3.2,7.8,6.4,7.8
						c3.5,0,6.4-2.9,6.4-6.4c0-1.7,1.3-3,3-3s3,1.3,3,3C101.8,122.9,96.3,128.4,89.5,128.4z"/>
				</g>
			</g>
			<g>
				<g>
					<path class="st3" d="M108.2,128.4c-6.8,0-12.4-5.5-12.4-12.4c0-1.7,1.3-3,3-3s3,1.3,3,3c0,3.5,2.9,6.4,6.4,6.4
						c3.4,0,6.4-4.3,6.4-7.8c0-1.7,1.3-3,3-3s3,1.3,3,3C120.5,121.1,115.2,128.4,108.2,128.4z"/>
				</g>
			</g>
		</g>
	</g>
</g>
</svg>
