<?xml version="1.0" encoding="utf-8"?>
<!-- Generator: Adobe Illustrator 27.9.1, SVG Export Plug-In . SVG Version: 6.00 Build 0)  -->
<svg version="1.1" id="Layer_1" xmlns="http://www.w3.org/2000/svg" xmlns:xlink="http://www.w3.org/1999/xlink" x="0px" y="0px"
	 viewBox="0 0 200 200" style="enable-background:new 0 0 200 200;" xml:space="preserve">
<style type="text/css">
	.st0{fill:#1F2F3D;}
	.st1{fill:#FFD653;}
	.st2{fill:#F68922;}
	.st3{fill:#CA6F43;}
	.st4{fill:#B64D33;}
	.st5{fill:#E88F53;}
	.st6{fill:#F7AE5E;}
	.st7{fill:#FFFFFF;}
	.st8{fill:#EC8523;}
	.st9{fill:#FAF9F9;}
	.st10{fill:#F9C087;}
	.st11{fill:#F8E1C1;}
	.st12{fill:#F68F4E;}
	.st13{fill:#4268A0;}
	.st14{fill:#4D75B9;}
	.st15{fill:#7CA9DA;}
	.st16{opacity:0.15;fill:#7CA9DA;enable-background:new    ;}
	.st17{fill:#69BDC6;}
	.st18{fill:#B3DFE5;}
	.st19{fill:#9DD5DC;}
	.st20{fill:#90D5DB;}
	.st21{fill:#8CCBD4;}
	.st22{fill:#45A4C1;}
	.st23{fill:#78D1F2;}
	.st24{fill:#4AA146;}
	.st25{fill:#FDFDFB;}
	.st26{fill:#F37769;}
	.st27{fill:#F7B032;}
	.st28{fill:#F59B28;}
	.st29{fill:#FBFAF9;}
	.st30{fill:#EF423F;}
	.st31{fill:#C55334;}
	.st32{fill:#E45F3A;}
	.st33{fill:#939696;}
	.st34{fill:#B7B9B8;}
	.st35{fill:#F05B7A;}
	.st36{fill:#FBDE84;}
	.st37{fill:#FDC579;}
	.st38{fill:#D88360;}
	.st39{fill:#EDA329;}
	.st40{fill:#F6C12D;}
	.st41{fill:#D3A12A;}
	.st42{fill:#7F3F98;}
	.st43{fill:#FAFBFC;}
	.st44{fill:#B64C32;}
	.st45{fill:#EECBA0;}
	.st46{fill:#F8E0C0;}
	.st47{fill:#FADE83;}
	.st48{fill:#F05A7A;}
	.st49{fill:#719191;}
	.st50{fill:#B2E0E6;}
	.st51{fill:#5BA1A5;}
	.st52{fill:#E45E39;}
	.st53{fill:#121B2B;}
	.st54{fill:#B7B8B8;}
	.st55{fill:#FFFFFF;stroke:#010101;stroke-miterlimit:10;}
	.st56{fill:#49A146;}
	.st57{fill:#010101;}
	.st58{fill:none;stroke:#010101;stroke-width:6;stroke-linecap:round;stroke-linejoin:round;stroke-miterlimit:10;}
	.st59{fill:#030303;}
	.st60{fill:#232323;}
	.st61{fill:#ED90B6;}
	.st62{fill:#F37769;stroke:#010101;stroke-width:3;stroke-linecap:round;stroke-linejoin:round;stroke-miterlimit:10;}
</style>
<g>
	<g>
		<g>
			<path class="st57" d="M33.5,126.2L33.5,126.2c-8.2,0-15.4-3.6-19.1-9.8c-1.1-1.7-0.5-4.1,1.2-5.1c1.7-1.1,4.1-0.5,5.1,1.2
				c2.4,3.9,7.2,6.2,12.7,6.2c5.5,0,10.4-2.4,12.7-6.2c1.1-1.7,3.4-2.4,5.1-1.2s2.4,3.4,1.2,5.1C48.9,122.5,41.8,126.2,33.5,126.2z"
				/>
		</g>
	</g>
	<g>
		<g>
			<path class="st57" d="M119.4,134.1L119.4,134.1c-8.2,0-15.4-3.6-19.1-9.8c-1.1-1.7-0.5-4.1,1.2-5.1c1.7-1.1,4.1-0.5,5.1,1.2
				c2.4,3.9,7.2,6.2,12.7,6.2c5.5,0,10.4-2.4,12.7-6.2c1.1-1.7,3.4-2.4,5.1-1.2c1.7,1.1,2.4,3.4,1.2,5.1
				C134.8,130.5,127.6,134.1,119.4,134.1z"/>
		</g>
	</g>
	<g>
		<ellipse class="st57" cx="75" cy="150.5" rx="5.7" ry="7.3"/>
	</g>
	<ellipse class="st17" cx="75" cy="152.1" rx="3.8" ry="4.8"/>
	<g>
		<g>
			<path class="st57" d="M105.8,73.2l-5.6,6.2c0.8,0.1,6.6-0.4,7.1,0.4c0.8,0.8,0.1,2.3-1.1,2h-8.3c-5.4-1.1,4.2-7.3,5.1-9.7
				c-1.4-0.4-8.1,1.1-6.1-1.9C98.9,69.9,110.9,68.6,105.8,73.2z"/>
		</g>
	</g>
	<g>
		<g>
			<path class="st57" d="M135.9,56.3l-8.7,9.8c1.2,0.3,10.2-0.5,11,0.5c1.4,1.2,0.3,3.4-1.7,3.2h-12.9c-8.3-1.7,6.7-11.6,7.9-15.1
				c-2-0.5-12.5,1.9-9.4-3C124.9,51.2,143.8,48.9,135.9,56.3z"/>
		</g>
	</g>
	<g>
		<g>
			<path class="st57" d="M168.7,32.7l-11,12.3c1.6,0.3,12.9-0.7,13.9,0.7c1.6,1.6,0.3,4.3-2.1,4h-16.3c-10.5-2.1,8.5-14.5,10.1-19
				c-2.6-0.7-15.9,2.3-12-3.8C154.8,26.2,178.5,23.4,168.7,32.7z"/>
		</g>
	</g>
</g>
</svg>
