<?xml version="1.0" encoding="utf-8"?>
<!-- Generator: Adobe Illustrator 27.9.1, SVG Export Plug-In . SVG Version: 6.00 Build 0)  -->
<svg version="1.1" id="Layer_1" xmlns="http://www.w3.org/2000/svg" xmlns:xlink="http://www.w3.org/1999/xlink" x="0px" y="0px"
	 viewBox="0 0 158.5 50.6" style="enable-background:new 0 0 158.5 50.6;" xml:space="preserve">
<style type="text/css">
	.st0{fill:#EC8524;}
	.st1{fill:#FED653;}
	.st2{fill:#1F2F3D;}
	.st3{fill:#F58A21;}
</style>
<g>
	<g>
		<g>
			<path class="st2" d="M120.6,50.6c-4.5,0-9-0.4-13.4-1.8c-7-2.1-12.2-6.4-15.8-12.7c-2.6-4.6-4.2-9.6-4.9-14.8
				c-0.2-1.6-1-2.6-2.6-3.1c-3.4-0.9-6.7-1-10,0.3c-1.2,0.5-1.7,1.3-1.9,2.6c-0.9,5.5-2.5,10.8-5.5,15.6c-4.2,6.8-10.3,10.8-18,12.7
				c-3.4,0.8-6.9,1.1-10.4,1.2c-2.5,0-4.9-0.4-7.3-0.8c-3.7-0.6-7-2.1-10.2-4c-7.5-5.2-10.7-13-12.8-21.4c0-0.1,0-0.1,0-0.2
				c-0.3-2.8-1.7-4.5-4.6-5c-1.9-0.4-2.8-1.6-3-3.5S0,11.9,0.1,10c0.1-1.6,1.1-2.7,2.6-3.2c6.3-2.3,12.9-4,19.5-5.2
				c4.4-0.8,8.9-1.2,13.4-1.5C42.9-0.3,50.1,0.3,57.2,2c4.1,1,8.1,2.3,11.4,5c0.8,0.6,1.6,1.4,2.2,2.2c0.4,0.5,0.8,0.6,1.4,0.5
				c4.8-1.1,9.6-1,14.4,0c0.5,0.1,0.9,0.1,1.3-0.4c2.2-3,5.4-4.5,8.8-5.7c4.9-1.8,10-2.7,15.1-3.2c3.1-0.3,6.2-0.5,9.3-0.4
				c9.5,0.3,18.8,1.8,27.9,4.5c2.2,0.7,4.4,1.3,6.5,2.1c2.4,0.8,3.1,1.8,3,4.3c0,1.8,0.1,3.6-0.2,5.3c-0.3,1.4-1,2.4-2.4,2.8
				c-0.5,0.1-0.9,0.4-1.4,0.5c-2.3,0.5-3.3,2-3.8,4.2c-0.7,3.4-1.9,6.7-3.4,9.9c-2,4.4-4.6,8.4-8.6,11.3c-0.2,0.2-0.4,0.3-0.5,0.6
				c-0.9,0.1-1.4,0.8-2.2,1.2C131.2,49.3,126,50.4,120.6,50.6z M119.2,4.4c-6.8,0.1-13.4,0.7-19.7,2.9c-5.9,2.1-8.6,5.9-8.6,12.2
				c0,2.7,0.5,5.3,1.2,7.9c2.8,9.4,8.7,15.6,18.4,17.8c4.7,1.1,9.4,1.2,14.2,0.5c5.6-0.9,10.6-3,14.4-7.4c4.8-5.7,6.9-12.4,7-19.7
				c0-6.6-2.5-9.7-8.8-11.7C131.4,4.9,125.2,4.5,119.2,4.4z M39.3,4.4c-7.5,0.1-14.2,1.1-18.6,2.5c-5.5,1.8-8.1,5.1-8.5,10.9
				c-0.3,4.4,0.6,8.5,2.1,12.6c2.9,7.8,8.3,12.9,16.5,14.8c5.9,1.3,11.8,1.3,17.6-0.3c4.1-1.1,7.8-2.9,10.8-5.9
				c5.9-6,8.4-13.3,8.1-21.6c-0.1-3.6-1.8-6.6-5-8.5c-1.3-0.7-2.5-1.4-3.9-1.8C51.7,4.9,44.9,4.4,39.3,4.4z M6,11.1
				c-0.1,0-0.5,0-0.9,0.1c-0.8,0.2-1.4,0.6-1.4,1.5s0.5,1.4,1.4,1.6c0.4,0.1,0.9,0.1,1.4,0.1c1.7,0,2.4-0.6,2.4-1.6
				C8.8,11.6,7.9,11,6,11.1z M152,14.3c0.4,0,0.8,0,1.2-0.1c0.9-0.1,1.3-0.6,1.4-1.4c0.1-0.8-0.3-1.4-1.2-1.6
				c-0.5-0.1-1-0.2-1.6-0.2c-1.6,0-2.5,0.6-2.4,1.7C149.6,13.8,150.3,14.3,152,14.3z"/>
		</g>
	</g>
</g>
</svg>
