<?xml version="1.0" encoding="utf-8"?>
<!-- Generator: Adobe Illustrator 27.9.1, SVG Export Plug-In . SVG Version: 6.00 Build 0)  -->
<svg version="1.1" id="Layer_1" xmlns="http://www.w3.org/2000/svg" xmlns:xlink="http://www.w3.org/1999/xlink" x="0px" y="0px"
	 viewBox="0 0 200 200" style="enable-background:new 0 0 200 200;" xml:space="preserve">
<style type="text/css">
	.st0{fill:#4167A0;}
	.st1{fill:#4C74B9;}
	.st2{fill:#7DA9DA;}
	.st3{fill:#1F2F3D;}
	.st4{opacity:0.15;fill:#7DA9DA;enable-background:new    ;}
</style>
<g>
	<g>
		<g>
			<path class="st3" d="M46,72.6c14.8-0.7,29.2,1.6,43.4,5.4c5.6,1.5,11.4,1.5,17,0c14.3-3.9,28.8-6.2,43.6-5.7
				c8.6,0.3,17.2,1.3,25.8,2c1.8,0.1,3.6,0.1,5.2,0.6c0.9,0.3,1.9,1.5,2,2.3c0.2,3.4,0.3,6.8-0.1,10.1c-0.3,2.4-0.8,5-3.7,6
				c-0.5,0.2-0.8,1.3-1,2c-1.2,4.7-2.3,9.4-3.7,14.1c-2.8,9.3-9.3,14.7-18.8,16.7c-8.9,1.9-17.8,2.1-26.7,0.3
				c-9-1.8-15.1-7.2-18.8-15.3c-2.3-4.9-4-10.1-5.8-15.2c-1.5-4.3-3.9-5.7-8.3-4.6C93.6,91.9,93,94,92.3,96
				c-1.8,4.9-3.5,9.9-5.6,14.6c-4.6,10.4-12.9,15.6-24.1,16.6c-8.1,0.8-16,0.4-23.9-1.4c-10.3-2.4-16.7-8.6-18.9-18.9
				c-0.9-4.2-1.8-8.3-2.7-12.5c-0.1-0.5-0.3-1.1-0.6-1.3c-3.3-1.5-3.4-4.6-3.8-7.5c-0.3-2.8-0.3-5.6-0.4-8.4c-0.1-1.9,1-2.8,2.8-3
				c5.5-0.6,11-1.4,16.5-1.7C36.5,72.4,41.3,72.6,46,72.6z"/>
		</g>
	</g>
</g>
<g>
	<g>
		<path class="st3" d="M83.8,153.6c-6-2.8-9.8-8.2-10.7-15.6c-0.4-3,1.1-5.1,3.5-5.4c2.5-0.3,4.3,1.2,4.9,4.1c1.8,8.4,9,12,16.9,8.4
			c2.5-1.1,5.1-0.5,6.2,1.5c1.1,1.9,0.4,4.2-2.1,5.7C96.9,155.7,90.9,156.5,83.8,153.6z"/>
	</g>
</g>
<g>
	<path class="st3" d="M90.1,84.7c0,0-3.7,13.6-7.5,23.1c-0.6,1.6-1.3,3.1-2.1,4.4c-1.4,2.5-3.2,4.5-6.2,6c-2,1-4.5,1.9-7.8,2.4
		c-2.3,0.4-4.9,0.7-8,0.8c-2.1,0.1-4.4,0.1-6.9,0.1c-1.9,0-3.8-0.1-6-0.2c-2-0.1-3.9-0.4-5.6-0.8c-22.8-5.8-20.5-40.6-20.5-40.6
		s1-1,6-1.8c2.5-0.4,6-0.8,10.9-0.9c2.1-0.1,4.3-0.1,6.9-0.1c1.7,0,3.6,0,5.5,0.1c0.9,0,1.9,0,2.8,0.1c3.1,0.1,6.1,0.3,8.9,0.6
		c3.1,0.3,6,0.7,8.6,1.1C82.6,81.4,90.1,84.7,90.1,84.7z"/>
</g>
<path class="st4" d="M51.7,121.6c-1.9,0-3.8-0.1-6-0.2c-2-0.1-3.9-0.4-5.6-0.8L25.6,78.3c2.5-0.4,6-0.8,10.9-0.9L51.7,121.6z"/>
<path class="st4" d="M66.6,120.7c-2.3,0.4-4.9,0.7-8,0.8L43.4,77.3c1.7,0,3.6,0,5.5,0.1c0.9,0,1.9,0,2.8,0.1L66.6,120.7z"/>
<path class="st4" d="M147.4,121.6c-1.9,0-3.8-0.1-6-0.2c-2-0.1-3.9-0.4-5.6-0.8l-14.5-42.3c2.5-0.4,6-0.8,10.9-0.9L147.4,121.6z"/>
<path class="st4" d="M162.3,120.7c-2.3,0.4-4.9,0.7-8,0.8l-15.2-44.2c1.7,0,3.6,0,5.5,0.1c0.9,0,1.9,0,2.8,0.1L162.3,120.7z"/>
</svg>
