<?xml version="1.0" encoding="utf-8"?>
<!-- Generator: Adobe Illustrator 27.9.1, SVG Export Plug-In . SVG Version: 6.00 Build 0)  -->
<svg version="1.1" id="Layer_1" xmlns="http://www.w3.org/2000/svg" xmlns:xlink="http://www.w3.org/1999/xlink" x="0px" y="0px"
	 viewBox="0 0 200 200" style="enable-background:new 0 0 200 200;" xml:space="preserve">
<style type="text/css">
	.st0{fill:#1F2F3D;}
	.st1{fill:#FCFBFA;}
	.st2{fill:#F37769;}
</style>
<g>
	<g>
		<g>
			<path class="st0" d="M62.7,86.5c0-5.9,4.8-10.6,10.7-10.5c5.8,0.1,10.5,4.9,10.4,10.7c-0.1,5.6-4.9,10.4-10.6,10.3
				C67.4,97,62.7,92.2,62.7,86.5z M66.4,83c0,1.9,1.6,3.5,3.4,3.5c1.9,0,3.5-1.6,3.5-3.5c0-1.8-1.6-3.4-3.5-3.4S66.4,81.1,66.4,83z"
				/>
		</g>
		<path class="st1" d="M66.4,83c0-1.9,1.5-3.4,3.4-3.4s3.4,1.6,3.5,3.4c0,1.9-1.6,3.6-3.5,3.5S66.4,84.8,66.4,83z"/>
	</g>
	<g>
		<g>
			<path class="st0" d="M134.4,94.9c-1.1,0-2.2-0.6-2.7-1.7c-1.1-2.3-3.3-3.7-5.9-3.7c-2.6,0-4.8,1.4-5.9,3.7
				c-0.7,1.5-2.5,2.1-4,1.4s-2.1-2.5-1.4-4c2.1-4.3,6.4-7,11.3-7c4.8,0,9.2,2.7,11.3,7c0.7,1.5,0.1,3.3-1.4,4
				C135.2,94.8,134.8,94.9,134.4,94.9z"/>
		</g>
	</g>
	<g>
		<path class="st0" d="M111.2,108.9c0,3.8-0.5,7.2-2.5,10.1c-2.9,4.1-7,5.6-11.8,4.9c-4.7-0.7-7.8-3.5-9.3-8
			c-1.2-3.4-1.1-7-0.7-10.5c0.1-1.4,1.5-2.3,2.9-2c6.2,1.2,12.3,1.2,18.4,0c1.5-0.3,2.8,0.8,2.9,2.2
			C111.1,106.8,111.2,108,111.2,108.9z M99.5,110.3c-3.8,0-6.2,1.4-7.3,3.8c-0.4,0.9-0.4,1.7,0.2,2.5c2.8,4.4,10.5,4.3,13.2-0.2
			c0.5-0.8,0.5-1.5,0.1-2.3C104.2,111.4,101.8,110.4,99.5,110.3z"/>
	</g>
	<path class="st2" d="M99.5,110.3c2.3,0.1,4.7,1.1,6.2,3.8c0.4,0.8,0.4,1.5-0.1,2.3c-2.7,4.5-10.4,4.6-13.2,0.2
		c-0.5-0.8-0.6-1.6-0.2-2.5C93.3,111.7,95.7,110.3,99.5,110.3z"/>
	<ellipse class="st2" cx="70.7" cy="111.9" rx="6.3" ry="2.7"/>
	<ellipse class="st2" cx="125.8" cy="111.9" rx="6.3" ry="2.7"/>
</g>
</svg>
