<?xml version="1.0" encoding="utf-8"?>
<!-- Generator: Adobe Illustrator 27.9.1, SVG Export Plug-In . SVG Version: 6.00 Build 0)  -->
<svg version="1.1" id="Layer_1" xmlns="http://www.w3.org/2000/svg" xmlns:xlink="http://www.w3.org/1999/xlink" x="0px" y="0px"
	 viewBox="0 0 200 200" style="enable-background:new 0 0 200 200;" xml:space="preserve">
<style type="text/css">
	.st0{fill:#EC8524;}
	.st1{fill:#F8B032;}
	.st2{fill:#F59B28;}
</style>
<g id="venus_00000023269683833745925070000013704162791069943199_">
	<circle id="silhouette_00000034770480771663193570000005124172635356645311_" class="st0" cx="100" cy="100" r="100"/>
	<g>
		<path id="a_00000075879612253490428830000015816974046055448235_" class="st1" d="M195,100c0,1.6,0,3.1-0.1,4.7
			c-0.4,7.6-1.6,14.9-3.6,21.8c-0.6,2.2-1.3,4.4-2.1,6.5c-0.9,2.5-1.9,4.9-3.1,7.3c-2.1,4.6-4.6,8.9-7.4,13
			c-17.2,25.2-46,41.7-78.7,41.7c-25.9,0-49.3-10.3-66.5-27.1c-1.2-1.1-2.3-2.3-3.4-3.5c-4.3-4.7-8.2-9.8-11.5-15.2
			c-6-9.8-10.2-20.8-12.2-32.6C5.5,111.2,5,105.6,5,100c0-10.1,1.6-19.7,4.5-28.8c2-6.3,4.6-12.2,7.8-17.8c1.6-2.8,3.3-5.5,5.1-8.1
			c2.5-3.5,5.2-6.9,8.1-10c5.6-6,12-11.3,18.9-15.7C64.1,10.3,81.4,5,100,5c29,0,55,13,72.4,33.5c8.9,10.4,15.5,22.8,19.2,36.3
			c0.8,3,1.5,6,2,9C194.5,89.1,195,94.5,195,100z"/>
		<path class="st2" d="M191.2,126.5c-0.6,2.2-1.3,4.4-2.1,6.5c-0.9,2.5-1.9,4.9-3.1,7.3c-5.8,1.2-12.2,2.6-17.9,4.9
			c-19.9,7.8-32.3,17.1-49.9,18.8s-39.4-7.8-51.1-6.4c-9.2,1.1-27.5,5.1-37.1,6.8c-4.3-4.7-8.2-9.8-11.5-15.2
			c-6-9.8-10.2-20.8-12.2-32.6c0,0,43.3-9.1,66.9,9.9s38.7,15,53.3,7.6C138.7,128,171.9,123,191.2,126.5z"/>
		<path class="st0" d="M189.1,133c-2.7,7.2-6.2,14.1-10.5,20.3c-5.9-0.1-11.8,0.9-16.8,3.8c-17.9,10.4-38.1,22.4-82.3,9.3
			c-17.6-5.2-33.4-3-46,1.4c-5.7-5.6-10.7-11.9-14.8-18.7c8.3-0.9,18.7-1.6,30.8-1.5c33.2,0.3,42.7,21.5,69.7,7.4
			C136,146.3,167.7,138,189.1,133z"/>
		<path class="st2" d="M172.4,38.5c-25,4.5-60.4,3-85.1-10C73.1,21,60.2,19,49.5,19.6C64.1,10.3,81.4,5,100,5
			C129,5,155,18,172.4,38.5z"/>
		<path class="st2" d="M195,100c0,1.6,0,3.1-0.1,4.7c-14.6-0.6-33.8-3.3-50.5-11.7c-15.1-7.6-27.7-14.7-42-16
			c-16.2-1.5-34.2,3.3-54.3,2.1C30.4,78,17.8,74.6,9.4,71.2c2-6.3,4.6-12.2,7.8-17.8c1.6-2.8,3.3-5.5,5.1-8.1
			c0.4-0.5,0.8-1.1,1.2-1.6c0.4-0.6,0.9-1.2,1.3-1.8c0.7-0.9,1.4-1.8,2.1-2.7c0.4-0.5,0.9-1,1.3-1.6c0.1-0.1,0.2-0.2,0.3-0.4
			c0.6-0.7,1.2-1.4,1.8-2c7.6,6.4,20.2,15,51,11.5c52,3.7,63.1,9.3,90.4,23.5c0.4,0.2,0.9,0.5,1.3,0.7c5.9,3,12.2,4.2,18.5,4
			c0.8,3,1.5,6,2,9C194.5,89.1,195,94.5,195,100z"/>
		<path class="st0" d="M193.6,83.9c-11.6,0.1-27.7-1.5-49.1-7.5c-50-14-60.5-13.4-94-9.5c-11.7,1.4-20.8-12.2-28.2-21.7
			c0.4-0.5,0.8-1.1,1.2-1.6c0.4-0.6,0.9-1.2,1.3-1.8c0.7-0.9,1.4-1.8,2.1-2.7c0.4-0.5,0.9-1,1.3-1.6c0.1-0.1,0.2-0.2,0.3-0.4
			c0.6-0.7,1.2-1.4,1.8-2c7.6,6.4,20.2,15,51,11.5c51.8-6,63,9,90.4,23.5c0.4,0.2,0.9,0.5,1.3,0.7c5.9,3,12.2,4.2,18.5,4
			C192.4,77.8,193.1,80.8,193.6,83.9z"/>
		<path class="st2" d="M100,195c19.1,0,37-5.7,51.9-15.4c-15.3-2.2-34.6-2.2-58.1,1c-22.3,3.1-40.8-1.5-54.7-7.7
			C55.6,186.7,76.8,195,100,195z"/>
	</g>
</g>
</svg>
