<?xml version="1.0" encoding="utf-8"?>
<!-- Generator: Adobe Illustrator 27.9.1, SVG Export Plug-In . SVG Version: 6.00 Build 0)  -->
<svg version="1.1" id="Layer_1" xmlns="http://www.w3.org/2000/svg" xmlns:xlink="http://www.w3.org/1999/xlink" x="0px" y="0px"
	 viewBox="0 0 200 200" style="enable-background:new 0 0 200 200;" xml:space="preserve">
<style type="text/css">
	.st0{fill:#939696;}
	.st1{fill:#B7B8B8;}
	.st2{fill:#1F2F3D;}
	.st3{fill:#FFFFFF;}
	.st4{fill:#F05979;}
</style>
<path class="st2" d="M121,126.3H79c-3.2,0-5.8-2.6-5.8-5.8v0c0-3.2,2.6-5.8,5.8-5.8H121c3.2,0,5.8,2.6,5.8,5.8v0
	C126.9,123.7,124.3,126.3,121,126.3z"/>
<g>
	<polygon class="st2" points="80.9,79.8 72.9,71.8 64.9,79.8 56.9,71.8 48.9,79.8 56.9,87.8 48.9,95.8 56.9,103.8 64.9,95.8 
		72.9,103.8 80.9,95.8 72.9,87.8 	"/>
	<polygon class="st2" points="151.1,79.8 143.1,71.8 135.1,79.8 127.1,71.8 119.1,79.8 127.1,87.8 119.1,95.8 127.1,103.8 
		135.1,95.8 143.1,103.8 151.1,95.8 143.1,87.8 	"/>
</g>
</svg>
