<?xml version="1.0" encoding="utf-8"?>
<!-- Generator: Adobe Illustrator 27.9.1, SVG Export Plug-In . SVG Version: 6.00 Build 0)  -->
<svg version="1.1" id="Layer_1" xmlns="http://www.w3.org/2000/svg" xmlns:xlink="http://www.w3.org/1999/xlink" x="0px" y="0px"
	 viewBox="0 0 200 200" style="enable-background:new 0 0 200 200;" xml:space="preserve">
<style type="text/css">
	.st0{fill:#939696;}
	.st1{fill:#B7B8B8;}
	.st2{fill:#1F2F3D;}
	.st3{fill:#FFFFFF;}
	.st4{fill:#F05979;}
</style>
<g>
	<g>
		<g>
			<g>
				<g>
					<path class="st2" d="M100,119.1c-6.5,0-12.7-1.4-18.7-4.2c-6.1-2.8-11.5-7-16.1-12.3c-1.4-1.7-1.3-4.2,0.4-5.6
						c1.7-1.5,4.2-1.3,5.6,0.4c3.9,4.5,8.4,7.9,13.5,10.3c4.9,2.3,10,3.4,15.3,3.4c4.9,0,9.8-1,14.3-3c5.4-2.3,10.4-6,14.4-10.7
						c1.4-1.7,4-1.8,5.6-0.4c1.7,1.5,1.8,4,0.4,5.6c-4.9,5.6-10.8,10-17.3,12.8C111.9,117.8,106,119.1,100,119.1z"/>
				</g>
			</g>
		</g>
		<g>
			<path class="st4" d="M118.8,113.2c-1.1,9.3-5.7,15.1-9.9,18.5c-4,3.3-11,3.3-15,0c-4.2-3.5-8.9-9.4-9.9-18.8l2-0.1
				c5.2,2.4,11,3.8,17,3.8C108.4,116.5,113.8,115.3,118.8,113.2z"/>
			<path class="st2" d="M101.3,138.2c-3.6,0-7.3-1.1-10.1-3.4c-4.5-3.7-10.2-10.5-11.4-21.5c-0.1-1.1,0.2-2.2,0.9-3
				c0.7-0.8,1.7-1.3,2.8-1.4l2-0.1c0.7,0,1.3,0.1,1.9,0.4c4.9,2.3,10,3.4,15.3,3.4c4.9,0,9.8-1,14.3-3c1.3-0.6,2.8-0.4,4,0.5
				s1.8,2.3,1.6,3.7c-1.3,10.8-6.9,17.5-11.3,21.1C108.5,137,104.9,138.2,101.3,138.2z M89.1,118.3c1.4,4.1,3.8,7.5,7.2,10.3
				c2.6,2.1,7.4,2.1,9.9,0c3.1-2.6,5.4-5.7,6.8-9.3c-3.4,0.8-6.8,1.2-10.3,1.2C98.1,120.5,93.5,119.7,89.1,118.3z"/>
		</g>
	</g>
	<g>
		<g>
			<g>
				<path class="st2" d="M51,82.4c-0.4,0-0.9-0.1-1.3-0.2c-2.1-0.7-3.2-3-2.5-5.1c2.5-7.4,8.9-12.7,16.6-13.7
					c7.8-1,15.3,2.4,19.6,8.9c1.2,1.8,0.7,4.3-1.1,5.5c-1.8,1.2-4.3,0.7-5.5-1.1c-2.7-4-7.1-6-11.9-5.4s-8.6,3.7-10.1,8.3
					C54.2,81.4,52.7,82.4,51,82.4z"/>
			</g>
		</g>
		<g>
			<g>
				<path class="st2" d="M148.9,82.4c-1.7,0-3.2-1.1-3.8-2.7c-1.5-4.6-5.3-7.7-10.1-8.3c-4.8-0.6-9.2,1.4-11.9,5.4
					c-1.2,1.8-3.7,2.3-5.5,1.1c-1.8-1.2-2.3-3.7-1.1-5.5c4.3-6.5,11.9-9.9,19.6-8.9c7.8,1,14.1,6.3,16.6,13.7
					c0.7,2.1-0.4,4.4-2.5,5.1C149.8,82.4,149.4,82.4,148.9,82.4z"/>
			</g>
		</g>
	</g>
</g>
</svg>
