<?xml version="1.0" encoding="utf-8"?>
<!-- Generator: Adobe Illustrator 27.9.1, SVG Export Plug-In . SVG Version: 6.00 Build 0)  -->
<svg version="1.1" id="Layer_1" xmlns="http://www.w3.org/2000/svg" xmlns:xlink="http://www.w3.org/1999/xlink" x="0px" y="0px"
	 viewBox="0 0 200 200" style="enable-background:new 0 0 200 200;" xml:space="preserve">
<style type="text/css">
	.st0{fill:#1F2F3D;}
	.st1{fill:#FCFBFA;}
	.st2{fill:#F37769;}
</style>
<g>
	<g>
		<g>
			<g>
				<path class="st0" d="M82.4,94.9c-1.1,0-2.2-0.6-2.7-1.7c-1.1-2.3-3.3-3.7-5.9-3.7s-4.8,1.4-5.9,3.7c-0.7,1.5-2.5,2.1-4,1.4
					c-1.5-0.7-2.1-2.5-1.4-4c2.1-4.3,6.4-7,11.3-7c4.8,0,9.2,2.7,11.3,7c0.7,1.5,0.1,3.3-1.4,4C83.2,94.8,82.8,94.9,82.4,94.9z"/>
			</g>
		</g>
		<g>
			<g>
				<path class="st0" d="M134.9,94.9c-1.1,0-2.2-0.6-2.7-1.7c-1.1-2.3-3.3-3.7-5.9-3.7c-2.6,0-4.8,1.4-5.9,3.7
					c-0.7,1.5-2.5,2.1-4,1.4s-2.1-2.5-1.4-4c2.1-4.3,6.4-7,11.3-7c4.8,0,9.2,2.7,11.3,7c0.7,1.5,0.1,3.3-1.4,4
					C135.7,94.8,135.2,94.9,134.9,94.9z"/>
			</g>
		</g>
		<ellipse class="st2" cx="71.2" cy="111.9" rx="6.3" ry="2.7"/>
		<ellipse class="st2" cx="126.2" cy="111.9" rx="6.3" ry="2.7"/>
	</g>
	<circle class="st0" cx="89" cy="120.7" r="7"/>
</g>
</svg>
