<?xml version="1.0" encoding="utf-8"?>
<!-- Generator: Adobe Illustrator 27.9.1, SVG Export Plug-In . SVG Version: 6.00 Build 0)  -->
<svg version="1.1" id="Layer_1" xmlns="http://www.w3.org/2000/svg" xmlns:xlink="http://www.w3.org/1999/xlink" x="0px" y="0px"
	 viewBox="0 0 500 500" style="enable-background:new 0 0 500 500;" xml:space="preserve">
<style type="text/css">
	.st0{fill:#5593CE;}
	.st1{fill:#F58A21;}
	.st2{fill:#FCFBFB;}
	.st3{fill:#FECF3F;}
	.st4{fill:#F37769;}
	.st5{fill:#3E2A15;}
	.st6{fill:#FBBC1F;}
	.st7{fill:#FED653;}
	.st8{fill:#473219;}
	.st9{fill:#F69B84;}
	.st10{fill:#77D1F3;}
	.st11{fill:#61A143;}
	.st12{fill:#84C2EA;}
	.st13{fill:#F59892;}
	.st14{fill:#412F19;}
	.st15{fill:#FCFBFA;}
	.st16{fill:#E45E39;}
	.st17{fill:#C45234;}
	.st18{fill:#C45235;}
	.st19{fill:#F26C57;}
	.st20{fill:#382917;}
	.st21{fill:#FDFCFB;}
	.st22{fill:#EC8524;}
	.st23{fill:#F8B032;}
	.st24{fill:#F59B28;}
	.st25{fill:#F5856B;}
	.st26{fill:#3C2916;}
	.st27{fill:#FBFAF9;}
	.st28{fill:#67BDC6;}
	.st29{fill:#B1DFE5;}
	.st30{fill:#9DD5DD;}
	.st31{fill:#8BCBD5;}
	.st32{fill:#152732;}
	.st33{fill:#215D6B;}
	.st34{fill:#4C74B9;}
	.st35{fill:#7DA9DA;}
	.st36{fill:#121D2B;}
	.st37{fill:#8C9CCF;}
	.st38{fill:#F3F2F3;}
	.st39{fill:#B54C33;}
	.st40{fill:#D67140;}
	.st41{fill:#E88F53;}
	.st42{fill:#F8AD71;}
	.st43{fill:#28201B;}
	.st44{fill:#FCC330;}
	.st45{fill:#FDDC65;}
	.st46{fill:#F7A280;}
	.st47{fill:#4B331B;}
	.st48{fill:#EFD1B6;}
	.st49{fill:#F8E1C7;}
	.st50{fill:#C4A998;}
	.st51{fill:#B8A395;}
	.st52{fill:#8F7A6F;}
	.st53{fill:#162430;}
	.st54{fill:#FFFFFF;}
	.st55{fill:#939696;}
	.st56{fill:#FDFCFC;}
	.st57{fill:#B7B8B8;}
	.st58{fill:#929595;}
	.st59{fill:#F7F5F4;}
	.st60{fill:#939595;}
	.st61{fill:#949697;}
	.st62{fill:#D9D9D9;}
	.st63{fill:#261D12;}
	.st64{fill:#251E14;}
	.st65{fill:#F07F7D;}
	.st66{fill:#F3F1F0;}
	.st67{fill:#F0EEED;}
	.st68{fill:#F58E4E;}
	.st69{fill:#F8AE5E;}
	.st70{fill:#F9E1C0;}
	.st71{fill:#FAC087;}
	.st72{fill:#3C2613;}
	.st73{fill:#FBF9F9;}
</style>
<g>
	<path id="silhouette_00000041261870163939321090000015707328186077055407_" class="st1" d="M493,223.3
		c-13.9-12.1-36.1-15.1-43.9-33.5c-6.6-16.9,4.3-33,11-48c8.1-14.4,8.7-34.3-12.9-33.5c-63.3,2.5-57.5-13.5-63.7-67.3
		c-2.6-9.5-10.5-16-21.6-10.8c-35.7,21.9-57.2,41.4-83.4-5.2C235-53.4,234.2,80.4,176.8,50.9c-11.8-5.4-21.7-14.1-33.5-19.4
		c-15.2-6.6-24.3,8.2-24.1,22c-1.8,39.7-7.2,59.9-51.9,54.5c-15.3-2.7-36.7,0.4-31.6,21.2c3.9,13.1,12.6,24.1,17.6,36.8
		c14.9,34.5-23.8,41.9-45.7,55.2c-25.4,24,20.3,39.4,33.2,55c9.4,9.6,9.6,24.6,3,35.9c-9.8,17.6-42.5,51.7-3.3,56.4
		c23.2,0.9,52.3,3,55.9,31.7c5,20.1-8.5,73.1,28.7,58.1c37.9-19.5,52.6-22.2,65,22.9c4.1,16.8,18.1,24.8,30.7,9.5
		c12.2-14.6,29.8-39.9,49.3-20.3c8.4,7.6,14.2,17.7,23,24.9c26.2,15.9,26.3-28.2,37.1-41.7c19.7-30.6,62.3,31.5,72.4-9.5
		c2.3-14.7-0.8-29.7,2.7-44.3c4.7-27.4,34.6-26.6,56.3-28.6c31.3-7.7,2.9-40.3-4.7-57c-12.2-23.6,3.7-41.3,23.7-53.4
		C494,253,508.1,236.9,493,223.3z"/>
	<g>
		<path class="st1" d="M206.9,488.8c-1.9,0-5.3-3.1-7-10l-0.1-0.3c-5.9-21.6-15.1-43.7-37.7-43.7c-11.1,0-23.5,5.2-41.1,14.3
			c-3.7,1.4-6,1.7-7.3,1.7c-1.4,0-2.8,0-4.3-5.3c-1.7-6.3-1.7-15.4-1.7-24.2c0-8.5,0-16.6-1.5-23c-5-37.3-43.7-39-64.9-39.9
			c-6.9-0.9-9.2-2.7-9.5-3.2c0,0-0.9-2.1,2.2-8.7c2.6-5.6,7-12.1,10.9-17.8c2.9-4.2,5.6-8.2,7.6-11.8c9.1-15.9,7.4-35.4-4.3-47.5
			c-4.5-5.3-11.2-9.9-18.2-14.9c-7.8-5.5-19.6-13.7-20-19c-0.2-2.1,2-4.7,3.7-6.4c3.9-2.3,8.6-4.5,13.4-6.8
			c20.2-9.6,50.8-24.2,35.3-60.2c-2.4-6-5.5-11.5-8.4-16.8c-3.5-6.4-6.9-12.4-8.8-18.7c-0.5-2.1-0.8-4.7,0.3-6.1
			c1.2-1.5,5.1-3.4,12.2-3.4c2.5,0,5.1,0.2,7.7,0.7l0.3,0l0.3,0c5.1,0.6,9.9,0.9,14.3,0.9c46,0,47.6-37.5,48.9-64.9l0-0.3l0-0.3
			c-0.1-4.7,1.5-9.6,4-12c1.2-1.3,2.3-1.4,3-1.4c0.9,0,2,0.3,3.2,0.8c5.3,2.3,10.4,5.6,15.7,9.1c5.5,3.5,11.1,7.2,17.4,10.1
			c7,3.6,13.8,5.4,20.3,5.4c22.9,0,36-20.6,46.5-37.1c3.6-5.7,7-11,10.2-14.6c2.9-3.3,4.3-3.5,4.3-3.5c0,0,5.2,0.5,15.9,19.8
			c8.2,14.5,21.5,33.7,43,33.7c0,0,0,0,0,0c14.9,0,29.1-9,45.6-19.4c2.7-1.7,5.4-3.4,8.2-5.1c1.1-0.5,2.1-0.7,2.9-0.7
			c2.4,0,3.7,3.2,4.2,4.7c0.6,5.2,1.1,10,1.5,14.7c2,20.3,3.5,35,11.7,45.5c8.6,10.9,22.7,15.4,48.5,15.4c3.7,0,7.7-0.1,12.1-0.3
			c0.3,0,0.6,0,0.8,0c2.3,0,5.2,0.3,6.1,1.9c1.6,2.7,0.8,9.6-3.2,16.7l-0.2,0.4l-0.2,0.4c-1.1,2.4-2.2,4.8-3.5,7.3
			c-6.6,13.5-14.8,30.2-7.7,48.4l0.1,0.2c6.3,14.9,19.3,21.6,30.8,27.6c5.9,3,11.4,5.9,15.6,9.6c3.4,3.1,3.2,5.2,3.1,6
			c-0.5,4.5-6.3,11-13.8,15.3l-0.2,0.1c-40.8,24.6-34.8,52-27.5,66.3c1.7,3.7,4.2,7.9,6.8,12.3c4.6,7.7,13.1,22.1,11,27.1
			c-0.5,1.2-2.7,2.4-5.8,3.3c-1.9,0.2-3.9,0.3-5.9,0.5c-21,1.6-52.8,4.1-58.4,36c-2.1,9.1-2,17.9-2,26.4c0.1,6.3,0.1,12.2-0.7,17.9
			c-1.1,4.3-2.3,5.7-2.7,6.1c-0.2,0.2-0.4,0.4-1.3,0.4c0,0,0,0,0,0c-3.7,0-10.2-3-16-5.7c-8.4-3.8-17.9-8.2-27.3-8.2
			c-9.6,0-17.7,4.5-23.3,13c-4.3,5.6-6.8,13.3-9.5,21.5c-1.7,5.3-6.3,19.4-9.4,19.4c-0.4,0-1.7-0.1-4.3-1.6
			c-3.8-3.2-7.1-7.2-10.6-11.5c-3.4-4.2-7-8.5-11.3-12.4c-6.6-6.6-13.9-9.9-21.7-9.9c-16.9,0-29.8,15.9-39.3,27.6
			c-1,1.2-1.9,2.4-2.9,3.5C210.4,487.6,208.1,488.8,206.9,488.8z"/>
		<path class="st2" d="M391.8,236.7c-3.2,0-4.7-0.9-4.8-2.9c-0.1-2.1,1.6-3.3,4.7-3.3c1,0,2,0.1,3,0.4c1.5,0.4,2.4,1.5,2.2,3.1
			c-0.2,1.5-1.1,2.5-2.7,2.6C393.4,236.6,392.6,236.6,391.8,236.7z"/>
		<g>
			<path class="st3" d="M77.2,251.4c0-24,5.2-47.6,14.8-70.3c6.5-15.3,15-29.4,25.5-42.4c11.4-14.1,24.7-26.3,40-36.2
				c13.6-8.9,28.1-15.9,43.6-20.8c11-3.5,22.2-6,33.6-7.2c7-0.7,14-1.3,21-1.2c21.9,0.4,43.1,4.8,63.4,13.1
				c14.3,5.9,27.6,13.4,39.8,22.7c17.5,13.4,32.2,29.3,43.6,48.2c10.8,17.8,18,37,21.9,57.3c1.6,8.1,2.6,16.3,3.1,24.6
				c0.5,9.6,0.3,19.2-0.7,28.7c-2,18.7-6.8,36.8-14.4,54c-6.4,14.4-14.2,28-23.9,40.4c-8.2,10.5-17.3,20.1-27.6,28.5
				c-10.9,8.9-22.6,16.4-35.2,22.4c-14.5,6.9-29.5,11.7-45.4,14.3c-11.3,1.8-22.6,2.7-33.9,2.1c-18.4-0.9-36.2-4.5-53.4-11
				c-16.1-6.1-30.9-14.4-44.6-24.8c-15.6-11.9-28.8-26-39.8-42.2c-12.5-18.4-21-38.6-26.3-60.2c-2.3-9.2-3.7-18.5-4.5-27.9
				C77.3,259.9,77.4,256,77.2,251.4z M134.6,299c-2.9,1-5.7,2-8.4,3.5c-14,7.5-15.9,25.4-2.2,34.5c7.7,5.1,16.4,6.2,25.4,5.2
				c5.7-0.6,11.1-2.2,15.7-5.7c6.4-4.8,9.7-11,8.4-19.2c-0.5-3.3-2.1-6-3.8-8.7c7-0.1,14-0.7,20.8-2.4c15.4-3.7,27.6-11.8,36-25.4
				c5.9-9.6,9.2-20.2,11-31.3c0.4-2.5,1.4-4.3,3.8-5.2c6.6-2.6,13.2-2.5,19.9-0.6c3.2,0.9,4.8,2.9,5.2,6.1
				c1.5,10.5,4.7,20.5,9.9,29.7c7.2,12.6,17.7,21.1,31.7,25.4c8.8,2.7,17.7,3.5,26.9,3.5c-0.2,0.5-0.4,1-0.7,1.4
				c-5.3,9.2-2.9,20,5.8,26c4.9,3.4,10.3,5.1,16.2,5.6c9.8,0.8,18.8-0.8,26.7-7.1c6.9-5.5,9.4-15,5.8-22.6
				c-3.7-7.8-10.3-11.7-18.4-13.7c0.1-0.6,0.5-0.9,0.9-1.2c7.9-5.9,13.2-13.8,17.2-22.7c2.9-6.4,5.3-13,6.7-19.9
				c0.9-4.3,3-7.4,7.5-8.4c1-0.2,1.9-0.7,2.8-0.9c2.8-0.8,4.2-2.8,4.7-5.6c0.7-3.5,0.5-7.1,0.5-10.7c0-5-1.3-7-6.1-8.7
				c-4.3-1.5-8.7-2.9-13.1-4.2c-18.2-5.5-36.9-8.5-56-9.1c-6.3-0.2-12.5,0.2-18.7,0.8c-10.4,1-20.5,2.8-30.3,6.4
				c-6.7,2.5-13.1,5.5-17.5,11.5c-0.7,1-1.5,1-2.6,0.8c-9.6-2.2-19.2-2.2-28.8-0.1c-1.2,0.3-1.9,0.1-2.7-0.9
				c-1.2-1.6-2.7-3.1-4.4-4.3c-6.8-5.3-14.7-8-22.9-10c-14.2-3.4-28.7-4.6-43.3-3.9c-9,0.5-17.9,1.3-26.8,2.9
				c-13.3,2.4-26.3,5.7-39,10.4c-3.1,1.1-5.1,3.3-5.3,6.5c-0.3,3.8-0.3,7.6,0.1,11.4c0.5,3.8,2.3,6.3,6.1,7.1
				c5.7,1.1,8.6,4.5,9.1,10.1c0,0.2,0,0.3,0.1,0.5C113.2,273,119.6,288.6,134.6,299z M282.6,308.7c0-1.2,0-2.4-0.4-3.6
				c-0.6-1.9-1.9-2.8-3.8-2.4c-1.9,0.4-2.8,1.8-2.6,3.7c0,0.5,0.2,1.1,0.3,1.6c0.8,5.4-3.2,10.6-8.7,11.2
				c-5.8,0.7-10.9-2.6-12.5-8.3c-0.5-1.8-1.4-3.1-3.3-3.1c-2-0.1-3,1.2-3.5,3c-0.5,2-1.6,3.6-3,5.1c-3.3,3.6-8.8,4.6-13,2.5
				c-4-2-5.9-6.1-5.1-11c0.5-2.8-0.3-4.3-2.5-4.7c-2.1-0.4-3.6,0.9-4.1,3.6c-1.5,7.7,2,14.8,8.8,18.1c7,3.4,15.7,1.7,20.9-4.3
				c1.1-1.3,1.6-1.4,2.8,0c4.9,5.8,12.7,7.6,19.8,4.8C278.8,322.3,282.6,316.2,282.6,308.7z M330.8,176.7c-3.2-0.1-6.2,0.6-9.1,1.8
				c-2.9,1.2-4.1,3-3.3,5.1c0.7,2.1,2.3,2.4,5.6,1.2c5.8-2.2,11.4-1.7,16.6,1.6c2.2,1.4,4,3.2,5.5,5.4c1.1,1.6,2.6,1.9,4.2,1.1
				c1.8-1,2-2.6,1.3-4.3c-0.3-0.8-0.8-1.5-1.3-2.1C345.3,180.1,338.8,176.9,330.8,176.7z M186.1,182.3c0-1.6-1-2.7-3.3-3.7
				c-10.4-4.5-23.3-0.6-29.5,8.9c-1.4,2.2-1.3,4.2,0.4,5.3c1.6,1.1,3.5,0.5,5-1.6c1.3-1.8,2.8-3.4,4.7-4.6c5.5-3.6,11.4-4,17.4-1.5
				C183.8,186.3,186.2,185,186.1,182.3z"/>
			<path class="st4" d="M134.6,299c6.4,3.8,13.1,6.7,20.5,8c4.9,0.8,9.7,1.7,14.7,1.7c1.7,2.7,3.3,5.4,3.8,8.7
				c1.2,8.2-2.1,14.4-8.4,19.2c-4.6,3.5-10.1,5.1-15.7,5.7c-9,1-17.7-0.1-25.4-5.2c-13.7-9.1-11.8-27,2.2-34.5
				C128.9,301.1,131.8,300.1,134.6,299z M134.9,327.1c0.9-0.1,1.6-0.5,2.1-1.2c1.5-2.5,3-4.9,4.5-7.4c0.7-1.1,0.7-2.2-0.5-3
				c-1.2-0.8-2.4-0.5-3.2,0.7c-1.7,2.5-3.3,5.1-4.8,7.7C132.1,325.4,133.3,327.1,134.9,327.1z M146.4,325.1c0,1,0.5,1.8,1.4,2.1
				c1.2,0.4,2.1-0.1,2.8-1.1c1.5-2.3,3-4.6,4.4-6.9c0.8-1.4,0.8-2.7-0.6-3.5c-1.4-0.8-2.5,0.1-3.2,1.2c-1.4,2.2-2.8,4.5-4.3,6.8
				C146.6,324.1,146.4,324.5,146.4,325.1z"/>
			<path class="st4" d="M335,308.7c10.9-0.4,21.4-2.6,31.1-7.8c1.5-0.8,2.6-2.2,4.4-2.4c8.1,2,14.7,5.8,18.4,13.7
				c3.6,7.6,1.1,17.1-5.8,22.6c-7.9,6.2-16.9,7.9-26.7,7.1c-5.9-0.5-11.3-2.2-16.2-5.6c-8.7-6-11.1-16.8-5.8-26
				C334.5,309.7,334.7,309.2,335,308.7z M352.1,326.8c0.7-0.1,1.4-0.4,1.7-1c1.7-2.8,3.5-5.5,5.1-8.4c0.6-1,0.3-2.1-0.8-2.8
				c-1.1-0.7-2.1-0.5-2.8,0.5c-1.9,2.8-3.7,5.6-5.3,8.5C349.1,325.1,350.5,326.8,352.1,326.8z M372.8,317.1c0-1.2-0.4-1.9-1.3-2.3
				c-1.1-0.5-2.2,0-2.8,0.9c-1.5,2.3-3,4.8-4.5,7.1c-0.8,1.3-1.2,2.6,0.3,3.6c1.5,1,2.6,0.1,3.4-1.2c1.5-2.3,2.9-4.6,4.3-7
				C372.6,317.8,372.8,317.3,372.8,317.1z"/>
			<path class="st5" d="M282.6,308.7c0.1,7.5-3.8,13.6-10.2,16.1c-7.1,2.8-14.9,0.9-19.8-4.8c-1.2-1.4-1.6-1.3-2.8,0
				c-5.2,6-13.9,7.7-20.9,4.3c-6.8-3.3-10.2-10.4-8.8-18.1c0.5-2.6,2-3.9,4.1-3.6c2.2,0.4,3,2,2.5,4.7c-0.9,4.9,1,9,5.1,11
				c4.2,2.1,9.7,1,13-2.5c1.4-1.5,2.5-3.1,3-5.1c0.5-1.8,1.5-3,3.5-3c2,0.1,2.8,1.3,3.3,3.1c1.6,5.7,6.7,9,12.5,8.3
				c5.5-0.6,9.5-5.8,8.7-11.2c-0.1-0.5-0.2-1-0.3-1.6c-0.2-2,0.7-3.3,2.6-3.7c1.9-0.4,3.2,0.5,3.8,2.4
				C282.5,306.2,282.6,307.5,282.6,308.7z"/>
			<path class="st5" d="M330.8,176.7c8,0.1,14.6,3.3,19.5,9.7c0.5,0.7,1,1.4,1.3,2.1c0.7,1.7,0.5,3.4-1.3,4.3
				c-1.6,0.9-3.1,0.5-4.2-1.1c-1.5-2.2-3.3-4-5.5-5.4c-5.3-3.3-10.8-3.8-16.6-1.6c-3.3,1.3-4.9,0.9-5.6-1.2
				c-0.8-2.2,0.4-3.9,3.3-5.1C324.6,177.4,327.6,176.6,330.8,176.7z"/>
			<path class="st5" d="M186.1,182.3c0.1,2.7-2.3,4-5.2,2.8c-6.1-2.5-11.9-2.1-17.4,1.5c-1.9,1.2-3.4,2.8-4.7,4.6
				c-1.5,2.2-3.4,2.7-5,1.6c-1.6-1.1-1.8-3.1-0.4-5.3c6.2-9.6,19-13.5,29.5-8.9C185.1,179.6,186.1,180.7,186.1,182.3z"/>
			<path class="st5" d="M332.2,216.1c12.1,0.3,24.5,1,36.4,4.8c12.6,4,17.6,10.4,17.6,23.5c0,14.7-4.4,28.1-13.9,39.5
				c-7.5,8.9-17.6,13.2-28.8,14.9c-9.5,1.5-19,1.1-28.4-1c-19.5-4.4-31.4-16.8-37-35.7c-1.5-5.1-2.4-10.4-2.4-15.8
				c-0.1-12.5,5.3-20.2,17.1-24.3C305.5,217.5,318.6,216.4,332.2,216.1z"/>
			<path class="st5" d="M172.3,216.1c11.2,0,24.9,1.1,38.2,5.4c2.8,0.9,5.4,2.2,7.9,3.6c6.5,3.8,9.8,9.7,10.1,17
				c0.6,16.6-4.4,31.3-16.2,43.3c-6,6.1-13.5,9.7-21.6,11.9c-11.7,3.2-23.5,3.3-35.3,0.6c-16.5-3.8-27.2-14.1-33-29.7
				c-3.1-8.1-4.9-16.5-4.2-25.3c0.8-11.5,6-18.1,17-21.7C143.8,218.3,157.3,216.3,172.3,216.1z"/>
			<path class="st2" d="M105.4,229.5c3.9-0.1,5.6,1,5.6,3.2c0,2.1-1.5,3.1-4.8,3.2c-0.9,0-1.8,0-2.7-0.2c-1.7-0.3-2.7-1.3-2.7-3.1
				c0-1.8,1.2-2.7,2.9-3C104.4,229.5,105.2,229.6,105.4,229.5z"/>
			<path class="st2" d="M134.9,327.1c-1.7,0-2.8-1.7-1.9-3.2c1.5-2.7,3.1-5.2,4.8-7.7c0.8-1.2,2-1.5,3.2-0.7c1.2,0.8,1.1,1.9,0.5,3
				c-1.5,2.5-3,4.9-4.5,7.4C136.5,326.6,135.8,327,134.9,327.1z"/>
			<path class="st2" d="M146.4,325.1c0-0.5,0.2-1,0.5-1.5c1.4-2.2,2.8-4.5,4.3-6.8c0.8-1.2,1.8-2.1,3.2-1.2c1.5,0.9,1.5,2.2,0.6,3.5
				c-1.5,2.3-2.9,4.6-4.4,6.9c-0.6,1-1.6,1.5-2.8,1.1C146.9,326.9,146.4,326.1,146.4,325.1z"/>
			<path class="st2" d="M352.1,326.8c-1.6,0.1-2.9-1.7-2.1-3.2c1.6-2.9,3.5-5.7,5.3-8.5c0.7-1,1.8-1.2,2.8-0.5
				c1.1,0.7,1.4,1.8,0.8,2.8c-1.6,2.8-3.4,5.6-5.1,8.4C353.4,326.4,352.8,326.7,352.1,326.8z"/>
		</g>
		<path class="st2" d="M367.7,314.3c-0.1,0.2-0.2,0.8-0.5,1.2c-1.4,2.2-2.7,4.5-4.1,6.7c-0.8,1.2-1.8,2-3.3,1.1
			c-1.4-0.9-1.1-2.2-0.3-3.4c1.4-2.3,2.8-4.6,4.3-6.8c0.6-0.9,1.6-1.3,2.7-0.9C367.3,312.4,367.7,313.1,367.7,314.3z"/>
	</g>
</g>
</svg>
