<?xml version="1.0" encoding="utf-8"?>
<!-- Generator: Adobe Illustrator 27.9.1, SVG Export Plug-In . SVG Version: 6.00 Build 0)  -->
<svg version="1.1" id="Layer_1" xmlns="http://www.w3.org/2000/svg" xmlns:xlink="http://www.w3.org/1999/xlink" x="0px" y="0px"
	 viewBox="0 0 200 200" style="enable-background:new 0 0 200 200;" xml:space="preserve">
<style type="text/css">
	.st0{fill:#1F2F3D;}
	.st1{fill:#FFD653;}
	.st2{fill:#F68922;}
	.st3{fill:#CA6F43;}
	.st4{fill:#B64D33;}
	.st5{fill:#E88F53;}
	.st6{fill:#F7AE5E;}
	.st7{fill:#FFFFFF;}
	.st8{fill:#EC8523;}
	.st9{fill:#FAF9F9;}
	.st10{fill:#F9C087;}
	.st11{fill:#F8E1C1;}
	.st12{fill:#F68F4E;}
	.st13{fill:#4268A0;}
	.st14{fill:#4D75B9;}
	.st15{fill:#7CA9DA;}
	.st16{opacity:0.15;fill:#7CA9DA;enable-background:new    ;}
	.st17{fill:#69BDC6;}
	.st18{fill:#B3DFE5;}
	.st19{fill:#9DD5DC;}
	.st20{fill:#90D5DB;}
	.st21{fill:#8CCBD4;}
	.st22{fill:#45A4C1;}
	.st23{fill:#78D1F2;}
	.st24{fill:#4AA146;}
	.st25{fill:#FDFDFB;}
	.st26{fill:#F37769;}
	.st27{fill:#F7B032;}
	.st28{fill:#F59B28;}
	.st29{fill:#FBFAF9;}
	.st30{fill:#EF423F;}
	.st31{fill:#C55334;}
	.st32{fill:#E45F3A;}
	.st33{fill:#939696;}
	.st34{fill:#B7B9B8;}
	.st35{fill:#F05B7A;}
	.st36{fill:#FBDE84;}
	.st37{fill:#FDC579;}
	.st38{fill:#D88360;}
	.st39{fill:#EDA329;}
	.st40{fill:#F6C12D;}
	.st41{fill:#D3A12A;}
	.st42{fill:#7F3F98;}
	.st43{fill:#FAFBFC;}
	.st44{fill:#B64C32;}
	.st45{fill:#EECBA0;}
	.st46{fill:#F8E0C0;}
	.st47{fill:#FADE83;}
	.st48{fill:#F05A7A;}
	.st49{fill:#719191;}
	.st50{fill:#B2E0E6;}
	.st51{fill:#5BA1A5;}
	.st52{fill:#E45E39;}
	.st53{fill:#121B2B;}
	.st54{fill:#B7B8B8;}
	.st55{fill:#FFFFFF;stroke:#010101;stroke-miterlimit:10;}
	.st56{fill:#49A146;}
	.st57{fill:#010101;}
	.st58{fill:none;stroke:#010101;stroke-width:6;stroke-linecap:round;stroke-linejoin:round;stroke-miterlimit:10;}
	.st59{fill:#030303;}
	.st60{fill:#232323;}
	.st61{fill:#ED90B6;}
	.st62{fill:#F37769;stroke:#010101;stroke-width:3;stroke-linecap:round;stroke-linejoin:round;stroke-miterlimit:10;}
</style>
<path class="st0" d="M128,117.7c-6.2-3.6-13.1-4.7-19.7-3.7c-1,0.1-1.7,1-1.7,2c0,0.2,0,0.5,0,0.7c-0.3,3.1-3,5.6-6.2,5.6
	c-3.5,0-6.3-2.8-6.3-6.2c0,0,0,0,0,0c0-1-0.7-1.9-1.6-2c-6.8-1.1-14.1-0.1-20.5,3.6c-9,5.1-14.4,14-15.5,23.5
	c8.7,3.9,19.2,3.8,28.1-1.3c3.4-2,6.3-4.5,8.7-7.3c3.4-4.2,9.9-4.2,13.3,0c2.4,2.9,5.3,5.4,8.7,7.3c9,5.1,19.4,5.3,28.1,1.3
	C142.4,131.7,136.9,122.8,128,117.7z"/>
<g>
	<path class="st0" d="M70.5,98.8H56.5c-2,0-3.7-1.7-3.7-3.7v0c0-2,1.7-3.7,3.7-3.7h13.9c2,0,3.7,1.7,3.7,3.7v0
		C74.2,97.1,72.5,98.8,70.5,98.8z"/>
	<path class="st0" d="M143.5,98.8h-13.9c-2,0-3.7-1.7-3.7-3.7v0c0-2,1.7-3.7,3.7-3.7h13.9c2,0,3.7,1.7,3.7,3.7v0
		C147.2,97.1,145.5,98.8,143.5,98.8z"/>
</g>
</svg>
