<?xml version="1.0" encoding="utf-8"?>
<!-- Generator: Adobe Illustrator 27.9.1, SVG Export Plug-In . SVG Version: 6.00 Build 0)  -->
<svg version="1.1" id="Layer_1" xmlns="http://www.w3.org/2000/svg" xmlns:xlink="http://www.w3.org/1999/xlink" x="0px" y="0px"
	 viewBox="0 0 200 200" style="enable-background:new 0 0 200 200;" xml:space="preserve">
<style type="text/css">
	.st0{fill:#8BCBD5;}
	.st1{fill:#EC8524;}
	.st2{fill:#FED653;}
	.st3{fill:#1F2F3D;}
	.st4{opacity:0.34;}
	.st5{fill:#F58A21;}
	.st6{fill:#D67140;}
	.st7{fill:#C96E43;}
	.st8{fill:#E88F53;}
	.st9{fill:#B54C33;}
	.st10{fill:#F8AE5E;}
	.st11{fill:#FDFCFB;}
	.st12{fill:#F37769;}
	.st13{fill:#F58E4E;}
	.st14{fill:#F9E1C0;}
	.st15{fill:#FAC087;}
	.st16{fill:#FBF9F9;}
	.st17{fill:#4167A0;}
	.st18{fill:#4C74B9;}
	.st19{fill:#7DA9DA;}
	.st20{opacity:0.15;fill:#7DA9DA;}
	.st21{fill:#67BDC6;}
	.st22{fill:#B1DFE5;}
	.st23{fill:#9DD5DD;}
	.st24{fill:#8FD5DC;}
	.st25{fill:#45A4C1;}
	.st26{fill:#77D1F3;}
	.st27{fill:#4AA146;}
	.st28{fill:#FCFBFA;}
	.st29{fill:#FFFFFF;}
	.st30{fill:#F8B032;}
	.st31{fill:#F59B28;}
	.st32{fill:#FBFAF9;}
	.st33{fill:#C45234;}
	.st34{fill:#E45E39;}
	.st35{fill:#939696;}
	.st36{fill:#B7B8B8;}
	.st37{fill:#F05979;}
	.st38{fill:#B7B8B8;stroke:#121C2B;stroke-width:6;stroke-linecap:round;stroke-linejoin:round;stroke-miterlimit:10;}
	.st39{fill:#FBDE84;}
	.st40{fill:#FDC478;}
	.st41{fill:#D88360;}
</style>
<g id="venus">
	<circle id="silhouette_00000121259761701455554030000002324505878406042540_" class="st1" cx="100" cy="100" r="100"/>
	<g>
		<path id="a" class="st30" d="M195,100c0,1.6,0,3.1-0.1,4.7c-0.4,7.6-1.6,14.9-3.6,21.8c-0.6,2.2-1.3,4.4-2.1,6.5
			c-0.9,2.5-1.9,4.9-3.1,7.3c-2.1,4.6-4.6,8.9-7.4,13C161.5,178.5,132.7,195,100,195c-25.9,0-49.3-10.3-66.5-27.1
			c-1.2-1.1-2.3-2.3-3.4-3.5c-4.3-4.7-8.2-9.8-11.5-15.2c-6-9.8-10.2-20.8-12.2-32.6C5.5,111.2,5,105.6,5,100
			c0-10.1,1.6-19.7,4.5-28.8c2-6.3,4.6-12.2,7.8-17.8c1.6-2.8,3.3-5.5,5.1-8.1c2.5-3.5,5.2-6.9,8.1-10c5.6-6,12-11.3,18.9-15.7
			C64.1,10.3,81.4,5,100,5c29,0,55,13,72.4,33.5c8.9,10.4,15.5,22.8,19.2,36.3c0.8,3,1.5,6,2,9C194.5,89.1,195,94.5,195,100z"/>
		<path class="st31" d="M191.2,126.5c-0.6,2.2-1.3,4.4-2.1,6.5c-0.9,2.5-1.9,4.9-3.1,7.3c-5.8,1.2-12.2,2.6-17.9,4.9
			c-19.9,7.8-32.3,17.1-49.9,18.8s-39.4-7.8-51.1-6.4c-9.2,1.1-27.5,5.1-37.1,6.8c-4.3-4.7-8.2-9.8-11.5-15.2
			c-6-9.8-10.2-20.8-12.2-32.6c0,0,43.3-9.1,66.9,9.9s38.7,15,53.3,7.6C138.7,128,171.9,123,191.2,126.5z"/>
		<path class="st1" d="M189.1,133c-2.7,7.2-6.2,14.1-10.5,20.3c-5.9-0.1-11.8,0.9-16.8,3.8c-17.9,10.4-38.1,22.4-82.3,9.3
			c-17.6-5.2-33.4-3-46,1.4c-5.7-5.6-10.7-11.9-14.8-18.7c8.3-0.9,18.7-1.6,30.8-1.5c33.2,0.3,42.7,21.5,69.7,7.4
			C136,146.3,167.7,138,189.1,133z"/>
		<path class="st31" d="M172.4,38.5c-25,4.5-60.4,3-85.1-10c-14.2-7.5-27.1-9.5-37.8-8.9C64.1,10.3,81.4,5,100,5
			C129,5,155,18,172.4,38.5z"/>
		<path class="st31" d="M195,100c0,1.6,0,3.1-0.1,4.7c-14.6-0.6-33.8-3.3-50.5-11.7c-15.1-7.6-27.7-14.7-42-16
			c-16.2-1.5-34.2,3.3-54.3,2.1c-17.7-1.1-30.3-4.5-38.7-7.9c2-6.3,4.6-12.2,7.8-17.8c1.6-2.8,3.3-5.5,5.1-8.1
			c0.4-0.5,0.8-1.1,1.2-1.6c0.4-0.6,0.9-1.2,1.3-1.8c0.7-0.9,1.4-1.8,2.1-2.7c0.4-0.5,0.9-1,1.3-1.6c0.1-0.1,0.2-0.2,0.3-0.4
			c0.6-0.7,1.2-1.4,1.8-2c7.6,6.4,20.2,15,51,11.5c52,3.7,63.1,9.3,90.4,23.5c0.4,0.2,0.9,0.5,1.3,0.7c5.9,3,12.2,4.2,18.5,4
			c0.8,3,1.5,6,2,9C194.5,89.1,195,94.5,195,100z"/>
		<path class="st1" d="M193.6,83.9c-11.6,0.1-27.7-1.5-49.1-7.5c-50-14-60.5-13.4-94-9.5c-11.7,1.4-20.8-12.2-28.2-21.7
			c0.4-0.5,0.8-1.1,1.2-1.6c0.4-0.6,0.9-1.2,1.3-1.8c0.7-0.9,1.4-1.8,2.1-2.7c0.4-0.5,0.9-1,1.3-1.6c0.1-0.1,0.2-0.2,0.3-0.4
			c0.6-0.7,1.2-1.4,1.8-2c7.6,6.4,20.2,15,51,11.5c51.8-6,63,9,90.4,23.5c0.4,0.2,0.9,0.5,1.3,0.7c5.9,3,12.2,4.2,18.5,4
			C192.4,77.8,193.1,80.8,193.6,83.9z"/>
		<g>
			<g>
				<g>
					<g>
						<path class="st3" d="M69.9,105.7c-6.6,0-11.7-4.6-12-10.7c0-0.8-0.4-1-1.1-1.2c-2-0.5-3.5-1.5-4.4-3.4
							c-0.4-0.9-0.5-1.8,0.5-2.3c0.9-0.5,1.6-0.1,2.2,0.7c0.4,0.6,1,1.1,1.8,1.4c1.3,0.5,2.5-0.3,2.5-1.6c0-0.5-0.5-0.5-0.8-0.6
							c-1.7-0.8-2.9-2.1-3.3-3.9c-0.2-0.9-0.2-1.7,0.8-2.2c1-0.4,1.6,0.1,2.1,0.9c0.6,1.1,1.5,1.7,2.6,2.1c0.9,0.3,1.7,0.2,2.5-0.3
							c4.1-2.6,9.2-2.4,13.1,0.4c3.7,2.7,5.5,7.5,4.3,12c-1.1,4.4-4.9,7.8-9.7,8.5C70.6,105.7,70,105.7,69.9,105.7z M72.2,95.4
							c2.2,0,4-1.7,4.1-3.9c0-2.2-1.7-4-3.9-4.1c-2.2-0.1-4.2,1.8-4.2,4C68.2,93.6,69.9,95.3,72.2,95.4z"/>
					</g>
					<path class="st32" d="M72.2,95.4c-2.2,0-4-1.8-4-4c0-2.1,2-4,4.2-4c2.2,0.1,3.9,1.9,3.9,4.1C76.2,93.7,74.4,95.4,72.2,95.4z"/>
				</g>
			</g>
			<g>
				<g>
					<g>
						<path class="st3" d="M128.9,105.6c-4.7-0.7-8.5-4-9.7-8.5c-1.1-4.5,0.6-9.3,4.3-12c3.9-2.8,9.1-3,13.1-0.4
							c0.8,0.5,1.6,0.6,2.5,0.3c1.2-0.4,2.1-1.1,2.6-2.1c0.5-0.9,1.1-1.4,2.1-0.9c0.9,0.4,1,1.3,0.8,2.2c-0.5,1.8-1.6,3.1-3.3,3.9
							c-0.3,0.1-0.8,0-0.8,0.6c0.1,1.3,1.2,2.1,2.5,1.6c0.7-0.3,1.3-0.7,1.8-1.4c0.5-0.8,1.2-1.2,2.2-0.7c1,0.6,0.9,1.5,0.5,2.3
							c-0.9,1.9-2.4,2.9-4.4,3.4c-0.7,0.2-1,0.3-1.1,1.2c-0.3,6.1-5.3,10.8-12,10.7C130,105.7,129.4,105.7,128.9,105.6z M131.8,91.4
							c0-2.1-2-4-4.2-4c-2.2,0.1-3.9,1.9-3.9,4.1c0,2.2,1.8,3.9,4.1,3.9C130.1,95.3,131.8,93.6,131.8,91.4z"/>
					</g>
					<path class="st32" d="M127.8,95.4c2.2,0,4-1.8,4-4c0-2.1-2-4-4.2-4c-2.2,0.1-3.9,1.9-3.9,4.1C123.8,93.7,125.6,95.4,127.8,95.4
						z"/>
				</g>
			</g>
		</g>
		<g>
			<ellipse class="st12" cx="50" cy="124.1" rx="11.2" ry="4.4"/>
		</g>
		<g>
			<ellipse class="st12" cx="150.7" cy="124.1" rx="11.2" ry="4.4"/>
		</g>
		<path class="st1" d="M100,195c19.1,0,37-5.7,51.9-15.4c-15.3-2.2-34.6-2.2-58.1,1c-22.3,3.1-40.8-1.5-54.7-7.7
			C55.6,186.7,76.8,195,100,195z"/>
		<g>
			<g>
				<path class="st3" d="M100,127.7c-5.9,0-11.2-3.9-12.8-9.6c-0.4-1.3,0.4-2.7,1.7-3.1c1.3-0.4,2.7,0.4,3.1,1.7c1,3.5,4.3,6,8,6
					s7-2.5,8-6c0.4-1.3,1.8-2.1,3.1-1.7c1.3,0.4,2.1,1.8,1.7,3.1C111.2,123.8,105.9,127.7,100,127.7z"/>
			</g>
		</g>
	</g>
</g>
</svg>
