<?xml version="1.0" encoding="utf-8"?>
<!-- Generator: Adobe Illustrator 27.9.1, SVG Export Plug-In . SVG Version: 6.00 Build 0)  -->
<svg version="1.1" id="Layer_1" xmlns="http://www.w3.org/2000/svg" xmlns:xlink="http://www.w3.org/1999/xlink" x="0px" y="0px"
	 viewBox="0 0 500 500" style="enable-background:new 0 0 500 500;" xml:space="preserve">
<style type="text/css">
	.st0{fill:#5593CE;}
	.st1{fill:#F58A21;}
	.st2{fill:#FCFBFB;}
	.st3{fill:#FECF3F;}
	.st4{fill:#F37769;}
	.st5{fill:#3E2A15;}
	.st6{fill:#FBBC1F;}
	.st7{fill:#FED653;}
	.st8{fill:#473219;}
	.st9{fill:#F69B84;}
	.st10{fill:#77D1F3;}
	.st11{fill:#61A143;}
	.st12{fill:#84C2EA;}
	.st13{fill:#F59892;}
	.st14{fill:#412F19;}
	.st15{fill:#FCFBFA;}
	.st16{fill:#E45E39;}
	.st17{fill:#C45234;}
	.st18{fill:#C45235;}
	.st19{fill:#F26C57;}
	.st20{fill:#382917;}
	.st21{fill:#FDFCFB;}
	.st22{fill:#EC8524;}
	.st23{fill:#F8B032;}
	.st24{fill:#F59B28;}
	.st25{fill:#F5856B;}
	.st26{fill:#3C2916;}
	.st27{fill:#FBFAF9;}
	.st28{fill:#67BDC6;}
	.st29{fill:#B1DFE5;}
	.st30{fill:#9DD5DD;}
	.st31{fill:#8BCBD5;}
	.st32{fill:#152732;}
	.st33{fill:#215D6B;}
	.st34{fill:#4C74B9;}
	.st35{fill:#7DA9DA;}
	.st36{fill:#121D2B;}
	.st37{fill:#8C9CCF;}
	.st38{fill:#F3F2F3;}
	.st39{fill:#B54C33;}
	.st40{fill:#D67140;}
	.st41{fill:#E88F53;}
	.st42{fill:#F8AD71;}
	.st43{fill:#28201B;}
	.st44{fill:#FCC330;}
	.st45{fill:#FDDC65;}
	.st46{fill:#F7A280;}
	.st47{fill:#4B331B;}
	.st48{fill:#EFD1B6;}
	.st49{fill:#F8E1C7;}
	.st50{fill:#C4A998;}
	.st51{fill:#B8A395;}
	.st52{fill:#8F7A6F;}
	.st53{fill:#162430;}
	.st54{fill:#FFFFFF;}
	.st55{fill:#939696;}
	.st56{fill:#FDFCFC;}
	.st57{fill:#B7B8B8;}
	.st58{fill:#929595;}
	.st59{fill:#F7F5F4;}
	.st60{fill:#939595;}
	.st61{fill:#949697;}
	.st62{fill:#D9D9D9;}
	.st63{fill:#261D12;}
	.st64{fill:#251E14;}
	.st65{fill:#F07F7D;}
	.st66{fill:#F3F1F0;}
	.st67{fill:#F0EEED;}
	.st68{fill:#F58E4E;}
	.st69{fill:#F8AE5E;}
	.st70{fill:#F9E1C0;}
	.st71{fill:#FAC087;}
	.st72{fill:#3C2613;}
	.st73{fill:#FBF9F9;}
</style>
<g>
	
		<ellipse id="silhouette_00000008836329362241609130000001402574576008580504_" class="st39" cx="250.5" cy="250" rx="249.5" ry="250"/>
	<g>
		<g>
			<path class="st40" d="M50.6,387.1c-14.2-19.1-24.4-40.2-31.6-62.8c-2.4-7.6-4.2-15.4-6.1-23.2c-0.1-0.4,0-0.9,0-1.4
				c4.3-0.5,8.6-0.9,12.8-1.6c6.3-1.1,12.5-2.5,18.9-2.8c12-0.7,23.6,1.6,34.9,5.2c8.7,2.8,16.8,7.1,24.9,11.2
				c16.3,8.1,33.6,12.1,51.6,13.7c10.9,1,21.8,0.7,32.8,0.5c5.3-0.1,10.7-0.6,16-1.2c7.4-0.9,14.8-2,22.2-3.3
				c3.2-0.6,6.6-0.1,9.4-2.1c12.3,6.1,22.7,3.8,31.1-6.8c2,1.2,3.8,0,5.6-0.5c8.5-2.4,17-4.8,25.4-7.4c11.6-3.6,23.1-7.3,34.8-10.3
				c0.7-0.2,1.5-0.3,1.7-1.2c2.4,0,4.7-0.4,6.9-1c1.1-0.3,2-0.5,1.8,1.3c-1,8.3,1.5,13,9.1,16.6c10.5,4.9,21,4.5,31.1-1.3
				c8-4.6,9.9-13.8,4.3-20.4c-1.4-1.7-3.2-3-5-4.6c7.1-1.8,14.1-3.1,21.2-3.4c9.6-0.4,18.9,0.9,28.2,3.1c8.2,2,16.5,3.6,25,4.1
				c11.2,0.7,21.9-1.7,32.4-5c-1.2,12.8-3.9,25.3-7.6,37.6c-3.3,11-7,21.9-12.2,32.3c-8.2-0.6-16.5-1.4-24.7-1.6
				c-11.8-0.3-23.5-0.1-35.3,0.9c-11,0.9-22,2.3-32.9,4.2c-18.2,3.3-36.1,7.8-54.1,11.9c-12.1,2.8-24.4,4.8-36.8,6.3
				c-9.5,1.2-19.1,1-28.7,1.6c-7.6,0.5-15.2-0.1-22.9,0.5c-5.6,0.5-11.2,1.2-16.7,2.1c-12.6,2.1-24.8,6-37,9.7
				c-15,4.6-30.3,8.1-46,8.8c-14.5,0.7-29,0.4-43.4-1.7c-12.2-1.8-24.2-4.2-36.1-7.4C54.1,387.4,52.5,386.4,50.6,387.1z M87.7,327.1
				c-10.4-0.3-18.3,2.2-24.4,5.3c-9.3,4.8-14.3,13.7-9.9,24.8c2.5,6.1,6.9,10.6,11.9,14.6c8.1,6.5,17.4,11,27.4,14.2
				c13.7,4.5,27.7,6.7,42.2,4.9c6.5-0.8,12.9-2.4,18.5-6.2c5.9-4,10-9.3,9.4-16.7c-0.6-7.4-4.7-13.2-10.1-18.1
				c-6.7-6-14.4-10.4-22.7-13.9C116.8,330.4,103.3,326.9,87.7,327.1z"/>
			<path class="st41" d="M483.1,189c3.3,10.2,5.1,20.6,6.3,31.2c-0.9-0.6-2-0.5-3-0.5c-12.3-0.4-24.3,1.5-36.2,4.3
				c-13.4,3.1-26.2,8-39.4,11.7c-14,4-28.2,6.9-42.6,8.7c-1.1-4.4-2.8-8.6-5.4-12.5c-9.1-13.5-28.1-16-40.3-5.2
				c-5,4.4-7.9,9.9-9.8,16c-4.3-1-8.6-1.8-12.8-3c-8.2-2.3-16.4-4.7-24.5-7.2c-11.5-3.5-23.1-6.1-35.2-6.9c-8.4-0.5-16.7-0.2-25,0.4
				c-8.3,0.5-16.6,1.6-24.8,2.7c-3.7,0.5-7.5,0.1-11,1.5c-2-2.2-4-4.4-6.6-6c-11.8-7.3-24.8-5.5-35.3,4.9c-0.7-0.7-1.7-0.8-2.6-1
				c-12.3-3.1-24.1-7.6-35.6-13c-9.6-4.6-19.2-9-29.4-12c-8.9-2.7-18.1-4.2-27.3-4.6c-6.6-0.3-13.2-0.2-19.8,0
				c-2.8,0.1-5.6,0.2-8.3,1.1c1-7.9,3.4-15.4,5.8-23c4-12.8,9.3-25.1,15.8-36.9c1.1,0.1,2.2,0.2,3.3,0.5c11.1,2.8,22.2,5.6,33.4,8.2
				c21.4,5,42.9,9.3,64.5,12.8c16.1,2.6,32.3,4.5,48.6,5.9c12.4,1.1,24.9,1.7,37.4,2.3c10.2,0.5,20.5,1,30.7,1.6
				c9.9,0.7,19.8,1.8,29.7,2.8c14.7,1.5,29.1,4.2,43.6,7c17.8,3.4,35.4,7.6,53.2,10.7c12.9,2.2,25.8,3.7,38.9,4.2
				c13.8,0.5,27.7-0.1,41.3-2.3C468.1,192.2,475.7,190.8,483.1,189z M154.4,196.2c-1.9-0.1-4,0.2-6,0.6c-4.7,1.1-8.9,3.1-12.3,6.5
				c-1.9,1.9-1.9,4.3-0.3,6c1.5,1.6,3.9,1.8,5.8,0.2c5.7-4.7,12.1-5.5,19.1-3.9c2.7,0.6,4.8-0.4,5.4-2.6c0.7-2.2-0.4-4.3-2.9-5.4
				C160.5,196.6,157.6,196,154.4,196.2z M343.1,196.2c-2.2,0-5.1,0.3-7.9,1.4c-2.6,1-3.8,3.2-3.1,5.5c0.7,2.3,2.7,3.2,5.7,2.5
				c6.8-1.5,13.1-0.9,18.6,3.8c2.8,2.3,6.4,1.1,7-2.2c0.4-1.9-0.6-3.4-2-4.7C356.4,198.2,350.5,196.2,343.1,196.2z"/>
			<path class="st39" d="M50.6,387.1c1.8-0.7,3.5,0.3,5.1,0.8c11.9,3.2,23.9,5.7,36.1,7.4c14.4,2.1,28.9,2.4,43.4,1.7
				c15.7-0.8,31-4.3,46-8.8c12.2-3.7,24.3-7.7,37-9.7c5.5-0.9,11.1-1.6,16.7-2.1c7.6-0.6,15.3-0.1,22.9-0.5
				c9.6-0.6,19.2-0.5,28.7-1.6c12.4-1.5,24.7-3.5,36.8-6.3c18-4.2,35.9-8.7,54.1-11.9c10.9-2,21.8-3.3,32.9-4.2
				c11.8-1,23.5-1.2,35.3-0.9c8.2,0.2,16.5,1,24.7,1.6c-4.3,10.3-10,19.9-16.2,29.3c-8,12.1-17,23.3-27.4,33.5
				c-1.4,0.3-2.8,0.5-4.2,0.8c-27.3,6.1-54.7,11.5-82.5,15c-18.9,2.3-37.9,3.1-57,2.2c-17.3-0.8-34.5-3-51.7-5.3
				c-19.8-2.7-39.7-4.3-59.7-4.8c-17.5-0.4-35.1,0.1-52.6-0.7c-9.3-0.4-18.6-1.3-27.8-2.5c-4.7-0.6-9.4-2-14.2-2.2
				c-4.5-3.7-8.2-8.2-12.1-12.5C59.8,399.3,54.9,393.5,50.6,387.1z"/>
			<path class="st42" d="M483.1,189c-7.5,1.9-15,3.2-22.6,4.4c-13.7,2.1-27.5,2.7-41.3,2.3c-13.1-0.4-26-1.9-38.9-4.2
				c-17.8-3.1-35.5-7.3-53.2-10.7c-14.4-2.8-28.9-5.4-43.6-7c-9.9-1-19.8-2.2-29.7-2.8c-10.2-0.7-20.4-1.2-30.7-1.6
				c-12.5-0.6-25-1.2-37.4-2.3c-16.2-1.4-32.4-3.3-48.6-5.9c-21.7-3.5-43.2-7.8-64.5-12.8c-11.1-2.6-22.2-5.4-33.4-8.2
				c-1.1-0.3-2.2-0.4-3.3-0.5C43.2,125,52,111.4,62.5,98.8c0.8,0.8,1.8,0.9,2.8,1.1c6.4,1.2,12.8,2.2,19.1,3.7
				c25.8,5.9,51.6,11.9,77.4,18c25.5,6.1,51.5,9.6,77.6,11.9c10.6,0.9,21.2,1.6,31.8,2.2c14.2,0.8,28.3,1.7,42.5,2.8
				c9.8,0.8,19.7,1.7,29.4,3c17.8,2.4,35.5,5.2,53.2,7.8c16.2,2.4,32.5,3.2,48.9,2.1c2.5-0.2,5-0.5,7.6-0.8
				c5.2-0.6,10.4-1.3,15.6-1.9c3.6,5.6,5.6,11.9,7.9,18.1C479.1,174,481.6,181.3,483.1,189z"/>
			<path class="st42" d="M368.2,244.4c14.4-1.7,28.6-4.7,42.6-8.7c13.2-3.7,26-8.6,39.4-11.7c11.9-2.8,23.9-4.7,36.2-4.3
				c1,0,2.1,0,3,0.5c1.4,6.2,1.9,12.5,2.2,18.8c0.6,13.6,0.6,27.3-1,40.9c-0.1,0.8-0.3,1.6-0.5,2.5c-10.5,3.3-21.2,5.7-32.4,5
				c-8.5-0.5-16.8-2.1-25-4.1c-9.3-2.3-18.6-3.6-28.2-3.1c-7.1,0.3-14.1,1.7-21.2,3.4c1.8,1.6,3.6,3,5,4.6
				c5.6,6.7,3.7,15.9-4.3,20.4c-10.1,5.7-20.6,6.2-31.1,1.3c-7.6-3.6-10.2-8.3-9.1-16.6c0.2-1.8-0.7-1.6-1.8-1.3
				c-2.3,0.7-4.6,1-6.9,1c-2.4,0-4.9,0-7.3-0.1c-7.4-0.3-14.7-1.3-22-2.6c-13.4-2.5-26.1-7.6-39.3-10.7c-1-1.3-2-2.7-3.1-3.9
				c-5-5.5-11-8.2-18.5-6.7c-4.2,0.8-7.4,3.3-10.5,6.1c-6.4-0.8-12.9-0.2-19.3,0.2c-6.6,0.4-13.2,1.4-19.8,2
				c-5.3,0.6-10.6,1.2-15.9,1.5c-3.6,0.2-7.2,0.5-10.7,0c7.7-3.5,12.9-9.3,15.6-17.1c4-11.3,2.3-21.8-4.8-31.5
				c3.5-1.4,7.3-1.1,11-1.5c8.2-1.1,16.5-2.2,24.8-2.7c8.3-0.5,16.6-0.9,25-0.4c12.1,0.8,23.7,3.4,35.2,6.9
				c8.2,2.5,16.3,4.9,24.5,7.2c4.2,1.2,8.6,2,12.8,3c-1.3,6-1.1,12,0.8,17.9c3.7,11.7,13.9,19.8,25.7,20.4
				c11.2,0.6,21.8-6.2,26.7-17.2C368.7,257.5,368.9,251,368.2,244.4z"/>
			<path class="st40" d="M468.5,148.6c-5.2,0.6-10.4,1.3-15.6,1.9c-2.5,0.3-5,0.7-7.6,0.8c-16.4,1.1-32.7,0.3-48.9-2.1
				c-17.7-2.6-35.5-5.3-53.2-7.8c-9.8-1.3-19.6-2.2-29.4-3c-14.2-1.1-28.3-2-42.5-2.8c-10.6-0.6-21.2-1.3-31.8-2.2
				c-26.1-2.3-52.1-5.8-77.6-11.9c-25.8-6.1-51.6-12.1-77.4-18c-6.3-1.4-12.7-2.4-19.1-3.7c-1-0.2-2.1-0.3-2.8-1.1
				c6.5-8.1,13.2-16,21-22.9c11,1.1,21.9,3,32.7,5.3c12.7,2.8,25.2,6.3,37.5,10.3c19.4,6.3,38.7,12.8,58.6,17.3
				c21.8,4.9,43.9,7.9,66.2,9c9.2,0.5,18.4,0.5,27.7,0.6c22.5,0.3,45.1-0.5,67.6,0.6c3,0.2,6,0.3,9,0.6c9.1,1.1,18.3,1.7,27.4,3.2
				c10.4,1.7,20.9,3.3,31.4,4.8c6,0.9,12,2.3,18.1,2.5C462.8,136.2,466.4,142.1,468.5,148.6z"/>
			<path class="st41" d="M168.4,278.9c3.6,0.5,7.2,0.2,10.7,0c5.3-0.3,10.6-1,15.9-1.5c6.6-0.7,13.2-1.7,19.8-2
				c6.4-0.3,12.9-0.9,19.3-0.2c-4.4,5.4-7,11.5-7.7,18.3c-1.1,10.3,0.6,19.5,9.9,25.9c-2.8,2.1-6.3,1.6-9.4,2.1
				c-7.4,1.3-14.8,2.4-22.2,3.3c-5.3,0.6-10.7,1.1-16,1.2c-10.9,0.2-21.9,0.5-32.8-0.5c-18-1.6-35.4-5.6-51.6-13.7
				c-8.2-4.1-16.2-8.4-24.9-11.2c-11.3-3.6-22.9-5.9-34.9-5.2c-6.4,0.4-12.6,1.8-18.9,2.8c-4.2,0.7-8.5,1.1-12.8,1.6
				c-2.1-8.8-3.2-17.7-3.9-26.7c-0.7-8.1-1.2-16.1-0.7-24.2c0.7-0.1,1.5-0.1,2.2-0.3c6.5-1.1,12.9-2.2,19.5-2.5
				c6.3-0.3,12.5-0.9,18.8-0.2c5.7,0.6,11.4,1.2,17,2.2c12.6,2.5,24.2,7.4,35.5,13.4c9.1,4.8,18.5,9.2,28.4,12.3
				c3.8,1.2,7.6,2.7,11.7,2C149.8,281.3,158.8,282.8,168.4,278.9z M132.2,313.1c4.6,0.5,9.4-0.9,13.9-3c5.1-2.4,9.3-5.8,9.9-11.9
				c0.7-6.9-3.1-11.3-8.8-14.6c-3.6-2.1-7.6-2.9-11.6-3.2c-9.1-0.8-17.7,0.8-24.3,7.8c-5.9,6.2-3.7,14.6,1.3,18.6
				C118.1,311.1,124.5,313.4,132.2,313.1z"/>
			<path class="st42" d="M77.1,417.5c4.8,0.2,9.4,1.6,14.2,2.2c9.2,1.2,18.5,2.1,27.8,2.5c17.5,0.7,35.1,0.2,52.6,0.7
				c20,0.5,39.9,2.1,59.7,4.8c17.2,2.3,34.3,4.6,51.7,5.3c19.1,0.9,38,0.1,57-2.2c27.8-3.4,55.2-8.8,82.5-15
				c1.4-0.3,2.8-0.5,4.2-0.8c-12.3,13.1-26.2,24.3-41.3,34c-6.5,4.2-13,8.2-19.9,11.7c-0.4-0.6-0.8-0.5-1.1,0.1c0,0,0.1,0,0.1,0
				c-1.6,0-3.2,0-4.8,0.3c-4.4,0.8-8.9,1.4-13.3,1.9c-8.2,0.9-16.4,1.4-24.6,2.4c-9.8,1.2-19.4,2.9-29.2,3.9
				c-11.7,1.1-23.3,0.6-34.8-1.6c-12.5-2.3-24.5-6.5-36.2-11.3c-19.7-8-40.3-12.6-61.5-13.4c-18-0.7-36,0.5-53.9-1.2
				C95.7,434.5,85.8,426.7,77.1,417.5z"/>
			<path class="st39" d="M459.6,130.2c-6.1-0.2-12.1-1.6-18.1-2.5c-10.5-1.5-20.9-3.1-31.4-4.8c-9.1-1.5-18.2-2.2-27.4-3.2
				c-3-0.3-6-0.5-9-0.6c-22.5-1.1-45.1-0.3-67.6-0.6c-9.2-0.1-18.5-0.1-27.7-0.6c-22.3-1.2-44.4-4.1-66.2-9
				c-19.9-4.5-39.3-11-58.6-17.3c-12.3-4-24.8-7.5-37.5-10.3c-10.8-2.4-21.7-4.3-32.7-5.3c6.9-7,14.5-13.4,22.6-19.1
				c4.5,0.6,9.1,1.1,13.6,1.9c18.8,3.4,37.5,7.6,55.8,13.1c23.4,7.1,46.9,13.9,71.2,17.7c10.3,1.6,20.5,3.3,30.9,4.1
				c9.3,0.7,18.6,1.1,27.9,1.2c20.7,0.2,41.5-0.1,62.2,0.6c0.5,0,0.9,0,1.4,0c9.7,0.9,19.5,1,29.2,2.2c7.8,0.9,15.6,1.7,23.5,2.6
				c6.7,0.7,13.3,2.1,20.1,2.5C448.6,111.3,454.7,120.4,459.6,130.2z"/>
			<path class="st42" d="M135.5,38.8c6.8-4.1,14.2-6.9,21.5-9.9c21.7-8.7,44.2-14,67.3-17.2c0.8-0.1,1.7,0,2.5-0.1
				c9,3.6,17.8,7.5,26.5,11.7c14.9,7.2,30.4,12.8,46.5,16.8c13.1,3.3,26.3,5.7,39.7,7.4c11.8,1.4,23.7,2.7,35.6,2.7
				c0.8,0,1.7,0.3,2.5,0.3c2.8,0.1,5.6,0.9,8.3-0.4c11.5,7.5,22.2,15.9,31.8,25.7c-9.7,0.7-19.4,0.8-29.1,0.7
				c-20.4-0.2-40.7,0.5-61.1-0.4c-12.7-0.6-25.3-1.5-38-2.8c-11.8-1.2-23.5-3.1-35.1-5.4c-17.8-3.6-35.2-8.9-52.6-13.8
				c-14.7-4.1-29.3-8.2-44.3-11.2C150.3,41.3,142.9,40.1,135.5,38.8z"/>
			<path class="st40" d="M135.5,38.8c7.4,1.3,14.8,2.5,22.1,4c14.9,3,29.6,7.1,44.3,11.2c17.5,4.9,34.8,10.1,52.6,13.8
				c11.6,2.4,23.3,4.2,35.1,5.4c12.6,1.3,25.3,2.3,38,2.8c20.4,0.9,40.7,0.3,61.1,0.4c9.7,0.1,19.4,0,29.1-0.7
				c9.1,8.1,16.9,17.3,24,27c-6.8-0.3-13.4-1.7-20.1-2.5c-7.8-0.9-15.6-1.7-23.5-2.6c-9.7-1.1-19.5-1.2-29.2-2.2c-0.5,0-0.9,0-1.4,0
				c-20.7-0.7-41.5-0.4-62.2-0.6c-9.3-0.1-18.6-0.5-27.9-1.2c-10.3-0.8-20.6-2.5-30.9-4.1c-24.3-3.9-47.8-10.6-71.2-17.7
				c-18.3-5.6-37-9.7-55.8-13.1c-4.5-0.8-9.1-1.3-13.6-1.9C115.2,49.8,124.9,43.6,135.5,38.8z"/>
			<path class="st42" d="M141.3,275.8c-4.1,0.7-7.9-0.8-11.7-2c-9.9-3.1-19.3-7.4-28.4-12.3c-11.2-6-22.9-10.9-35.5-13.4
				c-5.6-1.1-11.3-1.7-17-2.2c-6.3-0.7-12.6-0.1-18.8,0.2c-6.5,0.3-13,1.4-19.5,2.5c-0.7,0.1-1.5,0.2-2.2,0.3
				c-0.1-12.8,1.5-25.3,3.7-37.9c0.6-3.8,1.1-7.7,2.5-11.4c2.7-0.9,5.5-1,8.3-1.1c6.6-0.2,13.2-0.3,19.8,0c9.3,0.4,18.4,2,27.3,4.6
				c10.2,3,19.8,7.4,29.4,12c11.4,5.4,23.2,10,35.6,13c0.9,0.2,1.9,0.3,2.6,1c-4.8,6-7.8,12.7-7.9,20.4
				C129.1,260.2,133.3,268.9,141.3,275.8z"/>
			<path class="st41" d="M106,441.9c17.9,1.7,36,0.5,53.9,1.2c21.3,0.8,41.8,5.4,61.5,13.4c11.7,4.8,23.7,9,36.2,11.3
				c11.5,2.1,23.1,2.7,34.8,1.6c9.8-0.9,19.5-2.7,29.2-3.9c8.2-1,16.4-1.5,24.6-2.4c4.5-0.5,8.9-1.1,13.3-1.9
				c1.6-0.3,3.2-0.3,4.8-0.3c-0.5,1.2-1.7,1.5-2.6,2c-23.6,11.8-48.3,20.6-74.5,24.5c-29.8,4.4-59.4,3.4-88.8-3.2
				c-33-7.5-63-21.4-90.6-40.6C107.2,443,106.6,442.4,106,441.9z"/>
			<path class="st41" d="M385.9,50.1c-2.7,1.3-5.5,0.5-8.3,0.4c-0.8,0-1.7-0.3-2.5-0.3c-11.9,0-23.8-1.3-35.6-2.7
				c-13.4-1.6-26.6-4.1-39.7-7.4c-16.1-4-31.6-9.6-46.5-16.8c-8.7-4.2-17.5-8.1-26.5-11.7c15-2,30-2,45.1-0.8
				c20.9,1.7,41.1,6.2,60.8,13C351.6,30.3,369.4,38.9,385.9,50.1z"/>
			<path class="st41" d="M364.4,460.9c0.3-0.6,0.7-0.7,1.1-0.1C365.1,460.8,364.7,460.9,364.4,460.9z"/>
			<path class="st39" d="M87.7,327.1c15.6-0.1,29.1,3.4,42.2,8.9c8.3,3.5,16,7.8,22.7,13.9c5.4,4.9,9.5,10.7,10.1,18.1
				c0.6,7.4-3.5,12.7-9.4,16.7c-5.6,3.8-12,5.3-18.5,6.2c-14.4,1.8-28.5-0.5-42.2-4.9c-9.9-3.2-19.2-7.7-27.4-14.2
				c-5-4-9.5-8.5-11.9-14.6c-4.4-11,0.6-20,9.9-24.8C69.4,329.2,77.3,326.7,87.7,327.1z M96.1,339.3c-5.9-0.3-11.7,0.6-17.1,3
				c-7.1,3.2-11.3,10.1-5.8,18.2c2.3,3.4,5.1,6.3,8.5,8.4c13.4,8.6,27.9,12.6,43.9,10.7c4.5-0.5,8.8-1.8,12.6-4.5
				c4.7-3.4,6.2-8.4,3.9-13.5c-1.4-3.2-3.4-6.1-6.2-8.2C124.2,344.3,110.9,339.5,96.1,339.3z"/>
			<path class="st43" d="M236.4,319.3c-9.4-6.4-11.1-15.6-9.9-25.9c0.7-6.8,3.3-12.9,7.7-18.3c3-2.8,6.3-5.3,10.5-6.1
				c7.5-1.5,13.6,1.2,18.5,6.7c1.1,1.2,2.1,2.6,3.1,3.9c5.6,10.8,6.9,21.7,1.2,32.9C259.1,323.1,248.7,325.4,236.4,319.3z
				 M234.3,300.9c-0.6,1.1,0.2,2,0.5,2.9c2,7.2,7.3,10.9,14.8,10.4c7.2-0.5,12-4.9,13.1-12.2c0.8-6.9-0.6-13.4-4.4-19.2
				c-4.1-6.2-10.8-7.6-16-3.6c-2.6,2.1-4.6,4.6-5.8,7.8C235,291.5,233.9,296.1,234.3,300.9z"/>
			<path class="st41" d="M267.5,312.6c5.7-11.2,4.4-22.2-1.2-32.9c13.2,3.1,25.9,8.2,39.3,10.7c7.3,1.4,14.6,2.3,22,2.6
				c2.4,0.1,4.9,0.1,7.3,0.1c-0.2,0.9-1,1-1.7,1.2c-11.7,3-23.3,6.7-34.8,10.3c-8.4,2.6-16.9,5-25.4,7.4
				C271.3,312.5,269.5,313.8,267.5,312.6z"/>
			<path class="st43" d="M368.2,244.4c0.7,6.7,0.5,13.2-2.4,19.5c-5,11-15.5,17.8-26.7,17.2c-11.8-0.6-22-8.7-25.7-20.4
				c-1.9-5.9-2.1-11.9-0.8-17.9c1.9-6.2,4.9-11.7,9.8-16c12.2-10.8,31.3-8.3,40.3,5.2C365.4,235.7,367.1,239.9,368.2,244.4z
				 M348,250.5c5.8,0.1,10.6-4.5,10.6-10.1c0-5.4-4.6-10-10.1-10.1c-5.6-0.1-10.2,4.4-10.3,10C338.2,245.9,342.6,250.4,348,250.5z"
				/>
			<path class="st43" d="M141.3,275.8c-8.1-6.9-12.2-15.6-11.9-26.2c0.2-7.7,3.1-14.4,7.9-20.4c10.5-10.4,23.4-12.2,35.3-4.9
				c2.6,1.6,4.6,3.8,6.6,6c7.1,9.7,8.8,20.2,4.8,31.5c-2.7,7.8-8,13.6-15.6,17.1C158.8,282.8,149.8,281.3,141.3,275.8z M165.7,250.5
				c5.7,0,10.2-4.6,10.2-10.2c0-5.5-4.6-10-10.1-10c-5.8,0-10.3,4.6-10.3,10.4C155.5,246.1,160.1,250.5,165.7,250.5z"/>
			<path class="st43" d="M154.4,196.2c3.2-0.2,6.2,0.3,9,1.5c2.5,1,3.6,3.2,2.9,5.4c-0.7,2.2-2.8,3.3-5.4,2.6
				c-7-1.7-13.4-0.8-19.1,3.9c-2,1.6-4.3,1.5-5.8-0.2c-1.6-1.7-1.6-4.1,0.3-6c3.4-3.4,7.6-5.5,12.3-6.5
				C150.4,196.4,152.4,196.1,154.4,196.2z"/>
			<path class="st43" d="M343.1,196.2c7.4,0,13.3,2,18.4,6.4c1.4,1.3,2.4,2.7,2,4.7c-0.6,3.3-4.2,4.5-7,2.2
				c-5.5-4.7-11.8-5.3-18.6-3.8c-3,0.7-5-0.2-5.7-2.5c-0.7-2.3,0.5-4.5,3.1-5.5C337.9,196.6,340.8,196.2,343.1,196.2z"/>
			<path class="st42" d="M132.2,313.1c-7.7,0.3-14.1-2.1-19.6-6.4c-5-4-7.1-12.4-1.3-18.6c6.6-7,15.2-8.6,24.3-7.8
				c4,0.3,8,1.2,11.6,3.2c5.7,3.3,9.5,7.7,8.8,14.6c-0.6,6.1-4.8,9.5-9.9,11.9C141.6,312.2,136.9,313.6,132.2,313.1z"/>
			<path class="st40" d="M96.1,339.3c14.9,0.2,28.1,5,39.8,14.1c2.7,2.2,4.7,5,6.2,8.2c2.3,5.1,0.8,10.1-3.9,13.5
				c-3.8,2.7-8.1,4-12.6,4.5c-16,1.9-30.5-2.1-43.9-10.7c-3.4-2.2-6.2-5.1-8.5-8.4c-5.6-8.1-1.3-15,5.8-18.2
				C84.4,339.9,90.1,339.1,96.1,339.3z"/>
			<path class="st41" d="M262.7,302c-1.1,7.3-5.9,11.8-13.1,12.2c-7.6,0.5-12.8-3.2-14.8-10.4c-0.3-0.9-1.1-1.8-0.5-2.9
				c1,0,1.4-0.9,2-1.4c4-4.1,8.8-6.1,14.5-5.3C255.9,294.9,260.3,297,262.7,302z"/>
			<path class="st39" d="M262.7,302c-2.4-5-6.8-7.1-11.9-7.8c-5.7-0.8-10.5,1.1-14.5,5.3c-0.6,0.6-1,1.4-2,1.4
				c-0.4-4.8,0.6-9.4,2.2-13.9c1.1-3.2,3.1-5.7,5.8-7.8c5.2-4,11.8-2.6,16,3.6C262.1,288.6,263.5,295.1,262.7,302z"/>
			<path class="st21" d="M348,250.5c-5.5-0.1-9.8-4.6-9.8-10.2c0.1-5.6,4.7-10.2,10.3-10c5.4,0.1,10,4.7,10.1,10.1
				C358.6,245.9,353.8,250.5,348,250.5z"/>
			<path class="st21" d="M165.7,250.5c-5.5,0-10.1-4.4-10.2-9.8c-0.1-5.8,4.5-10.4,10.3-10.4c5.5,0,10.1,4.5,10.1,10
				C175.9,245.9,171.4,250.4,165.7,250.5z"/>
		</g>
	</g>
</g>
</svg>
