<?xml version="1.0" encoding="utf-8"?>
<!-- Generator: Adobe Illustrator 27.9.1, SVG Export Plug-In . SVG Version: 6.00 Build 0)  -->
<svg version="1.1" id="Layer_1" xmlns="http://www.w3.org/2000/svg" xmlns:xlink="http://www.w3.org/1999/xlink" x="0px" y="0px"
	 viewBox="0 0 200 200" style="enable-background:new 0 0 200 200;" xml:space="preserve">
<style type="text/css">
	.st0{fill:#939696;}
	.st1{fill:#B7B8B8;}
	.st2{fill:#1F2F3D;}
	.st3{fill:#FFFFFF;}
	.st4{fill:#F05979;}
</style>
<g id="mercury_00000101812440978593359390000001705106099678521264_">
	<circle id="silhouette_00000047764009504220300460000007901888694199770287_" class="st0" cx="100" cy="100" r="100"/>
	<g>
		<circle class="st1" cx="100" cy="100" r="95"/>
		<path class="st0" d="M149,18.6c0.2,0.3,21.9,27.8-5.5,31.5C116,53.8,87,64.5,108.2,85.8s30-4.7,49.8,17
			c11.9,13.1,26.1,14.8,35.5,14c1-5.5,1.5-11.1,1.5-16.8C195,65.4,176.5,35.2,149,18.6z"/>
		<path class="st0" d="M183,53.7l-74.5,7c0,0-17.9,10.6-4.1,28.6s29.5,10.9,55.1,25.7s28.4,21.1,28.4,21.1l0,0
			c4.6-11.1,7.1-23.3,7.1-36.1C195,83.2,190.6,67.4,183,53.7z"/>
		<g>
			<path class="st0" d="M171.7,143.7c-3.8,3.2,4.7,5.1-12.1,5.8c-16.7,0.7-35.4,9.6-16.1,20.2c5.7,3.1,12.1,5.4,18.4,7.1
				c10.6-9.6,19-21.5,24.4-35C180,141.8,173.5,142.1,171.7,143.7z"/>
			<path class="st0" d="M29.7,36.1c1.8,2.7,4.7,4.6,9.4,4.4c15-0.8-6.9-11.5,23.1-11.6C88,28.8,82.8,14.6,74.4,8.5
				C57,13.4,41.5,23.1,29.7,36.1z"/>
			<path class="st0" d="M43.2,162.7c19.2-4.5,17.6-10.8,9.4-17.9c-8.2-7.1-1.9-8.5,4.8-13c6.6-4.5,10.4-24.9-23.2-16.4
				c-15.7,4-21.1,13.7-22.4,23c4.9,12.3,12.5,23.1,22.1,31.9C35,166.8,37.8,163.9,43.2,162.7z"/>
		</g>
		
			<ellipse transform="matrix(0.3534 -0.9355 0.9355 0.3534 -118.8191 185.9303)" class="st0" cx="75.1" cy="178.9" rx="7.7" ry="12.5"/>
		
			<ellipse transform="matrix(0.3534 -0.9355 0.9355 0.3534 53.7041 129.1757)" class="st0" cx="120.3" cy="25.7" rx="3.8" ry="6.2"/>
		<path class="st0" d="M28.1,56.2c-0.6,0-1.1,0.1-1.6,0.1c4.3,0.7,7.6,4.4,7.6,8.9c0,5-4.1,9.1-9.1,9.1c-3.1,0-5.9-1.6-7.5-4
			c1.3,4.6,5.6,8,10.6,8c6.1,0,11.1-5,11.1-11.1C39.2,61.1,34.3,56.2,28.1,56.2z"/>
		<path class="st0" d="M88.4,30.7c-0.6-0.2-1.1-0.4-1.7-0.5c4,2.3,5.8,7.2,4.1,11.7c-1.9,4.9-7.4,7.4-12.3,5.6
			c-3.1-1.2-5.2-3.7-5.9-6.7c-0.4,5,2.6,9.9,7.5,11.8c6,2.3,12.8-0.8,15.1-6.8C97.5,39.8,94.5,33,88.4,30.7z"/>
		<path class="st0" d="M120,160.2c-0.5-0.2-1-0.3-1.5-0.4c3.6,2.1,5.3,6.5,3.8,10.6c-1.7,4.5-6.7,6.8-11.2,5.1
			c-2.8-1.1-4.7-3.4-5.4-6.1c-0.3,4.6,2.3,9,6.8,10.7c5.5,2.1,11.6-0.7,13.7-6.2C128.3,168.4,125.5,162.3,120,160.2z"/>
	</g>
</g>
</svg>
