<?xml version="1.0" encoding="utf-8"?>
<!-- Generator: Adobe Illustrator 27.9.1, SVG Export Plug-In . SVG Version: 6.00 Build 0)  -->
<svg version="1.1" id="Layer_1" xmlns="http://www.w3.org/2000/svg" xmlns:xlink="http://www.w3.org/1999/xlink" x="0px" y="0px"
	 viewBox="0 0 200 200" style="enable-background:new 0 0 200 200;" xml:space="preserve">
<style type="text/css">
	.st0{fill:#C96E43;}
	.st1{fill:#1F2F3D;}
	.st2{fill:#FFFFFF;}
	.st3{fill:#FBDE84;}
	.st4{fill:#FDC478;}
	.st5{fill:#D88360;}
</style>
<g id="pluto_00000142152601107277610410000006058814604577225131_">
	<circle id="silhouette_00000040568434284257570630000000955564842432000387_" class="st0" cx="100" cy="100" r="100"/>
	<g>
		<g>
			<g>
				<circle class="st3" cx="100" cy="99.8" r="95.8"/>
				<path class="st4" d="M4.2,99.8c0,10.9,1.8,21.4,5.2,31.1c0.1-6.7,29.5-18,52.1-8.3c20.3,8.6-7.1,10.6,13.2,18.2
					s42.6-25.5,62.3-29.8s20.3-0.7,26.7,12.1c4.2,8.3,14.9,13,25,12.7c4.5-11.1,7-23.3,7-36c0-31.5-15.2-59.5-38.7-76.9L89.7,4.5
					C41.6,9.7,4.2,50.4,4.2,99.8z"/>
				<path class="st4" d="M100,181.4c-35.5,0-66.9-17.1-86.6-43.5c15.4,32.4,48.4,54.8,86.6,54.8s71.2-22.4,86.6-54.8
					C166.9,164.2,135.5,181.4,100,181.4z"/>
				<g>
					<path class="st0" d="M100.5,76.1c0,0,14.2-35.9,50.7-31.9c22.3,2.4,32.8,10.7,37.9,19.7C174.9,28.7,140.4,3.8,100,3.8
						c-53.1,0-96.1,43-96.1,96.1c0,6.7,0.7,13.2,2,19.5c0-0.2,0.2-39.8,26.9-37.7c26.8,2.1,20.6,17.9,43.6,17.5
						C86.6,99.1,93.1,88,100.5,76.1L100.5,76.1z"/>
				</g>
				
					<ellipse transform="matrix(0.4549 -0.8905 0.8905 0.4549 -13.8557 227.1757)" class="st0" cx="178.6" cy="124.9" rx="12.9" ry="6"/>
				
					<ellipse transform="matrix(0.7498 -0.6617 0.6617 0.7498 -66.9674 145.1415)" class="st4" cx="158.4" cy="161.1" rx="9.9" ry="6.4"/>
				
					<ellipse transform="matrix(0.7498 -0.6617 0.6617 0.7498 -72.4262 134.0834)" class="st4" cx="141.1" cy="162.8" rx="4.8" ry="3.1"/>
				<ellipse transform="matrix(0.7504 -0.661 0.661 0.7504 -12.8947 40.087)" class="st5" cx="46.6" cy="37.1" rx="24.5" ry="9"/>
			</g>
			<ellipse transform="matrix(0.9387 -0.3448 0.3448 0.9387 -41.906 12.7841)" class="st3" cx="15" cy="124.2" rx="4.5" ry="9.1"/>
			
				<ellipse transform="matrix(0.9387 -0.3448 0.3448 0.9387 -36.7795 13.9728)" class="st3" cx="20.9" cy="110.4" rx="2.9" ry="5.9"/>
			
				<ellipse transform="matrix(0.9387 -0.3448 0.3448 0.9387 -43.8802 16.4536)" class="st4" cx="24.3" cy="131.6" rx="2.3" ry="4.7"/>
		</g>
	</g>
</g>
</svg>
