<?xml version="1.0" encoding="utf-8"?>
<!-- Generator: Adobe Illustrator 27.9.1, SVG Export Plug-In . SVG Version: 6.00 Build 0)  -->
<svg version="1.1" id="Layer_1" xmlns="http://www.w3.org/2000/svg" xmlns:xlink="http://www.w3.org/1999/xlink" x="0px" y="0px"
	 viewBox="0 0 343.9 77.9" style="enable-background:new 0 0 343.9 77.9;" xml:space="preserve">
<style type="text/css">
	.st0{fill:#F8AE5E;}
	.st1{fill:#F9E1C0;}
	.st2{fill:#F58E4E;}
	.st3{fill:#1F2F3D;}
	.st4{fill:#C96E43;}
	.st5{fill:#FBF9F9;}
	.st6{fill:#FAC087;}
</style>
<g>
	<path class="st0" d="M343,40.5c-1.6,3.9-4.4,6.7-7.7,9.1c-5.2,3.9-10.9,6.7-16.9,9.2c-9.7,4.1-19.8,6.7-29.8,9.2
		c-6,1.5-12.1,2.6-18,3.6c-5.1,0.9-10.1,1.6-15.3,2.3c-0.5,0.1-1.1,0.3-1.5,0.4c-0.6-0.4-1.2-0.2-1.6-0.1c-5.4,0.8-11,1.3-16.5,1.8
		c-3.4,0.3-6.8,0.6-10.2,1c-0.2,0-0.5-0.1-0.7-0.1c-4.2,0.2-8.6,0.5-12.9,0.7c-6.3,0.3-12.6,0.5-19,0.5c-11.7,0.1-23.2-0.2-34.8-0.8
		c-21.7-1.1-43.2-3.8-64.6-7.2c-3.7-0.6-7.4-1.5-11.2-1.7C76.6,67,71,66,65.4,64.9c-10.5-2.2-21.2-4.7-31.4-8.2
		c-7.9-2.7-15.7-6-22.8-10.4c-3.7-2.3-6.9-5-9.3-8.7c-2.8-4.2-2.5-9.5,0.6-13.5c3.7-4.8,8.7-7.9,14-10.5C25,9.3,34.3,7,43.5,4.7
		c4.8-1.2,9.8-2,14.6-2.8c4.4-0.6,9.2-1.2,13.9-1.9c0.1,1.1-0.1,2.2-0.7,3.2c0.2-0.4,0.4-0.8,0.5-1.3l-0.1-0.1
		c-1.3-0.4-2.6-0.1-3.6,0.1c-0.5,0.1-0.8,0.2-1.2,0.2C62.4,2.6,57.6,3.6,51.5,5c-7.8,1.8-15.4,3.8-22.6,7.3
		c-3.3,1.5-7.2,3.7-10.3,6.9c-0.6,0.6-1.3,1.2-1.7,1.9c-3.4,4.2-3.8,8.8-1.1,13.4c2.4,4.1,6.3,6.9,9.8,8.9c8,4.7,16.6,7.7,24.1,10
		c7.8,2.4,16.1,4.5,25.5,6.6c7.8,1.6,16.1,3.2,24.7,4.5c7.2,1.1,13.8,2,20.3,2.9c7.5,1,15.1,1.6,21.3,2c10.7,0.9,20.5,1.3,29.7,1.5
		c5.6,0.2,11.4,0.2,17.4,0.2c7.5,0,15.4-0.2,23.6-0.6c8.1-0.4,16.8-1,25.6-1.8c4.3-0.5,8.7-1,12.9-1.5l3.3-0.4
		c4.1-0.5,8.3-1.4,12.4-2.1l2.6-0.5c6.2-1.2,12.7-2.6,19.9-4.4c5.5-1.4,11.3-3.4,17.7-5.9c7.2-2.9,12-6,16-9.9l0.3-0.3
		c5.5-5.5,6.1-12.1,1.5-17.6c-2.7-3.1-5.9-5.3-8.4-6.9c-6.1-3.8-12.8-6.3-18.6-8.2c-7.5-2.5-15.3-4.5-21.2-5.7
		c-0.6-0.2-1.1-0.3-1.7-0.4c-1.6-0.5-3.4-0.9-5.1-0.9l-0.2-0.1c-0.2-0.9-0.2-1.7-0.4-2.6c2.6,0.1,5.1,0.7,7.7,1.2
		c12,1.9,23.8,4.3,35.3,8.3c5,1.7,10.1,3.8,14.9,6.2c4.9,2.6,9.8,5.5,13.4,10C343.6,31,344.9,35.4,343,40.5z"/>
	<path class="st1" d="M322.9,43.7l-0.3,0.3c-4.1,3.9-8.9,7-16,9.9c-6.4,2.5-12.2,4.5-17.7,5.9c-7.2,1.8-13.7,3.3-19.9,4.4l-2.6,0.5
		c-4.1,0.8-8.2,1.6-12.4,2.1l-3.3,0.4c-4.2,0.6-8.6,1.1-12.9,1.5c-8.8,0.9-17.5,1.5-25.6,1.8c-8.1,0.4-16,0.6-23.6,0.6
		c-6,0-11.8,0-17.4-0.2c-9.3-0.2-19-0.7-29.7-1.5c-6.3-0.5-13.8-1.1-21.3-2c-6.5-0.9-13-1.8-20.3-2.9c-8.6-1.3-16.9-2.8-24.7-4.5
		c-9.4-2-17.7-4.2-25.5-6.6c-7.5-2.3-16.1-5.3-24.1-10c-3.6-2-7.4-4.7-9.8-8.9c-2.7-4.6-2.3-9.3,1.1-13.4c0.5-0.7,1.2-1.3,1.7-1.9
		c3.2-3.2,7-5.3,10.3-6.9C36.1,8.8,43.6,6.9,51.5,5c6.1-1.5,10.9-2.4,15.5-2.9c0.4,0,0.7-0.1,1.2-0.2c1-0.2,2.2-0.5,3.6-0.1l0.1,0.1
		c-0.1,0.5-0.3,0.9-0.5,1.3c0,0.1,0,0.3,0,0.5h0c0,0.2,0,0.4,0,0.6c-0.1,1-0.2,1.9-0.4,2.8c-0.1,0.4-0.1,0.8-0.2,1.2
		c-0.1,0.5,0,1-0.1,1.5c-1,0.2-1.9,0.4-2.9,0.6c-2.5,0.4-5,1-7.4,1.4c-4,0.9-7.7,2.3-10.5,3.4c-3.5,1.4-7.2,3.1-9.8,5.8
		c-0.2,0.2-0.4,0.4-0.6,0.6c-2.7,2.9-3.1,5.2-1.5,8.2c1.6,3,4.5,4.9,7.6,6.9c5.5,3.4,11.5,5.7,17.3,7.6c1.7,0.5,3.4,1.1,5.1,1.6
		c0.7,0.2,1.4,0.4,2.2,0.6c0.2,0,0.4,0.1,0.5,0.2c3.2,0.9,6.6,1.8,10.4,2.8c0,0,0.1,0,0.1,0c1.6,0.4,3.2,0.8,4.9,1.2
		c5.9,1.5,11.8,2.5,17.7,3.6l1.5,0.3c3,0.5,6.3,1.1,10,1.6c11.2,1.3,21.2,2.4,30.4,3.2c12.4,1,24.9,1.5,37.1,1.5
		c11.7,0.1,21.2-0.2,30-0.9c15.2-1.1,26.6-2.4,37.3-4.2c5.4-1,10.8-2.1,16-3.3l4-0.9c2.5-0.6,5-1.3,7.3-2.1l2-0.7
		c3.1-1,6.3-2,9.4-3.4c4.2-1.8,8.7-4.1,12.4-7.7l0.3-0.3c1.3-1.4,2.1-2.9,2.4-4.4c0,0,0,0,0,0c0-0.2,0.1-0.3,0.1-0.5
		c0-0.2,0-0.4,0-0.6c0-0.1,0-0.2,0-0.3c0-1.9-1-3.9-2.7-5.4c-4-3.8-9.1-6.2-13.9-8.1c-5.8-2.5-11.9-4.1-17.1-5.5
		c-0.1-0.5,0-1-0.1-1.4c-0.3-1.3-0.5-2.7-0.6-4.2c0,0,0,0,0,0c0-0.5-0.1-0.9-0.1-1.3c-0.1-0.5-0.2-1-0.3-1.4l0.1,0l0.2,0.1
		c1.7,0,3.5,0.4,5.1,0.9c0.7,0.1,1.2,0.2,1.7,0.4c5.9,1.2,13.6,3.2,21.2,5.7c5.8,1.9,12.5,4.4,18.6,8.2c2.5,1.5,5.7,3.8,8.4,6.9
		C329,31.7,328.4,38.2,322.9,43.7z"/>
	<path class="st2" d="M303.9,31.7c0,0.2,0,0.4,0,0.6c0,0.2,0,0.3-0.1,0.5c0,0,0,0,0,0c-0.1,0.4-0.2,0.7-0.3,1.1
		c-0.6,1.1-1.5,2.2-2.5,3.2l-0.2,0.2c-3.5,3.3-7.6,5.9-13.8,8.3c-5.5,2.1-10.5,3.8-15.2,5c-6.2,1.6-11.8,2.8-17.1,3.8l-2.2,0.4
		c-3.5,0.7-7.1,1.4-10.6,1.8l-2.8,0.3c-3.6,0.5-7.4,0.9-11.1,1.3c-7.6,0.7-15,1.2-22,1.5c-7,0.3-13.8,0.5-20.3,0.5
		c-5.1,0-10.1,0-15-0.2c-8-0.2-16.4-0.6-25.6-1.3c-5.4-0.4-11.9-0.9-18.4-1.7c-5.6-0.7-11.2-1.5-17.5-2.4
		c-7.4-1.1-14.5-2.4-21.3-3.8c-1.2-0.3-2.4-0.5-3.6-0.8c-1.1-0.3-2.1-0.5-3.1-0.8c0,0-0.1,0-0.1,0c-3.8-1-7.2-1.9-10.4-2.8
		c-0.2-0.1-0.4-0.1-0.5-0.2c-0.7-0.2-1.4-0.4-2.2-0.6c-1.8-0.5-3.5-1.1-5.1-1.6C57,42.2,51,39.9,45.5,36.5c-3.1-1.9-6-3.9-7.6-6.9
		c-1.6-3-1.2-5.3,1.5-8.2c0.2-0.2,0.4-0.4,0.6-0.6c2.7-2.7,6.4-4.4,9.8-5.8c2.8-1.1,6.6-2.5,10.5-3.4c2.4-0.5,4.9-1.1,7.4-1.4
		c1-0.2,1.9-0.4,2.9-0.6c0.1-0.5,0-1,0.1-1.5c0-0.4,0.1-0.8,0.2-1.2c0.1-1,0.3-1.9,0.4-2.8c0-0.2,0-0.4,0-0.6h0c0,0,0,0,0.1,0
		l-0.6,7.7c-1.8,0.6-3.4,1.2-4.8,1.7c-3,1.1-6.2,2.6-8.5,4.9c-0.2,0.2-0.3,0.3-0.5,0.5c-2.3,2.5-2.7,4.4-1.2,6.9
		c1.4,2.5,3.9,4.2,6.6,5.8c4.7,2.8,9.9,4.8,14.9,6.4c5.7,1.9,12,3.6,20,5.5c5.1,1.2,10.1,2.1,15.2,3l1.2,0.2
		c2.6,0.4,5.4,0.9,8.6,1.3c9.6,1.1,18.2,2,26.2,2.7c10.6,0.8,21.4,1.3,31.9,1.3c10.1,0.1,18.3-0.2,25.8-0.7c13-0.9,22.8-2,32.1-3.6
		c4.7-0.8,9.3-1.8,13.8-2.8l3.4-0.7c2.2-0.5,4.3-1.1,6.3-1.8l1.8-0.6c2.6-0.8,5.4-1.7,8-2.9c3.6-1.5,7.5-3.4,10.6-6.5l0.2-0.2
		c1.4-1.5,2.2-3.2,2.2-4.9c0-1.6-0.8-3.3-2.3-4.6c-3.4-3.2-7.8-5.2-11.9-6.8l-0.9-8.6c0,0,0.1,0,0.1,0c0,0,0,0,0,0
		c0.1,1.4,0.3,2.8,0.6,4.2c0.1,0.5,0,1,0.1,1.4c5.2,1.4,11.3,3,17.1,5.5c4.8,1.9,9.9,4.4,13.9,8.1c1.7,1.5,2.7,3.5,2.7,5.4
		C303.9,31.6,303.9,31.6,303.9,31.7z"/>
	<path class="st1" d="M269,3.7c0.5,3.1,0.8,6.3,1,9.5c21.3,4.7,34.2,11,34,18.7c-0.3,16.5-59.9,28.8-133.2,27.3s-132.3-16-132-32.5
		C39,19.3,51,13.7,70.8,9.9c0.3-3.2,0.8-6.4,1.4-9.6c-35,5.1-57.4,14-57.7,26.7C14,49.6,83.9,69.3,170.6,71
		c86.7,1.7,157.3-15.2,157.8-37.8C328.7,20.1,305.4,10.1,269,3.7z"/>
</g>
</svg>
