<?xml version="1.0" encoding="utf-8"?>
<!-- Generator: Adobe Illustrator 27.9.1, SVG Export Plug-In . SVG Version: 6.00 Build 0)  -->
<svg version="1.1" id="Layer_1" xmlns="http://www.w3.org/2000/svg" xmlns:xlink="http://www.w3.org/1999/xlink" x="0px" y="0px"
	 viewBox="0 0 200 200" style="enable-background:new 0 0 200 200;" xml:space="preserve">
<style type="text/css">
	.st0{fill:#1F2F3D;}
	.st1{fill:#FFD653;}
	.st2{fill:#F68922;}
	.st3{fill:#CA6F43;}
	.st4{fill:#B64D33;}
	.st5{fill:#E88F53;}
	.st6{fill:#F7AE5E;}
	.st7{fill:#FFFFFF;}
	.st8{fill:#EC8523;}
	.st9{fill:#FAF9F9;}
	.st10{fill:#F9C087;}
	.st11{fill:#F8E1C1;}
	.st12{fill:#F68F4E;}
	.st13{fill:#4268A0;}
	.st14{fill:#4D75B9;}
	.st15{fill:#7CA9DA;}
	.st16{opacity:0.15;fill:#7CA9DA;enable-background:new    ;}
	.st17{fill:#69BDC6;}
	.st18{fill:#B3DFE5;}
	.st19{fill:#9DD5DC;}
	.st20{fill:#90D5DB;}
	.st21{fill:#8CCBD4;}
	.st22{fill:#45A4C1;}
	.st23{fill:#78D1F2;}
	.st24{fill:#4AA146;}
	.st25{fill:#FDFDFB;}
	.st26{fill:#F37769;}
	.st27{fill:#F7B032;}
	.st28{fill:#F59B28;}
	.st29{fill:#FBFAF9;}
	.st30{fill:#EF423F;}
	.st31{fill:#C55334;}
	.st32{fill:#E45F3A;}
	.st33{fill:#939696;}
	.st34{fill:#B7B9B8;}
	.st35{fill:#F05B7A;}
	.st36{fill:#FBDE84;}
	.st37{fill:#FDC579;}
	.st38{fill:#D88360;}
	.st39{fill:#EDA329;}
	.st40{fill:#F6C12D;}
	.st41{fill:#D3A12A;}
	.st42{fill:#7F3F98;}
	.st43{fill:#FAFBFC;}
	.st44{fill:#B64C32;}
	.st45{fill:#EECBA0;}
	.st46{fill:#F8E0C0;}
	.st47{fill:#FADE83;}
	.st48{fill:#F05A7A;}
	.st49{fill:#719191;}
	.st50{fill:#B2E0E6;}
	.st51{fill:#5BA1A5;}
	.st52{fill:#E45E39;}
	.st53{fill:#121B2B;}
	.st54{fill:#B7B8B8;}
	.st55{fill:#FFFFFF;stroke:#010101;stroke-miterlimit:10;}
	.st56{fill:#49A146;}
	.st57{fill:#010101;}
	.st58{fill:none;stroke:#010101;stroke-width:6;stroke-linecap:round;stroke-linejoin:round;stroke-miterlimit:10;}
	.st59{fill:#030303;}
	.st60{fill:#232323;}
	.st61{fill:#ED90B6;}
	.st62{fill:#F37769;stroke:#010101;stroke-width:3;stroke-linecap:round;stroke-linejoin:round;stroke-miterlimit:10;}
</style>
<g id="mercury_00000018219385676318265730000018224094334226831791_">
	<circle id="silhouette_00000101813671199217829530000014780240428837343635_" class="st33" cx="100" cy="100" r="100"/>
	<g>
		<circle class="st34" cx="100" cy="100" r="95"/>
		<path class="st33" d="M149,18.6c0.2,0.3,21.9,27.8-5.5,31.5C116,53.8,87,64.5,108.2,85.8s30-4.7,49.8,17
			c11.9,13.1,26.1,14.8,35.5,14c1-5.5,1.5-11.1,1.5-16.8C195,65.4,176.5,35.2,149,18.6z"/>
		<path class="st33" d="M183,53.7l-74.5,7c0,0-17.9,10.6-4.1,28.6s29.5,10.9,55.1,25.7s28.4,21.1,28.4,21.1l0,0
			c4.6-11.1,7.1-23.3,7.1-36.1C195,83.2,190.6,67.4,183,53.7z"/>
		<g>
			<path class="st33" d="M171.7,143.7c-3.8,3.2,4.7,5.1-12.1,5.8c-16.7,0.7-35.4,9.6-16.1,20.2c5.7,3.1,12.1,5.4,18.4,7.1
				c10.6-9.6,19-21.5,24.4-35C180,141.8,173.5,142.1,171.7,143.7z"/>
			<path class="st33" d="M29.7,36.1c1.8,2.7,4.7,4.6,9.4,4.4c15-0.8-6.9-11.5,23.1-11.6C88,28.8,82.8,14.6,74.4,8.5
				C57,13.4,41.5,23.1,29.7,36.1z"/>
			<path class="st33" d="M43.2,162.7c19.2-4.5,17.6-10.8,9.4-17.9c-8.2-7.1-1.9-8.5,4.8-13c6.6-4.5,10.4-24.9-23.2-16.4
				c-15.7,4-21.1,13.7-22.4,23c4.9,12.3,12.5,23.1,22.1,31.9C35,166.8,37.8,163.9,43.2,162.7z"/>
		</g>
		
			<ellipse transform="matrix(0.3534 -0.9355 0.9355 0.3534 -118.8055 185.9143)" class="st33" cx="75.1" cy="178.9" rx="7.7" ry="12.5"/>
		
			<ellipse transform="matrix(0.3534 -0.9355 0.9355 0.3534 53.7035 129.1299)" class="st33" cx="120.3" cy="25.7" rx="3.8" ry="6.2"/>
		<path class="st33" d="M28.1,56.2c-0.6,0-1.1,0.1-1.6,0.1c4.3,0.7,7.6,4.4,7.6,8.9c0,5-4.1,9.1-9.1,9.1c-3.1,0-5.9-1.6-7.5-4
			c1.3,4.6,5.6,8,10.6,8c6.1,0,11.1-5,11.1-11.1C39.2,61.1,34.3,56.2,28.1,56.2z"/>
		<path class="st33" d="M88.4,30.7c-0.6-0.2-1.1-0.4-1.7-0.5c4,2.3,5.8,7.2,4.1,11.7c-1.9,4.9-7.4,7.4-12.3,5.6
			c-3.1-1.2-5.2-3.7-5.9-6.7c-0.4,5,2.6,9.9,7.5,11.8c6,2.3,12.8-0.8,15.1-6.8C97.5,39.8,94.5,33,88.4,30.7z"/>
		<path class="st33" d="M120,160.2c-0.5-0.2-1-0.3-1.5-0.4c3.6,2.1,5.3,6.5,3.8,10.6c-1.7,4.5-6.7,6.8-11.2,5.1
			c-2.8-1.1-4.7-3.4-5.4-6.1c-0.3,4.6,2.3,9,6.8,10.7c5.5,2.1,11.6-0.7,13.7-6.2C128.3,168.4,125.5,162.3,120,160.2z"/>
	</g>
</g>
</svg>
