<?xml version="1.0" encoding="utf-8"?>
<!-- Generator: Adobe Illustrator 27.9.1, SVG Export Plug-In . SVG Version: 6.00 Build 0)  -->
<svg version="1.1" id="Layer_1" xmlns="http://www.w3.org/2000/svg" xmlns:xlink="http://www.w3.org/1999/xlink" x="0px" y="0px"
	 viewBox="0 0 200 200" style="enable-background:new 0 0 200 200;" xml:space="preserve">
<style type="text/css">
	.st0{fill:#1F2F3D;}
	.st1{fill:#FBFAF9;}
	.st2{fill:#F37769;}
	.st3{fill:#EC8524;}
	.st4{fill:#F8B032;}
	.st5{fill:#F59B28;}
</style>
<g id="venus_00000005965106523873310150000016939449709241061309_">
	<g>
		<g>
			<g>
				<g>
					<g>
						<path class="st0" d="M69.9,105.7c-6.6,0-11.7-4.6-12-10.7c0-0.8-0.4-1-1.1-1.2c-2-0.5-3.5-1.5-4.4-3.4
							c-0.4-0.9-0.5-1.8,0.5-2.3c0.9-0.5,1.6-0.1,2.2,0.7c0.4,0.6,1,1.1,1.8,1.4c1.3,0.5,2.5-0.3,2.5-1.6c0-0.5-0.5-0.5-0.8-0.6
							c-1.7-0.8-2.9-2.1-3.3-3.9c-0.2-0.9-0.2-1.7,0.8-2.2c1-0.4,1.6,0.1,2.1,0.9c0.6,1.1,1.5,1.7,2.6,2.1c0.9,0.3,1.7,0.2,2.5-0.3
							c4.1-2.6,9.2-2.4,13.1,0.4c3.7,2.7,5.5,7.5,4.3,12c-1.1,4.4-4.9,7.8-9.7,8.5C70.6,105.7,70,105.7,69.9,105.7z M72.2,95.4
							c2.2,0,4-1.7,4.1-3.9c0-2.2-1.7-4-3.9-4.1c-2.2-0.1-4.2,1.8-4.2,4S69.9,95.3,72.2,95.4z"/>
					</g>
					<path class="st1" d="M72.2,95.4c-2.2,0-4-1.8-4-4c0-2.1,2-4,4.2-4c2.2,0.1,3.9,1.9,3.9,4.1C76.2,93.7,74.4,95.4,72.2,95.4z"/>
				</g>
			</g>
			<g>
				<g>
					<g>
						<path class="st0" d="M128.9,105.6c-4.7-0.7-8.5-4-9.7-8.5c-1.1-4.5,0.6-9.3,4.3-12c3.9-2.8,9.1-3,13.1-0.4
							c0.8,0.5,1.6,0.6,2.5,0.3c1.2-0.4,2.1-1.1,2.6-2.1c0.5-0.9,1.1-1.4,2.1-0.9c0.9,0.4,1,1.3,0.8,2.2c-0.5,1.8-1.6,3.1-3.3,3.9
							c-0.3,0.1-0.8,0-0.8,0.6c0.1,1.3,1.2,2.1,2.5,1.6c0.7-0.3,1.3-0.7,1.8-1.4c0.5-0.8,1.2-1.2,2.2-0.7c1,0.6,0.9,1.5,0.5,2.3
							c-0.9,1.9-2.4,2.9-4.4,3.4c-0.7,0.2-1,0.3-1.1,1.2c-0.3,6.1-5.3,10.8-12,10.7C130,105.7,129.4,105.7,128.9,105.6z M131.8,91.4
							c0-2.1-2-4-4.2-4c-2.2,0.1-3.9,1.9-3.9,4.1s1.8,3.9,4.1,3.9C130.1,95.3,131.8,93.6,131.8,91.4z"/>
					</g>
					<path class="st1" d="M127.8,95.4c2.2,0,4-1.8,4-4c0-2.1-2-4-4.2-4c-2.2,0.1-3.9,1.9-3.9,4.1C123.8,93.7,125.6,95.4,127.8,95.4z
						"/>
				</g>
			</g>
		</g>
		<g>
			<ellipse class="st2" cx="50" cy="124.1" rx="11.2" ry="4.4"/>
		</g>
		<g>
			<ellipse class="st2" cx="150.7" cy="124.1" rx="11.2" ry="4.4"/>
		</g>
		<g>
			<g>
				<path class="st0" d="M100,114.9c5.9,0,11.2,3.9,12.8,9.6c0.4,1.3-0.4,2.7-1.7,3.1c-1.3,0.4-2.7-0.4-3.1-1.7c-1-3.5-4.3-6-8-6
					s-7,2.5-8,6c-0.4,1.3-1.8,2.1-3.1,1.7c-1.3-0.4-2.1-1.8-1.7-3.1C88.8,118.8,94.1,114.9,100,114.9z"/>
			</g>
		</g>
	</g>
</g>
</svg>
