<?xml version="1.0" encoding="utf-8"?>
<!-- Generator: Adobe Illustrator 27.9.1, SVG Export Plug-In . SVG Version: 6.00 Build 0)  -->
<svg version="1.1" id="Layer_1" xmlns="http://www.w3.org/2000/svg" xmlns:xlink="http://www.w3.org/1999/xlink" x="0px" y="0px"
	 viewBox="0 0 200 200" style="enable-background:new 0 0 200 200;" xml:space="preserve">
<style type="text/css">
	.st0{fill:#67BDC6;}
	.st1{fill:#B1DFE5;}
	.st2{fill:#9DD5DD;}
	.st3{fill:#8FD5DC;}
	.st4{fill:#8BCBD5;}
	.st5{fill:#1F2F3D;}
	.st6{fill:#FFFFFF;}
</style>
<ellipse class="st4" cx="125.9" cy="145.9" rx="13.5" ry="5.5"/>
<ellipse transform="matrix(0.1626 -0.9867 0.9867 0.1626 -96.6911 159.5757)" class="st4" cx="45.7" cy="136.8" rx="5.5" ry="13.5"/>
<ellipse class="st5" cx="82.4" cy="141.6" rx="11.1" ry="14"/>
<g>
	<g>
		<path class="st5" d="M52.6,125.6L52.6,125.6c-6.6,0-12.4-2.9-15.4-7.9c-0.9-1.4-0.4-3.3,1-4.1c1.4-0.9,3.3-0.4,4.1,1
			c1.9,3.1,5.8,5,10.2,5s8.4-1.9,10.2-5c0.9-1.4,2.7-1.9,4.1-1s1.9,2.7,1,4.1C65,122.7,59.3,125.6,52.6,125.6z"/>
	</g>
</g>
<g>
	<g>
		<path class="st5" d="M121.8,132L121.8,132c-6.6,0-12.4-2.9-15.4-7.9c-0.9-1.4-0.4-3.3,1-4.1c1.4-0.9,3.3-0.4,4.1,1
			c1.9,3.1,5.8,5,10.2,5c4.4,0,8.4-1.9,10.2-5c0.9-1.4,2.7-1.9,4.1-1c1.4,0.9,1.9,2.7,1,4.1C134.2,129.1,128.4,132,121.8,132z"/>
	</g>
</g>
<path class="st0" d="M80.5,141.6c-2.2,0-4.2,0.5-6,1.5c0.5,5.4,3.9,9.5,8,9.5c3.4,0,6.3-2.9,7.5-7C87.6,143.1,84.2,141.6,80.5,141.6
	z"/>
</svg>
