<?xml version="1.0" encoding="utf-8"?>
<!-- Generator: Adobe Illustrator 27.9.1, SVG Export Plug-In . SVG Version: 6.00 Build 0)  -->
<svg version="1.1" id="Layer_1" xmlns="http://www.w3.org/2000/svg" xmlns:xlink="http://www.w3.org/1999/xlink" x="0px" y="0px"
	 viewBox="0 0 200 200" style="enable-background:new 0 0 200 200;" xml:space="preserve">
<style type="text/css">
	.st0{fill:#C45234;}
	.st1{fill:#E45E39;}
	.st2{fill:#F37769;}
</style>
<g>
	<circle id="silhouette_00000070821521405331897770000007866257737846821536_" class="st0" cx="100" cy="100" r="100"/>
	<circle class="st1" cx="100" cy="100" r="95"/>
	<g>
		<path class="st0" d="M146.9,35.1c-2.9,5.6,0,13.2,13,13.4s11.7,10.7,27.1,13.3c-4.6-10.5-11.1-20-19-28.1
			c-0.9-0.3-1.7-0.5-2.4-0.9c-3.1-1.4-6.5-2.1-9.9-1.7C152,31.4,148.3,32.4,146.9,35.1z"/>
		<path class="st0" d="M123.4,184.2c-23-3.2-21.9,0.8-18.1-12.7c3.7-13.5-13.4-16.4-28.9-14.4s-24.1-0.9-14.6-8.7
			s11.1-15.1-6.8-19.2c-11.1-2.6-21.6,2.7-28.1,7.1c-3.9,2.6-6.9,6.3-9,10.5l0,0c7.2,12.9,17.4,24,29.6,32.3
			c14.9,10,33,15.9,52.5,15.9c12.5,0,24.4-2.4,35.3-6.8C132.9,186.4,129.1,185,123.4,184.2z"/>
		<path class="st0" d="M45.2,46.1c17.9-5.9,4.6-10,22.8-8.8s15-10.9,26.5-13.5c11.6-2.7,22.5,4.5,25.4-8.9c0.7-3.2,0.5-5.7-0.3-7.8
			C113.4,5.7,106.8,5,100,5c-21.6,0-41.6,7.2-57.6,19.4c-6,4.7-11.4,10-16.1,15.9C27.6,43.9,31.7,50.6,45.2,46.1z"/>
		<path class="st0" d="M21.4,124.4c1.1-14.5,2.7-20.2,15.4-26.7c12.8-6.4,0.5-29.9-20.3-18.7c-4,2.2-7.3,4.6-9.9,7.1
			c-0.7,4.5-1,9.2-1,13.9c0,11.1,1.9,21.7,5.3,31.6C14.9,133.2,20.7,133.8,21.4,124.4z"/>
		<path class="st0" d="M189.9,69.2c-2.4,2.1-4.5,5-5.8,9.1c-6.4,19.1-15.2,12.4-18.6,22.7c-2.6,7.9,12.5,19.6,27.2,19.8
			c1.5-6.7,2.3-13.7,2.3-20.8C195,89.2,193.2,78.8,189.9,69.2z"/>
		<path class="st0" d="M185.3,141.8c-3-1-6.7-1.8-11.5-2.2c-30.2-2.7-35.4,7.3-26.1,17.7c7.1,7.9,13.9,7.1,16,13.2
			C172.6,162.4,180,152.7,185.3,141.8z"/>
	</g>
	<ellipse class="st0" cx="52.1" cy="66.7" rx="6" ry="4.4"/>
	<path class="st0" d="M118.6,41.2c0,0-10.3-1.9-15.2,5.4s0.1,11.9,13,11.7c12.9-0.2,16.7,5.5,23.4,4
		C146.4,60.8,131.3,39.3,118.6,41.2z"/>
	<ellipse transform="matrix(0.3124 -0.95 0.95 0.3124 -60.0849 228.615)" class="st2" cx="127.9" cy="155.8" rx="5.3" ry="7.4"/>
	<circle class="st2" cx="33.7" cy="61.7" r="7.4"/>
	<ellipse class="st2" cx="130.8" cy="176.1" rx="7.4" ry="4.8"/>
</g>
</svg>
