<?xml version="1.0" encoding="utf-8"?>
<!-- Generator: Adobe Illustrator 27.9.1, SVG Export Plug-In . SVG Version: 6.00 Build 0)  -->
<svg version="1.1" id="Layer_1" xmlns="http://www.w3.org/2000/svg" xmlns:xlink="http://www.w3.org/1999/xlink" x="0px" y="0px"
	 viewBox="0 0 200 200" style="enable-background:new 0 0 200 200;" xml:space="preserve">
<style type="text/css">
	.st0{fill:#4167A0;}
	.st1{fill:#4C74B9;}
	.st2{fill:#7DA9DA;}
	.st3{fill:#1F2F3D;}
	.st4{opacity:0.15;fill:#7DA9DA;enable-background:new    ;}
</style>
<g>
	<g>
		<g>
			<path class="st3" d="M51.6,63.9c14.7,1.9,28.5,6.7,41.8,13c5.2,2.5,11,3.5,16.7,3c14.8-1.3,29.4-1,43.9,2.1
				c8.4,1.8,16.7,4.3,25,6.5c1.8,0.4,3.5,0.7,5,1.5c0.8,0.5,1.6,1.8,1.6,2.6c-0.4,3.4-0.9,6.7-1.9,9.9c-0.7,2.3-1.7,4.8-4.7,5.3
				c-0.5,0.1-1,1.1-1.3,1.8c-2,4.4-3.9,8.8-6.1,13.2c-4.4,8.7-11.7,12.8-21.4,13.1c-9.1,0.3-17.9-1.1-26.3-4.4
				c-8.5-3.4-13.6-9.7-15.8-18.4c-1.4-5.2-2.2-10.6-3-16c-0.7-4.5-2.8-6.3-7.4-6c-2.6,0.2-3.5,2.1-4.6,4c-2.6,4.5-5.2,9.1-8.1,13.4
				c-6.4,9.4-15.4,13.1-26.6,12.1c-8.1-0.6-15.8-2.4-23.3-5.6c-9.7-4.2-14.9-11.4-15.3-21.9c-0.1-4.3-0.3-8.5-0.5-12.8
				c0-0.5-0.1-1.1-0.4-1.4c-3-2.1-2.5-5.1-2.4-8.1c0.2-2.8,0.7-5.6,1.1-8.3c0.2-1.9,1.5-2.6,3.3-2.5c5.5,0.4,11.1,0.6,16.5,1.2
				C42.3,62.1,47,63.1,51.6,63.9z"/>
		</g>
	</g>
</g>
<g>
	<path class="st3" d="M92.9,83.6c0,0-6,12.7-11.4,21.4c-0.9,1.5-1.8,2.8-2.8,4c-1.8,2.2-3.9,3.9-7.2,4.8c-2.1,0.6-4.8,1.1-8.1,1
		c-2.3,0-4.9-0.2-8-0.6c-2.1-0.3-4.3-0.7-6.8-1.1c-1.9-0.3-3.7-0.8-5.9-1.3c-2-0.5-3.8-1.1-5.4-1.8c-21.4-9.7-13-43.6-13-43.6
		s1.2-0.8,6.2-0.7c2.5,0,6,0.3,10.9,1c2.1,0.3,4.3,0.7,6.8,1.1c1.7,0.3,3.5,0.6,5.4,1.1c0.9,0.2,1.9,0.3,2.7,0.6
		c3,0.6,6,1.4,8.7,2.2c3,0.8,5.8,1.7,8.3,2.6C86.1,79,92.9,83.6,92.9,83.6z"/>
</g>
<path class="st4" d="M51.7,121.6c-1.9,0-3.8-0.1-6-0.2c-2-0.1-3.9-0.4-5.6-0.8L25.6,78.3c2.5-0.4,6-0.8,10.9-0.9L51.7,121.6z"/>
<path class="st4" d="M63.4,114.9c-2.3,0-4.9-0.2-8-0.6l-7.2-46.2c1.7,0.3,3.5,0.6,5.4,1.1c0.9,0.2,1.9,0.3,2.7,0.6L63.4,114.9z"/>
<path class="st4" d="M142.8,130c-1.9-0.3-3.7-0.8-5.9-1.3c-2-0.5-3.8-1.1-5.4-1.8l-6.8-44.2c2.5,0,6,0.3,10.9,1L142.8,130z"/>
<path class="st4" d="M157.6,131.7c-2.3,0-4.9-0.2-8-0.6l-7.2-46.2c1.7,0.3,3.5,0.6,5.4,1.1c0.9,0.2,1.9,0.3,2.7,0.6L157.6,131.7z"/>
<g>
	<g>
		<path class="st3" d="M87.3,134.3c6,2.8,9.8,8.2,10.7,15.6c0.4,3-1.1,5.1-3.5,5.4c-2.5,0.3-4.3-1.2-4.9-4.1c-1.8-8.4-9-12-16.9-8.4
			c-2.5,1.1-5.1,0.5-6.2-1.5c-1.1-1.9-0.4-4.2,2.1-5.7C74.2,132.2,80.2,131.4,87.3,134.3z"/>
	</g>
</g>
</svg>
