<?xml version="1.0" encoding="utf-8"?>
<!-- Generator: Adobe Illustrator 27.9.1, SVG Export Plug-In . SVG Version: 6.00 Build 0)  -->
<svg version="1.1" id="Layer_1" xmlns="http://www.w3.org/2000/svg" xmlns:xlink="http://www.w3.org/1999/xlink" x="0px" y="0px"
	 viewBox="0 0 200 200" style="enable-background:new 0 0 200 200;" xml:space="preserve">
<style type="text/css">
	.st0{fill:#67BDC6;}
	.st1{fill:#B1DFE5;}
	.st2{fill:#9DD5DD;}
	.st3{fill:#8FD5DC;}
	.st4{fill:#8BCBD5;}
	.st5{fill:#1F2F3D;}
	.st6{fill:#FFFFFF;}
</style>
<circle class="st6" cx="122.4" cy="114.4" r="5.5"/>
<ellipse class="st4" cx="125.9" cy="145.9" rx="13.5" ry="5.5"/>
<ellipse transform="matrix(0.1626 -0.9867 0.9867 0.1626 -96.6911 159.5757)" class="st4" cx="45.7" cy="136.8" rx="5.5" ry="13.5"/>
<circle class="st5" cx="52.5" cy="106" r="19.6"/>
<circle class="st6" cx="42.3" cy="97.7" r="3.5"/>
<circle class="st6" cx="49" cy="107" r="5.5"/>
<circle class="st5" cx="124.3" cy="116.3" r="19.6"/>
<circle class="st6" cx="114.2" cy="108" r="3.5"/>
<circle class="st6" cx="120.9" cy="117.3" r="5.5"/>
<path class="st5" d="M93,144.8l-24.5-6.1c-1.6-0.4-3.2,0.6-3.6,2.2c-0.4,1.6,0.6,3.2,2.2,3.6l24.5,6.1c1.6,0.4,3.2-0.6,3.6-2.2
	C95.6,146.8,94.6,145.2,93,144.8z"/>
</svg>
