<?xml version="1.0" encoding="utf-8"?>
<!-- Generator: Adobe Illustrator 27.9.1, SVG Export Plug-In . SVG Version: 6.00 Build 0)  -->
<svg version="1.1" id="Layer_1" xmlns="http://www.w3.org/2000/svg" xmlns:xlink="http://www.w3.org/1999/xlink" x="0px" y="0px"
	 viewBox="0 0 500 500" style="enable-background:new 0 0 500 500;" xml:space="preserve">
<style type="text/css">
	.st0{fill:#5593CE;}
	.st1{fill:#F58A21;}
	.st2{fill:#FCFBFB;}
	.st3{fill:#FECF3F;}
	.st4{fill:#F37769;}
	.st5{fill:#3E2A15;}
	.st6{fill:#FBBC1F;}
	.st7{fill:#FED653;}
	.st8{fill:#473219;}
	.st9{fill:#F69B84;}
	.st10{fill:#77D1F3;}
	.st11{fill:#61A143;}
	.st12{fill:#84C2EA;}
	.st13{fill:#F59892;}
	.st14{fill:#412F19;}
	.st15{fill:#FCFBFA;}
	.st16{fill:#E45E39;}
	.st17{fill:#C45234;}
	.st18{fill:#C45235;}
	.st19{fill:#F26C57;}
	.st20{fill:#382917;}
	.st21{fill:#FDFCFB;}
	.st22{fill:#EC8524;}
	.st23{fill:#F8B032;}
	.st24{fill:#F59B28;}
	.st25{fill:#F5856B;}
	.st26{fill:#3C2916;}
	.st27{fill:#FBFAF9;}
	.st28{fill:#67BDC6;}
	.st29{fill:#B1DFE5;}
	.st30{fill:#9DD5DD;}
	.st31{fill:#8BCBD5;}
	.st32{fill:#152732;}
	.st33{fill:#215D6B;}
	.st34{fill:#4C74B9;}
	.st35{fill:#7DA9DA;}
	.st36{fill:#121D2B;}
	.st37{fill:#8C9CCF;}
	.st38{fill:#F3F2F3;}
	.st39{fill:#B54C33;}
	.st40{fill:#D67140;}
	.st41{fill:#E88F53;}
	.st42{fill:#F8AD71;}
	.st43{fill:#28201B;}
	.st44{fill:#FCC330;}
	.st45{fill:#FDDC65;}
	.st46{fill:#F7A280;}
	.st47{fill:#4B331B;}
	.st48{fill:#EFD1B6;}
	.st49{fill:#F8E1C7;}
	.st50{fill:#C4A998;}
	.st51{fill:#B8A395;}
	.st52{fill:#8F7A6F;}
	.st53{fill:#162430;}
	.st54{fill:#FFFFFF;}
	.st55{fill:#939696;}
	.st56{fill:#FDFCFC;}
	.st57{fill:#B7B8B8;}
	.st58{fill:#929595;}
	.st59{fill:#F7F5F4;}
	.st60{fill:#939595;}
	.st61{fill:#949697;}
	.st62{fill:#D9D9D9;}
	.st63{fill:#261D12;}
	.st64{fill:#251E14;}
	.st65{fill:#F07F7D;}
	.st66{fill:#F3F1F0;}
	.st67{fill:#F0EEED;}
	.st68{fill:#F58E4E;}
	.st69{fill:#F8AE5E;}
	.st70{fill:#F9E1C0;}
	.st71{fill:#FAC087;}
	.st72{fill:#3C2613;}
	.st73{fill:#FBF9F9;}
</style>
<g>
	<circle id="silhouette_00000125600276324372250620000002207466283338390162_" class="st55" cx="253.9" cy="249" r="249"/>
	<g>
		<g>
			<ellipse class="st56" cx="250" cy="248.4" rx="238.2" ry="235.9"/>
			<g>
				<g>
					<g>
						<path class="st57" d="M376.9,49.5C376.9,49.5,376.9,49.5,376.9,49.5C376.9,49.6,376.9,49.6,376.9,49.5
							C376.9,49.6,376.9,49.5,376.9,49.5z"/>
						<path class="st57" d="M454.2,276.2c-11.6-0.6-22.6-3.3-30.6-12.7c-4.1-4.8-7-10.3-9.4-16.1c-1.6-3.9-3-8-5.1-11.7
							c-3.5-6.4-9.3-10-16.1-12.3c-5.6-1.9-10.5-4.8-13.9-9.6c-5.3-7.5-4.7-15.4-1.6-23.5c0.4-1,1.1-1.9,1-3
							c-8.6-0.3-17.1-0.6-25.7-0.6c-11.3,0-22.6-0.3-33.9-0.5c-7.6-0.1-13-7.6-10.9-14.8c1.9-6.4,5.5-9,13.3-8.4
							c7.4,0.5,14.8,0.3,22.2,0.4c17.7,0.3,35.4,0.4,53.1,0.6c3.5-5.4,3.6-11.1,2.6-17.4c-1.6-9.9,1.5-16.5,12.3-22.5
							c6.3-3.5,13.2-4.8,20.4-5.4c5.9-0.5,11.8,0.5,17.6,0.5c-0.3-0.6-0.6-1.3-1-1.9c-5.8-8.6-11.7-17.1-18.5-24.9
							c-4.8-5.5-9.1-11.3-15.2-15.5c-8,1.6-15.1,5.1-22.1,9.1c-6.1,3.5-12.6,5.3-19.7,5.6c-8.1,0.3-15.8-1-22.9-4.9
							c-9.7-5.3-10.5-16.5-3.8-23.3c5.6-5.6,12.7-7.9,20-9.9c3.2-0.9,6.6-1.5,9.5-3.2c0.2-0.5,0.6-0.7,1.1-0.7
							c1.1-1.8,0.8-2.9-1.2-4.1c-18.9-11.3-38.9-19.9-60.1-25.6c-12.4-3.3-25-5.7-37.8-6.8c-6.3-0.6-12.6-0.7-18.8-1.2
							c-10.4-0.8-20.8,0.1-31.1,0.9c-10.8,0.9-21.5,2.8-32,5.2c-7.9,1.8-15.5,4.5-23.1,7.2c3.5,2.6,7.4,4.4,10.5,7.7
							c9.2,10,7.3,24.4-2.3,32.5c-7.7,6.5-16.7,8.8-26.4,9.7c-4.6,0.5-9.3,0.7-13.8,1.7c-7.5,1.7-14,4.9-19.3,10.7
							c-4.9,5.3-10.1,10.3-17.2,12.5c-8.7,2.7-17.2,2.8-25.3-2.2c-2.9-1.8-4.6-4.7-6.3-7.6c-5.1,4.7-9.3,10.2-13.4,15.7
							c-7.3,9.7-13.7,20-19.6,30.7c-3.3,6-4.9,12.7-8.4,18.9c7,0,13.5,0.1,20,0c14.7-0.4,29.4,0.9,44,1.5c7.9,0.3,15.9,0.2,23.9,0.1
							c2,0,3.8,0.3,5.6,1.1c4.8,1.9,7.5,7.1,6.9,13.2c-0.4,4.6-3.4,7.6-8.5,8.8c-1.4,0.3-2.7,0.4-4.1,0.3c-12.3-0.2-24.7,0.2-37-0.4
							c-10-0.4-20.1-0.1-30.2-0.2c-9.3-0.1-18.6,0.4-28-0.4c-1.3-0.1-1.5,0.6-1.6,1.6c-0.5,3.9-1.5,7.6-2.8,11.3
							c-5.5,15.4-6.9,31.5-7.5,47.7c-0.3,8.7-0.2,17.4,0.3,26c0.7,11.5,2.2,22.8,4.9,34c1.9,7.9,3.8,15.8,7.3,23.2
							c2.2,4.7,2,4.8,7.1,4.6c2.1-5.1,5.1-9.6,8.7-13.7c8.6-9.9,18.9-17.7,30.6-23.7c10-5.1,20.6-7.9,31.9-8.5
							c10.1-0.6,19.8,0.6,29.4,3c7.8,1.9,14.9,5.4,20.9,10.8c12.8,11.6,11.2,29.6-3.4,39.7c-4.3,3-9.2,4.8-13.9,7.1
							c-2.4,1.2-4.6,2.7-6.6,4.3c-3.7,2.9-3.9,11.1-0.6,14.9c2.6,2.9,5.9,4.8,9.2,6.8c5.1,3.1,9.7,6.8,12.5,12.2
							c4.7,9.3,2,20.4-6.2,26.8c-7.9,6.2-17.2,8.6-26.8,10.7c-6.6,1.5-13,4.1-18.2,8.9c-0.7,0.6-1.4,1.1-2.1,1.7
							c0.3,0.4,0.5,0.8,0.8,1.1c13.9,11,28.5,20.9,44.3,28.9c15.1,7.7,30.8,13.8,47.1,18.2c16.7,4.4,33.6,7.3,50.9,7.9
							c6.1,0.2,12.2,0.6,18.3,0.2c7.8-0.5,15.6-0.8,23.4-1.7c14.6-1.7,28.9-5,42.8-9.7c19.3-6.5,38.3-13.6,54.5-26.3
							c5.9-4.7,13-7.8,18.5-13.1c-3-1.3-6.3-0.6-9.3-1.6c-8.8-2.7-15.6-7.6-17.9-17c-0.5-2.2-0.2-4.5-0.2-6.7
							c-5.1-0.5-10.2-0.3-15.3-0.6c-9.1-0.5-18.2,0-27.4-0.5c-9.7-0.5-19.3-0.2-29-0.6c-12.9-0.5-25.7-0.5-38.6-0.7
							c-0.3,0-0.6,0-0.8,0c-4.6-0.6-8.3-2.7-10-7c-1.5-3.9-1.8-8,0.9-11.6c2.6-3.4,6-5,10.4-4.8c10.3,0.5,20.6,0.1,30.9,0.5
							c11,0.4,22.1,1,33.1,1c19.8,0.1,39.6,0.9,59.4,1.3c0.9-2.8,3.6-4,5.6-5.8c8.2-7.2,17.8-10.7,28.6-9.9
							c5.5,0.4,10.5-0.2,15.4-2.4c1.8-0.8,3.6-1.9,5-3.2c6.5-6.1,13.8-9.3,22.8-7c3.6-5.7,6.3-11.8,8.8-17.9
							c3.4-8.5,6.7-17.1,8.8-26.1c-19.1-0.1-38.2-0.7-57.2-0.6c-10.8,0-15.1-8.4-12-17.5c1.6-4.5,6-5.6,10.1-5.6
							c12,0,24.1-0.3,36.1,0.3c9.5,0.5,19,0.2,28.5,0.2c1.6-6.3,2-12.7,2.6-19.2C476.5,275.3,465.4,276.8,454.2,276.2z"/>
					</g>
					<path class="st58" d="M31.5,328c2.1-5.1,5.1-9.6,8.7-13.7c8.6-9.9,18.9-17.7,30.6-23.7c10-5.1,20.6-7.9,31.9-8.5
						c10.1-0.6,19.8,0.6,29.4,3c7.8,1.9,14.9,5.4,20.9,10.8c12.8,11.6,11.2,29.6-3.4,39.7c-4.3,3-9.2,4.8-13.9,7.1
						c-2.4,1.2-4.6,2.7-6.6,4.3c-3.7,2.9-3.9,11.1-0.6,14.9c2.6,2.9,5.9,4.8,9.2,6.8c5.1,3.1,9.7,6.8,12.5,12.2
						c4.7,9.3,2,20.4-6.2,26.8c-7.9,6.2-17.2,8.6-26.8,10.7c-6.6,1.5-13,4.1-18.2,8.9c-0.7,0.6-1.4,1.1-2.1,1.7
						c-3.5-1.8-6.3-4.6-9.1-7.3c-14.7-13.4-27.9-28.1-38.5-45c-4.6-7.4-8.8-15-12.9-22.6c-1.5-2.7-1.4-2.8,1.6-2.8
						c13.2,0,26.3,0.1,39.5,0.1c1.3,0,2.6,0,3.8-0.3c4.7-1,7.6-4.2,8-8.5c0.5-6.3-1.9-11-6.7-13c-3.9-1.7-8.1-1.4-12.2-1.4
						C57.5,327.9,44.5,328,31.5,328z"/>
					<path class="st58" d="M487.2,271.3c-10.6,4-21.7,5.5-33,4.9c-11.6-0.6-22.6-3.3-30.6-12.7c-4.1-4.8-7-10.3-9.4-16.1
						c-1.6-3.9-3-8-5.1-11.7c-3.5-6.4-9.3-10-16.1-12.3c-5.6-1.9-10.5-4.8-13.9-9.6c-5.3-7.5-4.7-15.4-1.6-23.5c0.4-1,1.1-1.9,1-3
						c3.1,0,6.2-0.1,9.3-0.1c10.8,0,21.6,0.1,32.4,0.1c3.8,0,7.5-0.7,9.6-4.2c2.4-4,2.7-8.2,0.4-12.4c-2.3-4.2-5.7-6.4-10.6-6.4
						c-7.7,0-15.4,0.1-23-0.4c3.5-5.4,3.6-11.1,2.6-17.4c-1.6-9.9,1.5-16.5,12.3-22.5c6.3-3.5,13.2-4.8,20.4-5.4
						c5.9-0.5,11.8,0.5,17.6,0.5c5.9,8.5,10.7,17.7,15.2,27c3.5,7.3,6.6,14.7,9.2,22.4c5.8,17.4,10.9,35,12.7,53.4
						C488.2,238.2,489.1,254.8,487.2,271.3z"/>
					<path class="st55" d="M172.7,25.2c3.5,2.6,7.4,4.4,10.5,7.7c9.2,10,7.3,24.4-2.3,32.5c-7.7,6.5-16.7,8.8-26.4,9.7
						c-4.6,0.5-9.3,0.7-13.8,1.7c-7.5,1.7-14,4.9-19.3,10.7c-4.9,5.3-10.1,10.3-17.2,12.5c-8.7,2.7-17.2,2.8-25.3-2.2
						c-2.9-1.8-4.6-4.7-6.3-7.6c0.3-1.4,1.4-2.3,2.3-3.3c20.4-22,44.1-39.5,71.3-52.2c7.3-3.4,14.8-6.6,22.5-9.1
						C170,25.2,171.3,24.9,172.7,25.2z"/>
					<path class="st55" d="M414.8,76.7c-8,1.6-15.1,5.1-22.1,9.1c-6.1,3.5-12.6,5.3-19.7,5.6c-8.1,0.3-15.8-1-22.9-4.9
						c-9.7-5.3-10.5-16.5-3.8-23.3c5.6-5.6,12.7-7.9,20-9.9c3.2-0.9,6.6-1.5,9.5-3.2c0.4-0.2,0.8-0.5,1.2-0.7c0,0,0,0,0,0
						c3.1-1.6,5.4-0.1,7.8,1.7c9.8,7,19.4,14.4,28.1,22.7C413.6,74.7,414.9,75.3,414.8,76.7z"/>
					<path class="st59" d="M479,313.7c-19.1-0.1-38.2-0.7-57.2-0.6c-10.8,0-15.1-8.4-12-17.5c1.6-4.5,6-5.6,10.1-5.6
						c12,0,24.1-0.3,36.1,0.3c9.5,0.5,19,0.2,28.5,0.2C483.5,298.4,481.5,306.1,479,313.7z"/>
					<path class="st58" d="M384,386.1c0.9-2.8,3.6-4,5.6-5.8c8.2-7.2,17.8-10.7,28.6-9.9c5.5,0.4,10.5-0.2,15.4-2.4
						c1.8-0.8,3.6-1.9,5-3.2c6.5-6.1,13.8-9.3,22.8-7c-0.9,4.3-3.7,7.8-5.8,11.6c-3,5.4-6.5,10.5-10.1,15.5
						c-1.3,1.8-2.7,2.8-5.2,2.7C421.6,387,402.8,386.5,384,386.1z"/>
					<path class="st60" d="M397.7,434.4c-3-1.3-6.3-0.6-9.3-1.6c-8.8-2.7-15.6-7.6-17.9-17c-0.5-2.2-0.2-4.5-0.2-6.7
						c10.3-0.4,20.6,0.6,31,0.4c7.6-0.1,15.3,0,23.7,0c-1.9,3.2-4,5-5.7,6.9c-5.6,6.2-11.8,11.8-18.6,16.9
						C399.9,433.9,398.9,434.6,397.7,434.4z"/>
					<path class="st59" d="M296.5,129.9c-8.5,0-17,0.2-25.5,0c-18.8-0.4-37.7-0.1-56.5-0.6c-19.6-0.5-39.1-0.4-58.7-0.3
						c-4.4,0-7.9-2-11.5-3.7c-0.8-0.4-1.3-1.4-1.3-2.3c0-4.4-0.9-9,2.6-12.9c2.2-2.4,4.9-3.9,8.1-4.1c10.9-0.8,21.9-0.9,32.9-0.4
						c14.5,0.6,29,0.3,43.6,0.4c22.6,0.1,45.3,0,67.9,0c10.3,0,20.6,0.2,31,0.6c10.8,0.3,15.2,9.9,12.4,18.4
						c-0.8,2.4-2.8,4.1-5.7,4.4c-8.9,1.1-17.9,0.3-26.8,0.5C304.7,130.1,300.6,130,296.5,129.9C296.5,130,296.5,130,296.5,129.9z"/>
					<path class="st59" d="M396.6,163.8c7.7,0.5,15.4,0.4,23,0.4c4.9,0,8.4,2.2,10.6,6.4c2.3,4.2,1.9,8.5-0.4,12.4
						c-2.1,3.5-5.8,4.2-9.6,4.2c-10.8,0-21.6-0.1-32.4-0.1c-3.1,0-6.2,0.1-9.3,0.1c-8.6-0.3-17.1-0.6-25.7-0.6
						c-11.3,0-22.6-0.3-33.9-0.5c-7.6-0.1-13-7.6-10.9-14.8c1.9-6.4,5.5-9,13.3-8.4c7.4,0.5,14.8,0.3,22.2,0.4
						C361.2,163.4,378.9,163.6,396.6,163.8z"/>
					<path class="st55" d="M86.2,260c-7.9-0.3-15.2-1.7-21.7-6.1c-11.9-8.1-11.9-24.8-3.2-33.2c9.1-8.8,19.5-13.6,32.1-13
						c11.2,0.5,23.7,6.9,27.3,18c3.2,9.9,0.2,19.7-8.3,25.9C104.6,257.5,95.6,259.7,86.2,260z"/>
					<path class="st55" d="M211.1,468.1c-14.9-1.1-29.7-4.2-42.3-13.7c-5.7-4.2-8.3-10.1-6.9-16.9c1.3-6.1,5.7-10.1,11.6-12.3
						c6.6-2.4,13.4-2.5,20.2-1.5c8.6,1.2,17,3.4,24.9,7c5.6,2.6,10.9,5.6,14.9,10.7c5.9,7.5,4.2,18.4-5.2,23.2
						C223.1,467.3,217.9,467.7,211.1,468.1z"/>
					<path class="st61" d="M347.9,349.7c-9.1-3.2-16.7-8.4-20.7-17.3c-3.9-8.5-0.4-17,8.6-20.2c8.3-2.9,16.4-1,24.2,2.4
						c4.4,1.9,8.6,4.3,12.3,7.4c4.7,3.9,8.8,12.3,6,19.2c-2.5,6.2-7.4,9.1-13.5,10.5c-3.6,0.8-7.2,0.8-10.8,0
						C352.1,350.4,349.9,350.3,347.9,349.7z"/>
					<path class="st55" d="M86.2,146.3c-5.3,0.1-9.6-1.1-12.5-5.2c-2.6-3.7-2.2-9.2,0.8-12.6c5.3-6,16.2-6.9,22.3-1.7
						c5.5,4.7,4.4,13.9-2,17.2C91.2,146,89.8,146.3,86.2,146.3z"/>
					<path class="st55" d="M325.7,430.1c2.3-0.2,4.5,0.3,6.5,1.7c6.2,4.7,3.6,10.5-1.4,13.3c-3.9,2.1-7.8,1.5-11.4-0.6
						c-2.9-1.6-4.1-5.3-3.3-8.5c0.8-3.1,3.8-5.5,7.2-5.8C324.1,430,324.9,430.1,325.7,430.1z"/>
					<path class="st61" d="M284.5,66.9c-2.5,0.4-4.6-0.7-6.6-2.1c-2.5-1.7-3.7-5.4-2.9-7.9c0.9-3,4.4-5.9,7.7-6.2
						c4.6-0.5,8.2,1.2,10.9,4.8c2.1,2.8,0.8,8-2.5,9.9C289.1,66.6,286.9,67.2,284.5,66.9z"/>
					<path class="st62" d="M347.9,349.7c2,0.6,4.2,0.7,6,2C351.8,353.1,349.8,352.4,347.9,349.7z"/>
					<path class="st56" d="M376.9,49.5c-0.4,0.2-0.8,0.5-1.2,0.7C376,49.7,376.4,49.6,376.9,49.5z"/>
				</g>
			</g>
		</g>
		<g>
			<path class="st63" d="M290.6,287.9c-0.2,10.5-2.8,20.5-7.4,29.9c-13.2,26.8-47.6,30.9-63.2,6.7c-9-14-13.5-29.9-11.5-47.1
				c1-8.7,3-17.1,7.3-24.8c7.2-13.2,17.9-21.3,33.4-21.6c16.2-0.3,26.9,8.6,34.3,21.9C289.4,263.9,290.8,275.8,290.6,287.9z
				 M248.8,325.6c13.2,0.2,26.2-13.6,26.6-28.1c0.3-10.3-14.2-23.7-25.7-23.8c-12-0.1-26.2,12.2-26.4,22.9
				C222.9,310.9,235.7,325.4,248.8,325.6z"/>
			<path class="st64" d="M395.5,210.1c-0.1,19-15.9,34.7-34.9,34.7c-20.5,0-36.1-15.6-35.9-36c0.2-19.2,16.1-34.8,35.6-34.7
				C380.2,174.1,395.6,189.8,395.5,210.1z M352.2,210.7c6.8-0.1,12.3-5.8,12.4-12.6c0-6.7-5.8-12.4-12.6-12.2
				c-7,0.1-12.8,6.1-12.7,12.9C339.5,205.5,345.2,210.8,352.2,210.7z"/>
			<path class="st64" d="M176.7,208.9c0.1,19.9-15.5,35.7-35.1,35.8c-19.5,0.1-35.7-15.7-35.7-34.7c0-20.3,15.5-36.1,35.4-36.1
				C160.8,174.1,176.6,189.6,176.7,208.9z M133.4,210.7c6.9-0.1,12.4-5.6,12.5-12.4c0-6.6-5.9-12.4-12.6-12.4
				c-6.9,0-12.9,6-12.7,12.9C120.8,205.5,126.5,210.8,133.4,210.7z"/>
			<path class="st65" d="M248.8,325.6c-13-0.2-25.9-14.7-25.6-28.9c0.2-10.7,14.4-23,26.4-22.9c11.6,0.1,26,13.4,25.7,23.8
				C275,312,262,325.7,248.8,325.6z"/>
			<path class="st66" d="M352.2,210.7c-7,0.1-12.8-5.1-12.9-11.9c-0.1-6.9,5.7-12.8,12.7-12.9c6.8-0.1,12.6,5.5,12.6,12.2
				C364.6,204.8,359,210.5,352.2,210.7z"/>
			<path class="st67" d="M133.4,210.7c-7,0.1-12.7-5.2-12.9-12c-0.2-6.8,5.8-12.8,12.7-12.9c6.7,0,12.6,5.8,12.6,12.4
				C145.9,205.1,140.3,210.6,133.4,210.7z"/>
		</g>
	</g>
</g>
</svg>
