<?xml version="1.0" encoding="utf-8"?>
<!-- Generator: Adobe Illustrator 27.9.1, SVG Export Plug-In . SVG Version: 6.00 Build 0)  -->
<svg version="1.1" id="Layer_1" xmlns="http://www.w3.org/2000/svg" xmlns:xlink="http://www.w3.org/1999/xlink" x="0px" y="0px"
	 viewBox="0 0 500 500" style="enable-background:new 0 0 500 500;" xml:space="preserve">
<style type="text/css">
	.st0{fill:#5593CE;}
	.st1{fill:#F58A21;}
	.st2{fill:#FCFBFB;}
	.st3{fill:#FECF3F;}
	.st4{fill:#F37769;}
	.st5{fill:#3E2A15;}
	.st6{fill:#FBBC1F;}
	.st7{fill:#FED653;}
	.st8{fill:#473219;}
	.st9{fill:#F69B84;}
	.st10{fill:#77D1F3;}
	.st11{fill:#61A143;}
	.st12{fill:#84C2EA;}
	.st13{fill:#F59892;}
	.st14{fill:#412F19;}
	.st15{fill:#FCFBFA;}
	.st16{fill:#E45E39;}
	.st17{fill:#C45234;}
	.st18{fill:#C45235;}
	.st19{fill:#F26C57;}
	.st20{fill:#382917;}
	.st21{fill:#FDFCFB;}
	.st22{fill:#EC8524;}
	.st23{fill:#F8B032;}
	.st24{fill:#F59B28;}
	.st25{fill:#F5856B;}
	.st26{fill:#3C2916;}
	.st27{fill:#FBFAF9;}
	.st28{fill:#67BDC6;}
	.st29{fill:#B1DFE5;}
	.st30{fill:#9DD5DD;}
	.st31{fill:#8BCBD5;}
	.st32{fill:#152732;}
	.st33{fill:#215D6B;}
	.st34{fill:#4C74B9;}
	.st35{fill:#7DA9DA;}
	.st36{fill:#121D2B;}
	.st37{fill:#8C9CCF;}
	.st38{fill:#F3F2F3;}
	.st39{fill:#B54C33;}
	.st40{fill:#D67140;}
	.st41{fill:#E88F53;}
	.st42{fill:#F8AD71;}
	.st43{fill:#28201B;}
	.st44{fill:#FCC330;}
	.st45{fill:#FDDC65;}
	.st46{fill:#F7A280;}
	.st47{fill:#4B331B;}
	.st48{fill:#EFD1B6;}
	.st49{fill:#F8E1C7;}
	.st50{fill:#C4A998;}
	.st51{fill:#B8A395;}
	.st52{fill:#8F7A6F;}
	.st53{fill:#162430;}
	.st54{fill:#FFFFFF;}
	.st55{fill:#939696;}
	.st56{fill:#FDFCFC;}
	.st57{fill:#B7B8B8;}
	.st58{fill:#929595;}
	.st59{fill:#F7F5F4;}
	.st60{fill:#939595;}
	.st61{fill:#949697;}
	.st62{fill:#D9D9D9;}
	.st63{fill:#261D12;}
	.st64{fill:#251E14;}
	.st65{fill:#F07F7D;}
	.st66{fill:#F3F1F0;}
	.st67{fill:#F0EEED;}
	.st68{fill:#F58E4E;}
	.st69{fill:#F8AE5E;}
	.st70{fill:#F9E1C0;}
	.st71{fill:#FAC087;}
	.st72{fill:#3C2613;}
	.st73{fill:#FBF9F9;}
</style>
<g>
	<path id="silhouette_00000066506965331377544750000008477938651328991907_" class="st6" d="M491.9,172.3
		c-6.1-6.5-13.8-10.1-22-12.7c-9.3-3-18.9-4.3-28.5-5.9c-29.9-4.9-59.9-9.6-89.8-14.5c-6-1-10.6-3.9-13.2-9.9
		c-1.4-3.2-3-6.4-4.5-9.6c-13.9-29.1-27.3-58.4-43.2-86.4c-5.4-9.5-11.1-18.8-19.6-25.8c-11.6-9.4-26.5-10.1-38.7-1.8
		c-5.7,3.9-10.3,9.1-14.3,14.8c-9.9,14.1-17.3,29.8-25,45.2c-10.4,20.8-19.9,42-29.7,63.1c-2.6,5.6-6.7,9.1-12.6,10
		c-10.7,1.7-21.4,3.2-32.1,4.9c-22.4,3.6-44.9,6.8-67.2,11.4c-10.3,2.1-20.6,4.1-30.2,8.8c-17.1,8.5-24.6,24-20.2,42.3
		c2.4,10.1,7.7,18.7,13.9,26.7c16.9,21.8,35.8,41.7,54.8,61.6c6.9,7.2,13.9,14.5,20.6,21.8c4.4,4.8,6.2,10.8,5.2,17.4
		c-2.4,17.4-4.9,34.9-7.2,52.3c-2.8,20.5-5.8,41-7,61.3c-0.2,10.7,0.8,20.9,4.7,30.4c4.9,11.9,13.1,19.6,25.7,21.5
		c9.3,1.4,18.3-0.6,27-3.7c15-5.4,28.9-13.2,42.9-20.8c19-10.3,37.9-20.8,56.8-31.2c7.2-4,14.3-4.1,21.6-0.4
		c11.2,5.6,22.1,11.8,33.1,17.8c19.7,10.7,39.2,21.6,59.6,30.7c10.3,4.6,20.9,8.4,32.4,8c12.7-0.5,22.4-6.3,28.3-18.4
		c4.5-9.3,5.8-19.3,6-29.5c0.2-16.9-2.2-33.5-4.4-50.1c-2.8-21.9-5.8-43.8-9-65.6c-1.3-9.2,0.9-16.6,7.3-23.1
		c6.9-7.1,13.6-14.4,20.4-21.7c17.1-18.4,34.3-36.7,50-56.6c6.6-8.4,12.7-17.3,15.4-28C502.8,194,501,182.2,491.9,172.3z"/>
	<g>
		<g>
			<path class="st7" d="M491,190c-2-7.9-7-13-13.8-16.6c-7.7-4.1-16.1-5.8-24.5-7.4c-12.3-2.3-24.6-4.5-37-6.3
				c-10.8-1.6-21.7-3.3-32.5-5c-9.9-1.6-19.7-3.5-29.6-4.7c-11.7-1.4-19.8-7.1-24.9-18.4c-6.9-15.4-14.5-30.5-21.8-45.7
				c-7.5-15.7-15.3-31.2-23.8-46.3c-4.8-8.5-9.7-17-17.2-23.5c-7.9-6.9-19.4-7.8-28-2c-6.3,4.3-10.9,10.2-14.9,16.6
				c-10.2,16-18.3,33.1-26.6,50.2c-8.5,17.4-16.6,35-24.7,52.6c-3.8,8.3-9.9,13.5-18.6,15.3c-6.4,1.3-12.9,2-19.3,2.9
				c-7.6,1-15.1,2.4-22.7,3.6c-11,1.7-22,3.3-33,5.1c-10.5,1.8-20.9,3.8-31.3,5.9c-8.6,1.8-17.2,3.8-25,8.5
				c-8.2,5-12.6,12.3-12.4,22.4c0.1,7.8,3.1,14.6,7,20.9c8.2,13.2,18.6,24.5,28.8,36c10.1,11.4,20.7,22.5,31.1,33.7
				c6.2,6.6,12.4,13.2,18.8,19.5c7.8,7.7,11.5,16.8,10,28.2c-1.1,8.5-2.3,17.1-3.5,25.6c-1.4,10.4-3.1,20.8-4.5,31.2
				c-1.4,10.2-2.6,20.5-3.8,30.8c-1.2,11-3,21.9-2.1,33.1c0.6,7.4,1.7,14.6,5.2,21.2c4.4,8.2,11,12.4,19.9,12.8
				c7.3,0.4,14.2-1.5,20.9-4.1c16.7-6.5,32.3-15.3,48-23.9c16.7-9.1,33.3-18.5,50-27.6c7.5-4.1,15.6-5.1,23.8-2.4
				c5.6,1.8,10.8,4.8,15.9,7.6c17.3,9.5,34.6,19.2,52,28.4c10.6,5.6,21.2,11.2,32.2,15.8c7.9,3.3,16,5.8,24.5,6.2
				c2.6,0.1,5.2-0.3,7.7-1c9.2-2.6,13.9-9.6,16.3-18.6c2.2-8.3,2.7-16.7,2.3-25.3c-0.4-7.6-1.1-15.2-1.8-22.8c-0.8-8-2-16-3-24
				c-1.3-9.8-2.5-19.6-3.8-29.4c-1.7-12.1-3.7-24.2-4.7-36.4c-0.5-7.1,1-13.4,4.7-19.4c2.6-4.1,6-7.3,9.2-10.8
				c11.7-12.8,23.7-25.3,35.6-37.9c0.2-0.3,0.5-0.5,0.7-0.8c10-11.4,20.3-22.6,29.5-34.7c4.7-6.1,9.3-12.3,12.2-19.6
				C491.3,203.1,492.7,196.8,491,190z"/>
			<path class="st8" d="M278.1,322.5c-8.1-0.3-17.1-3.1-24.1-10.8c-2.5-2.8-3.7-2.7-6.3,0c-17.8,18.1-47.8,12.8-57.9-9.9
				c-1.9-4.2-3-8.6-3.2-13.2c-0.1-5.5,2.8-9.3,7.3-9.7c4.7-0.4,8,2.2,8.4,7.7c1.1,13.2,9.2,17.5,16.7,18.7c9.5,1.5,19-4.1,23.3-13.7
				c3.1-6.7,7-8.8,12.1-6.6c2.6,1.1,3.9,3.3,5,5.9c4.1,10.3,12.7,15.7,23.1,14.5c9.5-1.1,15.4-7.4,17.4-18.8c1-5.4,4.4-8.3,9.1-7.6
				c4.9,0.7,7.4,4.9,6.7,11C313.6,308.8,298.6,322.4,278.1,322.5z"/>
			<path class="st8" d="M153.6,204.6c14,0,25.4,6,34.4,17c2.4,2.9,4.1,6.2,3.1,10.2c-0.8,3.2-2.8,5.4-5.9,6.2
				c-3.7,0.9-6.5-0.7-8.9-3.7c-10.4-13.2-26.2-15.8-39.4-6.6c-4.1,2.9-7.3,6.6-9.4,11.3c-2.3,5-6.8,6.8-11.2,4.7
				c-3.9-1.9-5.5-6.8-3.7-11.7C118.1,216.7,136.2,204.6,153.6,204.6z"/>
			<path class="st8" d="M402.2,235.1c-0.2,4.1-2,7.2-6,8.1c-4.3,1-7.3-0.7-9.5-4.9c-8-15.2-25.1-20.4-39.6-12.2
				c-3.5,1.9-6.3,4.6-8.7,7.9c-3.6,4.9-8.2,6-12.2,3.1c-3.7-2.8-4.1-7.4-1.2-12.7c8.3-14.8,28.4-22.9,46.4-18.5
				c13.1,3.2,22.5,11.4,29.1,23.4C401.4,231.1,402.3,232.9,402.2,235.1z"/>
			<path class="st9" d="M378.8,288.7c-10.9-6.9-26.1-8.1-39.2-3.2c-7.9,3-12.9,7.4-13.1,12.4c0,6.7,3.6,10.8,9.9,13.8
				c11.8,5.6,29.6,5.5,41.3-1.3C388,304.3,388.6,295,378.8,288.7z"/>
			<path class="st9" d="M166.8,288.7c-10.9-6.9-26.1-8.1-39.2-3.2c-7.9,3-12.9,7.4-13.1,12.4c0,6.7,3.6,10.8,9.9,13.8
				c11.8,5.6,29.6,5.5,41.3-1.3C176,304.3,176.6,295,166.8,288.7z"/>
		</g>
	</g>
</g>
</svg>
