<?xml version="1.0" encoding="utf-8"?>
<!-- Generator: Adobe Illustrator 27.9.1, SVG Export Plug-In . SVG Version: 6.00 Build 0)  -->
<svg version="1.1" id="Layer_1" xmlns="http://www.w3.org/2000/svg" xmlns:xlink="http://www.w3.org/1999/xlink" x="0px" y="0px"
	 viewBox="0 0 200 200" style="enable-background:new 0 0 200 200;" xml:space="preserve">
<style type="text/css">
	.st0{fill:#8BCBD5;}
	.st1{fill:#EC8524;}
	.st2{fill:#FED653;}
	.st3{fill:#1F2F3D;}
	.st4{opacity:0.34;}
	.st5{fill:#F58A21;}
	.st6{fill:#D67140;}
	.st7{fill:#C96E43;}
	.st8{fill:#E88F53;}
	.st9{fill:#B54C33;}
	.st10{fill:#F8AE5E;}
	.st11{fill:#FDFCFB;}
	.st12{fill:#F37769;}
	.st13{fill:#F58E4E;}
	.st14{fill:#F9E1C0;}
	.st15{fill:#FAC087;}
	.st16{fill:#FBF9F9;}
	.st17{fill:#4167A0;}
	.st18{fill:#4C74B9;}
	.st19{fill:#7DA9DA;}
	.st20{opacity:0.15;fill:#7DA9DA;}
	.st21{fill:#67BDC6;}
	.st22{fill:#B1DFE5;}
	.st23{fill:#9DD5DD;}
	.st24{fill:#8FD5DC;}
	.st25{fill:#45A4C1;}
	.st26{fill:#77D1F3;}
	.st27{fill:#4AA146;}
	.st28{fill:#FCFBFA;}
	.st29{fill:#FFFFFF;}
	.st30{fill:#F8B032;}
	.st31{fill:#F59B28;}
	.st32{fill:#FBFAF9;}
	.st33{fill:#C45234;}
	.st34{fill:#E45E39;}
	.st35{fill:#939696;}
	.st36{fill:#B7B8B8;}
	.st37{fill:#F05979;}
	.st38{fill:#B7B8B8;stroke:#121C2B;stroke-width:6;stroke-linecap:round;stroke-linejoin:round;stroke-miterlimit:10;}
	.st39{fill:#FBDE84;}
	.st40{fill:#FDC478;}
	.st41{fill:#D88360;}
</style>
<g id="saturn">
	<g id="silhouette_00000045604605388794502030000003200853432667977380_">
		<path id="silhouette_00000059291564125123745980000007256473140039892125_" class="st13" d="M192,184.2
			c-0.3-19.2-12.3-35.8-22-49.1l-0.8-1.1l0.7-1.1c8.3-13.4,12.5-29,11.8-44.1l0-0.1c0.1-21.7-10.5-42.2-29.1-56.4
			c-14.7-11.1-32.6-17.2-50.5-17.2c-13.7,0-26.8,3.6-37.8,10.4L63,26.2l-1.1-0.8c-19.8-14.6-34.9-22-45-22c-4.2,0-7.5,1.2-10.1,3.8
			C-7.5,21.3,19,60.5,27.5,72.1l0.6,0.8l-0.2,0.9c-2.7,10.2-3,20.9-0.9,30.1l0,0.1l0,0.1c2.7,19.2,13.7,37.3,30,49.8
			c13.7,10.4,30.2,16.1,46.5,16.1c4.5,0,9-0.4,13.3-1.3l0.8-0.2l0.7,0.5c0.9,0.7,2,1.4,3.1,2.2c18.4,13,39.4,26.9,54.4,26.9
			c2.4,0,4.6-0.4,6.5-1.1c3.4-1.3,7.8-4.3,9.6-11.6l0.1-0.5L192,184.2z M48.1,44.5c-0.2,0.2-0.4,0.5-0.6,0.8
			c0.2,0.4,0.4,0.9,0.6,1.4c-0.2-0.5-0.4-0.9-0.6-1.4v0v0c-1.5,1.5-2.7,3.2-3.9,4.8c-0.7,0.9-1.3,1.8-1.9,2.8
			c0.3,0.9,0.7,1.8,1.2,2.7c-0.5-0.8-0.9-1.7-1.2-2.7v0v0c-1-1.1-1.4-2.5-1.9-3.7c-1.3-2.8-2.4-5.7-2.7-8.8
			c-0.5-4.7,2.3-6.5,6.6-5.8c3.7,0.6,7,2.3,10.1,4.2C51.8,40.6,49.9,42.6,48.1,44.5z M153.7,162.4c-2.6-0.4-5-1.4-7.4-2.5
			c-2.1-0.9-4-2.1-6-3.2c0.7-0.6,1.6-0.9,2.2-1.6c1.7-0.8,3-2,4.5-3c3.1-2.3,6.1-4.9,8.8-7.7c0.6,0.3,0.9,1,1.2,1.5
			c1.6,3.2,3,6.5,3.5,10C161.3,161.1,158.5,163.1,153.7,162.4z"/>
	</g>
	<g>
		<path class="st10" d="M164,134.2c-0.6,0.7-1.2,1.5-1.7,2.4c-0.9,1-1.8,2.1-2.5,3.2c-1.4,1.5-2.8,3-4.1,4.7
			c-2.7,2.8-5.6,5.4-8.8,7.7c-1.5,1.1-2.8,2.3-4.5,3c-1.1-0.5-2.4-0.5-3.5-0.5c-0.7,0-1.4-0.5-2.1,0c-3.4-2-6.6-4.3-9.8-6.5
			c-5.3-3.8-10.4-7.9-15.4-12.1c-10.3-8.8-20.1-18.1-29.2-28.1c-8-8.7-15.6-17.6-22.7-27c-5.6-7.4-10.9-14.9-15.5-22.9
			c-1-1.7-2.1-3.3-2.6-5.2c0.6-0.9,1.2-1.9,1.9-2.8c1.2-1.7,2.4-3.4,3.9-4.8c0.5,0.9,0.8,1.8,1.2,2.7c2.1,5,4.5,9.8,7.1,14.5
			c3.9,6.8,8.4,13.1,13.2,19.3c4.6,5.9,9.8,11.4,15.4,16.4c4,3.6,8.2,7,12.5,10.2c2.8,2.1,5.7,4.1,8.7,5.9c3.6,2.2,7.3,4.4,11.2,6.2
			c1,0.5,1.9,1.2,3.1,1.4c0.3,0.2,0.7,0.4,1,0.6c0.2,0.1,0.4,0.3,0.7,0.2l0,0c1.6,0.8,3.2,1.4,4.9,2.1c5.1,2,10.4,3.6,15.8,4.8
			c6.3,1.4,12.7,2.2,19.1,2.3c1.3,0,2.7-0.3,4,0.1C165,132.6,164.5,133.4,164,134.2z"/>
		<g>
			<g>
				<path class="st10" d="M62.9,31.4c-0.5,0.6-1.2,1.1-2,1.3c-0.6-1-1.6-1.3-2.4-2c-3-2.4-6.2-4.5-9.4-6.4c-4.9-3-9.8-5.9-15.3-7.8
					c-3.4-1.2-6.8-2-10.4-1.6c-3.5,0.4-5.8,2.3-6.7,5.7c-0.8,3.1-0.3,6.2,0.5,9.2c1.6,6.1,4.3,11.9,7.2,17.5
					c3,5.7,6.3,11.2,9.8,16.5c3.3,5.1,6.8,10.1,10.5,15c3,4,6,8,9,11.9c3.2,4.1,6.6,8.1,10,12.1c4.7,5.5,9.5,10.9,14.5,16.2
					c2.9,3.1,5.9,6.1,8.8,9.1c4.1,4.1,8.2,8,12.5,11.9c4.6,4.2,9.3,8.3,14.1,12.2c3.1,2.5,6.2,4.9,9.4,7.3c2.9,2.3,6,4.3,9.1,6.4
					c4.1,2.8,8.3,5.5,12.5,8c3.9,2.3,7.9,4.3,12.1,6c4.2,1.8,8.5,3.1,13.1,3.1c5.2,0.1,8.7-2.5,9.2-7.4c0.3-2.6-0.1-5.1-0.7-7.6
					c-1.2-4.8-3.2-9.3-5.3-13.7c-2.3-4.7-5.1-9.3-7.9-13.8c-0.9-1.4-1.6-2.9-2.7-4c0.5-0.9,1.1-1.6,1.7-2.4c1.3,1.4,2.3,3,3.4,4.6
					c5.2,7.2,10.1,14.6,14,22.6c1.7,3.5,3.3,7.2,4.5,10.9c1.2,3.9,2.2,7.9,1.8,12.1c-0.3,3.8-1.9,6.8-5.5,8.4
					c-2.8,1.2-5.7,1.2-8.7,0.7c-4.7-0.7-9.1-2.2-13.5-4c-7.1-2.9-13.7-6.8-20.2-10.7c-3.9-2.3-7.6-4.9-11.2-7.5
					c-3.1-2.2-6.1-4.4-9.1-6.7c-0.3-0.2-0.7-0.4-1-0.6c-0.1-0.5-0.5-0.7-0.8-0.9c-3.2-2.4-6.4-5-9.5-7.6c-1.9-1.6-3.8-3.2-5.8-4.8
					c-0.1-0.1-0.2-0.3-0.3-0.4c-2.3-2.1-4.7-4.2-7-6.3c-3.4-3.1-6.8-6.3-10.1-9.6c-6.1-6-11.9-12.1-17.6-18.4
					c-10.7-11.8-20.4-24.3-29.7-37.2c-1.6-2.2-3.1-4.6-4.9-6.7c-2.3-3.5-4.7-6.9-7-10.4c-4.3-6.6-8.5-13.4-12-20.5
					c-2.7-5.5-5-11.2-6.4-17.2c-0.7-3.1-1-6.2-0.3-9.3c0.7-3.6,3.6-6.2,7.3-6.7c4.4-0.6,8.6,0.4,12.7,1.8c6.6,2.2,12.6,5.8,18.5,9.4
					c3.1,1.9,6.1,4,9,6.1C57.3,27.2,60.1,29.3,62.9,31.4z"/>
				<path class="st7" d="M177.4,88.9c-1.4-0.1-2.8-0.1-4.2-0.3c-4.2-0.4-8.3-1.6-12.2-3.1c-4.1-1.5-8-3.4-11.8-5.6
					c-3.8-2.2-7.5-4.6-11.2-7.2c-6.9-4.9-13.2-10.3-19.1-16.2c-4-4-7.6-8.2-11-12.8c-2.1-2.9-4.2-5.9-5.8-9.1
					c-2-3.9-3.9-7.9-3.8-12.4c0-0.9,0.1-1.8,0.4-2.6c5.2-0.4,10.4-0.1,15.6,0.8c0.1,1.5,0.2,3.1,0.7,4.6c1,2.6,2.3,5.1,3.9,7.4
					c4.3,6.4,9.4,12,15.1,17.2c4.4,4,9.1,7.7,14.1,11c4.4,2.8,9,5.5,13.9,7.3c2.9,1.1,5.9,2,9.1,2.1c1,0,2,0.2,2.9-0.5
					c0.1,0.2,0.3,0.5,0.4,0.7c1.8,5.8,2.8,11.8,3.1,17.9C177.5,88.3,177.6,88.6,177.4,88.9z"/>
				<path class="st7" d="M102.4,150.7c1.9,1.6,3.8,3.2,5.8,4.8c3.1,2.6,6.3,5.1,9.5,7.6c0.3,0.2,0.7,0.4,0.8,0.9
					c-9,1.7-18.1,2.1-27.2,0.6c-10.8-1.8-20.6-5.9-29.5-12.2c-10.5-7.4-18.4-17-24.1-28.5c-2.9-6-5-12.2-6.4-18.7
					c-0.1-0.6-0.4-1.2-0.2-1.9c1,1,1.7,2.2,2.6,3.3c4.3,5.3,9.1,10.2,14.2,14.7c5.3,4.7,10.9,8.9,16.9,12.8c3.3,2.2,6.7,4.3,10.3,6
					c3.3,1.6,6.6,3.3,10.1,4.7c3.7,1.6,7.4,3.1,11.2,4.2C98.4,149.6,100.3,150.4,102.4,150.7z"/>
				<path class="st15" d="M102.4,150.7c-2-0.4-4-1.1-5.9-1.7c-3.8-1.2-7.6-2.7-11.2-4.2c-3.4-1.5-6.7-3.1-10.1-4.7
					c-3.6-1.8-7-3.9-10.3-6c-5.9-3.8-11.6-8.1-16.9-12.8c-5.1-4.5-9.9-9.4-14.2-14.7c-0.9-1.1-1.7-2.3-2.6-3.3c0,0,0,0,0,0
					c-0.1-0.1-0.1-0.2-0.2-0.3c-0.8-3.4-1-7-1.1-10.5c-0.1-4,0.3-8,0.9-12c0-0.3,0.1-0.5,0.2-0.8c0.2,0.1,0.4,0.3,0.5,0.5
					c1.6,2.5,3.1,5.1,4.7,7.6c2.1,3.2,4.3,6.3,6.6,9.3c4.2,5.5,8.7,10.6,13.6,15.4c4.2,4.2,8.6,8.1,13.3,11.8c2.7,2.1,5.4,4.1,8.2,6
					c1.4,1,3,1.7,4.4,2.8c0.8,0.6,1.7,1.2,2.7,1.4c3.3,3.3,6.7,6.5,10.1,9.6c2.3,2.1,4.7,4.2,7,6.3
					C102.2,150.4,102.3,150.6,102.4,150.7z"/>
				<path class="st15" d="M174,69.4c-0.9,0.7-1.9,0.5-2.9,0.5c-3.1-0.1-6.1-1-9.1-2.1c-5-1.8-9.5-4.4-13.9-7.3
					c-5-3.2-9.7-6.9-14.1-11c-5.7-5.2-10.9-10.8-15.1-17.2c-1.6-2.3-2.9-4.8-3.9-7.4c-0.5-1.5-0.6-3-0.7-4.6
					c3.8,0.5,7.5,1.4,11.1,2.6c-0.2,0.7-0.2,1.3,0,2c1,3.7,3.3,6.6,5.7,9.6c3.5,4.3,7.4,8.1,11.6,11.7c3.4,3,7.1,5.6,11,8
					c2,1.3,4.1,2.4,6.3,3.3c2.4,1,4.8,1.9,7.3,2.1c0.8,0.1,1.7,0.2,2.5-0.3c0.9,1.2,1.4,2.6,1.9,3.9C172.7,65.3,173.6,67.2,174,69.4
					z"/>
				<path class="st15" d="M165.5,131.8c-1.3-0.4-2.7-0.1-4-0.1c-6.5-0.1-12.8-0.9-19.1-2.3c-5.4-1.2-10.6-2.8-15.8-4.8
					c-1.6-0.6-3.3-1.3-4.9-2.1c0.2-0.1,0.4,0,0.6,0c2.9,0.3,5.2-2,4.3-5.1c-0.6-2.1-2-3.4-3.7-4.5c2.1-0.5,3.8-1.6,5-3.5
					c0.1,0.4,0.4,0.7,0.8,0.9c2.6,1.2,5.2,2.4,7.9,3.4c2.9,1.1,5.8,2.1,8.8,3c4.9,1.5,9.8,2.6,14.9,3.2c3.3,0.4,6.5,0.7,9.8,0.6
					c0.4,0,0.8,0,1.1,0.2c0,0.8-0.5,1.4-0.8,2.1C169,126.1,167.5,129.1,165.5,131.8z"/>
				<path class="st14" d="M169.8,59.4c-0.8,0.5-1.7,0.4-2.5,0.3c-2.6-0.2-5-1.1-7.3-2.1c-2.2-0.9-4.3-2.1-6.3-3.3
					c-3.8-2.4-7.5-5.1-11-8c-4.2-3.6-8.2-7.4-11.6-11.7c-2.3-2.9-4.6-5.9-5.7-9.6c-0.2-0.7-0.2-1.4,0-2c2,0.3,3.8,1.2,5.7,1.9
					c4.2,1.6,8.3,3.6,12.1,5.9c6.7,4.1,12.6,9.1,17.7,15.1c3.4,4,6.5,8.2,8.7,13C169.7,59,169.8,59.2,169.8,59.4z"/>
				<path class="st7" d="M84.9,134.4c-1.1-0.2-1.9-0.8-2.7-1.4c-1.4-1.1-2.9-1.9-4.4-2.8c-2.8-1.9-5.5-3.9-8.2-6
					c-4.7-3.6-9.1-7.6-13.3-11.8c-4.9-4.8-9.5-9.9-13.6-15.4c-2.3-3-4.5-6.1-6.6-9.3c-1.6-2.5-3.2-5-4.7-7.6
					c-0.1-0.2-0.3-0.4-0.5-0.5c0.4-2.6,0.9-5.1,1.8-7.5c1.8,2.1,3.2,4.5,4.9,6.7c9.3,12.9,19.1,25.4,29.7,37.2
					C73,122.3,78.9,128.4,84.9,134.4z"/>
				<path class="st7" d="M30.9,102.8c0.1,0.1,0.1,0.2,0.2,0.3C30.9,103.1,30.9,103,30.9,102.8z"/>
				<path class="st15" d="M159.8,139.8c0.8-1.1,1.6-2.2,2.5-3.2c1.2,1.2,1.9,2.7,2.7,4c2.8,4.5,5.6,9,7.9,13.8
					c2.2,4.4,4.2,8.9,5.3,13.7c0.6,2.5,1,5,0.7,7.6c-0.5,4.9-4,7.5-9.2,7.4c-4.6-0.1-8.9-1.4-13.1-3.1c-4.2-1.7-8.2-3.7-12.1-6
					c-4.3-2.5-8.4-5.2-12.5-8c-3-2.1-6.1-4.2-9.1-6.4c-3.1-2.4-6.3-4.8-9.4-7.3c-4.8-3.9-9.5-8.1-14.1-12.2
					c-4.3-3.8-8.5-7.8-12.5-11.9c-3-3-5.9-6-8.8-9.1c-5-5.2-9.8-10.6-14.5-16.2c-3.4-4-6.8-8-10-12.1c-3.1-3.9-6-7.9-9-11.9
					c-3.6-4.9-7.1-9.9-10.5-15c-3.5-5.4-6.8-10.9-9.8-16.5c-2.9-5.6-5.6-11.3-7.2-17.5c-0.8-3-1.3-6.1-0.5-9.2
					c0.9-3.4,3.2-5.3,6.7-5.7c3.6-0.4,7,0.5,10.4,1.6c5.4,1.9,10.4,4.8,15.3,7.8c3.2,2,6.4,4.1,9.4,6.4c0.8,0.7,1.9,1,2.4,2
					C60.1,33.6,59,34.3,58,35c-2.2-1.5-4.4-3-6.6-4.5c-2.3-1.5-4.8-2.7-7.3-3.7c-2.9-1.3-5.9-2.3-9.1-2.2c-3.1,0.1-5,1.3-5.9,4.2
					c-0.8,2.7-0.3,5.4,0.4,8c1.1,4.6,3,8.9,5.1,13.1c2.6,5.3,5.6,10.4,8.7,15.5c2.5,4.1,5.3,8,8,11.9c1.4,2.1,2.9,4.1,4.4,6
					c4.5,5.9,9.2,11.8,14.1,17.5c5.9,6.9,12.1,13.6,18.5,20c5.2,5.2,10.5,10.4,16.1,15.2c6.9,6,14,11.9,21.6,17.2
					c4.1,2.9,8.3,5.5,12.5,8.2c1.7,1.1,3.5,2,5.3,2.9c2.5,1.3,5,2.6,7.7,3.6c3.6,1.4,7.2,2.5,11.1,2.5c4.2-0.1,6.8-2.8,6.7-6.9
					c-0.2-4.1-1.5-8-3.1-11.7C164.3,147.6,162.1,143.7,159.8,139.8z"/>
				<path class="st14" d="M179.3,167.8c-1.2-5.1-3.4-9.9-5.4-13.9c-2.6-5.2-5.6-10.2-8-13.9c-0.2-0.4-0.4-0.7-0.7-1.1
					c-0.6-1.1-1.3-2.2-2.2-3.1l-0.1-0.2c-0.2,0.3-0.4,0.6-0.6,0.9c-0.9,1-1.8,2.1-2.5,3.2c-0.2,0.3-0.5,0.5-0.7,0.8
					c2,3.4,4.3,7.4,6,11.7c1.5,3.5,2.9,7.4,3,11.4c0.1,1.7-0.4,3.2-1.4,4.2c-1,1.1-2.5,1.6-4.3,1.7l-0.3,0c-3.8,0-7.3-1.2-10.4-2.4
					c-2.3-0.9-4.5-2-6.6-3.1l-1.4-0.7c-1.6-0.8-3.3-1.7-4.9-2.7l-2.5-1.6c-3.3-2.1-6.7-4.3-10-6.6c-6.5-4.6-13.1-9.8-21.5-17.1
					c-4.9-4.2-10-9-16-15.1c-6.3-6.3-12.5-13.1-18.4-20c-4.4-5.2-9-10.9-14.1-17.4c-1.7-2.2-3.1-4.2-4.4-6l-0.6-0.9
					c-2.5-3.6-5-7.2-7.3-11c-3.7-6-6.4-10.8-8.7-15.4c-2-4-3.9-8.3-5-12.9c-0.6-2.6-1.1-5.1-0.4-7.5c0.7-2.4,2.1-3.4,5-3.5
					c0.2,0,0.4,0,0.6,0c2.8,0,5.6,1,8.1,2.1c2,0.9,4.7,2.1,7.2,3.7c1.5,1,3.1,2,4.6,3.1c0.6,0.4,1.2,0.8,1.8,1.2
					c0.3-0.2,0.5-0.5,0.8-0.7c1-0.8,2-1.4,2.9-2.3c0.3-0.1,0.6-0.2,0.9-0.4l0-0.1c-0.5-0.9-1.3-1.4-1.9-1.8
					c-0.3-0.2-0.5-0.3-0.7-0.5c-2.6-2.1-5.6-4.1-9.5-6.5c-5-3.1-9.9-6-15.5-7.9c-2.5-0.9-5.6-1.8-8.9-1.8c-0.6,0-1.3,0-1.9,0.1
					c-3.9,0.4-6.5,2.6-7.5,6.4c-0.9,3.4-0.3,6.8,0.5,9.7c1.7,6.6,4.6,12.6,7.3,17.7c2.8,5.3,6,10.7,9.8,16.6
					c3.2,4.9,6.7,10,10.5,15.1c3.2,4.3,6.1,8.2,9,12c3.4,4.4,7,8.6,10,12.1c5.1,6,9.9,11.3,14.6,16.2c2.8,3,5.8,6,8.9,9.1
					c3.9,3.9,8.1,7.9,12.5,11.9c4.4,4,9.2,8.2,14.2,12.3c2.5,2,5,4,7.5,5.9l1.9,1.5c2.4,1.9,5,3.6,7.5,5.3l1.6,1.1
					c3.8,2.6,7.9,5.2,12.6,8c3.6,2.1,7.6,4.1,12.2,6.1c5.2,2.2,9.3,3.1,13.4,3.2l0.3,0c5.7,0,9.4-3.1,9.9-8.3
					C180.3,172.7,179.8,169.9,179.3,167.8z"/>
				<path class="st10" d="M177.4,88.9c0.4,4.1,0.1,8.2-0.5,12.2c-0.9,6.4-2.5,12.6-5,18.5c-0.2,0.5-0.4,0.9-0.7,1.4
					c-0.3-0.2-0.7-0.2-1.1-0.2c-3.3,0.1-6.6-0.2-9.8-0.6c-5.1-0.6-10-1.7-14.9-3.2c-3-0.9-5.9-1.9-8.8-3c-2.7-1-5.3-2.3-7.9-3.4
					c-0.4-0.2-0.7-0.4-0.8-0.9c0.1-0.3,0.3-0.7,0.4-1c1.1-2.9,0.2-6.1-2.1-8.1c-2.4-1.9-5.6-2.2-8.3-0.6c-1.3,0.7-2.1,1.9-2.8,3.1
					c-2.7-1.5-5.3-3.1-7.7-4.9c-0.6-0.4-1-0.4-1.5,0.1c0.6-0.8,0.6-1.6-0.3-2.3c-3-2.5-6.1-5-9.1-7.5c-0.6-0.5-1.3-0.8-2.1-0.5
					c-0.8-0.7-1.7-1.3-2.5-2c-2.1-1.9-4.2-3.8-6.3-5.7c0.5-0.4,1-0.7,1.5-1.1c2.5-2.2,3.1-5.9,1.4-8.8C87,67.4,83.4,66,80.2,67
					c-1.8,0.6-3.1,1.8-4.1,3.3c-0.3-0.2-0.7-0.4-1-0.8c-1.4-1.7-2.9-3.4-4.2-5.1c-3.3-4.2-6.3-8.6-9-13.2c-2.2-3.8-4.1-7.7-5.7-11.7
					c-0.3-0.7-0.4-1.4-0.9-1.9c0.9-0.8,1.8-1.6,2.7-2.5c1-0.8,2-1.4,2.9-2.3c0.8-0.2,1.4-0.7,2-1.3c3.5-2.2,7-4.3,10.8-6
					c8-3.5,16.3-5.5,25-5.9c-0.4,0.8-0.4,1.7-0.4,2.6c-0.1,4.5,1.8,8.5,3.8,12.4c1.7,3.2,3.7,6.2,5.8,9.1c3.3,4.5,7,8.8,11,12.8
					c5.9,5.9,12.2,11.4,19.1,16.2c3.6,2.6,7.4,5,11.2,7.2c3.8,2.2,7.7,4.1,11.8,5.6c4,1.5,8,2.7,12.2,3.1
					C174.6,88.7,176,88.8,177.4,88.9z"/>
				<path class="st15" d="M53.7,38.7c0.7-0.2,1-1,1.7-1.2c0.5,0.5,0.7,1.3,0.9,1.9c1.5,4.1,3.4,8,5.7,11.7c2.7,4.6,5.7,9,9,13.2
					c1.4,1.7,2.8,3.4,4.2,5.1c0.3,0.3,0.6,0.5,1,0.8c0,0-0.1,0-0.1,0c-0.1,0.2-0.3,0.4-0.2,0.7c-0.3,0.8-0.5,1.6-0.6,2.5
					c-0.4,0.1-0.5-0.3-0.7-0.5c-1-0.9-1.9-1.7-3.2-2c-1.8-0.4-3.5-0.3-4.6,1.2c-1.1,1.4-1.1,3.1-0.3,4.7c0.8,1.6,2,2.7,3.6,3.5
					c2.2,1,5,0.9,6.2-1.9c0.1-0.2,0.3-0.4,0.4-0.6c2.5,3,5.4,3.7,9.2,2.2c2.1,1.9,4.2,3.8,6.3,5.7c0.8,0.7,1.6,1.4,2.5,2
					c-1.4,1.6-2.6,3.3-3.1,5.4c0,0.3-0.1,0.7-0.1,1c-0.5,3.1,0.9,5.5,3.5,7.1c2.1,1.3,4.5,1.4,6.8,0.2c1.9-0.7,3.2-2,4.4-3.4
					c0.5-0.5,0.9-0.5,1.5-0.1c2.5,1.8,5.1,3.4,7.7,4.9c0,0.1,0,0.2,0,0.3c-1.3,4-0.2,6.9,3.5,9.1c0.1,0.4-0.2,0.4-0.4,0.5
					c-1.7,1-2.3,2.7-1.8,4.6c0.5,2,1.8,3.5,3.6,4.4c-1.2-0.1-2.1-0.9-3.1-1.4c-3.9-1.7-7.6-3.9-11.2-6.2c-3-1.8-5.9-3.8-8.7-5.9
					c-4.3-3.2-8.5-6.6-12.5-10.2C78.9,93.2,73.7,87.8,69,81.8c-4.8-6.1-9.4-12.5-13.2-19.3c-2.7-4.7-5.1-9.5-7.1-14.5
					c-0.4-0.9-0.7-1.9-1.2-2.7c0.2-0.3,0.4-0.6,0.6-0.8C49.9,42.6,51.8,40.6,53.7,38.7z"/>
				<g>
					<path class="st3" d="M118.6,112.4c-3.7-2.2-4.8-5.1-3.5-9.1c0-0.1,0-0.2,0-0.3c0.7-1.2,1.6-2.3,2.8-3.1
						c2.7-1.6,5.9-1.4,8.3,0.6c2.4,1.9,3.2,5.1,2.1,8.1c-0.1,0.4-0.3,0.7-0.4,1c-1.2,1.8-2.9,2.9-5,3.5
						C121.6,112.4,120.1,112.5,118.6,112.4z M122.7,100.6c-1.4-0.8-3-0.3-3.8,1c-0.8,1.4-0.3,3.1,1,3.9c1.4,0.8,3.1,0.3,3.8-1.1
						C124.5,103,124.1,101.4,122.7,100.6z"/>
				</g>
				<g>
					<path class="st3" d="M85.7,80.2c-3.8,1.4-6.6,0.7-9.2-2.2c-0.1-1.6-0.5-3-1.3-4.4c0.1-0.9,0.3-1.7,0.6-2.5
						c0.2-0.2,0.3-0.4,0.2-0.7c0,0,0.1,0,0.1,0c1-1.5,2.3-2.7,4.1-3.3c3.2-1,6.7,0.4,8.4,3.2c1.7,3,1.1,6.6-1.4,8.8
						C86.7,79.5,86.2,79.8,85.7,80.2z M80.7,73.4c1.3,0.7,3,0.3,3.8-1c0.8-1.3,0.3-3.1-1.1-3.9c-1.3-0.7-3-0.3-3.8,1
						C78.9,70.8,79.4,72.6,80.7,73.4z"/>
				</g>
				<g>
					<path class="st3" d="M91.4,93.2c0.5-2.1,1.7-3.8,3.1-5.4c0.8-0.3,1.5,0,2.1,0.5c3,2.5,6.1,5,9.1,7.5c0.9,0.7,0.8,1.4,0.3,2.3
						c-1.3,1.4-2.6,2.8-4.4,3.4c-0.6-3.3-2.4-5.8-5.4-7.4C94.6,93.4,93,93.4,91.4,93.2z"/>
				</g>
				<path class="st7" d="M118.6,112.4c1.5,0,3-0.1,4.3,0.6c1.7,1.1,3.1,2.4,3.7,4.5c0.8,3.1-1.5,5.4-4.3,5.1c-0.2,0-0.4-0.1-0.6,0
					c0,0,0,0,0,0c-0.2-0.1-0.4-0.3-0.7-0.2c-0.3-0.2-0.7-0.4-1-0.6c-1.8-1-3.1-2.4-3.6-4.4c-0.5-1.9,0.2-3.6,1.8-4.6
					C118.4,112.8,118.7,112.8,118.6,112.4z"/>
				<path class="st15" d="M142.5,155.2c-0.6,0.7-1.5,0.9-2.2,1.6c-1.1-0.7-2.3-1.4-3.4-2c0.7-0.5,1.4-0.1,2.1,0
					C140.1,154.7,141.3,154.7,142.5,155.2z"/>
				<path class="st15" d="M121,122.5c0.3-0.1,0.5,0,0.7,0.2C121.5,122.8,121.3,122.6,121,122.5z"/>
				<path class="st7" d="M75.2,73.5c0.8,1.4,1.2,2.8,1.3,4.4c-0.1,0.2-0.3,0.4-0.4,0.6c-1.2,2.8-4.1,2.8-6.2,1.9
					c-1.6-0.7-2.8-1.8-3.6-3.5c-0.8-1.7-0.8-3.3,0.3-4.7c1.2-1.5,2.9-1.6,4.6-1.2c1.3,0.3,2.3,1.1,3.2,2
					C74.7,73.2,74.8,73.6,75.2,73.5z"/>
				<path class="st7" d="M91.4,93.2c1.6,0.2,3.2,0.2,4.7,1c3,1.6,4.8,4.1,5.4,7.4c-2.3,1.2-4.7,1.1-6.8-0.2c-2.6-1.6-3.9-4-3.5-7.1
					C91.3,93.9,91.3,93.6,91.4,93.2z"/>
				<path class="st10" d="M76.1,70.3c0.1,0.3-0.1,0.5-0.2,0.7C75.7,70.7,75.9,70.6,76.1,70.3z"/>
				<path class="st16" d="M122.7,100.6c1.3,0.8,1.8,2.4,1.1,3.8c-0.8,1.4-2.5,1.9-3.8,1.1c-1.3-0.8-1.8-2.5-1-3.9
					C119.7,100.3,121.4,99.9,122.7,100.6z"/>
				<path class="st16" d="M80.7,73.4c-1.4-0.8-1.8-2.5-1.1-3.9c0.8-1.3,2.5-1.8,3.8-1c1.3,0.8,1.9,2.6,1.1,3.9
					C83.8,73.6,82,74.1,80.7,73.4z"/>
			</g>
		</g>
	</g>
</g>
</svg>
