<?xml version="1.0" encoding="utf-8"?>
<!-- Generator: Adobe Illustrator 27.9.1, SVG Export Plug-In . SVG Version: 6.00 Build 0)  -->
<svg version="1.1" id="Layer_1" xmlns="http://www.w3.org/2000/svg" xmlns:xlink="http://www.w3.org/1999/xlink" x="0px" y="0px"
	 viewBox="0 0 200 200" style="enable-background:new 0 0 200 200;" xml:space="preserve">
<style type="text/css">
	.st0{fill:#8BCBD5;}
	.st1{fill:#EC8524;}
	.st2{fill:#FED653;}
	.st3{fill:#1F2F3D;}
	.st4{opacity:0.34;}
	.st5{fill:#F58A21;}
	.st6{fill:#D67140;}
	.st7{fill:#C96E43;}
	.st8{fill:#E88F53;}
	.st9{fill:#B54C33;}
	.st10{fill:#F8AE5E;}
	.st11{fill:#FDFCFB;}
	.st12{fill:#F37769;}
	.st13{fill:#F58E4E;}
	.st14{fill:#F9E1C0;}
	.st15{fill:#FAC087;}
	.st16{fill:#FBF9F9;}
	.st17{fill:#4167A0;}
	.st18{fill:#4C74B9;}
	.st19{fill:#7DA9DA;}
	.st20{opacity:0.15;fill:#7DA9DA;}
	.st21{fill:#67BDC6;}
	.st22{fill:#B1DFE5;}
	.st23{fill:#9DD5DD;}
	.st24{fill:#8FD5DC;}
	.st25{fill:#45A4C1;}
	.st26{fill:#77D1F3;}
	.st27{fill:#4AA146;}
	.st28{fill:#FCFBFA;}
	.st29{fill:#FFFFFF;}
	.st30{fill:#F8B032;}
	.st31{fill:#F59B28;}
	.st32{fill:#FBFAF9;}
	.st33{fill:#C45234;}
	.st34{fill:#E45E39;}
	.st35{fill:#939696;}
	.st36{fill:#B7B8B8;}
	.st37{fill:#F05979;}
	.st38{fill:#B7B8B8;stroke:#121C2B;stroke-width:6;stroke-linecap:round;stroke-linejoin:round;stroke-miterlimit:10;}
	.st39{fill:#FBDE84;}
	.st40{fill:#FDC478;}
	.st41{fill:#D88360;}
</style>
<g id="pluto">
	<circle id="silhouette" class="st7" cx="100" cy="100" r="100"/>
	<g>
		<g>
			<g>
				<circle class="st39" cx="100" cy="99.8" r="95.8"/>
				<path class="st40" d="M4.2,99.8c0,10.9,1.8,21.4,5.2,31.1c0.1-6.7,29.5-18,52.1-8.3c20.3,8.6-7.1,10.6,13.2,18.2
					s42.6-25.5,62.3-29.8c19.7-4.3,20.3-0.7,26.7,12.1c4.2,8.3,14.9,13,25,12.7c4.5-11.1,7-23.3,7-36c0-31.5-15.2-59.5-38.7-76.9
					L89.7,4.5C41.6,9.7,4.2,50.4,4.2,99.8z"/>
				<path class="st40" d="M100,181.4c-35.5,0-66.9-17.1-86.6-43.5c15.4,32.4,48.4,54.8,86.6,54.8s71.2-22.4,86.6-54.8
					C166.9,164.2,135.5,181.4,100,181.4z"/>
				<g>
					<path class="st7" d="M100.5,76.1c0,0,14.2-35.9,50.7-31.9c22.3,2.4,32.8,10.7,37.9,19.7C174.9,28.7,140.4,3.8,100,3.8
						c-53.1,0-96.1,43-96.1,96.1c0,6.7,0.7,13.2,2,19.5c0-0.2,0.2-39.8,26.9-37.7c26.8,2.1,20.6,17.9,43.6,17.5
						C86.6,99.1,93.1,88,100.5,76.1L100.5,76.1z"/>
					<path class="st7" d="M192.3,74C192.3,74,192.3,74,192.3,74C192.3,74,192.3,74,192.3,74z"/>
				</g>
				<g>
					<g>
						<circle class="st3" cx="134" cy="88" r="16.3"/>
					</g>
					<g>
						<circle class="st29" cx="138.6" cy="83.8" r="5"/>
						<circle class="st29" cx="128.7" cy="95.5" r="2.8"/>
					</g>
				</g>
				<g>
					<g>
						<path class="st3" d="M100.5,130.5c-5.9,0.3-11.2-2.3-15.1-7.8c-1.6-2.2-1.3-4.5,0.5-5.7c1.9-1.3,3.9-0.9,5.6,1.1
							c5,5.9,12.3,5.7,17-0.6c1.5-2,3.8-2.6,5.6-1.4c1.7,1.1,2.1,3.2,0.7,5.5C111.7,126.6,107.3,129.8,100.5,130.5z"/>
					</g>
				</g>
				
					<ellipse transform="matrix(0.4549 -0.8905 0.8905 0.4549 -13.8213 227.1326)" class="st7" cx="178.6" cy="124.9" rx="12.9" ry="6"/>
				
					<ellipse transform="matrix(0.7498 -0.6617 0.6617 0.7498 -66.9432 145.1367)" class="st40" cx="158.4" cy="161.1" rx="9.9" ry="6.4"/>
				
					<ellipse transform="matrix(0.7498 -0.6617 0.6617 0.7498 -72.4471 134.1034)" class="st40" cx="141.1" cy="162.8" rx="4.8" ry="3.1"/>
				<ellipse transform="matrix(0.7504 -0.661 0.661 0.7504 -12.8614 40.0797)" class="st41" cx="46.6" cy="37.1" rx="24.5" ry="9"/>
				<ellipse class="st12" cx="64.1" cy="122.9" rx="10.7" ry="5"/>
				<ellipse class="st12" cx="132.3" cy="122.9" rx="10.7" ry="5"/>
			</g>
			
				<ellipse transform="matrix(0.9387 -0.3448 0.3448 0.9387 -41.9168 12.7908)" class="st39" cx="15" cy="124.2" rx="4.5" ry="9.1"/>
			
				<ellipse transform="matrix(0.9387 -0.3448 0.3448 0.9387 -36.7918 13.961)" class="st39" cx="20.9" cy="110.4" rx="2.9" ry="5.9"/>
			
				<ellipse transform="matrix(0.9387 -0.3448 0.3448 0.9387 -43.8691 16.4361)" class="st40" cx="24.3" cy="131.6" rx="2.3" ry="4.7"/>
		</g>
	</g>
</g>
</svg>
