<?xml version="1.0" encoding="utf-8"?>
<!-- Generator: Adobe Illustrator 27.9.1, SVG Export Plug-In . SVG Version: 6.00 Build 0)  -->
<svg version="1.1" id="Layer_1" xmlns="http://www.w3.org/2000/svg" xmlns:xlink="http://www.w3.org/1999/xlink" x="0px" y="0px"
	 viewBox="0 0 200 200" style="enable-background:new 0 0 200 200;" xml:space="preserve">
<style type="text/css">
	.st0{fill:#8BCBD5;}
	.st1{fill:#EC8524;}
	.st2{fill:#FED653;}
	.st3{fill:#1F2F3D;}
	.st4{opacity:0.34;}
	.st5{fill:#F58A21;}
	.st6{fill:#D67140;}
	.st7{fill:#C96E43;}
	.st8{fill:#E88F53;}
	.st9{fill:#B54C33;}
	.st10{fill:#F8AE5E;}
	.st11{fill:#FDFCFB;}
	.st12{fill:#F37769;}
	.st13{fill:#F58E4E;}
	.st14{fill:#F9E1C0;}
	.st15{fill:#FAC087;}
	.st16{fill:#FBF9F9;}
	.st17{fill:#4167A0;}
	.st18{fill:#4C74B9;}
	.st19{fill:#7DA9DA;}
	.st20{opacity:0.15;fill:#7DA9DA;}
	.st21{fill:#67BDC6;}
	.st22{fill:#B1DFE5;}
	.st23{fill:#9DD5DD;}
	.st24{fill:#8FD5DC;}
	.st25{fill:#45A4C1;}
	.st26{fill:#77D1F3;}
	.st27{fill:#4AA146;}
	.st28{fill:#FCFBFA;}
	.st29{fill:#FFFFFF;}
	.st30{fill:#F8B032;}
	.st31{fill:#F59B28;}
	.st32{fill:#FBFAF9;}
	.st33{fill:#C45234;}
	.st34{fill:#E45E39;}
	.st35{fill:#939696;}
	.st36{fill:#B7B8B8;}
	.st37{fill:#F05979;}
	.st38{fill:#B7B8B8;stroke:#121C2B;stroke-width:6;stroke-linecap:round;stroke-linejoin:round;stroke-miterlimit:10;}
	.st39{fill:#FBDE84;}
	.st40{fill:#FDC478;}
	.st41{fill:#D88360;}
</style>
<g id="mercury">
	<circle id="silhouette_00000000906264000097898030000003824536720730880918_" class="st35" cx="100" cy="100" r="100"/>
	<g>
		<circle class="st36" cx="100" cy="100" r="95"/>
		<path class="st35" d="M149,18.6c0.2,0.3,21.9,27.8-5.5,31.5C116,53.8,87,64.5,108.2,85.8s30-4.7,49.8,17
			c11.9,13.1,26.1,14.8,35.5,14c1-5.5,1.5-11.1,1.5-16.8C195,65.4,176.5,35.2,149,18.6z"/>
		<path class="st35" d="M183,53.7l-74.5,7c0,0-17.9,10.6-4.1,28.6s29.5,10.9,55.1,25.7s28.4,21.1,28.4,21.1s0,0,0,0
			c4.6-11.1,7.1-23.3,7.1-36.1C195,83.2,190.6,67.4,183,53.7z"/>
		<g>
			<path class="st35" d="M171.7,143.7c-3.8,3.2,4.7,5.1-12.1,5.8c-16.7,0.7-35.4,9.6-16.1,20.2c5.7,3.1,12.1,5.4,18.4,7.1
				c10.6-9.6,19-21.5,24.4-35C180,141.8,173.5,142.1,171.7,143.7z"/>
			<path class="st35" d="M29.7,36.1c1.8,2.7,4.7,4.6,9.4,4.4c15-0.8-6.9-11.5,23.1-11.6C88,28.8,82.8,14.6,74.4,8.5
				C57,13.4,41.5,23.1,29.7,36.1z"/>
			<path class="st35" d="M43.2,162.7c19.2-4.5,17.6-10.8,9.4-17.9c-8.2-7.1-1.9-8.5,4.8-13c6.6-4.5,10.4-24.9-23.2-16.4
				c-15.7,4-21.1,13.7-22.4,23c4.9,12.3,12.5,23.1,22.1,31.9C35,166.8,37.8,163.9,43.2,162.7z"/>
		</g>
		<g>
			<g>
				<g>
					<path class="st3" d="M96.6,118.1c-6.3,0-12.4-1.4-18.2-4.1c-6-2.8-11.3-6.8-15.8-12c-1.1-1.2-1-3.1,0.3-4.2
						c1.3-1.1,3.1-1,4.2,0.3c4,4.6,8.6,8.1,13.8,10.5c5,2.3,10.3,3.5,15.7,3.5c5.1,0,10-1,14.7-3.1c5.5-2.4,10.6-6.2,14.8-11
						c1.1-1.2,3-1.4,4.2-0.3c1.2,1.1,1.4,3,0.3,4.2c-4.8,5.5-10.6,9.8-16.9,12.5C108.2,116.9,102.5,118.1,96.6,118.1z"/>
				</g>
			</g>
		</g>
		<g>
			<g>
				<g>
					<path class="st3" d="M96.6,119.1c-6.5,0-12.7-1.4-18.7-4.2c-6.1-2.8-11.5-7-16.1-12.3c-1.4-1.7-1.3-4.2,0.4-5.6
						c1.7-1.5,4.2-1.3,5.6,0.4c3.9,4.5,8.4,7.9,13.5,10.3c4.9,2.3,10,3.4,15.3,3.4c4.9,0,9.8-1,14.3-3c5.4-2.3,10.4-6,14.4-10.7
						c1.4-1.7,4-1.8,5.6-0.4c1.7,1.5,1.8,4,0.4,5.6c-4.9,5.6-10.8,10-17.3,12.8C108.5,117.8,102.6,119.1,96.6,119.1z"/>
				</g>
			</g>
		</g>
		<g>
			<path class="st37" d="M115.3,113.2c-1.1,9.3-5.7,15.1-9.9,18.5c-4,3.3-11,3.3-15,0c-4.2-3.5-8.9-9.4-9.9-18.8l2-0.1
				c5.2,2.4,11,3.8,17,3.8C105,116.5,110.3,115.3,115.3,113.2z"/>
			<path class="st3" d="M97.9,138.2c-3.6,0-7.3-1.1-10.1-3.4c-4.5-3.7-10.2-10.5-11.4-21.5c-0.1-1.1,0.2-2.2,0.9-3
				c0.7-0.8,1.7-1.3,2.8-1.4l2-0.1c0.7,0,1.3,0.1,1.9,0.4c4.9,2.3,10,3.4,15.3,3.4c4.9,0,9.8-1,14.3-3c1.3-0.6,2.8-0.4,4,0.5
				c1.2,0.9,1.8,2.3,1.6,3.7c-1.3,10.8-6.9,17.5-11.3,21.1C105.1,137,101.5,138.2,97.9,138.2z M85.7,118.3c1.4,4.1,3.8,7.5,7.2,10.3
				c2.6,2.1,7.4,2.1,9.9,0c3.1-2.6,5.4-5.7,6.8-9.3c-3.4,0.8-6.8,1.2-10.3,1.2C94.7,120.5,90.1,119.7,85.7,118.3z"/>
		</g>
		<g>
			<g>
				<path class="st3" d="M47.2,82.4c-0.4,0-0.9-0.1-1.3-0.2c-2.1-0.7-3.2-3-2.5-5.1c2.5-7.4,8.9-12.7,16.6-13.7
					c7.8-1,15.3,2.4,19.6,8.9c1.2,1.8,0.7,4.3-1.1,5.5c-1.8,1.2-4.3,0.7-5.5-1.1c-2.7-4-7.1-6-11.9-5.4c-4.8,0.6-8.6,3.7-10.1,8.3
					C50.4,81.4,48.9,82.4,47.2,82.4z"/>
			</g>
		</g>
		<g>
			<g>
				<path class="st3" d="M145.1,82.4c-1.7,0-3.2-1.1-3.8-2.7c-1.5-4.6-5.3-7.7-10.1-8.3c-4.8-0.6-9.2,1.4-11.9,5.4
					c-1.2,1.8-3.7,2.3-5.5,1.1c-1.8-1.2-2.3-3.7-1.1-5.5c4.3-6.5,11.9-9.9,19.6-8.9c7.8,1,14.1,6.3,16.6,13.7
					c0.7,2.1-0.4,4.4-2.5,5.1C146,82.4,145.6,82.4,145.1,82.4z"/>
			</g>
		</g>
		
			<ellipse transform="matrix(0.3534 -0.9355 0.9355 0.3534 -118.8144 185.9481)" class="st35" cx="75.1" cy="178.9" rx="7.7" ry="12.5"/>
		
			<ellipse transform="matrix(0.3534 -0.9355 0.9355 0.3534 53.644 129.1628)" class="st35" cx="120.3" cy="25.8" rx="3.8" ry="6.2"/>
		<path class="st35" d="M28.1,56.2c-0.6,0-1.1,0.1-1.6,0.1c4.3,0.7,7.6,4.4,7.6,8.9c0,5-4.1,9.1-9.1,9.1c-3.1,0-5.9-1.6-7.5-4
			c1.3,4.6,5.6,8,10.6,8c6.1,0,11.1-5,11.1-11.1C39.2,61.1,34.3,56.2,28.1,56.2z"/>
		<path class="st35" d="M88.4,30.7c-0.6-0.2-1.1-0.4-1.7-0.5c4,2.3,5.8,7.2,4.1,11.7c-1.9,4.9-7.4,7.4-12.3,5.6
			c-3.1-1.2-5.2-3.7-5.9-6.7c-0.4,5,2.6,9.9,7.5,11.8c6,2.3,12.8-0.8,15.1-6.8C97.5,39.8,94.5,33,88.4,30.7z"/>
		<path class="st35" d="M120,160.2c-0.5-0.2-1-0.3-1.5-0.4c3.6,2.1,5.3,6.5,3.8,10.6c-1.7,4.5-6.7,6.8-11.2,5.1
			c-2.8-1.1-4.7-3.4-5.4-6.1c-0.3,4.6,2.3,9,6.8,10.7c5.5,2.1,11.6-0.7,13.7-6.2C128.3,168.4,125.5,162.3,120,160.2z"/>
	</g>
</g>
</svg>
