<?xml version="1.0" encoding="utf-8"?>
<!-- Generator: Adobe Illustrator 27.9.1, SVG Export Plug-In . SVG Version: 6.00 Build 0)  -->
<svg version="1.1" id="Layer_1" xmlns="http://www.w3.org/2000/svg" xmlns:xlink="http://www.w3.org/1999/xlink" x="0px" y="0px"
	 viewBox="0 0 200 200" style="enable-background:new 0 0 200 200;" xml:space="preserve">
<style type="text/css">
	.st0{fill:#4167A0;}
	.st1{fill:#4C74B9;}
	.st2{fill:#7DA9DA;}
	.st3{fill:#1F2F3D;}
	.st4{opacity:0.15;fill:#7DA9DA;enable-background:new    ;}
</style>
<g id="neptune_00000067202175904940431800000014614906403161016466_">
	<circle id="silhouette_00000129909012644381389180000009624689462567683502_" class="st0" cx="100" cy="100" r="100"/>
	<g>
		<path class="st1" d="M195.4,100c0,14.7-3.3,28.7-9.3,41.1c-1.9,3.9-4.1,7.7-6.4,11.4c-6.6,10-15,18.6-24.7,25.5
			c-0.4,0.3-0.8,0.6-1.2,0.8c-0.8,0.6-1.7,1.2-2.6,1.7c-0.5,0.3-1,0.6-1.5,0.9c-0.9,0.6-1.9,1.1-2.9,1.7
			c-13.8,7.8-29.8,12.3-46.8,12.3c-1.9,0-3.8-0.1-5.6-0.2l0,0c-6.1-0.4-12.1-1.3-17.9-2.8c-16.6-4.2-31.4-12.8-43.3-24.4
			c-0.1-0.1-0.1-0.1-0.2-0.2c-3-2.9-5.8-6.1-8.4-9.4c-0.1-0.2-0.2-0.3-0.3-0.5c-10.2-13.2-17-29.2-19-46.7
			c-0.4-3.7-0.7-7.4-0.7-11.1V100c0-14.1,3.1-27.5,8.6-39.6c1.3-2.9,2.7-5.6,4.3-8.3C34,23.7,64.8,4.6,100,4.6
			C152.7,4.6,195.4,47.3,195.4,100z"/>
		<g>
			<path class="st2" d="M182.1,52.4c-24.2,18.7-57.4,25.5-87.8,24c-27.6-1.6-54.5-9.5-81.1-16c1.3-2.9,2.7-5.6,4.3-8.3
				C82.4,67.3,113.7,63,177,44.2C178.9,46.8,180.7,49.5,182.1,52.4z"/>
			<path class="st2" d="M186.1,141.1c-1.9,3.9-4.1,7.7-6.4,11.4c-18.7,0.5-34.6,11.8-52.9,14.1c-6.8,1-13.6,1.3-20.5,0.9
				c-24.3-2.4-49.4-7.6-73.2,0.4c-3-2.9-5.8-6.1-8.4-9.4c-0.1-0.2-0.2-0.3-0.3-0.5c49.4-21.3,80.3,12.7,132.6-10.4
				C166.1,144.3,176.3,140,186.1,141.1z"/>
			<path class="st2" d="M44.7,116.1c-12.8-3.7-26-7.6-39.4-4.8c-0.4-3.7-0.7-7.4-0.7-11.1c0.2,0,0.3-0.1,0.5-0.1
				c11.9-1.9,23.5,1.2,34.7,5C40.7,109.2,42.1,112.9,44.7,116.1z"/>
			<path class="st2" d="M156,92.8c11.4-7.2,21.3-17.2,34.3-21.5c1,3.1,2,6.3,2.4,9.6c-11.2,3.5-20,11.8-29.8,17.7
				C165,92.7,160.5,92.4,156,92.8z"/>
			<path class="st2" d="M80.7,52.6c-10.9,0.2-34-5-36.6-17.7c0.7-0.5,1.1,0.3,1.5,0.7c9.3,7.3,21.8,8.9,33.2,8.3
				c8.6-0.7,18.6-2.6,24.2-9.8c4.1-5.9-3.4-10.3-8.6-10.3c-5.8-0.4-13.3,0.3-16.8,5.6c-0.2,0.4-0.3,0.9-0.9,0.8
				C76.2,30,76.1,29.5,76,29c-0.3-6.3,6.7-9.5,11.8-10.8C131.8,10.2,125,53.7,80.7,52.6z"/>
			<path class="st2" d="M75.2,37.6c-8.7,3-25.4-4.1-15.9-14.5c5.3-5.7,18.2-10,25.7-9.2c-5.4,2.1-10.7,4.3-14.9,8.3
				C63,28.9,66.6,35.6,75.2,37.6z"/>
		</g>
		<path class="st2" d="M155.5,177.5C155.5,177.5,155.6,177.5,155.5,177.5c-11.5-3.9-24.5-2.3-36.1,0.8
			c-14.4,4.4-27.8,12.3-42.7,14.2c5.7,1.4,11.6,2.3,17.6,2.7l0,0c0.3,0,0.6,0,0.9,0c1.4-0.3,2.8-0.8,4.1-1.5
			c14.2-5.6,29.3-11.3,44.9-9.3l0,0c0,0,0.1,0,0.1-0.1L155.5,177.5z"/>
	</g>
</g>
<path class="st2" d="M39.4,114.6c0,0,44.7,17.1,82.1,6.7s45.1-25.1,45.1-25.1l-5.3-7c0,0-32,27.7-67,26.9s-60.2-12.8-60.2-12.8"/>
</svg>
