<?xml version="1.0" encoding="utf-8"?>
<!-- Generator: Adobe Illustrator 27.9.1, SVG Export Plug-In . SVG Version: 6.00 Build 0)  -->
<svg version="1.1" id="Layer_1" xmlns="http://www.w3.org/2000/svg" xmlns:xlink="http://www.w3.org/1999/xlink" x="0px" y="0px"
	 viewBox="0 0 500 500" style="enable-background:new 0 0 500 500;" xml:space="preserve">
<style type="text/css">
	.st0{fill:#5593CE;}
	.st1{fill:#F58A21;}
	.st2{fill:#FCFBFB;}
	.st3{fill:#FECF3F;}
	.st4{fill:#F37769;}
	.st5{fill:#3E2A15;}
	.st6{fill:#FBBC1F;}
	.st7{fill:#FED653;}
	.st8{fill:#473219;}
	.st9{fill:#F69B84;}
	.st10{fill:#77D1F3;}
	.st11{fill:#61A143;}
	.st12{fill:#84C2EA;}
	.st13{fill:#F59892;}
	.st14{fill:#412F19;}
	.st15{fill:#FCFBFA;}
	.st16{fill:#E45E39;}
	.st17{fill:#C45234;}
	.st18{fill:#C45235;}
	.st19{fill:#F26C57;}
	.st20{fill:#382917;}
	.st21{fill:#FDFCFB;}
	.st22{fill:#EC8524;}
	.st23{fill:#F8B032;}
	.st24{fill:#F59B28;}
	.st25{fill:#F5856B;}
	.st26{fill:#3C2916;}
	.st27{fill:#FBFAF9;}
	.st28{fill:#67BDC6;}
	.st29{fill:#B1DFE5;}
	.st30{fill:#9DD5DD;}
	.st31{fill:#8BCBD5;}
	.st32{fill:#152732;}
	.st33{fill:#215D6B;}
	.st34{fill:#4C74B9;}
	.st35{fill:#7DA9DA;}
	.st36{fill:#121D2B;}
	.st37{fill:#8C9CCF;}
	.st38{fill:#F3F2F3;}
	.st39{fill:#B54C33;}
	.st40{fill:#D67140;}
	.st41{fill:#E88F53;}
	.st42{fill:#F8AD71;}
	.st43{fill:#28201B;}
	.st44{fill:#FCC330;}
	.st45{fill:#FDDC65;}
	.st46{fill:#F7A280;}
	.st47{fill:#4B331B;}
	.st48{fill:#EFD1B6;}
	.st49{fill:#F8E1C7;}
	.st50{fill:#C4A998;}
	.st51{fill:#B8A395;}
	.st52{fill:#8F7A6F;}
	.st53{fill:#162430;}
	.st54{fill:#FFFFFF;}
	.st55{fill:#939696;}
	.st56{fill:#FDFCFC;}
	.st57{fill:#B7B8B8;}
	.st58{fill:#929595;}
	.st59{fill:#F7F5F4;}
	.st60{fill:#939595;}
	.st61{fill:#949697;}
	.st62{fill:#D9D9D9;}
	.st63{fill:#261D12;}
	.st64{fill:#251E14;}
	.st65{fill:#F07F7D;}
	.st66{fill:#F3F1F0;}
	.st67{fill:#F0EEED;}
	.st68{fill:#F58E4E;}
	.st69{fill:#F8AE5E;}
	.st70{fill:#F9E1C0;}
	.st71{fill:#FAC087;}
	.st72{fill:#3C2613;}
	.st73{fill:#FBF9F9;}
</style>
<g>
	<g>
		<path class="st16" d="M463.3,286.6c-14.7-1.5-28.4-5.9-38.4-17.7c-9.8-11.5-8.7-25.7,3.6-35.1c2.5-1.9,5.4-3.3,8.2-4.9
			c6.4-3.7,11.3-8.5,11.6-16.6c0.1-3.1-0.3-6.2-0.7-9.2c-2.1-13.2,3-23.2,13.4-30.8c4.4-3.2,9.1-5.8,14.7-6.4
			c-1.4-4.9-3.5-9.6-5.6-14.3c-4.7-10.3-9.7-20.5-16-29.9c-3.2,7.8-9.7,11.1-17.5,11.7c-10.7,0.8-19.7-3-27.2-10.7
			c-6.2-6.4-14-9.6-22.9-10.7c-8.2-1-16.5-2.1-23.6-7.1c-10.6-7.4-10.8-18.4-0.4-25.1c6.3-4.1,13.6-4.9,21.2-4.2
			c11.2,1,21.3,4.9,30.9,10.3c4.5,2.5,9.3,4.3,14.2,5.9c1.2,0.4,2.4,0.6,3.7,0.4c-2.5-3.4-5.4-6.3-8.3-9.3
			C391.5,49.4,352.5,26.8,307,15.6c-10.8-2.7-21.7-4.7-32.8-5.4c1.5,2.4,4,3.9,5.9,6c8.4,9.5,6.5,21.8-4.4,28.2
			c-5.8,3.4-12,5.1-18.6,5.8c-9.5,1.1-19.1,1-28.7,1.1c-9.8,0.1-18.4,3-25.1,10.7c-2.5,2.8-3.8,6.4-6.1,9.3
			c-5.8,7.7-13.7,12.2-22.8,14.6c-10.9,2.9-22.1,2.9-33.2,2.7c-13,0.2-24.5,4.1-34.9,12.1c-9.6,7.4-20.6,11.5-32.9,10.2
			c-5.2-0.5-10-2.4-12.8-7.4c-0.3-0.6-0.7-1-1.3-1.2c-8.4,10.4-15.5,21.7-21.8,33.5C25.8,158,17.6,181.4,13,206
			c2.6-0.4,4.2-2.5,6.2-3.8c7.5-4.8,15.6-8.3,24.4-9.2c13-1.4,25.3,0.7,34.3,11.5c6.2,7.4,7.2,16,4.4,25
			c-2.6,8.5-7.9,15.3-14.5,21.2c-6.2,5.7-14.1,9.3-19.9,15.4c-6.3,6.6-9.8,14.4-10.8,23.5c-0.3,3-0.1,6,0,9
			c0.3,10.9-3.7,19.9-12.8,26.3c-0.9,0.6-2.1,0.9-3.1,1.4c3.2,10.2,7.2,20,12.1,29.4c5.1-1.9,9.5-5.2,14.1-8
			c13.3-8,27.1-14.7,42.2-18.5c5.4-1.3,10.9-2.1,16.5-2.6c8.8-0.8,17.4-0.1,25.7,2.4c8.5,2.5,16.2,6.3,20.3,15
			c2.7,5.8,1.7,13.9-2.6,18.7c-3.2,3.5-6.9,6.3-11,8.8c-3.9,2.3-7.6,4.9-9.5,9.3c-2.5,5.7-0.5,11.3,5,14.1c3.8,1.9,7.8,2.8,12,2.9
			c6.4,0,12.8,0.3,19.2-0.1c5.1-0.3,10.1-0.7,15.1-0.4c12.4,0.7,25,0.4,37.2,3.2c8,1.8,15.7,4.7,21.3,11.2c0.8,1,1.7,1.8,1.8,3.2
			c1.5,1.2,2.1,2.9,2.1,4.8c0.6,0.4,0.5,1,0.5,1.6c0,0.2,0,0.4,0,0.5c0.9,0.9,0.4,2.1,0.5,3.2c1.1,3.9-0.2,7.7-0.8,11.4
			c-0.5,2.8-1.2,5.5-0.3,8.3c-0.1,2.7,2.2,4.5,2.7,6.9c2.5,2.1,5,4.3,7.5,6.4c5,2.6,10.1,5,15.5,6.9c1.3,0.1,2.6,0.4,3.7,1.1
			c0.4,0,0.7,0,1.1,0c7.4,1.6,15,0.6,22.4,2.1c8.4,1.7,14.9,5.6,17.1,14.5c0.4-0.1,0.9-0.1,1.3-0.2c15.1-4,29.5-9.6,43.5-16.5
			c14.4-7.2,28.1-15.6,40.7-25.7c-0.3-2.2,0.4-4.4,0.4-6.6c0-11.3-5.1-19.6-14.7-25.4c-5.5-3.3-11.4-5.8-16.3-10
			c-7-6-11.2-13.3-10-22.8c0.5-3.7,2.2-7.1,4.7-10c7.3-8.6,17.1-12.3,27.8-14.1c12-2.1,23.9-1,35.2,3.4
			c10.5,4.1,19.6,10.3,25.5,20.4c0.8,1.4,1.6,2.9,2.9,4.1c0.4-0.5,0.8-1,1.1-1.5c11.3-18,20.3-37.1,26.3-57.5
			c3.5-11.8,6.2-23.9,7.6-36.2C480.5,286.8,471.9,287.5,463.3,286.6z"/>
		<path class="st17" d="M33.3,355.6c5.1-1.9,9.5-5.2,14.1-8c13.3-8,27.1-14.7,42.2-18.5c5.4-1.3,10.9-2.1,16.5-2.6
			c8.8-0.8,17.4-0.1,25.7,2.4c8.5,2.5,16.2,6.3,20.3,15c2.7,5.8,1.7,13.9-2.6,18.7c-3.2,3.5-6.9,6.3-11,8.8
			c-3.9,2.3-7.6,4.9-9.5,9.3c-2.5,5.7-0.5,11.3,5,14.1c3.8,1.9,7.8,2.8,12,2.9c6.4,0,12.8,0.3,19.2-0.1c5.1-0.3,10.1-0.7,15.1-0.4
			c12.4,0.7,25,0.4,37.2,3.2c8,1.8,15.7,4.7,21.3,11.2c0.8,1,1.7,1.8,1.8,3.2c-4.2,1.2-4.7,1.9-3.8,5.5c0.2,0.8,0.4,1.8,1.5,1.9
			c1.1,0.2,1.9-0.2,2.5-1.1c0.5-0.7,0.9-1.6,1.9-1.5c0.6,0.4,0.5,1,0.5,1.6c-0.2,0.1-0.5,0.2-0.7,0.3c0.2,0.1,0.5,0.2,0.7,0.2
			c0.9,0.9,0.4,2.1,0.5,3.2c-1.5-0.5-3.1-1-3.6,1.2c-0.4,1.5-0.8,1.4-1.9,0.7c-1-0.6-2.4-0.6-2.6-2.2c-0.1-0.8-0.9-0.8-1.5-0.6
			c-0.6,0.2-1,0.7-0.9,1.4c0.8,3.7,2.9,6.8,4.8,10c1,1.7,0.7,2.5,0.2,3.9c-0.8,2-2.9,3.6-2.2,6.3c0.2,0.7-0.3,1.9-1.7,1.9
			c-0.9,0-1.4,0.4-1,1.3c0.4,0.9,1.1,0.7,1.7,0.1c0.8-0.8,1.6-1.2,2.3,0.1c0.4,0.7,1,0.7,1.6,0.2c0.7-0.5,0.4-1.1-0.2-1.5
			c-1.2-0.9-0.7-1.5,0.4-1.8c1.2-0.3,2.2-1.3,3.5-1.1c-0.1,2.7,2.2,4.5,2.7,6.9c-0.9,0-1.6,0.8-2.6,0.3c-0.7-0.3-1.6-0.7-2.1,0.2
			c-0.4,0.8,0.5,1.2,0.8,1.8c1,1.8,3.7,2.5,4.1,4.1c1,3.7,3.9,0.9,5.7,2.2c0.9,0.7,0.5-1.8,1.5-2.3c5,2.6,10.1,5,15.5,6.9
			c0.1,0.9-0.3,2.2,0.9,2.4c1,0.2,2.3-0.1,2.8-1.4c0.4,0,0.7,0,1.1,0c0.1,1.4,1,2.4,2,3.4c0.5,0.5,0.8,1,0.5,1.7
			c-0.3,0.7-0.8,0.8-1.5,0.5c-0.8-0.4-1.3,0-1.6,0.8c-0.3,1-1.2,1.4-2.1,2c-0.4,0.2-0.7,0.7-1.2,0.4c-0.6-0.3-0.5-1-0.3-1.4
			c0.8-1.6-0.1-3-0.8-4.3c-1-1.7-2.8-1.6-3.7,0.1c-0.6,1.1-1.6,1.5-2.7,2.1c-1.4,0.8-2.6,1.7-0.3,2.9c0.9,0.5,1.1,1.3,0.5,2.2
			c-1.5-1.3-3.5,2.2-5.1-0.8c-1.1-1.9-4.3-2.1-5-0.7c-1.3,2.5-1.3,2.5-3.1-0.1c-0.1-0.2-0.3-0.5-0.5-0.6c-2.1-0.7-2.1-2-0.8-3.8
			c-1.9,0-3.1-0.4-3.9-2c-0.3-0.6-1.2-1.2-2.2-1.2c-3.8-0.1-3.8-0.1-3.2-4.1c0.1-0.4-2.6-5-2.9-5c-0.3,0-0.7,0-1,0.2
			c-1.4,0.9-1.1,5.5,0.5,6c2,0.7,1.5,1.8,0.6,2.8c-1.8,1.9-5,2.1-7.2,0.7c-0.6-0.4-1-0.7-1.6-0.2c-1.6,1.3-1.9,0.1-2.3-1.1
			c-0.4-1.3-0.3-2.5,0.6-3.7c1.1-1.6,0.4-3.4-0.3-5c-0.6-1.4-1.9-0.6-3.1-0.4c-0.8,0.2-1.6,0.1-2.4,0.1c-0.5,0-0.9-0.3-0.8-0.8
			c0-0.4,0.3-0.7,0.7-0.7c3.3,0.1,2.8-2.6,2.7-4.3c-0.2-3.3,1-6,2.8-8.5c0.5-0.7,1.2-1.3,1.2-2.7c0.1-0.2-0.1,0-0.1,0.2
			c-0.1,0.6,0.3,0,0.4,0.1c0.1-0.2,0.2-0.4,0.3-0.5c-0.1-0.1-0.3-0.1-0.6,0.2c-2.4,1.2-4.6,0.4-6.9,0.7c-1.4,0.2-3.7-0.9-3.7-3
			c0-2.7-0.2-3.2-2.8-2.5c-1.8,0.5-2.5,0.1-3.3-1.5c-1.3-2.6-4.5-2.8-6.3-0.6c-0.5,0.7-0.5,1.2-0.1,1.9c0.6,0.8,1.2,0.5,1.8,0.1
			c1-0.7,1.9-1.5,3.7-0.6c-1.5,0.8-2.1,1.9-2.6,3.2c-0.9,1.9-1.1,3.2,1.6,3.3c1.1,0,2.1,1,1.8,1.9c-0.7,2.2,0.6,2.2,2.2,2.1
			c-2.1,3-2.1,3.1,0.8,4.5c0.9,0.4,1,1,0.4,1.6c-0.6,0.7-1.2,1.4-1.9,1.8c-0.8,0.5-2,0.5-1.9,1.9c0.1,1.3,0.7,2.1,2.1,2.3
			c0.7,0.1,1.1,0.7,0.9,1.4c-0.1,0.6-0.5,0.8-1,1.1c-2.5,1.3-5.4,0.2-7.1-0.7c-2.2-1.1-2.2,0.5-2.9,1c-1,0.9-0.7,1.9,0.4,2.9
			c2.3,2.1,6.4,1.9,7.4,5.6c0,0,0.2,0.1,0.2,0.1c3.9-1.3,2.4,1.2,2.1,3c-0.1,0.4,0.6,0.8,0.8,1.3c0.3,0.5,0.1,1.1-0.4,1.4
			c-0.2,0.1-0.9,0.1-0.9,0c-0.9-2.1-2.8-2.7-4.7-3.5c-0.6-0.2-0.7-0.9-0.7-1.6c0.1-2.1-1.3-3.3-3-2.3c-1.5,0.9-3.1,0.6-4.5,1.2
			c-1.5,0.5-2,0.1-2.2-1.5c-0.3-2.6-1.7-4-4.6-3.7c-1.4,0.2-3,1.2-4,0.8c-2.1-0.8-3.1-0.3-4.1,1.4c-0.3,0.6-1.1,0.6-1.7,0.3
			c-0.5-0.2-0.5-0.7-0.4-1.1c0.2-0.8,0.7-1.7-0.6-1.8c-0.8-0.1-1.8-0.9-2.5-0.2c-0.7,0.7,0.2,1.4,0.5,2.2c0.3,0.8,0.6,1.7,0.8,2.5
			c0.6,2-0.8,3.9-2.9,3.9c-1.7,0.1-3-0.8-4.5-1.4c-1.3-0.6-2.4-1.4-2.1-2.7c0.4-1.6,1.6,0,2.5-0.2c0.5-0.1,1-0.3,1.5-0.5
			c0.5-0.2,1-0.5,1-1.1c0-0.6-0.5-0.9-1.1-1c-2.6-0.2-3.5-1.6-2.5-4.9c-1.1,1.2-1.2,2.2-2.3,2.2c-2.3-0.1-4.1,2.6-6.7,1.1
			c-0.6-0.3-1,0.4-1.2,1.1c-0.6,2.1-2.5,1.7-4,1.8c-1.5,0-2.9-0.5-3.4-2.4c-0.4-1.4-0.9-2.9-2.7-3.2c-0.9-0.2-0.8-0.5-0.5-1.3
			c0.6-1.8-0.3-2.8-2.2-2.2c-1.3,0.4-2.5,0.3-3.6-0.3c-3-1.7-5.8-3.6-9-5c-0.9-0.4-0.7-1.2-0.2-2c1-1.6,2.3-2.8,3.9-4
			c2.2-1.6,4.2-3,6.8-1c0.7,0.6,1.7,0.4,2.6,0.1c0.5-0.2,1.2-0.5,1.5,0c1.1,2,3.8,0.2,5,2.1c0.2,0.2,1.9,0,2.1-1.1
			c0.2-1,0.5-1.8,0.9-2.7c0.5-1.1-0.2-1.6-1.2-1.8c-2.1-0.6-3.5-4.8-1.8-6.2c1.7-1.4,1.1-2-0.2-3c-1.3-1-3.1-1.4-3.1-3.8
			c0-1.3-1.2-0.6-2-0.1c-0.9,0.7-0.9,2.2-2.7,2.8c0.9-3.7,3.3-7.1,0-10.3c-0.8,1.3-1.2,2.5-0.7,4c0.3,0.7,0.5,1.5-0.2,1.9
			c-0.7,0.4-1.5,0.1-2.3-0.1c-0.9-0.3-0.7-1.4-1.7-1.6c-0.2,0.7-0.4,1.3-0.7,1.9c-0.3,0.6-0.8,1.2-1,1.9c-1.1,2.6-3.2,2.9-5.3,0.9
			c-1-1-2-2.7-3.7-1.1c-1.1,1.1-2.3,1.4-3.8,1.6c-1.3,0.1-2.7,0.6-3.6,1.4c-0.6,0.6,0.7,1.6,1.1,2.5c0.2,0.5,0.3,1.1-0.1,1.5
			c-0.5,0.5-1.2,0.4-1.7,0c-0.6-0.5-1-1.2-1.6-1.8c-0.6-0.7-1.1-0.1-1.5,0.3c-0.6,0.5-0.6,0.8,0.1,1.3c1.8,1.4,1.5,2.3-0.4,3.4
			c-2.7,1.5-6.1-0.5-8.6,1.8c-0.1,0.1-0.4,0-0.5-0.1c-1.6-0.9-3.6-1.2-4.8-2.8c-0.9-1.1-1.9-1.6-3.2-1.3c-1.5,0.3-1.4,1.6-1.6,2.7
			c-9.2-6.9-17.6-14.7-25.4-23c-16.4-17.3-30-36.6-40.8-57.9C34,357.3,33.7,356.4,33.3,355.6z M202.5,430.6c0.9-0.5,1.9-0.4,2.1-1.6
			c-1-0.1-1.6,0.2-2,1.8c0.2-0.5,0.1-0.5-0.1-0.4c-0.2,0.1-0.5,0.2-0.5,0.4c-0.1,0.3,0.1,0.5,0.4,0.4
			C202.5,431,202.6,430.8,202.5,430.6z M238.8,457.4c-0.2-0.1-0.4-0.3-0.6-0.3c-0.6-0.1,0,0.3-0.1,0.4c0.2,0.1,0.4,0.2,0.5,0.3
			c0.1-0.1,0.1-0.3-2.2-0.6c0.4-0.5,1.5,0.3,1.5-0.8c0-1-0.7-1.1-1.5-1.1c-0.7,0-1.2,0.4-1.1,1.1
			C235.3,457.3,235.7,457.5,238.8,457.4z M228.9,455.1c-2-0.1-2.7,0.8-2,2.8c0.3,0.7,0.3,1.4-0.1,2c-1.3,2.2,0.9,2.8,1.9,3.2
			c1.8,0.7,1.5-0.9,1.4-2c0-0.6,0.5-1.1,0.7-1.7C231.2,458.2,229.8,455.2,228.9,455.1z M193.1,433.8c1.7,1.2,1.5,2.6,2,3.8
			c0.3,0.7,1.2,1.6,0,2.2c-0.6,0.3-1.1,0.7-0.7,1.4c0.3,0.6,0.9,0.8,1.5,0.8c0.7,0,1.3-0.4,1.3-1.1c0-1.3,0.6-2.1,1.8-2.5
			c0.5-0.2,1.1-0.7,0.7-1.5c-0.3-0.7-0.9-0.6-1.6-0.4c-1.5,0.5-2.6,0-3-1.6C195.1,434.3,194.9,433.7,193.1,433.8z M161.6,438.3
			c1.1,0.9,1.5,1.9,1.7,3.1c0.2,1.3,1.3,1.3,2.3,1.2c0.8,0,1.7-0.2,1.8-1.2c0.1-1.3-1.1-0.8-1.7-1.1c-0.6-0.4-1.1-0.9-1.4-1.5
			C163.7,437.9,163,437.6,161.6,438.3z M227,438.2c0.6,0.1,1.4,0.4,1.6-0.3c0.2-0.8-0.5-1.3-1.2-1.5c-1.3-0.3-2.6-0.3-3.8,0.3
			c-0.8,0.4-1.2,1-0.7,1.9c0.6,1,1.4,1.1,2.1,0.3C225.6,438.3,226,437.7,227,438.2z M219,429.3c-0.7,0.1-1.7-0.2-1.8,1
			c-0.1,1.4,1,1.8,2,2.1c0.9,0.3,1.5-0.3,1.6-1.3C220.9,429.8,220.2,429.3,219,429.3z M155.2,428.4c0.1-1.2,0.1-2.3-1.2-2.6
			c-0.8-0.2-1,0.5-0.7,0.9c0.7,1.1-0.3,3,1.4,3.3C155.4,430.2,155,428.9,155.2,428.4z M201.2,456.3c1.1-0.3,1-1.3,1.2-2.1
			c0.3-1.2-0.7-0.9-1.4-0.9c-0.7,0-1.6-0.1-1.2,1C200,455.1,200,456.2,201.2,456.3z M162.6,448c1.3,0.6,2.2,0.7,3-0.2
			c0.3-0.4,0.1-0.9-0.3-1.1C164.1,446.2,163.6,447.3,162.6,448z M163.6,459.1c-0.1-0.6-0.5-0.9-1.1-0.9c-0.7,0-0.8,0.5-0.8,1
			c0,0.6,0.3,1,1,0.9C163.2,460,163.5,459.7,163.6,459.1z M141.6,451.6c-0.1-0.6-0.6-0.9-1.1-0.9c-0.5,0-1.2-0.1-1.1,0.7
			c0.1,0.6,0.6,0.8,1.2,0.8C141.1,452.2,141.5,452.2,141.6,451.6z M159.3,434.1c-0.2,0-0.7,0.1-0.8,0.6c-0.1,0.5,0.2,0.8,0.7,0.9
			c0.6,0.1,1.1,0,1.1-0.7C160.4,434.4,160,434.1,159.3,434.1z M154.7,450.9c0.6,0,0.8-0.4,0.9-0.8c0.1-0.4,0-0.9-0.5-1
			c-0.5-0.1-0.8,0.2-0.9,0.7C154.1,450.3,154.1,450.8,154.7,450.9z M160.7,430.4c-0.4,0.1-0.7,0.4-0.6,0.9c0.1,0.5,0.3,0.9,0.8,0.9
			c0.6,0,0.6-0.5,0.6-0.9C161.5,430.8,161.3,430.5,160.7,430.4z M172.4,439.9c0.3-0.1,0.8-0.1,0.7-0.6c0-0.6-0.5-0.9-1.1-0.9
			c-0.5,0-0.8,0.3-0.7,0.9C171.5,439.9,171.9,439.9,172.4,439.9z M220.2,427.3c-0.1-0.4-0.3-0.6-0.7-0.7c-0.4,0-0.7,0.2-0.6,0.6
			c0.1,0.3,0.4,0.6,0.7,0.7C220,428.1,220.2,427.7,220.2,427.3z M171.7,443.4c-0.2-0.3-0.4-0.6-0.5-0.6c-0.3,0.1-0.6,0.3-0.8,0.5
			c-0.2,0.3-0.1,0.7,0.4,0.6C171.1,443.9,171.3,443.6,171.7,443.4z M121.7,429.7c-0.3-0.4-0.4-0.6-0.6-0.8c-0.2,0.1-0.4,0.2-0.5,0.4
			c-0.1,0.3,0,0.7,0.4,0.7C121.3,430,121.5,429.9,121.7,429.7z M204.3,439.3c-0.1-0.3-0.2-0.6-0.4-0.7c-0.4-0.1-0.6,0.2-0.6,0.5
			c0,0.2,0.2,0.5,0.4,0.5C203.9,439.7,204.1,439.4,204.3,439.3z M143.3,422.5c-0.1,0.1-0.2,0.3-0.2,0.4c0,0.1,0.3,0.1,0.4,0.2
			c0.1-0.1,0.2-0.3,0.2-0.4C143.7,422.6,143.4,422.6,143.3,422.5z M153.2,459c0.1-0.1,0.2-0.3,0.2-0.4c0-0.1-0.3-0.1-0.4-0.2
			c-0.1,0.1-0.2,0.3-0.2,0.4C152.8,458.9,153,458.9,153.2,459z M200.7,441.3c0.1-0.1,0.2-0.3,0.2-0.4c0-0.1-0.3-0.1-0.4-0.2
			c-0.1,0.1-0.2,0.3-0.2,0.4C200.3,441.3,200.5,441.3,200.7,441.3z"/>
		<path class="st17" d="M274.2,10.2c1.5,2.4,4,3.9,5.9,6c8.4,9.5,6.5,21.8-4.4,28.2c-5.8,3.4-12,5.1-18.6,5.8
			c-9.5,1.1-19.1,1-28.7,1.1c-9.8,0.1-18.4,3-25.1,10.7c-2.5,2.8-3.8,6.4-6.1,9.3c-5.8,7.7-13.7,12.2-22.8,14.6
			c-10.9,2.9-22.1,2.9-33.2,2.7c-0.2-1.5,1.1-1.9,2-2.5c0.9-0.6,1.8-1.3,0.8-2.3c-1.1-1-1.2,0.4-1.6,0.9c-0.4,0.5-1,0.9-1.3,0.4
			c-1-1.6-3.9-2-2.8-4.4c-3.4,0-6.5-0.7-10.4-1.7c2.4-0.9,3.6-2.2,2.1-3.6c-1.7-1.6-4.5-1.4-6.6-2.6c-0.9-0.5-1.3,0.6-2,1
			c-1,0.6-1.6,0-2.2-0.8c-0.3-0.5-1.1-1.3-1.3-0.4c-0.6,2.9-2.7,1.9-4.4,2.1c-1.4,0.1-4.6,4-4.3,5.3c0.1,0.4,0.4,0.8,0.8,1
			c0.7,0.4,1.8,0.3,1.5,1.5c-0.2,0.9-1.1,1.1-1.9,1.3c-2.6,0.8-4.3,3-6.7,4.1c-0.9,0.4-1.7,1.5-1.6,2.6c0.3,2.2-1,3.2-2.6,4
			c-0.5,0.2-1.1,0.4-1.2,1c-0.7,3.2-2.5,5.1-5.6,6.6c-2,1-4.1,1.9-6.2,2.8c-0.9,0.4-1.2-0.1-1.4-0.7c-0.2-0.8-0.2-1.6-0.3-2.3
			c-0.1-0.4,0.1-1-0.5-1.1c-0.5-0.1-0.9,0.3-1,0.7c-0.3,1.7-1.5,1.7-2.8,1.7c-0.9,0-1.8-0.1-2.4,0.7c-1.1,1.5-2.3,0.8-3.6,0.3
			c-2.1-1-3.2-3.1-4.7-4.6c-2.1-2-2.1-3.8-0.2-6c1.2-1.4,3.1-2.5,3.6-4.1c0.7-2.2,2.2-3.4,3.8-4.5c1.1-0.8,2-1.7,2.9-2.7
			c2-2.2,3.3-4.9,6.6-5.8c1.4-0.4,3-1.9,3.5-3.7c0.3-1.3,1.1-1.5,2.3-1.7c3.7-0.4,4.5-1.6,3.5-5.1c1.6,0.1,3.2,0.9,4.6-0.2
			c3.7-3.1,7.5-6.1,12.2-7.8c0.2-0.1,0.4-0.5,0.5-0.8c0.3-2.5,1.5-1.6,2.7-0.7c0.8,0.7,1.8,1.3,2.5,0.2c1.4-1.9,3.8-2.9,4.6-5.3
			c0.8-2.5,3-4,5.1-5.2c2.3-1.3,3-2.9,2.6-5.2c13.2-7.8,27.1-14,41.6-19c29.8-10.3,60.6-14.5,92.1-12.8
			C267.1,9.3,270.7,9.4,274.2,10.2z"/>
		<path class="st17" d="M13,206c2.6-0.4,4.2-2.5,6.2-3.8c7.5-4.8,15.6-8.3,24.4-9.2c13-1.4,25.3,0.7,34.3,11.5
			c6.2,7.4,7.2,16,4.4,25c-2.6,8.5-7.9,15.3-14.5,21.2c-6.2,5.7-14.1,9.3-19.9,15.4c-6.3,6.6-9.8,14.4-10.8,23.5c-0.3,3-0.1,6,0,9
			c0.3,10.9-3.7,19.9-12.8,26.3c-0.9,0.6-2.1,0.9-3.1,1.4c-3.8-10.6-6.5-21.6-8.6-32.6c-5.3-28.3-5.2-56.7-0.1-85
			C12.7,207.7,12.4,206.8,13,206z"/>
		<path class="st17" d="M488.8,284.1c-8.3,2.7-16.9,3.4-25.5,2.5c-14.7-1.5-28.4-5.9-38.4-17.7c-9.8-11.5-8.7-25.7,3.6-35.1
			c2.5-1.9,5.4-3.3,8.2-4.9c6.4-3.7,11.3-8.5,11.6-16.6c0.1-3.1-0.3-6.2-0.7-9.2c-2.1-13.2,3-23.2,13.4-30.8
			c4.4-3.2,9.1-5.8,14.7-6.4c2.8,6.3,4.6,12.8,6.5,19.4c6.4,22.6,9.4,45.7,9.1,69.3C491.2,264.5,490.5,274.3,488.8,284.1z"/>
		<path class="st17" d="M398.2,440.2c-0.3-2.2,0.4-4.4,0.4-6.6c0-11.3-5.1-19.6-14.7-25.4c-5.5-3.3-11.4-5.8-16.3-10
			c-7-6-11.2-13.3-10-22.8c0.5-3.7,2.2-7.1,4.7-10c7.3-8.6,17.1-12.3,27.8-14.1c12-2.1,23.9-1,35.2,3.4
			c10.5,4.1,19.6,10.3,25.5,20.4c0.8,1.4,1.6,2.9,2.9,4.1c-4.1,7.2-9.2,13.7-14.3,20.2c-11.7,14.9-25,28.1-39.8,39.9
			C399.2,439.6,398.7,439.9,398.2,440.2z"/>
		<path class="st18" d="M100.6,439c0.2-1.1,0.2-2.4,1.6-2.7c1.3-0.3,2.4,0.2,3.2,1.3c1.2,1.6,3.2,1.9,4.8,2.8
			c0.1,0.1,0.4,0.1,0.5,0.1c2.5-2.3,5.9-0.3,8.6-1.8c1.9-1.1,2.2-2.1,0.4-3.4c-0.8-0.6-0.7-0.8-0.1-1.3c0.5-0.4,0.9-1,1.5-0.3
			c0.5,0.6,1,1.3,1.6,1.8c0.5,0.4,1.2,0.5,1.7,0c0.4-0.4,0.4-1,0.1-1.5c-0.4-0.9-1.7-1.9-1.1-2.5c0.8-0.8,2.3-1.3,3.6-1.4
			c1.5-0.2,2.7-0.5,3.8-1.6c1.7-1.6,2.8,0.1,3.7,1.1c2.1,2.1,4.2,1.8,5.3-0.9c0.3-0.7,0.7-1.2,1-1.9c0.3-0.6,0.5-1.3,0.7-1.9
			c1,0.1,0.8,1.3,1.7,1.6c0.8,0.2,1.6,0.5,2.3,0.1c0.7-0.5,0.4-1.3,0.2-1.9c-0.5-1.5-0.1-2.7,0.7-4c3.2,3.3,0.9,6.7,0,10.3
			c1.8-0.5,1.8-2.1,2.7-2.8c0.8-0.6,2-1.2,2,0.1c0.1,2.3,1.8,2.8,3.1,3.8c1.3,0.9,1.9,1.6,0.2,3c-1.7,1.4-0.3,5.7,1.8,6.2
			c1,0.3,1.8,0.8,1.2,1.8c-0.4,0.9-0.7,1.7-0.9,2.7c-0.2,1-1.9,1.3-2.1,1.1c-1.2-1.9-3.9-0.1-5-2.1c-0.3-0.5-1-0.2-1.5,0
			c-0.9,0.3-1.8,0.4-2.6-0.1c-2.7-2-4.7-0.6-6.8,1c-1.5,1.1-2.8,2.4-3.9,4c-0.5,0.8-0.7,1.7,0.2,2c3.2,1.4,6,3.3,9,5
			c1,0.6,2.2,0.7,3.6,0.3c1.9-0.6,2.8,0.5,2.2,2.2c-0.3,0.8-0.3,1.1,0.5,1.3c1.8,0.3,2.3,1.8,2.7,3.2c0.5,1.8,1.9,2.4,3.4,2.4
			c1.4,0,3.4,0.3,4-1.8c0.2-0.7,0.6-1.4,1.2-1.1c2.6,1.4,4.4-1.3,6.7-1.1c1,0.1,1.1-0.9,2.3-2.2c-1,3.3-0.1,4.7,2.5,4.9
			c0.6,0,1,0.4,1.1,1c0,0.6-0.5,0.9-1,1.1c-0.5,0.2-1,0.3-1.5,0.5c-0.8,0.2-2.1-1.3-2.5,0.2c-0.3,1.3,0.8,2.1,2.1,2.7
			c1.5,0.6,2.8,1.5,4.5,1.4c2.1-0.1,3.4-1.9,2.9-3.9c-0.3-0.8-0.6-1.7-0.8-2.5c-0.2-0.7-1.1-1.5-0.5-2.2c0.7-0.7,1.7,0.1,2.5,0.2
			c1.3,0.1,0.8,1,0.6,1.8c-0.1,0.4-0.1,0.9,0.4,1.1c0.6,0.3,1.4,0.2,1.7-0.3c1-1.7,2-2.2,4.1-1.4c0.9,0.4,2.5-0.7,4-0.8
			c3-0.3,4.3,1.1,4.6,3.7c0.2,1.6,0.8,2,2.2,1.5c1.5-0.5,3-0.3,4.5-1.2c1.7-1,3.1,0.2,3,2.3c0,0.7,0.1,1.4,0.7,1.6
			c1.9,0.8,3.8,1.4,4.7,3.5c0,0.1,0.7,0.1,0.9,0c0.5-0.3,0.7-0.8,0.4-1.4c-0.2-0.5-0.8-0.9-0.8-1.3c0.3-1.8,1.8-4.2-2.1-3
			c-0.1,0-0.2,0-0.2-0.1c-1.1-3.7-5.1-3.6-7.4-5.6c-1.1-1-1.4-2-0.4-2.9c0.7-0.6,0.7-2.1,2.9-1c1.7,0.9,4.6,1.9,7.1,0.7
			c0.5-0.3,0.9-0.5,1-1.1c0.1-0.7-0.3-1.3-0.9-1.4c-1.4-0.2-2-0.9-2.1-2.3c-0.1-1.3,1.1-1.4,1.9-1.9c0.7-0.5,1.4-1.1,1.9-1.8
			c0.5-0.6,0.5-1.2-0.4-1.6c-2.9-1.4-2.9-1.4-0.8-4.5c-1.6,0.1-2.9,0-2.2-2.1c0.3-1-0.7-1.9-1.8-1.9c-2.8-0.1-2.5-1.4-1.6-3.3
			c0.5-1.2,1.1-2.3,2.6-3.2c-1.8-0.9-2.7-0.1-3.7,0.6c-0.7,0.4-1.2,0.7-1.8-0.1c-0.5-0.7-0.5-1.2,0.1-1.9c1.7-2.2,5-2,6.3,0.6
			c0.8,1.6,1.6,2,3.3,1.5c2.6-0.7,2.8-0.2,2.8,2.5c0,2.1,2.3,3.2,3.7,3c2.3-0.3,4.6,0.5,6.7-0.3c0.1,1-0.5,1.5-1.1,2.3
			c-1.8,2.5-3,5.2-2.8,8.5c0.1,1.7,0.6,4.4-2.7,4.3c-0.4,0-0.7,0.3-0.7,0.7c0,0.6,0.3,0.8,0.8,0.8c0.8,0,1.6,0.1,2.4-0.1
			c1.1-0.2,2.5-1,3.1,0.4c0.7,1.5,1.4,3.4,0.3,5c-0.9,1.3-1,2.4-0.6,3.7c0.3,1.2,0.7,2.4,2.3,1.1c0.6-0.5,1.1-0.2,1.6,0.2
			c2.2,1.5,5.4,1.2,7.2-0.7c0.9-1,1.4-2.1-0.6-2.8c-1.5-0.5-1.8-5.1-0.5-6c0.3-0.2,0.7-0.2,1-0.2c0.4,0,3,4.6,2.9,5
			c-0.7,4-0.7,4,3.2,4.1c1,0,1.9,0.7,2.2,1.2c0.8,1.6,2.1,1.9,3.9,2c-1.3,1.8-1.3,3.1,0.8,3.8c0.2,0.1,0.4,0.3,0.5,0.6
			c1.7,2.7,1.7,2.7,3.1,0.1c0.7-1.3,3.9-1.2,5,0.7c1.6,3,3.6-0.6,5.1,0.8c0.7-0.9,0.5-1.7-0.5-2.2c-2.3-1.2-1.1-2.1,0.3-2.9
			c1-0.6,2.1-0.9,2.7-2.1c0.9-1.7,2.7-1.8,3.7-0.1c0.7,1.3,1.5,2.6,0.8,4.3c-0.2,0.4-0.3,1.1,0.3,1.4c0.5,0.3,0.8-0.2,1.2-0.4
			c0.8-0.5,1.8-0.9,2.1-2c0.3-0.9,0.7-1.2,1.6-0.8c0.7,0.3,1.2,0.1,1.5-0.5c0.3-0.7,0-1.2-0.5-1.7c-1-0.9-1.9-1.9-2-3.4
			c7.4,1.6,15,0.6,22.4,2.1c8.4,1.7,14.9,5.6,17.1,14.5c-9.4,2.9-19.1,4.7-28.8,6.1c-18.6,2.7-37.3,3.2-56,1.2c-2.6-1-5-2.7-7.6-3.6
			c-4.6-1.6-9,0.8-13.5,0.3c-0.1,0-0.1,0.1-0.2,0.2c-0.4-0.1-0.7-0.1-1.1-0.2c-0.4-0.1-0.7-0.2-1.1-0.3c-5.3-0.8-10.5-2.1-15.7-3.5
			c-4-1.1-8-2.2-11.9-3.5c-4-1.3-7.9-2.9-11.9-4.3c-0.1-1-0.9-1.2-1.6-1.5c-2-0.9-4-1.8-6.1-2.5c-3-1.1-5-4.1-8.7-4
			c-1.4,0.1-2.8-1.5-4.3-1.9c-2.6-0.7-4.5-3-7.4-2.8c-0.3-0.1-0.6-0.3-0.8-0.4c-0.9-2.3-2.9-2.6-5-2.8l-0.2,0c0,0-0.1-0.1-0.1-0.1
			c-0.2-0.1-0.4-0.3-0.6-0.4c0,0,0,0,0,0c-0.2-1.7-1.4-1.7-2.7-1.6c0,0,0,0,0,0c-0.2-1.8-1.4-1.7-2.7-1.6c0,0,0,0,0,0
			c-0.1-1.8-1.4-1.7-2.7-1.6c0,0,0.1,0,0.1,0c-0.1-0.6-0.5-0.7-1-0.7c0,0,0,0,0,0c0-1.2-0.8-1.1-1.6-1.1c0,0,0,0,0,0
			c0-1.2-0.8-1.1-1.7-1.1c0,0,0,0,0,0c0-1.2-0.8-1.2-1.6-1.1c0,0,0,0,0,0c0.1-1.3-0.8-1.2-1.6-1.1c0,0,0,0,0,0
			c0.1-1.2-0.8-1.2-1.6-1.1c-0.2-0.1-0.3-0.2-0.5-0.3c0.1-1.3-0.8-1.3-1.7-1.2c-0.2,0-0.3,0-0.3-0.2c-0.1-0.7-0.5-0.9-1.2-0.8
			c0,0,0,0,0,0c0-0.9-0.3-1.3-1.2-0.8c0,0,0,0,0,0c0.1-0.8-0.5-0.8-1-0.8c-0.2,0-0.3,0-0.3-0.2c-0.2-0.1-0.3-0.3-0.5-0.4
			c-0.5-0.4-1.1-0.8-1.6-1.2c-0.2-0.1-0.3-0.3-0.5-0.4c-0.4-0.3-0.8-0.6-1.1-0.9C102.8,439.2,101.8,439,100.6,439L100.6,439z"/>
		<path class="st17" d="M454.1,121.7c-3.2,7.8-9.7,11.1-17.5,11.7c-10.7,0.8-19.7-3-27.2-10.7c-6.2-6.4-14-9.6-22.9-10.7
			c-8.2-1-16.5-2.1-23.6-7.1c-10.6-7.4-10.8-18.4-0.4-25.1c6.3-4.1,13.6-4.9,21.2-4.2c11.2,1,21.3,4.9,30.9,10.3
			c4.5,2.5,9.3,4.3,14.2,5.9c1.2,0.4,2.4,0.6,3.7,0.4C440.7,101.5,447.9,111.2,454.1,121.7z"/>
		<path class="st18" d="M130,40.9c0.4,2.4-0.4,3.9-2.6,5.2c-2.1,1.2-4.3,2.7-5.1,5.2c-0.8,2.4-3.2,3.4-4.6,5.3
			c-0.8,1-1.7,0.4-2.5-0.2c-1.2-0.9-2.4-1.8-2.7,0.7c0,0.3-0.2,0.8-0.5,0.8c-4.7,1.7-8.4,4.7-12.2,7.8c-1.4,1.1-3,0.3-4.6,0.2
			c1,3.5,0.2,4.7-3.5,5.1c-1.2,0.1-2,0.3-2.3,1.7c-0.5,1.9-2.1,3.3-3.5,3.7c-3.3,0.9-4.7,3.6-6.6,5.8c-0.9,1-1.8,1.9-2.9,2.7
			c-1.6,1.1-3.1,2.3-3.8,4.5c-0.5,1.6-2.4,2.7-3.6,4.1c-1.9,2.2-1.9,4,0.2,6c1.6,1.5,2.7,3.6,4.7,4.6c1.2,0.6,2.5,1.2,3.6-0.3
			c0.6-0.9,1.6-0.8,2.4-0.7c1.3,0,2.5,0,2.8-1.7c0.1-0.4,0.4-0.8,1-0.7c0.6,0.1,0.4,0.7,0.5,1.1c0.1,0.8,0.1,1.6,0.3,2.3
			c0.2,0.6,0.5,1,1.4,0.7c2.1-0.9,4.2-1.8,6.2-2.8c3-1.4,4.9-3.4,5.6-6.6c0.1-0.6,0.7-0.7,1.2-1c1.7-0.8,2.9-1.8,2.6-4
			c-0.1-1.1,0.7-2.2,1.6-2.6c2.4-1.1,4.1-3.3,6.7-4.1c0.7-0.2,1.7-0.5,1.9-1.3c0.3-1.1-0.8-1.1-1.5-1.5c-0.3-0.2-0.7-0.6-0.8-1
			c-0.3-1.3,2.9-5.1,4.3-5.3c1.7-0.2,3.8,0.8,4.4-2.1c0.2-0.9,1-0.1,1.3,0.4c0.5,0.9,1.1,1.4,2.2,0.8c0.7-0.4,1.1-1.5,2-1
			c2.1,1.2,4.9,1,6.6,2.6c1.5,1.4,0.3,2.7-2.1,3.6c3.8,1,7,1.7,10.4,1.7c-1.1,2.3,1.8,2.8,2.8,4.4c0.3,0.5,0.9,0.1,1.3-0.4
			c0.4-0.5,0.6-2,1.6-0.9c1,1,0.1,1.7-0.8,2.3c-0.9,0.6-2.2,1-2,2.5c-13,0.2-24.5,4.1-34.9,12.1c-9.6,7.4-20.6,11.5-32.9,10.2
			c-5.2-0.5-10-2.4-12.8-7.4c-0.3-0.6-0.7-1-1.3-1.2c6.8-9.4,14.7-17.8,23-25.9c11.6-11.2,24.2-21.2,37.8-29.8
			c2.2-1.4,4.5-2.7,6.7-4c0.5,0,0.9-0.1,1.1-0.7C128.7,41.7,129.3,41.3,130,40.9z"/>
		<path class="st17" d="M206.4,486.9c0.1-0.1,0.1-0.2,0.2-0.2c4.5,0.5,8.9-1.9,13.5-0.3c2.7,0.9,5,2.6,7.6,3.6
			C220.6,489.5,213.5,488.6,206.4,486.9z"/>
		<path class="st17" d="M136.8,462.4c2.9-0.2,4.8,2.1,7.4,2.8c1.5,0.4,2.9,2,4.3,1.9c3.7-0.1,5.7,2.9,8.7,4c2.1,0.8,4.1,1.7,6.1,2.5
			c0.7,0.3,1.6,0.5,1.6,1.5C155.1,471.7,145.7,467.4,136.8,462.4z"/>
		<path class="st17" d="M130.9,459.2c2.1,0.2,4.1,0.4,5,2.8C134.1,461.3,132.4,460.4,130.9,459.2z"/>
		<path class="st17" d="M127.3,457.1c1.3-0.1,2.5-0.1,2.7,1.6C129,458.4,128.1,457.9,127.3,457.1z"/>
		<path class="st17" d="M124.6,455.6c1.3-0.1,2.5-0.2,2.7,1.6C126.3,456.8,125.4,456.3,124.6,455.6z"/>
		<path class="st17" d="M122,453.9c1.3-0.1,2.6-0.2,2.7,1.6C123.6,455.2,122.7,454.7,122,453.9z"/>
		<path class="st17" d="M100.6,439c1.1,0,2.2,0.2,2.2,1.7C102.1,440.1,101.3,439.5,100.6,439z"/>
		<path class="st17" d="M117.7,451.2c0.8-0.1,1.7-0.2,1.7,1.1C118.7,452.1,118.1,451.8,117.7,451.2z"/>
		<path class="st17" d="M119.4,452.3c0.8-0.1,1.6-0.1,1.6,1.1C120.3,453.2,119.8,452.8,119.4,452.3z"/>
		<path class="st17" d="M116.1,450.2c0.9-0.1,1.7-0.2,1.6,1.1C117.1,451.1,116.5,450.7,116.1,450.2z"/>
		<path class="st17" d="M114.5,449.1c0.8-0.1,1.7-0.1,1.6,1.1C115.5,450,114.9,449.7,114.5,449.1z"/>
		<path class="st17" d="M112.9,448c0.8,0,1.7-0.1,1.6,1.1C113.9,448.9,113.3,448.5,112.9,448z"/>
		<path class="st17" d="M110.7,446.4c0.9-0.1,1.8-0.1,1.7,1.2C111.8,447.2,111.2,446.8,110.7,446.4z"/>
		<path class="st17" d="M108,444.6c0.9-0.4,1.2-0.1,1.2,0.8C108.8,445.1,108.4,444.8,108,444.6z"/>
		<path class="st17" d="M109.2,445.4c0.7-0.1,1.1,0.1,1.2,0.8C109.9,445.9,109.6,445.6,109.2,445.4z"/>
		<path class="st17" d="M121,453.3c0.5,0,0.9,0.1,1,0.7C121.7,453.8,121.3,453.5,121,453.3z"/>
		<path class="st17" d="M106.9,443.8c0.5,0,1.1-0.1,1,0.8C107.6,444.3,107.2,444,106.9,443.8z"/>
		<path class="st17" d="M128,42.1c-0.2,0.5-0.6,0.6-1.1,0.7C127.2,42.6,127.6,42.3,128,42.1z"/>
		<path class="st17" d="M204.2,486.4c0.4,0.1,0.7,0.2,1.1,0.3C205,486.6,204.6,486.5,204.2,486.4z"/>
		<path class="st17" d="M106.1,443.1c0.2,0.1,0.3,0.3,0.5,0.4C106.4,443.4,106.2,443.3,106.1,443.1z"/>
		<path class="st17" d="M130,458.7c0.2,0.1,0.4,0.3,0.6,0.4C130.4,459,130.2,458.8,130,458.7z"/>
		<path class="st17" d="M103.9,441.5c0.2,0.1,0.3,0.3,0.5,0.4C104.3,441.8,104.1,441.7,103.9,441.5z"/>
		<path class="st17" d="M241,86c12.8,0.2,24.7,3.6,35,11.4c5.8,4.3,10.3,9.7,11,17.4c0.3,3.4-3,9.6-6.5,11.9
			c-7.2,4.6-15,4.3-22.8,2.7c-6.9-1.4-13.4-4.5-20.4-5.8c-5.4-1-10.9-1.9-15.7-4.7c-5.3-3.1-9.7-7.1-9.7-13.9c0-6.3,3.2-10.8,8.6-14
			C226.7,87.2,233.7,85.9,241,86z"/>
		<path class="st19" d="M356.6,309.2c-8.3,0-14.7-2.1-20-7.3c-8.2-8.2-6.9-21.8,2.7-28.6c9.8-6.9,22.7-7.2,32.7-0.4
			c10.3,7.1,11.3,20.4,3.2,28.4C369.7,306.8,363.1,309.2,356.6,309.2z"/>
		<path class="st19" d="M145.9,309.2c-9.9-0.3-17.9-4-22.6-13.1c-3.2-6.2-1.6-14.4,3.2-19.5c6.6-6.9,14.5-9.3,23.9-8.1
			c8,1,14.2,4.6,18.3,11.6c5.6,9.7,1,20.4-8.1,25.5C156,308.2,151.1,309.3,145.9,309.2z"/>
		<path class="st17" d="M321.2,374.5c0.3,5.9-2.9,9.6-7.3,12c-8.5,4.7-17.5,4.4-25.8-0.4c-10-5.8-9.9-17.2-0.3-23.5
			c8.3-5.5,23.2-4.6,29.9,3.1C320,368.3,321.6,371.1,321.2,374.5z"/>
		<path class="st18" d="M99.7,149.1c0.1,2.3-1.4,4.6-3.7,6.5c-5.6,4.6-14.7,4.5-20-0.6c-5.6-5.4-2.5-11.9,2-14.6
			c5.6-3.4,11.4-3.4,17.1,0C98.1,142.1,99.7,144.8,99.7,149.1z"/>
		<path class="st18" d="M324.9,456c-3.8,0-6.9-0.7-9.4-3.3c-3.3-3.4-3.2-8.4,0.5-11.4c4.5-3.7,12.4-3.8,17,0.1
			c4.6,3.9,3.5,10.8-2.1,13.3C328.8,455.4,326.7,456.3,324.9,456z"/>
		<path class="st18" d="M315.7,89.8c-1.1-0.1-2.4,0.2-3.7-0.3c-4.2-1.7-5.5-3.5-5.2-7.8c0.2-2.7,2.8-5.4,6.2-6.1
			c2.3-0.4,4.8-0.5,7.1,0.4c3.6,1.3,5.8,4.4,5.3,7.3c-0.6,3.6-3.6,6.3-7.4,6.5C317.3,89.8,316.6,89.8,315.7,89.8z"/>
		<path class="st18" d="M242.7,444.7c-1.3-0.2-2.3,0.8-3.5,1.1c-1.1,0.3-1.6,0.9-0.4,1.8c0.6,0.4,0.8,1,0.2,1.5
			c-0.6,0.5-1.2,0.4-1.6-0.2c-0.8-1.2-1.5-0.9-2.3-0.1c-0.6,0.6-1.3,0.8-1.7-0.1c-0.5-0.9,0.1-1.4,1-1.3c1.4,0.1,1.9-1.1,1.7-1.9
			c-0.7-2.7,1.3-4.2,2.2-6.3c0.6-1.4,0.9-2.2-0.2-3.9c-1.9-3.1-4-6.2-4.8-10c-0.2-0.8,0.2-1.2,0.9-1.4c0.6-0.2,1.4-0.2,1.5,0.6
			c0.2,1.6,1.6,1.6,2.6,2.2c1.1,0.7,1.5,0.8,1.9-0.7c0.5-2.1,2.1-1.6,3.6-1.2c1.1,3.9-0.2,7.7-0.8,11.4
			C242.6,439.2,241.9,441.9,242.7,444.7z"/>
		<path class="st18" d="M252.9,458.1c-1,0.5-0.6,3-1.5,2.3c-1.7-1.3-4.7,1.6-5.7-2.2c-0.4-1.6-3.1-2.3-4.1-4.1
			c-0.3-0.6-1.2-1-0.8-1.8c0.5-1,1.4-0.5,2.1-0.2c1,0.4,1.7-0.4,2.6-0.3C247.9,453.8,250.4,455.9,252.9,458.1z"/>
		<path class="st18" d="M242.8,419.6c-1.1,0-1.5,0.8-1.9,1.5c-0.6,0.9-1.4,1.3-2.5,1.1c-1.1-0.2-1.2-1.1-1.5-1.9
			c-1-3.6-0.5-4.3,3.8-5.5C242.1,416.1,242.7,417.7,242.8,419.6z"/>
		<path class="st18" d="M272.1,466.1c-0.6,1.2-1.8,1.5-2.8,1.4c-1.2-0.2-0.8-1.5-0.9-2.4C269.7,465.1,271,465.4,272.1,466.1z"/>
		<path class="st18" d="M243.3,421.8c-0.2-0.1-0.5-0.2-0.7-0.2c0.2-0.1,0.5-0.2,0.7-0.3C243.3,421.4,243.3,421.6,243.3,421.8z"/>
		<path class="st18" d="M228.9,455.1c0.9,0,2.2,3,1.9,4.3c-0.2,0.6-0.7,1.1-0.7,1.7c0,1.2,0.4,2.7-1.4,2c-1-0.4-3.2-1-1.9-3.2
			c0.4-0.6,0.4-1.3,0.1-2C226.2,456,226.9,455.1,228.9,455.1z"/>
		<path class="st18" d="M193.1,433.8c1.8-0.1,2,0.5,2.1,1.1c0.4,1.6,1.4,2.1,3,1.6c0.6-0.2,1.2-0.3,1.6,0.4c0.3,0.7-0.2,1.3-0.7,1.5
			c-1.2,0.5-1.8,1.2-1.8,2.5c0,0.7-0.6,1-1.3,1.1c-0.7,0-1.2-0.1-1.5-0.8c-0.3-0.7,0.1-1.1,0.7-1.4c1.2-0.7,0.4-1.5,0-2.2
			C194.6,436.4,194.8,435,193.1,433.8z"/>
		<path class="st18" d="M161.6,438.3c1.4-0.7,2.1-0.4,2.6,0.5c0.4,0.6,0.8,1.1,1.4,1.5c0.6,0.4,1.8-0.1,1.7,1.1
			c-0.1,1-0.9,1.1-1.8,1.2c-1,0-2.1,0-2.3-1.2C163.1,440.2,162.6,439.2,161.6,438.3z"/>
		<path class="st18" d="M227,438.2c-0.9-0.5-1.4,0.1-2,0.7c-0.8,0.8-1.5,0.7-2.1-0.3c-0.6-0.9-0.1-1.4,0.7-1.9
			c1.2-0.7,2.5-0.7,3.8-0.3c0.6,0.2,1.4,0.7,1.2,1.5C228.3,438.6,227.5,438.3,227,438.2z"/>
		<path class="st18" d="M219,429.3c1.2,0,1.9,0.6,1.8,1.8c-0.1,0.9-0.7,1.5-1.6,1.3c-1-0.3-2.1-0.7-2-2.1
			C217.3,429,218.3,429.3,219,429.3z"/>
		<path class="st18" d="M155.2,428.4c-0.1,0.5,0.3,1.7-0.6,1.6c-1.7-0.3-0.7-2.2-1.4-3.3c-0.3-0.4,0-1.1,0.7-0.9
			C155.3,426.1,155.2,427.2,155.2,428.4z"/>
		<path class="st18" d="M201.2,456.3c-1.2-0.2-1.1-1.2-1.4-2c-0.4-1.1,0.6-1.1,1.2-1c0.6,0,1.6-0.2,1.4,0.9
			C202.2,455,202.2,456,201.2,456.3z"/>
		<path class="st18" d="M162.6,448c1-0.7,1.5-1.8,2.7-1.3c0.4,0.2,0.6,0.7,0.3,1.1C164.8,448.7,163.9,448.6,162.6,448z"/>
		<path class="st18" d="M236.4,457.3c-0.7,0.2-1,0-1.1-0.7c0-0.8,0.4-1.1,1.1-1.1c0.8,0,1.5,0.1,1.5,1.1
			C237.9,457.6,236.8,456.8,236.4,457.3z"/>
		<path class="st18" d="M163.6,459.1c0,0.6-0.4,0.9-1,1c-0.6,0.1-0.9-0.3-1-0.9c0-0.6,0.2-1,0.8-1
			C163,458.2,163.4,458.5,163.6,459.1z"/>
		<path class="st18" d="M141.6,451.6c-0.1,0.6-0.5,0.6-1,0.6c-0.6,0-1.1-0.2-1.2-0.8c-0.1-0.8,0.6-0.7,1.1-0.7
			C141,450.7,141.5,451,141.6,451.6z"/>
		<path class="st18" d="M159.3,434.1c0.7,0,1.1,0.2,1.1,0.8c0,0.7-0.6,0.8-1.1,0.7c-0.5-0.1-0.8-0.3-0.7-0.9
			C158.6,434.2,159.1,434.1,159.3,434.1z"/>
		<path class="st18" d="M154.7,450.9c-0.5-0.1-0.5-0.6-0.5-1c0-0.5,0.3-0.8,0.9-0.7c0.6,0.1,0.7,0.5,0.5,1
			C155.5,450.6,155.2,450.9,154.7,450.9z"/>
		<path class="st18" d="M160.7,430.4c0.6,0.1,0.8,0.4,0.8,0.9c0,0.5-0.1,0.9-0.6,0.9c-0.5,0-0.7-0.4-0.8-0.9
			C160,430.8,160.3,430.5,160.7,430.4z"/>
		<path class="st18" d="M172.4,439.9c-0.4,0-0.9-0.1-1-0.6c-0.1-0.5,0.2-0.9,0.7-0.9c0.6,0,1,0.3,1.1,0.9
			C173.1,439.8,172.7,439.8,172.4,439.9z"/>
		<path class="st18" d="M220.2,427.3c0,0.4-0.2,0.7-0.6,0.6c-0.3-0.1-0.6-0.4-0.7-0.7c-0.1-0.4,0.2-0.6,0.6-0.6
			C219.9,426.7,220.2,427,220.2,427.3z"/>
		<path class="st18" d="M202.5,430.6c0.5-1.3,1.1-1.7,2.1-1.6C204.4,430.2,203.4,430,202.5,430.6z"/>
		<path class="st18" d="M171.7,443.4c-0.3,0.2-0.6,0.5-0.9,0.6c-0.5,0.1-0.6-0.3-0.4-0.6c0.1-0.2,0.5-0.4,0.8-0.5
			C171.3,442.8,171.5,443.1,171.7,443.4z"/>
		<path class="st18" d="M121.7,429.7c-0.2,0.1-0.4,0.3-0.6,0.3c-0.5,0-0.5-0.4-0.4-0.7c0.1-0.2,0.3-0.3,0.5-0.4
			C121.3,429.2,121.4,429.3,121.7,429.7z"/>
		<path class="st18" d="M204.3,439.3c-0.2,0.2-0.4,0.4-0.6,0.4c-0.2,0-0.4-0.3-0.4-0.5c0-0.4,0.2-0.7,0.6-0.5
			C204.1,438.7,204.1,439,204.3,439.3z"/>
		<path class="st18" d="M143.3,422.5c0.1,0.1,0.4,0.1,0.4,0.2c0,0.1-0.1,0.3-0.2,0.4c-0.1-0.1-0.4-0.1-0.4-0.2
			C143.1,422.9,143.2,422.7,143.3,422.5z"/>
		<path class="st18" d="M153.2,459c-0.1-0.1-0.4-0.1-0.4-0.2c0-0.1,0.1-0.3,0.2-0.4c0.1,0.1,0.4,0.1,0.4,0.2
			C153.4,458.6,153.2,458.8,153.2,459z"/>
		<path class="st18" d="M238.8,457.4c-0.1,0.2-0.1,0.3-0.2,0.5c-0.2-0.1-0.4-0.2-0.5-0.3c0.1-0.1-0.4-0.5,0.1-0.4
			C238.4,457.1,238.6,457.3,238.8,457.4z"/>
		<path class="st18" d="M202.6,430.8c0,0-0.1,0.3-0.3,0.3c-0.3,0.1-0.5-0.1-0.4-0.4c0.1-0.2,0.3-0.3,0.5-0.4
			C202.7,430.2,202.8,430.3,202.6,430.8z"/>
		<path class="st18" d="M200.7,441.3c-0.1-0.1-0.4-0.1-0.4-0.2c0-0.1,0.1-0.3,0.2-0.4c0.1,0.1,0.4,0.1,0.4,0.2
			C200.9,441,200.8,441.2,200.7,441.3z"/>
		<path class="st18" d="M226,440.2c0.2,0.1,0.3,0.1,0.5,0.2c-0.1,0.2-0.2,0.4-0.3,0.5c-0.1-0.1-0.5,0.4-0.4-0.1
			C225.7,440.6,225.9,440.4,226,440.2z"/>
		<g>
			<path class="st20" d="M96.4,242.3c-2.3-0.5-3.8-0.9-5.3-1.3c-6-1.5-9.3-6.7-8.2-12.8c1-5.5,6.3-9,12.3-8
				c16.2,2.8,32.5,5.8,48.7,8.6c8.6,1.5,17.3,2.9,25.9,4.5c5,0.9,8.2,3.9,9,9c0.7,4.4-0.7,9.3-4.8,10.1c-8.6,1.6-5.8,6.7-5.1,11.7
				c2.7,20.2-13.3,41-33.7,44.3c-22.4,3.6-43.1-10.6-47.1-32C85.7,263.9,88.5,252.8,96.4,242.3z M116.3,246.3
				c-7.2-0.4-13.8,5.8-14.1,13.3c-0.2,6.8,5.6,13.2,12.6,13.8c6.9,0.6,14.1-5.9,14.4-13.1C129.5,253.2,123.6,246.7,116.3,246.3z"/>
			<path class="st20" d="M407.4,242.4c6,8.7,9.4,17.8,9,28.3c-1.1,24.2-22.3,41.1-47.9,37.8c-21.6-2.7-37.7-25.9-32.9-47.8
				c0.9-4,1.2-6.4-3.5-8.2c-4.4-1.7-5.5-6.2-4.6-10.7c1-5,4.4-7.9,9.4-8.8c10-1.9,20-3.7,30-5.4c13.3-2.3,26.6-4.6,39.9-6.9
				c6.8-1.2,12,1.9,13.3,7.9c1.3,6-2.2,10.8-9,12.6C409.9,241.4,408.8,241.9,407.4,242.4z M376.3,262.2c0.1-6.5-5.2-12.8-10.7-12.9
				c-9.8-0.2-15.9,4.6-15.9,12.6c0,7.4,6,13.7,13.1,13.7C369.9,275.7,376.2,269.4,376.3,262.2z"/>
			<path class="st20" d="M253.7,304.6c19.5,1.7,34.8,10.7,44.1,28.9c2.3,4.6,1.8,9-1.8,12.6c-3.3,3.3-7.3,4-11.6,2.2
				c-2.4-1-3.9-2.9-5-5.2c-5.7-11.3-15.1-17.3-27.4-17.4c-12.4,0-21.6,6.3-27.3,17.5c-2.9,5.8-8.6,7.5-14.2,4.7
				c-5.4-2.7-7.5-8.6-4.4-14.4C216,314.9,231.8,305.1,253.7,304.6z"/>
			<path class="st21" d="M116.3,246.3c7.2,0.4,13.2,6.9,12.9,14c-0.3,7.2-7.5,13.7-14.4,13.1c-7-0.6-12.8-7-12.6-13.8
				C102.5,252.1,109.1,245.9,116.3,246.3z"/>
			<path class="st21" d="M376.3,262.2c-0.1,7.1-6.4,13.5-13.5,13.4c-7.1,0-13.1-6.3-13.1-13.7c0-8,6.1-12.8,15.9-12.6
				C371.1,249.5,376.4,255.8,376.3,262.2z"/>
		</g>
	</g>
</g>
</svg>
