<?xml version="1.0" encoding="utf-8"?>
<!-- Generator: Adobe Illustrator 27.9.1, SVG Export Plug-In . SVG Version: 6.00 Build 0)  -->
<svg version="1.1" id="Layer_1" xmlns="http://www.w3.org/2000/svg" xmlns:xlink="http://www.w3.org/1999/xlink" x="0px" y="0px"
	 viewBox="0 0 200 200" style="enable-background:new 0 0 200 200;" xml:space="preserve">
<style type="text/css">
	.st0{fill:#8BCBD5;}
	.st1{fill:#EC8524;}
	.st2{fill:#FED653;}
	.st3{fill:#1F2F3D;}
	.st4{opacity:0.34;}
	.st5{fill:#F58A21;}
	.st6{fill:#D67140;}
	.st7{fill:#C96E43;}
	.st8{fill:#E88F53;}
	.st9{fill:#B54C33;}
	.st10{fill:#F8AE5E;}
	.st11{fill:#FDFCFB;}
	.st12{fill:#F37769;}
	.st13{fill:#F58E4E;}
	.st14{fill:#F9E1C0;}
	.st15{fill:#FAC087;}
	.st16{fill:#FBF9F9;}
	.st17{fill:#4167A0;}
	.st18{fill:#4C74B9;}
	.st19{fill:#7DA9DA;}
	.st20{opacity:0.15;fill:#7DA9DA;}
	.st21{fill:#67BDC6;}
	.st22{fill:#B1DFE5;}
	.st23{fill:#9DD5DD;}
	.st24{fill:#8FD5DC;}
	.st25{fill:#45A4C1;}
	.st26{fill:#77D1F3;}
	.st27{fill:#4AA146;}
	.st28{fill:#FCFBFA;}
	.st29{fill:#FFFFFF;}
	.st30{fill:#F8B032;}
	.st31{fill:#F59B28;}
	.st32{fill:#FBFAF9;}
	.st33{fill:#C45234;}
	.st34{fill:#E45E39;}
	.st35{fill:#939696;}
	.st36{fill:#B7B8B8;}
	.st37{fill:#F05979;}
	.st38{fill:#B7B8B8;stroke:#121C2B;stroke-width:6;stroke-linecap:round;stroke-linejoin:round;stroke-miterlimit:10;}
	.st39{fill:#FBDE84;}
	.st40{fill:#FDC478;}
	.st41{fill:#D88360;}
</style>
<g id="uranus">
	<circle id="silhouette_00000019657942165686431040000001550822613683278756_" class="st21" cx="100" cy="100" r="100"/>
	<g>
		<circle class="st22" cx="100" cy="100" r="95.4"/>
		<g>
			<g>
				<path class="st3" d="M52.6,125.6C52.6,125.6,52.6,125.6,52.6,125.6c-6.6,0-12.4-2.9-15.4-7.9c-0.9-1.4-0.4-3.3,1-4.1
					c1.4-0.9,3.3-0.4,4.1,1c1.9,3.1,5.8,5,10.2,5c4.4,0,8.4-1.9,10.2-5c0.9-1.4,2.7-1.9,4.1-1c1.4,0.9,1.9,2.7,1,4.1
					C65,122.7,59.3,125.6,52.6,125.6z"/>
			</g>
		</g>
		<g>
			<g>
				<path class="st3" d="M121.8,132C121.8,132,121.8,132,121.8,132c-6.6,0-12.4-2.9-15.4-7.9c-0.9-1.4-0.4-3.3,1-4.1
					c1.4-0.9,3.3-0.4,4.1,1c1.9,3.1,5.8,5,10.2,5c4.4,0,8.4-1.9,10.2-5c0.9-1.4,2.7-1.9,4.1-1c1.4,0.9,1.9,2.7,1,4.1
					C134.2,129.1,128.4,132,121.8,132z"/>
			</g>
		</g>
		<path class="st23" d="M179.7,152.4C70.2,156,23.9,130.1,5.6,113.4c4.1,29.3,21.6,54.4,46,68.8c26.4,5.3,55.9,7,81.5,7.3
			C152.3,182.3,168.6,169.2,179.7,152.4z"/>
		<path class="st24" d="M55.9,15.4C78.4,25.9,127,44.5,167.6,32.7C150.3,15.4,126.4,4.6,100,4.6C84.1,4.6,69.1,8.5,55.9,15.4z"/>
		<path class="st21" d="M171.8,162.7c-87.8,4.1-137.4-15.3-161.1-29.1c3.5,9.2,8.3,17.8,14.3,25.4c23.3,10,62.7,21.5,122.9,23.5
			C157,177.2,165,170.5,171.8,162.7z"/>
		<path class="st24" d="M193.4,80.5c-1.9-9.2-5.2-18-9.5-26c-67.3,8.2-115.4-12.9-142.1-30C34.3,30.2,27.8,37,22.4,44.6
			C79.6,73.4,150.6,79.6,193.4,80.5z"/>
		<g>
			<ellipse class="st3" cx="86" cy="145.2" rx="4.6" ry="5.9"/>
		</g>
		<ellipse class="st21" cx="86" cy="146.5" rx="3" ry="3.9"/>
		<g>
			<g>
				<path class="st3" d="M110.9,82.9l-4.5,5c0.6,0.1,5.3-0.3,5.7,0.3c0.7,0.7,0.1,1.8-0.9,1.6c0,0-6.7,0-6.7,0
					c-4.3-0.9,3.4-5.9,4.1-7.8c-1.1-0.3-6.5,0.9-4.9-1.5C105.3,80.3,115,79.2,110.9,82.9z"/>
			</g>
		</g>
		<g>
			<g>
				<path class="st3" d="M135.1,69.3l-7,7.9c1,0.2,8.2-0.4,8.9,0.4c1.1,1,0.2,2.7-1.4,2.6c0,0-10.4,0-10.4,0
					c-6.7-1.4,5.4-9.3,6.4-12.1c-1.6-0.4-10.1,1.5-7.6-2.4C126.3,65.2,141.4,63.4,135.1,69.3z"/>
			</g>
		</g>
		<g>
			<g>
				<path class="st3" d="M161.5,50.3l-8.9,9.9c1.3,0.2,10.4-0.5,11.2,0.5c1.3,1.3,0.2,3.5-1.7,3.2c0,0-13.1,0-13.1,0
					c-8.5-1.7,6.8-11.7,8.1-15.3c-2.1-0.5-12.8,1.8-9.6-3C150.3,45.1,169.4,42.8,161.5,50.3z"/>
			</g>
		</g>
		<ellipse class="st0" cx="125.9" cy="145.9" rx="13.5" ry="5.5"/>
		
			<ellipse transform="matrix(0.1626 -0.9867 0.9867 0.1626 -96.6459 159.6172)" class="st0" cx="45.7" cy="136.7" rx="5.5" ry="13.5"/>
	</g>
</g>
</svg>
