<?xml version="1.0" encoding="utf-8"?>
<!-- Generator: Adobe Illustrator 27.9.1, SVG Export Plug-In . SVG Version: 6.00 Build 0)  -->
<svg version="1.1" id="Layer_1" xmlns="http://www.w3.org/2000/svg" xmlns:xlink="http://www.w3.org/1999/xlink" x="0px" y="0px"
	 viewBox="0 0 200 200" style="enable-background:new 0 0 200 200;" xml:space="preserve">
<style type="text/css">
	.st0{fill:#8BCBD5;}
	.st1{fill:#EC8524;}
	.st2{fill:#FED653;}
	.st3{fill:#1F2F3D;}
	.st4{opacity:0.34;}
	.st5{fill:#F58A21;}
	.st6{fill:#D67140;}
	.st7{fill:#C96E43;}
	.st8{fill:#E88F53;}
	.st9{fill:#B54C33;}
	.st10{fill:#F8AE5E;}
	.st11{fill:#FDFCFB;}
	.st12{fill:#F37769;}
	.st13{fill:#F58E4E;}
	.st14{fill:#F9E1C0;}
	.st15{fill:#FAC087;}
	.st16{fill:#FBF9F9;}
	.st17{fill:#4167A0;}
	.st18{fill:#4C74B9;}
	.st19{fill:#7DA9DA;}
	.st20{opacity:0.15;fill:#7DA9DA;}
	.st21{fill:#67BDC6;}
	.st22{fill:#B1DFE5;}
	.st23{fill:#9DD5DD;}
	.st24{fill:#8FD5DC;}
	.st25{fill:#45A4C1;}
	.st26{fill:#77D1F3;}
	.st27{fill:#4AA146;}
	.st28{fill:#FCFBFA;}
	.st29{fill:#FFFFFF;}
	.st30{fill:#F8B032;}
	.st31{fill:#F59B28;}
	.st32{fill:#FBFAF9;}
	.st33{fill:#C45234;}
	.st34{fill:#E45E39;}
	.st35{fill:#939696;}
	.st36{fill:#B7B8B8;}
	.st37{fill:#F05979;}
	.st38{fill:#B7B8B8;stroke:#121C2B;stroke-width:6;stroke-linecap:round;stroke-linejoin:round;stroke-miterlimit:10;}
	.st39{fill:#FBDE84;}
	.st40{fill:#FDC478;}
	.st41{fill:#D88360;}
</style>
<g id="jupiter">
	<circle id="silhouette_00000010992566078423341930000011651578718305695889_" class="st6" cx="100" cy="100" r="100"/>
	<g>
		<g>
			<path class="st7" d="M20.4,155.2c-5.7-7.7-9.8-16.2-12.6-25.3c-1-3.1-1.7-6.2-2.4-9.3c0-0.2,0-0.4,0-0.6c1.7-0.2,3.4-0.4,5.1-0.6
				c2.5-0.4,5-1,7.5-1.1c4.8-0.3,9.4,0.6,13.9,2.1c3.5,1.1,6.7,2.9,10,4.5c6.5,3.3,13.4,4.9,20.6,5.5c4.4,0.4,8.7,0.3,13.1,0.2
				c2.1,0,4.3-0.2,6.4-0.5c3-0.4,5.9-0.8,8.9-1.3c1.3-0.2,2.6,0,3.8-0.9c4.9,2.4,9.1,1.5,12.4-2.7c0.8,0.5,1.5,0,2.2-0.2
				c3.4-0.9,6.8-1.9,10.1-3c4.6-1.5,9.2-2.9,13.9-4.2c0.3-0.1,0.6-0.1,0.7-0.5c0.9,0,1.9-0.1,2.8-0.4c0.4-0.1,0.8-0.2,0.7,0.5
				c-0.4,3.3,0.6,5.2,3.6,6.7c4.2,2,8.4,1.8,12.4-0.5c3.2-1.8,4-5.5,1.7-8.2c-0.6-0.7-1.3-1.2-2-1.9c2.8-0.7,5.6-1.3,8.5-1.4
				c3.8-0.2,7.6,0.3,11.3,1.3c3.3,0.8,6.6,1.4,10,1.6c4.5,0.3,8.7-0.7,12.9-2c-0.5,5.2-1.6,10.2-3,15.1c-1.3,4.4-2.8,8.8-4.9,13
				c-3.3-0.2-6.6-0.6-9.9-0.6c-4.7-0.1-9.4,0-14.1,0.4c-4.4,0.4-8.8,0.9-13.1,1.7c-7.3,1.3-14.4,3.1-21.6,4.8
				c-4.9,1.1-9.8,1.9-14.7,2.5c-3.8,0.5-7.6,0.4-11.5,0.7c-3,0.2-6.1,0-9.1,0.2c-2.2,0.2-4.5,0.5-6.7,0.9c-5.1,0.8-9.9,2.4-14.8,3.9
				c-6,1.8-12.1,3.3-18.4,3.6c-5.8,0.3-11.6,0.2-17.3-0.7c-4.9-0.7-9.7-1.7-14.4-3C21.7,155.3,21.1,154.9,20.4,155.2z M35.2,131
				c-4.2-0.1-7.3,0.9-9.8,2.1c-3.7,1.9-5.7,5.5-4,10c1,2.5,2.8,4.3,4.8,5.9c3.3,2.6,7,4.4,10.9,5.7c5.5,1.8,11.1,2.7,16.8,2
				c2.6-0.3,5.2-1,7.4-2.5c2.4-1.6,4-3.7,3.8-6.7c-0.2-3-1.9-5.3-4-7.3c-2.7-2.4-5.8-4.2-9.1-5.6C46.8,132.4,41.4,131,35.2,131z"/>
			<path class="st8" d="M193.1,75.4c1.3,4.1,2,8.3,2.5,12.6c-0.4-0.2-0.8-0.2-1.2-0.2c-4.9-0.1-9.7,0.6-14.5,1.7
				c-5.3,1.3-10.5,3.2-15.7,4.7c-5.6,1.6-11.3,2.8-17,3.5c-0.5-1.8-1.1-3.5-2.2-5c-3.6-5.4-11.2-6.4-16.1-2.1c-2,1.8-3.2,4-3.9,6.5
				c-1.7-0.4-3.4-0.7-5.1-1.2c-3.3-0.9-6.5-1.9-9.8-2.9c-4.6-1.4-9.2-2.5-14.1-2.8c-3.4-0.2-6.7-0.1-10,0.2
				c-3.3,0.2-6.6,0.6-9.9,1.1c-1.5,0.2-3,0-4.4,0.6c-0.8-0.9-1.6-1.8-2.6-2.4c-4.7-2.9-9.9-2.2-14.1,2c-0.3-0.3-0.7-0.3-1-0.4
				c-4.9-1.2-9.6-3-14.2-5.2c-3.8-1.8-7.7-3.6-11.7-4.8c-3.6-1.1-7.2-1.7-10.9-1.9c-2.6-0.1-5.3-0.1-7.9,0c-1.1,0-2.2,0.1-3.3,0.4
				c0.4-3.2,1.4-6.2,2.3-9.2c1.6-5.2,3.7-10.1,6.3-14.9c0.5,0,0.9,0.1,1.3,0.2c4.4,1.1,8.9,2.2,13.3,3.3c8.5,2,17.1,3.7,25.8,5.2
				c6.4,1.1,12.9,1.8,19.4,2.4c5,0.4,10,0.7,14.9,0.9c4.1,0.2,8.2,0.4,12.3,0.7c4,0.3,7.9,0.7,11.9,1.1c5.9,0.6,11.6,1.7,17.4,2.8
				c7.1,1.4,14.1,3.1,21.3,4.3c5.1,0.9,10.3,1.5,15.5,1.7c5.5,0.2,11-0.1,16.5-0.9C187.1,76.7,190.1,76.2,193.1,75.4z M61.8,78.3
				c-0.8,0-1.6,0.1-2.4,0.3c-1.9,0.4-3.6,1.3-4.9,2.6c-0.8,0.8-0.8,1.7-0.1,2.4c0.6,0.7,1.5,0.7,2.3,0.1c2.3-1.9,4.9-2.2,7.6-1.6
				c1.1,0.3,1.9-0.2,2.2-1.1c0.3-0.9-0.2-1.7-1.1-2.2C64.3,78.5,63.1,78.3,61.8,78.3z M137.2,78.3c-0.9,0-2,0.1-3.1,0.6
				c-1,0.4-1.5,1.3-1.2,2.2c0.3,0.9,1.1,1.3,2.3,1c2.7-0.6,5.2-0.4,7.4,1.5c1.1,0.9,2.6,0.5,2.8-0.9c0.1-0.8-0.2-1.4-0.8-1.9
				C142.5,79.1,140.1,78.3,137.2,78.3z"/>
			<path class="st9" d="M20.4,155.2c0.7-0.3,1.4,0.1,2,0.3c4.7,1.3,9.5,2.3,14.4,3c5.7,0.8,11.5,0.9,17.3,0.7
				c6.3-0.3,12.4-1.7,18.4-3.6c4.9-1.5,9.7-3.1,14.8-3.9c2.2-0.4,4.4-0.7,6.7-0.9c3-0.3,6.1,0,9.1-0.2c3.8-0.2,7.7-0.2,11.5-0.7
				c4.9-0.6,9.9-1.4,14.7-2.5c7.2-1.7,14.3-3.5,21.6-4.8c4.3-0.8,8.7-1.3,13.1-1.7c4.7-0.4,9.4-0.5,14.1-0.4
				c3.3,0.1,6.6,0.4,9.9,0.6c-1.7,4.2-4,8-6.5,11.8c-3.2,4.9-6.8,9.4-11,13.5c-0.6,0.1-1.1,0.2-1.7,0.3c-10.9,2.5-21.8,4.6-32.9,6
				c-7.6,0.9-15.1,1.2-22.8,0.9c-6.9-0.3-13.8-1.2-20.6-2.2c-7.9-1.1-15.9-1.7-23.8-1.9c-7-0.2-14,0-21-0.3c-3.7-0.2-7.4-0.5-11.1-1
				c-1.9-0.2-3.7-0.8-5.7-0.9c-1.8-1.5-3.3-3.3-4.8-5C24,160.1,22.1,157.8,20.4,155.2z"/>
			<path class="st10" d="M193.1,75.4c-3,0.7-6,1.3-9,1.8c-5.5,0.9-11,1.1-16.5,0.9c-5.2-0.2-10.4-0.8-15.5-1.7
				c-7.1-1.3-14.2-2.9-21.3-4.3c-5.8-1.1-11.6-2.2-17.4-2.8c-3.9-0.4-7.9-0.9-11.9-1.1c-4.1-0.3-8.2-0.5-12.3-0.7
				c-5-0.2-10-0.5-14.9-0.9c-6.5-0.6-13-1.3-19.4-2.4c-8.7-1.4-17.2-3.1-25.8-5.2c-4.5-1.1-8.9-2.2-13.3-3.3
				c-0.4-0.1-0.9-0.2-1.3-0.2c2.9-5.9,6.4-11.4,10.6-16.5c0.3,0.3,0.7,0.4,1.1,0.4c2.5,0.5,5.1,0.9,7.6,1.5
				c10.3,2.4,20.6,4.8,30.9,7.3c10.2,2.4,20.6,3.9,31,4.8c4.2,0.4,8.5,0.7,12.7,0.9c5.7,0.3,11.3,0.7,17,1.1
				c3.9,0.3,7.9,0.7,11.8,1.2c7.1,1,14.2,2.1,21.3,3.1c6.5,1,13,1.3,19.5,0.8c1-0.1,2-0.2,3-0.3c2.1-0.3,4.2-0.5,6.2-0.8
				c1.4,2.3,2.2,4.8,3.1,7.3C191.5,69.4,192.5,72.3,193.1,75.4z"/>
			<path class="st10" d="M147.2,97.7c5.8-0.7,11.4-1.9,17-3.5c5.3-1.5,10.4-3.5,15.7-4.7c4.7-1.1,9.6-1.9,14.5-1.7
				c0.4,0,0.8,0,1.2,0.2c0.6,2.5,0.7,5,0.9,7.6c0.3,5.5,0.2,11-0.4,16.5c0,0.3-0.1,0.7-0.2,1c-4.2,1.3-8.5,2.3-12.9,2
				c-3.4-0.2-6.7-0.8-10-1.6c-3.7-0.9-7.4-1.4-11.3-1.3c-2.8,0.1-5.6,0.7-8.5,1.4c0.7,0.7,1.4,1.2,2,1.9c2.2,2.7,1.5,6.4-1.7,8.2
				c-4,2.3-8.2,2.5-12.4,0.5c-3-1.4-4.1-3.3-3.6-6.7c0.1-0.7-0.3-0.7-0.7-0.5c-0.9,0.3-1.8,0.4-2.8,0.4c-1,0-2,0-2.9-0.1
				c-3-0.1-5.9-0.5-8.8-1.1c-5.4-1-10.4-3.1-15.7-4.3c-0.4-0.5-0.8-1.1-1.2-1.6c-2-2.2-4.4-3.3-7.4-2.7c-1.7,0.3-3,1.3-4.2,2.5
				c-2.6-0.3-5.2-0.1-7.7,0.1c-2.6,0.1-5.3,0.5-7.9,0.8c-2.1,0.2-4.2,0.5-6.3,0.6c-1.4,0.1-2.9,0.2-4.3,0c3.1-1.4,5.1-3.8,6.2-6.9
				c1.6-4.5,0.9-8.8-1.9-12.7c1.4-0.6,2.9-0.4,4.4-0.6c3.3-0.4,6.6-0.9,9.9-1.1c3.3-0.2,6.6-0.4,10-0.2c4.8,0.3,9.5,1.4,14.1,2.8
				c3.3,1,6.5,2,9.8,2.9c1.7,0.5,3.4,0.8,5.1,1.2c-0.5,2.4-0.4,4.8,0.3,7.2c1.5,4.7,5.5,8,10.3,8.2c4.5,0.2,8.7-2.5,10.7-6.9
				C147.4,103,147.5,100.4,147.2,97.7z"/>
			<path class="st7" d="M187.3,59.2c-2.1,0.3-4.2,0.5-6.2,0.8c-1,0.1-2,0.3-3,0.3c-6.5,0.5-13.1,0.1-19.5-0.8
				c-7.1-1-14.2-2.2-21.3-3.1c-3.9-0.5-7.8-0.9-11.8-1.2c-5.7-0.5-11.3-0.8-17-1.1c-4.2-0.2-8.5-0.5-12.7-0.9
				c-10.4-0.9-20.8-2.3-31-4.8c-10.3-2.5-20.6-4.9-30.9-7.3c-2.5-0.6-5.1-1-7.6-1.5c-0.4-0.1-0.8-0.1-1.1-0.4
				c2.6-3.3,5.3-6.4,8.4-9.2c4.4,0.4,8.8,1.2,13.1,2.1c5.1,1.1,10,2.5,15,4.1c7.7,2.5,15.5,5.1,23.4,7c8.7,2,17.5,3.2,26.5,3.6
				c3.7,0.2,7.4,0.2,11.1,0.2c9,0.1,18-0.2,27,0.2c1.2,0.1,2.4,0.1,3.6,0.3c3.6,0.4,7.3,0.7,10.9,1.3c4.2,0.7,8.4,1.3,12.5,1.9
				c2.4,0.4,4.8,0.9,7.2,1C185,54.2,186.4,56.5,187.3,59.2z"/>
			<path class="st8" d="M67.4,111.6c1.4,0.2,2.9,0.1,4.3,0c2.1-0.1,4.2-0.4,6.3-0.6c2.6-0.3,5.3-0.7,7.9-0.8
				c2.6-0.1,5.1-0.4,7.7-0.1c-1.7,2.2-2.8,4.6-3.1,7.4c-0.4,4.1,0.2,7.9,4,10.4c-1.1,0.8-2.5,0.6-3.8,0.9c-2.9,0.5-5.9,1-8.9,1.3
				c-2.1,0.3-4.3,0.5-6.4,0.5c-4.4,0.1-8.7,0.2-13.1-0.2c-7.2-0.7-14.1-2.3-20.6-5.5c-3.3-1.6-6.5-3.4-10-4.5
				c-4.5-1.5-9.2-2.4-13.9-2.1c-2.5,0.2-5,0.7-7.5,1.1c-1.7,0.3-3.4,0.4-5.1,0.6c-0.9-3.5-1.3-7.1-1.6-10.8
				c-0.3-3.2-0.5-6.5-0.3-9.8c0.3,0,0.6-0.1,0.9-0.1c2.6-0.4,5.2-0.9,7.8-1c2.5-0.1,5-0.3,7.5-0.1c2.3,0.2,4.5,0.5,6.8,0.9
				c5,1,9.7,3,14.2,5.4c3.6,1.9,7.4,3.7,11.3,4.9c1.5,0.5,3,1.1,4.7,0.8C60,112.6,63.6,113.2,67.4,111.6z M53,125.4
				c1.9,0.2,3.8-0.4,5.6-1.2c2-1,3.7-2.3,3.9-4.8c0.3-2.8-1.2-4.6-3.5-5.9c-1.4-0.8-3-1.2-4.6-1.3c-3.6-0.3-7.1,0.3-9.7,3.1
				c-2.4,2.5-1.5,5.9,0.5,7.5C47.3,124.6,49.9,125.5,53,125.4z"/>
			<path class="st10" d="M30.9,167.4c1.9,0.1,3.8,0.7,5.7,0.9c3.7,0.5,7.4,0.9,11.1,1c7,0.3,14,0.1,21,0.3c8,0.2,15.9,0.8,23.8,1.9
				c6.9,0.9,13.7,1.8,20.6,2.2c7.6,0.3,15.2,0,22.8-0.9c11.1-1.4,22-3.6,32.9-6c0.5-0.1,1.1-0.2,1.7-0.3
				c-4.9,5.3-10.5,9.8-16.5,13.7c-2.6,1.7-5.2,3.3-7.9,4.7c-0.2-0.2-0.3-0.2-0.4,0c0,0,0,0,0,0c-0.6,0-1.3,0-1.9,0.1
				c-1.8,0.3-3.5,0.6-5.3,0.8c-3.3,0.3-6.6,0.5-9.8,1c-3.9,0.5-7.8,1.2-11.7,1.6c-4.7,0.5-9.3,0.2-13.9-0.6c-5-0.9-9.8-2.6-14.5-4.5
				c-7.9-3.2-16.1-5.1-24.6-5.4c-7.2-0.3-14.4,0.2-21.5-0.5C38.3,174.3,34.4,171.1,30.9,167.4z"/>
			<path class="st9" d="M183.7,51.7c-2.4-0.1-4.8-0.6-7.2-1c-4.2-0.6-8.4-1.3-12.5-1.9c-3.6-0.6-7.3-0.9-10.9-1.3
				c-1.2-0.1-2.4-0.2-3.6-0.3c-9-0.5-18-0.1-27-0.2c-3.7,0-7.4,0-11.1-0.2c-8.9-0.5-17.7-1.6-26.5-3.6c-8-1.8-15.7-4.4-23.4-7
				c-4.9-1.6-9.9-3-15-4.1c-4.3-0.9-8.7-1.7-13.1-2.1c2.8-2.8,5.8-5.4,9-7.7c1.8,0.3,3.6,0.4,5.4,0.8c7.5,1.4,15,3,22.3,5.3
				c9.4,2.9,18.7,5.6,28.4,7.1c4.1,0.7,8.2,1.3,12.3,1.6c3.7,0.3,7.4,0.5,11.1,0.5c8.3,0.1,16.6,0,24.8,0.3c0.2,0,0.4,0,0.6,0
				c3.9,0.4,7.8,0.4,11.7,0.9c3.1,0.4,6.2,0.7,9.4,1c2.7,0.3,5.3,0.9,8,1C179.3,44.2,181.8,47.8,183.7,51.7z"/>
			<path class="st10" d="M54.2,14.9c2.7-1.6,5.7-2.8,8.6-4C71.5,7.5,80.5,5.3,89.7,4c0.3,0,0.7,0,1,0c3.6,1.4,7.1,3,10.6,4.7
				c6,2.9,12.2,5.1,18.6,6.8c5.2,1.3,10.5,2.3,15.9,3c4.7,0.6,9.4,1.1,14.2,1.1c0.3,0,0.7,0.1,1,0.1c1.1,0,2.2,0.3,3.3-0.2
				c4.6,3,8.9,6.4,12.7,10.3c-3.9,0.3-7.7,0.3-11.6,0.3c-8.1-0.1-16.3,0.2-24.4-0.2c-5.1-0.2-10.1-0.6-15.2-1.1
				c-4.7-0.5-9.4-1.2-14-2.2c-7.1-1.5-14.1-3.6-21-5.5c-5.9-1.7-11.7-3.3-17.7-4.5C60.2,16,57.2,15.5,54.2,14.9z"/>
			<path class="st7" d="M54.2,14.9c2.9,0.5,5.9,1,8.8,1.6c6,1.2,11.8,2.9,17.7,4.5c7,2,13.9,4.1,21,5.5c4.6,0.9,9.3,1.7,14,2.2
				c5,0.5,10.1,0.9,15.2,1.1c8.1,0.4,16.3,0.1,24.4,0.2c3.9,0,7.8,0,11.6-0.3c3.6,3.3,6.7,7,9.6,10.9c-2.7-0.1-5.3-0.7-8-1
				c-3.1-0.3-6.3-0.7-9.4-1c-3.9-0.5-7.8-0.5-11.7-0.9c-0.2,0-0.4,0-0.6,0c-8.3-0.3-16.6-0.2-24.8-0.3c-3.7,0-7.4-0.2-11.1-0.5
				c-4.1-0.3-8.2-1-12.3-1.6c-9.7-1.6-19.1-4.3-28.4-7.1C62.9,26,55.5,24.3,47.9,23c-1.8-0.3-3.6-0.5-5.4-0.8
				C46.2,19.4,50,16.9,54.2,14.9z"/>
			<path class="st10" d="M56.6,110.4c-1.6,0.3-3.2-0.3-4.7-0.8c-3.9-1.3-7.7-3-11.3-4.9c-4.5-2.4-9.1-4.4-14.2-5.4
				c-2.2-0.4-4.5-0.7-6.8-0.9c-2.5-0.3-5,0-7.5,0.1c-2.6,0.1-5.2,0.6-7.8,1c-0.3,0-0.6,0.1-0.9,0.1c-0.1-5.1,0.6-10.2,1.5-15.3
				c0.3-1.5,0.4-3.1,1-4.6c1.1-0.3,2.2-0.4,3.3-0.4c2.6-0.1,5.3-0.1,7.9,0c3.7,0.2,7.4,0.8,10.9,1.9c4.1,1.2,7.9,3,11.7,4.8
				c4.6,2.2,9.3,4,14.2,5.2c0.4,0.1,0.7,0.1,1,0.4c-1.9,2.4-3.1,5.1-3.2,8.2C51.7,104.1,53.4,107.6,56.6,110.4z"/>
			<path class="st8" d="M42.5,177.3c7.2,0.7,14.4,0.2,21.5,0.5c8.5,0.3,16.7,2.2,24.6,5.4c4.7,1.9,9.5,3.6,14.5,4.5
				c4.6,0.9,9.2,1.1,13.9,0.6c3.9-0.4,7.8-1.1,11.7-1.6c3.3-0.4,6.6-0.6,9.8-1c1.8-0.2,3.6-0.5,5.3-0.8c0.6-0.1,1.3-0.1,1.9-0.1
				c-0.2,0.5-0.7,0.6-1.1,0.8c-9.4,4.8-19.3,8.3-29.8,9.9c-11.9,1.8-23.7,1.4-35.5-1.3c-13.2-3-25.2-8.6-36.2-16.3
				C43,177.7,42.7,177.5,42.5,177.3z"/>
			<path class="st8" d="M154.3,19.5c-1.1,0.5-2.2,0.2-3.3,0.2c-0.3,0-0.7-0.1-1-0.1c-4.8,0-9.5-0.5-14.2-1.1
				c-5.4-0.7-10.6-1.7-15.9-3c-6.4-1.6-12.6-3.9-18.6-6.8C97.8,7,94.3,5.4,90.7,4c6-0.8,12-0.8,18-0.3c8.3,0.7,16.4,2.5,24.3,5.2
				C140.6,11.5,147.7,15,154.3,19.5z"/>
			<path class="st8" d="M145.7,184.9c0.1-0.2,0.3-0.3,0.4,0C146,184.9,145.8,184.9,145.7,184.9z"/>
			<path class="st9" d="M35.2,131c6.2,0,11.6,1.4,16.9,3.6c3.3,1.4,6.4,3.2,9.1,5.6c2.2,2,3.8,4.3,4,7.3c0.2,3-1.4,5.1-3.8,6.7
				c-2.2,1.5-4.8,2.2-7.4,2.5c-5.8,0.7-11.4-0.2-16.8-2c-4-1.3-7.7-3.1-10.9-5.7c-2-1.6-3.8-3.4-4.8-5.9c-1.8-4.4,0.2-8,4-10
				C27.9,131.9,31,130.9,35.2,131z M38.5,136c-2.4-0.1-4.7,0.2-6.8,1.2c-2.8,1.3-4.5,4.1-2.3,7.3c0.9,1.4,2,2.5,3.4,3.4
				c5.3,3.5,11.2,5.1,17.5,4.3c1.8-0.2,3.5-0.7,5-1.8c1.9-1.4,2.5-3.4,1.6-5.4c-0.6-1.3-1.4-2.4-2.5-3.3C49.7,138,44.5,136,38.5,136
				z"/>
			<g>
				<path class="st3" d="M94.6,127.9c-3.7-2.6-4.4-6.3-4-10.4c0.3-2.7,1.3-5.2,3.1-7.4c1.2-1.1,2.5-2.1,4.2-2.5
					c3-0.6,5.4,0.5,7.4,2.7c0.4,0.5,0.8,1.1,1.2,1.6c2.2,4.3,2.8,8.8,0.5,13.3C103.6,129.4,99.5,130.4,94.6,127.9z M93.7,120.5
					c-0.2,0.4,0.1,0.8,0.2,1.2c0.8,2.9,2.9,4.4,5.9,4.2c2.9-0.2,4.8-2,5.2-4.9c0.3-2.8-0.2-5.4-1.8-7.7c-1.7-2.5-4.3-3.1-6.4-1.5
					c-1.1,0.8-1.8,1.9-2.3,3.1C94,116.7,93.6,118.6,93.7,120.5z"/>
			</g>
			<path class="st8" d="M107,125.2c2.3-4.5,1.7-8.9-0.5-13.3c5.3,1.3,10.4,3.3,15.7,4.3c2.9,0.5,5.8,0.9,8.8,1.1c1,0,2,0,2.9,0.1
				c-0.1,0.4-0.4,0.4-0.7,0.5c-4.7,1.2-9.3,2.7-13.9,4.2c-3.4,1.1-6.7,2-10.1,3C108.5,125.2,107.8,125.7,107,125.2z"/>
			<g>
				<path class="st3" d="M147.2,97.7c0.3,2.7,0.2,5.3-0.9,7.8c-2,4.4-6.2,7.2-10.7,6.9c-4.7-0.3-8.8-3.5-10.3-8.2
					c-0.8-2.4-0.8-4.8-0.3-7.2c0.8-2.5,1.9-4.7,3.9-6.5c4.9-4.3,12.5-3.3,16.1,2.1C146.1,94.3,146.8,95.9,147.2,97.7z M139.2,100.2
					c2.3,0,4.2-1.8,4.2-4.1c0-2.2-1.8-4-4-4.1c-2.2,0-4.1,1.8-4.1,4C135.2,98.3,137,100.2,139.2,100.2z"/>
			</g>
			<g>
				<path class="st3" d="M56.6,110.4c-3.2-2.8-4.9-6.3-4.8-10.5c0.1-3.1,1.2-5.8,3.2-8.2c4.2-4.2,9.4-4.9,14.1-2
					c1,0.6,1.8,1.5,2.6,2.4c2.8,3.9,3.5,8.1,1.9,12.7c-1.1,3.1-3.2,5.5-6.2,6.9C63.6,113.2,60,112.6,56.6,110.4z M66.3,100.2
					c2.3,0,4.1-1.9,4.1-4.1c0-2.2-1.8-4-4-4c-2.3,0-4.1,1.8-4.1,4.2C62.3,98.4,64.1,100.2,66.3,100.2z"/>
			</g>
			<g>
				<path class="st3" d="M61.8,78.3c1.3-0.1,2.5,0.1,3.6,0.6c1,0.4,1.4,1.3,1.1,2.2c-0.3,0.9-1.1,1.3-2.2,1.1
					c-2.8-0.7-5.4-0.3-7.6,1.6c-0.8,0.7-1.7,0.6-2.3-0.1c-0.6-0.7-0.7-1.7,0.1-2.4c1.4-1.4,3-2.2,4.9-2.6
					C60.2,78.4,61,78.3,61.8,78.3z"/>
			</g>
			<g>
				<path class="st3" d="M137.2,78.3c3,0,5.3,0.8,7.3,2.6c0.6,0.5,0.9,1.1,0.8,1.9c-0.2,1.3-1.7,1.8-2.8,0.9
					c-2.2-1.9-4.7-2.1-7.4-1.5c-1.2,0.3-2-0.1-2.3-1c-0.3-0.9,0.2-1.8,1.2-2.2C135.1,78.5,136.3,78.3,137.2,78.3z"/>
			</g>
			<path class="st10" d="M53,125.4c-3.1,0.1-5.6-0.8-7.8-2.6c-2-1.6-2.9-5-0.5-7.5c2.7-2.8,6.1-3.5,9.7-3.1c1.6,0.1,3.2,0.5,4.6,1.3
				c2.3,1.3,3.8,3.1,3.5,5.9c-0.2,2.4-1.9,3.8-3.9,4.8C56.7,125.1,54.8,125.6,53,125.4z"/>
			<path class="st7" d="M38.5,136c5.9,0.1,11.2,2,15.9,5.7c1.1,0.9,1.9,2,2.5,3.3c0.9,2.1,0.3,4.1-1.6,5.4c-1.5,1.1-3.2,1.6-5,1.8
				c-6.4,0.8-12.2-0.9-17.5-4.3c-1.4-0.9-2.5-2-3.4-3.4c-2.2-3.3-0.5-6.1,2.3-7.3C33.8,136.2,36.1,135.9,38.5,136z"/>
			<path class="st8" d="M105.1,120.9c-0.4,2.9-2.4,4.8-5.2,4.9c-3,0.2-5.1-1.3-5.9-4.2c-0.1-0.4-0.4-0.7-0.2-1.2
				c0.4,0,0.6-0.3,0.8-0.6c1.6-1.7,3.5-2.4,5.8-2.1C102.4,118.1,104.1,118.9,105.1,120.9z"/>
			<path class="st9" d="M105.1,120.9c-0.9-2-2.7-2.8-4.7-3.1c-2.3-0.3-4.2,0.5-5.8,2.1c-0.2,0.2-0.4,0.6-0.8,0.6
				c-0.2-1.9,0.3-3.8,0.9-5.6c0.4-1.3,1.2-2.3,2.3-3.1c2.1-1.6,4.7-1,6.4,1.5C104.8,115.5,105.4,118.2,105.1,120.9z"/>
			<path class="st11" d="M139.2,100.2c-2.2,0-3.9-1.9-3.9-4.1c0-2.3,1.9-4.1,4.1-4c2.2,0,4,1.9,4,4.1
				C143.4,98.4,141.5,100.2,139.2,100.2z"/>
			<path class="st11" d="M66.3,100.2c-2.2,0-4.1-1.8-4.1-3.9c0-2.3,1.8-4.2,4.1-4.2c2.2,0,4,1.8,4,4
				C70.4,98.3,68.6,100.2,66.3,100.2z"/>
		</g>
	</g>
	<ellipse class="st12" cx="52.6" cy="118.9" rx="10.5" ry="7"/>
	<ellipse class="st12" cx="147.3" cy="118.9" rx="10.5" ry="7"/>
</g>
</svg>
