<?xml version="1.0" encoding="utf-8"?>
<!-- Generator: Adobe Illustrator 27.9.1, SVG Export Plug-In . SVG Version: 6.00 Build 0)  -->
<svg version="1.1" id="Layer_1" xmlns="http://www.w3.org/2000/svg" xmlns:xlink="http://www.w3.org/1999/xlink" x="0px" y="0px"
	 viewBox="0 0 500 500" style="enable-background:new 0 0 500 500;" xml:space="preserve">
<style type="text/css">
	.st0{fill:#5593CE;}
	.st1{fill:#F58A21;}
	.st2{fill:#FCFBFB;}
	.st3{fill:#FECF3F;}
	.st4{fill:#F37769;}
	.st5{fill:#3E2A15;}
	.st6{fill:#FBBC1F;}
	.st7{fill:#FED653;}
	.st8{fill:#473219;}
	.st9{fill:#F69B84;}
	.st10{fill:#77D1F3;}
	.st11{fill:#61A143;}
	.st12{fill:#84C2EA;}
	.st13{fill:#F59892;}
	.st14{fill:#412F19;}
	.st15{fill:#FCFBFA;}
	.st16{fill:#E45E39;}
	.st17{fill:#C45234;}
	.st18{fill:#C45235;}
	.st19{fill:#F26C57;}
	.st20{fill:#382917;}
	.st21{fill:#FDFCFB;}
	.st22{fill:#EC8524;}
	.st23{fill:#F8B032;}
	.st24{fill:#F59B28;}
	.st25{fill:#F5856B;}
	.st26{fill:#3C2916;}
	.st27{fill:#FBFAF9;}
	.st28{fill:#67BDC6;}
	.st29{fill:#B1DFE5;}
	.st30{fill:#9DD5DD;}
	.st31{fill:#8BCBD5;}
	.st32{fill:#152732;}
	.st33{fill:#215D6B;}
	.st34{fill:#4C74B9;}
	.st35{fill:#7DA9DA;}
	.st36{fill:#121D2B;}
	.st37{fill:#8C9CCF;}
	.st38{fill:#F3F2F3;}
	.st39{fill:#B54C33;}
	.st40{fill:#D67140;}
	.st41{fill:#E88F53;}
	.st42{fill:#F8AD71;}
	.st43{fill:#28201B;}
	.st44{fill:#FCC330;}
	.st45{fill:#FDDC65;}
	.st46{fill:#F7A280;}
	.st47{fill:#4B331B;}
	.st48{fill:#EFD1B6;}
	.st49{fill:#F8E1C7;}
	.st50{fill:#C4A998;}
	.st51{fill:#B8A395;}
	.st52{fill:#8F7A6F;}
	.st53{fill:#162430;}
	.st54{fill:#FFFFFF;}
	.st55{fill:#939696;}
	.st56{fill:#FDFCFC;}
	.st57{fill:#B7B8B8;}
	.st58{fill:#929595;}
	.st59{fill:#F7F5F4;}
	.st60{fill:#939595;}
	.st61{fill:#949697;}
	.st62{fill:#D9D9D9;}
	.st63{fill:#261D12;}
	.st64{fill:#251E14;}
	.st65{fill:#F07F7D;}
	.st66{fill:#F3F1F0;}
	.st67{fill:#F0EEED;}
	.st68{fill:#F58E4E;}
	.st69{fill:#F8AE5E;}
	.st70{fill:#F9E1C0;}
	.st71{fill:#FAC087;}
	.st72{fill:#3C2613;}
	.st73{fill:#FBF9F9;}
</style>
<path id="silhouette" class="st44" d="M444.5,406.1c-7.8-8.3-27.9-0.7-39.2-2.7c-100.3-0.2-180.9-99.2-165.6-194.9
	c8.8-74,66.3-136.4,137-157.3c60-25.7-72.2-53.1-88.1-49.5C118.1-4.6-8.4,172.1,48.7,331.5c53.2,165.4,261.7,227.7,387.1,100.7
	C442.5,426,451.5,414.6,444.5,406.1z"/>
<g>
	<g>
		<g>
			<path class="st45" d="M439.1,416.2c0.5-1.3,0.7-2.4,0.4-3.3c-0.2-2.1-1.4-3-4.1-3c-0.4,0-0.8,0-1.2,0c-3-0.3-7.4-0.1-13.5,0.9
				c0,0,0,0,0,0c-11.7,0.3-23.4,0-35.1-1.6c-1.9-0.3-3.7-0.5-5.6-0.9c0,0,0,0,0,0c-18.6-3.2-36.3-9.2-53.1-18
				c-7.4-3.9-14.5-8.2-21.2-12.9c-33-24.1-57.4-59.5-68.6-98.8c-0.6-2.2-1.2-4.4-1.7-6.6c-2.8-12.2-4.4-24.5-4.8-37
				c-0.2-5.2,0-10.3,0.3-15.5c0.7-9.4,1.8-18.7,3.9-27.9c0-0.1,0-0.1,0-0.2c0,0,0-0.1,0-0.1c4.5-20,11.9-38.8,22.2-56.3
				c16.5-27.8,39.8-51.4,67.3-68.7c5.7-3.5,11.5-6.7,17.5-9.7c11.2-5.5,22.7-10.2,34.8-13.6c0,0,0,0,0.1,0c0,0,0,0,0,0
				c2-0.6,3.8-1.5,5.5-2.7c2.1-1.6,2.5-4.1,0.7-6c-0.2-0.2-0.3-0.3-0.5-0.5c-3.7-4.6-15.4-9.3-29.6-13.4
				c-16.6-5.4-33.7-9.1-51.6-10.6c-10.6-1.4-18.7-1.7-21.3-0.7c-2.5,0-5,0.1-7.5,0.2c-1.9,0-4,0.1-6,0.2c-9.1,0.5-18.1,1.6-26.9,3.3
				c-42.9,7.5-80.9,26.4-111.7,52.9c-3.4,2.9-6.8,5.9-10.1,9c-7.1,6.6-13.7,13.9-19.9,21.3c-11,13.1-20.2,27.2-28.1,42.3
				c-6.7,12.8-11.9,26.2-16.1,40c-2.9,9.5-5.2,19.2-7,28.9c-8.9,47.9-3.6,99.3,19.5,147.9c0,0,0,0.1,0.1,0.1c0,0.1,0.1,0.1,0.1,0.2
				c18,38.7,44.7,70.2,76.3,93.2c4.8,3.5,9.7,6.9,14.7,10.1c13.9,8.8,28.7,16,44.3,21.5c12.3,4.3,24.8,7.5,37.7,9.5
				c9.5,1.4,19.1,2.5,28.7,2.9c11.4,0.5,22.9-0.4,34.2-1.9c0.3,0,0.5-0.1,0.8-0.1c39.4-5.2,78.3-21.4,112.8-50.2
				c0.1-0.1,0.2-0.2,0.3-0.2c4-3.3,7.9-6.8,11.7-10.4c3.5-3.3,6.9-6.7,9.1-9.8c0,0,0.1-0.1,0.1-0.1
				C437.9,418.8,438.7,417.5,439.1,416.2z"/>
		</g>
	</g>
	<path class="st46" d="M103.8,263.7c-4.3-6.4-10.5-9.7-18.2-10c-9.2-0.4-16.9,2.7-22.7,9.8c-6.6,8.2-5.8,19.2,1.9,26.1
		c4.7,4.2,10.3,5.9,16.2,5.7c8.3,0.2,15-2.4,20.6-8.2C107.6,280.8,108.7,271,103.8,263.7z"/>
	<path class="st47" d="M120.7,192.4c0,2.1-0.9,4.2-3.2,5.4c-2.9,1.6-5.4,0.7-8.1-0.9c-10.6-6.6-21.7-5.9-30.5,1.6
		c-3.4,2.9-5.8,6.5-7.5,10.7c-1.8,4.3-5.2,5.9-8.8,4.4c-3.5-1.4-5-5.3-3.6-9.3c7.6-23.2,37.3-33.2,57.2-19.3
		C118.6,186.8,120.5,188.7,120.7,192.4z"/>
	<path class="st47" d="M230.2,188.7c-0.3,2.8-1.6,5.3-4.6,6.3c-3.6,1.1-6.1-0.5-8.2-3.4c-5.6-7.8-13.2-11.3-22.8-10.5
		c-5.8,0.4-10.7,2.9-14.8,7c-3.7,3.7-7.3,4.1-10.2,1.4c-2.9-2.7-2.7-6.5,0.5-10.4c12.9-15.8,38.6-16,54.3-0.4
		C228.6,182.9,230.2,185.6,230.2,188.7z"/>
	<path class="st47" d="M120.9,257.4c0.9-2.6,2.7-4.7,5.9-5c3.7-0.3,5.7,1.9,7.1,5.1c3.6,8.7,10.1,13.8,19.3,15.3
		c5.6,0.9,10.8-0.4,15.7-3.3c4.4-2.7,7.9-2.2,10.1,1c2.1,3.2,1.1,6.9-2.8,9.8c-15.9,12.1-40.5,6.4-51.9-12
		C121.1,263.4,120.2,260.4,120.9,257.4z"/>
</g>
</svg>
