<?xml version="1.0" encoding="utf-8"?>
<!-- Generator: Adobe Illustrator 27.9.1, SVG Export Plug-In . SVG Version: 6.00 Build 0)  -->
<svg version="1.1" id="Layer_1" xmlns="http://www.w3.org/2000/svg" xmlns:xlink="http://www.w3.org/1999/xlink" x="0px" y="0px"
	 viewBox="0 0 199.4 198" style="enable-background:new 0 0 199.4 198;" xml:space="preserve">
<style type="text/css">
	.st0{fill:#EC8524;}
	.st1{fill:#FED653;}
	.st2{fill:#1F2F3D;}
	.st3{fill:#F58A21;}
</style>
<path id="silhouette_00000134216601887540676290000013661496143564448648_" class="st0" d="M31.7,172.3c-5.2-4.8,1.4-19.7-2.4-25.3
	c-4-5.8-20.2-5.1-22.7-11.5c-2.5-6.5,9.9-17,8.9-23.8c-1-6.9-16-13.3-15.5-20.2c0.5-6.9,16.3-11,18.3-17.7c2-6.6-8.7-18.8-5.2-24.9
	c3.4-5.9,19.4-2.7,24.2-7.9s0.5-20.9,6.1-24.7c5.8-4,18.8,5.8,25.2,3.3C75.1,17.1,78,1,84.8,0c6.9-1,14.4,13.4,21.3,13.9
	s16.4-12.7,23.1-10.6c6.6,2,7,18.3,13.1,21.8c5.9,3.4,20.2-4.3,25.4,0.5s-1.4,19.7,2.4,25.3c4,5.8,20.2,5.1,22.7,11.5
	c2.5,6.5-9.9,17-8.9,23.8c1,6.9,16,13.3,15.5,20.2c-0.5,6.9-16.3,11-18.3,17.7c-2,6.6,8.7,18.8,5.2,24.9c-3.4,5.9-19.4,2.7-24.2,7.9
	s-0.5,20.9-6.1,24.7c-5.8,4-18.8-5.8-25.2-3.3c-6.5,2.5-9.4,18.6-16.2,19.6c-6.9,1-14.4-13.4-21.3-13.9s-16.4,12.7-23.1,10.6
	c-6.6-2-7-18.3-13.1-21.8C51.2,169.4,36.9,177.1,31.7,172.3z"/>
</svg>
