<?xml version="1.0" encoding="utf-8"?>
<!-- Generator: Adobe Illustrator 27.9.1, SVG Export Plug-In . SVG Version: 6.00 Build 0)  -->
<svg version="1.1" id="Layer_1" xmlns="http://www.w3.org/2000/svg" xmlns:xlink="http://www.w3.org/1999/xlink" x="0px" y="0px"
	 viewBox="0 0 200 200" style="enable-background:new 0 0 200 200;" xml:space="preserve">
<style type="text/css">
	.st0{fill:#C45234;}
	.st1{fill:#E45E39;}
	.st2{fill:#F37769;}
	.st3{fill:#1F2F3D;}
	.st4{fill:#FFFFFF;}
</style>
<g>
	<g>
		<g>
			<path class="st3" d="M127.9,101l33.8-6c3.6-0.6,6.1-4.1,5.4-7.8l0,0c-0.6-3.6-4.1-6.1-7.8-5.4l-33.8,6c-3.6,0.6-6.1,4.1-5.4,7.8
				l0,0C120.8,99.2,124.3,101.6,127.9,101z"/>
		</g>
		<g>
			<circle class="st3" cx="138.2" cy="102.5" r="15.8"/>
		</g>
		<circle class="st4" cx="132.7" cy="99.6" r="4.5"/>
	</g>
	<g>
		<g>
			<path class="st3" d="M72.1,101l-33.8-6c-3.6-0.6-6.1-4.1-5.4-7.8l0,0c0.6-3.6,4.1-6.1,7.8-5.4l33.8,6c3.6,0.6,6.1,4.1,5.4,7.8
				l0,0C79.2,99.2,75.7,101.6,72.1,101z"/>
		</g>
		<g>
			<circle class="st3" cx="61.8" cy="102.5" r="15.8"/>
		</g>
		<circle class="st4" cx="67.3" cy="99.6" r="4.5"/>
	</g>
</g>
<g>
	<g>
		<g>
			<path class="st3" d="M114.9,143.3c-1.4,0-2.8-0.6-3.8-1.7c-1.5-1.8-3.3-3.1-5.3-4.1c-3.6-1.7-7.7-1.7-11.4-0.2
				c-2.1,0.9-4.1,2.4-5.7,4.2c-1.8,2.1-5,2.3-7.1,0.5s-2.3-5-0.5-7.1c2.6-3,5.8-5.3,9.2-6.8c3-1.3,6.2-2,9.5-2
				c3.5,0,6.9,0.8,10.1,2.3c3.3,1.5,6.2,3.7,8.6,6.6c1.8,2.1,1.6,5.2-0.5,7.1C117.3,142.9,116.1,143.3,114.9,143.3z"/>
		</g>
	</g>
</g>
</svg>
