<?xml version="1.0" encoding="utf-8"?>
<!-- Generator: Adobe Illustrator 27.9.1, SVG Export Plug-In . SVG Version: 6.00 Build 0)  -->
<svg version="1.1" id="Layer_1" xmlns="http://www.w3.org/2000/svg" xmlns:xlink="http://www.w3.org/1999/xlink" x="0px" y="0px"
	 viewBox="0 0 200 200" style="enable-background:new 0 0 200 200;" xml:space="preserve">
<style type="text/css">
	.st0{fill:#141317;}
	.st1{fill:#FED653;}
	.st2{fill:#EDA229;}
	.st3{fill:#F7C22D;}
	.st4{fill:#D4A01C;}
	.st5{fill:#FAFAFA;}
	.st6{fill:#FFFFFF;}
</style>
<g>
	<g>
		<path class="st0" d="M97.5,156.8c-7.4,0-13.4-5.8-13.4-13c0-7.5,5.8-13.5,13.2-13.5c7.4,0,13.4,5.7,13.4,13
			C110.8,150.6,104.7,156.9,97.5,156.8z"/>
	</g>
</g>
<path class="st0" d="M40.3,96.5l0.2,0.3c0.8,1.1,2,1.7,3.3,1.7c0.7,0,1.4-0.2,2-0.5c2.7-1.5,5.8-2.2,8.9-2.2
	c6.4,0,12.2,3.2,15.7,8.4c0.8,1.2,2.1,1.9,3.5,1.9c0.6,0,1.2-0.1,1.7-0.4l0.3-0.2c1.1-0.5,1.9-1.4,2.2-2.6c0.3-1.1,0.1-2.4-0.5-3.3
	c-5-7.8-13.6-12.4-22.9-12.4c-4.5,0-9.1,1.2-13,3.3c-1,0.6-1.8,1.6-2,2.7C39.3,94.3,39.6,95.5,40.3,96.5z"/>
<path class="st0" d="M135.7,106l0.2,0.3c0.8,1.2,2.2,1.8,3.6,1.8c0.8,0,1.5-0.2,2.2-0.6c3-1.6,6.4-2.5,9.7-2.5
	c7,0,13.4,3.5,17.3,9.3c0.9,1.3,2.3,2.1,3.8,2.1c0.7,0,1.3-0.1,1.9-0.4l0.4-0.2c1.2-0.6,2-1.6,2.4-2.8c0.4-1.2,0.2-2.6-0.6-3.7
	c-5.5-8.5-15-13.6-25.2-13.6c-5,0-10,1.3-14.3,3.7c-1.1,0.6-1.9,1.7-2.2,3C134.6,103.7,134.9,105,135.7,106z"/>
</svg>
