<?xml version="1.0" encoding="utf-8"?>
<!-- Generator: Adobe Illustrator 27.9.1, SVG Export Plug-In . SVG Version: 6.00 Build 0)  -->
<svg version="1.1" id="Layer_1" xmlns="http://www.w3.org/2000/svg" xmlns:xlink="http://www.w3.org/1999/xlink" x="0px" y="0px"
	 viewBox="0 0 200 200" style="enable-background:new 0 0 200 200;" xml:space="preserve">
<style type="text/css">
	.st0{fill:#1F2F3D;}
	.st1{fill:#FCFBFA;}
	.st2{fill:#F37769;}
</style>
<g>
	<g>
		<g>
			<path class="st0" d="M62.7,86.5c0-5.9,4.8-10.6,10.7-10.5c5.8,0.1,10.5,4.9,10.4,10.7c-0.1,5.6-4.9,10.4-10.6,10.3
				C67.4,97,62.7,92.2,62.7,86.5z M66.4,83c0,1.9,1.6,3.5,3.4,3.5c1.9,0,3.5-1.6,3.5-3.5c0-1.8-1.6-3.4-3.5-3.4S66.4,81.1,66.4,83z"
				/>
		</g>
		<path class="st1" d="M66.4,83c0-1.9,1.5-3.4,3.4-3.4s3.4,1.6,3.5,3.4c0,1.9-1.6,3.6-3.5,3.5S66.4,84.8,66.4,83z"/>
	</g>
	<g>
		<g>
			<path class="st0" d="M112.6,86.5c0-5.9,4.8-10.6,10.7-10.5c5.8,0.1,10.5,4.9,10.4,10.7c-0.1,5.6-4.9,10.4-10.6,10.3
				C117.3,97,112.6,92.2,112.6,86.5z M116.3,83c0,1.9,1.6,3.5,3.4,3.5c1.9,0,3.5-1.6,3.5-3.5c0-1.8-1.6-3.4-3.5-3.4
				S116.3,81.1,116.3,83z"/>
		</g>
		<path class="st1" d="M116.3,83c0-1.9,1.5-3.4,3.4-3.4s3.4,1.6,3.5,3.4c0,1.9-1.6,3.6-3.5,3.5S116.3,84.8,116.3,83z"/>
	</g>
	<g>
		<g>
			<path class="st0" d="M107.2,118.4c-1.1,0-2.2-0.6-2.7-1.7c-1.1-2.3-3.3-3.7-5.9-3.7s-4.8,1.4-5.9,3.7c-0.7,1.5-2.5,2.1-4,1.4
				s-2.1-2.5-1.4-4c2.1-4.3,6.4-7,11.3-7c4.8,0,9.2,2.7,11.3,7c0.7,1.5,0.1,3.3-1.4,4C108,118.3,107.6,118.4,107.2,118.4z"/>
		</g>
	</g>
	<ellipse class="st2" cx="70.7" cy="111.9" rx="6.3" ry="2.7"/>
	<ellipse class="st2" cx="125.8" cy="111.9" rx="6.3" ry="2.7"/>
</g>
</svg>
