<?xml version="1.0" encoding="utf-8"?>
<!-- Generator: Adobe Illustrator 27.9.1, SVG Export Plug-In . SVG Version: 6.00 Build 0)  -->
<svg version="1.1" id="Layer_1" xmlns="http://www.w3.org/2000/svg" xmlns:xlink="http://www.w3.org/1999/xlink" x="0px" y="0px"
	 viewBox="0 0 200 200" style="enable-background:new 0 0 200 200;" xml:space="preserve">
<style type="text/css">
	.st0{fill:#45A4C1;}
	.st1{fill:#77D1F3;}
	.st2{fill:#4AA146;}
	.st3{fill:#FFFFFF;}
</style>
<g id="earth">
	<circle id="silhouette_00000041296516116017988670000013559545380727220869_" class="st0" cx="100" cy="100" r="100"/>
	<g>
		<g>
			<g>
				<path class="st1" d="M195.4,100c0,52.7-42.7,95.4-95.4,95.4S4.6,152.7,4.6,100c0-10.6,1.7-20.7,4.9-30.2
					c6.5-19.6,19.3-36.4,35.9-48C60.9,11,79.7,4.6,100,4.6c16.8,0,32.6,4.3,46.3,12l0,0c25.3,14,43.5,39.3,48,69l0,0
					C195,90.3,195.4,95.1,195.4,100z"/>
				<path class="st2" d="M81.7,149.1c-2.9,4.1-7.5,7.7-7,13.2c0.8,7,10.6,17-1.8,19.3c-14.1,0.8-21.8-12.6-23.5-24.9
					c-5-15.9-27.1-11-15.5-36.3c2.3-14.9-20-11.3-19-28.9c1.2-9.2-2.5-14.3-5.4-21.8c6.5-19.6,19.3-36.4,35.9-48
					c3.3,0.8,5.8,3.7,9.7,2.1c9.9-6.3,27.3-6.5,29.2,8c1,11.4-17.1,12.2-15.5,24c0.9,14-21.6,9.9-22.5,23.5
					c-0.2,2.2-1.5,3.7-3.3,3.9c-1,0.1-1.9-0.2-2.7-0.7c-5.1-3.9-12.1-0.8-13.1,6.3c-1.7,14.4,13.9,4.4,12.3,15.1
					c-1,3.1-0.4,6.8,2.8,8.1c2.9,1.3,5.6-1.1,8.5-1c-4.3,10.9,11.2,16.4,18.7,10.4c1.4,1.7,3.5,2.4,5.4,3.3
					C84.8,128.4,88.1,140.9,81.7,149.1z"/>
				<path class="st2" d="M186.5,93.1c6.1,3.8,7.9,11.4,4.1,17.5c-9.3,9.5-5.4,19.8-10.7,30.7c-5.1,9.2-14.3,22.1-25.7,22.7
					c-11.8-3.3,1.4-16.6-4.8-23.8c-4-5.2-6.8-11.7-4.3-18.2c5.1-2.4,7.2-8.6,3.9-13.4c6.9-11.8,1.6-18.8-9.8-23.5
					c-5.9-3.6-6.9-12.5-1-16.6c6.7-5.1,14.4-2.5,20.9,1.4c4.7,3.1,12.1-0.8,9.9-6.8c-6-10.5-11.4,6.9-18.7-8.9
					c-3.7-4.8-9-3.7-12,0.3c-2.3,4.7-4.7,10.7-11.3,9.4c-8.4-0.6-12-14-1.5-14.3c7.4-5-6.7-10.7,14.4-19.5c3.3-2.4-0.2-6.3,1.4-9.5
					c1-2.4,2.8-3.6,4.9-4l0,0c25.3,14,43.5,39.3,48,69l0,0c-2.3,1.4-4.8,0.4-7.2-0.1C182,85.2,183.2,91.4,186.5,93.1z"/>
				<path class="st2" d="M131.2,24.3c0,2.7-1.8,4.5-4.8,4.6c-3.2-0.2-5.5,3.6-8.6,1.7c-3.4-2.2-2.3-7.6,0-10.3
					C121.7,15.9,131.3,17.5,131.2,24.3z"/>
			</g>
			<path class="st3" d="M115.3,179.3c-9.2-6-25.2-3.2-22.6-0.4s2.8,5.6-2.8,10.8c-2.9,2.7-9.6,2.8-15.3,2.3
				c7.1,1.9,14.5,3.1,22.2,3.3c1,0,2,0.1,3.1,0.1l0,0c1,0,2.1,0,3.1-0.1c17.1-0.5,33.1-5.6,46.8-14c-0.8,0.3-1.6,0.7-2.3,1
				C135.1,187.7,124.5,185.4,115.3,179.3z"/>
			<path class="st3" d="M128.2,177.9c0,0,5.9,2.6,12.4,0s0.8-7-4.6-7.3c-5.3-0.3-8.1,4-12.2,1.9S124.3,177.7,128.2,177.9z"/>
			<path class="st3" d="M133,10.5c-0.2-0.1-0.4-0.2-0.6-0.3c-10.1-3.7-21-5.7-32.4-5.7c-11.1,0-21.7,1.9-31.6,5.4
				C68.3,10,68.1,10,68,10.1c0.1,0.2,1.7,5.7,12.2,1.6c10.7-4.1,17,0.8,16,6.1c-1,5.2,9.1-1.2,14.1-4.9
				C114.5,9.8,128.5,11.9,133,10.5z"/>
		</g>
	</g>
</g>
</svg>
