<?xml version="1.0" encoding="utf-8"?>
<!-- Generator: Adobe Illustrator 27.9.1, SVG Export Plug-In . SVG Version: 6.00 Build 0)  -->
<svg version="1.1" id="Layer_1" xmlns="http://www.w3.org/2000/svg" xmlns:xlink="http://www.w3.org/1999/xlink" x="0px" y="0px"
	 viewBox="0 0 200 200" style="enable-background:new 0 0 200 200;" xml:space="preserve">
<style type="text/css">
	.st0{fill:#B54C33;}
	.st1{fill:#C96E43;}
	.st2{fill:#E88F53;}
	.st3{fill:#F8AE5E;}
	.st4{fill:#1F2F3D;}
	.st5{fill:#FFFFFF;}
</style>
<g>
	<g>
		<path class="st4" d="M127.3,117.7c-8.9-5.1-19.3-5.2-28-1.4c-8.7-3.8-19.1-3.7-28,1.4c-9,5.1-14.4,14-15.5,23.5
			c8.7,3.9,19.2,3.8,28.1-1.3c8.6-4.9,14-13.3,15.4-22.4c1.4,9.1,6.7,17.5,15.4,22.4c9,5.1,19.4,5.3,28.1,1.3
			C141.7,131.7,136.2,122.8,127.3,117.7z"/>
	</g>
	<path class="st4" d="M135,98l7.3-7.3c1.4-1.4,1.4-3.8,0-5.2s-3.8-1.4-5.2,0L124.7,98l0,0l12.5,12.5c1.4,1.4,3.8,1.4,5.2,0h0
		c1.4-1.4,1.4-3.8,0-5.2L135,98z"/>
	<path class="st4" d="M64.1,98l-7.3-7.3c-1.4-1.4-1.4-3.8,0-5.2s3.8-1.4,5.2,0L74.4,98l0,0L62,110.5c-1.4,1.4-3.8,1.4-5.2,0h0
		c-1.4-1.4-1.4-3.8,0-5.2L64.1,98z"/>
</g>
</svg>
