<?xml version="1.0" encoding="utf-8"?>
<!-- Generator: Adobe Illustrator 27.9.1, SVG Export Plug-In . SVG Version: 6.00 Build 0)  -->
<svg version="1.1" id="Layer_1" xmlns="http://www.w3.org/2000/svg" xmlns:xlink="http://www.w3.org/1999/xlink" x="0px" y="0px"
	 viewBox="0 0 200 200" style="enable-background:new 0 0 200 200;" xml:space="preserve">
<style type="text/css">
	.st0{fill:#F8AE5E;}
	.st1{fill:#F9E1C0;}
	.st2{fill:#F58E4E;}
	.st3{fill:#1F2F3D;}
	.st4{fill:#C96E43;}
	.st5{fill:#FBF9F9;}
	.st6{fill:#FAC087;}
</style>
<g>
	<path class="st4" d="M136.7,104.9c1.4-1.4,2.8-3,4.7-3.6c2.7-0.6,5.3-0.7,7.9,0.8c3.8,2.2,3.8,6.7,0.8,9.1
		c-0.2,0.2-0.5,0.3-0.6,0.6l0,0c-0.3,0.1-0.7,0.1-0.9,0.5c-0.5,0.1-1.1,0.3-1.5,0.4c-2.7,0.8-5.3,0.7-7.7-0.8
		c-2.3-1.4-3.3-3.7-2.7-6.2C136.9,105.5,137.2,105.2,136.7,104.9z"/>
	<path class="st4" d="M57.3,109.3c2.1,0.6,3.9,1.5,5.5,3c0.1,0.3,0.1,0.7,0.2,1c1.5,3.9-1.3,6.7-4.2,7.8c-2.2,0.9-4.4,1-6.9,0.1
		c-2.4-0.9-4-2.4-4.2-4.8c-0.3-2.6,1.3-4.3,3.3-5.6c1.5-1,3.3-1.2,5-1.2C56.5,109.5,57,109.8,57.3,109.3z"/>
</g>
<path class="st3" d="M86.4,125.8L86.4,125.8c1.3,0.7,3,0.3,3.8-1c5.7-8,17.2-9.5,24.8-3.1c1.2,1,2.8,1,4,0h0c1.4-1.2,1.4-3.4,0-4.5
	c-10.2-8.7-25.9-6.7-33.7,4.2C84.2,122.8,84.8,124.9,86.4,125.8z"/>
<path class="st3" d="M48,100.2L48,100.2c1.3,0.7,3,0.3,3.8-1c5.7-8,17.2-9.5,24.8-3.1c1.2,1,2.8,1,4,0l0,0c1.4-1.2,1.4-3.4,0-4.5
	c-10.2-8.7-25.9-6.7-33.7,4.2C45.8,97.3,46.4,99.3,48,100.2z"/>
<path class="st3" d="M121.7,92.9L121.7,92.9c1.3,0.7,3,0.3,3.8-1c5.7-8,17.2-9.5,24.8-3.1c1.2,1,2.8,1,4,0v0c1.4-1.2,1.4-3.4,0-4.5
	c-10.2-8.7-25.9-6.7-33.7,4.2C119.5,90,120,92.1,121.7,92.9z"/>
</svg>
