<?xml version="1.0" encoding="utf-8"?>
<!-- Generator: Adobe Illustrator 27.9.1, SVG Export Plug-In . SVG Version: 6.00 Build 0)  -->
<svg version="1.1" id="Layer_1" xmlns="http://www.w3.org/2000/svg" xmlns:xlink="http://www.w3.org/1999/xlink" x="0px" y="0px"
	 viewBox="0 0 200 200" style="enable-background:new 0 0 200 200;" xml:space="preserve">
<style type="text/css">
	.st0{fill:#C45234;}
	.st1{fill:#E45E39;}
	.st2{fill:#F37769;}
	.st3{fill:#1F2F3D;}
	.st4{fill:#FFFFFF;}
</style>
<g>
	<g>
		<g>
			<path class="st3" d="M76.4,101.3L47,83.6c-3.1-1.9-4.2-6-2.2-9.2l0,0c1.9-3.1,6-4.2,9.2-2.2l29.4,17.7c3.1,1.9,4.2,6,2.2,9.2l0,0
				C83.7,102.2,79.5,103.2,76.4,101.3z"/>
		</g>
		<g>
			<circle class="st3" cx="61.8" cy="102.5" r="15.8"/>
		</g>
		<circle class="st4" cx="67.3" cy="99.6" r="4.5"/>
	</g>
</g>
<circle class="st3" cx="100" cy="131.6" r="15"/>
<g>
	<g>
		<g>
			<path class="st3" d="M114.4,99.1L114.4,99.1c-2-3.2-0.9-7.4,2.2-9.2L146,72.1c3.2-2,7.4-0.9,9.2,2.2l0,0c2,3.2,0.9,7.4-2.2,9.2
				l-29.4,17.7C120.4,103.2,116.3,102.2,114.4,99.1z"/>
		</g>
		<g>
			<circle class="st3" cx="138.2" cy="102.5" r="15.8"/>
		</g>
		<circle class="st4" cx="132.7" cy="99.6" r="4.5"/>
	</g>
</g>
<path class="st1" d="M100,131.6c-4.2,0-8.1,1-11.6,2.9c1.3,5.2,6,9.1,11.6,9.1s10.3-3.9,11.6-9.1C108.1,132.6,104.2,131.6,100,131.6
	z"/>
</svg>
