<?xml version="1.0" encoding="utf-8"?>
<!-- Generator: Adobe Illustrator 27.9.1, SVG Export Plug-In . SVG Version: 6.00 Build 0)  -->
<svg version="1.1" id="Layer_1" xmlns="http://www.w3.org/2000/svg" xmlns:xlink="http://www.w3.org/1999/xlink" x="0px" y="0px"
	 viewBox="0 0 500 500" style="enable-background:new 0 0 500 500;" xml:space="preserve">
<style type="text/css">
	.st0{fill:#5593CE;}
	.st1{fill:#F58A21;}
	.st2{fill:#FCFBFB;}
	.st3{fill:#FECF3F;}
	.st4{fill:#F37769;}
	.st5{fill:#3E2A15;}
	.st6{fill:#FBBC1F;}
	.st7{fill:#FED653;}
	.st8{fill:#473219;}
	.st9{fill:#F69B84;}
	.st10{fill:#77D1F3;}
	.st11{fill:#61A143;}
	.st12{fill:#84C2EA;}
	.st13{fill:#F59892;}
	.st14{fill:#412F19;}
	.st15{fill:#FCFBFA;}
	.st16{fill:#E45E39;}
	.st17{fill:#C45234;}
	.st18{fill:#C45235;}
	.st19{fill:#F26C57;}
	.st20{fill:#382917;}
	.st21{fill:#FDFCFB;}
	.st22{fill:#EC8524;}
	.st23{fill:#F8B032;}
	.st24{fill:#F59B28;}
	.st25{fill:#F5856B;}
	.st26{fill:#3C2916;}
	.st27{fill:#FBFAF9;}
	.st28{fill:#67BDC6;}
	.st29{fill:#B1DFE5;}
	.st30{fill:#9DD5DD;}
	.st31{fill:#8BCBD5;}
	.st32{fill:#152732;}
	.st33{fill:#215D6B;}
	.st34{fill:#4C74B9;}
	.st35{fill:#7DA9DA;}
	.st36{fill:#121D2B;}
	.st37{fill:#8C9CCF;}
	.st38{fill:#F3F2F3;}
	.st39{fill:#B54C33;}
	.st40{fill:#D67140;}
	.st41{fill:#E88F53;}
	.st42{fill:#F8AD71;}
	.st43{fill:#28201B;}
	.st44{fill:#FCC330;}
	.st45{fill:#FDDC65;}
	.st46{fill:#F7A280;}
	.st47{fill:#4B331B;}
	.st48{fill:#EFD1B6;}
	.st49{fill:#F8E1C7;}
	.st50{fill:#C4A998;}
	.st51{fill:#B8A395;}
	.st52{fill:#8F7A6F;}
	.st53{fill:#162430;}
	.st54{fill:#FFFFFF;}
	.st55{fill:#939696;}
	.st56{fill:#FDFCFC;}
	.st57{fill:#B7B8B8;}
	.st58{fill:#929595;}
	.st59{fill:#F7F5F4;}
	.st60{fill:#939595;}
	.st61{fill:#949697;}
	.st62{fill:#D9D9D9;}
	.st63{fill:#261D12;}
	.st64{fill:#251E14;}
	.st65{fill:#F07F7D;}
	.st66{fill:#F3F1F0;}
	.st67{fill:#F0EEED;}
	.st68{fill:#F58E4E;}
	.st69{fill:#F8AE5E;}
	.st70{fill:#F9E1C0;}
	.st71{fill:#FAC087;}
	.st72{fill:#3C2613;}
	.st73{fill:#FBF9F9;}
</style>
<g>
	<circle id="silhouette_00000081649621432684861690000014337493076269228956_" class="st22" cx="250" cy="249" r="249"/>
	<g>
		<g>
			<path class="st23" d="M20.5,206.4c0.7-6.6,2.5-12.9,4.3-19.3c7.3-26.4,19-50.8,35.1-73.1c0.3-0.4,0.6-0.7,0.9-1
				c0.3,0.8,1.1,1.1,1.8,1.4c4.5,2.2,9,4.5,13.6,6.5c13.1,5.6,26.7,9.5,40.6,12.4c16.4,3.4,33.2,5.2,49.7,7.8
				c14.7,2.3,28.7,6.4,41.7,13.6c10.3,5.7,19.6,12.7,28.6,20c6.9,5.6,13.8,11.4,21.3,16.3c8.2,5.4,16.8,9.8,26.1,13.1
				c9.7,3.5,19.7,5.4,30,5.9c6,0.3,12,0.3,18-0.3c8.6-0.8,17.1-2,25.5-3.6c7.5-1.4,15-2.6,22.5-2.9c7.6-0.3,15,0.9,22.4,2.5
				c11.9,2.6,23.4,7.3,35.7,8.2c10.1,0.8,19.8-0.1,29.3-3.5c4-1.4,7.9-3.1,11.9-4.6c2.1,9.4,3.3,18.8,3.9,28.4
				c0.9,13.6,0.8,27.3-0.5,40.9c-1.4,14.8-4.5,29.3-8.7,43.6c-0.3,0.9-0.6,1.9-1,2.8c-0.6-0.8-1.5-0.6-2.4-0.5
				c-4.1,0.4-8.2,0.9-12.5,0.5c-7.3-0.6-14.4-1.9-21.5-3.7c-9-2.3-17.8-5.2-27-6.7c-9.3-1.5-18.6-1.9-28-0.9
				c-10.3,1.1-20.3,3.7-30.1,6.6c-11.6,3.5-23,7.4-34.9,9.9c-10.6,2.2-21.2,3.6-32,3.8c-10,0.2-19.8-0.7-29.6-2.3
				c-9.5-1.5-18.8-3.7-28-6.8c-14.5-4.8-28.3-11.2-41.8-18c-2.3-1.1-4.3-2.7-6.8-3.4c0.2-0.4,0.4-0.8,0.7-1.2
				c5.5-7.2,5.7-16.3,0.3-23.6c-7.1-9.5-21.5-11.5-32.2-7.1c-4.9,2-8.4,5.6-11.2,10c-5.6-2.2-10.8-5-16-8
				c-8.3-4.9-15.7-10.9-21.8-18.4c-6.1-7.5-11.6-15.4-19.1-21.8c-6.1-5.2-12.6-9.9-19.8-13.5c-11.7-5.8-23.9-9.6-37.2-9.6
				C21.7,206.9,21.1,206.7,20.5,206.4z M342.3,266.1c-8.1,0.1-15.2,2.3-20.6,8.8c-7.6,9.1-4.7,24,5.9,29.3
				c10.6,5.2,20.9,4.5,30.6-2.2c8.6-6,10.7-18.2,4.4-26.5C357.6,268.8,350.6,265.9,342.3,266.1z M184.1,267.2c0.2,0,1.2,0,2.1-0.1
				c8.2-1.1,14.8-7,16.8-14.7c2-7.8-1-16.2-7.5-20.9c-6.8-4.9-15.8-5.3-22.8-0.8c-1.5,0.9-2.8,1.1-4.4,0.5c-2-0.7-3.6-1.8-4.6-3.7
				c-0.8-1.5-1.9-2.4-3.6-1.6c-1.6,0.7-1.7,2.2-1.3,3.7c0.8,3.2,2.8,5.4,5.8,6.8c0.5,0.2,1.4,0.1,1.3,1c-0.1,2.3-2.2,3.7-4.4,2.8
				c-1.2-0.5-2.3-1.3-3.1-2.4c-0.9-1.4-2.2-2.2-3.8-1.3c-1.7,1-1.5,2.5-0.8,4.1c1.5,3.3,4.1,5.1,7.6,5.9c1.1,0.3,1.8,0.5,1.9,2
				C163.8,259.2,172.6,267.3,184.1,267.2z M318.4,266.9c10.9-0.5,18.6-7.4,19.7-18.1c0.2-1.5,0.4-2.2,2.1-2.5
				c3.3-0.6,5.8-2.6,7.3-5.6c0.7-1.5,0.8-3.1-0.8-4.1c-1.7-1.1-2.9-0.1-3.9,1.3c-1.1,1.6-2.7,2.5-4.7,2.6c-2,0.1-1.7-1.9-2.4-2.9
				c-0.8-1.1,0.6-1.1,1.2-1.4c3.1-1.4,5.1-3.7,5.8-7.1c0.4-1.7-0.3-3.1-2.1-3.6c-1.6-0.4-2.3,0.8-3,2c-2.2,3.6-5.9,4.6-9.4,2.6
				c-2.8-1.6-5.8-2.4-9.1-2.7c-11.2-0.8-21,8.3-21.3,19.8C297.6,258.1,307.3,267.4,318.4,266.9z M248.7,295.8
				c6.9,0,11.9-1.1,16.4-3.8c5.2-3.1,9-7.3,10.1-13.4c0.5-2.8-0.8-5-3.3-5.5c-2.7-0.6-5,1-5.5,3.9c-0.4,2.3-1.6,4.1-3.3,5.7
				c-4.6,4.2-10.2,5-15.9,4.1c-6.1-1-11.3-3.6-12.5-10.6c-0.4-2.3-2.9-3.6-5.2-3.2c-2.2,0.4-3.7,2.3-3.6,4.7c0.2,2.4,1,4.6,2.3,6.7
				C233.2,292.6,241.2,295.3,248.7,295.8z"/>
			<path class="st24" d="M178.7,300.3c2.5,0.7,4.6,2.2,6.8,3.4c13.6,6.8,27.4,13.2,41.8,18c9.1,3,18.5,5.2,28,6.8
				c9.8,1.6,19.7,2.5,29.6,2.3c10.8-0.2,21.5-1.6,32-3.8c11.9-2.5,23.3-6.4,34.9-9.9c9.9-3,19.8-5.5,30.1-6.6c9.4-1,18.7-0.6,28,0.9
				c9.2,1.5,18,4.4,27,6.7c7,1.8,14.2,3.1,21.5,3.7c4.3,0.4,8.3-0.1,12.5-0.5c0.8-0.1,1.7-0.3,2.4,0.5c-2.6,9.5-6.3,18.7-10.5,27.6
				c-3.3,7.1-6.9,14-11.1,20.6c-0.1-0.1-0.2-0.1-0.3-0.2c0.1,0.1,0.1,0.2,0.2,0.3c0,0-0.1,0.2-0.1,0.2c-0.9-0.6-1.7,0-2.4,0.3
				c-2.3,0.7-4.5,1.6-6.9,2.1c-7.3,1.7-14.7,2.6-22.3,2c-6.6-0.6-12.9-1.8-19.1-3.7c-10.2-3.1-20.1-7.3-30.3-10.5
				c-11.1-3.4-22.4-5.4-34-6.1c-7.3-0.5-14.6-0.1-21.9,0.7c-11.7,1.3-22.8,4.4-33.8,8.1c-7.9,2.6-15.8,5.7-23.8,8.1
				c-14.4,4.3-28.9,7-44,5.6c-8.6-0.8-16.9-2.3-25-4.9c-11.7-3.7-22.4-9.4-32.6-16.1C142,347,129,338,114.3,331.6
				c-10.7-4.7-21.6-8.5-32.9-11.5c-15.7-4.2-31.8-7-47.4-11.5c-3.9-1.1-7.8-2.4-11.7-3.6c-2.2-7.7-3.6-15.6-4.5-23.6
				c-2.6-21.9-2.3-43.7,0.9-65.5c0.5-3.2,0.8-6.4,1.8-9.4c0.6,0.3,1.3,0.5,2,0.5c13.3,0,25.5,3.8,37.2,9.6
				c7.2,3.6,13.7,8.3,19.8,13.5c7.5,6.4,13,14.3,19.1,21.8c6.1,7.5,13.4,13.5,21.8,18.4c5.1,3,10.4,5.8,16,8
				c-0.3,0.9-0.6,1.8-0.8,2.6c-1.2,4.7-1.4,9.4,1,13.9c5.5,10.4,17,14.3,28.4,12.6C170.2,306.5,174.8,304,178.7,300.3z"/>
			<path class="st23" d="M426.3,404.2c-5.6,6.9-12,13.1-18.6,19c-18.4,16.6-38.7,30.2-61.5,40.3c-0.3-0.5-0.8-0.7-1.3-1
				c-4.9-2.2-9.9-4.1-15-5.8c-10.9-3.6-22.2-5.1-33.5-6c-9.5-0.7-19-1.2-28.6-1.8c-6.7-0.4-13.4-1.1-20.1-2
				c-11.5-1.6-22.9-3.9-34.2-6.6c-13.8-3.3-27.6-6.7-41.4-9.7c-10.1-2.2-20.4-3.8-30.7-5.2c-6.8-0.9-13.5-1.6-20.3-2.3
				c-4.7-0.5-9.4-1-14.1-1.4c-5.7-0.5-11.4-1.6-17.1-1.3c-18-16.4-32.7-35.3-44.7-56.3c-0.2-0.4-0.4-0.8-0.5-1.3
				c6.1-1.3,12.3-2,18.4-2.2c9-0.4,18-0.1,27,1.2c11.9,1.7,23.3,5.1,34.5,9.3c15.2,5.7,29.9,12.5,44.8,18.8
				c17.4,7.4,35,13.9,53.7,17.4c9.2,1.7,18.5,2.9,27.9,3.3c9.2,0.4,18.3,0,27.5-1.2c11.5-1.6,22.4-5,32.9-9.7
				c9.8-4.4,19.6-8.9,30.5-10.4c6.9-1,13.8-1.1,20.7,0c9.3,1.4,18.2,4.6,27,7.8c11,4,22.2,7,34.1,6.8
				C424.7,403.8,425.5,403.8,426.3,404.2z"/>
			<path class="st23" d="M99.6,71.6c6.2-5.7,13-10.7,20.1-15.4c9.7-6.5,19.8-12.5,30.5-17.3c0.5,0.6,1.1,0.8,1.8,0.9
				c7,1.2,13.9,2.9,20.8,4.6c9,2.3,18,4.8,26.8,7.8c10.2,3.4,20.2,7.1,30.1,11c7.2,2.9,14.4,5.8,21.6,8.6c8,3.1,15.9,6.2,24,8.8
				c11.5,3.7,23.2,6.6,35.3,8.1c6.5,0.8,13.1,1.5,19.7,1.6c6.2,0.1,12.4,0.1,18.7-0.3c6-0.4,12.1-0.8,18.1-1.6
				c11.4-1.5,22.6-3.7,33.7-6.5c3.1-0.8,6.4-1,9.3-2.7c9,8.2,17,17.3,24.3,26.9c4.7,6.2,9.2,12.5,13.2,19.2c-4.6,2-9.2,4.1-13.8,6.1
				c-17.7,7.8-36.2,12.3-55.5,13.6c-12.6,0.9-25.2,0-37.6-2.3c-15.6-2.9-30.7-7.8-45.4-13.7c-13-5.2-25.8-10.6-39-15.2
				c-23.5-8.1-47.8-12.6-72.4-15.6c-11.7-1.4-23.4-2.8-34.9-5.1c-16.5-3.3-32-8.8-45.9-18.4C101.7,74,99.9,73.5,99.6,71.6z"/>
			<path class="st22" d="M426.3,404.2c-0.8-0.4-1.6-0.4-2.5-0.4c-11.9,0.3-23.1-2.7-34.1-6.8c-8.8-3.2-17.7-6.4-27-7.8
				c-6.8-1-13.8-0.9-20.7,0c-10.9,1.5-20.7,6-30.5,10.4c-10.5,4.7-21.4,8.1-32.9,9.7c-9.1,1.3-18.3,1.7-27.5,1.2
				c-9.4-0.4-18.7-1.6-27.9-3.3c-18.7-3.5-36.3-10-53.7-17.4c-14.9-6.3-29.6-13.1-44.8-18.8c-11.2-4.2-22.6-7.6-34.5-9.3
				c-9-1.3-18-1.5-27-1.2c-6.2,0.2-12.4,1-18.4,2.2c-6-10.2-10.8-21-14.9-32c-2.9-7.9-5.5-15.9-7.3-24.1c-0.1-0.6-0.2-1.2-0.3-1.8
				c3.9,1.2,7.8,2.5,11.7,3.6c15.6,4.6,31.7,7.3,47.4,11.5c11.3,3,22.2,6.9,32.9,11.5C129,338,142,347,155.2,355.7
				c10.2,6.7,20.9,12.4,32.6,16.1c8.1,2.6,16.5,4.1,25,4.9c15.1,1.3,29.6-1.3,44-5.6c8-2.4,15.8-5.5,23.8-8.1
				c11-3.7,22.2-6.8,33.8-8.1c7.3-0.8,14.6-1.2,21.9-0.7c11.5,0.7,22.9,2.7,34,6.1c10.2,3.2,20.1,7.3,30.3,10.5
				c6.2,1.9,12.6,3.1,19.1,3.7c7.6,0.7,15-0.3,22.3-2c2.3-0.5,4.6-1.4,6.9-2.1c0.8-0.2,1.5-0.9,2.4-0.3
				C444.3,382.4,435.9,393.8,426.3,404.2z"/>
			<path class="st24" d="M479.5,205.9c-4,1.5-7.9,3.2-11.9,4.6c-9.5,3.4-19.3,4.3-29.3,3.5c-12.4-1-23.8-5.6-35.7-8.2
				c-7.4-1.6-14.8-2.8-22.4-2.5c-7.6,0.3-15.1,1.5-22.5,2.9c-8.4,1.5-16.9,2.8-25.5,3.6c-6,0.5-12,0.6-18,0.3
				c-10.2-0.5-20.2-2.4-30-5.9c-9.3-3.3-17.9-7.8-26.1-13.1c-7.5-4.9-14.3-10.7-21.3-16.3c-9-7.3-18.3-14.3-28.6-20
				c-13.1-7.2-27.1-11.2-41.7-13.6c-16.6-2.6-33.3-4.4-49.7-7.8c-13.9-2.9-27.5-6.8-40.6-12.4c-4.6-2-9.1-4.3-13.6-6.5
				c-0.7-0.3-1.5-0.6-1.8-1.4c6.8-9.8,14.6-18.8,23.2-27.1c3.2,0.2,6.3,0.8,9.4,1.5c4.4,1,8.5,2.9,12.2,5.6c5.1,3.7,9,8.5,12.9,13.2
				c4.7,5.6,10.1,10.1,16.7,13.4c10.4,5.1,21.6,6.7,33,6.8c8.9,0.1,17.8-0.6,26.7-1.2c7.7-0.5,15.5,0,23.2,1.2
				c11.1,1.7,21.3,5.7,30.9,11c13.1,7.2,24.7,16.7,37,25c7.8,5.2,15.9,9.8,24.5,13.1c15.1,5.8,30.8,8.6,47.1,7.6
				c5.4-0.3,10.8-0.6,16.2-1.4c13.4-1.9,26.4-5.3,39.4-8.9c14.3-3.9,28.6-8,43.8-6.8c3.9,0.3,7.7,0.8,11.4,1.8
				c3.8,9,6.4,18.4,8.8,27.9C478.2,199,479.1,202.4,479.5,205.9z"/>
			<path class="st22" d="M468.5,167.8c-3.7-1-7.6-1.5-11.4-1.8c-15.2-1.2-29.5,2.9-43.8,6.8c-13,3.6-26,7-39.4,8.9
				c-5.4,0.7-10.8,1.1-16.2,1.4c-16.3,1-32-1.8-47.1-7.6c-8.7-3.4-16.8-7.9-24.5-13.1c-12.4-8.3-23.9-17.7-37-25
				c-9.7-5.3-19.9-9.3-30.9-11c-7.7-1.2-15.5-1.7-23.2-1.2c-8.9,0.6-17.8,1.3-26.7,1.2c-11.4-0.2-22.6-1.7-33-6.8
				c-6.6-3.2-12-7.8-16.7-13.4c-3.9-4.7-7.9-9.5-12.9-13.2c-3.7-2.6-7.8-4.5-12.2-5.6c-3.1-0.7-6.2-1.4-9.4-1.5
				c4.9-5.1,10-10,15.6-14.2c0.4,1.8,2.1,2.4,3.4,3.2c13.9,9.6,29.4,15.1,45.9,18.4c11.6,2.3,23.2,3.7,34.9,5.1
				c24.6,3,48.9,7.5,72.4,15.6c13.2,4.6,26.1,10,39,15.2c14.7,5.9,29.7,10.8,45.4,13.7c12.4,2.3,25,3.2,37.6,2.3
				c19.3-1.3,37.8-5.8,55.5-13.6c4.6-2,9.2-4.1,13.8-6.1c5.4,8,9.8,16.6,13.9,25.3C464.1,156.3,466.7,161.8,468.5,167.8z"/>
			<path class="st24" d="M410,79.4c-2.8,1.7-6.2,1.9-9.3,2.7c-11.1,2.8-22.3,5-33.7,6.5c-6,0.8-12,1.2-18.1,1.6
				c-6.2,0.4-12.4,0.4-18.7,0.3c-6.6-0.1-13.1-0.9-19.7-1.6c-12.1-1.4-23.8-4.4-35.3-8.1c-8.1-2.6-16-5.8-24-8.8
				c-7.2-2.8-14.4-5.7-21.6-8.6c-9.9-3.9-20-7.6-30.1-11c-8.8-2.9-17.8-5.4-26.8-7.8c-6.9-1.8-13.8-3.4-20.8-4.6
				c-0.7-0.1-1.4-0.3-1.8-0.9c10.1-5.1,20.6-9,31.4-12.4C211.9,17,243,14,274.7,17.3c52.1,5.4,96.9,26.2,134.9,61.5
				C409.8,79,409.9,79.2,410,79.4z"/>
			<path class="st22" d="M90,420.4c5.8-0.3,11.4,0.8,17.1,1.3c4.7,0.4,9.4,0.9,14.1,1.4c6.8,0.7,13.5,1.4,20.3,2.3
				c10.3,1.4,20.5,3,30.7,5.2c13.9,3,27.6,6.4,41.4,9.7c11.3,2.7,22.7,5.1,34.2,6.6c6.7,0.9,13.4,1.6,20.1,2
				c9.5,0.6,19,1.1,28.6,1.8c11.4,0.9,22.7,2.4,33.5,6c5.1,1.7,10.1,3.6,15,5.8c0.5,0.2,1,0.5,1.3,1c-14.3,6.6-29.2,11.4-44.6,14.9
				c-24.1,5.4-48.5,7-73.1,4.5c-50.7-5.1-95.1-24.5-133.2-57.6C93.5,423.7,91.8,422,90,420.4z"/>
			<path class="st22" d="M451.5,369.9c-0.1-0.1-0.1-0.2-0.2-0.3c0.1,0.1,0.2,0.1,0.3,0.2C451.6,369.8,451.5,369.9,451.5,369.9z"/>
			<path class="st25" d="M178.7,300.3c-3.9,3.7-8.4,6.3-13.8,7.1c-11.4,1.7-22.9-2.2-28.4-12.6c-2.3-4.4-2.2-9.1-1-13.9
				c0.2-0.9,0.5-1.8,0.8-2.6c2.7-4.4,6.3-7.9,11.2-10c10.7-4.4,25.1-2.4,32.2,7.1c5.4,7.3,5.2,16.5-0.3,23.6
				C179,299.4,178.9,299.9,178.7,300.3z"/>
			<path class="st25" d="M342.3,266.1c8.4-0.2,15.3,2.6,20.3,9.3c6.3,8.4,4.2,20.5-4.4,26.5c-9.7,6.7-20,7.5-30.6,2.2
				c-10.7-5.3-13.5-20.2-5.9-29.3C327.1,268.5,334.2,266.2,342.3,266.1z"/>
			<path class="st26" d="M184.1,267.2c-11.6,0.1-20.3-8-20.8-18.6c-0.1-1.5-0.7-1.7-1.9-2c-3.4-0.8-6.1-2.6-7.6-5.9
				c-0.7-1.5-0.8-3.1,0.8-4.1c1.6-0.9,2.8-0.1,3.8,1.3c0.8,1.1,1.8,1.9,3.1,2.4c2.2,0.9,4.3-0.4,4.4-2.8c0-0.9-0.8-0.8-1.3-1
				c-3-1.4-5-3.6-5.8-6.8c-0.4-1.5-0.3-3,1.3-3.7c1.7-0.8,2.8,0.1,3.6,1.6c1,1.9,2.6,3,4.6,3.7c1.6,0.5,2.9,0.4,4.4-0.5
				c7.1-4.5,16-4.2,22.8,0.8c6.5,4.7,9.5,13,7.5,20.9c-2,7.7-8.6,13.6-16.8,14.7C185.3,267.2,184.4,267.2,184.1,267.2z M188.1,249.2
				c3.9,0.1,7-2.9,7.1-6.7c0.1-3.8-2.9-6.9-6.8-7.1c-3.8-0.1-7.3,3.2-7.2,6.9C181.2,246.1,184.2,249.2,188.1,249.2z"/>
			<path class="st26" d="M318.4,266.9c-11.1,0.5-20.8-8.7-20.6-19.7c0.2-11.5,10-20.6,21.3-19.8c3.2,0.2,6.3,1.1,9.1,2.7
				c3.6,2.1,7.3,1.1,9.4-2.6c0.7-1.2,1.4-2.4,3-2c1.8,0.5,2.4,1.9,2.1,3.6c-0.7,3.3-2.7,5.6-5.8,7.1c-0.6,0.3-2,0.3-1.2,1.4
				c0.7,1,0.4,3,2.4,2.9c2-0.1,3.6-1,4.7-2.6c1-1.4,2.2-2.3,3.9-1.3c1.6,1,1.5,2.6,0.8,4.1c-1.5,3-4,5-7.3,5.6c-1.7,0.3-2,1-2.1,2.5
				C336.9,259.4,329.3,266.4,318.4,266.9z M313.5,235.3c-3.9-0.1-7.1,2.9-7.1,6.6c-0.1,3.8,2.9,6.9,6.7,7.1c3.8,0.1,7.3-3.1,7.4-6.8
				C320.5,238.6,317.3,235.4,313.5,235.3z"/>
			<path class="st26" d="M248.7,295.8c-7.5-0.5-15.5-3.2-20.6-11.3c-1.3-2.1-2.1-4.3-2.3-6.7c-0.2-2.4,1.3-4.3,3.6-4.7
				c2.4-0.4,4.8,0.9,5.2,3.2c1.2,7,6.4,9.5,12.5,10.6c5.8,1,11.4,0.1,15.9-4.1c1.7-1.5,2.9-3.4,3.3-5.7c0.5-2.9,2.8-4.5,5.5-3.9
				c2.5,0.5,3.8,2.7,3.3,5.5c-1.1,6.1-4.9,10.3-10.1,13.4C260.6,294.7,255.6,295.8,248.7,295.8z"/>
			<path class="st27" d="M188.1,249.2c-3.9-0.1-6.9-3.1-6.9-6.9c0-3.7,3.5-7,7.2-6.9c3.8,0.1,6.8,3.3,6.8,7.1
				C195.1,246.3,192,249.3,188.1,249.2z"/>
			<path class="st27" d="M313.5,235.3c3.8,0.1,7,3.3,7,6.9c-0.1,3.7-3.6,6.9-7.4,6.8c-3.8-0.1-6.8-3.3-6.7-7.1
				C306.4,238.2,309.6,235.2,313.5,235.3z"/>
		</g>
	</g>
</g>
</svg>
