<?xml version="1.0" encoding="utf-8"?>
<!-- Generator: Adobe Illustrator 27.9.1, SVG Export Plug-In . SVG Version: 6.00 Build 0)  -->
<svg version="1.1" id="Layer_1" xmlns="http://www.w3.org/2000/svg" xmlns:xlink="http://www.w3.org/1999/xlink" x="0px" y="0px"
	 viewBox="0 0 200 200" style="enable-background:new 0 0 200 200;" xml:space="preserve">
<style type="text/css">
	.st0{fill:#141317;}
	.st1{fill:#FED653;}
	.st2{fill:#EDA229;}
	.st3{fill:#F7C22D;}
	.st4{fill:#D4A01C;}
	.st5{fill:#FAFAFA;}
	.st6{fill:#FFFFFF;}
</style>
<circle class="st0" cx="45.6" cy="105.5" r="22.6"/>
<g>
	<circle class="st0" cx="154.2" cy="121.6" r="29.5"/>
	<g>
		<g>
			<polygon class="st1" points="57.6,86.2 57.6,86.2 57.6,86.2 57.6,86.2 57.6,86.2 57.7,86.2 57.7,86.2 57.6,86.2 57.6,86.2 			"/>
		</g>
	</g>
	<g>
		<polygon class="st0" points="57.6,86.2 57.6,86.2 57.7,86.2 		"/>
	</g>
	<path class="st5" d="M36.9,97.7c-2.8,0-4.9-2.1-4.9-4.8c0-2.6,2.3-4.9,4.8-4.9c2.7,0,4.9,2.2,4.9,4.9
		C41.7,95.5,39.5,97.7,36.9,97.7z"/>
	<path class="st5" d="M42.8,99c4.2,0,7.8,3.6,7.7,7.9c0,4.3-3.5,7.9-7.8,7.9c-4.4,0-8-3.5-8-7.8C34.8,102.5,38.4,99,42.8,99z"/>
	<circle class="st6" cx="36.8" cy="92.9" r="4.8"/>
	<g>
		<polygon class="st0" points="170,96.5 170,96.5 170,96.6 		"/>
	</g>
	<path class="st5" d="M142.8,111.5c-3.6,0-6.4-2.8-6.4-6.2c0-3.4,3-6.4,6.3-6.3c3.5,0.1,6.4,2.9,6.4,6.4
		C149.1,108.7,146.2,111.5,142.8,111.5z"/>
	<path class="st5" d="M150.7,113.2c5.5,0,10.1,4.8,10.1,10.2c0,5.7-4.6,10.3-10.2,10.3c-5.8,0-10.4-4.5-10.4-10.2
		C140.2,117.7,144.8,113.2,150.7,113.2z"/>
	<circle class="st6" cx="142.7" cy="105.2" r="6.3"/>
</g>
<path class="st0" d="M68.9,145l0.2,0.3c0.8,1.1,2,1.7,3.3,1.7c0.7,0,1.4-0.2,2-0.5c2.7-1.5,5.8-2.2,8.9-2.2c6.4,0,12.2,3.2,15.7,8.4
	c0.8,1.2,2.1,1.9,3.5,1.9c0.6,0,1.2-0.1,1.7-0.4l0.3-0.2c1.1-0.5,1.9-1.4,2.2-2.6c0.3-1.1,0.1-2.4-0.5-3.3
	c-5-7.8-13.6-12.4-22.9-12.4c-4.5,0-9.1,1.2-13,3.3c-1,0.6-1.8,1.6-2,2.7C68,142.9,68.2,144.1,68.9,145z"/>
</svg>
