<?xml version="1.0" encoding="utf-8"?>
<!-- Generator: Adobe Illustrator 27.9.1, SVG Export Plug-In . SVG Version: 6.00 Build 0)  -->
<svg version="1.1" id="Layer_1" xmlns="http://www.w3.org/2000/svg" xmlns:xlink="http://www.w3.org/1999/xlink" x="0px" y="0px"
	 viewBox="0 0 200 200" style="enable-background:new 0 0 200 200;" xml:space="preserve">
<style type="text/css">
	.st0{fill:#F8AE5E;}
	.st1{fill:#F9E1C0;}
	.st2{fill:#F58E4E;}
	.st3{fill:#1F2F3D;}
	.st4{fill:#C96E43;}
	.st5{fill:#FBF9F9;}
	.st6{fill:#FAC087;}
</style>
<g>
	<path class="st0" d="M0.1,94.5c1.1-20,8-38.5,19.2-53.6c19.7,7.4,43.5,11.2,68.9,10c31.6-1.4,59.9-10.2,80.6-23.4
		c11.3,10.8,20.2,24.2,25.5,39.3c-25.3,16.1-55.2,27.9-88.1,33.5C68.8,106.6,32.4,104.1,0.1,94.5z"/>
	<path class="st4" d="M107.3,161.8c29.8-5.1,58.2-12.6,84.6-22.1C176.5,175.2,141.1,200,100,200c-28.6,0-54.3-12-72.5-31.2
		C53.3,168.7,80,166.4,107.3,161.8z"/>
	<path class="st0" d="M200,100c0,7.1-0.7,14-2.1,20.6C165.8,130.8,130,137.3,92.3,139c-30.1,1.4-59.1-0.4-86.3-4.8
		c-2.6-7.1-4.4-14.6-5.3-22.3c34,11.7,71.2,15.3,109,8.9c33.1-5.6,63.2-18.3,89.1-36.3C199.6,89.5,200,94.7,200,100z"/>
	<path class="st6" d="M198.8,84.5c-25.9,18-56.1,30.7-89.1,36.3c-37.8,6.4-75,2.8-109-8.9C0.2,108,0,104,0,100
		c0-1.8,0.1-3.7,0.2-5.5c32.2,9.6,68.6,12.1,106.1,5.8c32.9-5.6,62.9-17.4,88.1-33.5C196.3,72.5,197.9,78.4,198.8,84.5z"/>
	<path class="st6" d="M197.9,120.6c-1.4,6.6-3.4,13-6,19c-26.4,9.5-54.7,17.1-84.6,22.1c-27.3,4.6-54,6.9-79.8,7
		C18.1,159,10.7,147.2,6,134.2c27.2,4.4,56.2,6.2,86.3,4.8C130,137.3,165.8,130.8,197.9,120.6z"/>
	<path class="st4" d="M168.9,27.5c-20.7,13.2-49.1,22-80.6,23.4c-25.4,1.2-49.2-2.6-68.9-10c5.1-7,11.2-13.3,17.9-18.7
		c13.8,5.3,31.2,8.1,50,7.2c24.1-1.1,45.4-7.9,59.5-17.8C154.9,15.9,162.3,21.2,168.9,27.5z"/>
	<path class="st6" d="M146.8,11.6c-14.1,9.9-35.4,16.7-59.5,17.8c-18.8,0.8-36.2-1.9-50-7.2c3.7-3,7.7-5.8,11.9-8.2
		c10,3.6,23.3,5.5,37.7,4.8c19.4-0.9,36.2-6.1,45.8-13.3C137.5,7.1,142.2,9.2,146.8,11.6z"/>
	<path class="st1" d="M132.6,5.4c-9.6,7.2-26.4,12.4-45.8,13.3c-14.4,0.7-27.6-1.2-37.7-4.8C64,5.1,81.4,0,100,0
		C111.4,0,122.3,1.9,132.6,5.4z"/>
</g>
</svg>
