<?xml version="1.0" encoding="utf-8"?>
<!-- Generator: Adobe Illustrator 27.9.1, SVG Export Plug-In . SVG Version: 6.00 Build 0)  -->
<svg version="1.1" xmlns="http://www.w3.org/2000/svg" xmlns:xlink="http://www.w3.org/1999/xlink" x="0px" y="0px"
	 viewBox="0 0 285.3 200" style="enable-background:new 0 0 285.3 200;" xml:space="preserve">
<style type="text/css">
	.st0{fill:#F59B28;}
	.st1{fill:#B54C33;}
	.st2{fill:#FFFFFF;}
	.st3{fill:#EDCA9F;}
	.st4{fill:#F9E1C0;}
	.st5{fill:#FBDE84;}
	.st6{fill:#0C0C0C;}
	.st7{fill:#F05979;}
	.st8{fill:#719190;}
	.st9{fill:#FFFFFF;stroke:#000000;stroke-miterlimit:10;}
	.st10{fill:#B7B8B8;}
	.st11{fill:#5BA0A5;}
	.st12{fill:#B1DFE5;}
	.st13{fill:#E45E39;}
	.st14{fill:#FBFAF9;}
	.st15{fill:#8BCBD5;}
	.st16{fill:#121C2B;}
	.st17{fill:#FBF9F9;}
	.st18{fill:#0D1117;}
	.st19{fill:#4AA146;}
	.st20{fill:#C96E43;}
	.st21{fill:#4C74B9;}
	.st22{fill:#FED653;}
</style>
<g id="Layer_1">
	<path class="st0" d="M66.4,86.9c-0.2,2.2-0.3,4.5-0.3,6.8c0,8.1,1.8,16.4,4.4,23.9h-70L66.4,86.9z"/>
	<path class="st1" d="M189.1,0.5H96.2C73.3,0.5,54.7,19.1,54.7,42v51.1h175.9V42C230.6,19.1,212,0.5,189.1,0.5z"/>
	<path class="st0" d="M284.9,117.5h-73.7c2.8-7.5,4.2-15.8,4.2-23.9c0-2.3-0.1-4.5-0.4-6.8L284.9,117.5z"/>
	<path class="st2" d="M216.3,70.4V69V39c0-0.8,0.1-1.6,0.4-2.3l3.9-12.1c1.8-5.5-3.1-10.9-8.8-9.6L191,19.7c-0.5,0.1-1,0.2-1.6,0.2
		l-48.8,0.6l-48.8-0.6c-0.5,0-1-0.1-1.6-0.2L69.4,15c-5.7-1.3-10.6,4.1-8.8,9.6l3.9,12.1c0.2,0.7,0.4,1.5,0.4,2.3v30v1.4v30
		c0,0.8-0.1,1.6-0.4,2.3l-3.9,12.1c-1.8,5.5,3.1,10.9,8.8,9.6l20.8-4.7c0.5-0.1,1-0.2,1.6-0.2l48.8-0.6l48.8,0.6
		c0.5,0,1,0.1,1.6,0.2l20.8,4.7c5.7,1.3,10.6-4.1,8.8-9.6l-3.9-12.1c-0.2-0.7-0.4-1.5-0.4-2.3V70.4z"/>
	<circle class="st3" cx="86.2" cy="80.5" r="12.1"/>
	<circle class="st3" cx="199.1" cy="80.5" r="12.1"/>
	<path class="st4" d="M192.4,117.5c6.9-9.8,10.9-21.8,10.9-34.7c0-33.5-27.2-60.6-60.6-60.6C109.1,22.2,82,49.4,82,82.9
		c0,12.9,4,24.8,10.9,34.7H192.4z"/>
	<path class="st5" d="M284.9,117.5H0.5v24.9c0,31.8,25.8,57.6,57.6,57.6h169.2c31.8,0,57.6-25.8,57.6-57.6V117.5z"/>
	<g>
		<line x1="50.5" y1="84.9" x2="51" y2="85.7"/>
		<line x1="0.5" y1="117.9" x2="0" y2="117"/>
	</g>
	<circle class="st6" cx="119.2" cy="76.7" r="6.8"/>
	<circle class="st6" cx="166.1" cy="76.7" r="6.8"/>
	<ellipse class="st7" cx="115" cy="90.5" rx="6.7" ry="2"/>
	<ellipse class="st7" cx="168.8" cy="90.5" rx="6.7" ry="2"/>
	<circle class="st1" cx="142.6" cy="154" r="40.2"/>
	<path class="st13" d="M150.2,16.5c0,0,9.6,2.7,3.5,10.8c-4.3,5.6-11.9,3.4-16.1,1.6c-0.9-0.7-1.9-1.2-3-1.6c0,0,0,0,0,0l0,0
		c-0.9-0.3-1.9-0.4-3-0.4c-5.5,0-10,4.5-10,10c0,5.5,3.3,10.3,10,10c0,0,28.6,3.8,33.5-15.2S155.2,13.4,150.2,16.5z"/>
	<path class="st6" d="M141.8,111.3L141.8,111.3c-5.7,0-10.3-4.6-10.3-10.3v-6h20.6v6C152.1,106.7,147.5,111.3,141.8,111.3z"/>
	<rect x="134.6" y="95" class="st14" width="6" height="6"/>
</g>
<g id="Layer_2">
</g>
</svg>
